<?xml version="1.0" standalone="no"?>
<!DOCTYPE svg PUBLIC "-//W3C//DTD SVG 20010904//EN"
 "http://www.w3.org/TR/2001/REC-SVG-20010904/DTD/svg10.dtd">
<svg version="1.0" xmlns="http://www.w3.org/2000/svg"
 width="537.000000pt" height="537.000000pt" viewBox="0 0 537.000000 537.000000"
 preserveAspectRatio="xMidYMid meet">
<metadata>
Created by potrace 1.11, written by Peter Selinger 2001-2013
</metadata>
<g transform="translate(0.000000,537.000000) scale(0.100000,-0.100000)"
fill="#000000" stroke="none">
<path d="M2485 5334 c-16 -2 -73 -9 -125 -15 -667 -76 -1313 -436 -1745 -974
-298 -370 -490 -822 -561 -1320 -24 -164 -24 -503 0 -675 138 -1013 812 -1842
1762 -2170 666 -230 1381 -190 2011 110 802 382 1351 1127 1488 2020 23 148
31 448 16 606 -58 622 -310 1172 -741 1618 -398 412 -937 689 -1514 777 -124
19 -511 34 -591 23z m579 -95 c269 -39 506 -112 754 -234 176 -86 278 -148
432 -263 128 -96 363 -324 460 -447 288 -364 481 -818 547 -1290 19 -138 22
-492 4 -630 -51 -406 -194 -795 -414 -1128 -104 -157 -191 -262 -336 -408
-404 -403 -909 -653 -1486 -735 -182 -26 -526 -23 -714 5 -288 44 -517 116
-782 247 -276 137 -491 295 -710 521 -390 403 -624 886 -710 1468 -18 120 -18
540 0 660 61 411 196 772 410 1096 227 342 550 644 897 837 329 182 700 295
1059 322 159 12 428 3 589 -21z"/>
<path d="M2430 5209 c-291 -28 -576 -108 -850 -240 -179 -86 -257 -134 -430
-263 -151 -112 -337 -292 -452 -436 -290 -364 -482 -817 -543 -1283 -20 -155
-20 -469 0 -624 42 -319 146 -641 296 -914 321 -582 862 -1020 1499 -1212 114
-35 250 -64 405 -89 108 -16 532 -16 655 1 368 50 733 181 1028 368 208 132
476 371 635 568 287 356 470 782 539 1260 20 138 17 542 -5 685 -41 266 -125
536 -237 765 -392 798 -1174 1337 -2055 1415 -127 11 -362 11 -485 -1z m-123
-364 l-65 -125 109 -92 c60 -50 109 -95 109 -99 0 -4 -16 -10 -36 -13 -34 -7
-40 -3 -140 84 -57 50 -104 85 -104 77 0 -7 9 -53 20 -102 10 -50 16 -93 12
-96 -4 -4 -19 -9 -34 -13 -20 -5 -28 -2 -32 11 -17 59 -86 409 -82 419 2 6 18
13 34 16 29 4 29 4 46 -76 10 -45 20 -90 23 -100 4 -15 22 12 67 100 61 118
71 129 124 133 8 1 -13 -50 -51 -124z m-874 -276 c40 -11 45 -23 22 -53 -10
-13 -21 -17 -40 -12 -64 16 -121 -56 -78 -99 14 -15 30 -16 116 -10 115 8 147
-1 177 -50 31 -51 27 -107 -12 -151 -59 -67 -152 -84 -206 -39 -2 2 4 17 12
33 15 28 18 30 48 21 24 -7 40 -5 67 9 40 20 54 50 38 82 -16 32 -48 38 -142
27 -68 -9 -86 -8 -116 7 -43 20 -69 62 -69 110 0 57 68 123 140 135 3 1 22 -4
43 -10z m1466 -300 c266 -32 556 -155 774 -329 l82 -65 -123 -5 -123 -5 -23
-56 c-31 -77 -61 -116 -115 -151 -49 -31 -146 -63 -223 -73 l-48 -6 0 -180 0
-179 160 0 160 0 0 -984 0 -983 -77 -35 c-99 -44 -241 -93 -249 -85 -6 6 -464
1353 -464 1366 0 4 25 25 55 46 59 40 139 133 173 200 11 22 32 78 48 125 27
81 28 94 28 265 0 201 -15 281 -76 404 -45 94 -152 198 -250 245 -143 68 -205
77 -628 83 l-375 6 45 39 c63 56 210 153 304 200 293 147 600 198 945 157z
m-1937 -433 l185 -120 -16 -28 c-9 -15 -19 -28 -24 -28 -9 0 -346 217 -365
235 -12 11 -11 17 3 39 10 15 21 25 25 24 4 -2 90 -57 192 -122z m3078 -306
c106 -165 186 -376 222 -584 27 -158 22 -438 -10 -586 -44 -202 -122 -394
-226 -555 l-45 -70 -1 940 c0 555 4 935 9 930 5 -6 28 -39 51 -75z m-2680
-857 l0 -918 -36 55 c-55 87 -150 287 -178 377 -44 142 -66 271 -73 423 -13
319 59 609 220 883 32 53 60 97 62 97 3 0 5 -413 5 -917z m900 705 c55 -32 84
-81 100 -168 23 -122 -5 -266 -63 -329 -45 -49 -91 -61 -234 -61 l-133 0 0
296 0 296 143 -3 c132 -4 145 -6 187 -31z m-1656 -142 c29 -12 69 -51 78 -76
2 -5 49 4 106 21 57 17 106 28 109 25 3 -3 2 -20 -3 -37 -8 -27 -17 -34 -54
-45 -173 -49 -160 -43 -160 -75 0 -31 -4 -30 110 -52 64 -13 65 -14 61 -42 -1
-17 -5 -33 -7 -36 -3 -6 -434 79 -443 87 -6 6 21 138 34 164 35 69 101 94 169
66z m3986 -476 l0 -60 195 0 195 0 0 -35 0 -35 -195 0 -195 0 0 -61 0 -60 -32
3 -33 3 -3 153 -3 152 36 0 35 0 0 -60z m-2433 -625 c41 -132 130 -421 199
-642 68 -221 124 -405 124 -408 0 -3 -10 -3 -22 -1 -13 3 -61 12 -108 21 -103
20 -232 62 -340 111 l-80 37 0 564 0 564 77 -3 77 -3 73 -240z m2341 -147 c-2
-25 -8 -34 -25 -36 -47 -7 -70 -83 -37 -117 21 -21 57 -13 102 23 84 67 116
84 154 79 45 -6 96 -41 109 -74 35 -94 -36 -213 -128 -213 -30 0 -33 3 -33 29
0 25 6 31 35 41 44 15 67 48 63 92 -2 22 -10 36 -27 44 -31 16 -65 4 -123 -45
-86 -71 -148 -77 -207 -22 -76 71 -10 227 97 230 20 1 23 -3 20 -31z m-397
-684 c32 -31 50 -75 46 -118 -2 -27 1 -29 101 -64 56 -19 101 -40 99 -46 -2
-5 -14 -18 -28 -28 -24 -19 -26 -18 -121 18 l-97 36 -27 -21 -26 -21 66 -68
66 -68 -28 -27 -28 -26 -119 131 c-66 72 -136 149 -155 171 l-34 40 54 50 c30
27 69 56 85 63 45 22 111 12 146 -22z m-717 -421 c14 -38 50 -133 80 -213 l55
-145 -31 -13 c-17 -7 -34 -10 -38 -5 -4 4 -39 94 -78 198 -39 105 -73 197 -77
206 -5 12 1 20 22 27 15 6 31 11 35 11 3 1 18 -29 32 -66z m-594 -88 l0 -35
-75 0 -75 0 0 -65 0 -65 65 0 65 0 0 -30 0 -30 -65 0 -65 0 0 -100 0 -100 -40
0 -40 0 0 223 c0 123 3 227 7 230 3 4 55 7 115 7 l108 0 0 -35z"/>
<path d="M2449 4215 c-246 -39 -464 -125 -674 -269 l-60 -41 335 -6 c357 -7
394 -11 528 -64 254 -101 386 -320 399 -660 12 -308 -72 -522 -261 -671 l-39
-30 162 -485 c249 -746 274 -815 297 -811 10 2 65 22 122 44 l102 40 0 954 0
954 -155 0 -155 0 0 223 0 223 92 12 c110 15 197 51 240 100 33 39 78 126 78
155 0 15 11 17 83 17 l82 1 -35 30 c-54 47 -210 136 -315 180 -249 104 -567
144 -826 104z"/>
<path d="M4020 2680 c0 -429 4 -780 8 -780 14 0 108 208 140 310 56 175 67
255 66 470 0 220 -15 315 -80 501 -33 95 -118 279 -129 279 -3 0 -5 -351 -5
-780z"/>
<path d="M1260 3338 c-54 -119 -103 -268 -126 -388 -27 -143 -25 -419 5 -560
29 -137 71 -264 126 -375 l43 -90 1 753 c1 413 -1 752 -3 752 -2 0 -22 -42
-46 -92z"/>
<path d="M1970 3109 l0 -251 113 3 c95 4 118 8 148 27 69 42 105 184 80 314
-26 132 -64 158 -230 158 l-111 0 0 -251z"/>
<path d="M496 3148 c-7 -13 -16 -37 -19 -54 l-6 -32 66 -12 c75 -14 83 -10 83
51 0 45 -25 69 -73 69 -27 0 -40 -6 -51 -22z"/>
<path d="M1970 1807 l0 -524 58 -26 c31 -14 82 -35 111 -47 58 -23 252 -72
258 -66 2 2 -76 269 -174 592 l-179 589 -37 3 -37 3 0 -524z"/>
<path d="M3942 1243 l-32 -28 50 -55 50 -55 30 33 c77 83 -12 178 -98 105z"/>
</g>
</svg>
