<svg height='100px' width='100px'  fill="#000000" xmlns="http://www.w3.org/2000/svg" xmlns:xlink="http://www.w3.org/1999/xlink" version="1.1" x="0px" y="0px" viewBox="0 0 29.581 31.619" style="enable-background:new 0 0 29.581 31.619;" xml:space="preserve"><g><path d="M29.581,14.791C29.581,6.622,22.959,0,14.791,0C6.622,0,0,6.622,0,14.791c0,5.386,2.888,10.082,7.192,12.663   c1.588,2.506,4.348,4.165,7.562,4.165c3.179,0,5.916-1.622,7.512-4.081C26.641,24.971,29.581,20.229,29.581,14.791z M2,14.791   c0-1.754,0.356-3.426,0.998-4.949c2.175,0.543,3.79,2.472,3.79,4.788c0,2.355-1.668,4.318-3.898,4.823   C2.319,18.008,2,16.438,2,14.791z M14.767,2.672c2.773,0,5.021,2.22,5.021,4.958s-2.248,4.958-5.021,4.958s-5.021-2.22-5.021-4.958   S11.993,2.672,14.767,2.672z M26.688,19.467c-2.254-0.488-3.942-2.465-3.942-4.837c0-2.333,1.642-4.255,3.842-4.779   c0.639,1.521,0.994,3.189,0.994,4.94C27.581,16.442,27.261,18.018,26.688,19.467z M7.754,22.465v-2.053   c0-2.092,1.547-3.793,3.639-3.793h6.361h0.104c2.092,0,3.896,1.701,3.896,3.793v2.053c0,3.945-3.055,7.154-7,7.154   S7.754,26.41,7.754,22.465z"></path><rect x="10.754" y="19.619" width="2" height="4"></rect><rect x="16.754" y="19.619" width="2" height="4"></rect></g></svg>