<svg height='100px' width='100px'  fill="#000000" xmlns="http://www.w3.org/2000/svg" xmlns:xlink="http://www.w3.org/1999/xlink" version="1.1" x="0px" y="0px" viewBox="0 0 66 66" enable-background="new 0 0 66 66" xml:space="preserve"><g><path d="M14.2,62h37.6c2.5,0,4.5-2,4.5-4.5V34.5c5-6.2,8.2-14.4,8.8-23.3c0.1-2.1-1.6-3.8-3.6-3.8h-1.5V7c0-1.7-1.3-3-3-3H9.1   c-1.7,0-3,1.3-3,3v0.5H4.6c-2,0-3.7,1.7-3.6,3.8c0.5,8.9,3.8,17.1,8.8,23.3v23.1C9.8,60,11.8,62,14.2,62z M54.2,33.8   c-3.3,3.9-7.3,6.9-11.9,8.7V42c0-0.6-0.4-1-1-1H24.6c-0.6,0-1,0.4-1,1v0.4c-4.6-1.8-8.6-4.8-11.9-8.7V12.9h42.5V33.8z M40.4,43v3.5   H25.6V43H40.4z M51.8,60H14.2c-1.4,0-2.5-1.1-2.5-2.5V36.8c3.4,3.5,7.4,6.2,11.9,7.8v2.9c0,0.6,0.4,1,1,1h16.7c0.6,0,1-0.4,1-1   v-2.9c4.5-1.6,8.5-4.3,11.9-7.8v20.8C54.2,58.9,53.1,60,51.8,60z M61.4,9.4c0.9,0,1.6,0.8,1.6,1.7c-0.5,7.5-2.9,14.5-6.8,20.1V12.9   h0.6c1.7,0,3-1.3,3-3V9.4H61.4z M9.1,6h47.8c0.5,0,1,0.4,1,1v1.5c0,0,0,0,0,0s0,0,0,0v1.5c0,0.5-0.4,1-1,1c-16.9,0-33.6,0-47.8,0   c-0.5,0-1-0.4-1-1V8.4c0,0,0,0,0,0s0,0,0,0V7C8.1,6.4,8.6,6,9.1,6z M3,11.1c-0.1-0.9,0.7-1.7,1.6-1.7h1.5v0.5c0,1.7,1.3,3,3,3h0.6   v18.3C5.9,25.6,3.5,18.6,3,11.1z"></path></g></svg>