<svg height='100px' width='100px'  fill="#000000" xmlns="http://www.w3.org/2000/svg" viewBox="0 0 100 100" x="0px" y="0px"><title>Lamp</title><g data-name="Lamp, led, lightbulb,"><path d="M81,36.6A31,31,0,1,0,30.66,60.78a2.47,2.47,0,0,0-.19.94v5.62a9.17,9.17,0,0,0,5.44,8.37v9.5a9.19,9.19,0,0,0,9.17,9.17h9.84a9.19,9.19,0,0,0,9.17-9.17v-9.5a9.17,9.17,0,0,0,5.44-8.37V61.72a2.47,2.47,0,0,0-.19-.94A30.93,30.93,0,0,0,81,36.6Zm-57,0A26,26,0,1,1,62.76,59.22H37.24A25.94,25.94,0,0,1,24,36.6ZM59.09,85.21a4.19,4.19,0,0,1-4.17,4.17H45.08A4.19,4.19,0,0,1,41,86H46.5a2.5,2.5,0,0,0,0-5H40.91V77.62H59.09Zm5.44-17.87a4.17,4.17,0,0,1-4.17,4.17H39.64a4.17,4.17,0,0,1-4.17-4.17V64.22H64.53Z"></path></g></svg>