<svg height='100px' width='100px'  fill="#000000" xmlns="http://www.w3.org/2000/svg" xmlns:xlink="http://www.w3.org/1999/xlink" version="1.1" x="0px" y="0px" viewBox="0 0 100 100" enable-background="new 0 0 100 100" xml:space="preserve"><path d="M19.886,33.824l2.409,3.625c4.327-9.204,13.222-15.854,23.75-16.995V25.6c0.281,0.187,0.649,0.28,1.017,0.28  c0.369,0,0.736-0.094,1.017-0.28l7.063-4.696l6.211-4.128c0.561-0.374,0.561-0.979,0-1.352l-3.499-2.225L48.078,6.98  C47.797,6.794,47.43,6.7,47.061,6.7c-0.368,0-0.736,0.094-1.017,0.28v5.427c-12.72,1.083-23.665,8.491-29.667,19.057  C17.782,31.734,19.051,32.568,19.886,33.824z"></path><path d="M19.753,51.664H24.9c0.373-0.561,0.373-1.471,0-2.032l-4.525-6.808l-4.299-6.467c-0.187-0.281-0.432-0.421-0.676-0.421  c-0.245,0-0.489,0.14-0.676,0.421l-1.517,2.385L6.281,49.632c-0.374,0.562-0.374,1.472,0,2.032h5.426  c1.194,14.023,10.074,25.886,22.398,31.352c-0.003-0.067-0.013-0.132-0.013-0.199c0-1.783,0.92-3.46,2.463-4.486l2.777-1.846  C28.803,72.7,21,63.154,19.753,51.664z"></path><path d="M81.063,65.091l-2.704-4.067c-4.246,9.436-13.264,16.277-23.963,17.439v-5.146c-0.28-0.188-0.648-0.28-1.017-0.28  s-0.735,0.093-1.016,0.28l-6.989,4.646l-6.286,4.177c-0.562,0.375-0.562,0.979,0,1.353l3.301,2.101l9.974,6.343  c0.28,0.188,0.647,0.28,1.016,0.28s0.736-0.093,1.017-0.28v-5.426c12.764-1.087,23.737-8.54,29.727-19.16  C82.899,66.998,81.809,66.213,81.063,65.091z"></path><path d="M94.669,47.252h-5.426c-1.211-14.22-10.326-26.221-22.921-31.579c0.011,0.142,0.027,0.283,0.027,0.427  c-0.001,1.784-0.922,3.46-2.464,4.486l-2.598,1.727c10.696,3.701,18.649,13.33,19.909,24.939h-5.148  c-0.372,0.562-0.372,1.471,0,2.032l4.155,6.248l4.671,7.026c0.186,0.28,0.431,0.42,0.675,0.42c0.245,0,0.489-0.14,0.677-0.42  l0.424-0.667l8.019-12.607C95.043,48.723,95.043,47.813,94.669,47.252z"></path></svg>