<svg height='100px' width='100px'  fill="#000000" xmlns="http://www.w3.org/2000/svg" xmlns:xlink="http://www.w3.org/1999/xlink" viewBox="0 0 100 100" version="1.1" x="0px" y="0px"><title>Deck of cards Copy 3</title><desc>Created with Sketch.</desc><g stroke="none" stroke-width="1" fill="none" fill-rule="evenodd"><path d="M27,11 C25.3431458,11 24,12.3431458 24,14 L24,87 C24,88.6568542 25.3431458,90 27,90 L73,90 C74.6568542,90 76,88.6568542 76,87 L76,14 C76,12.3431458 74.6568542,11 73,11 L27,11 Z M27,8 L73,8 C76.3137085,8 79,10.6862915 79,14 L79,87 C79,90.3137085 76.3137085,93 73,93 L27,93 C23.6862915,93 21,90.3137085 21,87 L21,14 C21,10.6862915 23.6862915,8 27,8 Z" fill="#000000" fill-rule="nonzero"></path><path d="M55.5952311,8 L44.0041212,8 L38.0070583,6.39309182 C36.5867116,6.01251109 35.131226,6.71776143 34.521943,8 L31.3648314,8 L31.4350462,7.73795503 C32.2926971,4.53715841 35.5827188,2.63766348 38.7835154,3.49531435 L55.5952311,8 Z M79,14.2712889 L83.2161034,15.4009904 C86.4169,16.2586413 88.316395,19.548663 87.4587441,22.7494596 L79,54.3179224 L79,42.7268125 L84.5609666,21.9730025 C84.9897921,20.3726042 84.0400446,18.7275933 82.4396463,18.2987679 L79,17.3771175 L79,14.2712889 Z M68.6351686,93 L68.5649538,93.262045 C67.7073029,96.4628416 64.4172812,98.3623365 61.2164846,97.5046857 L44.4047689,93 L55.9958788,93 L61.9929417,94.6069082 C63.4132884,94.9874889 64.868774,94.2822386 65.478057,93 L68.6351686,93 Z M21,86.7287111 L16.7838966,85.5990096 C13.5831,84.7413587 11.683605,81.451337 12.5412559,78.2505404 L21,46.6820776 L21,58.2731875 L15.4390334,79.0269975 C15.0102079,80.6273958 15.9599554,82.2724067 17.5603537,82.7012321 L21,83.6228825 L21,86.7287111 Z" fill="#000000" fill-rule="nonzero"></path><path d="M52.7694972,66.2406111 L52.7694973,66.2666602 L52.4175751,66.2666617 C52.41409,66.266676 52.4106032,66.2666832 52.4071147,66.2666832 L50.0103601,66.2666725 L47.6136055,66.2666832 C47.610117,66.2666832 47.6066302,66.266676 47.603145,66.2666617 L47.2512228,66.2666602 L47.2512229,66.2406111 C46.0422262,66.0650648 45.1135758,65.0243115 45.1135758,63.7666602 C45.1135758,63.4140895 45.1881496,63.0655059 45.3324011,62.7437955 C45.9876745,61.2824016 46.4850468,60.1237552 46.8134403,59.3045693 C44.1981264,61.0973793 40.6806697,61.3478515 37.7514193,59.6566479 C33.685932,57.3094378 32.2929932,52.1109193 34.6402034,48.045432 C36.5253296,44.7802977 40.3135608,43.1714488 43.9306458,44.0153621 L43.2490131,46.9368988 C40.9102749,46.3912406 38.4580772,47.4326806 37.2382796,49.545432 C35.7194965,52.1760414 36.6208099,55.5397887 39.2514193,57.0585717 C41.872601,58.5719117 45.221675,57.6824707 46.7481587,55.0736486 C47.286968,54.0612218 48.5896485,53.6542898 49.5000476,54.668325 C49.7386336,54.9340706 49.8934817,55.2454176 50.0103601,55.6205494 C50.1272384,55.2454176 50.2820866,54.9340706 50.5206725,54.668325 C51.4310717,53.6542898 52.7337522,54.0612218 53.2725614,55.0736486 C54.7990452,57.6824707 58.1481192,58.5719117 60.7693009,57.0585717 C63.3999103,55.5397887 64.3012236,52.1760414 62.7824406,49.545432 C61.562643,47.4326806 59.1104453,46.3912406 56.7717071,46.9368988 L56.0900743,44.0153621 C59.7071594,43.1714488 63.4953906,44.7802977 65.3805168,48.045432 C67.727727,52.1109193 66.3347882,57.3094378 62.2693009,59.6566479 C59.3400504,61.3478515 55.8225937,61.0973793 53.2072799,59.3045693 C53.5356734,60.1237552 54.0330456,61.2824016 54.688319,62.7437955 C54.8325705,63.0655059 54.9071444,63.4140895 54.9071444,63.7666602 C54.9071444,65.0243115 53.9784939,66.0650648 52.7694972,66.2406111 Z M50.0103601,63.2666725 L51.6366186,63.2666797 C50.8230325,61.4325933 50.2879188,60.1387301 50.0103601,59.3157667 C49.7328014,60.1387301 49.1976877,61.4325933 48.3841016,63.2666797 L50.0103601,63.2666725 Z M47.825841,56.8989827 C46.555324,58.1955328 44.7845292,59 42.825841,59 C38.9598478,59 35.825841,55.8659932 35.825841,52 C35.825841,48.4730573 38.4342432,45.5553395 41.8271997,45.0706946 C41.083021,42.2427268 41.8193709,39.1059658 44.0362494,36.8890873 C47.3557059,33.5696308 52.7376082,33.5696308 56.0570647,36.8890873 C58.2592804,39.091303 59.0004877,42.201273 58.2806864,45.0145407 C61.9346889,45.2488946 64.825841,48.2868149 64.825841,52 C64.825841,55.8659932 61.6918343,59 57.825841,59 C55.8671528,59 54.0963581,58.1955328 52.825841,56.8989827 L52.825841,64 L47.825841,64 L47.825841,56.8989827 Z" fill="#000000" fill-rule="nonzero"></path><path d="M30.6925686,20.1011228 L30.6925674,20.1055034 L30.6417185,20.1055181 C30.6362745,20.1056998 30.6308074,20.1057905 30.6253187,20.105789 L30.165,20.1056559 L29.7046812,20.105789 C29.6991925,20.1057905 29.6937254,20.1056998 29.6882814,20.1055181 L29.6374325,20.1055034 L29.6374313,20.1011228 C29.4047289,20.0684825 29.2257347,19.8685609 29.2258035,19.6267551 C29.2258227,19.5591792 29.2401303,19.4923634 29.267787,19.4306944 C29.3934193,19.1505587 29.4887806,18.9284581 29.5517466,18.7714298 C29.0505459,19.1151938 28.3765758,19.1633927 27.8154138,18.8394057 C27.0365808,18.3897462 26.7699726,17.3934412 27.2199276,16.6140962 C27.5813022,15.9881771 28.3072277,15.6796083 29.0002274,15.8411608 L28.8694649,16.4011582 C28.4213846,16.2967015 27.9514785,16.4964442 27.7176459,16.901454 C27.4264985,17.4057361 27.5990097,18.050404 28.1029605,18.3413601 C28.6051052,18.6312735 29.2468475,18.4606149 29.5394692,17.9605083 C29.6427621,17.7664308 29.8923822,17.6883646 30.0667624,17.8826714 C30.1128112,17.9339822 30.1425667,17.994172 30.165,18.066804 C30.1874332,17.994172 30.2171887,17.9339822 30.2632375,17.8826714 C30.4376177,17.6883646 30.6872379,17.7664308 30.7905307,17.9605083 C31.0831524,18.4606149 31.7248947,18.6312735 32.2270394,18.3413601 C32.7309902,18.050404 32.9035014,17.4057361 32.612354,16.901454 C32.3785215,16.4964442 31.9086154,16.2967015 31.460535,16.4011582 L31.3297726,15.8411608 C32.0227722,15.6796083 32.7486977,15.9881771 33.1100723,16.6140962 C33.5600274,17.3934412 33.2934191,18.3897462 32.5145861,18.8394057 C31.9534242,19.1633927 31.279454,19.1151938 30.7782533,18.7714298 C30.8412193,18.9284581 30.9365807,19.1505587 31.062213,19.4306944 C31.0898696,19.4923634 31.1041772,19.5591792 31.1041964,19.6267551 C31.1042652,19.8685609 30.9252711,20.0684825 30.6925686,20.1011228 Z M29.8525547,19.5305666 L30.165,19.530657 L30.4774453,19.5305666 C30.3208047,19.1775082 30.2180108,18.9289009 30.165,18.7712838 C30.1119891,18.9289009 30.0091952,19.1775082 29.8525547,19.5305666 Z M29.7462324,18.3102689 C29.5026771,18.5586514 29.1632196,18.7127647 28.7877434,18.7127647 C28.0466409,18.7127647 27.4458586,18.1123772 27.4458586,17.3717616 C27.4458586,16.6960288 27.9459869,16.1370305 28.5965075,16.0442729 C28.4543732,15.5025605 28.5957408,14.9017281 29.020533,14.4769359 C29.6568656,13.8406033 30.6882256,13.8402644 31.32414,14.4761789 C31.7461108,14.8981497 31.8879272,15.4942426 31.749665,16.033497 C32.4504782,16.0780308 33.0050953,16.6601699 33.0050953,17.3717616 C33.0050953,18.1123772 32.404313,18.7127647 31.6632106,18.7127647 C31.2877343,18.7127647 30.9482768,18.5586514 30.7047215,18.3102689 L30.7047215,19.670624 L29.7462324,19.670624 L29.7462324,18.3102689 Z" fill="#000000" fill-rule="nonzero"></path><path d="M70.2925671,87.1011228 L70.2925659,87.1055034 L70.241717,87.1055181 C70.236273,87.1056998 70.2308059,87.1057905 70.2253172,87.105789 L69.7649984,87.1056559 L69.3046797,87.105789 C69.299191,87.1057905 69.2937239,87.1056998 69.2882798,87.1055181 L69.237431,87.1055034 L69.2374298,87.1011228 C69.0047273,87.0684825 68.8257332,86.8685609 68.825802,86.6267551 C68.8258212,86.5591792 68.8401288,86.4923634 68.8677854,86.4306944 C68.9934177,86.1505587 69.0887791,85.9284581 69.1517451,85.7714298 C68.6505444,86.1151938 67.9765742,86.1633927 67.4154123,85.8394057 C66.6365793,85.3897462 66.369971,84.3934412 66.8199261,83.6140962 C67.1813007,82.9881771 67.9072262,82.6796083 68.6002258,82.8411608 L68.4694634,83.4011582 C68.021383,83.2967015 67.5514769,83.4964442 67.3176444,83.901454 C67.026497,84.4057361 67.1990082,85.050404 67.702959,85.3413601 C68.2051037,85.6312735 68.846846,85.4606149 69.1394677,84.9605083 C69.2427605,84.7664308 69.4923807,84.6883646 69.6667609,84.8826714 C69.7128097,84.9339822 69.7425652,84.994172 69.7649984,85.066804 C69.7874317,84.994172 69.8171872,84.9339822 69.863236,84.8826714 C70.0376162,84.6883646 70.2872363,84.7664308 70.3905292,84.9605083 C70.6831509,85.4606149 71.3248932,85.6312735 71.8270379,85.3413601 C72.3309887,85.050404 72.5034999,84.4057361 72.2123525,83.901454 C71.9785199,83.4964442 71.5086138,83.2967015 71.0605335,83.4011582 L70.929771,82.8411608 C71.6227707,82.6796083 72.3486962,82.9881771 72.7100708,83.6140962 C73.1600258,84.3934412 72.8934176,85.3897462 72.1145846,85.8394057 C71.5534226,86.1633927 70.8794525,86.1151938 70.3782518,85.7714298 C70.4412178,85.9284581 70.5365791,86.1505587 70.6622114,86.4306944 C70.689868,86.4923634 70.7041757,86.5591792 70.7041949,86.6267551 C70.7042637,86.8685609 70.5252695,87.0684825 70.2925671,87.1011228 Z M69.4525531,86.5305666 L69.7649984,86.530657 L70.0774437,86.5305666 C69.9208032,86.1775082 69.8180093,85.9289009 69.7649984,85.7712838 C69.7119876,85.9289009 69.6091937,86.1775082 69.4525531,86.5305666 Z M69.3462309,85.3102689 C69.1026756,85.5586514 68.7632181,85.7127647 68.3877418,85.7127647 C67.6466394,85.7127647 67.0458571,85.1123772 67.0458571,84.3717616 C67.0458571,83.6960288 67.5459854,83.1370305 68.196506,83.0442729 C68.0543717,82.5025605 68.1957393,81.9017281 68.6205315,81.4769359 C69.256864,80.8406033 70.288224,80.8402644 70.9241385,81.4761789 C71.3461093,81.8981497 71.4879257,82.4942426 71.3496635,83.033497 C72.0504767,83.0780308 72.6050938,83.6601699 72.6050938,84.3717616 C72.6050938,85.1123772 72.0043115,85.7127647 71.2632091,85.7127647 C70.8877328,85.7127647 70.5482753,85.5586514 70.30472,85.3102689 L70.30472,86.670624 L69.3462309,86.670624 L69.3462309,85.3102689 Z" fill="#000000" fill-rule="nonzero"></path></g></svg>