<svg xmlns="http://www.w3.org/2000/svg" xmlns:xlink="http://www.w3.org/1999/xlink" version="1.1" x="0px" y="0px" viewBox="0 0 90 90" style="enable-background:new 0 0 90 90;" xml:space="preserve"><style type="text/css">
	.st0{display:none;}
	.st1{fill:none;stroke:#000000;stroke-width:2;stroke-linecap:round;stroke-linejoin:round;stroke-miterlimit:10;}
</style><g><polyline class="st1" points="58.4,51 75.2,42.1 71.1,39.7  "></polyline><path class="st1" d="M19.7,50.4l-4.1,2.2l17.8,10.6c0.6,0.4,1.4,0.4,2.1,0l15.7-8.3"></path><path class="st1" d="M19.7,55l-4.1,2.2l17.8,10.6c0.6,0.4,1.4,0.4,2.1,0l39.7-21.1l-4.1-2.4"></path><polyline class="st1" points="58.4,46.4 75.2,37.5 69.5,34.1  "></polyline><path class="st1" d="M19.7,45.8L15.6,48l17.8,10.6c0.6,0.4,1.4,0.4,2.1,0l15.7-8.3"></path><path class="st1" d="M51.2,59.4V45.8L32.5,34.4"></path><path class="st1" d="M39.7,30.6l18.7,11.1v13.9"></path><g><path class="st1" d="M58.4,41.7c7-3.7,13-8.7,16.8-13.6L56.5,16.9c-3.8,4.9-9.8,10-16.8,13.6"></path></g><path class="st1" d="M58.4,41.7c7-3.7,13-8.7,16.8-13.6L56.5,16.9c-3.8,4.9-9.8,10-16.8,13.6L15.6,43.4L33.4,54   c0.6,0.4,1.4,0.4,2.1,0.1l15.7-8.2"></path></g></svg>