<svg height='100px' width='100px'  fill="#000000" xmlns:dc="http://purl.org/dc/elements/1.1/" xmlns:cc="http://creativecommons.org/ns#" xmlns:rdf="http://www.w3.org/1999/02/22-rdf-syntax-ns#" xmlns:svg="http://www.w3.org/2000/svg" xmlns="http://www.w3.org/2000/svg" xmlns:sodipodi="http://sodipodi.sourceforge.net/DTD/sodipodi-0.dtd" xmlns:inkscape="http://www.inkscape.org/namespaces/inkscape" viewBox="0 0 8.4666667 8.4666669" version="1.1" x="0px" y="0px"><svg:g><svg:path style="color:#000000;font-style:normal;font-variant:normal;font-weight:normal;font-stretch:normal;font-size:medium;line-height:normal;font-family:sans-serif;font-variant-ligatures:normal;font-variant-position:normal;font-variant-caps:normal;font-variant-numeric:normal;font-variant-alternates:normal;font-feature-settings:normal;text-indent:0;text-align:start;text-decoration:none;text-decoration-line:none;text-decoration-style:solid;text-decoration-color:#000000;letter-spacing:normal;word-spacing:normal;text-transform:none;writing-mode:lr-tb;direction:ltr;text-orientation:mixed;dominant-baseline:auto;baseline-shift:baseline;text-anchor:start;white-space:normal;shape-padding:0;clip-rule:nonzero;display:inline;overflow:visible;visibility:visible;opacity:1;isolation:auto;mix-blend-mode:normal;color-interpolation:sRGB;color-interpolation-filters:linearRGB;solid-color:#000000;solid-opacity:1;vector-effect:none;fill:#000000;fill-opacity:1;fill-rule:nonzero;stroke:none;stroke-width:0.52916664;stroke-linecap:round;stroke-linejoin:round;stroke-miterlimit:4;stroke-dasharray:none;stroke-dashoffset:0;stroke-opacity:1;color-rendering:auto;image-rendering:auto;shape-rendering:auto;text-rendering:auto;enable-background:accumulate" d="M 1.4102504,-1.6666667e-7 C 0.63378825,-1.6666667e-7 5.3333338e-8,0.63378983 5.3333338e-8,1.4102498 v 5.646683 C 5.3333338e-8,7.8333918 0.63378825,8.4666668 1.4102504,8.4666668 h 5.6466818 c 0.7764595,0 1.4097344,-0.633275 1.4097344,-1.409734 V 1.4102498 C 8.4666666,0.63378983 7.8333917,-1.6666667e-7 7.0569322,-1.6666667e-7 Z m 0,0.52916699666667 h 5.6466818 c 0.4924558,0 0.8805678,0.388628 0.8805678,0.88108297 v 5.646683 c 0,0.492454 -0.388112,0.880567 -0.8805678,0.880567 H 1.4102504 c -0.49245575,0 -0.88108369,-0.388113 -0.88108369,-0.880567 v -5.646683 c 0,-0.49245497 0.38862794,-0.88108297 0.88108369,-0.88108297 z M 3.1703486,1.5146358 a 0.26460984,0.26460984 0 0 0 -0.02377,0.001 0.26460984,0.26460984 0 0 0 -0.1601973,0.07028 l -0.8536966,0.781347 -0.302305,-0.287321 a 0.26462826,0.26462826 0 1 0 -0.3653525,0.382923 l 0.4842086,0.456819 a 0.26460984,0.26460984 0 0 0 0.3596667,0.0041 l 1.035079,-0.947229 A 0.26460984,0.26460984 0 0 0 3.1703486,1.5146358 Z m 0.9642819,0.473873 a 0.2646485,0.2646485 0 1 0 0,0.529166 h 2.6840736 a 0.2646485,0.2646485 0 1 0 0,-0.529166 z m -0.9627314,1.505851 a 0.26460984,0.26460984 0 0 0 -0.1855179,0.07235 l -0.8536966,0.780831 -0.302305,-0.288871 a 0.26537676,0.26537676 0 1 0 -0.3653525,0.384989 l 0.4842086,0.45682 a 0.26460984,0.26460984 0 0 0 0.3596667,0.0036 l 1.035079,-0.947229 a 0.26460984,0.26460984 0 0 0 -0.1720823,-0.46249 z m 0.9627314,0.47439 a 0.2646485,0.2646485 0 1 0 0,0.529167 h 2.6840736 a 0.2646485,0.2646485 0 1 0 0,-0.529167 z m -0.9585986,1.504818 a 0.26460984,0.26460984 0 0 0 -0.029453,0.001 0.26460984,0.26460984 0 0 0 -0.1601973,0.07235 L 2.132685,6.3261988 1.83038,6.0388778 a 0.26537676,0.26537676 0 1 0 -0.3653525,0.384989 l 0.4842086,0.45682 a 0.26460984,0.26460984 0 0 0 0.3596667,0.0021 L 3.3439814,5.9376218 A 0.26460984,0.26460984 0 0 0 3.1760319,5.4735678 Z m 0.933278,0.47594 a 0.26495232,0.26495232 0 0 0 0.025321,0.529166 h 2.6840736 a 0.26464799,0.26464799 0 1 0 0,-0.529166 h -2.684074 a 0.26460984,0.26460984 0 0 0 -0.025321,0 z"></svg:path></svg:g></svg>