<svg height='100px' width='100px'  fill="#000000" xmlns="http://www.w3.org/2000/svg" viewBox="0 0 48 48" x="0px" y="0px"><title>10-contract</title><g data-name="10-contract"><path d="M41,44a1,1,0,0,0-1,1,1,1,0,0,1-1,1H9a1,1,0,0,1-1-1V10h5a3,3,0,0,0,3-3V2H39a1,1,0,0,1,1,1V20a1,1,0,0,0,2,0V3a3,3,0,0,0-3-3H15a1,1,0,0,0-.71.29l-8,8A1,1,0,0,0,6,9V45a3,3,0,0,0,3,3H39a3,3,0,0,0,3-3A1,1,0,0,0,41,44ZM13,8H9.41L14,3.41V7A1,1,0,0,1,13,8Z"></path><path d="M38,23A10,10,0,1,0,48,33,10,10,0,0,0,38,23Zm0,18a8,8,0,1,1,8-8A8,8,0,0,1,38,41Z"></path><path d="M41.29,29.29,36,34.59l-1.29-1.29a1,1,0,0,0-1.41,1.41l2,2a1,1,0,0,0,1.41,0l6-6a1,1,0,0,0-1.41-1.41Z"></path><path d="M23,12h2a1,1,0,0,1,1,1,1,1,0,0,0,2,0,3,3,0,0,0-3-3V9a1,1,0,0,0-2,0v1a3,3,0,0,0,0,6h2a1,1,0,0,1,0,2H23a1,1,0,0,1-1-1,1,1,0,0,0-2,0,3,3,0,0,0,3,3v1a1,1,0,0,0,2,0V20a3,3,0,0,0,0-6H23a1,1,0,0,1,0-2Z"></path><path d="M26,27H12a1,1,0,0,0,0,2H26a1,1,0,0,0,0-2Z"></path><path d="M26,37H12a1,1,0,0,0,0,2H26a1,1,0,0,0,0-2Z"></path><path d="M26,32H12a1,1,0,0,0,0,2H26a1,1,0,0,0,0-2Z"></path></g></svg>