<svg height='100px' width='100px'  fill="#000000" xmlns="http://www.w3.org/2000/svg" xmlns:xlink="http://www.w3.org/1999/xlink" version="1.1" x="0px" y="0px" viewBox="0 0 100 100" style="enable-background:new 0 0 100 100;" xml:space="preserve"><path d="M87.326,31.635c-0.051-0.138-0.103-0.275-0.177-0.401c-0.044-0.074-0.101-0.138-0.153-0.207  c-0.079-0.107-0.157-0.213-0.253-0.306c-0.067-0.065-0.143-0.118-0.217-0.176c-0.072-0.056-0.133-0.123-0.211-0.171  c-0.035-0.021-0.074-0.03-0.11-0.05c-0.031-0.017-0.055-0.044-0.087-0.06l-50-25c-0.703-0.353-1.533-0.353-2.236,0l-20,10  c-0.032,0.016-0.055,0.042-0.086,0.059c-0.036,0.02-0.075,0.028-0.11,0.05c-0.078,0.048-0.139,0.115-0.211,0.171  c-0.074,0.058-0.15,0.111-0.217,0.176c-0.096,0.094-0.174,0.199-0.253,0.306c-0.051,0.07-0.109,0.133-0.153,0.207  c-0.075,0.126-0.126,0.263-0.177,0.401c-0.026,0.069-0.062,0.132-0.081,0.202C12.534,17.051,12.5,17.273,12.5,17.5v50  c0,0.947,0.535,1.813,1.382,2.236l50,25c0.095,0.048,0.196,0.072,0.295,0.107c0.066,0.023,0.128,0.053,0.196,0.071  C64.579,94.967,64.789,95,65,95c0.211,0,0.422-0.033,0.628-0.087c0.066-0.017,0.128-0.047,0.193-0.07  c0.099-0.035,0.201-0.06,0.297-0.107l20-10c0.847-0.423,1.382-1.289,1.382-2.236v-50c0-0.227-0.034-0.449-0.093-0.662  C87.387,31.767,87.351,31.704,87.326,31.635z M37.5,75.955l-20-10v-44.41l20,10V75.955z M62.5,88.455l-20-10v-9.41l20,10V88.455z   M62.5,73.455l-20-10v-11.91l20,10V73.455z M62.5,55.955l-20-10v-11.91l20,10V55.955z M65,39.705L20.59,17.5L35,10.295L79.41,32.5  L65,39.705z M82.5,80.955l-15,7.5v-44.41l15-7.5V80.955z"></path></svg>