<svg height='100px' width='100px'  fill="#000000" xmlns:dc="http://purl.org/dc/elements/1.1/" xmlns:cc="http://creativecommons.org/ns#" xmlns:rdf="http://www.w3.org/1999/02/22-rdf-syntax-ns#" xmlns:svg="http://www.w3.org/2000/svg" xmlns="http://www.w3.org/2000/svg" version="1.1" viewBox="0 0 100 100" xml:space="preserve" x="0px" y="0px"><path d="M 50.4375,5 52,6.59375 56.15625,10.71875 52,14.90625 51.09375,15.8125 c 18.427905,0.569701 33.125,15.618674 33.125,34.1875 0,16.107353 -11.069667,29.559085 -26.03125,33.21875 L 52.15625,89.25 57.3125,94.40625 C 78.659109,90.901259 95,72.324374 95,50 95,25.327184 75.056951,5.2302601 50.4375,5 z m -7.75,0.59375 C 21.333823,9.0927924 5,27.671077 5,50 5,74.673166 24.943084,94.76974 49.5625,95 L 48,93.4375 43.84375,89.28125 48.03125,85.125 48.9375,84.1875 C 30.499691,83.628997 15.78125,68.576524 15.78125,50 c 0,-16.119251 11.08622,-29.601883 26.0625,-33.25 l 6,-6 -5.15625,-5.15625 z" style="text-indent:0;text-transform:none;direction:ltr;block-progression:tb;baseline-shift:baseline;color:#000000;enable-background:accumulate;" fill="#000000" fill-opacity="1" fill-rule="evenodd" stroke="none" marker="none" visibility="visible" display="inline" overflow="visible"></path></svg>