<svg height='100px' width='100px'  fill="#000000" xmlns="http://www.w3.org/2000/svg" xmlns:xlink="http://www.w3.org/1999/xlink" version="1.1" x="0px" y="0px" viewBox="0 0 100 100" enable-background="new 0 0 100 100" xml:space="preserve"><g><g><path d="M78.043,33.55l-5.567-1.547l-5.567-6.991c-0.495-1.299-4.146-3.712-4.146-3.712l0.919-1.245    c0.25,0.03,0.505,0.047,0.764,0.047c3.458,0,6.263-2.805,6.263-6.263c0-3.459-2.805-6.264-6.263-6.264    c-3.459,0-6.264,2.805-6.264,6.264c0,1.348,0.427,2.595,1.149,3.616l-1.083,1.556c-1.548-1.422-5.136-2.227-5.136-2.227    l-9.714-1.855c-2.041-0.557-2.535,0.804-2.535,0.804l-4.826,9.156c-0.742,2.164,0.495,3.155,0.495,3.155    c1.856,0.804,3.155-1.052,3.155-1.052l3.774-6.744l9.032,1.855l-5.815,9.528c-1.423,1.484-1.425,3.711-1.425,3.711l-1.855,16.023    l-11.384,0.062c-2.845,0.061-3.154,2.846-3.154,2.846c0.062,2.97,2.846,3.155,2.846,3.155l14.229,0.063    c2.475,0.123,3.094-1.671,3.094-1.671l2.969-11.506l5.939,10.826l2.104,11.258c0.493,2.97,3.649,2.847,3.649,2.847    c3.031-0.558,2.844-3.402,2.844-3.402l-2.102-11.384c-0.123-1.299-0.805-3.031-0.805-3.031l-5.815-13.857l5.259-9.342l6.063,6.558    c1.113,1.361,2.414,1.671,2.414,1.671l4.577,1.052c3.093,0.741,3.525-1.362,3.525-1.362C79.96,34.292,78.043,33.55,78.043,33.55z"></path><path d="M9.968,59.083c1.669,0.524,62.844,25.473,62.844,25.473l-0.195,8.083l17.515-3.463L74.059,69.202l-0.6,8.512    L10.028,51.449L9.968,59.083z"></path></g></g></svg>