<svg height='100px' width='100px'  fill="#000000" xmlns:dc="http://purl.org/dc/elements/1.1/" xmlns:cc="http://creativecommons.org/ns#" xmlns:rdf="http://www.w3.org/1999/02/22-rdf-syntax-ns#" xmlns:svg="http://www.w3.org/2000/svg" xmlns="http://www.w3.org/2000/svg" xmlns:sodipodi="http://sodipodi.sourceforge.net/DTD/sodipodi-0.dtd" xmlns:inkscape="http://www.inkscape.org/namespaces/inkscape" version="1.1" x="0px" y="0px" viewBox="0 0 100 100"><g transform="translate(0,-952.36218)"><path style="text-indent:0;text-transform:none;direction:ltr;block-progression:tb;baseline-shift:baseline;color:#000000;enable-background:accumulate;" d="m 39.793688,956.37511 c -0.80453,0.089 -1.52196,0.7155 -1.71944,1.5003 -2.45723,9.8273 -5.31133,15.6566 -9.47254,19.8171 -4.129312,4.1286 -9.755741,6.7772 -18.069728,9.7209 -0.8730171,0.2105 -1.5427791,1.0715 -1.5318631,1.9693 l 0,14.00319 c 0.0013,0.4642 0.170303,0.9261 0.468938,1.2815 l 35.3578931,42.2286 c 0.90382,1.494 1.76933,1.6871 3.09499,1.2815 18.8745,-4.9845 32.74196,-9.8666 39.01561,-13.003 1.13288,-0.4381 1.09419,-0.6479 1.09419,-1.7817 -0.13902,-4.1493 0.22204,-8.4751 -0.0625,-12.5653 0.78085,-0.636 1.58051,-1.27 2.34469,-1.9068 0.86023,-0.7121 0.92237,-2.1875 0.12505,-2.9694 l -4.81443,-4.8136 c 0.98686,-1.156 1.97239,-2.3277 2.93868,-3.4696 0.61013,-0.7163 0.61013,-1.8779 0,-2.5943 l -37.01481,-43.00989 c -0.43597,-0.515 -1.1453,-0.7841 -1.81322,-0.6877 -0.42226,0.061 -0.82318,0.2616 -1.12545,0.5627 l -1.7507,1.7504 -5.28337,-6.5952 c -0.42343,-0.5168 -1.11845,-0.7971 -1.78196,-0.719 z m 1.06292,6.2514 33.76351,41.97849 c -5.49551,11.4601 -13.24826,21.0009 -25.7603,25.9747 -11.30709,-13.4901 -22.95777,-26.915 -34.451287,-40.32179 7.206804,-2.6844 12.697687,-5.4125 17.006807,-9.721 4.18861,-4.1879 7.08296,-9.9007 9.44127,-17.9104 z m 9.03487,3.6884 34.48254,40.04049 c -10.32343,12.161 -21.39813,24.5591 -35.35789,28.694 l 0,-0.2812 c 14.78523,-5.4143 23.86795,-16.6658 29.82443,-29.5694 0.31299,-0.671 0.21214,-1.5156 -0.2501,-2.0941 l -29.19918,-36.28969 z m -36.88976,28.4752 32.01281,37.35249 0,8.752 -32.01281,-38.2276 z m 69.99675,19.37949 3.03247,3.032 c -8.12561,6.6563 -17.07548,13.1146 -26.47935,17.6604 8.95748,-5.0264 16.52143,-12.7597 23.44688,-20.6924 z m 1.03167,9.8149 0,8.033 c -5.78694,2.7541 -18.13026,7.1977 -35.01401,11.7527 l 0,-0.6251 c 12.7095,-3.5014 24.5245,-11.0058 35.01401,-19.1606 z" fill="#000000" fill-opacity="1" stroke="none" marker="none" visibility="visible" display="inline" overflow="visible"></path></g></svg>