<svg height='100px' width='100px'  fill="#000000" xmlns="http://www.w3.org/2000/svg" xmlns:xlink="http://www.w3.org/1999/xlink" version="1.1" x="0px" y="0px" viewBox="0 0 100 100" enable-background="new 0 0 100 100" xml:space="preserve"><g><path fill="none" d="M51.682,67.481l-3.555,0.012c-0.332,3.068-1.251,6.954-1.623,8.454l3.43-0.012l3.43-0.013   C52.982,74.425,52.036,70.546,51.682,67.481z"></path><path d="M70.725,94.054c-0.071-0.09-4.154-5.322-8.2-13.055l0.389-0.001c0.131,0,0.256-0.053,0.349-0.146   c0.092-0.094,0.144-0.219,0.143-0.351l-0.014-4.121c-0.001-0.272-0.222-0.493-0.495-0.493c0,0-0.001,0-0.002,0l-2.843,0.01   c-1.668-3.745-3.171-7.855-4.184-12.121l0.503-0.002c0.273-0.001,0.494-0.223,0.493-0.496l-0.008-2.386   c-0.001-0.272-0.222-0.493-0.495-0.493c0,0-0.001,0-0.002,0l-1.181,0.004c-2.793-16.033-2.847-36.633-2.836-40l0.486-0.002   c0.131,0,0.256-0.053,0.349-0.146c0.092-0.094,0.144-0.219,0.143-0.351l-0.005-1.518c-0.001-0.272-0.222-0.493-0.495-0.493   c0,0-0.001,0-0.002,0l-0.156,0.001l-0.009-2.651c0-0.131-0.053-0.257-0.146-0.349c-0.093-0.093-0.218-0.144-0.349-0.144   c0,0-0.001,0-0.002,0l-0.783,0.003l-1.199-9.324C50.143,5.184,49.933,5,49.685,5c0,0-0.001,0-0.002,0   c-0.249,0.001-0.459,0.187-0.489,0.435l-1.133,9.333l-0.784,0.003c-0.273,0.001-0.494,0.223-0.493,0.496l0.009,2.65l-0.156,0.001   c-0.131,0-0.256,0.053-0.349,0.146c-0.092,0.094-0.144,0.219-0.143,0.351l0.005,1.519c0,0.131,0.053,0.257,0.146,0.349   c0.092,0.093,0.218,0.144,0.348,0.144c0,0,0.001,0,0.002,0l0.486-0.002c0.035,3.368,0.126,23.966-2.552,40.019l-1.181,0.004   c-0.131,0-0.256,0.053-0.349,0.146c-0.092,0.094-0.144,0.219-0.143,0.351l0.009,2.387c0.001,0.272,0.222,0.493,0.495,0.493   c0,0,0.001,0,0.002,0l0.503-0.002c-0.983,4.273-2.456,8.393-4.098,12.15l-2.843,0.01c-0.131,0-0.256,0.053-0.349,0.146   c-0.092,0.094-0.144,0.219-0.143,0.351l0.015,4.121c0.001,0.272,0.222,0.493,0.495,0.493c0,0,0.001,0,0.002,0l0.389-0.001   c-3.991,7.762-8.037,13.023-8.107,13.114c-0.116,0.149-0.137,0.352-0.054,0.522C29.303,94.893,29.475,95,29.664,95   c0,0,0.001,0,0.002,0l9.273-0.034c0.273-0.001,0.494-0.223,0.493-0.496c-0.01-2.834,0.695-5.116,2.096-6.786   c1.753-2.089,4.593-3.155,8.438-3.169c8.706-0.037,10.587,5.356,10.603,9.88c0.001,0.272,0.222,0.493,0.495,0.493   c0,0,0.001,0,0.002,0l9.273-0.033c0.189-0.001,0.361-0.109,0.443-0.279C70.864,94.405,70.842,94.203,70.725,94.054z M46.505,75.946   c0.372-1.499,1.29-5.385,1.623-8.454l3.555-0.012c0.353,3.066,1.3,6.944,1.682,8.44l-3.43,0.013L46.505,75.946z"></path></g></svg>