<svg height='100px' width='100px'  fill="#000000" xmlns="http://www.w3.org/2000/svg" xmlns:xlink="http://www.w3.org/1999/xlink" viewBox="0 0 24 24" version="1.1" x="0px" y="0px"><title>icon/square-equal</title><desc>Created with Sketch.</desc><g stroke="none" stroke-width="1" fill="none" fill-rule="evenodd"><path d="M7.5,10 C7.22385763,10 7,9.77614237 7,9.5 C7,9.22385763 7.22385763,9 7.5,9 L15.5,9 C15.7761424,9 16,9.22385763 16,9.5 C16,9.77614237 15.7761424,10 15.5,10 L7.5,10 Z M7.5,14 C7.22385763,14 7,13.7761424 7,13.5 C7,13.2238576 7.22385763,13 7.5,13 L15.5,13 C15.7761424,13 16,13.2238576 16,13.5 C16,13.7761424 15.7761424,14 15.5,14 L7.5,14 Z M3.5,20 C3.22385763,20 3,19.7761424 3,19.5 L3,3.5 C3,3.22385763 3.22385763,3 3.5,3 L19.5,3 C19.7761424,3 20,3.22385763 20,3.5 L20,19.5 C20,19.7761424 19.7761424,20 19.5,20 L3.5,20 Z M4,19 L19,19 L19,4 L4,4 L4,19 Z" fill="#000000" fill-rule="nonzero"></path></g></svg>