<svg xmlns="http://www.w3.org/2000/svg" data-name="Layer 1" viewBox="0 0 100 100" x="0px" y="0px"><defs><style>.cls-1{fill-rule:evenodd;}</style></defs><title>feedback_five</title><path class="cls-1" d="M48.45,0,58,15.13,48.49,30.28V25.73l-.7,0a26.75,26.75,0,0,0-20.88,14l-.28.59-7.77-9.25L6.71,34.24l0-.07A47.41,47.41,0,0,1,45.68,5.23l2.78-.14V0Z"></path><path class="cls-1" d="M99.9,34.31,88.45,48.06,71.1,43.69l4.33-1.41-.25-.66A26.75,26.75,0,0,0,55.41,26.07L54.76,26l6.4-10.25L54.45,5.16h.07A47.41,47.41,0,0,1,94.07,33.28l1,2.6,4.84-1.58Z"></path><path class="cls-1" d="M83.1,93.73,66.48,87.1,65.27,69.26l2.68,3.68.55-.44a26.75,26.75,0,0,0,8.66-23.61L77,48.24l11.72,2.91,8-9.66,0,.07A47.41,47.41,0,0,1,82.27,87.86l-2.17,1.75,3,4.11Z"></path><path class="cls-1" d="M21.62,96.21l1.15-17.85,16.59-6.69-2.67,3.69.59.38a26.75,26.75,0,0,0,25.13.92l.57-.31.86,12.05L75.51,93l-.06,0a47.41,47.41,0,0,1-48.52.57L24.6,92.09l-3,4.12Z"></path><path class="cls-1" d="M.1,38.21l17.33-4.44,11.5,13.7L24.6,46.08l-.18.68a26.75,26.75,0,0,0,6.92,24.18l.48.45L20.62,75.95l-.76,12.51-.06,0a47.41,47.41,0,0,1-15.58-46l.72-2.69L.1,38.21Z"></path></svg>