<svg height='100px' width='100px'  fill="#000000" xmlns="http://www.w3.org/2000/svg" xmlns:xlink="http://www.w3.org/1999/xlink" version="1.1" x="0px" y="0px" viewBox="0 0 100 100" enable-background="new 0 0 100 100" xml:space="preserve"><polygon points="16.2,89 27.5,89 21.9,79.2 "></polygon><polygon points="5,89 16.2,89 10.6,79.2 "></polygon><polygon points="16.2,69.5 10.6,79.2 21.9,79.2 "></polygon><polygon points="38.8,89 50,89 44.4,79.2 "></polygon><polygon points="27.5,89 38.8,89 33.1,79.2 "></polygon><polygon points="44.4,79.2 38.8,69.5 33.1,79.2 "></polygon><polygon points="21.9,59.7 33.1,59.7 27.5,69.5 38.8,69.5 33.1,59.7 33.1,59.7 27.5,50 21.9,59.7 21.9,59.7 16.2,69.5 27.5,69.5 "></polygon><polygon points="61.2,89 72.5,89 66.9,79.2 "></polygon><polygon points="50,89 61.2,89 55.6,79.2 "></polygon><polygon points="66.9,79.2 61.2,69.5 55.6,79.2 "></polygon><polygon points="83.8,89 95,89 89.4,79.2 "></polygon><polygon points="72.5,89 83.8,89 78.1,79.2 "></polygon><polygon points="89.4,79.2 83.8,69.5 78.1,79.2 "></polygon><polygon points="66.9,59.7 61.2,69.5 72.5,69.5 66.9,59.7 78.1,59.7 72.5,69.5 83.8,69.5 78.1,59.7 78.1,59.7 72.5,50 66.9,59.7 "></polygon><polygon points="38.8,50 50,50 44.4,40.3 "></polygon><polygon points="33.1,40.3 27.5,50 38.8,50 "></polygon><polygon points="38.8,30.5 33.1,40.3 44.4,40.3 "></polygon><polygon points="72.5,50 66.9,40.3 61.2,50 "></polygon><polygon points="50,50 61.2,50 55.6,40.3 "></polygon><polygon points="66.9,40.3 61.2,30.5 55.6,40.3 "></polygon><polygon points="61.2,30.5 55.6,20.8 50,30.5 "></polygon><polygon points="44.4,20.8 38.8,30.5 50,30.5 "></polygon><polygon points="50,11 44.4,20.8 55.6,20.8 "></polygon></svg>