<svg height='100px' width='100px'  fill="#000000" xmlns="http://www.w3.org/2000/svg" xmlns:xlink="http://www.w3.org/1999/xlink" version="1.1" x="0px" y="0px" viewBox="0 0 100 100" enable-background="new 0 0 100 100" xml:space="preserve"><g><path d="M74.903,46.963c-0.491,4.375-1.421,7.16-2.629,10.293c0,0,10.467,6.168,12.09,14.122c1.289,6.319-6.156,11.199-19.03,5.778   c-13.485-5.677-22.44-15.445-24.757-26.545c-7.454,0.449-9.954,2.906-9.954,2.906s6.121,21.886,31.476,33.391   C86.815,98.124,112.853,73.734,74.903,46.963z M54.544,19.978c9.575-1.878,15.133,31.985-1.81,46.474c0,0,3.353,4.134,8.19,6.184   c0,0,14.448-13.367,12.237-38.412C70.952,9.177,55.059,8.901,48.486,11.827C41.91,14.75,32.309,23.734,30.001,39.181   c3.905-1.387,5.769-1.703,11.078-2.045C41.079,37.136,44.152,22.016,54.544,19.978z M15.928,73.566   C9.115,61.501,30.937,40.989,60.005,51.191c0,0,1.539-4.012,1.863-9.871c0,0-27.798-8.057-46.262,7.22   C3.155,58.842,1.512,74.734,11.831,84.048c8.382,7.573,23.186,7.118,37.234-2.021c-3.193-2.357-5.038-3.835-7.773-6.902   C41.292,75.125,22.741,85.637,15.928,73.566z"></path></g></svg>