<svg height='100px' width='100px'  fill="#000000" xmlns="http://www.w3.org/2000/svg" xmlns:xlink="http://www.w3.org/1999/xlink" version="1.1" x="0px" y="0px" viewBox="0 0 100 100" style="enable-background:new 0 0 100 100;" xml:space="preserve"><style type="text/css">
	.st0{stroke:#000000;}
	.st1{stroke:#000000;stroke-width:1.6482;stroke-linecap:round;stroke-linejoin:round;}
	.st2{stroke:#000000;stroke-width:1.6482;stroke-linecap:round;stroke-linejoin:round;}
	.st3{stroke:#000000;stroke-width:0.72;}
	.st4{stroke:#000000;stroke-width:0.5184;}
	.st5{stroke:#000000;stroke-width:0.3732;}
	.st6{stroke:#000000;stroke-width:0.6751;}
	.st7{stroke:#000000;stroke-width:0.7404;}
	.st8{stroke:#000000;stroke-width:0.6442;}
</style><g><polygon points="40.998,1.252 40.998,8.752 73.244,8.752 73.244,19.252 40.998,19.252 40.998,26.752 80.744,26.752 80.744,8.752    91.243,8.752 91.249,55.247 80.75,55.247 80.75,40.999 73.25,40.999 73.25,62.747 98.75,62.747 98.742,1.252  "></polygon><polygon points="91.243,91.248 80.75,91.248 80.75,76.998 73.25,76.998 73.25,91.247 44.748,91.246 44.748,80.747 62.747,80.747    62.747,37.249 40.998,37.249 40.998,44.749 55.247,44.749 55.247,73.247 22.998,73.247 22.998,80.747 37.248,80.747 37.248,91.246    8.75,91.245 8.75,62.747 40.998,62.747 40.998,55.247 8.75,55.247 8.75,44.749 26.748,44.749 26.748,23.002 19.248,23.002    19.248,37.249 8.75,37.249 8.75,8.752 22.998,8.752 22.998,1.252 1.25,1.252 1.25,98.745 98.743,98.748 98.743,76.999    91.243,76.999  "></polygon></g></svg>