<svg height='100px' width='100px'  fill="#000000" xmlns="http://www.w3.org/2000/svg" xmlns:xlink="http://www.w3.org/1999/xlink" version="1.1" x="0px" y="0px" viewBox="0 0 48 48" enable-background="new 0 0 48 48" xml:space="preserve"><g><path d="M31.455,16.912l0.01-0.004c-5.437-1.781-5.362-5.081-5.362-5.081c-1.636-5.542,1.285-10.684,1.285-10.684L24,0   c-4.03,7.2-1.985,9.028-2.803,12.285s-6.646,5.143-6.646,5.143l0,0C5.996,19.967,0,25.845,0,32.694   C0,39.579,6.057,45.485,14.686,48c-8.521-6.936-5.33-20.402-5.33-20.402C8.286,43.789,25.901,47.696,25.901,47.696   c1.98-3.015,2.976-14.974,2.876-17.484c-0.008-0.055-0.03-0.212-0.022-0.157c0.022,0.157,0-0.336,0-0.336s0.009,0.182,0.022,0.493   c1.791,11.839,0.662,17.709,0.662,17.709c13.237-6.589,6.847-20.771,6.847-20.771c6.179,7.554,4.126,14.902,2.636,18.545   C44.451,42.652,48,37.961,48,32.694C48,25.324,41.059,19.08,31.455,16.912z"></path></g></svg>