<svg height='100px' width='100px'  fill="#000000" xmlns="http://www.w3.org/2000/svg" xmlns:xlink="http://www.w3.org/1999/xlink" version="1.1" x="0px" y="0px" viewBox="0 0 100 100" style="enable-background:new 0 0 100 100;" xml:space="preserve"><g><path d="M50,95.5c-6.1,0-12.1-1.2-17.7-3.6c-5.4-2.3-10.3-5.6-14.5-9.7c-4.2-4.2-7.5-9-9.7-14.5C5.7,62.1,4.5,56.1,4.5,50   c0-6.1,1.2-12.1,3.6-17.7c2.3-5.4,5.6-10.3,9.7-14.5s9-7.5,14.5-9.7C37.9,5.7,43.9,4.5,50,4.5c6.1,0,12.1,1.2,17.7,3.6   c5.4,2.3,10.3,5.6,14.5,9.7c4.2,4.2,7.5,9,9.7,14.5c2.4,5.6,3.6,11.6,3.6,17.7c0,6.1-1.2,12.1-3.6,17.7c-2.3,5.4-5.6,10.3-9.7,14.5   c-4.2,4.2-9,7.5-14.5,9.7C62.1,94.3,56.1,95.5,50,95.5z M50,13.8c-9.7,0-18.8,3.8-25.6,10.6C17.6,31.2,13.8,40.3,13.8,50   s3.8,18.8,10.6,25.6c6.8,6.8,15.9,10.6,25.6,10.6s18.8-3.8,25.6-10.6c6.8-6.8,10.6-15.9,10.6-25.6s-3.8-18.8-10.6-25.6   C68.8,17.6,59.7,13.8,50,13.8z"></path></g><path d="M24.8,44.2H37c3.2-7,11.5-10.1,18.5-6.9c7,3.2,10.1,11.5,6.9,18.5c-3.2,7-11.5,10.1-18.5,6.9c-3-1.4-5.5-3.8-6.9-6.9H24.8  C28,69.6,41.8,78.1,55.5,74.9S77.8,58,74.6,44.2S57.6,22,43.9,25.2C34.4,27.4,27,34.8,24.8,44.2z"></path></svg>