<svg xmlns:dc="http://purl.org/dc/elements/1.1/" xmlns:cc="http://creativecommons.org/ns#" xmlns:rdf="http://www.w3.org/1999/02/22-rdf-syntax-ns#" xmlns:svg="http://www.w3.org/2000/svg" xmlns="http://www.w3.org/2000/svg" xmlns:sodipodi="http://sodipodi.sourceforge.net/DTD/sodipodi-0.dtd" xmlns:inkscape="http://www.inkscape.org/namespaces/inkscape" viewBox="0 0 10.583333 10.583334" version="1.1" x="0px" y="0px"><svg:g><svg:path style="color:#000000;font-style:normal;font-variant:normal;font-weight:normal;font-stretch:normal;font-size:medium;line-height:normal;font-family:sans-serif;font-variant-ligatures:normal;font-variant-position:normal;font-variant-caps:normal;font-variant-numeric:normal;font-variant-alternates:normal;font-feature-settings:normal;text-indent:0;text-align:start;text-decoration:none;text-decoration-line:none;text-decoration-style:solid;text-decoration-color:#000000;letter-spacing:normal;word-spacing:normal;text-transform:none;writing-mode:lr-tb;direction:ltr;text-orientation:mixed;dominant-baseline:auto;baseline-shift:baseline;text-anchor:start;white-space:normal;shape-padding:0;clip-rule:nonzero;display:inline;overflow:visible;visibility:visible;opacity:1;isolation:auto;mix-blend-mode:normal;color-interpolation:sRGB;color-interpolation-filters:linearRGB;solid-color:#000000;solid-opacity:1;vector-effect:none;fill:#000000;fill-opacity:1;fill-rule:nonzero;stroke:none;stroke-width:0.52916664;stroke-linecap:round;stroke-linejoin:round;stroke-miterlimit:4;stroke-dasharray:none;stroke-dashoffset:0;stroke-opacity:1;paint-order:stroke fill markers;color-rendering:auto;image-rendering:auto;shape-rendering:auto;text-rendering:auto;enable-background:accumulate" d="M 1.0591099,0.79252601 A 0.26460979,0.26460979 0 0 0 0.79349208,1.058143 v 1.14825 A 0.26460979,0.26460979 0 0 0 1.0591099,2.47046 h 0.082164 v 3.897953 h -0.082164 a 0.2648415,0.2648415 0 1 0 0,0.529683 H 1.4048251 5.0257908 V 7.873231 L 2.7758007,9.298467 a 0.26521685,0.26521685 0 1 0 0.2852525,0.447 L 5.0257908,8.500066 v 0.763259 a 0.2646485,0.2646485 0 1 0 0.5291667,0 v -0.76481 l 1.9668066,1.246952 a 0.26471502,0.26471502 0 1 0 0.2837022,-0.447 L 5.5549575,7.87168 V 6.898096 h 3.6235534 0.3451966 a 0.2648415,0.2648415 0 1 0 0,-0.529683 H 9.4420595 V 2.47046 h 0.081648 A 0.26460979,0.26460979 0 0 0 9.7898412,2.206393 V 1.058143 A 0.26460979,0.26460979 0 0 0 9.5237075,0.79252601 Z M 1.3226587,1.321692 H 9.2601586 V 1.940775 H 9.1785109 1.4048251 1.3226587 Z M 1.6704403,2.47046 H 8.9123771 V 6.368413 H 1.6704403 Z"></svg:path></svg:g></svg>