<svg height='100px' width='100px'  fill="#000000" xmlns:dc="http://purl.org/dc/elements/1.1/" xmlns:cc="http://creativecommons.org/ns#" xmlns:rdf="http://www.w3.org/1999/02/22-rdf-syntax-ns#" xmlns:svg="http://www.w3.org/2000/svg" xmlns="http://www.w3.org/2000/svg" xmlns:sodipodi="http://sodipodi.sourceforge.net/DTD/sodipodi-0.dtd" xmlns:inkscape="http://www.inkscape.org/namespaces/inkscape" version="1.1" x="0px" y="0px" viewBox="0 0 100 100" xml:space="preserve"><path d="M 50,2.5 C 23.808839,2.5 2.5,23.808839 2.5,50 2.5,76.191161 23.808839,97.5 50,97.5 76.191161,97.5 97.5,76.191161 97.5,50 97.5,23.808839 76.191161,2.5 50,2.5 Z m 0,3.3928576 C 74.321697,5.8928576 94.107143,25.68 94.107143,50 94.107143,74.320001 74.321697,94.107143 50,94.107143 25.678303,94.107143 5.8928572,74.320001 5.8928572,50 5.8928572,25.68 25.678303,5.8928576 50,5.8928576 Z M 29.642858,29.642858 c -0.938125,0 -1.69643,0.76 -1.69643,1.696428 0,0.936428 0.758305,1.696428 1.69643,1.696428 h 40.714285 c 0.938125,0 1.696429,-0.76 1.696429,-1.696428 0,-0.936428 -0.758304,-1.696428 -1.696429,-1.696428 z m 0,18.660714 c -0.938125,0 -1.69643,0.76 -1.69643,1.696428 0,0.936429 0.758305,1.696429 1.69643,1.696429 h 40.714285 c 0.938125,0 1.696429,-0.76 1.696429,-1.696429 0,-0.936428 -0.758304,-1.696428 -1.696429,-1.696428 z m 0,18.660714 c -0.938125,0 -1.69643,0.76 -1.69643,1.696429 0,0.936428 0.758305,1.696428 1.69643,1.696428 h 40.714285 c 0.938125,0 1.696429,-0.76 1.696429,-1.696428 0,-0.936429 -0.758304,-1.696429 -1.696429,-1.696429 z" style="" stroke-width="1"></path></svg>