<svg height='100px' width='100px'  fill="#000000" xmlns="http://www.w3.org/2000/svg" xmlns:xlink="http://www.w3.org/1999/xlink" version="1.1" x="0px" y="0px" viewBox="0 0 128 128" style="enable-background:new 0 0 128 128;" xml:space="preserve"><g><path d="M100.319,110.342c-4.845,5.604-10.843,10.16-17.625,13.338H128v-13.338H100.319z"></path><path d="M108.192,75.902c0-26.345-21.435-47.779-47.779-47.779c-14.874,0-28.178,6.837-36.943,17.527   c-1.667-0.469-3.17-1.306-4.402-2.455c-2.104-1.957-3.441-4.725-3.441-7.818c0-5.91,4.806-10.716,10.716-10.716   c0.915,0,1.801,0.137,2.663,0.355l-4.129,8.365l9.095-3.087l12.604-4.275l-0.313-0.915l-7.04-20.784l-4.259,8.622   c-2.742-1.058-5.627-1.618-8.622-1.618c-13.264,0-24.053,10.791-24.053,24.053c0,7.932,3.876,14.958,9.816,19.341   c1.342,0.99,2.784,1.846,4.319,2.543c-2.438,5.73-3.79,12.031-3.79,18.641c0,5.848,1.1,11.52,3.152,16.926l-8.891,3.848   l21.308,8.428l8.434-21.301l-8.609,3.725c-1.339-3.715-2.058-7.609-2.058-11.625c0-18.993,15.453-34.442,34.442-34.442   s34.442,15.45,34.442,34.442c0,18.99-15.453,34.439-34.442,34.439H0v13.338h60.413C86.758,123.68,108.192,102.248,108.192,75.902z"></path></g></svg>