<svg xmlns="http://www.w3.org/2000/svg" xmlns:xlink="http://www.w3.org/1999/xlink" version="1.1" x="0px" y="0px" viewBox="-434 236 90 90" style="enable-background:new -434 236 90 90;" xml:space="preserve"><g><path d="M-360.9,269.1c1.6,3.8,2.4,7.7,2.4,11.9c0,4.2-0.8,8.1-2.4,11.9s-3.8,7-6.5,9.8c-2.7,2.7-6,4.9-9.7,6.5   c-3.8,1.6-7.7,2.4-11.9,2.4c-4.1,0-8.1-0.8-11.9-2.4s-7-3.8-9.7-6.5s-4.9-6-6.5-9.8s-2.4-7.8-2.4-11.9c0-4.2,0.8-8.1,2.4-11.9   s3.8-7,6.5-9.8c2.7-2.7,6-4.9,9.7-6.5c3.8-1.6,7.7-2.4,11.9-2.4c4.1,0,8.1,0.8,11.9,2.4c3.8,1.6,7,3.8,9.7,6.5   C-364.7,262.1-362.5,265.3-360.9,269.1z M-407.1,292.9l30-30c-3.6-2.4-7.5-3.6-11.9-3.6c-3.9,0-7.5,1-10.8,2.9s-5.9,4.6-7.9,7.9   c-1.9,3.3-2.9,7-2.9,10.9C-410.6,285.3-409.4,289.2-407.1,292.9z M-367.4,281c0-4.3-1.2-8.2-3.5-11.7l-30,29.9   c3.6,2.4,7.6,3.5,11.8,3.5c2.9,0,5.7-0.6,8.4-1.7c2.7-1.2,5-2.7,6.9-4.6s3.5-4.2,4.6-6.9C-368,286.7-367.4,283.9-367.4,281z"></path></g></svg>