<svg height='100px' width='100px'  fill="#000000" xmlns="http://www.w3.org/2000/svg" xmlns:xlink="http://www.w3.org/1999/xlink" version="1.1" x="0px" y="0px" viewBox="0 0 100 100" enable-background="new 0 0 100 100" xml:space="preserve"><path d="M95,56.144v-0.032l-19.318,0V33.651c0-0.577-0.065-1.123-0.194-1.646c-1.944-8.355-16.707-14.656-34.34-14.656  c-1.113,0-2.262,0.025-3.416,0.076C16.958,18.353,3,26.158,3,36.846c0,0.006,0.001,0.013,0.001,0.02C3.001,36.87,3,36.874,3,36.877  v22.508c0,0.746,0.089,1.502,0.263,2.244c2.923,12.574,22.18,21.022,47.919,21.022H95c1.104,0,2-0.896,2-2V58.144  C97,57.039,96.104,56.144,95,56.144z M51.182,56.112c-8.559,0-16.485-1.038-23.199-2.87V42.003c3.125,2.212,7.735,3.69,12.671,4.4  c2.271,0.329,4.611,0.494,6.906,0.494c0.761,0,1.536-0.02,2.303-0.052c9.62-0.432,17.4-2.765,21.819-6.214v15.481H51.182z   M47.812,30.113c0.208,0.03,0.419,0.06,0.621,0.094c0.254,0.044,0.498,0.092,0.74,0.142c0.099,0.02,0.202,0.039,0.3,0.06  c0.305,0.066,0.599,0.137,0.885,0.21c0.027,0.007,0.055,0.013,0.082,0.021c3.189,0.841,5.163,2.159,5.575,3.232v8.312  c-2.066,0.342-4.199,0.564-6.357,0.661c-0.706,0.029-1.423,0.048-2.128,0.048c-2.006,0-3.918-0.126-5.706-0.354  c-7.749-0.993-13.164-3.891-13.808-6.673c-0.021-0.081-0.032-0.175-0.032-0.286c0-2.091,5.006-5.34,14.066-5.744  c0.475-0.023,0.949-0.034,1.409-0.034c1.385,0.001,2.675,0.088,3.861,0.24C47.487,30.062,47.648,30.089,47.812,30.113z   M37.909,21.421c1.094-0.048,2.184-0.072,3.239-0.072c13.403,0,28.834,4.646,30.45,11.585c0.057,0.231,0.084,0.465,0.084,0.717  c0,2.815-4.292,5.974-11.667,7.78v-7.489c0.047-0.26,0.043-0.534-0.021-0.808c-0.883-3.779-5.74-6.015-11.129-6.896  c-1.795-0.296-3.651-0.441-5.438-0.443c-0.524,0-1.064,0.014-1.597,0.039c-10.527,0.47-17.879,4.476-17.879,9.74  c0,0.186,0.015,0.367,0.033,0.544v15.886C14.754,48.795,8.494,43.925,7.158,38.18C7.053,37.733,7,37.285,7,36.846  C7,28.577,19.711,22.234,37.909,21.421z M93,78.651h-9.318v-7c0-1.104-0.896-2-2-2s-2,0.896-2,2v7h-8.487v-7c0-1.104-0.896-2-2-2  s-2,0.896-2,2v7h-8.903v-7c0-1.104-0.896-2-2-2s-2,0.896-2,2v7h-3.11c-1.967,0-3.898-0.059-5.792-0.166v-6.731c0-1.104-0.896-2-2-2  s-2,0.896-2,2v6.424c-3.11-0.305-6.089-0.751-8.903-1.328v-6.888c0-1.104-0.896-2-2-2s-2,0.896-2,2v5.952  c-3.269-0.865-6.258-1.917-8.902-3.129v-7.296c0-1.104-0.896-2-2-2s-2,0.896-2,2v5.177c-4.554-2.793-7.551-6.181-8.426-9.946  C7.053,60.273,7,59.824,7,59.385V46.256c0.13,0.152,0.285,0.296,0.421,0.446c0.002,0.002,0.004,0.004,0.006,0.007  c0.594,0.655,1.246,1.289,1.946,1.904c0.007,0.006,0.014,0.012,0.021,0.018c8.14,7.132,23.275,11.512,41.787,11.512H93V78.651z"></path></svg>