<svg height='100px' width='100px'  fill="#000000" xmlns="http://www.w3.org/2000/svg" xmlns:xlink="http://www.w3.org/1999/xlink" version="1.1" x="0px" y="0px" viewBox="17 176.375 48 48" enable-background="new 17 176.375 48 48" xml:space="preserve"><path fill="#000000" d="M41,176.375c-13.254,0-24,10.745-24,24s10.745,24,24,24c13.256,0,24-10.745,24-24S54.256,176.375,41,176.375  z M53.26,191.993c0.035-0.04,0.066-0.093,0.115-0.103c0,0-0.008,0.016-0.082,0.154c0.037,0.062,0.074,0.123,0.109,0.186  c1.312,0.254,2.285,0.582,2.285,0.795c0,0.168-0.595,0.494-1.479,0.844c0.373,0.902,0.679,1.878,0.894,2.913  c0.666,3.2,0.33,6.239-0.729,8.378c-1.791,5.91-7.276,10.216-13.774,10.216c-6.105,0-11.31-3.808-13.402-9.172  c2.389,1.767,5.334,2.821,8.533,2.821c1.784,0,3.485-0.34,5.062-0.936c-1.715,0.121-3.481-0.105-5.195-0.756  c-5.775-2.188-6.85-9.095-6.85-9.095c-0.43-2.762,0.19-2.95,1.377-0.42c0,0,1.407,2.996,5.538,4.561  c0.109,0.042,0.221,0.069,0.332,0.104c-0.07-0.033-0.143-0.062-0.213-0.1c-5.448-2.904-5.633-9.895-5.633-9.895  c-0.074-2.793,0.565-2.901,1.42-0.242c0,0,1.013,3.152,4.91,5.23c1.957,1.045,4.068,1.494,6.137,1.431  c-0.965-5.371,0.858-10.192,4.192-10.888c1.5-0.312,3.055,0.265,4.426,1.476c0.396-0.05,0.836-0.048,1.302,0.021  c1.731,0.26,3.149,0.686,3.149,0.945c0,0.232-1.131,0.764-2.604,1.246C53.143,191.807,53.201,191.896,53.26,191.993z"></path></svg>