<svg xmlns="http://www.w3.org/2000/svg" xmlns:xlink="http://www.w3.org/1999/xlink" xml:space="preserve" version="1.1" style="shape-rendering:geometricPrecision;text-rendering:geometricPrecision;image-rendering:optimizeQuality;" viewBox="0 0 3966 5041" x="0px" y="0px" fill-rule="evenodd" clip-rule="evenodd"><defs><style type="text/css">
   
    .fil0 {fill:black}
   
  </style></defs><g><path class="fil0" d="M0 701l0 -701 3966 0 0 701 -3966 0zm1983 2481l161 498 522 -1 -423 306 162 496 -422 -308 -422 308 162 -496 -423 -306 523 1 160 -498zm0 -520c657,0 1189,533 1189,1190 0,656 -532,1189 -1189,1189 -657,0 -1189,-533 -1189,-1189 0,-657 532,-1190 1189,-1190zm0 249c520,0 941,421 941,941 0,519 -421,941 -941,941 -520,0 -941,-422 -941,-941 0,-520 421,-941 941,-941zm1983 -2065l-274 0 -1031 1785c70,39 137,84 199,134l1106 -1919zm-528 0l-277 0 -941 1630c83,14 163,35 240,63l978 -1693zm-3438 0l275 0 1030 1785c-70,39 -137,84 -199,134l-1106 -1919zm529 0l277 0 941 1630c-83,14 -164,35 -241,63l-977 -1693zm-402 -386l0 -220 3712 0 0 220 -3712 0z"></path></g></svg>