<svg xmlns="http://www.w3.org/2000/svg" xmlns:xlink="http://www.w3.org/1999/xlink" xml:space="preserve" style="shape-rendering:geometricPrecision;text-rendering:geometricPrecision;image-rendering:optimizeQuality;" viewBox="0 0 6.82666 6.82666" x="0px" y="0px" fill-rule="evenodd" clip-rule="evenodd"><defs><style type="text/css">
   
    .fil2 {fill:none}
    .fil1 {fill:black}
    .fil0 {fill:black;fill-rule:nonzero}
   
  </style></defs><g><g><path class="fil0" d="M4.61296 2.77624l0.382339 0.382339c0.0206693,0.0211772 0.0548661,0.0212047 0.0757441,0.000326772l0.656768 -0.656776c0.163244,-0.163244 0.244862,-0.378366 0.244862,-0.593437 0,-0.464701 -0.373602,-0.838303 -0.838303,-0.838303 -0.215071,0 -0.430197,0.081626 -0.593437,0.244866l-0.656449 0.656445c-0.0211772,0.0206693 -0.0212047,0.0548661 -0.000326772,0.0757441l0.382665 0.382657 -0.276126 0.27613 0.346142 0.346134 0.276122 -0.276126z"></path><path class="fil0" d="M1.66954 2.25351c0.223335,-0.223331 0.613165,-0.496937 0.964583,-0.663169 0.295862,-0.139953 0.570024,-0.203898 0.712173,-0.103508 0.0329094,0.0230354 0.0290591,0.0735669 -0.00696457,0.0913465 -0.416669,0.249646 -0.798004,0.53465 -1.14369,0.855307l0.264657 0.264657 -0.34613 0.346138 -0.264815 -0.264815c-0.321799,0.346335 -0.607681,0.728689 -0.857287,1.14739 -0.0180787,0.0350276 -0.0714882,0.034252 -0.0916772,-0.00023622 -0.0968071,-0.143154 -0.0328031,-0.415154 0.105976,-0.708535 0.166232,-0.351413 0.439839,-0.741244 0.663169,-0.964579z"></path><path class="fil1" d="M4.29013 5.22024l0.346134 -0.346142c-0.680217,-0.680213 -1.36043,-1.36043 -2.04065,-2.04064l-0.34613 0.346138c0.680217,0.680217 1.36043,1.36043 2.04065,2.04065z"></path><path class="fil1" d="M4.76126 4.9991l-0.346134 0.346142 0.395098 0.395098c0.0206693,0.0211772 0.0548661,0.0212047 0.0757441,0.000326772l0.27039 -0.270398c0.0211772,-0.0206693 0.0212047,-0.0548661 0.000326772,-0.0757441l-0.395425 -0.395425z"></path><polygon class="fil1" points="2.80798,3.88894 1.82673,4.87019 2.17287,5.21633 3.15411,4.23507 "></polygon><polygon class="fil1" points="3.6511,3.73809 4.21948,3.16971 3.87334,2.82358 3.30496,3.39196 "></polygon><path class="fil1" d="M2.04183 5.34736l-0.346138 -0.346138 -0.392075 0.392079c-0.0211772,0.0206693 -0.0212047,0.0548661 -0.000326772,0.0757441l0.270398 0.27039c0.0206693,0.0211772 0.0548661,0.0212047 0.0757441,0.000326772l0.392398 -0.392402z"></path></g></g><rect class="fil2" width="6.82666" height="6.82666"></rect></svg>