<svg version="1.1" viewBox="0.0 0.0 960.3832020997376 574.8950131233596" fill="none" stroke="none" stroke-linecap="square" stroke-miterlimit="10" xmlns:xlink="http://www.w3.org/1999/xlink" xmlns="http://www.w3.org/2000/svg"><clipPath id="p.0"><path d="m0 0l960.3832 0l0 574.895l-960.3832 0l0 -574.895z" clip-rule="nonzero"/></clipPath><g clip-path="url(#p.0)"><path fill="#000000" fill-opacity="0.0" d="m0 0l960.3832 0l0 574.895l-960.3832 0z" fill-rule="evenodd"/><path fill="#000000" fill-opacity="0.0" d="m257.19815 201.89764l0 0c0 -69.71835 56.539032 -126.23623 126.28348 -126.23623l0 0c33.492462 0 65.61316 13.29985 89.2959 36.973732c23.68274 23.67389 36.98758 55.782562 36.98758 89.2625l0 0c0 69.71832 -56.539062 126.236206 -126.28348 126.236206l0 0c-69.744446 0 -126.28348 -56.517883 -126.28348 -126.236206z" fill-rule="evenodd"/><path stroke="#b7b7b7" stroke-width="2.0" stroke-linejoin="round" stroke-linecap="butt" stroke-dasharray="8.0,6.0" d="m257.19815 201.89764l0 0c0 -69.71835 56.539032 -126.23623 126.28348 -126.23623l0 0c33.492462 0 65.61316 13.29985 89.2959 36.973732c23.68274 23.67389 36.98758 55.782562 36.98758 89.2625l0 0c0 69.71832 -56.539062 126.236206 -126.28348 126.236206l0 0c-69.744446 0 -126.28348 -56.517883 -126.28348 -126.236206z" fill-rule="evenodd"/><path fill="#b7b7b7" d="m347.66467 197.81764l5.90625 -13.0625l1.859375 0l5.921875 13.0625l-1.953125 0l-5.28125 -12.015625l0.75 0l-5.28125 12.015625l-1.921875 0zm2.515625 -3.265625l0.5 -1.484375l7.359375 0l0.53125 1.484375l-8.390625 0zm17.0943 7.0q-1.359375 0 -2.640625 -0.390625q-1.28125 -0.375 -2.078125 -1.09375l0.859375 -1.375q0.6875 0.59375 1.6875 0.9375q1.015625 0.359375 2.109375 0.359375q1.75 0 2.5625 -0.828125q0.828125 -0.828125 0.828125 -2.5l0 -2.09375l0.1875 -1.953125l-0.09375 -1.984375l0 -2.703125l1.703125 0l0 8.546875q0 2.609375 -1.3125 3.84375q-1.296875 1.234375 -3.8125 1.234375zm-0.234375 -4.140625q-1.4375 0 -2.5625 -0.609375q-1.125 -0.609375 -1.796875 -1.6875q-0.65625 -1.078125 -0.65625 -2.5q0 -1.4375 0.65625 -2.5q0.671875 -1.078125 1.796875 -1.671875q1.125 -0.609375 2.5625 -0.609375q1.28125 0 2.3125 0.515625q1.046875 0.515625 1.671875 1.578125q0.625 1.0625 0.625 2.6875q0 1.609375 -0.625 2.671875q-0.625 1.0625 -1.671875 1.59375q-1.03125 0.53125 -2.3125 0.53125zm0.203125 -1.578125q1.0 0 1.765625 -0.40625q0.765625 -0.40625 1.203125 -1.125q0.4375 -0.734375 0.4375 -1.6875q0 -0.953125 -0.4375 -1.671875q-0.4375 -0.734375 -1.203125 -1.125q-0.765625 -0.40625 -1.765625 -0.40625q-0.984375 0 -1.765625 0.40625q-0.765625 0.390625 -1.203125 1.125q-0.4375 0.71875 -0.4375 1.671875q0 0.953125 0.4375 1.6875q0.4375 0.71875 1.203125 1.125q0.78125 0.40625 1.765625 0.40625zm12.966553 2.09375q-1.578125 0 -2.78125 -0.640625q-1.203125 -0.65625 -1.875 -1.796875q-0.65625 -1.140625 -0.65625 -2.609375q0 -1.484375 0.640625 -2.609375q0.65625 -1.140625 1.78125 -1.78125q1.125 -0.65625 2.546875 -0.65625q1.4375 0 2.53125 0.640625q1.109375 0.625 1.734375 1.78125q0.625 1.140625 0.625 2.671875q0 0.109375 -0.015625 0.265625q-0.015625 0.140625 -0.03125 0.28125l-8.40625 0l0 -1.296875l7.46875 0l-0.71875 0.453125q0.015625 -0.953125 -0.390625 -1.6875q-0.40625 -0.75 -1.125 -1.171875q-0.71875 -0.421875 -1.671875 -0.421875q-0.9375 0 -1.671875 0.421875q-0.71875 0.421875 -1.140625 1.171875q-0.40625 0.75 -0.40625 1.71875l0 0.3125q0 0.984375 0.453125 1.765625q0.46875 0.765625 1.28125 1.203125q0.828125 0.421875 1.890625 0.421875q0.875 0 1.59375 -0.296875q0.71875 -0.296875 1.265625 -0.90625l0.984375 1.15625q-0.671875 0.796875 -1.671875 1.203125q-1.0 0.40625 -2.234375 0.40625zm7.027008 -0.109375l0 -9.890625l1.71875 0l0 2.671875l-0.28125 -0.703125q0.484375 -0.984375 1.484375 -1.515625q1.015625 -0.546875 2.359375 -0.546875q1.203125 0 2.125 0.46875q0.921875 0.46875 1.4375 1.421875q0.53125 0.953125 0.53125 2.40625l0 5.6875l-1.78125 0l0 -5.484375q0 -1.4375 -0.703125 -2.15625q-0.703125 -0.734375 -1.96875 -0.734375q-0.953125 0 -1.671875 0.375q-0.703125 0.375 -1.09375 1.109375q-0.375 0.71875 -0.375 1.796875l0 5.09375l-1.78125 0zm17.0018 0.109375q-1.5 0 -2.6875 -0.640625q-1.1875 -0.65625 -1.859375 -1.796875q-0.671875 -1.140625 -0.671875 -2.609375q0 -1.484375 0.671875 -2.609375q0.671875 -1.140625 1.859375 -1.78125q1.1875 -0.65625 2.6875 -0.65625q1.34375 0 2.390625 0.53125q1.0625 0.53125 1.640625 1.578125l-1.359375 0.875q-0.484375 -0.71875 -1.1875 -1.0625q-0.6875 -0.34375 -1.5 -0.34375q-0.96875 0 -1.734375 0.421875q-0.765625 0.421875 -1.21875 1.203125q-0.4375 0.78125 -0.4375 1.84375q0 1.0625 0.4375 1.84375q0.453125 0.78125 1.21875 1.21875q0.765625 0.421875 1.734375 0.421875q0.8125 0 1.5 -0.34375q0.703125 -0.34375 1.1875 -1.078125l1.359375 0.859375q-0.578125 1.03125 -1.640625 1.578125q-1.046875 0.546875 -2.390625 0.546875zm6.740387 3.625q-0.703125 0 -1.375 -0.234375q-0.671875 -0.234375 -1.15625 -0.6875l0.765625 -1.34375q0.375 0.359375 0.8125 0.546875q0.453125 0.1875 0.953125 0.1875q0.65625 0 1.078125 -0.34375q0.4375 -0.328125 0.8125 -1.1875l0.609375 -1.359375l0.1875 -0.234375l3.875 -8.96875l1.765625 0l-4.796875 10.875q-0.4375 1.046875 -0.96875 1.640625q-0.53125 0.609375 -1.171875 0.859375q-0.625 0.25 -1.390625 0.25zm2.359375 -3.421875l-4.515625 -10.203125l1.859375 0l3.84375 8.8125l-1.1875 1.390625z" fill-rule="nonzero"/><path fill="#b7b7b7" d="m365.64047 219.81764l0 -13.0625l5.09375 0q2.546875 0 4.0 1.203125q1.453125 1.203125 1.453125 3.359375q0 1.40625 -0.65625 2.421875q-0.65625 1.015625 -1.875 1.5625q-1.203125 0.546875 -2.921875 0.546875l-4.0625 0l0.84375 -0.859375l0 4.828125l-1.875 0zm8.734375 0l-3.3125 -4.734375l1.984375 0l3.359375 4.734375l-2.03125 0zm-6.859375 -4.640625l-0.84375 -0.921875l4.015625 0q1.78125 0 2.703125 -0.765625q0.9375 -0.78125 0.9375 -2.171875q0 -1.40625 -0.9375 -2.171875q-0.921875 -0.765625 -2.703125 -0.765625l-4.015625 0l0.84375 -0.9375l0 7.734375zm11.43808 4.640625l0 -9.890625l1.78125 0l0 9.890625l-1.78125 0zm0.890625 -11.796875q-0.515625 0 -0.859375 -0.328125q-0.34375 -0.34375 -0.34375 -0.828125q0 -0.5 0.34375 -0.828125q0.34375 -0.34375 0.859375 -0.34375q0.53125 0 0.875 0.328125q0.34375 0.328125 0.34375 0.8125q0 0.5 -0.34375 0.84375q-0.328125 0.34375 -0.875 0.34375zm7.1426086 11.90625q-1.234375 0 -2.34375 -0.328125q-1.109375 -0.34375 -1.734375 -0.828125l0.734375 -1.421875q0.640625 0.4375 1.5625 0.734375q0.9375 0.296875 1.921875 0.296875q1.234375 0 1.78125 -0.34375q0.5625 -0.359375 0.5625 -1.0q0 -0.46875 -0.34375 -0.71875q-0.328125 -0.265625 -0.875 -0.390625q-0.546875 -0.140625 -1.21875 -0.234375q-0.671875 -0.109375 -1.34375 -0.265625q-0.671875 -0.15625 -1.234375 -0.4375q-0.5625 -0.296875 -0.90625 -0.8125q-0.328125 -0.515625 -0.328125 -1.375q0 -0.890625 0.5 -1.5625q0.5 -0.671875 1.421875 -1.03125q0.9375 -0.375 2.203125 -0.375q0.96875 0 1.96875 0.234375q1.0 0.234375 1.625 0.671875l-0.765625 1.40625q-0.671875 -0.4375 -1.40625 -0.609375q-0.71875 -0.171875 -1.4375 -0.171875q-1.1875 0 -1.765625 0.390625q-0.578125 0.375 -0.578125 0.96875q0 0.515625 0.34375 0.78125q0.359375 0.265625 0.90625 0.421875q0.546875 0.140625 1.21875 0.25q0.671875 0.09375 1.34375 0.265625q0.671875 0.15625 1.21875 0.4375q0.546875 0.265625 0.890625 0.78125q0.359375 0.5 0.359375 1.34375q0 0.890625 -0.53125 1.546875q-0.515625 0.65625 -1.46875 1.015625q-0.953125 0.359375 -2.28125 0.359375zm7.9717712 -2.5l0.03125 -2.296875l5.6875 -5.203125l2.171875 0l-4.375 4.296875l-0.96875 0.8125l-2.546875 2.390625zm-1.453125 2.390625l0 -13.84375l1.78125 0l0 13.84375l-1.78125 0zm7.546875 0l-3.875 -4.8125l1.15625 -1.4375l4.921875 6.25l-2.203125 0z" fill-rule="nonzero"/><path fill="#000000" fill-opacity="0.0" d="m450.23358 383.8832l0 0c0 -69.71835 56.539032 -126.23624 126.28351 -126.23624l0 0c33.49243 0 65.6131 13.299866 89.29584 36.973755c23.6828 23.673859 36.98761 55.782562 36.98761 89.26248l0 0c0 69.71832 -56.539062 126.236206 -126.28345 126.236206l0 0c-69.74448 0 -126.28351 -56.517883 -126.28351 -126.236206z" fill-rule="evenodd"/><path stroke="#b7b7b7" stroke-width="2.0" stroke-linejoin="round" stroke-linecap="butt" stroke-dasharray="8.0,6.0" d="m450.23358 383.8832l0 0c0 -69.71835 56.539032 -126.23624 126.28351 -126.23624l0 0c33.49243 0 65.6131 13.299866 89.29584 36.973755c23.6828 23.673859 36.98761 55.782562 36.98761 89.26248l0 0c0 69.71832 -56.539062 126.236206 -126.28345 126.236206l0 0c-69.74448 0 -126.28351 -56.517883 -126.28351 -126.236206z" fill-rule="evenodd"/><path fill="#b7b7b7" d="m532.3335 379.8032l0 -13.0625l5.09375 0q2.546875 0 4.0 1.203125q1.453125 1.203125 1.453125 3.359375q0 1.40625 -0.65625 2.421875q-0.65625 1.015625 -1.875 1.5625q-1.203125 0.546875 -2.921875 0.546875l-4.0625 0l0.84375 -0.859375l0 4.828125l-1.875 0zm8.734375 0l-3.3125 -4.734375l1.984375 0l3.359375 4.734375l-2.03125 0zm-6.859375 -4.640625l-0.84375 -0.921875l4.015625 0q1.78125 0 2.703125 -0.765625q0.9375 -0.78125 0.9375 -2.171875q0 -1.40625 -0.9375 -2.171875q-0.921875 -0.765625 -2.703125 -0.765625l-4.015625 0l0.84375 -0.9375l0 7.734375zm15.828674 4.75q-1.578125 0 -2.78125 -0.640625q-1.203125 -0.65625 -1.875 -1.796875q-0.65625 -1.140625 -0.65625 -2.609375q0 -1.484375 0.640625 -2.609375q0.65625 -1.140625 1.78125 -1.78125q1.125 -0.65625 2.546875 -0.65625q1.4375 0 2.53125 0.640625q1.109375 0.625 1.734375 1.78125q0.625 1.140625 0.625 2.671875q0 0.109375 -0.015625 0.265625q-0.015625 0.140625 -0.03125 0.28125l-8.40625 0l0 -1.296875l7.46875 0l-0.71875 0.453125q0.015625 -0.953125 -0.390625 -1.6875q-0.40625 -0.75 -1.125 -1.171875q-0.71875 -0.421875 -1.671875 -0.421875q-0.9375 0 -1.671875 0.421875q-0.71875 0.421875 -1.140625 1.171875q-0.40625 0.75 -0.40625 1.71875l0 0.3125q0 0.984375 0.453125 1.765625q0.46875 0.765625 1.28125 1.203125q0.828125 0.421875 1.890625 0.421875q0.875 0 1.59375 -0.296875q0.71875 -0.296875 1.265625 -0.90625l0.984375 1.15625q-0.671875 0.796875 -1.671875 1.203125q-1.0 0.40625 -2.234375 0.40625zm7.0270386 -0.109375l0 -13.84375l1.78125 0l0 13.84375l-1.78125 0zm5.205078 0l0 -9.890625l1.78125 0l0 9.890625l-1.78125 0zm0.890625 -11.796875q-0.515625 0 -0.859375 -0.328125q-0.34375 -0.34375 -0.34375 -0.828125q0 -0.5 0.34375 -0.828125q0.34375 -0.34375 0.859375 -0.34375q0.53125 0 0.875 0.328125q0.34375 0.328125 0.34375 0.8125q0 0.5 -0.34375 0.84375q-0.328125 0.34375 -0.875 0.34375zm10.439453 11.796875l0 -2.09375l-0.078125 -0.390625l0 -3.5625q0 -1.140625 -0.671875 -1.765625q-0.65625 -0.625 -1.984375 -0.625q-0.875 0 -1.71875 0.296875q-0.84375 0.28125 -1.421875 0.765625l-0.734375 -1.34375q0.765625 -0.609375 1.828125 -0.9375q1.078125 -0.328125 2.25 -0.328125q2.03125 0 3.125 1.0q1.109375 0.984375 1.109375 3.015625l0 5.96875l-1.703125 0zm-3.234375 0.109375q-1.109375 0 -1.9375 -0.375q-0.828125 -0.375 -1.28125 -1.03125q-0.4375 -0.65625 -0.4375 -1.5q0 -0.796875 0.375 -1.453125q0.390625 -0.65625 1.25 -1.046875q0.875 -0.390625 2.34375 -0.390625l3.140625 0l0 1.28125l-3.0625 0q-1.34375 0 -1.8125 0.453125q-0.46875 0.453125 -0.46875 1.078125q0 0.734375 0.578125 1.171875q0.578125 0.4375 1.609375 0.4375q1.0 0 1.75 -0.453125q0.765625 -0.453125 1.109375 -1.296875l0.34375 1.21875q-0.34375 0.875 -1.25 1.390625q-0.890625 0.515625 -2.25 0.515625zm13.500183 0q-1.265625 0 -2.28125 -0.5625q-1.015625 -0.578125 -1.609375 -1.6875q-0.578125 -1.125 -0.578125 -2.796875q0 -1.6875 0.59375 -2.796875q0.609375 -1.125 1.625 -1.6875q1.015625 -0.5625 2.25 -0.5625q1.453125 0 2.578125 0.640625q1.125 0.625 1.765625 1.765625q0.65625 1.125 0.65625 2.640625q0 1.5 -0.65625 2.640625q-0.640625 1.140625 -1.765625 1.78125q-1.125 0.625 -2.578125 0.625zm-5.234375 -0.109375l0 -13.84375l1.78125 0l0 6.59375l-0.1875 2.28125l0.125 2.296875l0 2.671875l-1.71875 0zm5.09375 -1.453125q0.953125 0 1.703125 -0.421875q0.75 -0.4375 1.1875 -1.234375q0.4375 -0.796875 0.4375 -1.828125q0 -1.0625 -0.4375 -1.84375q-0.4375 -0.78125 -1.1875 -1.203125q-0.75 -0.421875 -1.703125 -0.421875q-0.9375 0 -1.703125 0.421875q-0.75 0.421875 -1.1875 1.203125q-0.4375 0.78125 -0.4375 1.84375q0 1.03125 0.4375 1.828125q0.4375 0.796875 1.1875 1.234375q0.765625 0.421875 1.703125 0.421875zm7.629822 1.453125l0 -9.890625l1.78125 0l0 9.890625l-1.78125 0zm0.890625 -11.796875q-0.515625 0 -0.859375 -0.328125q-0.34375 -0.34375 -0.34375 -0.828125q0 -0.5 0.34375 -0.828125q0.34375 -0.34375 0.859375 -0.34375q0.53125 0 0.875 0.328125q0.34375 0.328125 0.34375 0.8125q0 0.5 -0.34375 0.84375q-0.328125 0.34375 -0.875 0.34375zm4.314514 11.796875l0 -13.84375l1.78125 0l0 13.84375l-1.78125 0zm5.205078 0l0 -9.890625l1.78125 0l0 9.890625l-1.78125 0zm0.890625 -11.796875q-0.515625 0 -0.859375 -0.328125q-0.34375 -0.34375 -0.34375 -0.828125q0 -0.5 0.34375 -0.828125q0.34375 -0.34375 0.859375 -0.34375q0.53125 0 0.875 0.328125q0.34375 0.328125 0.34375 0.8125q0 0.5 -0.34375 0.84375q-0.328125 0.34375 -0.875 0.34375zm7.649109 11.90625q-1.5 0 -2.328125 -0.796875q-0.8125 -0.8125 -0.8125 -2.296875l0 -9.0625l1.796875 0l0 8.984375q0 0.8125 0.390625 1.234375q0.40625 0.421875 1.15625 0.421875q0.84375 0 1.40625 -0.453125l0.546875 1.28125q-0.40625 0.359375 -0.984375 0.53125q-0.5625 0.15625 -1.171875 0.15625zm-4.8125 -8.515625l0 -1.484375l6.296875 0l0 1.484375l-6.296875 0zm8.858093 12.140625q-0.703125 0 -1.375 -0.234375q-0.671875 -0.234375 -1.15625 -0.6875l0.765625 -1.34375q0.375 0.359375 0.8125 0.546875q0.453125 0.1875 0.953125 0.1875q0.65625 0 1.078125 -0.34375q0.4375 -0.328125 0.8125 -1.1875l0.609375 -1.359375l0.1875 -0.234375l3.875 -8.96875l1.765625 0l-4.796875 10.875q-0.4375 1.046875 -0.96875 1.640625q-0.53125 0.609375 -1.171875 0.859375q-0.625 0.25 -1.390625 0.25zm2.359375 -3.421875l-4.515625 -10.203125l1.859375 0l3.84375 8.8125l-1.1875 1.390625z" fill-rule="nonzero"/><path fill="#b7b7b7" d="m558.6759 401.8032l0 -13.0625l5.09375 0q2.546875 0 4.0 1.203125q1.453125 1.203125 1.453125 3.359375q0 1.40625 -0.65625 2.421875q-0.65625 1.015625 -1.875 1.5625q-1.203125 0.546875 -2.921875 0.546875l-4.0625 0l0.84375 -0.859375l0 4.828125l-1.875 0zm8.734375 0l-3.3125 -4.734375l1.984375 0l3.359375 4.734375l-2.03125 0zm-6.859375 -4.640625l-0.84375 -0.921875l4.015625 0q1.78125 0 2.703125 -0.765625q0.9375 -0.78125 0.9375 -2.171875q0 -1.40625 -0.9375 -2.171875q-0.921875 -0.765625 -2.703125 -0.765625l-4.015625 0l0.84375 -0.9375l0 7.734375zm11.43811 4.640625l0 -9.890625l1.78125 0l0 9.890625l-1.78125 0zm0.890625 -11.796875q-0.515625 0 -0.859375 -0.328125q-0.34375 -0.34375 -0.34375 -0.828125q0 -0.5 0.34375 -0.828125q0.34375 -0.34375 0.859375 -0.34375q0.53125 0 0.875 0.328125q0.34375 0.328125 0.34375 0.8125q0 0.5 -0.34375 0.84375q-0.328125 0.34375 -0.875 0.34375zm7.142578 11.90625q-1.234375 0 -2.34375 -0.328125q-1.109375 -0.34375 -1.734375 -0.828125l0.734375 -1.421875q0.640625 0.4375 1.5625 0.734375q0.9375 0.296875 1.921875 0.296875q1.234375 0 1.78125 -0.34375q0.5625 -0.359375 0.5625 -1.0q0 -0.46875 -0.34375 -0.71875q-0.328125 -0.265625 -0.875 -0.390625q-0.546875 -0.140625 -1.21875 -0.234375q-0.671875 -0.109375 -1.34375 -0.265625q-0.671875 -0.15625 -1.234375 -0.4375q-0.5625 -0.296875 -0.90625 -0.8125q-0.328125 -0.515625 -0.328125 -1.375q0 -0.890625 0.5 -1.5625q0.5 -0.671875 1.421875 -1.03125q0.9375 -0.375 2.203125 -0.375q0.96875 0 1.96875 0.234375q1.0 0.234375 1.625 0.671875l-0.765625 1.40625q-0.671875 -0.4375 -1.40625 -0.609375q-0.71875 -0.171875 -1.4375 -0.171875q-1.1875 0 -1.765625 0.390625q-0.578125 0.375 -0.578125 0.96875q0 0.515625 0.34375 0.78125q0.359375 0.265625 0.90625 0.421875q0.546875 0.140625 1.21875 0.25q0.671875 0.09375 1.34375 0.265625q0.671875 0.15625 1.21875 0.4375q0.546875 0.265625 0.890625 0.78125q0.359375 0.5 0.359375 1.34375q0 0.890625 -0.53125 1.546875q-0.515625 0.65625 -1.46875 1.015625q-0.953125 0.359375 -2.28125 0.359375zm7.9718018 -2.5l0.03125 -2.296875l5.6875 -5.203125l2.171875 0l-4.375 4.296875l-0.96875 0.8125l-2.546875 2.390625zm-1.453125 2.390625l0 -13.84375l1.78125 0l0 13.84375l-1.78125 0zm7.546875 0l-3.875 -4.8125l1.15625 -1.4375l4.921875 6.25l-2.203125 0z" fill-rule="nonzero"/><path fill="#000000" fill-opacity="0.0" d="m65.198166 383.8832l0 0c0 -69.71835 56.539032 -126.23624 126.28346 -126.23624l0 0c33.492462 0 65.61316 13.299866 89.2959 36.973755c23.68274 23.673859 36.98758 55.782562 36.98758 89.26248l0 0c0 69.71832 -56.539062 126.236206 -126.28348 126.236206l0 0c-69.74443 0 -126.28346 -56.517883 -126.28346 -126.236206z" fill-rule="evenodd"/><path stroke="#b7b7b7" stroke-width="2.0" stroke-linejoin="round" stroke-linecap="butt" stroke-dasharray="8.0,6.0" d="m65.198166 383.8832l0 0c0 -69.71835 56.539032 -126.23624 126.28346 -126.23624l0 0c33.492462 0 65.61316 13.299866 89.2959 36.973755c23.68274 23.673859 36.98758 55.782562 36.98758 89.26248l0 0c0 69.71832 -56.539062 126.236206 -126.28348 126.236206l0 0c-69.74443 0 -126.28346 -56.517883 -126.28346 -126.236206z" fill-rule="evenodd"/><path fill="#b7b7b7" d="m122.27491 379.95944q-1.484375 0 -2.75 -0.5q-1.265625 -0.5 -2.1875 -1.40625q-0.921875 -0.90625 -1.453125 -2.109375q-0.515625 -1.21875 -0.515625 -2.671875q0 -1.453125 0.515625 -2.65625q0.53125 -1.21875 1.46875 -2.125q0.9375 -0.90625 2.1875 -1.390625q1.265625 -0.5 2.75 -0.5q1.515625 0 2.796875 0.515625q1.28125 0.5 2.171875 1.515625l-1.21875 1.171875q-0.734375 -0.78125 -1.671875 -1.15625q-0.9375 -0.390625 -2.0 -0.390625q-1.09375 0 -2.046875 0.375q-0.9375 0.375 -1.625 1.046875q-0.6875 0.671875 -1.078125 1.59375q-0.375 0.921875 -0.375 2.0q0 1.078125 0.375 2.015625q0.390625 0.921875 1.078125 1.59375q0.6875 0.671875 1.625 1.046875q0.953125 0.359375 2.046875 0.359375q1.0625 0 2.0 -0.375q0.9375 -0.390625 1.671875 -1.1875l1.21875 1.171875q-0.890625 1.015625 -2.171875 1.546875q-1.28125 0.515625 -2.8125 0.515625zm11.031883 -0.046875q-1.5 0 -2.65625 -0.640625q-1.15625 -0.65625 -1.828125 -1.796875q-0.671875 -1.15625 -0.671875 -2.609375q0 -1.484375 0.671875 -2.609375q0.671875 -1.140625 1.828125 -1.78125q1.15625 -0.65625 2.65625 -0.65625q1.46875 0 2.625 0.65625q1.171875 0.640625 1.828125 1.765625q0.671875 1.125 0.671875 2.625q0 1.46875 -0.671875 2.609375q-0.65625 1.140625 -1.828125 1.796875q-1.15625 0.640625 -2.625 0.640625zm0 -1.5625q0.953125 0 1.703125 -0.421875q0.75 -0.4375 1.171875 -1.234375q0.4375 -0.796875 0.4375 -1.828125q0 -1.0625 -0.4375 -1.84375q-0.421875 -0.78125 -1.171875 -1.203125q-0.75 -0.421875 -1.703125 -0.421875q-0.953125 0 -1.703125 0.421875q-0.75 0.421875 -1.203125 1.203125q-0.4375 0.78125 -0.4375 1.84375q0 1.03125 0.4375 1.828125q0.453125 0.796875 1.203125 1.234375q0.75 0.421875 1.703125 0.421875zm7.6123505 1.453125l0 -9.890625l1.71875 0l0 2.640625l-0.28125 -0.671875q0.453125 -0.984375 1.421875 -1.515625q0.984375 -0.546875 2.265625 -0.546875q1.421875 0 2.4375 0.703125q1.03125 0.703125 1.34375 2.125l-0.71875 -0.3125q0.4375 -1.125 1.5625 -1.8125q1.125 -0.703125 2.609375 -0.703125q1.203125 0 2.109375 0.46875q0.921875 0.46875 1.421875 1.421875q0.515625 0.953125 0.515625 2.40625l0 5.6875l-1.78125 0l0 -5.484375q0 -1.4375 -0.671875 -2.15625q-0.671875 -0.734375 -1.890625 -0.734375q-0.890625 0 -1.5625 0.375q-0.671875 0.375 -1.046875 1.109375q-0.359375 0.71875 -0.359375 1.796875l0 5.09375l-1.78125 0l0 -5.484375q0 -1.4375 -0.671875 -2.15625q-0.65625 -0.734375 -1.890625 -0.734375q-0.875 0 -1.546875 0.375q-0.671875 0.375 -1.046875 1.109375q-0.375 0.71875 -0.375 1.796875l0 5.09375l-1.78125 0zm19.719666 0l0 -9.890625l1.71875 0l0 2.640625l-0.28125 -0.671875q0.453125 -0.984375 1.421875 -1.515625q0.984375 -0.546875 2.265625 -0.546875q1.421875 0 2.4375 0.703125q1.03125 0.703125 1.34375 2.125l-0.71875 -0.3125q0.4375 -1.125 1.5625 -1.8125q1.125 -0.703125 2.609375 -0.703125q1.203125 0 2.109375 0.46875q0.921875 0.46875 1.421875 1.421875q0.515625 0.953125 0.515625 2.40625l0 5.6875l-1.78125 0l0 -5.484375q0 -1.4375 -0.671875 -2.15625q-0.671875 -0.734375 -1.890625 -0.734375q-0.890625 0 -1.5625 0.375q-0.671875 0.375 -1.046875 1.109375q-0.359375 0.71875 -0.359375 1.796875l0 5.09375l-1.78125 0l0 -5.484375q0 -1.4375 -0.671875 -2.15625q-0.65625 -0.734375 -1.890625 -0.734375q-0.875 0 -1.546875 0.375q-0.671875 0.375 -1.046875 1.109375q-0.375 0.71875 -0.375 1.796875l0 5.09375l-1.78125 0zm23.875916 0.109375q-1.265625 0 -2.234375 -0.46875q-0.953125 -0.46875 -1.484375 -1.421875q-0.53125 -0.96875 -0.53125 -2.421875l0 -5.6875l1.78125 0l0 5.484375q0 1.453125 0.703125 2.1875q0.703125 0.71875 1.96875 0.71875q0.9375 0 1.625 -0.375q0.6875 -0.375 1.0625 -1.109375q0.375 -0.75 0.375 -1.796875l0 -5.109375l1.78125 0l0 9.890625l-1.6875 0l0 -2.671875l0.28125 0.71875q-0.484375 0.984375 -1.453125 1.53125q-0.96875 0.53125 -2.1875 0.53125zm8.47403 -0.109375l0 -9.890625l1.71875 0l0 2.671875l-0.28125 -0.703125q0.484375 -0.984375 1.484375 -1.515625q1.015625 -0.546875 2.359375 -0.546875q1.203125 0 2.125 0.46875q0.921875 0.46875 1.4375 1.421875q0.53125 0.953125 0.53125 2.40625l0 5.6875l-1.78125 0l0 -5.484375q0 -1.4375 -0.703125 -2.15625q-0.703125 -0.734375 -1.96875 -0.734375q-0.953125 0 -1.671875 0.375q-0.703125 0.375 -1.09375 1.109375q-0.375 0.71875 -0.375 1.796875l0 5.09375l-1.78125 0zm12.70491 0l0 -9.890625l1.78125 0l0 9.890625l-1.78125 0zm0.890625 -11.796875q-0.515625 0 -0.859375 -0.328125q-0.34375 -0.34375 -0.34375 -0.828125q0 -0.5 0.34375 -0.828125q0.34375 -0.34375 0.859375 -0.34375q0.53125 0 0.875 0.328125q0.34375 0.328125 0.34375 0.8125q0 0.5 -0.34375 0.84375q-0.328125 0.34375 -0.875 0.34375zm8.611343 11.90625q-1.5 0 -2.6875 -0.640625q-1.1875 -0.65625 -1.859375 -1.796875q-0.671875 -1.140625 -0.671875 -2.609375q0 -1.484375 0.671875 -2.609375q0.671875 -1.140625 1.859375 -1.78125q1.1875 -0.65625 2.6875 -0.65625q1.34375 0 2.390625 0.53125q1.0625 0.53125 1.640625 1.578125l-1.359375 0.875q-0.484375 -0.71875 -1.1875 -1.0625q-0.6875 -0.34375 -1.5 -0.34375q-0.96875 0 -1.734375 0.421875q-0.765625 0.421875 -1.21875 1.203125q-0.4375 0.78125 -0.4375 1.84375q0 1.0625 0.4375 1.84375q0.453125 0.78125 1.21875 1.21875q0.765625 0.421875 1.734375 0.421875q0.8125 0 1.5 -0.34375q0.703125 -0.34375 1.1875 -1.078125l1.359375 0.859375q-0.578125 1.03125 -1.640625 1.578125q-1.046875 0.546875 -2.390625 0.546875zm12.48085 -0.109375l0 -2.09375l-0.078125 -0.390625l0 -3.5625q0 -1.140625 -0.671875 -1.765625q-0.65625 -0.625 -1.984375 -0.625q-0.875 0 -1.71875 0.296875q-0.84375 0.28125 -1.421875 0.765625l-0.734375 -1.34375q0.765625 -0.609375 1.828125 -0.9375q1.078125 -0.328125 2.25 -0.328125q2.03125 0 3.125 1.0q1.109375 0.984375 1.109375 3.015625l0 5.96875l-1.703125 0zm-3.234375 0.109375q-1.109375 0 -1.9375 -0.375q-0.828125 -0.375 -1.28125 -1.03125q-0.4375 -0.65625 -0.4375 -1.5q0 -0.796875 0.375 -1.453125q0.390625 -0.65625 1.25 -1.046875q0.875 -0.390625 2.34375 -0.390625l3.140625 0l0 1.28125l-3.0625 0q-1.34375 0 -1.8125 0.453125q-0.46875 0.453125 -0.46875 1.078125q0 0.734375 0.578125 1.171875q0.578125 0.4375 1.609375 0.4375q1.0 0 1.75 -0.453125q0.765625 -0.453125 1.109375 -1.296875l0.34375 1.21875q-0.34375 0.875 -1.25 1.390625q-0.890625 0.515625 -2.25 0.515625zm11.656433 0q-1.5 0 -2.328125 -0.796875q-0.8125 -0.8125 -0.8125 -2.296875l0 -9.0625l1.796875 0l0 8.984375q0 0.8125 0.390625 1.234375q0.40625 0.421875 1.15625 0.421875q0.84375 0 1.40625 -0.453125l0.546875 1.28125q-0.40625 0.359375 -0.984375 0.53125q-0.5625 0.15625 -1.171875 0.15625zm-4.8125 -8.515625l0 -1.484375l6.296875 0l0 1.484375l-6.296875 0zm9.145569 8.40625l0 -9.890625l1.78125 0l0 9.890625l-1.78125 0zm0.890625 -11.796875q-0.515625 0 -0.859375 -0.328125q-0.34375 -0.34375 -0.34375 -0.828125q0 -0.5 0.34375 -0.828125q0.34375 -0.34375 0.859375 -0.34375q0.53125 0 0.875 0.328125q0.34375 0.328125 0.34375 0.8125q0 0.5 -0.34375 0.84375q-0.328125 0.34375 -0.875 0.34375zm8.548828 11.90625q-1.5 0 -2.65625 -0.640625q-1.15625 -0.65625 -1.828125 -1.796875q-0.671875 -1.15625 -0.671875 -2.609375q0 -1.484375 0.671875 -2.609375q0.671875 -1.140625 1.828125 -1.78125q1.15625 -0.65625 2.65625 -0.65625q1.46875 0 2.625 0.65625q1.171875 0.640625 1.828125 1.765625q0.671875 1.125 0.671875 2.625q0 1.46875 -0.671875 2.609375q-0.65625 1.140625 -1.828125 1.796875q-1.15625 0.640625 -2.625 0.640625zm0 -1.5625q0.953125 0 1.703125 -0.421875q0.75 -0.4375 1.171875 -1.234375q0.4375 -0.796875 0.4375 -1.828125q0 -1.0625 -0.4375 -1.84375q-0.421875 -0.78125 -1.171875 -1.203125q-0.75 -0.421875 -1.703125 -0.421875q-0.953125 0 -1.703125 0.421875q-0.75 0.421875 -1.203125 1.203125q-0.4375 0.78125 -0.4375 1.84375q0 1.03125 0.4375 1.828125q0.453125 0.796875 1.203125 1.234375q0.75 0.421875 1.703125 0.421875zm7.6123657 1.453125l0 -9.890625l1.71875 0l0 2.671875l-0.28125 -0.703125q0.484375 -0.984375 1.484375 -1.515625q1.015625 -0.546875 2.359375 -0.546875q1.203125 0 2.125 0.46875q0.921875 0.46875 1.4375 1.421875q0.53125 0.953125 0.53125 2.40625l0 5.6875l-1.78125 0l0 -5.484375q0 -1.4375 -0.703125 -2.15625q-0.703125 -0.734375 -1.96875 -0.734375q-0.953125 0 -1.671875 0.375q-0.703125 0.375 -1.09375 1.109375q-0.375 0.71875 -0.375 1.796875l0 5.09375l-1.78125 0z" fill-rule="nonzero"/><path fill="#b7b7b7" d="m173.64046 401.8032l0 -13.0625l5.09375 0q2.546875 0 4.0 1.203125q1.453125 1.203125 1.453125 3.359375q0 1.40625 -0.65625 2.421875q-0.65625 1.015625 -1.875 1.5625q-1.203125 0.546875 -2.921875 0.546875l-4.0625 0l0.84375 -0.859375l0 4.828125l-1.875 0zm8.734375 0l-3.3125 -4.734375l1.984375 0l3.359375 4.734375l-2.03125 0zm-6.859375 -4.640625l-0.84375 -0.921875l4.015625 0q1.78125 0 2.703125 -0.765625q0.9375 -0.78125 0.9375 -2.171875q0 -1.40625 -0.9375 -2.171875q-0.921875 -0.765625 -2.703125 -0.765625l-4.015625 0l0.84375 -0.9375l0 7.734375zm11.438095 4.640625l0 -9.890625l1.78125 0l0 9.890625l-1.78125 0zm0.890625 -11.796875q-0.515625 0 -0.859375 -0.328125q-0.34375 -0.34375 -0.34375 -0.828125q0 -0.5 0.34375 -0.828125q0.34375 -0.34375 0.859375 -0.34375q0.53125 0 0.875 0.328125q0.34375 0.328125 0.34375 0.8125q0 0.5 -0.34375 0.84375q-0.328125 0.34375 -0.875 0.34375zm7.1425934 11.90625q-1.234375 0 -2.34375 -0.328125q-1.109375 -0.34375 -1.734375 -0.828125l0.734375 -1.421875q0.640625 0.4375 1.5625 0.734375q0.9375 0.296875 1.921875 0.296875q1.234375 0 1.78125 -0.34375q0.5625 -0.359375 0.5625 -1.0q0 -0.46875 -0.34375 -0.71875q-0.328125 -0.265625 -0.875 -0.390625q-0.546875 -0.140625 -1.21875 -0.234375q-0.671875 -0.109375 -1.34375 -0.265625q-0.671875 -0.15625 -1.234375 -0.4375q-0.5625 -0.296875 -0.90625 -0.8125q-0.328125 -0.515625 -0.328125 -1.375q0 -0.890625 0.5 -1.5625q0.5 -0.671875 1.421875 -1.03125q0.9375 -0.375 2.203125 -0.375q0.96875 0 1.96875 0.234375q1.0 0.234375 1.625 0.671875l-0.765625 1.40625q-0.671875 -0.4375 -1.40625 -0.609375q-0.71875 -0.171875 -1.4375 -0.171875q-1.1875 0 -1.765625 0.390625q-0.578125 0.375 -0.578125 0.96875q0 0.515625 0.34375 0.78125q0.359375 0.265625 0.90625 0.421875q0.546875 0.140625 1.21875 0.25q0.671875 0.09375 1.34375 0.265625q0.671875 0.15625 1.21875 0.4375q0.546875 0.265625 0.890625 0.78125q0.359375 0.5 0.359375 1.34375q0 0.890625 -0.53125 1.546875q-0.515625 0.65625 -1.46875 1.015625q-0.953125 0.359375 -2.28125 0.359375zm7.9717865 -2.5l0.03125 -2.296875l5.6875 -5.203125l2.171875 0l-4.375 4.296875l-0.96875 0.8125l-2.546875 2.390625zm-1.453125 2.390625l0 -13.84375l1.78125 0l0 13.84375l-1.78125 0zm7.546875 0l-3.875 -4.8125l1.15625 -1.4375l4.921875 6.25l-2.203125 0z" fill-rule="nonzero"/><path fill="#000000" fill-opacity="0.0" d="m642.2336 201.89764l0 0c0 -69.71835 56.539062 -126.23623 126.28351 -126.23623l0 0c33.49243 0 65.6131 13.29985 89.29584 36.973732c23.6828 23.67389 36.98761 55.782562 36.98761 89.2625l0 0c0 69.71832 -56.539062 126.236206 -126.28345 126.236206l0 0c-69.744446 0 -126.28351 -56.517883 -126.28351 -126.236206z" fill-rule="evenodd"/><path stroke="#b7b7b7" stroke-width="2.0" stroke-linejoin="round" stroke-linecap="butt" stroke-dasharray="8.0,6.0" d="m642.2336 201.89764l0 0c0 -69.71835 56.539062 -126.23623 126.28351 -126.23623l0 0c33.49243 0 65.6131 13.29985 89.29584 36.973732c23.6828 23.67389 36.98761 55.782562 36.98761 89.2625l0 0c0 69.71832 -56.539062 126.236206 -126.28345 126.236206l0 0c-69.744446 0 -126.28351 -56.517883 -126.28351 -126.236206z" fill-rule="evenodd"/><path fill="#b7b7b7" d="m737.3156 197.97389q-1.5 0 -2.859375 -0.453125q-1.359375 -0.46875 -2.140625 -1.203125l0.6875 -1.453125q0.75 0.65625 1.90625 1.09375q1.15625 0.421875 2.40625 0.421875q1.140625 0 1.84375 -0.25q0.71875 -0.265625 1.046875 -0.71875q0.34375 -0.46875 0.34375 -1.046875q0 -0.671875 -0.453125 -1.078125q-0.4375 -0.40625 -1.140625 -0.65625q-0.6875 -0.265625 -1.53125 -0.453125q-0.84375 -0.1875 -1.6875 -0.4375q-0.84375 -0.25 -1.546875 -0.640625q-0.703125 -0.390625 -1.140625 -1.046875q-0.421875 -0.671875 -0.421875 -1.71875q0 -1.0 0.53125 -1.84375q0.53125 -0.859375 1.640625 -1.359375q1.109375 -0.515625 2.828125 -0.515625q1.140625 0 2.25 0.296875q1.125 0.296875 1.953125 0.859375l-0.625 1.484375q-0.828125 -0.5625 -1.765625 -0.8125q-0.9375 -0.25 -1.8125 -0.25q-1.09375 0 -1.8125 0.28125q-0.703125 0.28125 -1.03125 0.75q-0.328125 0.46875 -0.328125 1.046875q0 0.6875 0.4375 1.09375q0.4375 0.40625 1.140625 0.65625q0.703125 0.234375 1.53125 0.4375q0.84375 0.203125 1.6875 0.453125q0.859375 0.234375 1.5625 0.625q0.703125 0.390625 1.125 1.046875q0.4375 0.640625 0.4375 1.671875q0 0.984375 -0.546875 1.84375q-0.546875 0.84375 -1.671875 1.359375q-1.125 0.515625 -2.84375 0.515625zm11.819946 -0.046875q-1.5 0 -2.6875 -0.640625q-1.1875 -0.65625 -1.859375 -1.796875q-0.671875 -1.140625 -0.671875 -2.609375q0 -1.484375 0.671875 -2.609375q0.671875 -1.140625 1.859375 -1.78125q1.1875 -0.65625 2.6875 -0.65625q1.34375 0 2.390625 0.53125q1.0625 0.53125 1.640625 1.578125l-1.359375 0.875q-0.484375 -0.71875 -1.1875 -1.0625q-0.6875 -0.34375 -1.5 -0.34375q-0.96875 0 -1.734375 0.421875q-0.765625 0.421875 -1.21875 1.203125q-0.4375 0.78125 -0.4375 1.84375q0 1.0625 0.4375 1.84375q0.453125 0.78125 1.21875 1.21875q0.765625 0.421875 1.734375 0.421875q0.8125 0 1.5 -0.34375q0.703125 -0.34375 1.1875 -1.078125l1.359375 0.859375q-0.578125 1.03125 -1.640625 1.578125q-1.046875 0.546875 -2.390625 0.546875zm12.480835 -0.109375l0 -2.09375l-0.078125 -0.390625l0 -3.5625q0 -1.140625 -0.671875 -1.765625q-0.65625 -0.625 -1.984375 -0.625q-0.875 0 -1.71875 0.296875q-0.84375 0.28125 -1.421875 0.765625l-0.734375 -1.34375q0.765625 -0.609375 1.828125 -0.9375q1.078125 -0.328125 2.25 -0.328125q2.03125 0 3.125 1.0q1.109375 0.984375 1.109375 3.015625l0 5.96875l-1.703125 0zm-3.234375 0.109375q-1.109375 0 -1.9375 -0.375q-0.828125 -0.375 -1.28125 -1.03125q-0.4375 -0.65625 -0.4375 -1.5q0 -0.796875 0.375 -1.453125q0.390625 -0.65625 1.25 -1.046875q0.875 -0.390625 2.34375 -0.390625l3.140625 0l0 1.28125l-3.0625 0q-1.34375 0 -1.8125 0.453125q-0.46875 0.453125 -0.46875 1.078125q0 0.734375 0.578125 1.171875q0.578125 0.4375 1.609375 0.4375q1.0 0 1.75 -0.453125q0.765625 -0.453125 1.109375 -1.296875l0.34375 1.21875q-0.34375 0.875 -1.25 1.390625q-0.890625 0.515625 -2.25 0.515625zm8.265808 -0.109375l0 -9.890625l1.71875 0l0 2.6875l-0.171875 -0.671875q0.40625 -1.03125 1.375 -1.5625q0.96875 -0.546875 2.390625 -0.546875l0 1.734375q-0.109375 -0.015625 -0.21875 -0.015625q-0.09375 0 -0.1875 0q-1.4375 0 -2.28125 0.859375q-0.84375 0.859375 -0.84375 2.484375l0 4.921875l-1.78125 0zm11.721924 0.109375q-1.5 0 -2.6875 -0.640625q-1.1875 -0.65625 -1.859375 -1.796875q-0.671875 -1.140625 -0.671875 -2.609375q0 -1.484375 0.671875 -2.609375q0.671875 -1.140625 1.859375 -1.78125q1.1875 -0.65625 2.6875 -0.65625q1.34375 0 2.390625 0.53125q1.0625 0.53125 1.640625 1.578125l-1.359375 0.875q-0.484375 -0.71875 -1.1875 -1.0625q-0.6875 -0.34375 -1.5 -0.34375q-0.96875 0 -1.734375 0.421875q-0.765625 0.421875 -1.21875 1.203125q-0.4375 0.78125 -0.4375 1.84375q0 1.0625 0.4375 1.84375q0.453125 0.78125 1.21875 1.21875q0.765625 0.421875 1.734375 0.421875q0.8125 0 1.5 -0.34375q0.703125 -0.34375 1.1875 -1.078125l1.359375 0.859375q-0.578125 1.03125 -1.640625 1.578125q-1.046875 0.546875 -2.390625 0.546875zm6.2252197 -0.109375l0 -9.890625l1.78125 0l0 9.890625l-1.78125 0zm0.890625 -11.796875q-0.515625 0 -0.859375 -0.328125q-0.34375 -0.34375 -0.34375 -0.828125q0 -0.5 0.34375 -0.828125q0.34375 -0.34375 0.859375 -0.34375q0.53125 0 0.875 0.328125q0.34375 0.328125 0.34375 0.8125q0 0.5 -0.34375 0.84375q-0.328125 0.34375 -0.875 0.34375zm7.649048 11.90625q-1.5 0 -2.328125 -0.796875q-0.8125 -0.8125 -0.8125 -2.296875l0 -9.0625l1.796875 0l0 8.984375q0 0.8125 0.390625 1.234375q0.40625 0.421875 1.15625 0.421875q0.84375 0 1.40625 -0.453125l0.546875 1.28125q-0.40625 0.359375 -0.984375 0.53125q-0.5625 0.15625 -1.171875 0.15625zm-4.8125 -8.515625l0 -1.484375l6.296875 0l0 1.484375l-6.296875 0zm8.858154 12.140625q-0.703125 0 -1.375 -0.234375q-0.671875 -0.234375 -1.15625 -0.6875l0.765625 -1.34375q0.375 0.359375 0.8125 0.546875q0.453125 0.1875 0.953125 0.1875q0.65625 0 1.078125 -0.34375q0.4375 -0.328125 0.8125 -1.1875l0.609375 -1.359375l0.1875 -0.234375l3.875 -8.96875l1.765625 0l-4.796875 10.875q-0.4375 1.046875 -0.96875 1.640625q-0.53125 0.609375 -1.171875 0.859375q-0.625 0.25 -1.390625 0.25zm2.359375 -3.421875l-4.515625 -10.203125l1.859375 0l3.84375 8.8125l-1.1875 1.390625z" fill-rule="nonzero"/><path fill="#b7b7b7" d="m750.6759 219.81764l0 -13.0625l5.09375 0q2.546875 0 4.0 1.203125q1.453125 1.203125 1.453125 3.359375q0 1.40625 -0.65625 2.421875q-0.65625 1.015625 -1.875 1.5625q-1.203125 0.546875 -2.921875 0.546875l-4.0625 0l0.84375 -0.859375l0 4.828125l-1.875 0zm8.734375 0l-3.3125 -4.734375l1.984375 0l3.359375 4.734375l-2.03125 0zm-6.859375 -4.640625l-0.84375 -0.921875l4.015625 0q1.78125 0 2.703125 -0.765625q0.9375 -0.78125 0.9375 -2.171875q0 -1.40625 -0.9375 -2.171875q-0.921875 -0.765625 -2.703125 -0.765625l-4.015625 0l0.84375 -0.9375l0 7.734375zm11.43811 4.640625l0 -9.890625l1.78125 0l0 9.890625l-1.78125 0zm0.890625 -11.796875q-0.515625 0 -0.859375 -0.328125q-0.34375 -0.34375 -0.34375 -0.828125q0 -0.5 0.34375 -0.828125q0.34375 -0.34375 0.859375 -0.34375q0.53125 0 0.875 0.328125q0.34375 0.328125 0.34375 0.8125q0 0.5 -0.34375 0.84375q-0.328125 0.34375 -0.875 0.34375zm7.142578 11.90625q-1.234375 0 -2.34375 -0.328125q-1.109375 -0.34375 -1.734375 -0.828125l0.734375 -1.421875q0.640625 0.4375 1.5625 0.734375q0.9375 0.296875 1.921875 0.296875q1.234375 0 1.78125 -0.34375q0.5625 -0.359375 0.5625 -1.0q0 -0.46875 -0.34375 -0.71875q-0.328125 -0.265625 -0.875 -0.390625q-0.546875 -0.140625 -1.21875 -0.234375q-0.671875 -0.109375 -1.34375 -0.265625q-0.671875 -0.15625 -1.234375 -0.4375q-0.5625 -0.296875 -0.90625 -0.8125q-0.328125 -0.515625 -0.328125 -1.375q0 -0.890625 0.5 -1.5625q0.5 -0.671875 1.421875 -1.03125q0.9375 -0.375 2.203125 -0.375q0.96875 0 1.96875 0.234375q1.0 0.234375 1.625 0.671875l-0.765625 1.40625q-0.671875 -0.4375 -1.40625 -0.609375q-0.71875 -0.171875 -1.4375 -0.171875q-1.1875 0 -1.765625 0.390625q-0.578125 0.375 -0.578125 0.96875q0 0.515625 0.34375 0.78125q0.359375 0.265625 0.90625 0.421875q0.546875 0.140625 1.21875 0.25q0.671875 0.09375 1.34375 0.265625q0.671875 0.15625 1.21875 0.4375q0.546875 0.265625 0.890625 0.78125q0.359375 0.5 0.359375 1.34375q0 0.890625 -0.53125 1.546875q-0.515625 0.65625 -1.46875 1.015625q-0.953125 0.359375 -2.28125 0.359375zm7.9718018 -2.5l0.03125 -2.296875l5.6875 -5.203125l2.171875 0l-4.375 4.296875l-0.96875 0.8125l-2.546875 2.390625zm-1.453125 2.390625l0 -13.84375l1.78125 0l0 13.84375l-1.78125 0zm7.546875 0l-3.875 -4.8125l1.15625 -1.4375l4.921875 6.25l-2.203125 0z" fill-rule="nonzero"/><path fill="#000000" fill-opacity="0.0" d="m219.88853 291.49344l0 0c0 -69.71834 116.45531 -126.23622 260.11023 -126.23622l0 0c143.6549 0 260.11023 56.517883 260.11023 126.23622l0 0c0 69.71835 -116.45532 126.236206 -260.11023 126.236206l0 0c-143.65494 0 -260.11023 -56.517853 -260.11023 -126.236206z" fill-rule="evenodd"/><path stroke="#000000" stroke-width="2.0" stroke-linejoin="round" stroke-linecap="butt" d="m219.88853 291.49344l0 0c0 -69.71834 116.45531 -126.23622 260.11023 -126.23622l0 0c143.6549 0 260.11023 56.517883 260.11023 126.23622l0 0c0 69.71835 -116.45532 126.236206 -260.11023 126.236206l0 0c-143.65494 0 -260.11023 -56.517853 -260.11023 -126.236206z" fill-rule="evenodd"/><path fill="#000000" d="m445.4511 287.41345l0 -13.0625l5.09375 0q1.71875 0 2.921875 0.546875q1.21875 0.53125 1.875 1.5625q0.65625 1.03125 0.65625 2.453125q0 1.40625 -0.65625 2.421875q-0.65625 1.015625 -1.875 1.578125q-1.203125 0.546875 -2.921875 0.546875l-4.0625 0l0.84375 -0.875l0 4.828125l-1.875 0zm1.875 -4.640625l-0.84375 -0.9375l4.015625 0q1.78125 0 2.703125 -0.765625q0.9375 -0.765625 0.9375 -2.15625q0 -1.40625 -0.9375 -2.171875q-0.921875 -0.765625 -2.703125 -0.765625l-4.015625 0l0.84375 -0.9375l0 7.734375zm10.990143 4.640625l0 -9.890625l1.71875 0l0 2.6875l-0.171875 -0.671875q0.40625 -1.03125 1.375 -1.5625q0.96875 -0.546875 2.390625 -0.546875l0 1.734375q-0.109375 -0.015625 -0.21875 -0.015625q-0.09375 0 -0.1875 0q-1.4375 0 -2.28125 0.859375q-0.84375 0.859375 -0.84375 2.484375l0 4.921875l-1.78125 0zm11.659454 0.109375q-1.5 0 -2.65625 -0.640625q-1.15625 -0.65625 -1.828125 -1.796875q-0.671875 -1.15625 -0.671875 -2.609375q0 -1.484375 0.671875 -2.609375q0.671875 -1.140625 1.828125 -1.78125q1.15625 -0.65625 2.65625 -0.65625q1.46875 0 2.625 0.65625q1.171875 0.640625 1.828125 1.765625q0.671875 1.125 0.671875 2.625q0 1.46875 -0.671875 2.609375q-0.65625 1.140625 -1.828125 1.796875q-1.15625 0.640625 -2.625 0.640625zm0 -1.5625q0.953125 0 1.703125 -0.421875q0.75 -0.4375 1.171875 -1.234375q0.4375 -0.796875 0.4375 -1.828125q0 -1.0625 -0.4375 -1.84375q-0.421875 -0.78125 -1.171875 -1.203125q-0.75 -0.421875 -1.703125 -0.421875q-0.953125 0 -1.703125 0.421875q-0.75 0.421875 -1.203125 1.203125q-0.4375 0.78125 -0.4375 1.84375q0 1.03125 0.4375 1.828125q0.453125 0.796875 1.203125 1.234375q0.75 0.421875 1.703125 0.421875zm11.90921 1.5625q-1.5 0 -2.6875 -0.640625q-1.1875 -0.65625 -1.859375 -1.796875q-0.671875 -1.140625 -0.671875 -2.609375q0 -1.484375 0.671875 -2.609375q0.671875 -1.140625 1.859375 -1.78125q1.1875 -0.65625 2.6875 -0.65625q1.34375 0 2.390625 0.53125q1.0625 0.53125 1.640625 1.578125l-1.359375 0.875q-0.484375 -0.71875 -1.1875 -1.0625q-0.6875 -0.34375 -1.5 -0.34375q-0.96875 0 -1.734375 0.421875q-0.765625 0.421875 -1.21875 1.203125q-0.4375 0.78125 -0.4375 1.84375q0 1.0625 0.4375 1.84375q0.453125 0.78125 1.21875 1.21875q0.765625 0.421875 1.734375 0.421875q0.8125 0 1.5 -0.34375q0.703125 -0.34375 1.1875 -1.078125l1.359375 0.859375q-0.578125 1.03125 -1.640625 1.578125q-1.046875 0.546875 -2.390625 0.546875zm10.597137 0q-1.578125 0 -2.78125 -0.640625q-1.203125 -0.65625 -1.875 -1.796875q-0.65625 -1.140625 -0.65625 -2.609375q0 -1.484375 0.640625 -2.609375q0.65625 -1.140625 1.78125 -1.78125q1.125 -0.65625 2.546875 -0.65625q1.4375 0 2.53125 0.640625q1.109375 0.625 1.734375 1.78125q0.625 1.140625 0.625 2.671875q0 0.109375 -0.015625 0.265625q-0.015625 0.140625 -0.03125 0.28125l-8.40625 0l0 -1.296875l7.46875 0l-0.71875 0.453125q0.015625 -0.953125 -0.390625 -1.6875q-0.40625 -0.75 -1.125 -1.171875q-0.71875 -0.421875 -1.671875 -0.421875q-0.9375 0 -1.671875 0.421875q-0.71875 0.421875 -1.140625 1.171875q-0.40625 0.75 -0.40625 1.71875l0 0.3125q0 0.984375 0.453125 1.765625q0.46875 0.765625 1.28125 1.203125q0.828125 0.421875 1.890625 0.421875q0.875 0 1.59375 -0.296875q0.71875 -0.296875 1.265625 -0.90625l0.984375 1.15625q-0.671875 0.796875 -1.671875 1.203125q-1.0 0.40625 -2.234375 0.40625zm9.855133 0q-1.234375 0 -2.34375 -0.328125q-1.109375 -0.34375 -1.734375 -0.828125l0.734375 -1.421875q0.640625 0.4375 1.5625 0.734375q0.9375 0.296875 1.921875 0.296875q1.234375 0 1.78125 -0.34375q0.5625 -0.359375 0.5625 -1.0q0 -0.46875 -0.34375 -0.71875q-0.328125 -0.265625 -0.875 -0.390625q-0.546875 -0.140625 -1.21875 -0.234375q-0.671875 -0.109375 -1.34375 -0.265625q-0.671875 -0.15625 -1.234375 -0.4375q-0.5625 -0.296875 -0.90625 -0.8125q-0.328125 -0.515625 -0.328125 -1.375q0 -0.890625 0.5 -1.5625q0.5 -0.671875 1.421875 -1.03125q0.9375 -0.375 2.203125 -0.375q0.96875 0 1.96875 0.234375q1.0 0.234375 1.625 0.671875l-0.765625 1.40625q-0.671875 -0.4375 -1.40625 -0.609375q-0.71875 -0.171875 -1.4375 -0.171875q-1.1875 0 -1.765625 0.390625q-0.578125 0.375 -0.578125 0.96875q0 0.515625 0.34375 0.78125q0.359375 0.265625 0.90625 0.421875q0.546875 0.140625 1.21875 0.25q0.671875 0.09375 1.34375 0.265625q0.671875 0.15625 1.21875 0.4375q0.546875 0.265625 0.890625 0.78125q0.359375 0.5 0.359375 1.34375q0 0.890625 -0.53125 1.546875q-0.515625 0.65625 -1.46875 1.015625q-0.953125 0.359375 -2.28125 0.359375zm9.346802 0q-1.234375 0 -2.34375 -0.328125q-1.109375 -0.34375 -1.734375 -0.828125l0.734375 -1.421875q0.640625 0.4375 1.5625 0.734375q0.9375 0.296875 1.921875 0.296875q1.2343445 0 1.7812195 -0.34375q0.5625 -0.359375 0.5625 -1.0q0 -0.46875 -0.34375 -0.71875q-0.328125 -0.265625 -0.875 -0.390625q-0.546875 -0.140625 -1.2187195 -0.234375q-0.671875 -0.109375 -1.34375 -0.265625q-0.671875 -0.15625 -1.234375 -0.4375q-0.5625 -0.296875 -0.90625 -0.8125q-0.328125 -0.515625 -0.328125 -1.375q0 -0.890625 0.5 -1.5625q0.5 -0.671875 1.421875 -1.03125q0.9375 -0.375 2.2030945 -0.375q0.96875 0 1.96875 0.234375q1.0 0.234375 1.625 0.671875l-0.765625 1.40625q-0.671875 -0.4375 -1.40625 -0.609375q-0.71875 -0.171875 -1.4375 -0.171875q-1.1874695 0 -1.7655945 0.390625q-0.578125 0.375 -0.578125 0.96875q0 0.515625 0.34375 0.78125q0.359375 0.265625 0.90625 0.421875q0.546875 0.140625 1.2187195 0.25q0.671875 0.09375 1.34375 0.265625q0.671875 0.15625 1.21875 0.4375q0.546875 0.265625 0.890625 0.78125q0.359375 0.5 0.359375 1.34375q0 0.890625 -0.53125 1.546875q-0.515625 0.65625 -1.46875 1.015625q-0.953125 0.359375 -2.2812195 0.359375z" fill-rule="nonzero"/><path fill="#000000" d="m462.1576 309.41345l0 -13.0625l5.09375 0q2.546875 0 4.0 1.203125q1.453125 1.203125 1.453125 3.359375q0 1.40625 -0.65625 2.421875q-0.65625 1.015625 -1.875 1.5625q-1.203125 0.546875 -2.921875 0.546875l-4.0625 0l0.84375 -0.859375l0 4.828125l-1.875 0zm8.734375 0l-3.3125 -4.734375l1.984375 0l3.359375 4.734375l-2.03125 0zm-6.859375 -4.640625l-0.84375 -0.921875l4.015625 0q1.78125 0 2.703125 -0.765625q0.9375 -0.78125 0.9375 -2.171875q0 -1.40625 -0.9375 -2.171875q-0.921875 -0.765625 -2.703125 -0.765625l-4.015625 0l0.84375 -0.9375l0 7.734375zm11.43808 4.640625l0 -9.890625l1.78125 0l0 9.890625l-1.78125 0zm0.890625 -11.796875q-0.515625 0 -0.859375 -0.328125q-0.34375 -0.34375 -0.34375 -0.828125q0 -0.5 0.34375 -0.828125q0.34375 -0.34375 0.859375 -0.34375q0.53125 0 0.875 0.328125q0.34375 0.328125 0.34375 0.8125q0 0.5 -0.34375 0.84375q-0.328125 0.34375 -0.875 0.34375zm7.1426086 11.90625q-1.234375 0 -2.34375 -0.328125q-1.109375 -0.34375 -1.734375 -0.828125l0.734375 -1.421875q0.640625 0.4375 1.5625 0.734375q0.9375 0.296875 1.921875 0.296875q1.234375 0 1.78125 -0.34375q0.5625 -0.359375 0.5625 -1.0q0 -0.46875 -0.34375 -0.71875q-0.328125 -0.265625 -0.875 -0.390625q-0.546875 -0.140625 -1.21875 -0.234375q-0.671875 -0.109375 -1.34375 -0.265625q-0.671875 -0.15625 -1.234375 -0.4375q-0.5625 -0.296875 -0.90625 -0.8125q-0.328125 -0.515625 -0.328125 -1.375q0 -0.890625 0.5 -1.5625q0.5 -0.671875 1.421875 -1.03125q0.9375 -0.375 2.203125 -0.375q0.96875 0 1.96875 0.234375q1.0 0.234375 1.625 0.671875l-0.765625 1.40625q-0.671875 -0.4375 -1.40625 -0.609375q-0.71875 -0.171875 -1.4375 -0.171875q-1.1875 0 -1.765625 0.390625q-0.578125 0.375 -0.578125 0.96875q0 0.515625 0.34375 0.78125q0.359375 0.265625 0.90625 0.421875q0.546875 0.140625 1.21875 0.25q0.671875 0.09375 1.34375 0.265625q0.671875 0.15625 1.21875 0.4375q0.546875 0.265625 0.890625 0.78125q0.359375 0.5 0.359375 1.34375q0 0.890625 -0.53125 1.546875q-0.515625 0.65625 -1.46875 1.015625q-0.953125 0.359375 -2.28125 0.359375zm7.9717712 -2.5l0.03125 -2.296875l5.6875 -5.203125l2.171875 0l-4.375 4.296875l-0.96875 0.8125l-2.546875 2.390625zm-1.453125 2.390625l0 -13.84375l1.78125 0l0 13.84375l-1.78125 0zm7.546875 0l-3.875 -4.8125l1.15625 -1.4375l4.921875 6.25l-2.203125 0z" fill-rule="nonzero"/></g></svg>