<?xml version="1.0" encoding="utf-8"?>
<!-- Generator: Adobe Illustrator 19.2.1, SVG Export Plug-In . SVG Version: 6.00 Build 0)  -->
<svg version="1.1" id="Layer_1" xmlns="http://www.w3.org/2000/svg" xmlns:xlink="http://www.w3.org/1999/xlink" x="0px" y="0px"
	 viewBox="72 80 124 124" style="enable-background:new 0 0 283.5 283.5;" width="100px" height="100px" xml:space="preserve">
<style type="text/css">
	.st0{fill:#FFFFFF;}
</style>
<ellipse xmlns="http://www.w3.org/2000/svg" cx="142.5" cy="142" rx="51" ry="51" color="black"/>
<g>
	<path class="st0" d="M142.4,70c-39.9,0-72.3,32.4-72.3,72.3c0,39.9,32.4,72.3,72.3,72.3c39.9,0,72.3-32.4,72.3-72.3
		C214.7,102.3,182.3,70,142.4,70z M192.6,192.5c-12.9,12.9-30.6,20.8-50.2,20.8c-19.6,0-37.4-8-50.2-20.8
		c-12.9-12.9-20.8-30.6-20.8-50.2c0-19.6,8-37.4,20.8-50.2c12.9-12.9,30.6-20.8,50.2-20.8c19.6,0,37.4,8,50.2,20.8
		c12.9,12.9,20.8,30.6,20.8,50.2C213.5,161.9,205.5,179.7,192.6,192.5z"/>
	<g>
		<path class="st0" d="M179.8,117.8c-0.4-0.6-0.9-1.3-1.3-1.9v2.1v48.3v2.2c0.5-0.6,0.9-1.3,1.3-1.9c4.6-7,7.2-15.4,7.2-24.4
			C187.1,133.2,184.4,124.8,179.8,117.8z M179.8,120.2c3.8,6.5,6,14,6,22.1c0,8.1-2.2,15.6-6,22.1V120.2z"/>
		<path class="st0" d="M97.4,142.2c0,8.7,2.5,16.8,6.8,23.7c0.4,0.7,0.9,1.3,1.3,2v-2.2v-46.9v-2.2c-0.5,0.6-0.9,1.3-1.3,2
			C99.9,125.4,97.4,133.5,97.4,142.2z M104.2,163.5c-3.5-6.3-5.6-13.6-5.6-21.3c0-7.7,2-15,5.6-21.3V163.5z"/>
		<path class="st0" d="M142.3,97.4c-10.9,0-20.9,3.9-28.7,10.4c-0.5,0.4-1,0.9-1.5,1.3h1.9h14.8c13.8,0,20.8,6.8,20.8,20.4
			c0,8.2-2.9,14.1-8.8,17.6l12.6,37.2l0.4,1.2c0.5-0.1,0.9-0.2,1.3-0.4c2.2-0.7,4.4-1.5,6.5-2.5c0.4-0.2,0.9-0.4,1.3-0.7v-1.4v-4.5
			V127H154v-9.9c3.4-0.3,6-1.1,7.7-2.2c1.7-1.2,2.9-3.1,3.6-5.8h5.3h1.9c-0.5-0.4-1-0.9-1.5-1.3C163.2,101.3,153.2,97.4,142.3,97.4z
			 M164.3,107.8l-0.3,1c-0.3,1.2-0.8,2.3-1.3,3.1c-0.5,0.8-1.1,1.5-1.8,2c-0.7,0.5-1.6,0.9-2.8,1.3c-1.2,0.3-2.6,0.6-4.3,0.8
			l-1.2,0.1v12.4h8.8v53c-2.2,1.1-4.5,2-6.9,2.7l-2.9-8.3l-9.4-28c2.7-1.8,4.8-4.2,6.2-7c1.6-3.2,2.3-6.9,2.3-11.2
			c0-3.5-0.4-6.6-1.4-9.3c-0.7-2-1.7-3.8-2.9-5.4c-1.9-2.3-4.3-4.1-7.3-5.2c-3-1.1-6.5-1.7-10.5-1.7h-13.2
			c7.4-5.7,16.7-9.2,26.7-9.2c10.1,0,19.4,3.4,26.7,9.2H164.3z"/>
		<path class="st0" d="M133.5,176.1L133.5,176.1l-7.9-25.7h-4.3v25.7v4.3v1.4c0.4,0.2,0.9,0.5,1.3,0.7c3.9,1.9,8.1,3.3,12.6,4
			c0.5,0.1,1.1,0.2,1.6,0.2l-0.4-1.3L133.5,176.1z M122.5,181.1v-29.3h2l10.1,33.3C130.4,184.4,126.3,183,122.5,181.1z"/>
		<path class="st0" d="M133.6,130c0-5.4-2-8.1-6-8.1h-6.3v16.4h6C131.5,138.2,133.6,135.5,133.6,130z M122.5,123.2l5,0
			c0.9,0,1.5,0.1,2.1,0.4c0.4,0.2,0.8,0.4,1.1,0.8c0.5,0.5,0.8,1.2,1.1,2.1c0.3,0.9,0.4,2.1,0.4,3.6c0,1.3-0.1,2.4-0.4,3.3
			c-0.2,0.7-0.4,1.2-0.7,1.7c-0.4,0.7-0.9,1.1-1.5,1.5c-0.6,0.3-1.4,0.5-2.5,0.5h-4.7V123.2z"/>
	</g>
</g>
</svg>
