<?xml version="1.0" encoding="utf-8"?>
<!-- Generator: Adobe Illustrator 21.1.0, SVG Export Plug-In . SVG Version: 6.00 Build 0)  -->
<svg version="1.1" id="Layer_1" xmlns="http://www.w3.org/2000/svg" xmlns:xlink="http://www.w3.org/1999/xlink" x="0pt" y="0pt"
	 viewBox="0 0 85 85" style="enable-background:new 0 0 85 85;" xml:space="preserve">
<style type="text/css">
	.st0{fill:none;stroke:#1A171B;stroke-width:3;stroke-linecap:round;stroke-linejoin:round;}
</style>
<path class="st0" d="M67.3,36.2c10-3,10.5-6.2,10-9.2c-0.8-4.3-6.3-8-15-10c0-0.3,0-0.3,0-0.3c-1.8-7.5-5-12.1-9.5-13.6
	c-4.3-1.5-8.3,0.3-10.3,1.3c-2-1.3-6-3-10.3-1.5c-4.5,1.5-7.8,6.3-9.8,13.8c0,0.3,0,0.3,0,0.5c-8.8,2.3-14.5,6-15,10.8
	c-0.3,3.3,2.9,7.8,18.6,11c0,9.4,7.4,16.4,16.1,16.4c10-0.3,16.7-8,16.7-17.8V27.3"/>
<path class="st0" d="M22.5,17.2c0,0,16.4-4.6,39.8-0.3"/>
<path class="st0" d="M26.1,26.4c0,0-0.1,9.1,0,12.7"/>
<g>
	<path class="st0" d="M37,82.8c0,0-4.5-20.8-13.1-30.6L8.1,62.7l12.7,8.8l-4.7,8l2.5,2.8"/>
	<line class="st0" x1="1.9" y1="74" x2="14.6" y2="67.5"/>
</g>
<g>
	<path class="st0" d="M48.2,82.8c0,0,4.5-20.8,13.1-30.6l15.7,10.5l-12.7,8.8l4.7,8l-2.5,2.8"/>
	<line class="st0" x1="83.3" y1="74" x2="70.6" y2="67.5"/>
</g>
</svg>
