<svg xmlns="http://www.w3.org/2000/svg" xmlns:xlink="http://www.w3.org/1999/xlink" version="1.1" x="0pt" y="0pt" viewBox="0 0 42 42" style="enable-background:new 0 0 42 42;" xml:space="preserve"><g><path d="M28,19v-4.1c0-0.6-0.4-1-1-1s-1,0.4-1,1V19c0,2.8-2.2,5-5,5s-5-2.2-5-5v-4.1c0-0.6-0.4-1-1-1s-1,0.4-1,1   v2.9c-3.7-0.8-5-1.9-5-2.6c0.1-1.1,3.8-3.3,12-3.3c7.7,0,11.8,2,12,3.2c0.1,0.4-0.7,1.2-3,1.9c-0.5,0.2-0.8,0.7-0.7,1.2   c0.2,0.5,0.7,0.8,1.2,0.7c4-1.2,4.6-2.9,4.4-4.1c-0.3-1.7-2.5-3.2-6-4c0-0.1,0-0.1,0-0.1c-0.7-3-2-4.8-3.8-5.4   c-1.7-0.6-3.3,0.1-4.1,0.5c-0.8-0.5-2.4-1.2-4.1-0.6c-1.8,0.6-3.1,2.5-3.9,5.5c0,0.1,0,0.1,0,0.2c-3.5,0.9-5.8,2.4-6,4.3   c-0.1,1.3,0.7,3.5,7,4.8c0.5,3.4,3.4,6.1,6.9,6.1C24.9,26,28,22.9,28,19z M17.5,7.1c1.4-0.5,2.8,0.7,2.8,0.7c0.4,0.3,0.9,0.3,1.2,0   c0,0,1.5-1.1,2.9-0.6c1,0.3,1.8,1.5,2.3,3.3C25.1,10.2,23.1,10,21,10c-2.1,0-4.1,0.2-5.8,0.4C15.8,8.6,16.6,7.5,17.5,7.1z"></path><path d="M14.7,24.3c-0.3-0.4-0.9-0.4-1.3-0.1l-6,4C7.2,28.4,7,28.7,7,29c0,0.3,0.2,0.7,0.5,0.8l1.2,0.7l-3.1,1.5   c-0.5,0.2-0.7,0.8-0.4,1.3c0.2,0.5,0.8,0.7,1.3,0.4l4-2c0.1,0,0.1-0.1,0.2-0.1l1,0.6l-1.4,2.1c-0.3,0.4-0.2,0.9,0.1,1.3l1,1   c0.4,0.4,1,0.4,1.4,0s0.4-1,0-1.4l-0.4-0.4l1.5-2.3C14,32.3,14,32,14,31.8c-0.1-0.3-0.2-0.5-0.5-0.6L9.9,29l3.9-2.6   c0.9,1.3,2.8,4.4,4.2,9.9c0.1,0.5,0.7,0.9,1.2,0.7c0.5-0.1,0.9-0.7,0.7-1.2C17.9,27.7,14.9,24.5,14.7,24.3z"></path><path d="M36.4,32.1l-3.1-1.5l1.2-0.7c0.3-0.2,0.5-0.5,0.5-0.8c0-0.3-0.2-0.7-0.4-0.9l-6-4   c-0.4-0.3-0.9-0.2-1.3,0.1c-0.1,0.1-3.1,3.4-5.2,11.4c-0.1,0.5,0.2,1.1,0.7,1.2c0.5,0.1,1.1-0.2,1.2-0.7c1.5-5.5,3.4-8.6,4.2-9.9   l3.9,2.6l-3.6,2.2c-0.2,0.1-0.4,0.4-0.5,0.6c-0.1,0.3,0,0.5,0.1,0.8l1.5,2.3l-0.4,0.4c-0.4,0.4-0.4,1,0,1.4s1,0.4,1.4,0l1-1   c0.3-0.3,0.4-0.9,0.1-1.3l-1.4-2.1l1-0.6c0.1,0.1,0.1,0.1,0.2,0.1l4,2c0.5,0.2,1.1,0,1.3-0.4C37.1,33,36.9,32.4,36.4,32.1z"></path></g></svg>