<svg xmlns="http://www.w3.org/2000/svg" xmlns:xlink="http://www.w3.org/1999/xlink" version="1.1" x="0pt" y="0pt" viewBox="0 0 100 100" enable-background="new 0 0 100 100" xml:space="preserve"><path fill-rule="evenodd" clip-rule="evenodd" d="M49.9853516,21.637207l-34.949707,60.5h69.8999023L49.9853516,21.637207z   M46.0854492,66.7871094h7.8500977V74.6875h-7.8500977V66.7871094z M46.0356445,37.0371094h7.7998047V61.4375h-7.7998047V37.0371094  z M93.6855469,88.5874023C92.9853516,89.1538086,92.2021484,89.4375,91.3354492,89.4375H8.6855469  c-0.8999023,0-1.6835938-0.2666016-2.3500977-0.800293c-0.6665039-0.6000977-1.0834961-1.3334961-1.25-2.199707  c-0.199707-0.9003906-0.0664063-1.7333984,0.3999023-2.5l41.3500977-71.550293  c0.4335938-0.7666016,1.0668945-1.2998047,1.8999023-1.6000977c0.8334961-0.2998047,1.6835938-0.2998047,2.550293,0  c0.8334961,0.300293,1.4663086,0.8334961,1.8999023,1.6000977L94.5356445,83.9375  c0.4331055,0.7666016,0.5664063,1.5996094,0.3999023,2.5C94.8022461,87.3037109,94.3857422,88.0205078,93.6855469,88.5874023z"></path></svg>