<?xml version="1.0" encoding="utf-8"?>
<!-- Generator: Adobe Illustrator 21.1.0, SVG Export Plug-In . SVG Version: 6.00 Build 0)  -->
<svg version="1.1" id="Layer_1" xmlns="http://www.w3.org/2000/svg" xmlns:xlink="http://www.w3.org/1999/xlink" x="0pt" y="0pt"
	 viewBox="0 0 85 85" style="enable-background:new 0 0 85 85;" xml:space="preserve">
<style type="text/css">
	.st0{fill:none;stroke:#1A171B;stroke-width:4;stroke-linecap:round;stroke-linejoin:round;stroke-miterlimit:10;}
	.st1{fill:#1A171B;}
</style>
<polygon class="st0" points="2.5,82.5 42.3,2.4 82.4,82.5 "/>
<path class="st1" d="M44.3,57.5h-3.7c-1,0-1.8-0.8-1.8-1.8V32.1c0-1,0.8-1.8,1.8-1.8h3.7c1,0,1.8,0.8,1.8,1.8v23.7
	C46.1,56.7,45.3,57.5,44.3,57.5z"/>
<path class="st1" d="M44.1,70.2h-3.2c-1.1,0-2-0.9-2-2v-4.3c0-1.1,0.9-2,2-2h3.2c1.1,0,2,0.9,2,2v4.3C46.2,69.3,45.3,70.2,44.1,70.2
	z"/>
</svg>
