<?xml version="1.0" encoding="utf-8"?>
<!-- Generator: Adobe Illustrator 21.1.0, SVG Export Plug-In . SVG Version: 6.00 Build 0)  -->
<svg version="1.1" id="Layer_1" xmlns="http://www.w3.org/2000/svg" xmlns:xlink="http://www.w3.org/1999/xlink" x="0pt" y="0pt"
	 viewBox="0 0 85 85" style="enable-background:new 0 0 85 85;" xml:space="preserve">
<style type="text/css">
	.st0{fill:#1A171B;}
</style>
<path class="st0" d="M3.2,28.7v1.6h77.2v10.4H4.8l0-12H3.2v1.6V28.7H1.6v13.6c0,0.4,0.2,0.8,0.5,1.1c0.3,0.3,0.7,0.5,1.1,0.5H82
	c0.4,0,0.8-0.2,1.1-0.5c0.3-0.3,0.5-0.7,0.5-1.1V28.7c0-0.4-0.2-0.8-0.5-1.1c-0.3-0.3-0.7-0.5-1.1-0.5H3.2c-0.4,0-0.8,0.2-1.1,0.5
	c-0.3,0.3-0.5,0.7-0.5,1.1H3.2z"/>
<g>
	<rect x="46.8" y="42.3" class="st0" width="3.1" height="17"/>
	<path class="st0" d="M49.9,18.5l6.9-11.7l7.3,11.6v10.3h3.2V17.6c0-0.1,0-0.2-0.1-0.3l-10-15.8c-0.1-0.2-0.3-0.3-0.5-0.3
		s-0.4,0.1-0.5,0.3l-9.3,16c-0.1,0.1-0.1,0.2-0.1,0.3v10.9h3.1V18.5z"/>
	<rect x="64.1" y="42.3" class="st0" width="3.2" height="17"/>
	<path class="st0" d="M18.4,72.7v11.2c0,0.3,0.2,0.5,0.5,0.5h19.6c0.3,0,0.5-0.2,0.5-0.5V72.7H18.4z"/>
	<path class="st0" d="M39,17.6c0-0.1,0-0.2-0.1-0.2L29.2,2c-0.4-0.6-1.2-0.6-1.6,0l-9.1,15.6c0,0.1-0.1,0.1-0.1,0.2v10.9H39V17.6z"
		/>
	<path class="st0" d="M64.1,72.7v8.4H49.9v-8.4h-3.1v10.9c0,0.3,0.3,0.6,0.6,0.6h19.3c0.3,0,0.6-0.3,0.6-0.6V72.7H64.1z"/>
	<rect x="18.4" y="42.3" class="st0" width="20.6" height="17"/>
</g>
<path class="st0" d="M3.2,59.3v1.6h77.2v10.2H4.8l0-11.8H3.2v1.6V59.3H1.6v13.4c0,0.4,0.2,0.8,0.5,1.1c0.3,0.3,0.7,0.5,1.1,0.5H82
	c0.4,0,0.8-0.2,1.1-0.5c0.3-0.3,0.5-0.7,0.5-1.1V59.3c0-0.4-0.2-0.8-0.5-1.1s-0.7-0.5-1.1-0.5H3.2c-0.4,0-0.8,0.2-1.1,0.5
	c-0.3,0.3-0.5,0.7-0.5,1.1H3.2z"/>
<g>
	<path class="st0" d="M30.8,32.8c-0.6-0.4-1.3-0.7-2-0.7c-1.9,0-3.4,1.5-3.4,3.4c0,0.8,0.3,1.5,0.7,2.1L30.8,32.8z"/>
	<path class="st0" d="M26.8,38.3c0.6,0.4,1.2,0.6,2,0.6c1.9,0,3.4-1.5,3.4-3.4c0-0.7-0.3-1.4-0.7-2L26.8,38.3z"/>
</g>
<g>
	<path class="st0" d="M59.7,37.6c0.4-0.6,0.7-1.3,0.7-2.1c0-1.8-1.5-3.4-3.4-3.4c-0.8,0-1.5,0.3-2,0.7L59.7,37.6z"/>
	<path class="st0" d="M54.3,33.5c-0.4,0.6-0.7,1.3-0.7,2c0,1.9,1.5,3.4,3.4,3.4c0.7,0,1.4-0.2,2-0.6L54.3,33.5z"/>
</g>
<g>
	<path class="st0" d="M30.8,63.3c-0.6-0.4-1.3-0.7-2-0.7c-1.9,0-3.4,1.5-3.4,3.4c0,0.8,0.3,1.5,0.7,2L30.8,63.3z"/>
	<path class="st0" d="M26.8,68.7c0.6,0.4,1.3,0.7,2,0.7c1.9,0,3.4-1.5,3.4-3.4c0-0.8-0.3-1.5-0.7-2L26.8,68.7z"/>
</g>
<g>
	<path class="st0" d="M54.3,64c-0.4,0.6-0.7,1.3-0.7,2c0,1.9,1.5,3.4,3.4,3.4c0.8,0,1.5-0.3,2-0.7L54.3,64z"/>
	<path class="st0" d="M59.7,68c0.4-0.6,0.7-1.3,0.7-2c0-1.9-1.5-3.4-3.4-3.4c-0.8,0-1.5,0.3-2,0.7L59.7,68z"/>
</g>
</svg>
