<svg xmlns="http://www.w3.org/2000/svg" xmlns:xlink="http://www.w3.org/1999/xlink" xml:space="preserve" version="1.1" style="shape-rendering:geometricPrecision;text-rendering:geometricPrecision;image-rendering:optimizeQuality;" viewBox="0 0 489 591" x="0pt" y="0pt" fill-rule="evenodd" clip-rule="evenodd"><defs><style type="text/css">
   
    .fil1 {fill:black}
    .fil0 {fill:black;fill-rule:nonzero}
   
  </style></defs><g><path class="fil0" d="M261 184l0 -44 61 -140 64 140 0 44 103 0 0 115 -103 0 0 103 103 0 0 115 -103 0 0 74 -125 0 0 -74 -32 0 0 74 -126 0 0 -74 -103 0 0 -115 103 0 0 -103 -103 0 0 -115 103 0 0 -44 65 -138 61 138 0 44 32 0zm199 304l0 -58c-143,0 -288,0 -431,0l0 58c143,0 288,0 431,0zm-199 -86l0 -103 -32 0 0 103 32 0zm199 -131l0 -58c-143,0 -288,0 -431,0l0 58c143,0 288,0 431,0zm-138 -203l-35 78 0 38 70 0 0 -38 -35 -78zm35 334l0 -103 -70 0 0 103 70 0zm0 163l0 -48 -70 0 0 48 70 0z"></path><path class="fil1" d="M338 259c-20,14 -42,-8 -29,-28l29 28z"></path><path class="fil1" d="M342 255l-28 -28c13,-14 44,5 28,28z"></path><path class="fil1" d="M338 477c-17,12 -43,-8 -29,-29l29 29z"></path><path class="fil1" d="M342 472l-28 -29c17,-11 43,8 28,29z"></path><path class="fil1" d="M151 259c20,14 42,-9 29,-28l-29 28z"></path><path class="fil1" d="M147 255l28 -28c-13,-14 -44,5 -28,28z"></path><path class="fil1" d="M151 477c18,12 43,-8 29,-29l-29 29z"></path><path class="fil1" d="M147 472l28 -29c-17,-11 -43,8 -28,29z"></path></g></svg>