<svg xmlns="http://www.w3.org/2000/svg" xmlns:xlink="http://www.w3.org/1999/xlink" version="1.1" x="0pt" y="0pt" viewBox="0 0 100 100" enable-background="new 0 0 100 100" xml:space="preserve"><g><path d="M5,5v90h90V5H5z M90,90H10V10h80V90z"></path><rect x="15" y="15" width="5" height="70"></rect><rect x="30" y="15" width="5" height="70"></rect><rect x="37" y="15" width="5" height="70"></rect><rect x="52" y="15" width="5" height="70"></rect><rect x="59" y="15" width="5" height="70"></rect><rect x="66" y="15" width="5" height="70"></rect><rect x="22" y="15" width="2" height="70"></rect><rect x="26" y="15" width="2" height="70"></rect><rect x="44" y="15" width="2" height="70"></rect><rect x="48" y="15" width="2" height="70"></rect><rect x="73" y="15" width="2" height="70"></rect><rect x="77" y="15" width="2" height="70"></rect><rect x="81" y="15" width="4" height="70"></rect></g></svg>