<?xml version="1.0" encoding="utf-8"?>
<!-- Generator: Adobe Illustrator 21.1.0, SVG Export Plug-In . SVG Version: 6.00 Build 0)  -->
<svg version="1.1" id="Layer_1" xmlns="http://www.w3.org/2000/svg" xmlns:xlink="http://www.w3.org/1999/xlink" x="0pt" y="0pt"
	 viewBox="0 0 85 85" style="enable-background:new 0 0 85 85;" xml:space="preserve">
<style type="text/css">
	.st0{fill:none;stroke:#1A171B;stroke-width:3;stroke-linejoin:round;stroke-miterlimit:10;}
	.st1{fill:#1A171B;}
	.st2{fill:none;stroke:#1A171B;stroke-width:4;stroke-linecap:round;stroke-miterlimit:10;}
</style>
<path class="st0" d="M82.9,49.3c0-15-14.1-27.1-31.3-27.1S20.2,34.3,20.2,49.3s14.1,27.1,31.3,27.1c6.2,0,12-1.5,17.2-4.4l1.6-0.9
	l1.6,1c1.7,1,4.7,2.6,6.8,2.9c-1-1.3-2.8-3.7-3.4-5.3l-0.7-1.8l1.3-1.4C80.5,61.3,82.9,55.5,82.9,49.3z"/>
<path class="st1" d="M51.5,16.2L51.5,16.2c-4.5-7.1-13.2-12-23.3-12C13.6,4.2,1.6,14.7,1.6,27.6c0,5.6,2.2,10.7,5.9,14.7
	c-0.7,1.9-2,3.9-4.2,5.5c-0.6,0.3-0.4,1.3,0.3,1.4c2.4,0.3,6.4,0.4,10.2-1.9l0,0C15.4,29.9,31.7,16.2,51.5,16.2z"/>
<line class="st2" x1="33.2" y1="39.3" x2="69.8" y2="39.3"/>
<line class="st2" x1="33.2" y1="49.3" x2="69.8" y2="49.3"/>
<line class="st2" x1="51.5" y1="59.3" x2="69.8" y2="59.3"/>
</svg>
