<svg xmlns="http://www.w3.org/2000/svg" xmlns:xlink="http://www.w3.org/1999/xlink" version="1.1" x="0pt" y="0pt" viewBox="0 0 100 100" enable-background="new 0 0 100 100" xml:space="preserve"><path d="M80.5,49.2c0,1.6-1.3,2.9-2.9,2.9H43.1c-1.6,0-2.9-1.3-2.9-2.9c0-1.6,1.3-2.9,2.9-2.9h34.5C79.2,46.2,80.5,47.5,80.5,49.2z   M77.6,68.3H61.8c-1.6,0-2.9,1.3-2.9,2.9v0c0,1.6,1.3,2.9,2.9,2.9h15.8c1.6,0,2.9-1.3,2.9-2.9v0C80.5,69.6,79.2,68.3,77.6,68.3z   M97.8,60.2c0,7-2.5,13.8-7,19.4c0.8,1.6,2,2.8,3.4,3.7c1.5,1,2.2,2.7,1.8,4.4c-0.4,1.7-1.7,2.9-3.5,3.2c-1.2,0.2-2.4,0.3-3.6,0.3  c-3.6,0-6.9-0.7-9.9-2.2c-5.6,2.9-12,4.4-18.6,4.4c-20.6,0-37.4-14.9-37.4-33.2S39.7,27,60.3,27S97.8,41.9,97.8,60.2z M91.3,60.2  c0-14.8-13.9-26.8-31-26.8c-17.1,0-31,12-31,26.8c0,14.8,13.9,26.8,31,26.8c6.1,0,11.9-1.5,17-4.4l1.6-0.9l1.6,1  c1.7,1,3.6,1.7,5.7,2c-1-1.3-1.7-2.8-2.3-4.4l-0.7-1.8l1.3-1.4C89,72.1,91.3,66.3,91.3,60.2z M77.6,57.3H43.1  c-1.6,0-2.9,1.3-2.9,2.9c0,1.6,1.3,2.9,2.9,2.9h34.5c1.6,0,2.9-1.3,2.9-2.9C80.5,58.6,79.2,57.3,77.6,57.3z M60.6,20.6  C60.6,20.6,60.6,20.6,60.6,20.6c-5.3-8.3-15.5-14-27.2-14C16.2,6.6,2.2,18.8,2.2,33.9c0,6.5,2.6,12.5,6.9,17.2  c-0.8,2.2-2.3,4.6-4.9,6.4c-0.7,0.4-0.5,1.5,0.3,1.6c2.8,0.4,7.5,0.5,11.9-2.2c0,0,0,0,0,0C18.4,36.6,37.4,20.6,60.6,20.6z"></path></svg>