<svg xmlns="http://www.w3.org/2000/svg" data-name="Layer 1" viewBox="0 0 30 30" x="0pt" y="0pt"><title>connection-social-network-relationship-link-complex</title><path d="M26,23a3.063,3.063,0,0,0-.409.041l-2.49-4.15a4.945,4.945,0,0,0-.715-8.257l2.205-3.675A3.063,3.063,0,0,0,25,7a3.022,3.022,0,1,0-2.189-.962l-2.4,4C20.272,10.03,20.14,10,20,10a4.966,4.966,0,0,0-2.848.9l-8.2-5.465A3.883,3.883,0,0,0,9,5a4.034,4.034,0,1,0-.779,2.349l7.542,5.028A4.947,4.947,0,0,0,15.1,14H8.816a3,3,0,1,0,0,2H15.1a4.947,4.947,0,0,0,.662,1.623L8.221,22.651A3.983,3.983,0,1,0,9,25a3.883,3.883,0,0,0-.044-.435l8.2-5.465a4.8,4.8,0,0,0,4.163.7l2.5,4.16A2.991,2.991,0,1,0,26,23ZM25,3a1,1,0,1,1-1,1A1,1,0,0,1,25,3ZM5,7A2,2,0,1,1,7,5,2,2,0,0,1,5,7ZM5,27a2,2,0,1,1,2-2A2,2,0,0,1,5,27ZM6,16a1,1,0,1,1,1-1A1,1,0,0,1,6,16Zm11-1a3,3,0,1,1,3,3A3,3,0,0,1,17,15Zm9,12a1,1,0,1,1,1-1A1,1,0,0,1,26,27Z"></path></svg>