<svg xmlns="http://www.w3.org/2000/svg" data-name="Layer 1" viewBox="0 0 100 100" x="0pt" y="0pt"><title>117all</title><path d="M71.12,15.26A31.73,31.73,0,0,0,18.51,35.53,31,31,0,0,0,29.7,63.08a10.93,10.93,0,0,1,4,8.32V81.73a11,11,0,0,0,11,11h10.5a11,11,0,0,0,11-11V71.85A11.06,11.06,0,0,1,70,63.56a31.8,31.8,0,0,0,1.12-48.3ZM60.23,81.73a5,5,0,0,1-5,5H44.73a5,5,0,0,1-5-5V75.07h20.5ZM66.13,59a17.17,17.17,0,0,0-5.67,10.1H53V47.5h5.3a3,3,0,0,0,0-6H41.68a3,3,0,0,0,0,6H47V69.07H39.55a17.39,17.39,0,0,0-6-10.59,24.77,24.77,0,0,1-9.06-22.32,25.67,25.67,0,0,1,51.2,2.79A26,26,0,0,1,66.13,59Z"></path></svg>