<?xml version="1.0" encoding="utf-8"?>
<!-- Generator: Adobe Illustrator 21.1.0, SVG Export Plug-In . SVG Version: 6.00 Build 0)  -->
<svg version="1.1" id="Layer_1" xmlns="http://www.w3.org/2000/svg" xmlns:xlink="http://www.w3.org/1999/xlink" x="0pt" y="0pt"
	 viewBox="0 0 85 85" style="enable-background:new 0 0 85 85;" xml:space="preserve">
<style type="text/css">
	.st0{fill:none;stroke:#1A171B;stroke-width:3;stroke-miterlimit:10;}
	.st1{fill:none;stroke:#1A171B;stroke-width:3;stroke-linecap:round;stroke-miterlimit:10;}
</style>
<title>117all</title>
<path class="st0" d="M61.7,9.8C49.8-1.1,31.6,0,21,12.3c-4,4.6-6.4,10.4-7.1,16.6c-1.1,9.9,3.6,19.6,11,25.9
	c2.3,1.9,3.6,4.8,3.6,7.8v9.7c0,5.7,4.5,10.3,10,10.3h7.7c5.5,0,10-4.6,10-10.3v-9.3c0-3,1.3-5.8,3.4-7.8
	c12.3-10.5,15.1-29.3,5-42.1C63.8,12,62.8,10.9,61.7,9.8z"/>
<polyline class="st0" points="28.6,65.2 42.3,65.2 56.3,65.2 "/>
<line class="st0" x1="42.5" y1="37.2" x2="42.5" y2="65.2"/>
<line class="st1" x1="33.4" y1="37.2" x2="51.9" y2="37.2"/>
</svg>
