<?xml version="1.0" encoding="utf-8"?>
<!-- Generator: Adobe Illustrator 21.1.0, SVG Export Plug-In . SVG Version: 6.00 Build 0)  -->
<svg version="1.1" id="Layer_1" xmlns="http://www.w3.org/2000/svg" xmlns:xlink="http://www.w3.org/1999/xlink" x="0pt" y="0pt"
	 viewBox="0 0 85 85" style="enable-background:new 0 0 85 85;" xml:space="preserve">
<style type="text/css">
	.st0{fill:#1A171B;}
	.st1{fill:none;stroke:#1A171B;stroke-width:3;stroke-miterlimit:10;}
	.st2{fill:none;stroke:#1A171B;stroke-width:3;stroke-linecap:round;stroke-miterlimit:10;}
</style>
<path class="st0" d="M56.9,27.9h-28c0-0.2,0-0.4,0-0.5c0-1.5,0.4-3.9,2.7-4.5c3.5-0.9,6.5-2.3,6.6-2.3c0.3-0.4,0.4-1.2,0.5-1.6
	c-0.9-1.2-1.3-2.6-1.5-3.8c-0.4,0-0.8-0.5-1.2-2.1c-0.6-2.1,0-2.6,0.5-2.6h0.1C36.1,9.2,36.1,8,36.4,7c0.3-1.2,1-2.3,1.8-3.1
	c0.4-0.5,1.1-1,1.6-1.3c0.4-0.4,1-0.6,1.6-0.8l0,0l0,0c0.4-0.2,0.9-0.3,1.4-0.3c0.2,0,0.4,0,0.6,0c1.2,0,2.2,0.4,3,0.8
	c1.2,0.7,1.8,1.7,1.8,1.7s3.2,0.3,1.8,7l0,0c0.4,0.2,0.7,0.7,0.3,2.5c-0.4,1.7-0.9,2.1-1.2,2.1c-0.1,0-0.2,0-0.3-0.1
	c-0.2,1.2-0.6,2.4-1.4,3.5c0.1,0.5,0.3,1.3,0.6,1.9c0,0,2.9,1.3,6.4,2.2c2.3,0.5,2.7,2.9,2.7,4.5C56.9,27.5,56.9,27.7,56.9,27.9z"/>
<path class="st0" d="M84.3,83.6c0-1.5-0.4-3.9-2.7-4.5C78,78.3,75.2,77,75.2,77c-0.4-0.4-0.5-1.3-0.6-1.9c0.8-1.1,1.2-2.3,1.4-3.5
	c0.1,0.1,0.2,0.1,0.3,0.1c0.4,0,0.8-0.4,1.2-2.1c0.5-1.8,0.2-2.4-0.3-2.5l0,0c1.4-6.8-1.8-7-1.8-7s-0.4-1-1.8-1.7
	c-0.7-0.4-1.7-0.8-3-0.8c-0.2,0-0.4,0-0.6,0c-0.5,0-1,0.1-1.4,0.3l0,0l0,0c-0.5,0.2-1.1,0.4-1.6,0.8c-0.6,0.4-1.2,0.8-1.6,1.3
	c-0.8,0.8-1.4,1.9-1.8,3.1c-0.3,1.1-0.3,2.3,0.2,3.5h-0.1c-0.5,0-1.1,0.4-0.5,2.6c0.4,1.7,0.9,2.1,1.2,2.1c0.2,1.2,0.6,2.6,1.5,3.8
	c-0.1,0.4-0.3,1.2-0.5,1.6c0,0-3,1.5-6.6,2.3c-2.3,0.5-2.7,2.9-2.7,4.5c0,0.2,0,0.4,0,0.5h28C84.3,84.1,84.3,83.9,84.3,83.6z"/>
<path class="st0" d="M28.8,83.6c0-1.5-0.4-3.9-2.7-4.5c-3.6-0.9-6.4-2.2-6.4-2.2c-0.4-0.4-0.5-1.3-0.6-1.9c0.8-1.1,1.2-2.3,1.4-3.5
	c0.1,0.1,0.2,0.1,0.3,0.1c0.4,0,0.8-0.4,1.2-2.1c0.5-1.8,0.2-2.4-0.3-2.5l0,0c1.4-6.8-1.8-7-1.8-7s-0.4-1-1.8-1.7
	c-0.7-0.4-1.7-0.8-3-0.8c-0.2,0-0.4,0-0.6,0c-0.5,0-1,0.1-1.4,0.3l0,0l0,0c-0.5,0.2-1.1,0.4-1.6,0.8c-0.6,0.4-1.2,0.8-1.6,1.3
	c-0.8,0.8-1.4,1.9-1.8,3.1c-0.3,1.1-0.3,2.3,0.2,3.5H8.2c-0.5,0-1.1,0.4-0.5,2.6c0.4,1.7,0.9,2.1,1.2,2.1c0.2,1.2,0.6,2.6,1.5,3.8
	c-0.1,0.4-0.3,1.2-0.5,1.6c0,0-3,1.5-6.6,2.3C1,79.6,0.7,82,0.7,83.5c0,0.2,0,0.4,0,0.5h28C28.8,84.1,28.8,83.9,28.8,83.6z"/>
<circle class="st1" cx="43" cy="50.3" r="4.4"/>
<circle class="st1" cx="43" cy="50.3" r="11.2"/>
<line class="st1" x1="48.5" y1="40.6" x2="45.3" y2="46.6"/>
<line class="st1" x1="45.3" y1="54.6" x2="48.5" y2="59.9"/>
<line class="st1" x1="31.8" y1="50.3" x2="38.6" y2="50.3"/>
<line class="st2" x1="43" y1="39.1" x2="43" y2="35"/>
<line class="st2" x1="43" y1="65.5" x2="43" y2="61.4"/>
<line class="st2" x1="54.1" y1="50.3" x2="58.2" y2="50.3"/>
<line class="st2" x1="27.7" y1="50.3" x2="31.8" y2="50.3"/>
<line class="st2" x1="50.8" y1="58.2" x2="53.7" y2="61"/>
<line class="st2" x1="32.2" y1="39.5" x2="35.1" y2="42.4"/>
<line class="st2" x1="35.1" y1="58.5" x2="32.2" y2="61.4"/>
<line class="st2" x1="54.1" y1="39.5" x2="51.2" y2="42.4"/>
</svg>
