<svg xmlns="http://www.w3.org/2000/svg" xmlns:xlink="http://www.w3.org/1999/xlink" version="1.1" x="0pt" y="0pt" viewBox="0 0 100 100" enable-background="new 0 0 100 100" xml:space="preserve"><path fill="#000000" d="M81.82,18.18C73.033,9.393,61.516,5,50,5S26.967,9.393,18.18,18.18c-17.573,17.573-17.573,46.067,0,63.64  C26.967,90.607,38.484,95,50,95s23.033-4.393,31.82-13.18C99.393,64.247,99.393,35.753,81.82,18.18z M26.135,26.135  C32.51,19.761,40.985,16.25,50,16.25c7.21,0,14.056,2.28,19.777,6.44c-0.434,0.245-0.884,0.463-1.254,0.833l-45,45  c-0.349,0.349-0.547,0.775-0.784,1.181C13.207,56.519,14.27,38,26.135,26.135z M73.865,73.865C67.49,80.239,59.015,83.75,50,83.75  c-7.21,0-14.056-2.28-19.777-6.44c0.434-0.245,0.884-0.463,1.254-0.833l45-45c0.349-0.349,0.547-0.775,0.784-1.181  C86.793,43.481,85.73,62,73.865,73.865z"></path></svg>