<?xml version="1.0" encoding="utf-8"?>
<!-- Generator: Adobe Illustrator 21.1.0, SVG Export Plug-In . SVG Version: 6.00 Build 0)  -->
<svg version="1.1" id="Layer_1" xmlns="http://www.w3.org/2000/svg" xmlns:xlink="http://www.w3.org/1999/xlink" x="0pt" y="0pt"
	 viewBox="0 0 85 85" style="enable-background:new 0 0 85 85;" xml:space="preserve">
<style type="text/css">
	.st0{fill:none;stroke:#1A171B;stroke-width:4;stroke-linecap:round;stroke-linejoin:round;stroke-miterlimit:10;}
	.st1{fill:#1A171B;}
</style>
<polyline class="st0" points="28.2,50.1 38,59.9 58,39.8 "/>
<path class="st1" d="M78.5,25.1L78.5,25.1c-0.1-0.2-0.1-0.4-0.2-0.6c-0.3-0.5-0.7-0.8-1.1-1c-0.4-0.2-0.7-0.2-1-0.2h-0.1l-0.1,0
	c-1.6,0.2-3.1,0.3-4.5,0.3c-4.4,0-8.2-0.8-11.4-2.2c-4.8-2-8.3-5-10.9-7.9c-2.5-2.9-4-5.6-4.6-6.8l0,0c-0.2-0.4-0.5-0.8-0.9-1
	c-0.4-0.2-0.8-0.3-1.2-0.3c-0.4,0-0.8,0.1-1.2,0.3c-0.4,0.2-0.7,0.6-0.9,1.1l0,0c-0.7,1.6-2.9,5.8-7.3,9.6c-2.2,1.9-4.9,3.6-8.3,4.9
	c-3.4,1.3-7.5,2.1-12.5,2.1c-1.1,0-2.2,0-3.3-0.1l-0.1,0H8.7c-0.4,0-0.9,0.1-1.4,0.4c-0.2,0.2-0.5,0.4-0.7,0.8
	c-0.1,0.2-0.2,0.4-0.2,0.6l0,0C6,26.6,4.5,32.8,4.5,41.2c0,5.9,0.7,13,3,20.3c2.2,6.9,5.8,14.1,11.6,20.6V79h2.6
	c-5.2-6-8.4-12.4-10.4-18.7c-2.2-6.8-2.8-13.5-2.8-19.1c0-6.4,0.9-11.4,1.4-13.8c0.8,0,1.5,0.1,2.3,0.1c5.4,0,10-0.9,13.9-2.4
	c5.8-2.2,10-5.7,12.8-8.9c1.6-1.8,2.7-3.5,3.6-5c1.4,2.3,3.7,5.4,7,8.3c2.4,2.1,5.5,4.2,9.1,5.7c3.7,1.5,7.9,2.5,12.9,2.5
	c1.1,0,2.3-0.1,3.5-0.2c0.5,2.4,1.4,7.4,1.4,13.6c0,5.6-0.7,12.3-2.8,19.1c-2,6.3-5.3,12.8-10.4,18.8h3v2.6
	c5.6-6.5,9.1-13.5,11.2-20.2c2.3-7.3,3-14.4,3-20.3C80.3,32.8,78.9,26.7,78.5,25.1z"/>
</svg>
