<svg xmlns="http://www.w3.org/2000/svg" xmlns:xlink="http://www.w3.org/1999/xlink" version="1.1" x="0pt" y="0pt" viewBox="0 0 48 48" style="enable-background:new 0 0 48 48;" xml:space="preserve"><g><path d="M33,24H15c-0.552,0-1-0.448-1-1v-4c0-0.552,0.448-1,1-1h18c0.552,0,1,0.448,1,1v4C34,23.552,33.552,24,33,24z M16,22h16v-2   H16V22z"></path><path d="M35,44H13c-0.552,0-1-0.447-1-1v-4c0-0.553,0.448-1,1-1h22c0.552,0,1,0.447,1,1v4C36,43.553,35.552,44,35,44z M14,42h20v-2   H14V42z"></path><path d="M39,48H9c-0.552,0-1-0.447-1-1v-4c0-0.553,0.448-1,1-1h30c0.552,0,1,0.447,1,1v4C40,47.553,39.552,48,39,48z M10,46h28v-2   H10V46z"></path><path d="M15,40c-0.552,0-1-0.447-1-1s0.448-1,1-1c1.654,0,3-1.346,3-3V23c0-0.552,0.448-1,1-1s1,0.448,1,1v12   C20,37.757,17.757,40,15,40z"></path><path d="M33,40c-2.757,0-5-2.243-5-5V23c0-0.552,0.448-1,1-1s1,0.448,1,1v12c0,1.654,1.346,3,3,3c0.552,0,1,0.447,1,1   S33.552,40,33,40z"></path><path d="M29,20H19c-0.417,0-0.79-0.259-0.937-0.649l-3-8c-0.156-0.416-0.019-0.885,0.336-1.151l8-6   c0.355-0.267,0.845-0.267,1.201,0l8,6c0.354,0.266,0.491,0.735,0.336,1.151l-3,8C29.79,19.741,29.417,20,29,20z M19.693,18h8.614   l2.494-6.649L24,6.25l-6.801,5.101L19.693,18z"></path><path d="M24,6c-1.654,0-3-1.346-3-3s1.346-3,3-3c1.654,0,3,1.346,3,3S25.654,6,24,6z M24,2c-0.551,0-1,0.449-1,1s0.449,1,1,1   s1-0.449,1-1S24.551,2,24,2z"></path><path d="M19,20c-0.397,0-0.772-0.238-0.929-0.629l-6-15c-0.205-0.513,0.044-1.095,0.557-1.3c0.516-0.202,1.095,0.045,1.3,0.557   l6,15c0.205,0.513-0.044,1.095-0.557,1.3C19.25,19.977,19.124,20,19,20z"></path><path d="M29,20c-0.124,0-0.249-0.023-0.371-0.072c-0.513-0.206-0.762-0.787-0.557-1.3l6-15c0.205-0.512,0.787-0.759,1.3-0.557   c0.513,0.206,0.762,0.787,0.558,1.3l-6,15C29.771,19.762,29.396,20,29,20z"></path><path d="M32,12H16c-0.552,0-1-0.448-1-1s0.448-1,1-1h16c0.552,0,1,0.448,1,1S32.552,12,32,12z"></path></g></svg>