<?xml version="1.0" encoding="utf-8"?>
<!-- Generator: Adobe Illustrator 21.1.0, SVG Export Plug-In . SVG Version: 6.00 Build 0)  -->
<svg version="1.1" id="Layer_1" xmlns="http://www.w3.org/2000/svg" xmlns:xlink="http://www.w3.org/1999/xlink" x="0pt" y="0pt"
	 viewBox="0 0 85 85" style="enable-background:new 0 0 85 85;" xml:space="preserve">
<style type="text/css">
	.st0{fill:none;stroke:#1A171B;stroke-width:3;stroke-miterlimit:10;}
	.st1{fill:none;stroke:#1A171B;stroke-width:3;stroke-linecap:round;stroke-miterlimit:10;}
	.st2{fill:none;stroke:#1A171B;stroke-width:3;stroke-linecap:round;stroke-linejoin:round;stroke-miterlimit:10;}
</style>
<path class="st0" d="M74.3,69.7H10.8C6,69.7,2,65.7,2,60.9v0c0-4.8,3.9-8.7,8.7-8.7h63.5c4.8,0,8.7,3.9,8.7,8.7v0
	C83,65.7,79.1,69.7,74.3,69.7z"/>
<path class="st0" d="M41.2,43.6H13.4c-0.6,0-1.2-0.5-1.2-1.2V14.7c0-0.6,0.5-1.2,1.2-1.2h27.8c0.6,0,1.2,0.5,1.2,1.2v27.8
	C42.3,43.1,41.8,43.6,41.2,43.6z"/>
<line class="st1" x1="53.9" y1="28.6" x2="74" y2="28.6"/>
<polyline class="st2" points="67.3,20.8 74.9,28.4 67.3,36.1 "/>
<polyline class="st2" points="22,13.5 22,25.5 27.3,23.4 32.4,25.5 32.4,13.5 "/>
<line class="st2" x1="13.4" y1="60.9" x2="21" y2="60.9"/>
<line class="st2" x1="38.5" y1="60.9" x2="46.1" y2="60.9"/>
<line class="st2" x1="63.5" y1="60.9" x2="71.1" y2="60.9"/>
</svg>
