<?xml version="1.0" encoding="utf-8"?>
<!-- Generator: Adobe Illustrator 21.1.0, SVG Export Plug-In . SVG Version: 6.00 Build 0)  -->
<svg version="1.1"
	 id="Layer_1" xmlns:cc="http://creativecommons.org/ns#" xmlns:dc="http://purl.org/dc/elements/1.1/" xmlns:inkscape="http://www.inkscape.org/namespaces/inkscape" xmlns:rdf="http://www.w3.org/1999/02/22-rdf-syntax-ns#" xmlns:sodipodi="http://sodipodi.sourceforge.net/DTD/sodipodi-0.dtd" xmlns:svg="http://www.w3.org/2000/svg"
	 xmlns="http://www.w3.org/2000/svg" xmlns:xlink="http://www.w3.org/1999/xlink" x="0pt" y="0pt" viewBox="0 0 85 85"
	 style="enable-background:new 0 0 85 85;" xml:space="preserve">
<style type="text/css">
	.st0{fill:none;}
</style>
<path class="st0" d="M39.8,61.1c-2.9,0-5.6-0.9-7.8-2.4H10.4c-0.4,0-0.8-0.2-1.1-0.4c-0.3-0.3-0.4-0.7-0.4-1.1V34.1
	c-1.3,1.7-3.3,3-5.5,3.4v19.5c3.6,0.6,6.5,3.5,7.2,7.2h55.6c0.4-2.2,1.6-4.1,3.2-5.4H47.6C45.4,60.2,42.7,61.1,39.8,61.1z"/>
<path class="st0" d="M72.9,34.4v-4.1h-4.1c0.3,1,0.8,1.9,1.5,2.6C71,33.6,71.9,34.1,72.9,34.4z"/>
<path class="st0" d="M65.7,30.3H11.9v25.4h16.9c-1.8-2.4-2.9-5.3-2.9-8.5c0-7.7,6.2-13.9,13.9-13.9c7.7,0,13.9,6.2,13.9,13.9
	c0,3.2-1.1,6.1-2.9,8.5h22.1V37.5C69.3,36.8,66.4,33.9,65.7,30.3z"/>
<path class="st0" d="M74.4,27.3c0.4,0,0.8,0.2,1.1,0.4s0.4,0.7,0.4,1.1v7.3v19.6h5.5V21.9H11.9v5.4h55.2H74.4z"/>
<path class="st0" d="M7.5,30.3H3.4v4.1c1-0.3,1.9-0.8,2.6-1.5C6.7,32.2,7.2,31.3,7.5,30.3z"/>
<path class="st0" d="M69.2,64.1h3.7v-4c-0.8,0.3-1.6,0.8-2.2,1.4C70,62.2,69.5,63.1,69.2,64.1z"/>
<path class="st0" d="M3.4,60v4.1h4.1c-0.3-1-0.8-1.9-1.5-2.6C5.3,60.8,4.4,60.3,3.4,60z"/>
<path class="st0" d="M50.7,47.2c0-3-1.2-5.7-3.2-7.7c-2-2-4.7-3.2-7.7-3.2c-3,0-5.7,1.2-7.7,3.2c-2,2-3.2,4.7-3.2,7.7
	c0,3,1.2,5.7,3.2,7.7c0.3,0.3,0.6,0.5,0.9,0.8h13.6c0.3-0.2,0.6-0.5,0.9-0.8C49.5,52.9,50.7,50.2,50.7,47.2z"/>
<path d="M84,19.3c-0.3-0.3-0.7-0.4-1.1-0.4H10.4c-0.4,0-0.8,0.2-1.1,0.4c-0.3,0.3-0.4,0.7-0.4,1.1v6.9h0.3h2.7v-5.4h69.5v33.8h-5.5
	v1.6c0.3,0.3,0.4,0.6,0.4,1v0.4h6.6c0.4,0,0.8-0.2,1.1-0.4c0.3-0.3,0.4-0.7,0.4-1.1V20.4C84.4,20,84.2,19.6,84,19.3z"/>
<path d="M39.8,61.1c2.9,0,5.6-0.9,7.8-2.4H32C34.2,60.2,36.9,61.1,39.8,61.1z"/>
<path d="M32.1,54.9c-2-2-3.2-4.7-3.2-7.7c0-3,1.2-5.7,3.2-7.7c2-2,4.7-3.2,7.7-3.2c3,0,5.7,1.2,7.7,3.2c2,2,3.2,4.7,3.2,7.7
	c0,3-1.2,5.7-3.2,7.7c-0.3,0.3-0.6,0.5-0.9,0.8h4.2c1.8-2.4,2.9-5.3,2.9-8.5c0-7.7-6.2-13.9-13.9-13.9c-7.7,0-13.9,6.2-13.9,13.9
	c0,3.2,1.1,6.1,2.9,8.5H33C32.7,55.5,32.4,55.2,32.1,54.9z"/>
<path d="M32,58.7h15.6c1.2-0.8,2.3-1.8,3.2-3h-4.2c-1.9,1.5-4.2,2.4-6.8,2.4c-2.6,0-4.9-0.9-6.8-2.4h-4.2
	C29.7,56.9,30.8,57.9,32,58.7z"/>
<path d="M66.1,64.1H10.6c-0.6-3.6-3.5-6.5-7.2-7.2V37.5c2.2-0.4,4.2-1.6,5.5-3.4v-6.8h-7c-0.4,0-0.8,0.2-1.1,0.4s-0.4,0.7-0.4,1.1
	v7.3v22.2v7.3c0,0.4,0.2,0.8,0.4,1.1c0.3,0.3,0.7,0.4,1.1,0.4h7.3h58.3h6.9h0.4c0.4,0,0.8-0.2,1.1-0.4c0.3-0.3,0.4-0.7,0.4-1.1v-6.9
	h-6.9C67.7,60,66.5,61.9,66.1,64.1z M3.4,30.3h4.1c-0.3,1-0.8,1.9-1.5,2.6c-0.7,0.7-1.6,1.2-2.6,1.5V30.3z M3.4,64.1V60
	c1,0.3,1.9,0.8,2.6,1.5c0.7,0.7,1.2,1.6,1.5,2.6H3.4z M72.9,64.1h-3.7c0.3-1,0.8-1.9,1.5-2.6c0.6-0.6,1.4-1.1,2.2-1.4V64.1z"/>
<path d="M65.7,30.3c0.6,3.6,3.5,6.5,7.2,7.2v18.2h3V36.1v-7.3c0-0.4-0.2-0.8-0.4-1.1s-0.7-0.4-1.1-0.4h-7.3H11.9v3H65.7z M72.9,30.3
	v4.1c-1-0.3-1.9-0.8-2.6-1.5c-0.7-0.7-1.2-1.6-1.5-2.6H72.9z"/>
<path d="M10.6,30.3h1.3v-3H9.2H8.9v6.8C9.7,33,10.3,31.7,10.6,30.3z"/>
<path d="M75.9,57.3v-1.6h-3V57c-1.3,0.3-2.5,0.9-3.5,1.7h6.9v-0.4C76.3,57.9,76.2,57.6,75.9,57.3z"/>
</svg>
