<?xml version="1.0" encoding="utf-8"?>
<!-- Generator: Adobe Illustrator 21.1.0, SVG Export Plug-In . SVG Version: 6.00 Build 0)  -->
<svg version="1.1" id="Layer_1" xmlns="http://www.w3.org/2000/svg" xmlns:xlink="http://www.w3.org/1999/xlink" x="0pt" y="0pt"
	 viewBox="0 0 85 85" style="enable-background:new 0 0 85 85;" xml:space="preserve">
<style type="text/css">
	.st0{stroke:#000000;stroke-width:3.0454;stroke-miterlimit:10;}
	.st1{fill:none;stroke:#000000;stroke-width:3;stroke-linecap:round;stroke-miterlimit:10;}
</style>
<path d="M42.3,83.3c2.9,0,8.7-1.5,10.1-3.7H32.3C33.6,81.8,39.4,83.3,42.3,83.3z"/>
<path d="M42.5,10.8c-14.4,0-26,11.7-26,26c0,14.4,11.9,17.1,15.6,28.3h20.8c3.7-11.2,15.6-13.9,15.6-28.3
	C68.6,22.5,56.9,10.8,42.5,10.8z M44.4,49.4v4.2h-4v-3.9c-2.8-0.1-5.4-0.9-7-1.8l1.2-4.8c1.7,0.9,4.1,1.8,6.8,1.8
	c2.3,0,3.9-0.9,3.9-2.5c0-1.6-1.3-2.5-4.3-3.6c-4.4-1.5-7.4-3.5-7.4-7.5c0-3.6,2.5-6.4,6.9-7.3v-3.9h4v3.6c2.7,0.1,4.6,0.7,5.9,1.3
	l-1.2,4.6c-1.1-0.5-3-1.4-5.9-1.4c-2.7,0-3.5,1.1-3.5,2.3c0,1.3,1.4,2.2,4.9,3.5c4.9,1.7,6.8,4,6.8,7.7
	C51.7,45.4,49.1,48.5,44.4,49.4z"/>
<line class="st0" x1="31.8" y1="69.5" x2="52.9" y2="69.5"/>
<line class="st0" x1="31.8" y1="75" x2="52.9" y2="75"/>
<line class="st1" x1="42.3" y1="7.7" x2="42.3" y2="2.2"/>
<line class="st1" x1="71.9" y1="37.9" x2="77.4" y2="37.9"/>
<line class="st1" x1="64.7" y1="17.8" x2="68.6" y2="13.9"/>
<line class="st1" x1="16.1" y1="13.9" x2="20" y2="17.8"/>
<line class="st1" x1="20" y1="55.3" x2="16.1" y2="59.2"/>
<line class="st1" x1="68.6" y1="59.2" x2="64.7" y2="55.3"/>
<line class="st1" x1="7.6" y1="37.9" x2="13.1" y2="37.9"/>
</svg>
