<svg xmlns="http://www.w3.org/2000/svg" xmlns:xlink="http://www.w3.org/1999/xlink" version="1.1" x="0pt" y="0pt" viewBox="0 0 100 100" enable-background="new 0 0 100 100" xml:space="preserve"><rect x="39.587" y="79.38" width="20.826" height="3.72"></rect><rect x="39.587" y="85.331" width="20.826" height="3.719"></rect><path d="M50,95c2.751,0,8.124-1.498,9.41-3.719H40.59C41.876,93.502,47.249,95,50,95z"></path><path d="M50,22.852c-14.378,0-26.033,11.655-26.033,26.033c0,14.377,11.901,17.107,15.62,28.264h20.826  c3.719-11.155,15.62-13.887,15.62-28.264C76.033,34.507,64.378,22.852,50,22.852z M51.839,61.417v4.172h-4.008v-3.89  c-2.752-0.119-5.419-0.856-6.969-1.766l1.241-4.781c1.719,0.938,4.125,1.802,6.791,1.802c2.331,0,3.931-0.903,3.931-2.544  c0-1.557-1.313-2.533-4.339-3.561c-4.375-1.474-7.373-3.521-7.373-7.491c0-3.605,2.546-6.434,6.928-7.291v-3.891h4.005v3.604  c2.74,0.123,4.599,0.695,5.938,1.344l-1.176,4.635c-1.08-0.452-2.961-1.395-5.914-1.395c-2.66,0-3.514,1.146-3.514,2.298  c0,1.344,1.439,2.205,4.912,3.513c4.867,1.721,6.844,3.98,6.844,7.666C59.137,57.482,56.544,60.594,51.839,61.417z"></path><path d="M93.141,46.653h-8.926c-0.41,0-0.744,0.332-0.744,0.743v2.976c0,0.41,0.334,0.743,0.744,0.743h8.926  c0.411,0,0.744-0.333,0.744-0.743v-2.976C93.884,46.985,93.552,46.653,93.141,46.653z"></path><path d="M15.785,46.653H6.859c-0.411,0-0.744,0.332-0.744,0.743v2.976c0,0.41,0.333,0.743,0.744,0.743h8.926  c0.41,0,0.744-0.333,0.744-0.743v-2.976C16.529,46.985,16.195,46.653,15.785,46.653z"></path><path d="M74.719,26.268c0.291,0.291,0.762,0.291,1.053,0.001l6.311-6.312c0.291-0.291,0.291-0.762,0-1.052l-2.104-2.104  c-0.291-0.291-0.762-0.291-1.053,0l-6.311,6.311c-0.291,0.291-0.291,0.762,0,1.052L74.719,26.268z"></path><path d="M25.28,71.501c-0.291-0.291-0.761-0.291-1.052,0l-6.312,6.312c-0.291,0.289-0.291,0.761,0,1.052l2.104,2.104  c0.291,0.29,0.761,0.29,1.052,0l6.311-6.311c0.291-0.291,0.291-0.763,0-1.052L25.28,71.501z"></path><path d="M48.512,15.413h2.976c0.41,0,0.744-0.333,0.744-0.744V5.744C52.23,5.333,51.898,5,51.488,5h-2.976  c-0.411,0-0.744,0.333-0.744,0.744v8.925C47.768,15.08,48.101,15.413,48.512,15.413z"></path><path d="M24.229,26.269c0.291,0.291,0.761,0.291,1.052,0l2.104-2.104c0.291-0.29,0.291-0.761,0-1.052l-6.311-6.312  c-0.291-0.29-0.761-0.29-1.052,0l-2.104,2.104c-0.291,0.291-0.291,0.762,0,1.052L24.229,26.269z"></path><path d="M75.771,71.501c-0.291-0.291-0.762-0.291-1.053,0l-2.104,2.104c-0.291,0.289-0.291,0.761,0,1.052l6.312,6.311  c0.291,0.291,0.761,0.291,1.052,0l2.104-2.104c0.291-0.291,0.291-0.763,0-1.052L75.771,71.501z"></path></svg>