<svg xmlns:dc="http://purl.org/dc/elements/1.1/" xmlns:cc="http://creativecommons.org/ns#" xmlns:rdf="http://www.w3.org/1999/02/22-rdf-syntax-ns#" xmlns:svg="http://www.w3.org/2000/svg" xmlns="http://www.w3.org/2000/svg" xmlns:sodipodi="http://sodipodi.sourceforge.net/DTD/sodipodi-0.dtd" xmlns:inkscape="http://www.inkscape.org/namespaces/inkscape" version="1.1" x="0pt" y="0pt" viewBox="0 0 100 100"><g transform="translate(0,-952.36218)"><path style="text-indent:0;text-transform:none;direction:ltr;block-progression:tb;baseline-shift:baseline;color:#000000;enable-background:accumulate;" d="m 14.6875,975.36442 c -1.46384,0.15343 -2.69537,1.52809 -2.6875,2.99987 l 0,4.9998 c 0,0 -4.2084276,-0.005 -4.3125,0 -1.4638399,0.15343 -2.6953697,1.52809 -2.6875,2.99987 l 0,39.99834 c 1.433e-4,1.5707 1.4292379,2.9997 3,2.9999 l 76,0 c 1.570762,-2e-4 2.999857,-1.4292 3,-2.9999 l 0,-3.9998 5,0 c 1.570762,-2e-4 2.999857,-1.4293 3,-2.9999 l 0,-40.99831 c -1.59e-4,-1.57068 -1.429248,-2.99971 -3,-2.99987 0,0 -77.208428,-0.005 -77.3125,0 z m 3.3125,5.99976 71,0 0,34.99862 -2,0 0,-29.99884 c -1.59e-4,-1.57068 -1.429248,-2.99971 -3,-2.99987 l -66,0 z m -7,7.99967 4.40625,0 c -0.808159,2.01893 -2.387175,3.62996 -4.40625,4.43731 z m 10.6875,0 48.625,0 c 1.17078,5.30276 5.388777,9.50775 10.6875,10.68705 l 0,12.6557 c -5.29871,1.1743 -9.516715,5.3581 -10.6875,10.6558 l -48.625,0 C 20.516715,1018.0647 16.29871,1013.8809 11,1012.7066 l 0,-12.6557 c 5.298723,-1.1793 9.51672,-5.38429 10.6875,-10.68705 z m 54.90625,0 4.40625,0 0,4.43731 c -2.019076,-0.80735 -3.598092,-2.41838 -4.40625,-4.43731 z M 46,992.36372 c -7.696459,0 -14,6.30323 -14,13.99938 0,7.6961 6.303538,13.9995 14,13.9995 7.696462,0 14,-6.3034 14,-13.9995 0,-7.69615 -6.303542,-13.99938 -14,-13.99938 z m 0,5.99975 c 4.453802,0 8,3.54593 8,7.99963 0,4.4535 -3.546202,7.9997 -8,7.9997 -4.4538,0 -8,-3.5462 -8,-7.9997 0,-4.4537 3.546197,-7.99963 8,-7.99963 z m -35,20.59283 c 2.015848,0.8023 3.599013,2.3954 4.40625,4.4061 l -4.40625,0 z m 70,0 0,4.4061 -4.40625,0 c 0.807238,-2.0107 2.390403,-3.6037 4.40625,-4.4061 z" fill="#000000" fill-opacity="1" stroke="none" marker="none" visibility="visible" display="inline" overflow="visible"></path></g></svg>