<svg xmlns="http://www.w3.org/2000/svg" viewBox="0 0 66 47" x="0pt" y="0pt"><path fill="#000000" fill-rule="evenodd" d="M297,110 C297,105.58021 300.579404,102 305.001547,102 L354.998453,102 C359.414994,102 363,105.586996 363,110 C363,114.41979 359.420596,118 354.998453,118 L305.001547,118 C300.585006,118 297,114.413004 297,110 Z M299,110 C299,113.308683 301.689824,116 305.001547,116 L354.998453,116 C358.315926,116 361,113.315321 361,110 C361,106.691317 358.310176,104 354.998453,104 L305.001547,104 C301.684074,104 299,106.684679 299,110 Z M306,71 L330,71 C330.552285,71 331,71.4477153 331,72 L331,96 C331,96.5522847 330.552285,97 330,97 L306,97 C305.447715,97 305,96.5522847 305,96 L305,72 C305,71.4477153 305.447715,71 306,71 Z M315,73 L315,80.381966 L317.552786,79.1055728 C317.834314,78.9648091 318.165686,78.9648091 318.447214,79.1055728 L321,80.381966 L321,73 L315,73 Z M313,73 L307,73 L307,95 L329,95 L329,73 L323,73 L323,82 C323,82.743382 322.217687,83.2268777 321.552786,82.8944272 L318,81.118034 L314.447214,82.8944272 C313.782313,83.2268777 313,82.743382 313,82 L313,73 Z M353.585786,83 L349.292893,78.7071068 C348.902369,78.3165825 348.902369,77.6834175 349.292893,77.2928932 C349.683418,76.9023689 350.316582,76.9023689 350.707107,77.2928932 L356.707107,83.2928932 C357.097631,83.6834175 357.097631,84.3165825 356.707107,84.7071068 L350.707107,90.7071068 C350.316582,91.0976311 349.683418,91.0976311 349.292893,90.7071068 C348.902369,90.3165825 348.902369,89.6834175 349.292893,89.2928932 L353.585786,85 L339,85 C337.666667,85 337.666667,83 339,83 L353.585786,83 Z M307,111 C306.447715,111 306,110.552285 306,110 C306,109.447715 306.447715,109 307,109 L313,109 C313.552285,109 314,109.447715 314,110 C314,110.552285 313.552285,111 313,111 L307,111 Z M347,111 C346.447715,111 346,110.552285 346,110 C346,109.447715 346.447715,109 347,109 L353,109 C353.552285,109 354,109.447715 354,110 C354,110.552285 353.552285,111 353,111 L347,111 Z M327,111 C326.447715,111 326,110.552285 326,110 C326,109.447715 326.447715,109 327,109 L333,109 C333.552285,109 334,109.447715 334,110 C334,110.552285 333.552285,111 333,111 L327,111 Z" transform="translate(-297 -71)"></path></svg>