<svg xmlns="http://www.w3.org/2000/svg" xmlns:xlink="http://www.w3.org/1999/xlink" version="1.1" x="0pt" y="0pt" viewBox="0 0 100 100" style="enable-background:new 0 0 100 100;" xml:space="preserve"><polygon points="46,73.7 32.8,60.5 37.7,55.7 46,64 63.3,46.7 68.2,51.6 "></polygon><path d="M94.5,33.9L93,26l-8.3,0.3c-3.2,0-19.6-0.6-26.9-12.3L49.9,1.6l-8,12.4c-7.2,11.6-23.6,12.2-26.7,12.2L6.8,26  l-1.6,7.9C5,35.4,2.6,49.2,6,65.4c2.1,10,6.7,22.3,16.6,32.9V94h5.2c-9-9.7-13.3-20.8-15.2-30c-3.1-14.9-1-27.5-0.7-28.9l0.4-2.2  l2.8,0.1c3.8,0,23.5-0.7,32.5-15.4l2.3-3.6l2.2,3.4C61.2,32.3,80.8,33,84.8,33c0,0,0,0,0,0l2.7-0.1l0.4,2.2  c0.3,1.4,2.5,13.7-0.7,28.9c-1.9,9.1-6.2,20.3-15.2,30h5.4v4.2c9.8-10.6,14.3-22.8,16.4-32.8C97.3,48.9,94.8,35.4,94.5,33.9z"></path></svg>