<?xml version="1.0" encoding="utf-8"?>
<!-- Generator: Adobe Illustrator 21.1.0, SVG Export Plug-In . SVG Version: 6.00 Build 0)  -->
<svg version="1.1"
	 id="Layer_1" xmlns:cc="http://creativecommons.org/ns#" xmlns:dc="http://purl.org/dc/elements/1.1/" xmlns:inkscape="http://www.inkscape.org/namespaces/inkscape" xmlns:rdf="http://www.w3.org/1999/02/22-rdf-syntax-ns#" xmlns:sodipodi="http://sodipodi.sourceforge.net/DTD/sodipodi-0.dtd" xmlns:svg="http://www.w3.org/2000/svg"
	 xmlns="http://www.w3.org/2000/svg" xmlns:xlink="http://www.w3.org/1999/xlink" x="0pt" y="0pt" viewBox="0 0 85 85"
	 style="enable-background:new 0 0 85 85;" xml:space="preserve">
<style type="text/css">
	.st0{fill:none;stroke:#1A171B;stroke-width:3;stroke-miterlimit:10;}
	.st1{fill:none;stroke:#1A171B;stroke-width:3;stroke-linecap:round;stroke-linejoin:round;stroke-miterlimit:10;}
	.st2{fill:#1A171B;}
</style>
<circle class="st0" cx="59.2" cy="59.3" r="20.6"/>
<polyline class="st1" points="59.2,46.8 59.2,59.3 70.4,59.3 "/>
<g>
	<rect x="51.7" y="21.4" class="st2" width="5" height="5"/>
	<path class="st2" d="M51.7,35.3c1.6-0.5,3.3-0.8,5-1v-2.9h-5V35.3z"/>
	<rect x="31.4" y="21.4" class="st2" width="5" height="5"/>
	<rect x="31.4" y="31.4" class="st2" width="5" height="5"/>
	<rect x="41.5" y="21.4" class="st2" width="5" height="5"/>
	<path class="st2" d="M34.3,62.5H5.4V15.2h57.3v19.2c1,0.1,2,0.3,3,0.6V3.7c0-0.4-0.2-0.8-0.4-1.1c-0.3-0.3-0.7-0.4-1.1-0.4H3.9
		c-0.4,0-0.8,0.2-1.1,0.4C2.6,2.9,2.4,3.3,2.4,3.7v10V64c0,0.4,0.2,0.8,0.4,1.1c0.3,0.3,0.7,0.4,1.1,0.4h31
		C34.6,64.5,34.4,63.5,34.3,62.5z M5.4,5.2h57.3v7H5.4V5.2z"/>
	<rect x="41.5" y="31.4" class="st2" width="5" height="5"/>
	<path class="st2" d="M31.4,51.6v5h2.8c0.2-1.7,0.5-3.4,1.1-5H31.4z"/>
	<rect x="11.3" y="31.4" class="st2" width="5" height="5"/>
	<rect x="11.3" y="41.5" class="st2" width="5" height="5"/>
	<rect x="11.3" y="51.6" class="st2" width="5" height="5"/>
	<rect x="11.3" y="21.4" class="st2" width="5" height="5"/>
	<rect x="21.4" y="21.4" class="st2" width="5" height="5"/>
	<rect x="21.4" y="41.5" class="st2" width="5" height="5"/>
	<rect x="31.4" y="41.5" class="st2" width="5" height="5"/>
	<rect x="21.4" y="51.6" class="st2" width="5" height="5"/>
	<rect x="21.4" y="31.4" class="st2" width="5" height="5"/>
</g>
</svg>
