<?xml version="1.0" encoding="utf-8"?>
<!-- Generator: Adobe Illustrator 21.1.0, SVG Export Plug-In . SVG Version: 6.00 Build 0)  -->
<svg version="1.1" id="Layer_1" xmlns="http://www.w3.org/2000/svg" xmlns:xlink="http://www.w3.org/1999/xlink" x="0pt" y="0pt"
	 viewBox="0 0 85 85" style="enable-background:new 0 0 85 85;" xml:space="preserve">
<style type="text/css">
	.st0{fill:none;stroke:#000000;stroke-width:3;stroke-miterlimit:10;}
	.st1{fill:#1A171B;}
	.st2{fill:none;stroke:#1A171B;stroke-width:3;stroke-linejoin:round;stroke-miterlimit:10;}
</style>
<path d="M53.2,58.5"/>
<path class="st0" d="M20.4,74.1h-3.5c1-9.9,6-14.3,11.8-18.4c4.8-3.4,8.6-6.9,8.6-13.1s-3.8-9.8-8.6-13.1c-6-4.2-10.9-8.6-11.8-18.4
	h51.3c-1,9.9-6,14.2-11.9,18.4c-4.8,3.4-8.6,6.9-8.6,13.1s3.8,9.8,8.6,13.1c6,4.2,10.9,8.6,11.8,18.4H20.4z"/>
<path d="M40.2,51.2"/>
<path d="M51,20.5L51,20.5h-8.6h-8.6l0,0c-2.2,0-4.1,2.3-2.9,5.1c0.2,0.3,0.3,0.4,0.6,0.7c2.8,2,6.1,4.6,8.4,7.7l0,0
	c0.6,0.9,1.6,1.4,2.7,1.4s2.1-0.5,2.7-1.4l0,0c2.3-3.2,5.6-5.7,8.4-7.7c0.3-0.2,0.4-0.4,0.6-0.7C55.1,22.8,53.2,20.5,51,20.5z"/>
<path class="st1" d="M52.6,58.4c-2.7-2-5.7-4.3-7.9-7.3c-0.5-0.7-1.3-1.1-2.2-1.1c-0.9,0-1.6,0.4-2.2,1.1l0,0
	c-2.2,3.1-5.2,5.4-7.9,7.3c-6.1,4.6-10.1,8.1-10.9,15.6h18.8h1.6h21.5C62.7,66.6,58.7,63.1,52.6,58.4z"/>
<rect x="12.7" y="2" class="st2" width="59.2" height="9"/>
<rect x="12.7" y="74.1" class="st2" width="59.2" height="9"/>
</svg>
