<svg xmlns:dc="http://purl.org/dc/elements/1.1/" xmlns:cc="http://creativecommons.org/ns#" xmlns:rdf="http://www.w3.org/1999/02/22-rdf-syntax-ns#" xmlns:svg="http://www.w3.org/2000/svg" xmlns="http://www.w3.org/2000/svg" xmlns:sodipodi="http://sodipodi.sourceforge.net/DTD/sodipodi-0.dtd" xmlns:inkscape="http://www.inkscape.org/namespaces/inkscape" version="1.1" x="0pt" y="0pt" viewBox="0 0 100 100"><g transform="translate(0,-952.36218)"><path style="font-size:medium;font-style:normal;font-variant:normal;font-weight:normal;font-stretch:normal;text-indent:0;text-align:start;text-decoration:none;line-height:normal;letter-spacing:normal;word-spacing:normal;text-transform:none;direction:ltr;block-progression:tb;writing-mode:lr-tb;text-anchor:start;baseline-shift:baseline;opacity:1;color:#000000;fill:#000000;fill-opacity:1;stroke:none;stroke-width:6;marker:none;visibility:visible;display:inline;overflow:visible;enable-background:accumulate;font-family:Sans;-inkscape-font-specification:Sans" d="M 50 20 C 36.679274 20 25.73971 29.40498 23.46875 42.0625 C 13.281517 42.35495 5 50.7687 5 61 C 5 71.413 13.564499 80 24 80 L 30 80 A 3.0003 3.0003 0 1 0 30 74 L 24 74 C 16.855235 74 11 68.124 11 61 C 11 53.876 16.855239 48 24 48 L 26 48 A 3.0003 3.0003 0 0 0 29 45.21875 C 29.837401 34.23405 38.713229 26 50 26 C 61.286771 26 70.162598 34.23405 71 45.21875 A 3.0003 3.0003 0 0 0 74 48 L 76 48 C 83.144762 48 89 53.876 89 61 C 89 68.124 83.144765 74 76 74 L 40 74 A 3.0003 3.0003 0 1 0 40 80 L 76 80 C 86.435501 80 95 71.413 95 61 C 95 50.7687 86.718484 42.35495 76.53125 42.0625 C 74.260289 29.40498 63.320726 20 50 20 z " transform="translate(0,952.36218)"></path></g></svg>