<?xml version="1.0" encoding="utf-8"?>
<!-- Generator: Adobe Illustrator 21.1.0, SVG Export Plug-In . SVG Version: 6.00 Build 0)  -->
<svg version="1.1" id="Layer_1" xmlns="http://www.w3.org/2000/svg" xmlns:xlink="http://www.w3.org/1999/xlink" x="0pt" y="0pt"
	 viewBox="0 0 100 100" style="enable-background:new 0 0 100 100;" xml:space="preserve">
<style type="text/css">
	.st0{fill:none;stroke:#000000;stroke-width:3;stroke-miterlimit:10;}
	.st1{fill:#1A171B;}
	.st2{fill:none;stroke:#1A171B;stroke-width:3;stroke-linejoin:round;stroke-miterlimit:10;}
</style>
<path d="M62.4,68.5"/>
<path class="st0" d="M24.4,86.5h-4c1.1-11.4,6.9-16.5,13.7-21.3c5.6-3.9,10-8,10-15.2c0-7.2-4.4-11.3-10-15.2
	c-6.9-4.9-12.6-9.9-13.7-21.3h59.4C78.6,24.9,72.9,29.9,66,34.8c-5.6,3.9-10,8-10,15.2c0,7.2,4.4,11.3,10,15.2
	c6.9,4.9,12.6,9.9,13.7,21.3H24.4z"/>
<path d="M47.4,60"/>
<path d="M59.8,24.5C59.8,24.5,59.8,24.5,59.8,24.5l-10,0l-10,0c0,0,0,0,0,0c-2.6,0-4.8,2.7-3.4,5.9c0.2,0.3,0.4,0.5,0.7,0.8
	c3.2,2.3,7,5.3,9.7,8.9c0,0,0,0,0,0c0.7,1,1.9,1.6,3.1,1.6s2.4-0.6,3.1-1.6c0,0,0,0,0,0c2.7-3.7,6.5-6.6,9.7-8.9
	c0.3-0.2,0.5-0.5,0.7-0.8C64.6,27.2,62.4,24.5,59.8,24.5z"/>
<path class="st1" d="M61.7,68.4c-3.1-2.3-6.6-5-9.1-8.5c-0.6-0.8-1.5-1.3-2.5-1.3c-1,0-1.9,0.5-2.5,1.3c0,0,0,0,0,0
	c-2.5,3.6-6,6.2-9.1,8.5c-7.1,5.3-11.7,9.4-12.6,18.1h21.8h1.9h24.9C73.4,77.9,68.8,73.8,61.7,68.4z"/>
<rect x="15.5" y="3.1" class="st2" width="68.5" height="10.4"/>
<rect x="15.5" y="86.5" class="st2" width="68.5" height="10.4"/>
</svg>
