<svg xmlns="http://www.w3.org/2000/svg" xmlns:xlink="http://www.w3.org/1999/xlink" version="1.1" x="0pt" y="0pt" viewBox="0 0 100 100" enable-background="new 0 0 100 100" xml:space="preserve"><g><path d="M63.896,42.63c5.358-3.789,12.56-8.89,13.497-20.13H80c1.381,0,2.5-1.119,2.5-2.5V10c0-1.381-1.119-2.5-2.5-2.5H20   c-1.381,0-2.5,1.119-2.5,2.5v10c0,1.381,1.119,2.5,2.5,2.5h2.607c0.937,11.24,8.139,16.341,13.498,20.13   C40.189,45.518,42.5,47.284,42.5,50s-2.311,4.482-6.395,7.37c-5.359,3.789-12.56,8.89-13.498,20.13H20c-1.381,0-2.5,1.119-2.5,2.5   v10c0,1.381,1.119,2.5,2.5,2.5h60c1.381,0,2.5-1.119,2.5-2.5V80c0-1.381-1.119-2.5-2.5-2.5h-2.607   c-0.937-11.24-8.139-16.341-13.497-20.13C59.811,54.482,57.5,52.716,57.5,50S59.811,45.518,63.896,42.63z M22.5,17.5v-5h55v5H22.5z    M77.5,82.5v5h-55v-5H77.5z M61.008,61.452c5.172,3.657,10.49,7.443,11.356,16.048h-3.008c-0.735-6.476-4.411-9.564-10.08-13.572   c-2.478-1.752-5.285-3.738-7.268-6.414c-0.472-0.637-1.217-1.012-2.009-1.012c-0.792,0-1.537,0.375-2.008,1.011   c0,0.001,0,0.001,0,0.001c-1.982,2.677-4.79,4.662-7.267,6.414c-5.668,4.008-9.344,7.096-10.08,13.572h-3.008   c0.866-8.605,6.184-12.391,11.356-16.048C43.175,58.495,47.5,55.437,47.5,50c0-5.436-4.325-8.495-8.508-11.453   c-5.172-3.656-10.49-7.442-11.356-16.047h44.728c-0.866,8.605-6.184,12.391-11.356,16.047C56.825,41.505,52.5,44.564,52.5,50   C52.5,55.437,56.825,58.495,61.008,61.452z"></path><path d="M58.888,34.23c-0.334-1.032-1.295-1.73-2.379-1.73c0,0,0,0-0.001,0L50,32.501L43.492,32.5c-0.001,0-0.001,0-0.001,0   c-1.084,0-2.045,0.699-2.379,1.73s0.036,2.161,0.915,2.796c2.021,1.46,4.311,3.254,5.964,5.485c0,0,0,0.001,0.001,0.001   c0.472,0.636,1.216,1.011,2.008,1.011s1.536-0.375,2.008-1.011c0.001,0,0.001-0.001,0.001-0.001   c1.653-2.231,3.942-4.025,5.964-5.485C58.852,36.391,59.222,35.262,58.888,34.23z"></path></g></svg>