<svg xmlns="http://www.w3.org/2000/svg" xmlns:xlink="http://www.w3.org/1999/xlink" version="1.1" x="0pt" y="0pt" viewBox="-489 491 20 20" style="enable-background:new -489 491 20 20;" xml:space="preserve"><g><path d="M-469.8,502c0.4-0.1,0.8-0.5,0.8-1v-3c0-0.6-0.4-1-1-1s-1,0.4-1,1v2.2l-2,0.5V496c0-0.6-0.4-1-1-1s-1,0.4-1,1v8.7l-2-0.5   V501c0-0.6-0.4-1-1-1s-1,0.4-1,1v4c0,0.5,0.3,0.9,0.8,1l3.2,0.8v2.2h-13c-0.6,0-1,0.4-1,1s0.4,1,1,1h17.9c0.6,0,1-0.4,1-1   s-0.4-1-1-1h-3v-6.2L-469.8,502z"></path><path d="M-484.5,500c2.5,0,4.5-2,4.5-4.5c0-2.5-2-4.5-4.5-4.5c-2.5,0-4.5,2-4.5,4.5C-489,498-487,500-484.5,500z M-484.5,493   c1.4,0,2.5,1.1,2.5,2.5s-1.1,2.5-2.5,2.5s-2.5-1.1-2.5-2.5S-485.9,493-484.5,493z"></path></g></svg>