<svg xmlns="http://www.w3.org/2000/svg" xmlns:xlink="http://www.w3.org/1999/xlink" version="1.1" x="0pt" y="0pt" viewBox="0 0 100 100" enable-background="new 0 0 100 100" xml:space="preserve"><path d="M91.684,39.561c-0.706-2.112-2.486-3.628-4.646-3.958L65.11,32.317l-9.87-20.952C54.261,9.29,52.253,8.001,50,8.001  s-4.261,1.289-5.24,3.365l-9.727,20.877l-22.071,3.36c-2.161,0.33-3.94,1.846-4.646,3.958c-0.724,2.168-0.19,4.521,1.395,6.138  l15.962,16.337l-3.771,23.027c-0.376,2.3,0.555,4.553,2.433,5.877c1.805,1.28,4.129,1.406,6.06,0.343l19.466-10.872l19.743,10.872  c1.937,1.065,4.255,0.934,6.059-0.343c1.878-1.324,2.81-3.577,2.433-5.877l-3.778-23.057l15.97-16.308  C91.874,44.081,92.407,41.729,91.684,39.561z M70.035,57.808c-1.33,1.356-1.939,3.299-1.629,5.194l3.734,22.825L52.755,75.155  c-1.726-0.949-3.784-0.949-5.512,0L27.856,85.831l3.738-22.828c0.311-1.896-0.299-3.838-1.627-5.191L13.865,41.535l22.069-3.36  c1.907-0.29,3.546-1.523,4.384-3.3L50,14.324l9.681,20.55c0.838,1.777,2.477,3.01,4.383,3.3L86.003,41.5L70.035,57.808z"></path></svg>