<svg xmlns="http://www.w3.org/2000/svg" xmlns:xlink="http://www.w3.org/1999/xlink" version="1.1" x="0pt" y="0pt" viewBox="0 0 113.4 113.4" style="enable-background:new 0 0 113.4 113.4;" xml:space="preserve"><path d="M93.5,14.6H64.8c-1.1,0-2,0.9-2,2v8.9c-1.1-0.4-2.4-0.6-3.6-0.4c-4.2,0.5-7.3,4.3-6.8,8.6c0.5,3.9,3.7,6.8,7.7,6.8  c0,0,0,0,0,0c0.9,0,1.9-0.2,2.7-0.5v8.9c0,1.1,0.9,2,2,2h12.9c0.9,0,1.6-0.6,1.9-1.4c0.3-0.8,0-1.7-0.8-2.2  c-1.7-1.2-2.1-3.5-0.9-5.2c1.2-1.7,3.5-2.1,5.2-0.9c0.8,0.6,1.4,1.4,1.5,2.4c0.2,1,0,2-0.6,2.8c-0.2,0.4-0.6,0.7-0.9,0.9  c-0.7,0.5-1,1.4-0.8,2.2c0.3,0.8,1,1.4,1.9,1.4h12.9c1.1,0,2-0.9,2-2V20.2C99.1,17.1,96.6,14.6,93.5,14.6z M95.1,46.9h-6.9  c0.5-1.3,0.6-2.6,0.4-4c-0.4-2-1.5-3.8-3.2-5c-3.5-2.4-8.3-1.6-10.7,1.9c-1.5,2.2-1.8,4.8-0.9,7.1h-6.9V36c0-0.9-0.6-1.7-1.4-1.9  c-0.8-0.3-1.7,0.1-2.2,0.8c-0.7,1-1.8,1.6-3.1,1.6c0,0,0,0,0,0c-1.9,0-3.5-1.4-3.7-3.3c-0.2-2,1.2-3.9,3.3-4.1  c1.4-0.2,2.7,0.4,3.5,1.6c0.5,0.7,1.4,1,2.2,0.8c0.8-0.3,1.4-1,1.4-1.9V18.6h26.7c0.9,0,1.6,0.7,1.6,1.6V46.9z M48.7,98.8h29  c3,0,5.5-2.5,5.5-5.5v-29c0-1.1-0.9-2-2-2h-9c0.2-0.4,0.3-0.9,0.4-1.3c0.4-2,0-4.1-1.2-5.8c-2.4-3.5-7.2-4.4-10.8-2  c-1.7,1.2-2.9,2.9-3.2,5c-0.3,1.4-0.1,2.9,0.4,4.2h-7V51.4c0-0.9-0.6-1.6-1.4-1.9c-0.8-0.3-1.7,0-2.2,0.8c-0.9,1.3-2.5,1.9-4,1.5  c-1-0.2-1.8-0.8-2.3-1.7s-0.7-1.9-0.5-2.8c0.4-1.7,1.9-2.9,3.7-2.9c0,0,0,0,0,0c1.2,0,2.4,0.6,3.1,1.6c0.5,0.7,1.4,1,2.2,0.8  c0.8-0.3,1.4-1,1.4-1.9V31.9c0-1.1-0.9-2-2-2h-29c-3,0-5.5,2.5-5.5,5.5v29v29c0,3,2.5,5.5,5.5,5.5H48.7z M61.7,66.3  c0.9,0,1.7-0.6,1.9-1.4s-0.1-1.7-0.8-2.2c-0.4-0.3-0.7-0.6-1-1c-0.6-0.8-0.8-1.8-0.6-2.8c0.2-1,0.7-1.8,1.6-2.4c1.7-1.2,4-0.7,5.2,1  c0.6,0.8,0.8,1.8,0.6,2.8s-0.7,1.8-1.6,2.4c-0.7,0.5-1,1.4-0.8,2.2c0.3,0.8,1,1.4,1.9,1.4h11v27c0,0.8-0.7,1.5-1.5,1.5h-27v-7  c0.3,0.1,0.5,0.2,0.8,0.2c0.1,0,0.2,0,0.3,0.1c0.2,0,0.3,0.1,0.5,0.1c0.1,0,0.2,0,0.3,0c0.2,0,0.3,0,0.5,0c0.1,0,0.2,0,0.3,0  c0,0,0,0,0,0c0.5,0,1.1-0.1,1.6-0.2c0,0,0.1,0,0.1,0c0.2,0,0.4-0.1,0.6-0.2c0,0,0.1,0,0.1,0c0.2-0.1,0.4-0.1,0.6-0.2  c0,0,0.1,0,0.1-0.1c0.2-0.1,0.4-0.2,0.6-0.3c0,0,0.1,0,0.1-0.1c0.2-0.1,0.3-0.2,0.5-0.3c0.1-0.1,0.2-0.1,0.3-0.2  c0.1-0.1,0.1-0.1,0.2-0.2c0.1-0.1,0.2-0.2,0.4-0.3c0,0,0.1-0.1,0.1-0.1c1.7-1.6,2.7-3.9,2.4-6.4c-0.4-4-3.7-7-7.7-7c0,0-0.1,0-0.1,0  c-0.1,0-0.2,0-0.2,0c-0.1,0-0.3,0-0.4,0c-0.3,0-0.5,0.1-0.8,0.1c-0.2,0-0.4,0.1-0.5,0.1c-0.1,0-0.2,0.1-0.3,0.1  c-0.2,0-0.3,0.1-0.5,0.1v-7H61.7z M18.3,35.3c0-0.8,0.7-1.5,1.5-1.5h27v7c-0.9-0.3-1.8-0.5-2.7-0.5c0,0,0,0,0,0  c-3.6,0-6.8,2.4-7.6,6c-0.5,2-0.1,4.1,1,5.8s2.8,3,4.8,3.5c1.6,0.4,3.1,0.3,4.6-0.3v7H35.8h-0.1c-0.9,0-1.7,0.6-1.9,1.4  c-0.3,0.8,0.1,1.7,0.8,2.2c0.4,0.3,0.7,0.6,1,1c0.4,0.6,0.6,1.2,0.6,1.9c0,0.1,0,0.2,0,0.2c0,0.1,0,0.2,0,0.3  c-0.1,0.7-0.3,1.3-0.7,1.8c-0.6,0.8-1.4,1.4-2.4,1.5c-1,0.2-2-0.1-2.8-0.6c-0.8-0.6-1.3-1.4-1.5-2.4c0-0.1,0-0.1,0-0.2  c0-0.1,0-0.3,0-0.4c0-1.2,0.6-2.3,1.6-3.1c0.7-0.5,1-1.4,0.8-2.2c-0.3-0.8-1-1.4-1.9-1.4h-0.1H18.3V35.3z M18.3,93.3v-27h7  c-0.2,0.4-0.3,0.9-0.3,1.3c0,0,0,0,0,0c0,0,0,0,0,0.1c0,0.3-0.1,0.5-0.1,0.8c0,0.3,0,0.5,0,0.8c0,0,0,0.1,0,0.1  c0.1,1.4,0.5,2.8,1.3,4c1.2,1.7,2.9,2.9,5,3.2c0.5,0.1,1,0.1,1.5,0.1c1.5,0,3-0.5,4.3-1.4c1.2-0.8,2.1-2,2.7-3.2  c0.1-0.2,0.2-0.5,0.3-0.7c0-0.1,0.1-0.3,0.1-0.4c0.1-0.3,0.2-0.6,0.2-0.9c0-0.1,0-0.1,0-0.2c0.1-0.4,0.1-0.8,0.1-1.2  c0,0,0-0.1,0-0.1c0-0.4,0-0.7-0.1-1.1c-0.1-0.5-0.2-0.9-0.4-1.4h7l0,10.9v0.1c0,0.9,0.6,1.7,1.4,1.9c0.8,0.3,1.8-0.1,2.2-0.8  C51,77.5,52,77,53,76.8c0,0,0,0,0,0c0.1,0,0.2,0,0.3,0c0.1,0,0.2,0,0.3,0c0.1,0,0.2,0,0.2,0c0.2,0,0.3,0,0.5,0.1  c2,0.5,3.3,2.5,2.8,4.5c-0.2,0.6-0.5,1.2-0.9,1.7c0,0,0,0,0,0c-0.1,0.1-0.3,0.3-0.4,0.4c-0.1,0-0.1,0.1-0.2,0.1  c-0.1,0.1-0.3,0.2-0.5,0.3C55,84,54.9,84,54.7,84.1c-0.1,0-0.1,0-0.2,0c-0.2,0-0.4,0.1-0.5,0.1c-0.1,0-0.2,0-0.4,0  c-0.1,0-0.1,0-0.2,0c-0.3,0-0.5,0-0.8-0.1c-0.1,0-0.1,0-0.2,0c-0.2-0.1-0.4-0.1-0.6-0.2c-0.1,0-0.2-0.1-0.3-0.2  c-0.1-0.1-0.2-0.1-0.3-0.2c-0.3-0.3-0.7-0.6-0.9-0.9c-0.5-0.7-1.4-1-2.2-0.8c-0.8,0.3-1.4,1-1.4,1.9v0.1v10.9h-27  C18.9,94.8,18.3,94.1,18.3,93.3z"></path></svg>