<?xml version="1.0" encoding="utf-8"?>
<!-- Generator: Adobe Illustrator 21.1.0, SVG Export Plug-In . SVG Version: 6.00 Build 0)  -->
<svg version="1.1" id="Layer_1" xmlns="http://www.w3.org/2000/svg" xmlns:xlink="http://www.w3.org/1999/xlink" x="0pt" y="0pt"
	 viewBox="0 0 85 85" style="enable-background:new 0 0 85 85;" xml:space="preserve">
<polygon points="77,45.8 73.6,29.6 69.8,30.4 71.9,40.5 18.4,5.8 16.4,8.9 70.1,43.6 59.7,45.7 60.4,49.2 "/>
<path d="M4.9,3.6C3.9,3.6,3,4.5,3,5.5v74.1c0,1,0.9,1.9,1.9,1.9h75.2c1,0,1.9-0.9,1.9-1.9c0-1.1-0.8-1.9-1.9-1.9h-6.9V60.4h-9.1
	v17.3h-7.9V50.4h-9.1v27.3h-7.9V35.3h-9.1v42.4h-7.9V22h-9.1v55.6H6.8V5.5C6.8,4.5,5.9,3.6,4.9,3.6z"/>
</svg>
