<?xml version="1.0" encoding="utf-8"?>
<!-- Generator: Adobe Illustrator 21.1.0, SVG Export Plug-In . SVG Version: 6.00 Build 0)  -->
<svg version="1.1" id="Layer_1" xmlns="http://www.w3.org/2000/svg" xmlns:xlink="http://www.w3.org/1999/xlink" x="0pt" y="0pt"
	 viewBox="0 0 85 85" style="enable-background:new 0 0 85 85;" xml:space="preserve">
<path d="M4.4,82l0.3,0c0.8,0,1.5-0.6,1.6-1.3l2-12l9.2-3.2l0.2,0.6c3.9,10.3,14,17.3,25,17.3c7,0,13.7-2.8,18.9-7.8
	c2.7-2.7,4.8-5.9,6.1-9.5l0.2-0.6l9.1,3.2l1.7,12c0.1,0.7,0.7,1.5,1.7,1.5h0.2c0.8-0.2,1.5-0.9,1.3-1.9l-1.7-13
	c-0.1-0.6-0.5-1.1-1-1.3l-10.4-3.6l0.1-0.5c0.3-1.8,0.5-3.6,0.5-5.2v-1.8h9.1c1,0,1.7-0.7,1.7-1.7c0-1-0.7-1.7-1.7-1.7h-9.1v-7.7
	l9.7-3.3c0.6-0.2,1-0.7,1.1-1.3l1.8-13c0.1-0.4,0-0.9-0.3-1.2c-0.3-0.4-0.7-0.6-1.1-0.7c-0.4-0.1-0.8,0-1.2,0.3
	c-0.4,0.3-0.6,0.7-0.7,1.1l-1.6,11.9l-7.7,2.7v-8c0-1-0.7-1.7-1.7-1.7h-3.5L64.2,30c-0.7-6.8-4.7-12.9-10.7-16.4l-0.4-0.2l0.1-0.4
	c0.7-4.5,4.5-7.8,9-7.8c1,0,1.7-0.7,1.7-1.7s-0.7-1.7-1.7-1.7c-5.8,0-10.7,3.9-12.1,9.4l-0.2,0.6l-0.6-0.2c-2.2-0.7-4.5-1.1-6.7-1.1
	c-2.3,0-4.6,0.4-7.1,1.3L34.9,12l-0.2-0.7c-1.3-5.5-6.3-9.5-12.1-9.5c-1,0-1.7,0.7-1.7,1.7s0.7,1.7,1.7,1.7c4.6,0,8.6,3.5,9.1,8
	l0,0.4l-0.3,0.2c-5.8,3.5-9.5,9.4-10.3,16.2l-0.1,0.5h-3.5c-1,0-1.7,0.7-1.7,1.7v8l-7.7-2.8l-2-12c-0.1-0.4-0.3-0.8-0.7-1.1
	c-0.4-0.3-0.8-0.4-1.2-0.3c-0.9,0.1-1.5,1-1.4,1.9l2.1,13c0.1,0.6,0.5,1.1,1.1,1.3l9.7,3.3v7.7H6.8c-1,0-1.7,0.7-1.7,1.7
	s0.7,1.7,1.7,1.7h9.1v1.8c0,1.6,0.2,3.3,0.5,5.2l0.1,0.5L6.2,65.8c-0.6,0.2-1,0.7-1.1,1.3L3,80.1c-0.1,0.4,0,0.9,0.3,1.2
	C3.6,81.7,3.9,81.9,4.4,82z M66.1,33.9v22.6c0,6.2-2.4,12.1-6.9,16.5c-3.9,3.9-8.8,6.3-14.2,6.8l-0.7,0.1v-46H66.1z M24.5,29.8
	c1.1-9.1,9-15.9,18.2-15.9c9.1,0,17,6.9,18.2,15.9l0.1,0.7H24.4L24.5,29.8z M19.3,33.9H41v46l-0.7-0.1
	c-11.8-1.1-21.1-11.4-21.1-23.3V33.9z"/>
</svg>
