<?xml version="1.0" encoding="utf-8"?>
<!-- Generator: Adobe Illustrator 21.1.0, SVG Export Plug-In . SVG Version: 6.00 Build 0)  -->
<svg version="1.1" id="Layer_1" xmlns="http://www.w3.org/2000/svg" xmlns:xlink="http://www.w3.org/1999/xlink" x="0pt" y="0pt"
	 viewBox="0 0 85 85" style="enable-background:new 0 0 85 85;" xml:space="preserve">
<g>
	<path d="M83.5,6.7c0-2.6-2.3-4.8-5-4.8h-28c-0.8,0-1.5,0.7-1.5,1.5v9.3l-0.7-0.2c-1.1-0.4-2.2-0.5-3.2-0.4c-3.9,0.5-6.6,4-6.2,7.8
		c0.5,3.6,3.4,6.2,7,6.2c0.8,0,1.8-0.2,2.4-0.5l0.7-0.3v9.5c0,0.8,0.7,1.5,1.5,1.5H63c0.8,0,1.2-0.6,1.4-1.1c0.2-0.6,0-1.2-0.6-1.5
		c-1-0.7-1.6-1.6-1.8-2.7c-0.2-1.1,0.1-2.2,0.7-3.1c1.4-1.9,3.9-2.4,5.8-1c1,0.7,1.6,1.7,1.7,2.7c0.2,1.1,0,2.2-0.7,3
		c-0.3,0.5-0.7,0.8-1,1c-0.5,0.3-0.7,1-0.6,1.5c0.2,0.5,0.7,1,1.4,1H82c0.8,0,1.5-0.7,1.5-1.5V6.7z M80.5,33.4h-7.9l0.3-0.7
		c0.5-1.2,0.6-2.3,0.4-3.6c-0.4-1.8-1.4-3.4-2.9-4.6c-3.2-2.2-7.6-1.4-9.8,1.8c-1.4,1.9-1.7,4.3-0.8,6.4l0.3,0.7H52V22.3
		c0-0.7-0.4-1.3-1-1.4c-0.7-0.2-1.3,0.1-1.5,0.6c-0.8,1.2-2.1,1.9-3.4,1.9c-2.1,0-3.9-1.6-4.1-3.6c-0.1-1.1,0.2-2.2,0.9-3
		c0.7-0.9,1.7-1.4,2.8-1.5c1.5-0.2,2.9,0.4,3.9,1.8c0.3,0.5,1,0.7,1.5,0.6c0.5-0.2,1-0.7,1-1.4V4.8h26.6c1.2,0,2.1,0.9,2.1,2.1
		L80.5,33.4z"/>
	<path d="M67.9,49.9c0-0.8-0.7-1.5-1.5-1.5h-9.6l0.4-0.7c0.1-0.3,0.2-0.7,0.3-1l0-0.2c0.4-1.9,0-3.7-1.1-5.3c-2.2-3.2-6.5-4-9.9-1.9
		c-1.7,1.2-2.6,2.7-2.9,4.5c-0.3,1.2-0.1,2.5,0.4,3.8l0.3,0.7h-8V37.3c0-0.8-0.6-1.2-1.1-1.4c-0.6-0.2-1.2,0-1.5,0.6
		c-1.1,1.5-2.8,2.2-4.5,1.8c-1.1-0.2-2.1-1-2.5-2c-0.6-1.2-0.7-2.2-0.5-3c0.4-1.9,2.1-3.2,4.1-3.2c1.4,0,2.6,0.7,3.4,1.8
		c0.4,0.5,1,0.8,1.6,0.6c0.5-0.2,1-0.7,1-1.4V18.3c0-0.8-0.7-1.5-1.5-1.5H6.5c-2.7,0-4.9,2.2-4.9,4.9v56.6c0,2.7,2.2,4.9,4.9,4.9H63
		c2.7,0,4.9-2.2,4.9-4.9V49.9z M4.5,21.6c0-1.1,0.9-2,2-2h26.9v8.1l-0.7-0.2C31.8,27.2,31,27,30.3,27c-3.3,0-6.2,2.3-6.9,5.5
		c-0.5,1.8-0.1,3.7,0.9,5.3c1.1,1.6,2.6,2.7,4.4,3.2c1.5,0.4,2.8,0.3,4.2-0.3l0.7-0.3v8H22c-0.7,0-1.3,0.4-1.4,1
		c-0.2,0.7,0.1,1.3,0.6,1.5c0.5,0.4,0.8,0.7,1.2,1.1c0.5,0.7,0.7,1.4,0.7,2.2v0.5c-0.1,0.9-0.4,1.6-0.8,2.1c-0.7,1-1.7,1.6-2.6,1.7
		c-0.2,0-0.5,0.1-0.7,0.1c-0.8,0-1.7-0.3-2.4-0.8c-0.9-0.7-1.5-1.6-1.7-2.6l0-0.3v-0.4c0-1.3,0.6-2.4,1.8-3.4c0.5-0.4,0.8-1,0.6-1.6
		c-0.2-0.5-0.7-1-1.4-1H4.5V21.6z M35.7,68c-0.3-0.5-1-0.8-1.5-0.6c-0.5,0.2-1,0.7-1,1.4v11.3H6.4c-0.1,0-0.1,0-0.2,0
		c-0.4,0-0.8-0.1-1.1-0.4c-0.4-0.3-0.6-0.8-0.6-1.4V51.4h8.1l-0.4,0.7c-0.1,0.3-0.2,0.7-0.2,1.1c0,0.3,0,0.4-0.1,0.6
		c0,0.1,0,0.2,0,0.3v0.8c0.1,1.4,0.5,2.6,1.2,3.7c1.2,1.7,2.7,2.6,4.6,2.9c1.8,0.4,3.6,0,5.3-1.2c1-0.7,1.9-1.7,2.4-2.9
		c0.1-0.1,0.1-0.2,0.1-0.3c0-0.1,0.1-0.2,0.1-0.3c0-0.1,0-0.1,0.1-0.2v-0.1l0.1-0.1c0.1-0.3,0.2-0.5,0.2-0.7l0-0.3
		c0.1-0.3,0.1-0.7,0.1-1.1v-0.1c0-0.4,0-0.6-0.1-1c-0.1-0.5-0.2-0.9-0.4-1.3l-0.3-0.7h8.1v11.1c0,0.8,0.4,1.4,1,1.5
		c0.6,0.2,1.3,0,1.5-0.5l0.1-0.1c0.6-0.9,1.8-1.4,2.7-1.6l0.1,0h0.8c0.2,0,0.4,0,0.7,0.1c1.1,0.3,2,0.9,2.5,1.8
		c0.6,0.9,0.7,2.1,0.5,3.1c-0.2,0.7-0.6,1.4-1,1.9l-0.7,0.6c0,0-0.1,0-0.1,0.1c-0.1,0.1-0.3,0.2-0.5,0.3c-0.1,0.1-0.2,0.1-0.3,0.2
		c0,0-0.1,0-0.1,0.1l-0.1,0.1h-0.3c0,0-0.1,0-0.2,0c-0.1,0-0.2,0.1-0.3,0.1h-0.6c-0.3,0-0.5,0-0.9-0.1h-0.2L38,69.6
		c-0.1,0-0.1,0-0.2-0.1c-0.1,0-0.2,0-0.3-0.1c-0.2-0.1-0.4-0.2-0.5-0.3c-0.1,0-0.2-0.1-0.3-0.2c-0.1-0.1-0.2-0.2-0.3-0.3
		C36.1,68.5,35.9,68.2,35.7,68z M64.9,78.3c0,1.1-0.9,2-2,2H36.1v-8l0.8,0.3c0.2,0.1,0.3,0.1,0.5,0.1c0.1,0,0.3,0,0.5,0.1
		c0.1,0,0.2,0,0.2,0.1l1.2,0c0.4,0,0.9-0.1,1.5-0.2l0.2,0c0.1,0,0.2-0.1,0.4-0.1l0.2-0.1c0.1,0,0.2-0.1,0.3-0.1c0,0,0,0,0,0v0l1-0.5
		c0.1,0,0.1-0.1,0.2-0.1c0.1,0,0.2-0.1,0.2-0.1c0.1-0.1,0.2-0.1,0.2-0.1l0.2-0.2c0.1-0.1,0.2-0.2,0.5-0.4l0,0
		c1.7-1.6,2.4-3.7,2.2-5.9c-0.4-3.6-3.4-6.4-7-6.4h-0.7c-0.1,0-0.2,0-0.3,0c-0.2,0-0.4,0-0.7,0.1c-0.1,0-0.1,0-0.2,0.1
		c-0.1,0.1-0.2,0.1-0.4,0.1C36.9,59,36.8,59,36.6,59h-0.5v-7.8H48v0.1c0.4-0.2,0.7-0.5,0.8-0.9c0.2-0.6-0.1-1.3-0.6-1.5
		c-0.5-0.4-0.8-0.7-1.2-1.1c-0.7-0.9-0.9-2-0.7-3.1c0.3-1.2,0.9-2.1,1.8-2.6c0.9-0.6,2-0.9,3.1-0.6c1.1,0.2,2,0.9,2.7,1.8
		c0.7,0.9,0.9,2,0.7,3.1c-0.2,1.2-0.9,2.1-1.8,2.6c-0.5,0.3-0.7,1-0.6,1.5c0.2,0.5,0.7,1,1.4,1h11.2V78.3z"/>
</g>
</svg>
