<?xml version="1.0" encoding="utf-8"?>
<!-- Generator: Adobe Illustrator 21.1.0, SVG Export Plug-In . SVG Version: 6.00 Build 0)  -->
<svg version="1.1" id="Layer_1" xmlns="http://www.w3.org/2000/svg" xmlns:xlink="http://www.w3.org/1999/xlink" x="0pt" y="0pt"
	 viewBox="0 0 85 85" style="enable-background:new 0 0 85 85;" xml:space="preserve">
<path d="M82.3,32.6c-0.6-1.7-1.9-2.9-3.7-3.2l-21.4-3.2c-0.3,0-0.6-0.3-0.8-0.6L46.7,5.2c-0.9-1.7-2.4-2.7-4.2-2.7
	c-1.8,0-3.4,1.1-4.2,2.7l-9.5,20.4c-0.1,0.3-0.4,0.5-0.8,0.6L6.6,29.5c-1.7,0.2-3.1,1.5-3.7,3.2c-0.6,1.8-0.1,3.7,1.2,5l15.6,15.9
	c0.2,0.2,0.3,0.5,0.3,0.9L16.2,77c-0.3,1.8,0.4,3.6,2,4.7c1.5,1,3.3,1.1,4.8,0.3l19-10.6c0.3-0.2,0.7-0.2,1,0l19.3,10.6
	c1.6,0.8,3.5,0.7,4.8-0.2c1.5-1.1,2.2-2.9,2-4.7l-3.7-22.5c-0.1-0.3,0-0.6,0.3-0.9l15.6-15.9C82.4,36.3,82.8,34.4,82.3,32.6z
	 M78.4,34.9L62.8,50.8c0,0,0,0,0,0c-1.1,1.1-1.6,2.7-1.3,4.2l3.6,22.3c0.1,0.4-0.1,0.8-0.4,1c-0.2,0.1-0.4,0.2-0.6,0.2
	c-0.2,0-0.3,0-0.5-0.1L44.7,68c-1.4-0.7-3.1-0.7-4.5,0L21.4,78.4c-0.3,0.2-0.7,0.2-1.1-0.1c-0.3-0.2-0.5-0.6-0.4-1L23.5,55
	c0.2-1.5-0.2-3.1-1.3-4.3L6.5,35c-0.3-0.3-0.4-0.7-0.2-1s0.4-0.6,0.8-0.7L28.6,30c1.6-0.2,2.9-1.2,3.5-2.6l9.5-20.1
	c0.2-0.3,0.5-0.6,0.9-0.6c0,0,0,0,0,0c0.4,0,0.7,0.2,0.9,0.6l9.4,20.1c0.7,1.4,2,2.4,3.5,2.6l21.4,3.2c0.4,0.1,0.7,0.3,0.8,0.7
	C78.8,34.2,78.7,34.6,78.4,34.9z"/>
</svg>
