<svg xmlns="http://www.w3.org/2000/svg" data-name="Layer 1" viewBox="0 0 100 100" x="0pt" y="0pt"><title>Artboard 17</title><path d="M91.65,30.1c-.27-.32-.54-.63-.83-.93a26.57,26.57,0,0,0-3-2.75l.26-.37A16,16,0,0,0,63.18,6.13l-3,3.27a24.54,24.54,0,0,0-31.34,28L5.72,54.69A3.87,3.87,0,0,0,4.2,57.26L2.74,67.41a3.45,3.45,0,0,0,2.92,3.9l10.72,1.54.36,0a2.5,2.5,0,0,0,1.5-.5l3.25-2.43a2.5,2.5,0,0,0,1-1.63l.76-5,2.86.41a4.65,4.65,0,0,0,5.26-3.94l.41-2.87,5,.65a2.48,2.48,0,0,0,1.83-.48l3.16-2.38a23.16,23.16,0,0,0,9.09,2.56H51c.29.53.59,1.06.92,1.58L36.78,83.44a3.87,3.87,0,0,0-.47,2.95l2.39,10a3.44,3.44,0,0,0,4.15,2.55l10.54-2.52a2.5,2.5,0,0,0,1.55-1.12l2.13-3.46a2.5,2.5,0,0,0,.31-1.87L56.23,85,59,84.33a4.65,4.65,0,0,0,3.44-5.6l-.67-2.83,4.9-1.24a2.5,2.5,0,0,0,1.52-1.12l2.06-3.37A24.63,24.63,0,0,0,96.34,52.26a24.08,24.08,0,0,0-3.63-20.8Q92.21,30.76,91.65,30.1ZM66.85,9.52A11,11,0,0,1,83.93,23.21l-.37.53a24.32,24.32,0,0,0-9-2.5A24.93,24.93,0,0,0,65,11.49Zm10,28.55a2.56,2.56,0,1,1-1.93-.31A2.53,2.53,0,0,1,76.87,38.07Zm-34,11.52a2.5,2.5,0,0,0-2.79.14l-3.64,2.74-5.8-.76a3.13,3.13,0,0,0-3.54,2.65l-.63,4.36-4.36-.63a3.12,3.12,0,0,0-3.53,2.63l-.88,5.83-1.6,1.2L7.91,66.58l1.17-8.16,24-18A2.5,2.5,0,0,0,34,37.81,19.55,19.55,0,0,1,68.84,21.48c-.64.1-1.28.22-1.92.37A24.55,24.55,0,0,0,48.88,52,19.53,19.53,0,0,1,42.84,49.59Zm48.7,1.26A19.63,19.63,0,0,1,69.42,65a2.49,2.49,0,0,0-2.54,1.16L64.5,70.07,58.81,71.5a3.12,3.12,0,0,0-2.29,3.76l1,4.28-4.28,1a3.12,3.12,0,0,0-2.32,3.75l1.33,5.75-1,1.7-8,1.92-1.92-8L57,60.1a2.5,2.5,0,0,0-.11-2.79,19.54,19.54,0,0,1,23.8-29.38l-3.43,5a7.55,7.55,0,0,0-5.67,13.79h0a7.51,7.51,0,0,0,3.94,1.12,7.63,7.63,0,0,0,1.77-.21,7.55,7.55,0,0,0,4.18-12l3.48-5a21.65,21.65,0,0,1,2.23,2.06q.34.36.65.73t.84,1.07A19,19,0,0,1,91.54,50.85Z"></path></svg>