<svg xmlns="http://www.w3.org/2000/svg" xmlns:xlink="http://www.w3.org/1999/xlink" version="1.1" x="0pt" y="0pt" viewBox="0 0 48 48" enable-background="new 0 0 48 48" xml:space="preserve"><g><path d="M46.56,44.788H42.74V34.649c0-0.133-0.107-0.24-0.239-0.24h-5.588c-0.132,0-0.24,0.107-0.24,0.24v10.139H32.55V28.656   c0-0.132-0.107-0.239-0.24-0.239h-5.587c-0.133,0-0.24,0.107-0.24,0.239v16.132h-4.123V19.589c0-0.132-0.107-0.24-0.24-0.24h-5.587   c-0.133,0-0.24,0.108-0.24,0.24v25.199h-4.121V11.653c0-0.133-0.108-0.24-0.24-0.24H6.342c-0.132,0-0.239,0.107-0.239,0.24v33.135   H2.88V1.772c0-0.796-0.645-1.44-1.439-1.44C0.645,0.332,0,0.977,0,1.772v44.456c0,0.795,0.645,1.439,1.44,1.439H46.56   c0.796,0,1.44-0.645,1.44-1.439C48,45.433,47.355,44.788,46.56,44.788z"></path><path d="M39.325,24.2l-4.713,0.961c-0.063,0.014-0.118,0.05-0.152,0.104c-0.035,0.054-0.048,0.119-0.035,0.182l0.714,3.401   c0.024,0.112,0.123,0.19,0.235,0.19c0.016,0,0.031-0.002,0.048-0.005l11.184-2.282c0.063-0.014,0.118-0.05,0.153-0.104   c0.034-0.054,0.048-0.119,0.034-0.182l-2.316-11.019c-0.027-0.128-0.155-0.21-0.283-0.186l-3.452,0.705   c-0.063,0.013-0.118,0.051-0.153,0.103c-0.034,0.054-0.048,0.119-0.034,0.183l0.979,4.647L10.644,0.906   c-0.109-0.071-0.257-0.04-0.33,0.069L8.378,3.88C8.342,3.933,8.329,3.999,8.342,4.062C8.355,4.124,8.393,4.18,8.447,4.214   L39.325,24.2z"></path></g></svg>