<?xml version="1.0" encoding="utf-8"?>
<!-- Generator: Adobe Illustrator 21.1.0, SVG Export Plug-In . SVG Version: 6.00 Build 0)  -->
<svg version="1.1" id="Layer_1" xmlns="http://www.w3.org/2000/svg" xmlns:xlink="http://www.w3.org/1999/xlink" x="0pt" y="0pt"
	 viewBox="0 0 85 85" style="enable-background:new 0 0 85 85;" xml:space="preserve">
<path d="M57.4,61.8l1.8-3l0.3,0c9.7,1,18.6-5.1,21.2-14.5c1.6-5.7,0.5-12-3-16.9l0,0c-0.3-0.4-0.6-0.8-0.8-1
	c-0.1-0.2-0.2-0.3-0.3-0.4c-0.1-0.1-0.3-0.3-0.4-0.5c-0.7-0.7-1.5-1.5-2.4-2.2L73.3,23l0.5-0.7c3.9-5.9,2.4-13.9-3.5-17.8
	C65.1,1,58.2,1.7,53.9,6.3l-2.7,2.9l-0.3-0.1c-10.5-3.2-21.7,2.7-25,13.2c-1,3.1-1.2,6.3-0.6,9.6l0.1,0.3L5.9,46.8
	c-0.7,0.5-1,1.2-1.1,1.8l-1.2,8.4c-0.2,1.3,0.7,2.5,2,2.7l8.9,1.3l0.2,0c0.4,0,0.7-0.1,1-0.3l2.7-2c0.3-0.2,0.5-0.6,0.6-1.1l0.7-4.7
	l2.9,0.4c0.9,0.1,1.8-0.1,2.5-0.7c0.7-0.5,1.2-1.3,1.3-2.2l0.4-2.9l4.7,0.6c0.4,0.1,0.8-0.1,1.1-0.3l2.8-2.2l0.3,0.1
	c2.6,1.3,5,2,7.4,2l0.1,0h0.3l0.1,0.3c0.2,0.4,0.5,0.9,0.8,1.2l0.2,0.3l-12.7,21c-0.4,0.6-0.5,1.3-0.3,2.1l2,8.3
	c0.3,1.3,1.6,2,2.9,1.7l8.8-2.1c0.3-0.1,0.7-0.4,1-0.7l1.8-2.9c0.2-0.4,0.3-0.8,0.2-1.2l-1.1-4.5l2.8-0.7c0.9-0.2,1.6-0.8,2.1-1.5
	s0.6-1.7,0.4-2.6l-0.7-2.9l4.6-1.1C56.7,62.4,57.1,62.1,57.4,61.8z M56.2,8.4c1.8-1.9,4.2-2.9,6.9-2.9c2.6,0,5,1,6.9,2.8
	c3.2,3.2,3.8,8.3,1.4,12.1l-0.6,0.8l-0.4-0.2c-2.2-1.1-4.7-1.8-7.3-2l-0.3,0l-0.1-0.2c-1.7-3.3-4.4-6-7.8-7.9l-0.6-0.3L56.2,8.4z
	 M44.3,28.6c-2.8,4.5-3.6,9.8-2.3,15l0,0.1c0,0,0,0,0,0.1c0,0.1,0.1,0.2,0.1,0.4v0.6l-0.6-0.1c-1.8-0.4-3.5-1.1-5.2-2.1
	c-0.5-0.3-1.2-0.3-1.7,0.1l-3.2,2.4l-5.1-0.6c-1.1-0.2-2.2,0.6-2.4,1.8l-0.6,4.1l-4.1-0.6c-0.5-0.1-1.1,0.1-1.5,0.4
	c-0.4,0.3-0.7,0.8-0.8,1.4l-0.7,5.1l-1.6,1.3L7,56.8l1.1-7.5l0.2-0.1l20-15c0.5-0.4,0.8-1.1,0.6-1.7c-1.1-4.3-0.5-8.9,1.7-12.7
	c2.3-3.9,5.9-6.6,10.2-7.8c6.8-1.8,13.9,0.8,18,6.5l0.5,0.6l-0.8,0.2c-0.3,0.1-0.5,0.1-0.8,0.2c-0.3,0-0.5,0.1-0.8,0.1
	C51.7,20.8,47.1,24,44.3,28.6z M54.9,59.7L50,61c-0.6,0.1-1,0.4-1.3,0.9c-0.3,0.5-0.4,1-0.3,1.6l0.9,4.1l-4.1,0.9
	c-0.6,0.1-1,0.5-1.3,0.9c-0.3,0.5-0.4,1-0.2,1.5l1.2,5l-1,1.8l-7.4,1.8l-1.8-7.4L48,50.7c0.3-0.5,0.3-1.2-0.1-1.7
	c-5.5-7.4-3.9-18,3.6-23.5c4.8-3.6,11.3-4.3,16.9-1.8L69,24l-3.4,5l-0.3-0.1c-1.5-0.4-3.1-0.1-4.4,0.7c-1.3,0.8-2.2,2.1-2.6,3.6
	c-0.6,2.4,0.5,5,2.6,6.2c0.9,0.5,1.9,0.8,3,0.8c0.5,0,0.9-0.1,1.4-0.2c3.1-0.7,5-3.9,4.3-7c-0.2-0.8-0.5-1.6-1.1-2.2l-0.3-0.3
	l3.4-4.9L72,26c0.7,0.5,1.4,1.1,2,1.8c0.2,0.2,0.5,0.5,0.6,0.7c0,0.1,0.2,0.2,0.3,0.3c0.1,0.1,0.2,0.3,0.4,0.5c2.9,4,3.8,9.3,2.5,14
	v0c-2.4,8.4-10.6,13.6-19.1,12.2c-0.5-0.1-1.2,0.1-1.6,0.7L54.9,59.7z M66,35.8c-0.4,0.6-0.9,1-1.6,1.2C64.2,37,64,37,63.8,37
	c-0.5,0-0.9-0.1-1.4-0.4c-1.2-0.7-1.6-2.4-0.9-3.6c0.3-0.5,0.8-0.9,1.5-1.2l0.1,0c0.7-0.1,1.3,0,1.9,0.4c0.6,0.4,1,0.9,1.2,1.6
	C66.5,34.5,66.4,35.2,66,35.8z"/>
</svg>
