<svg xmlns="http://www.w3.org/2000/svg" xmlns:xlink="http://www.w3.org/1999/xlink" version="1.1" x="0pt" y="0pt" viewBox="0 0 100 100" enable-background="new 0 0 100 100" xml:space="preserve"><path fill="#000000" d="M79.381,68.829c-0.092-0.648-0.537-1.191-1.154-1.408l-7.506-2.631c0.257-1.317,0.393-2.667,0.393-4.036  v-0.926h6.534c0.967,0,1.75-0.783,1.75-1.75s-0.783-1.75-1.75-1.75h-6.534v-5.1l7.113-2.494c0.617-0.216,1.062-0.76,1.154-1.408  l1.398-9.959c0.134-0.957-0.533-1.842-1.49-1.976c-0.95-0.135-1.842,0.533-1.977,1.49l-1.25,8.903l-4.949,1.736v-5.432  c0-0.966-0.783-1.75-1.75-1.75h-2.25c-0.567-5.549-3.81-10.307-8.405-12.995c0.459-3.157,3.177-5.591,6.458-5.591  c0.967,0,1.75-0.784,1.75-1.75s-0.783-1.75-1.75-1.75c-4.696,0-8.638,3.247-9.726,7.611C53.763,25.309,51.976,25,50.116,25  c-1.97,0-3.855,0.352-5.617,0.968c-1.05-4.418-5.019-7.718-9.754-7.718c-0.966,0-1.75,0.784-1.75,1.75s0.784,1.75,1.75,1.75  c3.344,0,6.105,2.526,6.486,5.77c-4.438,2.717-7.556,7.386-8.111,12.816h-2.251c-0.966,0-1.75,0.784-1.75,1.75v5.432l-4.974-1.744  l-1.463-8.934c-0.156-0.954-1.055-1.602-2.01-1.444c-0.954,0.156-1.601,1.056-1.444,2.01l1.631,9.959  c0.104,0.632,0.544,1.157,1.148,1.369l7.112,2.494v5.1h-6.534c-0.966,0-1.75,0.783-1.75,1.75s0.784,1.75,1.75,1.75h6.534v0.926  c0,1.381,0.142,2.728,0.398,4.035l-7.51,2.633c-0.604,0.212-1.044,0.736-1.148,1.368l-1.631,9.96  c-0.156,0.954,0.49,1.854,1.444,2.01c0.096,0.017,0.191,0.023,0.285,0.023c0.842,0,1.584-0.609,1.725-1.467l1.463-8.936l6.347-2.225  c3.002,7.931,10.655,13.595,19.625,13.595c0,0,0,0,0,0c0,0,0,0,0,0c0,0,0,0,0,0c5.587,0,10.853-2.191,14.829-6.167  c2.148-2.148,3.754-4.68,4.796-7.428l6.32,2.216l1.25,8.904c0.123,0.875,0.873,1.507,1.731,1.507c0.081,0,0.163-0.006,0.245-0.017  c0.957-0.135,1.624-1.02,1.49-1.977L79.381,68.829z M50.116,28.5c6.898,0,12.612,5.168,13.474,11.836H36.643  C37.504,33.668,43.218,28.5,50.116,28.5z M32.619,60.753V43.836h2.162h13.586v34.325C39.537,77.281,32.619,69.81,32.619,60.753z   M67.613,60.753c0,4.652-1.826,9.04-5.142,12.355c-2.896,2.896-6.611,4.655-10.604,5.054V43.836h13.585h2.161V60.753z"></path></svg>