<?xml version="1.0" encoding="utf-8"?>
<!-- Generator: Adobe Illustrator 21.1.0, SVG Export Plug-In . SVG Version: 6.00 Build 0)  -->
<svg version="1.1" id="Layer_1" xmlns="http://www.w3.org/2000/svg" xmlns:xlink="http://www.w3.org/1999/xlink" x="0pt" y="0pt"
	 viewBox="0 0 85 85" style="enable-background:new 0 0 85 85;" xml:space="preserve">
<path d="M68.1,46.2l0.2-1.7h12.2v-4H68.3l-0.2-1.7c-1.5-11.4-10.5-20.4-21.9-21.9l-1.7-0.2V4.5h-4v12.2l-1.7,0.2
	c-11.6,1.5-20.4,10.3-21.9,21.9l-0.2,1.7H4.5v4h12.2l0.2,1.7c1.5,11.4,10.5,20.4,21.9,21.9l1.7,0.2v12.2h4V68.3l1.7-0.2
	C57.6,66.7,66.6,57.7,68.1,46.2z M46.9,64.1l-2.4,0.5v-8h-4v8l-2.4-0.5c-8.8-1.8-15.4-8.3-17.2-17.2l-0.5-2.4h8v-4h-8l0.5-2.4
	c1.8-8.8,8.3-15.4,17.2-17.2l2.4-0.5v8h4v-8l2.4,0.5c8.8,1.8,15.4,8.3,17.2,17.2l0.5,2.4h-8v4h8l-0.5,2.4
	C62.3,55.7,55.7,62.3,46.9,64.1z"/>
</svg>
