<?xml version="1.0" encoding="utf-8"?>
<!-- Generator: Adobe Illustrator 21.1.0, SVG Export Plug-In . SVG Version: 6.00 Build 0)  -->
<svg version="1.1" id="Layer_1" xmlns="http://www.w3.org/2000/svg" xmlns:xlink="http://www.w3.org/1999/xlink" x="0pt" y="0pt"
	 viewBox="0 0 85 85" style="enable-background:new 0 0 85 85;" xml:space="preserve">
<title>Artboard Copy 12</title>
<desc>Created with Sketch.</desc>
<g>
	<g>
		<path d="M71.7,66.8c-4.2,1-12,1.4-25.6,1c-16.6-0.4-27.3-0.1-31.8-0.9c-0.1,0-0.2,0-0.3,0C6.7,67,0.9,61.1,0.9,53.8
			S6.7,40.7,14,40.7c0.2,0,0.3,0,0.5,0c0,0,0,0,0,0c0-7,5.7-12.7,12.7-12.7c1.8,0,3.5,0.4,5,1c2.8-7,9.7-11.9,17.6-11.9
			c10.5,0,19,8.5,19,19c0,0.6,0,1.2-0.1,1.8c0.3,0,0.7,0,1,0c8,0,14.5,6.5,14.5,14.5C84.2,59.8,78.8,65.9,71.7,66.8z"/>
	</g>
</g>
</svg>
