<?xml version="1.0" encoding="utf-8"?>
<!-- Generator: Adobe Illustrator 21.1.0, SVG Export Plug-In . SVG Version: 6.00 Build 0)  -->
<svg version="1.1"
	 id="Layer_1" xmlns:cc="http://creativecommons.org/ns#" xmlns:dc="http://purl.org/dc/elements/1.1/" xmlns:inkscape="http://www.inkscape.org/namespaces/inkscape" xmlns:rdf="http://www.w3.org/1999/02/22-rdf-syntax-ns#" xmlns:sodipodi="http://sodipodi.sourceforge.net/DTD/sodipodi-0.dtd" xmlns:svg="http://www.w3.org/2000/svg"
	 xmlns="http://www.w3.org/2000/svg" xmlns:xlink="http://www.w3.org/1999/xlink" x="0pt" y="0pt" viewBox="0 0 85 85"
	 style="enable-background:new 0 0 85 85;" xml:space="preserve">
<style type="text/css">
	.st0{fill:#1A171B;}
	.st1{fill:#FFFFFF;stroke:#1A171B;stroke-width:6;stroke-miterlimit:5;}
</style>
<path class="st0" d="M46.3,1c-1.1,0-2.2,0-3.3,0.1C29.7,2,20.9,7.6,15.4,18.9c-2.3,4.6-3.7,9.5-4,13.8c-0.1,1.4-0.1,1.6,0.5,2.3
	c0.3,0.4,0.6,1,0.6,1.1c0,0.2-1.1,2-2.4,4c-2.8,4.3-4.7,7.4-5,8.5c-0.5,1.5,0.3,2.5,2.8,3.2c0.3,0.1,1,0.4,1.5,0.6
	c1,0.5,1.1,0.9,0.5,2.6c-0.8,2.2-0.3,3.1,1.8,3.4l1,0.2l-1.2,0.5c-0.7,0.3-1.3,0.7-1.3,0.9c-0.2,0.6,0.3,1.5,1.2,2.1
	c1.3,0.8,1.4,1.1,0.6,3.5c-1.1,3.2-0.9,5.8,0.6,7.2c1.6,1.4,4.5,1.9,8.3,1.2c3.6-0.6,5.8-0.7,6.6-0.4c1,0.4,1.4,1.4,1.7,4.1
	c0.4,3.1,0.7,5.8,0.9,6.1C29.9,84,38.9,84,49.9,84h20l-0.8-1.6c-2.5-5.2-3.5-10.6-3-16.6c0.5-5.8,1.5-8.3,4.6-11.9
	c6.8-7.9,9.3-14,9.4-22.5c0-4-0.4-6.5-1.4-9.8C74.4,8.4,62.6,0.9,46.3,1L46.3,1z"/>
<g>
	<path class="st1" d="M65.8,21.4c-0.9-2.2-2.1-4.2-3.7-5.9c-1.6-1.7-3.7-3.2-6.1-4.3c-2.5-1.1-5.3-1.7-8.5-1.9v0
		c-4.8,0-8.9,1.3-12.4,3.9c-3.5,2.6-5.9,6.4-7.3,11.3c-0.3,1-0.3,1.9-0.1,2.6c0.2,0.8,0.6,1.5,1.1,2c0.5,0.6,1.1,1,1.9,1.3
		c0.7,0.3,1.5,0.5,2.2,0.5c1,0,1.9-0.3,2.7-0.8c0.8-0.5,1.4-1.3,1.8-2.4V28c0.8-2.5,2.1-4.6,3.8-6.1c1.7-1.5,3.9-2.2,6.5-2.1
		c1.6,0.1,2.9,0.4,4.1,0.9c1.2,0.5,2.1,1.1,2.9,1.9c0.8,0.8,1.3,1.6,1.7,2.6c0.4,1,0.6,1.9,0.6,2.9c0,1.8-0.4,3.3-1.1,4.5
		c-0.7,1.3-1.6,2.3-2.7,3.2c-1.1,0.9-2.2,1.6-3.4,2.1c-1.2,0.5-2.2,0.8-3.1,1c-0.1,0-0.3,0-0.4,0c-0.2,0-0.3,0-0.5,0
		c-0.8,0-1.6,0.1-2.4,0.2c-0.8,0.1-1.5,0.3-2,0.7c-0.6,0.4-1.1,1-1.4,1.7c-0.4,0.8-0.6,1.9-0.6,3.3v8c0,1.6,0.5,2.8,1.5,3.6
		c1,0.8,2.2,1.1,3.5,1.1c1.3,0,2.5-0.4,3.6-1.2c1.1-0.8,1.7-2,1.7-3.5V49c3.5-0.8,6.3-2,8.6-3.7c2.3-1.7,4.1-3.6,5.5-5.6
		c1.4-2,2.3-4.1,2.8-6.2c0.5-2.1,0.8-3.9,0.7-5.4C67.1,25.9,66.7,23.6,65.8,21.4z"/>
	<path class="st1" d="M48.2,63.6c-0.5-0.5-1.1-0.9-1.8-1.2c-0.7-0.3-1.4-0.4-2.1-0.4v0c-1.6,0-2.9,0.5-4,1.6c-1.1,1.1-1.6,2.4-1.6,4
		c0,0.7,0.1,1.4,0.4,2.1c0.3,0.7,0.7,1.3,1.2,1.8c0.5,0.5,1.1,0.9,1.8,1.2c0.7,0.3,1.4,0.4,2.2,0.4c0.7,0,1.4-0.1,2.1-0.4
		c0.7-0.3,1.3-0.7,1.8-1.2c0.5-0.5,0.9-1.1,1.2-1.8c0.3-0.7,0.4-1.4,0.4-2.1c0-0.8-0.1-1.5-0.4-2.2C49.1,64.7,48.7,64.2,48.2,63.6z"
		/>
</g>
</svg>
