<svg xmlns:dc="http://purl.org/dc/elements/1.1/" xmlns:cc="http://creativecommons.org/ns#" xmlns:rdf="http://www.w3.org/1999/02/22-rdf-syntax-ns#" xmlns:svg="http://www.w3.org/2000/svg" xmlns="http://www.w3.org/2000/svg" xmlns:sodipodi="http://sodipodi.sourceforge.net/DTD/sodipodi-0.dtd" xmlns:inkscape="http://www.inkscape.org/namespaces/inkscape" version="1.1" x="0pt" y="0pt" viewBox="0 0 100 100"><g transform="translate(0,-952.36218)"><path style="" d="m 54.280138,954.86299 c -1.244591,0.01 -2.510249,0.051 -3.799293,0.1348 -15.166927,0.989 -25.178514,7.4503 -31.489484,20.3275 -2.58003,5.2644 -4.21851,10.8708 -4.60801,15.77 -0.12579,1.5824 -0.0749,1.8404 0.55599,2.6789 0.38417,0.5106 0.6992,1.0989 0.6992,1.3057 0,0.2068 -1.25358,2.2776 -2.78839,4.5996 -3.2185903,4.86911 -5.3365903,8.42481 -5.7705503,9.67931 -0.59785,1.7283 0.36021,2.8546 3.1674903,3.7067 0.37066,0.1124 1.12883,0.4355 1.68483,0.716 1.15032,0.5804 1.25526,1.0845 0.60654,2.9232 -0.90383,2.5617 -0.39727,3.5507 2.00494,3.9341 l 1.19623,0.1937 -1.35628,0.5982 c -0.74524,0.3288 -1.43167,0.7934 -1.52478,1.0361 -0.25903,0.6751 0.34743,1.7405 1.34787,2.3588 1.49877,0.9263 1.56247,1.2902 0.64023,3.9762 -1.25125,3.6442 -0.99403,6.6763 0.69921,8.1798 1.81891,1.6152 5.19199,2.1179 9.52772,1.4237 4.16708,-0.6671 6.59142,-0.7985 7.52277,-0.4128 1.09484,0.4535 1.55096,1.5726 1.90385,4.726 0.40191,3.5914 0.850655,6.6924 1.002479,6.9415 0.06782,0.1112 10.409625,0.2022 22.989515,0.2022 l 22.871577,0 -0.884536,-1.8196 c -2.910983,-5.9422 -4.021044,-12.1395 -3.394934,-19.0134 0.602523,-6.6148 1.707839,-9.4606 5.281944,-13.5965 7.779363,-9.0023 10.689847,-15.97131 10.723948,-25.68531 0.01617,-4.5784 -0.400558,-7.4593 -1.617437,-11.1873 -4.971518,-15.2306 -18.523366,-23.7943 -37.192639,-23.6971 z m 1.280472,18.2636 c 3.172981,0.1357 5.962589,0.7487 8.365184,1.8364 2.402407,1.0881 4.40563,2.4871 6.014846,4.1868 1.609215,1.6999 2.834316,3.6259 3.672931,5.779 0.838452,2.1532 1.277169,4.3414 1.322592,6.5624 0.04526,1.4959 -0.194726,3.259 -0.716053,5.2988 -0.5213,2.0398 -1.442808,4.05401 -2.779971,6.04861 -1.337324,1.9944 -3.130766,3.8212 -5.37461,5.4757 -2.243655,1.6544 -5.066502,2.8686 -8.466274,3.6392 l 0,3.8077 c 0,1.4507 -0.546398,2.5873 -1.634286,3.4034 -1.087889,0.8158 -2.260463,1.2215 -3.529721,1.2215 -1.314518,0 -2.462467,-0.3725 -3.437054,-1.1204 -0.974587,-0.748 -1.465803,-1.9179 -1.465803,-3.5045 l 0,-7.885 c 0,-1.3598 0.185021,-2.422 0.54757,-3.1928 0.362576,-0.7704 0.831821,-1.3391 1.39841,-1.7016 0.566561,-0.3626 1.234374,-0.5917 2.004948,-0.6824 0.770574,-0.091 1.559776,-0.1566 2.375611,-0.2022 0.135757,0 0.287918,-0.016 0.446481,-0.034 0.158401,-0.023 0.30211,-0.034 0.438056,-0.034 0.861258,-0.1811 1.868315,-0.5095 3.024271,-0.9856 1.155955,-0.4759 2.259803,-1.15211 3.302268,-2.01341 1.042627,-0.8612 1.919871,-1.9126 2.645184,-3.159 0.725151,-1.2467 1.09514,-2.7255 1.09514,-4.448 0,-0.9519 -0.184994,-1.9038 -0.54757,-2.8558 -0.362737,-0.9517 -0.920025,-1.8045 -1.667982,-2.5525 -0.74793,-0.7479 -1.68878,-1.3715 -2.822092,-1.8701 -1.133149,-0.4987 -2.468748,-0.7939 -4.009897,-0.8846 -2.583775,-0.091 -4.716838,0.6103 -6.393932,2.1061 -1.677256,1.4959 -2.924327,3.488 -3.740325,5.9811 l 0,-0.067 c -0.362575,1.0426 -0.93376,1.818 -1.726951,2.3167 -0.79338,0.4985 -1.667969,0.7499 -2.619912,0.7497 -0.725151,2e-4 -1.448119,-0.1525 -2.173432,-0.4465 -0.725151,-0.2945 -1.337971,-0.7112 -1.836465,-1.2552 -0.49871,-0.5439 -0.860086,-1.2006 -1.086716,-1.9712 -0.22663,-0.7706 -0.204498,-1.6343 0.06739,-2.5862 1.405203,-4.8501 3.803041,-8.5588 7.202652,-11.1199 3.399772,-2.561 7.43664,-3.8413 12.105509,-3.8414 z m -2.990575,51.61481 c 0.72534,0 1.415069,0.1321 2.072342,0.4043 0.657245,0.2719 1.236854,0.6556 1.735375,1.1541 0.498683,0.4987 0.893136,1.0781 1.187806,1.7354 0.294697,0.6572 0.438056,1.3692 0.438056,2.1397 0,0.7253 -0.14406,1.4151 -0.438056,2.0724 -0.29467,0.6572 -0.689123,1.2367 -1.187806,1.7354 -0.498521,0.4985 -1.07813,0.9015 -1.735375,1.1962 -0.657273,0.2947 -1.347002,0.438 -2.072342,0.438 -0.770574,0 -1.482489,-0.1441 -2.139735,-0.438 -0.657435,-0.2947 -1.236855,-0.6977 -1.735376,-1.1962 -0.498683,-0.4987 -0.890642,-1.0782 -1.162533,-1.7354 -0.272053,-0.6573 -0.404359,-1.3471 -0.404359,-2.0724 0,-1.5411 0.524265,-2.8325 1.566892,-3.8751 1.042466,-1.0424 2.333963,-1.5584 3.875111,-1.5584 z" fill="#000000"></path></g></svg>