<svg xmlns="http://www.w3.org/2000/svg" xmlns:xlink="http://www.w3.org/1999/xlink" version="1.1" x="0pt" y="0pt" viewBox="0 0 91 91" enable-background="new 0 0 91 91" xml:space="preserve"><g><path d="M43.706,72.6c-0.281,4.945-1.175,10.35-0.7,15.275c0.298,3.064,4.474,3.07,4.773,0c0.475-4.926-0.417-10.33-0.698-15.275   C46.957,70.432,43.83,70.428,43.706,72.6z"></path><path d="M63.246,66.174c1.654,1.945,3.308,3.889,4.964,5.834c1.627,1.916,3.167,4.08,5.081,5.715   c2.385,2.037,5.229-0.977,3.373-3.371c-1.54-1.992-3.619-3.627-5.456-5.346c-1.857-1.74-3.715-3.48-5.573-5.221   C64.028,62.281,61.85,64.531,63.246,66.174z"></path><path d="M88.442,48.666c3.11-0.236,3.019-4.418,0-4.773c-4.911-0.574-10.328,0.207-15.27,0.391c-2.193,0.079-2.154,3.21,0,3.375   C78.112,48.039,83.503,49.043,88.442,48.666z"></path><path d="M74.216,13.757c-1.955,1.589-3.54,3.709-5.216,5.587l-5.094,5.703c-1.45,1.627,0.762,3.837,2.387,2.387   c1.902-1.696,3.807-3.394,5.709-5.09c1.874-1.674,4-3.263,5.587-5.214C79.536,14.738,76.609,11.812,74.216,13.757z"></path><path d="M42.593,3.125c-0.381,4.936,0.619,10.328,0.998,15.27c0.166,2.15,3.296,2.195,3.377,0   c0.182-4.943,0.966-10.358,0.394-15.27C47.012,0.106,42.832,0.008,42.593,3.125z"></path><path d="M15.873,14.832c-2.276-1.708-4.58,1.831-2.893,3.745c1.666,1.889,3.857,3.397,5.797,4.998   c1.974,1.621,3.947,3.246,5.919,4.871c1.651,1.358,3.927-0.794,2.389-2.389C23.484,22.333,20.019,17.937,15.873,14.832z"></path><path d="M18.818,44.55c-4.943-0.201-10.358-1.003-15.271-0.448c-3.024,0.341-3.109,4.521,0,4.771   c4.934,0.398,10.332-0.586,15.271-0.945C20.972,47.77,21.007,44.638,18.818,44.55z"></path><path d="M25.469,63.523c-1.921,1.682-3.842,3.359-5.763,5.035c-1.891,1.658-4.036,3.223-5.644,5.158   c-1.985,2.391,0.978,5.281,3.375,3.375c1.97-1.568,3.576-3.672,5.27-5.529c1.717-1.881,3.434-3.768,5.148-5.65   C29.33,64.297,27.101,62.098,25.469,63.523z"></path></g></svg>