<?xml version="1.0" encoding="utf-8"?>
<!-- Generator: Adobe Illustrator 21.1.0, SVG Export Plug-In . SVG Version: 6.00 Build 0)  -->
<svg version="1.1" id="Layer_1" xmlns="http://www.w3.org/2000/svg" xmlns:xlink="http://www.w3.org/1999/xlink" x="0pt" y="0pt"
	 viewBox="0 0 85 85" style="enable-background:new 0 0 85 85;" xml:space="preserve">
<g>
	<path d="M40.4,67.5c-0.3,4.6-1.1,9.5-0.6,14.1c0.3,2.8,4.1,2.8,4.4,0c0.4-4.5-0.4-9.5-0.6-14.1C43.4,65.5,40.5,65.5,40.4,67.5z"/>
	<path d="M58.4,61.6c1.5,1.8,3,3.6,4.6,5.4c1.5,1.8,2.9,3.8,4.7,5.3c2.2,1.9,4.8-0.9,3.1-3.1c-1.4-1.8-3.3-3.3-5-4.9
		c-1.7-1.6-3.4-3.2-5.1-4.8C59.1,58,57.1,60.1,58.4,61.6z"/>
	<path d="M81.7,45.4c2.9-0.2,2.8-4.1,0-4.4c-4.5-0.5-9.5,0.2-14.1,0.4c-2,0.1-2,3,0,3.1C72.1,44.9,77.1,45.8,81.7,45.4z"/>
	<path d="M68.5,13.3c-1.8,1.5-3.3,3.4-4.8,5.2L59,23.7c-1.3,1.5,0.7,3.5,2.2,2.2c1.8-1.6,3.5-3.1,5.3-4.7c1.7-1.5,3.7-3,5.2-4.8
		C73.4,14.2,70.7,11.5,68.5,13.3z"/>
	<path d="M39.4,3.5C39,8,40,13,40.3,17.5c0.2,2,3,2,3.1,0C43.6,13,44.3,8,43.8,3.5C43.5,0.7,39.6,0.6,39.4,3.5z"/>
	<path d="M14.8,14.2c-2.1-1.6-4.2,1.7-2.7,3.5c1.5,1.7,3.6,3.1,5.3,4.6c1.8,1.5,3.6,3,5.5,4.5c1.5,1.3,3.6-0.7,2.2-2.2
		C21.8,21.2,18.6,17.1,14.8,14.2z"/>
	<path d="M17.5,41.6c-4.6-0.2-9.5-0.9-14.1-0.4c-2.8,0.3-2.9,4.2,0,4.4c4.5,0.4,9.5-0.5,14.1-0.9C19.5,44.6,19.5,41.7,17.5,41.6z"/>
	<path d="M23.6,59.1c-1.8,1.6-3.5,3.1-5.3,4.6c-1.7,1.5-3.7,3-5.2,4.8c-1.8,2.2,0.9,4.9,3.1,3.1c1.8-1.4,3.3-3.4,4.9-5.1
		c1.6-1.7,3.2-3.5,4.7-5.2C27.2,59.8,25.1,57.8,23.6,59.1z"/>
</g>
</svg>
