<?xml version="1.0" encoding="utf-8"?>
<!-- Generator: Adobe Illustrator 21.1.0, SVG Export Plug-In . SVG Version: 6.00 Build 0)  -->
<svg version="1.1" id="Layer_1" xmlns="http://www.w3.org/2000/svg" xmlns:xlink="http://www.w3.org/1999/xlink" x="0pt" y="0pt"
	 viewBox="0 0 85 85" style="enable-background:new 0 0 85 85;" xml:space="preserve">
<path d="M47.1,82c1.6,1,3.5,1.6,5.7,1.6c3,0,6.8-0.8,11.4-2.4C82.6,74.6,82.3,58.5,82,45.5l0-0.1c-0.4-16-14.1-38.5-26.1-43
	c-1.7-0.7-3.3-1-4.7-1c-1.7,0-3.2,0.5-4.4,1.5c-3.1,2.5-3,7.5-2.9,9.6v61.8C43.9,76.9,44.3,80.1,47.1,82z M48.8,5.5
	c0.7-0.6,1.6-0.7,2.3-0.7c1.3,0,2.6,0.4,3.6,0.8c10.7,3.9,23.7,25.6,24,40c0.4,15.7-0.5,27.2-15.6,32.5c-4.7,1.7-7.9,2.2-10.2,2.2
	c-2,0-3.2-0.4-3.9-1c-1.3-1-1.9-2.5-1.9-5.1V12.2C47,10.9,46.9,6.9,48.8,5.5z"/>
<path d="M75.9,38.8c-0.9-2.2-2.8-3.5-5.3-3.9h0c-2.3-0.4-5.4,0.1-6.4,1.5c-0.3,0.4-0.8,1.2-1.4,2.3L62,40c-0.8,1.5-2,3.4-2.5,4.1
	l0,0l0,0c-0.1,0-3.1,0.8-5-1.1c-0.6-0.7-0.8-1.1-0.8-1.4c0.1-0.7,1.6-1.7,3.2-2.8l0.1-0.1l0.2-0.1c2.7-2.3,2.5-4.6,1.5-5.9
	c-1.3-1.7-3.8-1.9-5.7-0.6c-0.1,0.1-0.2,0.1-0.3,0.1c-0.2,0-0.3-0.1-0.5-0.2c-0.6-0.7-0.5-1.8,0.7-3c2.7-2.6,6.7-0.1,8.9,1.6
	c1.1,0.9,2.6,1.9,4.1,1.3c1.7-0.6,2.2-2.5,2.8-4.7l0-0.2c1-4-0.5-8.5-3.8-11.5c-2.7-2.6-4.1-1.7-6-0.2c-0.3,0.2-0.6,0.4-0.9,0.6
	c-0.8,0.5-1.7,1.2-3,2c-1,0.5-1.9,0.8-2.6,0.8h-0.2l0-0.2c0.1-0.3,0.4-1.5,2.5-2.9l0.3-0.2c1.9-1.8,2.6-3.7,2.1-5.4
	c-0.6-1.7-2.3-2.8-5.2-3.3c-0.4-0.1-0.9,0-1.2,0.3c-0.4,0.3-0.6,0.7-0.6,1.1c-0.1,0.4,0,0.9,0.3,1.2c0.3,0.4,0.7,0.6,1.1,0.6
	c1.7,0.3,2.6,0.8,2.6,1.1c0,0.1,0,0.7-1.2,1.9c-3.6,2.4-4.5,5.5-3.4,7.3c0.9,1.5,3.2,2.4,7,0.4c1.5-0.8,2.7-1.6,3.5-2.2
	c0.3-0.2,0.6-0.4,0.8-0.6c0.2-0.2,0.4-0.3,0.5-0.4c0.1-0.1,0.3-0.2,0.3-0.3l0.1-0.1l0.1,0.1c0,0,0.1,0.1,0.2,0.1
	c0.1,0.1,0.4,0.3,0.6,0.6c2.4,2.3,3.5,5.7,2.8,8.4c-0.1,0.6-0.4,1.7-0.6,2.3l0,0.1l-0.1-0.1c-0.1-0.1-0.3-0.2-0.4-0.3
	c-0.1-0.1-0.2-0.2-0.4-0.3c-5-4-9.8-4.5-13.1-1.4c-2.7,2.6-2.5,5.7-1,7.4c1.4,1.7,3.5,1.9,5.1,0.7c0.5-0.4,0.9-0.3,1.1-0.2
	c0,0,0,0,0.1,0l0.1,0l0,0.1c0,0.1,0,0.5-0.9,1.3c-2.8,1.7-4.6,3.2-4.8,5.1c-0.2,1.3,0.3,2.6,1.7,4c3.3,3.5,8.5,2.4,9.6,1.4
	c0.4-0.4,0.9-1.2,3.2-5c0.8-1.3,1.6-2.6,1.9-3.2l0,0l0,0c0.5-0.3,2.4-0.7,4.1-0.1c1.2,0.4,1.5,1.2,1.6,1.5c0,0,0,0.1,0,0.1
	c1.1,3.7,0.6,8.1-0.3,9c-0.9,0.9-2.8,1.1-10.7,1.1c-8.5,0-11.3,1-12.4,7.6c-0.7,4.1,0.9,6.4,1.9,7.4c1.1,1.1,2.8,1.7,4.1,1.4
	c2-0.5,4.8-2.2,6.2-5.4c0.2-0.4,0.4-0.8,0.6-1.1l0.3-0.5v0.4c0,0.2,0,0.5-0.1,0.7c-0.2,2.8-0.2,5.7,2,6.4c1.5,0.5,3.1-0.3,4.3-2.1
	c1.1-1.5,1.8-2.2,2.3-2.6l0.1-0.1l0.1,0.2c0.1,0.3,0.2,0.8-0.1,1.6c-1.2,2.9-7,9-8.9,9.5c-2.6,0.7-5.3,1.2-6.9,0.7
	c-0.4-0.1-1-0.9-1-1.6c0-0.7,0.2-0.9,0.7-1.1c2.1-1,4.6-0.2,4.7-0.2c0.4,0.1,0.8,0.1,1.2-0.1s0.7-0.5,0.8-0.9
	c0.1-0.4,0.1-0.8-0.1-1.2S61,68.2,60.6,68c0,0-1.4-0.5-3.3-0.5c-1.2,0-2.5,0.2-3.8,0.8c-1.7,0.7-2.6,2.3-2.5,4.3
	c0.2,2.1,1.6,3.9,3.4,4.4c0.8,0.2,1.6,0.3,2.4,0.3c1.9,0,4.1-0.5,6.2-1c3.4-0.9,9.7-8,11.1-11.3c1-2.6,0.3-4.6-1-5.5
	c-1.1-0.9-2.4-1-3.4-0.4c-1,0.7-2.3,1.6-3.8,3.9l-0.4,0.4V63c0-0.1,0-0.2,0-0.4c0-0.5,0-1.2,0.1-2.1l0-0.1c0.1-1.3,0.4-4.6-1.9-5.2
	c-2.6-0.7-4.6,2.9-5.1,4.2c-0.9,2.2-2.8,3.4-3.9,3.6c-0.1,0-0.7-0.1-1.2-0.5c-0.7-0.7-1.3-1.9-0.8-4.4l0-0.1
	c0.7-3.9,0.9-4.8,9.2-4.8c8.2,0,10.9-0.1,12.9-2.1C76.9,48.9,77.1,42.9,75.9,38.8z"/>
<path d="M3,45.4L3,45.4C2.7,58.5,2.4,74.6,20.8,81.2c4.7,1.6,8.3,2.4,11.4,2.4c2.5,0,4.4-0.5,5.7-1.6c2.8-2,3.2-5.4,3.2-7.7l0-61.9
	c0.4-4.4-0.6-7.8-2.9-9.5l0,0c-1.2-0.9-2.6-1.4-4.3-1.4c-1.4,0-3,0.3-4.7,0.9C17.1,6.9,3.4,29.4,3,45.4z M30.3,5.5
	c1-0.4,2.4-0.8,3.6-0.8c0.6,0,1.6,0.1,2.3,0.7c2,1.5,1.9,5.4,1.6,6.7v62.1c0,2.7-0.5,4.2-1.9,5.1c-0.8,0.5-2,1-3.9,1
	c-2.3,0-5.5-0.6-10.2-2.2C6.9,72.8,6,61.3,6.3,45.5C6.6,31.1,19.6,9.4,30.3,5.5z"/>
<path d="M23.4,50.1c-7.8,0-9.6-0.2-10.7-1.1c-0.9-0.9-1.4-5.2-0.3-9l0-0.1c0.1-0.3,0.4-1.1,1.7-1.5c1.7-0.6,3.6-0.2,4.1,0.1l0,0
	c0.4,0.6,1.2,1.9,1.9,3.2c2.3,3.7,2.8,4.6,3.2,5c1.1,1,6.3,2.1,9.6-1.4c1.3-1.4,1.9-2.7,1.7-4c-0.3-2.2-2.3-3.6-4.7-5.1
	c-0.9-0.8-1-1.2-1-1.3v-0.1l0,0c0.1-0.1,0.6-0.2,1.2,0.1c1.7,1.2,3.9,0.9,5.1-0.7c1.9-2.5,1-5.6-1-7.4c-3.4-3.3-8-2.8-13.1,1.3
	c-0.2,0.2-0.3,0.3-0.5,0.4c-0.1,0.1-0.2,0.1-0.3,0.2l-0.1,0.1l-0.1-0.2c-0.2-0.6-0.5-1.7-0.6-2.3c-0.7-2.7,0.5-6.1,2.8-8.4
	c0.3-0.3,0.5-0.4,0.6-0.6c0.1-0.1,0.1-0.1,0.2-0.1l0.1-0.1l0.1,0c0.2,0.1,0.6,0.4,0.9,0.7c0.8,0.7,2.1,1.7,4.3,2.8
	c3.9,2.1,6.2,1.2,7-0.4c1.1-1.9,0.3-5-3.4-7.3C31,11.8,31,11.2,31,11.1l0-0.1c0.1-0.2,0.8-0.8,2.6-1.1c0.9-0.2,1.5-1,1.4-1.9
	c-0.1-0.8-0.9-1.5-1.9-1.4c-2.9,0.5-4.7,1.7-5.2,3.3c-0.5,1.7,0.2,3.4,2.2,5.4l0.3,0.2c2,1.2,2.4,2.5,2.5,2.9l0,0.2h-0.2
	c-0.3,0-1.1-0.1-2.6-0.8c-1.7-1-2.9-1.8-3.9-2.6c-2-1.5-3.3-2.3-6,0.2c-3.3,3.1-4.7,7.6-3.8,11.5c0.5,2.3,1.1,4.3,2.8,4.9
	c1.5,0.5,2.9-0.4,4.1-1.3c4.7-3.8,7.4-3,8.9-1.6c0.7,0.6,1,1.3,1.1,2c0,0.4-0.1,0.8-0.4,1c-0.2,0.2-0.3,0.2-0.5,0.2
	c-0.1,0-0.2,0-0.3-0.1c-2-1.4-4.4-1.1-5.7,0.6c-0.5,0.6-0.8,1.5-0.7,2.4c0.1,0.9,0.5,2.2,2.2,3.6l0.2,0.1c0.8,0.5,3.4,2.1,3.4,2.9
	c0,0.3-0.3,0.7-0.8,1.4c-1.8,1.9-4.5,1.3-5,1.1l0,0l0,0c-0.5-0.7-1.7-2.7-2.5-4.1c-0.3-0.6-0.7-1.1-1-1.6c-0.5-0.9-1-1.6-1.2-1.9
	c-1-1.5-4.1-1.9-6.4-1.6c-2.6,0.4-4.4,1.8-5.1,4.1C8.1,43,8.3,49,10.5,51.2c2.1,2,4.7,2.1,12.9,2.1c8.3,0,8.5,0.9,9.2,4.8l0,0.1
	c0.5,2.5-0.2,3.8-0.8,4.4c-0.5,0.5-1,0.7-1.2,0.5c-1.1-0.2-3-1.4-3.9-3.6c-0.7-1.6-2.9-4.8-5.2-4.2c-2.5,0.7-2,4.6-1.9,5.4
	c0.1,1.1,0.1,1.9,0.1,2.4h-0.1c0,0,0,0,0,0c0,0,0,0,0,0h-0.1c0,0,0,0,0,0c0,0-0.1-0.1-0.1-0.1c-1.5-2.4-2.8-3.3-3.8-3.9
	c-0.4-0.2-0.9-0.4-1.3-0.4c-0.7,0-1.4,0.3-2,0.7c-1.1,0.9-2.1,3-1,5.6c1.4,3.3,7.6,10.4,11.1,11.3c2.1,0.5,4.3,1,6.2,1
	c0.9,0,1.7-0.1,2.4-0.3c1.8-0.5,3.2-2.4,3.4-4.4c0.2-1.9-0.8-3.5-2.5-4.3c-3.5-1.6-7.1-0.3-7.1-0.3c-0.8,0.3-1.3,1.2-1,2
	c0.3,0.8,1.2,1.3,2,1c0.1,0,2.6-0.8,4.7,0.2c0.4,0.1,0.7,0.6,0.7,1.1c-0.1,0.7-0.5,1.4-1,1.6c-1.7,0.5-4.5-0.1-6.9-0.7
	c-2-0.5-7.7-6.6-8.9-9.5c-0.4-1-0.2-1.5-0.1-1.6l0.1-0.1l0.1,0.1c0.5,0.4,1.2,1.1,2.3,2.6c1.2,1.8,2.8,2.6,4.3,2.2
	c2.2-0.7,2.2-3.7,2-6.5c0-0.3,0-0.5-0.1-0.7l0.2-0.1c0.3,0.4,0.5,0.8,0.7,1.2c1.4,3.3,4.2,5,6.2,5.4c1.4,0.3,2.9-0.2,4.1-1.4
	c1.7-1.7,2.4-4.3,1.9-7.4C34.7,51.1,32,50.1,23.4,50.1z"/>
</svg>
