<svg xmlns="http://www.w3.org/2000/svg" xmlns:xlink="http://www.w3.org/1999/xlink" version="1.1" x="0pt" y="0pt" viewBox="0 0 100 100" enable-background="new 0 0 100 100" xml:space="preserve"><g><path d="M93.218,53.163C92.805,35.642,77.83,11.013,64.606,6.105c-4.271-1.585-7.644-1.416-10.028,0.501   c-3.855,3.099-3.289,9.395-3.137,10.622v67.476c0,2.597,0.365,6.31,3.529,8.548c1.608,1.138,3.719,1.708,6.366,1.708   c3.289,0,7.405-0.88,12.405-2.643C93.976,85.185,93.556,67.43,93.218,53.163z M72.468,88.709c-9.541,3.363-13.58,2.63-15.288,1.42   c-1.323-0.936-1.913-2.61-1.913-5.425v-67.6l-0.018-0.261c-0.2-1.473-0.278-5.651,1.73-7.258c0.652-0.522,1.501-0.72,2.416-0.72   c1.288,0,2.705,0.393,3.877,0.828c11.592,4.302,25.749,27.914,26.119,43.56C89.797,70.378,88.82,82.945,72.468,88.709z"></path><path d="M80.656,41.576c-2.589-0.417-5.952,0.128-7.093,1.759c-0.42,0.603-1.317,2.118-2.356,3.872   c-0.899,1.518-2.209,3.73-2.73,4.495c-0.782,0.245-3.522,0.709-5.352-1.228c-0.673-0.713-0.884-1.191-0.861-1.384   c0.097-0.783,2.587-2.369,3.65-3.046l0.213-0.157c3.013-2.566,2.738-5.196,1.586-6.669c-1.46-1.87-4.278-2.134-6.418-0.603   c-0.135,0.098-0.321,0.232-0.628-0.139c-0.524-0.637-0.497-1.882,0.804-3.109c2.962-2.798,7.243-0.107,9.53,1.745   c1.221,0.989,2.841,2.051,4.549,1.472c1.98-0.67,2.54-2.98,3.132-5.426c1.059-4.376-0.573-9.367-4.157-12.714   c-2.981-2.785-4.563-1.944-6.816-0.225c-0.93,0.709-2.203,1.68-4.209,2.787c-1.451,0.8-2.326,0.919-2.689,0.884   c0.06-0.506,0.67-1.78,2.621-3.012l0.31-0.244c2.184-2.118,2.997-4.123,2.418-5.961c-0.607-1.926-2.616-3.215-5.812-3.729   c-1.046-0.166-2.025,0.542-2.193,1.585c-0.168,1.044,0.542,2.026,1.586,2.193c1.937,0.312,2.707,0.916,2.768,1.1   c0.024,0.114-0.133,0.766-1.301,1.935c-4.051,2.641-4.945,6.096-3.716,8.174c1.024,1.735,3.626,2.759,7.855,0.426   c2.255-1.243,3.715-2.358,4.682-3.095c0.367-0.28,0.774-0.591,1.023-0.743c0.149,0.1,0.413,0.305,0.86,0.722   c2.553,2.384,3.778,6.008,3.05,9.017c-0.156,0.644-0.446,1.839-0.709,2.486c-0.193-0.115-0.47-0.302-0.844-0.605   c-5.546-4.492-10.855-5.058-14.566-1.554c-2.95,2.785-2.801,6.297-1.13,8.326c1.495,1.815,3.938,2.157,5.811,0.817   c0.584-0.419,1.092-0.258,1.164-0.174c0.016,0.096-0.105,0.595-0.949,1.341c-2.817,1.799-4.982,3.378-5.272,5.727   c-0.184,1.485,0.43,2.952,1.876,4.482c3.694,3.908,9.445,2.647,10.679,1.515c0.449-0.412,1.002-1.279,3.477-5.46   c0.836-1.411,1.698-2.867,2.099-3.479c0.572-0.293,2.627-0.711,4.367-0.095c1.379,0.487,1.643,1.368,1.729,1.658   c1.253,4.191,0.542,8.853-0.306,9.686c-1.011,0.994-3.061,1.209-11.545,1.209c-9.325,0-12.431,1.162-13.699,8.426   c-0.803,4.605,0.934,7.078,2.041,8.142c1.334,1.282,3.115,1.876,4.638,1.544c2.334-0.501,5.363-2.554,6.869-6.011   c0.219-0.5,0.505-0.968,0.791-1.361c-0.01,0.234-0.029,0.499-0.058,0.799c-0.259,2.667-0.304,6.317,2.281,7.238   c1.614,0.576,3.457-0.337,4.819-2.378c1.041-1.561,1.834-2.326,2.495-2.818c0.147,0.279,0.247,0.813-0.109,1.663   c-1.297,3.097-7.506,9.703-9.63,10.244c-2.668,0.681-5.642,1.307-7.445,0.79c-0.409-0.117-0.95-0.85-1.008-1.584   c-0.05-0.637,0.266-0.876,0.615-1.039c2.278-1.061,4.969-0.188,4.987-0.182c0.999,0.342,2.088-0.188,2.432-1.188   c0.343-1-0.188-2.088-1.188-2.432c-0.168-0.056-4.148-1.392-7.85,0.334c-1.927,0.901-2.978,2.698-2.811,4.809   c0.182,2.3,1.768,4.387,3.77,4.961c0.826,0.236,1.713,0.342,2.666,0.342c1.956,0,4.194-0.444,6.779-1.102   c3.804-0.97,10.68-8.81,12.215-12.475c1.219-2.911,0.164-5.198-1.111-6.27c-1.174-0.989-2.711-1.179-3.821-0.471   c-1.119,0.713-2.49,1.78-4.167,4.294c-0.055,0.083-0.11,0.16-0.164,0.23c-0.05-0.544-0.062-1.372,0.057-2.597   c0.127-1.304,0.511-5.272-2.238-5.986c-2.786-0.73-5.141,3.109-5.812,4.649c-1.025,2.351-3.052,3.56-4.165,3.799   c-0.135,0.021-0.682-0.067-1.211-0.591c-0.546-0.541-1.387-1.87-0.893-4.696c0.741-4.248,0.917-5.257,9.928-5.257   c9.026,0,11.988-0.105,14.228-2.306c2.427-2.386,2.627-9.036,1.288-13.513C85.623,43.672,83.596,42.049,80.656,41.576z"></path><path d="M45.422,6.606C43.038,4.69,39.665,4.52,35.395,6.105c-13.224,4.908-28.2,29.536-28.614,47.058   C6.445,67.43,6.025,85.185,26.26,92.318c5.001,1.763,9.116,2.643,12.405,2.643c2.646,0,4.758-0.57,6.366-1.708   c3.163-2.239,3.529-5.951,3.529-8.548V17.229C48.711,16.001,49.278,9.706,45.422,6.606z M44.751,16.84l-0.018,0.132v67.733   c0,2.815-0.59,4.489-1.913,5.425c-1.708,1.209-5.746,1.942-15.288-1.42C11.18,82.945,10.203,70.378,10.608,53.253   c0.37-15.646,14.528-39.258,26.119-43.56c1.172-0.435,2.588-0.828,3.877-0.828c0.914,0,1.764,0.198,2.417,0.72   C45.028,11.193,44.95,15.37,44.751,16.84z"></path><path d="M26.59,34.137c-0.374,0.303-0.65,0.49-0.844,0.605c-0.263-0.647-0.553-1.842-0.709-2.486   c-0.728-3.009,0.497-6.633,3.05-9.017c0.447-0.417,0.711-0.622,0.86-0.722c0.249,0.153,0.655,0.463,1.023,0.744   c0.967,0.738,2.428,1.852,4.682,3.096c4.227,2.331,6.83,1.309,7.855-0.427c1.228-2.078,0.335-5.533-3.716-8.174   c-1.168-1.168-1.325-1.821-1.301-1.934c0.061-0.185,0.832-0.79,2.769-1.101c1.043-0.168,1.753-1.15,1.585-2.193   c-0.168-1.043-1.145-1.751-2.193-1.585c-3.195,0.514-5.204,1.803-5.811,3.729c-0.579,1.837,0.234,3.842,2.418,5.961l0.31,0.244   c1.951,1.232,2.561,2.506,2.62,3.012c-0.364,0.032-1.24-0.085-2.688-0.883c-2.006-1.107-3.279-2.078-4.209-2.788   c-2.252-1.719-3.835-2.562-6.817,0.225c-3.585,3.348-5.216,8.339-4.157,12.714c0.592,2.446,1.152,4.757,3.131,5.426   c1.71,0.577,3.329-0.483,4.549-1.472c2.288-1.853,6.568-4.542,9.53-1.746c1.301,1.228,1.328,2.473,0.803,3.11   c-0.306,0.371-0.492,0.236-0.627,0.139c-2.136-1.53-4.957-1.266-6.418,0.603c-1.152,1.473-1.427,4.104,1.586,6.669l0.213,0.157   c1.063,0.677,3.553,2.263,3.65,3.046c0.024,0.193-0.187,0.671-0.861,1.384c-1.831,1.938-4.57,1.473-5.351,1.228   c-0.521-0.764-1.833-2.978-2.732-4.497c-1.038-1.753-1.935-3.267-2.355-3.87c-1.139-1.632-4.499-2.177-7.09-1.759   c-2.94,0.473-4.967,2.095-5.707,4.568c-1.339,4.476-1.138,11.127,1.289,13.513c2.24,2.201,5.202,2.306,14.228,2.306   c9.011,0,9.187,1.009,9.928,5.257c0.493,2.826-0.348,4.155-0.893,4.696c-0.528,0.523-1.074,0.608-1.211,0.591   c-1.112-0.239-3.14-1.448-4.165-3.8c-0.67-1.539-3.022-5.372-5.812-4.648c-2.749,0.714-2.364,4.682-2.238,5.986   c0.119,1.224,0.108,2.052,0.057,2.597c-0.054-0.071-0.109-0.147-0.164-0.23c-1.677-2.513-3.047-3.581-4.167-4.294   c-1.111-0.709-2.648-0.519-3.822,0.471c-1.274,1.073-2.329,3.359-1.11,6.27c1.534,3.665,8.411,11.505,12.215,12.475   c2.585,0.658,4.823,1.102,6.779,1.102c0.953,0,1.839-0.106,2.666-0.342c2.002-0.575,3.587-2.661,3.769-4.961   c0.167-2.111-0.884-3.908-2.811-4.809c-3.699-1.726-7.682-0.391-7.85-0.334c-0.999,0.344-1.531,1.432-1.187,2.432   c0.343,0.999,1.431,1.533,2.432,1.188c0.027-0.009,2.709-0.881,4.986,0.182c0.35,0.163,0.667,0.402,0.616,1.039   c-0.058,0.734-0.599,1.467-1.009,1.584c-1.802,0.518-4.775-0.108-7.445-0.79c-2.123-0.541-8.332-7.147-9.629-10.244   c-0.356-0.85-0.256-1.384-0.109-1.663c0.661,0.492,1.453,1.258,2.495,2.819c1.361,2.04,3.208,2.953,4.818,2.377   c2.584-0.921,2.54-4.572,2.282-7.238c-0.029-0.3-0.048-0.565-0.058-0.799c0.287,0.392,0.573,0.861,0.791,1.361   c1.508,3.457,4.537,5.51,6.869,6.011c1.528,0.327,3.306-0.263,4.639-1.545c1.107-1.064,2.843-3.536,2.04-8.141   c-1.267-7.264-4.373-8.426-13.698-8.426c-8.484,0-10.534-0.215-11.545-1.209c-0.847-0.832-1.558-5.495-0.306-9.686   c0.087-0.29,0.35-1.171,1.73-1.658c1.739-0.614,3.795-0.198,4.367,0.095c0.402,0.613,1.263,2.066,2.098,3.476   c2.477,4.183,3.03,5.051,3.48,5.464c1.232,1.13,6.983,2.391,10.678-1.516c1.447-1.531,2.061-2.998,1.877-4.483   c-0.292-2.35-2.456-3.928-5.273-5.727c-0.844-0.746-0.965-1.244-0.959-1.317c0.082-0.109,0.59-0.268,1.174,0.151   c1.872,1.341,4.314,0.997,5.81-0.817c1.672-2.029,1.821-5.541-1.129-8.326C37.444,29.077,32.135,29.645,26.59,34.137z"></path></g></svg>