<svg xmlns="http://www.w3.org/2000/svg" viewBox="0 0 48 48" x="0pt" y="0pt"><defs><style>.cls-1{fill:none;}</style></defs><title>Map</title><g data-name="Bouding Box"><rect class="cls-1" width="48" height="48"></rect></g><g><path d="M42.84,6.41a2.53,2.53,0,0,0-2.46-.16l-9.54,4.64a1.59,1.59,0,0,1-1.33,0L19.84,6.42a4.6,4.6,0,0,0-4,.09l-9.29,5A4.57,4.57,0,0,0,4,15.54V39.47a2.5,2.5,0,0,0,1.27,2.19,2.56,2.56,0,0,0,2.58,0L17,36a1.58,1.58,0,0,1,1.6,0l9.21,5.38a4.5,4.5,0,0,0,2.3.63,4.62,4.62,0,0,0,2.35-.64l9.23-5.66a4.58,4.58,0,0,0,2.27-4V8.53A2.51,2.51,0,0,0,42.84,6.41ZM7,38.64V15.54a1.56,1.56,0,0,1,.9-1.41l8.6-4.59V33a5.48,5.48,0,0,0-1,.43ZM20.16,33.4a4.56,4.56,0,0,0-.67-.32V9.57l8.75,4c.09,0,.18.05.26.08V38.28ZM41,31.75a1.6,1.6,0,0,1-.81,1.38L31.5,38.46V13.8a4.35,4.35,0,0,0,.61-.2L41,9.28Z"></path></g></svg>