<?xml version="1.0" encoding="utf-8"?>
<!-- Generator: Adobe Illustrator 21.1.0, SVG Export Plug-In . SVG Version: 6.00 Build 0)  -->
<svg version="1.1" id="Layer_1" xmlns="http://www.w3.org/2000/svg" xmlns:xlink="http://www.w3.org/1999/xlink" x="0pt" y="0pt"
	 viewBox="0 0 85 85" style="enable-background:new 0 0 85 85;" xml:space="preserve">
<title>Map</title>
<path d="M79.4,8.7L79.4,8.7C78.3,8,77.1,7.9,76,8.4l-19.1,9.3c-1.2,0.6-2.6,0.6-4,0l-19.3-9c-2.1-1-4.6-0.9-6.7,0.2l-18.6,10
	c-2.6,1.3-4.2,3.9-4.3,6.8l0,47.8c0,1.2,0.7,2.5,1.8,3.1c1.1,0.6,2.5,0.6,3.7,0l18.2-11.3c0.8-0.5,1.6-0.7,2.4-0.7
	c0.8,0,1.6,0.2,2.4,0.7l18.4,10.8c1.2,0.7,2.6,1.1,3.8,1.1c1.5,0,2.8-0.4,3.9-1.1L77,64.8c2.4-1.5,3.9-4,3.8-6.7l0-46.6l0-0.1
	C80.9,10.4,80.4,9.3,79.4,8.7z M29,60.1c0,0.9-0.6,1.5-1.2,1.8L27.6,62c-0.6,0.2-1,0.4-1.3,0.6L10.1,72.6c-0.3,0.2-0.7,0.2-1,0.2
	c-0.4,0-0.8-0.1-1.1-0.3c-0.6-0.4-1-1-1-1.8V25.6c0-1.8,1.1-3.4,2.7-4.2L26,12.7c0.7-0.3,1.4-0.3,2,0.1c0.6,0.4,1,1,1,1.8V60.1z
	 M53,70.1c0,0.8-0.4,1.5-1.1,1.8c-0.3,0.2-0.6,0.2-1,0.2c-0.4,0-0.7-0.1-1.1-0.3l-15.8-9.3c-0.2-0.1-0.5-0.3-0.6-0.3l-0.2-0.1
	c-0.7-0.3-1.1-1.1-1.1-1.8V14.5c0-0.7,0.4-1.4,1-1.8c0.6-0.4,1.3-0.4,2-0.1l16.3,7.5c0.7,0.1,1,0.5,1.2,0.6l0.4,0.4V70.1z M78,58
	c0,1.7-0.9,3.2-2.3,4.1L59.1,72.2c-0.3,0.2-0.7,0.2-1,0.2c-0.4,0-0.8-0.1-1.1-0.3c-0.6-0.4-1-1-1-1.8V22.5c0-0.8,0.6-1.8,1.5-2
	c0.1,0,0.1-0.1,0.2-0.1c0.1,0,0.2-0.1,0.4-0.1L75,12.1c0.6-0.3,1.4-0.3,2,0.1c0.6,0.4,1,1,1,1.8V58z"/>
</svg>
