<svg xmlns="http://www.w3.org/2000/svg" data-name="Layer 1" viewBox="0 0 100 100" x="0pt" y="0pt"><title>26</title><g data-name="Group"><path data-name="Compound Path" d="M93.1,39.1v-.7l-.3-.5h-.1l-.2-.3h-.1l-.2-.2L80.3,28.7V9.1a3,3,0,0,0-3-3H22.7a3,3,0,0,0-3,3V28.7L8,37.2l-.2.2H7.7l-.2.3H7.4l-.3.5v.9a3,3,0,0,0,0,.4V90.9a3,3,0,0,0,3,3H90.2a3,3,0,0,0,3-3V39.7a3,3,0,0,0,0-.4ZM80.3,36.2l4.8,3.5-4.8,3.4ZM33.5,20.5H53v6H33.5Zm0,11.7H66.5v6H33.5Zm0,11.7H66.5v6H33.5ZM19.7,36.2v6.9l-4.8-3.4Zm-6.9,9.4L36,62.3,12.8,83.8Zm4.4,42.4L41,65.9l7.2,5.2a3,3,0,0,0,3.5,0L59,65.9l23.8,22Zm70-4.1L63.9,62.3,87.2,45.5Z"></path></g></svg>