<?xml version="1.0" encoding="utf-8"?>
<!-- Generator: Adobe Illustrator 21.1.0, SVG Export Plug-In . SVG Version: 6.00 Build 0)  -->
<svg version="1.1" id="Layer_1" xmlns="http://www.w3.org/2000/svg" xmlns:xlink="http://www.w3.org/1999/xlink" x="0pt" y="0pt"
	 viewBox="0 0 85 85" style="enable-background:new 0 0 85 85;" xml:space="preserve">
<style type="text/css">
	.st0{fill:none;stroke:#FFFFFF;stroke-width:4;stroke-miterlimit:10;}
</style>
<title>26</title>
<path d="M3.5,80.7c0,1,0.9,1.8,1.8,1.8H80c1,0,1.8-0.9,1.8-1.8V32.4l0.1-0.3l0,0l-0.6-0.6l-11.4-8.3V4.3c0-1-0.9-1.8-1.8-1.8H17
	c-1,0-1.8,0.9-1.8,1.8v18.8L3.5,31.8V80.7z M69.8,27.7l7.2,5.2L69.8,38V27.7z M78.2,36.4v40.1L54,53.9L78.2,36.4z M41.4,61.5
	c0.6,0.5,1.5,0.4,2.2,0l7.4-5.4l24.6,22.7L9.4,79L34,56.1L41.4,61.5z M15.3,27.7v10.2l-7.2-5.1L15.3,27.7z M6.8,36.5L31,53.9
	L6.8,76.3V36.5z"/>
<line class="st0" x1="46.3" y1="15.6" x2="26.2" y2="15.6"/>
<line class="st0" x1="58.9" y1="26.8" x2="26.2" y2="26.8"/>
<line class="st0" x1="58.9" y1="37.6" x2="26.2" y2="37.6"/>
</svg>
