<?xml version="1.0" encoding="utf-8"?>
<!-- Generator: Adobe Illustrator 21.1.0, SVG Export Plug-In . SVG Version: 6.00 Build 0)  -->
<svg version="1.1" id="Layer_1" xmlns="http://www.w3.org/2000/svg" xmlns:xlink="http://www.w3.org/1999/xlink" x="0pt" y="0pt"
	 viewBox="0 0 85 85" style="enable-background:new 0 0 85 85;" xml:space="preserve">
<style type="text/css">
	.st0{fill:#010101;stroke:#1A171B;stroke-width:0.4;stroke-miterlimit:10;}
</style>
<g>
	<g>
		<path class="st0" d="M42.5,22.9c-4.2,0-7.7,3.5-7.7,7.7s3.5,7.7,7.7,7.7s7.7-3.5,7.7-7.7C50.2,26.3,46.7,22.9,42.5,22.9z
			 M42.5,35.8c-2.9,0-5.2-2.4-5.2-5.2s2.4-5.2,5.2-5.2c2.9,0,5.2,2.4,5.2,5.2S45.4,35.8,42.5,35.8z"/>
	</g>
	<g>
		<path class="st0" d="M73.7,29.1l-6.6-0.9c-0.6-2.9-1.7-5.5-3.2-7.8l4-5.1c0.5-0.5,0.4-1.4-0.1-1.9L63,8.7c-0.6-0.6-1.5-0.6-2-0.1
			L56,12.4c-2.5-1.5-5.1-2.6-7.8-3.2l-0.9-6.6C47.1,2,46.6,1.5,46,1.5h-7c-0.6,0-1.1,0.5-1.2,1.1l-0.9,6.6c-2.7,0.6-5.3,1.7-7.8,3.2
			c-1.6-1.2-5.2-4-5.2-4c-0.5-0.4-1.2-0.4-1.6,0.1l-5,5c-0.5,0.5-0.5,1.1-0.1,1.6l4,5.2c-1.5,2.4-2.6,5.1-3.2,7.8l-6.6,0.9
			c-0.6,0.1-1.1,0.6-1.1,1.2v7c0,0.6,0.5,1.1,1.1,1.2l6.6,0.9c0.6,2.9,1.7,5.5,3.2,7.8l-4,5.2c-0.4,0.5-0.4,1.2,0.1,1.6l5,5
			c0.2,0.2,0.6,0.4,0.9,0.4s0.5-0.1,0.7-0.2l5.2-4c0.4,0.2,0.6,0.4,1,0.6V66c0,0.7,0.5,1.2,1.2,1.2h3.5v12.9c0,1.9,1.5,3.4,3.4,3.4
			h8.6c1.9,0,3.4-1.5,3.4-3.4V67.3h3.6c0.7,0,1.2-0.5,1.2-1.2V55.8c0.4-0.1,0.6-0.4,1-0.6l5.2,4c0.5,0.4,1.4,0.4,1.7-0.1l4.9-4.9
			c0.5-0.5,0.5-1.1,0.1-1.6l-4-5.2c1.5-2.4,2.6-5.1,3.2-7.8l6.6-0.9c0.6-0.1,1.1-0.6,1.1-1.2v-7C74.7,29.7,74.4,29.2,73.7,29.1z
			 M48,39.4H37c-2,0-3.9,1-5.1,2.5c-1.7-2.4-2.7-5.1-2.7-8.1c0-7.3,6-13.3,13.3-13.3s13.3,6,13.3,13.3c0,3-1,5.7-2.7,8.1
			C51.8,40.4,50,39.4,48,39.4z M50.2,64.8v-9.2c0-0.7-0.5-1.2-1.2-1.2c-0.7,0-1.2,0.5-1.2,1.2v24.6c0,0.5-0.4,0.9-0.9,0.9h-3.1V66.6
			c0-0.7-0.5-1.2-1.2-1.2c-0.7,0-1.2,0.5-1.2,1.2v14.4h-3.1c-0.5,0-0.9-0.4-0.9-0.9V55.6c0-0.7-0.5-1.2-1.2-1.2s-1.2,0.5-1.2,1.2
			v9.2h-2.2V47.2c0-3,2-5.3,4.5-5.3H48c2.5,0,4.5,2.4,4.5,5.3v8l0,0v9.6H50.2z M72.2,36.3l-6.3,0.9c-0.5,0-1,0.4-1,1
			c-0.6,3.1-1.7,6-3.5,8.6c-0.2,0.5-0.2,1,0,1.5l3.9,5.1l-3.4,3.5L56.8,53c-0.4-0.4-1-0.4-1.5,0c-0.1,0.1-0.2,0.1-0.4,0.2v-5.7
			c0-1.1-0.2-2.1-0.5-3c2.5-2.9,3.9-6.5,3.9-10.3c0-8.7-7.1-15.8-15.8-15.8s-15.8,7.1-15.8,15.8c0,3.9,1.4,7.5,3.9,10.3
			c-0.4,1-0.5,2-0.5,3v5.7c-0.1-0.1-0.2-0.1-0.4-0.2c-0.5-0.2-1-0.2-1.5,0l-5.1,3.9l-3.4-3.5l3.9-5c0.4-0.5,0.4-1.1,0-1.6
			c-1.7-2.6-2.9-5.5-3.5-8.5c-0.1-0.5-0.5-0.9-1-1l-6.3-1v-4.9l6.3-0.9c0.5-0.1,1-0.5,1-1c0.6-3.1,1.7-6,3.5-8.6
			c0.2-0.5,0.2-1,0-1.5l-3.9-5.1l3.4-3.5c1.5,1.1,4.5,3.5,5,3.9c0.5,0.4,1.1,0.4,1.6,0c2.6-1.7,5.5-2.9,8.5-3.5
			c0.5-0.1,0.9-0.5,1-1.1l1-6.2H45l0.9,6.3c0,0.6,0.4,1,0.9,1.1c3.1,0.6,6,1.7,8.6,3.5c0.5,0.2,1,0.2,1.5,0l5.1-3.9l3.4,3.5
			l-3.9,5.1c-0.4,0.4-0.4,1,0,1.5c1.7,2.6,3,5.5,3.5,8.6c0.1,0.5,0.5,0.9,1,1l6.3,0.9V36.3z"/>
	</g>
</g>
</svg>
