<svg xmlns="http://www.w3.org/2000/svg" xmlns:xlink="http://www.w3.org/1999/xlink" version="1.1" x="0pt" y="0pt" viewBox="0 0 68 68"
  style="enable-background:new 0 0 68 68;" xml:space="preserve"><style type="text/css">
	.st0{fill:#010101;}
</style><g><g><path class="st0"
  d="M34,18.7c-3.4,0-6.2,2.8-6.2,6.2c0,3.4,2.8,6.2,6.2,6.2c3.4,0,6.2-2.8,6.2-6.2C40.2,21.4,37.4,18.7,34,18.7z     M34,29.1c-2.3,0-4.2-1.9-4.2-4.2c0-2.3,1.9-4.2,4.2-4.2c2.3,0,4.2,1.9,4.2,4.2C38.2,27.2,36.3,29.1,34,29.1z"></path></g><g><path class="st0"
  d="M59.1,23.2l-5.3-0.7c-0.5-2.3-1.4-4.4-2.6-6.3l3.2-4.1c0.4-0.4,0.3-1.1-0.1-1.5l-3.8-3.8    c-0.5-0.5-1.2-0.5-1.6-0.1l-4.1,3.1c-2-1.2-4.1-2.1-6.3-2.6l-0.7-5.3c-0.1-0.5-0.5-0.9-1-0.9h-5.6c-0.5,0-0.9,0.4-1,0.9l-0.7,5.3    c-2.2,0.5-4.3,1.4-6.3,2.6c-1.3-1-4.2-3.2-4.2-3.2c-0.4-0.3-1-0.3-1.3,0.1l-4,4c-0.4,0.4-0.4,0.9-0.1,1.3l3.2,4.2    c-1.2,1.9-2.1,4.1-2.6,6.3l-5.3,0.7c-0.5,0.1-0.9,0.5-0.9,1v5.6c0,0.5,0.4,0.9,0.9,1l5.3,0.7c0.5,2.3,1.4,4.4,2.6,6.3l-3.2,4.2    c-0.3,0.4-0.3,1,0.1,1.3l4,4c0.2,0.2,0.5,0.3,0.7,0.3c0.2,0,0.4-0.1,0.6-0.2l4.2-3.2c0.3,0.2,0.5,0.3,0.8,0.5v8.2c0,0.6,0.4,1,1,1    h2.8v10.4c0,1.5,1.2,2.7,2.7,2.7h6.9c1.5,0,2.7-1.2,2.7-2.7V53.9H43c0.6,0,1-0.4,1-1v-8.2c0.3-0.1,0.5-0.3,0.8-0.5l4.2,3.2    c0.4,0.3,1.1,0.3,1.4-0.1l3.9-3.9c0.4-0.4,0.4-0.9,0.1-1.3l-3.2-4.2c1.2-1.9,2.1-4.1,2.6-6.3l5.3-0.7c0.5-0.1,0.9-0.5,0.9-1v-5.6    C59.9,23.7,59.6,23.3,59.1,23.2z M38.4,31.5h-8.8c-1.6,0-3.1,0.8-4.1,2c-1.4-1.9-2.2-4.1-2.2-6.5c0-5.9,4.8-10.7,10.7-10.7    S44.7,21.1,44.7,27c0,2.4-0.8,4.6-2.2,6.5C41.5,32.3,40,31.5,38.4,31.5z M40.2,51.9v-7.4c0-0.6-0.4-1-1-1c-0.6,0-1,0.4-1,1v19.8    c0,0.4-0.3,0.7-0.7,0.7H35V53.4c0-0.6-0.4-1-1-1c-0.6,0-1,0.4-1,1V65h-2.5c-0.4,0-0.7-0.3-0.7-0.7V44.5c0-0.6-0.4-1-1-1    s-1,0.4-1,1v7.4H26V37.8c0-2.4,1.6-4.3,3.6-4.3h8.8c2,0,3.6,1.9,3.6,4.3v6.4c0,0,0,0,0,0v7.7H40.2z M57.9,29l-5.1,0.7    C52.4,29.7,52,30,52,30.5c-0.5,2.5-1.4,4.8-2.8,6.9c-0.2,0.4-0.2,0.8,0,1.2l3.1,4.1l-2.7,2.8l-4.1-3.1c-0.3-0.3-0.8-0.3-1.2,0    c-0.1,0.1-0.2,0.1-0.3,0.2v-4.6c0-0.9-0.2-1.7-0.4-2.4c2-2.3,3.1-5.2,3.1-8.3c0-7-5.7-12.7-12.7-12.7c-7,0-12.7,5.7-12.7,12.7    c0,3.1,1.1,6,3.1,8.3c-0.3,0.8-0.4,1.6-0.4,2.4v4.6c-0.1-0.1-0.2-0.1-0.3-0.2c-0.4-0.2-0.8-0.2-1.2,0l-4.1,3.1l-2.7-2.8l3.1-4    c0.3-0.4,0.3-0.9,0-1.3c-1.4-2.1-2.3-4.4-2.8-6.8c-0.1-0.4-0.4-0.7-0.8-0.8L10.1,29v-3.9l5.1-0.7c0.4-0.1,0.8-0.4,0.8-0.8    c0.5-2.5,1.4-4.8,2.8-6.9c0.2-0.4,0.2-0.8,0-1.2l-3.1-4.1l2.7-2.8c1.2,0.9,3.6,2.8,4,3.1c0.4,0.3,0.9,0.3,1.3,0    c2.1-1.4,4.4-2.3,6.8-2.8c0.4-0.1,0.7-0.4,0.8-0.9L32.1,3h3.9l0.7,5.1C36.7,8.6,37,8.9,37.4,9c2.5,0.5,4.8,1.4,6.9,2.8    c0.4,0.2,0.8,0.2,1.2,0l4.1-3.1l2.7,2.8l-3.1,4.1c-0.3,0.3-0.3,0.8,0,1.2c1.4,2.1,2.4,4.4,2.8,6.9c0.1,0.4,0.4,0.7,0.8,0.8    l5.1,0.7V29z"></path></g></g></svg>