<svg xmlns="http://www.w3.org/2000/svg" xmlns:xlink="http://www.w3.org/1999/xlink" version="1.0" x="0pt" y="0pt" viewBox="0 0 100 100" enable-background="new 0 0 100 100" xml:space="preserve"><g><g><path fill="#000000" d="M85.8847656,43.875l-7.4667969-1.7919922    c-0.6386719-2.3041992-1.5517578-4.5112305-2.7226562-6.5834961l4.0107422-6.5429688    c0.3623047-0.5913086,0.2714844-1.3540039-0.21875-1.8442383l-6.5996094-6.5996094    c-0.4882812-0.4887695-1.2490234-0.5825195-1.8447266-0.2182617L64.5,24.3046875    c-2.0712891-1.1704102-4.2783203-2.0834961-6.5820312-2.7231445l-1.7919922-7.4667969    c-0.1621094-0.6743164-0.765625-1.1499023-1.4589844-1.1499023h-9.3339844c-0.6933594,0-1.296875,0.4755859-1.4589844,1.1499023    l-1.7919922,7.4667969C39.7783203,22.2211914,37.5712891,23.1342773,35.5,24.3046875l-6.5429688-4.0102539    c-0.59375-0.3637695-1.3554688-0.2724609-1.8447266,0.2182617l-6.5996094,6.5996094    c-0.4902344,0.4902344-0.5810547,1.2529297-0.21875,1.8442383l4.0107422,6.5429688    c-1.1708984,2.0722656-2.0839844,4.2792969-2.7226562,6.5834961L14.1152344,43.875    c-0.6748047,0.1616211-1.1503906,0.7651367-1.1503906,1.4584961v9.3330078c0,0.6933594,0.4755859,1.296875,1.1503906,1.4584961    l7.4667969,1.7919922c0.6386719,2.3041992,1.5517578,4.5112305,2.7226562,6.5834961l-4.0107422,6.5429688    c-0.3623047,0.5913086-0.2714844,1.3540039,0.21875,1.8442383l6.5996094,6.5996094    c0.4892578,0.4897461,1.25,0.5839844,1.8447266,0.2182617l6.5419922-4.0102539    c2.0722656,1.1704102,4.2792969,2.0834961,6.5830078,2.7231445l1.7919922,7.4663086    c0.1621094,0.6743164,0.765625,1.1499023,1.4589844,1.1499023h9.3339844c0.6933594,0,1.296875-0.4755859,1.4589844-1.1499023    l1.7919922-7.4663086c2.3037109-0.6396484,4.5107422-1.5527344,6.5830078-2.7231445l6.5419922,4.0102539    c0.59375,0.3632812,1.3554688,0.2724609,1.8447266-0.2182617l6.5996094-6.5996094    c0.4902344-0.4902344,0.5810547-1.2529297,0.21875-1.8442383l-4.0107422-6.5429688    c1.1708984-2.0722656,2.0839844-4.2792969,2.7226562-6.5834961L85.8847656,56.125    c0.6748047-0.1616211,1.1503906-0.7651367,1.1503906-1.4584961v-9.3330078    C87.0351562,44.6401367,86.5595703,44.0366211,85.8847656,43.875z M84.0351562,53.4838867l-6.8964844,1.6547852    c-0.6582031,0.0268555-1.2353516,0.4863281-1.3955078,1.1450195c-0.6425781,2.6435547-1.6796875,5.1557617-3.0839844,7.465332    c-0.3242188,0.5327148-0.2763672,1.1928711,0.0810547,1.6713867l3.7900391,6.1821289l-4.9277344,4.9272461l-6.1416016-3.7646484    c-0.4824219-0.3818359-1.1660156-0.4389648-1.7119141-0.1064453c-2.3095703,1.4042969-4.8212891,2.4423828-7.4658203,3.0854492    c-0.6328125,0.1538086-1.0703125,0.6923828-1.125,1.3183594l-1.6738281,6.972168h-6.96875l-1.6542969-6.8925781    c-0.0253906-0.659668-0.4853516-1.237793-1.1445312-1.3979492c-2.6445312-0.6430664-5.15625-1.6811523-7.4658203-3.0854492    c-0.5332031-0.3227539-1.1914062-0.2758789-1.671875,0.0820312l-6.1816406,3.7890625l-4.9277344-4.9272461l3.7646484-6.1416016    c0.3828125-0.4819336,0.4394531-1.1650391,0.1064453-1.7119141c-1.4042969-2.3095703-2.4414062-4.8217773-3.0839844-7.465332    c-0.1542969-0.6323242-0.6923828-1.0703125-1.3173828-1.1259766l-6.9746094-1.6738281v-6.9677734l6.8964844-1.6547852    c0.6582031-0.0268555,1.2353516-0.4863281,1.3955078-1.1450195c0.6425781-2.6435547,1.6796875-5.1557617,3.0839844-7.465332    c0.3242188-0.5327148,0.2763672-1.1928711-0.0810547-1.6713867l-3.7900391-6.1821289l4.9277344-4.9272461l6.1386719,3.7626953    c0.484375,0.3857422,1.1679688,0.440918,1.7148438,0.1088867c2.3095703-1.4047852,4.8212891-2.4428711,7.4658203-3.0859375    c0.6328125-0.1538086,1.0703125-0.6923828,1.125-1.3183594l1.6738281-6.9726562h6.96875l1.6542969,6.8930664    c0.0253906,0.659668,0.4853516,1.237793,1.1445312,1.3979492c2.6445312,0.6430664,5.15625,1.6811523,7.4658203,3.0859375    c0.5322266,0.3232422,1.1933594,0.2768555,1.6728516-0.0830078l6.1806641-3.7885742l4.9277344,4.9272461l-3.7646484,6.1416016    c-0.3828125,0.4819336-0.4394531,1.1650391-0.1064453,1.7119141c1.4042969,2.3095703,2.4414062,4.8217773,3.0839844,7.465332    c0.1542969,0.6323242,0.6923828,1.0703125,1.3173828,1.1259766l6.9746094,1.6738281V53.4838867z"></path><path fill="#000000" d="M43.5546875,40.2773438h-5.3798828    c-4.2060547,0-7.6279297,3.4223633-7.6279297,7.6289062V48.5h-6.0820312v3h6.0820312v0.59375    c0,4.206543,3.421875,7.6289062,7.6279297,7.6289062h5.3798828c0.828125,0,1.5-0.6713867,1.5-1.5V41.7773438    C45.0546875,40.9487305,44.3828125,40.2773438,43.5546875,40.2773438z M42.0546875,56.7226562h-3.8798828    c-2.5517578,0-4.6279297-2.0766602-4.6279297-4.6289062v-4.1875c0-2.5522461,2.0761719-4.6289062,4.6279297-4.6289062h3.8798828    V56.7226562z"></path><path fill="#000000" d="M71.703125,47.90625c0-4.206543-3.421875-7.6289062-7.6279297-7.6289062h-5.3798828    c-0.828125,0-1.5,0.6713867-1.5,1.5v2.7280273h-6.0537109v3h6.0537109v4.6987305h-6.0537109v3h6.0537109v3.0185547    c0,0.8286133,0.671875,1.5,1.5,1.5h5.3798828c4.2060547,0,7.6279297-3.4223633,7.6279297-7.6289062V51.5h6.0820312v-3H71.703125    V47.90625z M68.703125,52.09375c0,2.5522461-2.0761719,4.6289062-4.6279297,4.6289062h-3.8798828V43.2773438h3.8798828    c2.5517578,0,4.6279297,2.0766602,4.6279297,4.6289062V52.09375z"></path></g></g></svg>