<?xml version="1.0" encoding="utf-8"?>
<!-- Generator: Adobe Illustrator 21.1.0, SVG Export Plug-In . SVG Version: 6.00 Build 0)  -->
<svg version="1.1" id="Layer_1" xmlns="http://www.w3.org/2000/svg" xmlns:xlink="http://www.w3.org/1999/xlink" x="0pt" y="0pt"
	 viewBox="0 0 85 85" style="enable-background:new 0 0 85 85;" xml:space="preserve">
<g>
	<g>
		<path d="M81.8,35.8l-8.2-2c-0.7-2.5-1.7-4.9-3-7.2l4.4-7.2c0.4-0.6,0.3-1.5-0.2-2l-7.2-7.2c-0.5-0.5-1.4-0.6-2-0.2l-7.2,4.4
			c-2.3-1.3-4.7-2.3-7.2-3l-2-8.2C49,2.5,48.4,2,47.6,2H37.4c-0.8,0-1.4,0.5-1.6,1.3l-2,8.2c-2.5,0.7-4.9,1.7-7.2,3L19.5,10
			c-0.6-0.4-1.5-0.3-2,0.2l-7.2,7.2c-0.5,0.5-0.6,1.4-0.2,2l4.4,7.2c-1.3,2.3-2.3,4.7-3,7.2l-8.2,2C2.5,36,2,36.7,2,37.4v10.2
			c0,0.8,0.5,1.4,1.3,1.6l8.2,2c0.7,2.5,1.7,4.9,3,7.2L10,65.6c-0.4,0.6-0.3,1.5,0.2,2l7.2,7.2c0.5,0.5,1.4,0.6,2,0.2l7.2-4.4
			c2.3,1.3,4.7,2.3,7.2,3l2,8.2c0.2,0.7,0.8,1.3,1.6,1.3h10.2c0.8,0,1.4-0.5,1.6-1.3l2-8.2c2.5-0.7,4.9-1.7,7.2-3l7.2,4.4
			c0.6,0.4,1.5,0.3,2-0.2l7.2-7.2c0.5-0.5,0.6-1.4,0.2-2l-4.4-7.2c1.3-2.3,2.3-4.7,3-7.2l8.2-2c0.7-0.2,1.3-0.8,1.3-1.6V37.4
			C83.1,36.7,82.5,36,81.8,35.8z M79.8,46.3l-7.5,1.8c-0.7,0-1.4,0.5-1.5,1.3c-0.7,2.9-1.8,5.6-3.4,8.2c-0.4,0.6-0.3,1.3,0.1,1.8
			l4.1,6.8l-5.4,5.4l-6.7-4.1c-0.5-0.4-1.3-0.5-1.9-0.1c-2.5,1.5-5.3,2.7-8.2,3.4c-0.7,0.2-1.2,0.8-1.2,1.4l-1.8,7.6h-7.6l-1.8-7.5
			c0-0.7-0.5-1.4-1.3-1.5c-2.9-0.7-5.6-1.8-8.2-3.4c-0.6-0.4-1.3-0.3-1.8,0.1l-6.8,4.1l-5.4-5.4l4.1-6.7c0.4-0.5,0.5-1.3,0.1-1.9
			c-1.5-2.5-2.7-5.3-3.4-8.2c-0.2-0.7-0.8-1.2-1.4-1.2l-7.6-1.8v-7.6l7.5-1.8c0.7,0,1.4-0.5,1.5-1.3c0.7-2.9,1.8-5.6,3.4-8.2
			c0.4-0.6,0.3-1.3-0.1-1.8l-4.1-6.8l5.4-5.4l6.7,4.1c0.5,0.4,1.3,0.5,1.9,0.1c2.5-1.5,5.3-2.7,8.2-3.4c0.7-0.2,1.2-0.8,1.2-1.4
			l1.8-7.6h7.6l1.8,7.5c0,0.7,0.5,1.4,1.3,1.5c2.9,0.7,5.6,1.8,8.2,3.4c0.6,0.4,1.3,0.3,1.8-0.1l6.8-4.1l5.4,5.4l-4.1,6.7
			c-0.4,0.5-0.5,1.3-0.1,1.9c1.5,2.5,2.7,5.3,3.4,8.2c0.2,0.7,0.8,1.2,1.4,1.2l7.6,1.8V46.3z"/>
		<path d="M35.5,31.9h-5.9c-4.6,0-8.3,3.7-8.3,8.4v0.6h-6.7v3.3h6.7v0.6c0,4.6,3.7,8.4,8.3,8.4h5.9c0.9,0,1.6-0.7,1.6-1.6v-18
			C37.1,32.6,36.4,31.9,35.5,31.9z M33.8,49.9h-4.2c-2.8,0-5.1-2.3-5.1-5.1v-4.6c0-2.8,2.3-5.1,5.1-5.1h4.2V49.9z"/>
		<path d="M66.3,40.2c0-4.6-3.7-8.4-8.3-8.4H52c-0.9,0-1.6,0.7-1.6,1.6v3h-6.6v3.3h6.6v5.1h-6.6v3.3h6.6v3.3c0,0.9,0.7,1.6,1.6,1.6
			h5.9c4.6,0,8.3-3.7,8.3-8.4v-0.6h6.7v-3.3h-6.7V40.2z M63,44.8c0,2.8-2.3,5.1-5.1,5.1h-4.2V35.2h4.2c2.8,0,5.1,2.3,5.1,5.1V44.8z"
			/>
	</g>
</g>
</svg>
