<svg xmlns="http://www.w3.org/2000/svg" xmlns:xlink="http://www.w3.org/1999/xlink" version="1.1" x="0pt" y="0pt" viewBox="0 0 30 30" style="enable-background:new 0 0 30 30;" xml:space="preserve"><g><g><path d="M22.1,27H7.9c-1.4,0-2.5-1.1-2.5-2.5v-8.3c0-1.4,1.1-2.5,2.5-2.5h14.2c1.4,0,2.5,1.1,2.5,2.5v8.3    C24.6,25.9,23.5,27,22.1,27z M7.9,15.7c-0.3,0-0.5,0.2-0.5,0.5v8.3c0,0.3,0.2,0.5,0.5,0.5h14.2c0.3,0,0.5-0.2,0.5-0.5v-8.3    c0-0.3-0.2-0.5-0.5-0.5H7.9z"></path></g><g><path d="M20.7,15.7H9.3c-0.6,0-1-0.4-1-1V9.7C8.3,6,11.3,3,15,3c3.7,0,6.7,3,6.7,6.7v4.9C21.7,15.2,21.3,15.7,20.7,15.7z     M10.3,13.7h9.5V9.7C19.7,7.1,17.6,5,15,5c-2.6,0-4.7,2.1-4.7,4.7V13.7z"></path></g><g><path d="M15,22.6c-0.6,0-1-0.4-1-1v-2.5c0-0.6,0.4-1,1-1s1,0.4,1,1v2.5C16,22.1,15.6,22.6,15,22.6z"></path></g></g></svg>