<?xml version="1.0" encoding="utf-8"?>
<!-- Generator: Adobe Illustrator 21.1.0, SVG Export Plug-In . SVG Version: 6.00 Build 0)  -->
<svg version="1.1" id="Layer_1" xmlns="http://www.w3.org/2000/svg" xmlns:xlink="http://www.w3.org/1999/xlink" x="0pt" y="0pt"
	 viewBox="0 0 85 85" style="enable-background:new 0 0 85 85;" xml:space="preserve">
<path d="M73.4,46.5c0-3.8-3-6.9-6.9-6.9h-2.8v-15c-0.1-11.5-9.6-21-21.2-21c-11.6,0-21.1,9.4-21.1,21v15h-2.8c-3.8,0-6.9,3-6.9,6.9
	v28c0,3.8,3,6.9,6.9,6.9h47.9c3.8,0,6.9-3,6.9-6.9V46.5z M42.6,7.2c9.6,0,17.4,7.6,17.7,17.4v15.1H25.3V26.1l-0.1-1.5
	C25.2,15,33,7.2,42.6,7.2z M69.6,74.6c0,1.9-1.4,3.2-3.2,3.2H18.6c-1.9,0-3.2-1.4-3.2-3.2v-28c0-1.9,1.4-3.2,3.2-3.2h47.8
	c1.9,0,3.2,1.4,3.2,3.2V74.6z"/>
<path d="M42.5,66.7c1.2,0,1.9-1,1.9-1.9v-8.4c0-1.6-1.2-1.9-1.9-1.9c-1.2,0-1.9,0.7-1.9,1.9v8.4C40.6,65.5,40.9,66.7,42.5,66.7z"/>
</svg>
