<?xml version="1.0" encoding="utf-8"?>
<!-- Generator: Adobe Illustrator 21.1.0, SVG Export Plug-In . SVG Version: 6.00 Build 0)  -->
<svg version="1.1" id="Layer_1" xmlns="http://www.w3.org/2000/svg" xmlns:xlink="http://www.w3.org/1999/xlink" x="0pt" y="0pt"
	 viewBox="0 0 85 85" style="enable-background:new 0 0 85 85;" xml:space="preserve">
<path d="M76.8,74.5v-1.1c0-9-10.4-14.3-16.6-17.4c-1.3-0.6-2.3-1.2-2.9-1.6c-0.7-0.5-1.3-1.2-1.6-1.9c0.1,0,0.2,0,0.2,0
	c7.9,0,11.7-5.2,11.9-5.4c0.3-0.4,0.4-0.9,0.3-1.4c-0.1-0.5-0.4-0.9-0.8-1.1c-2.2-1.3-4.3-3.4-4.7-13.9c0.3-1.6,0.5-3.4,0.5-5.1
	c0.1-13.4-8.7-24.2-19.4-24.2S24.1,12.2,24.1,25.3c0,1.7,0.2,3.5,0.5,5.1c-0.5,10.5-2.6,12.6-4.7,14c-0.5,0.3-0.7,0.6-0.8,1.1
	c-0.1,0.5,0,1,0.3,1.4c0.2,0.3,3.9,5.4,11.9,5.4c0.1,0,0.2,0,0.2,0c-0.4,0.8-0.9,1.5-1.6,1.9c-0.6,0.5-2,1.1-3.6,1.7
	c-6.7,3.1-17.9,8.4-17.9,17.3v2.3l0,0v8.1h68.5L76.8,74.5L76.8,74.5z M30.5,34.8c-0.6-3-1.2-8.6,0.8-11.7c0.8-1.3,2-2,3.7-2.4
	c7.7-1.4,11.5-4.1,13.5-6.8c1.3,1.6,2.8,2.9,4.4,4.3c2.6,2.4,5.5,4.8,5.5,7c0,10.8-6.7,19.5-14.9,19.5C37.9,44.8,33,40.8,30.5,34.8z
	 M53.1,56.8c-1.3,0.9-4.6,2.9-9.7,2.9c-4.3,0-8.1-2-9.6-3c2.4-2.6,2.8-6.4,2.8-8.8c2.1,1,4.4,1.6,6.8,1.6c2.4,0,4.7-0.5,6.8-1.6
	C50.2,50.3,50.6,54,53.1,56.8z M36.9,66.6l-6.3,4.5l6.3,4.5v3.5l-9-6.2v-3.6l8.9-6.2L36.9,66.6L36.9,66.6z M43.4,79.1h-3.6l3.6-16
	H47L43.4,79.1z M59.4,72.8l-8.9,6.2v-3.6l6.3-4.5l-6.3-4.5V63l8.9,6.2C59.4,69.2,59.4,72.8,59.4,72.8z"/>
</svg>
