<svg xmlns="http://www.w3.org/2000/svg" data-name="Layer 1" viewBox="0 0 100 100" x="0pt" y="0pt"><title>90all</title><path d="M66,47.73a4.32,4.32,0,0,0,3-1.22L83.79,32.22a14.57,14.57,0,0,0,0-20.22,12.55,12.55,0,0,0-9-3.77h-.1a15.15,15.15,0,0,0-8.67,2.82C63.34,8.89,60.7,7.8,58.18,7.8a13.83,13.83,0,0,0-10,4.21,14.57,14.57,0,0,0,.06,20.28L63,46.5A4.32,4.32,0,0,0,66,47.73ZM52.5,16.2a7.87,7.87,0,0,1,5.67-2.4c1.46,0,3.47,1.17,5.65,3.29a3.12,3.12,0,0,0,4.37,0,9.63,9.63,0,0,1,6.58-2.83,6.54,6.54,0,0,1,4.72,2A8.57,8.57,0,0,1,79.56,28L66,41.07,52.5,28A8.52,8.52,0,0,1,52.5,16.2Z"></path><path d="M90.19,53a7.94,7.94,0,0,0-11.12-.24l-14.77,14L50.82,68.26l-1-1.43L59,64.33a7.81,7.81,0,0,0-3-15.29l-22.73,2.9a9,9,0,0,0-5,2.15L8.62,71a3,3,0,0,0-.16,4.39L24.39,91.32a3,3,0,0,0,2.12.88h0a3,3,0,0,0,2.13-.92L34,85.69l30.46-.11A9,9,0,0,0,70.77,83L90,64.14A7.93,7.93,0,0,0,90.19,53Zm-4.35,6.87L66.57,78.72a3,3,0,0,1-2.09.86l-31.74.12a3,3,0,0,0-2.15.92l-4.13,4.3L15,73.44,32.1,58.63a3,3,0,0,1,1.69-.72h.11L56.68,55a1.81,1.81,0,0,1,.71,3.55L44.09,62.16a3,3,0,0,0-1.66,4.63l4.51,6.38a3,3,0,0,0,2.79,1.25L66,72.55a3,3,0,0,0,1.72-.8L83.2,57.1a1.91,1.91,0,0,1,2.65,2.75Z"></path></svg>