<?xml version="1.0" encoding="utf-8"?>
<!-- Generator: Adobe Illustrator 21.1.0, SVG Export Plug-In . SVG Version: 6.00 Build 0)  -->
<svg version="1.1" id="Layer_1" xmlns="http://www.w3.org/2000/svg" xmlns:xlink="http://www.w3.org/1999/xlink" x="0pt" y="0pt"
	 viewBox="0 0 85 85" style="enable-background:new 0 0 85 85;" xml:space="preserve">
<path d="M42,24.2L56.3,38c0.5,0.5,1.2,0.8,1.8,0.8c0.7,0,1.3-0.3,1.8-0.8l14.3-13.8c4.7-4.9,4.7-12.6,0-17.5c-2-2.1-4.7-3.2-7.6-3.2
	c-2.7,0-5.3,0.8-7.7,2.4L58,6.6l-0.9-0.7c-2.3-1.9-4.5-2.8-6.7-2.8c-3.2,0-6.3,1.3-8.6,3.7C37.1,11.7,37.1,19.4,42,24.2z M43.9,8.7
	c1.6-1.8,4-2.8,6.6-2.8c1.9,0,4.2,1.3,6.6,3.6c0.3,0.3,0.7,0.5,1.1,0.5c0.4,0,0.7-0.2,0.9-0.4c2-2,4.8-3.2,7.5-3.2
	c2.1,0,4.2,0.9,5.7,2.3c3.6,3.8,3.6,9.7,0.1,13.5L58.1,35.9L44,22.3C40.2,18.4,40.2,12.5,43.9,8.7z"/>
<path d="M26.6,45.9c-1.6,0.2-2.9,0.8-4,1.7L3.6,64c-0.4,0.3-0.4,0.7-0.5,0.9c0,0.4,0.1,0.8,0.3,1.1l0.3,0.4l15.1,15.1
	c0.2,0.2,0.7,0.5,1,0.5c0.4,0,0.7-0.1,1-0.5l5.6-5.8l30.1-0.1c1.9,0,3.7-0.8,5-2.1l18.6-18.3c2.3-2.5,2.4-6.4,0.1-8.8
	c-2.3-2.4-6.2-2.5-8.7-0.1L57.1,60.1l-14.4,1.7l-2.8-3.9l11-3c3.3-0.9,5.1-4.2,4.2-7.5c-0.8-2.9-3.6-4.8-6.5-4.4L26.6,45.9z
	 M51.1,46.3c0.8,0.5,1.3,1.2,1.4,2.1c0.4,1.8-0.7,3.5-2.5,3.9l-12.9,3.5c-0.4,0.1-0.7,0.3-0.9,0.7c-0.1,0.2-0.2,0.6-0.1,1
	c0.1,0.2,0.1,0.4,0.2,0.5l4.4,6.2c0.4,0.5,0.9,0.6,1.3,0.6l15.7-1.8c0.4-0.1,0.6-0.2,0.8-0.4l15-14.2c1.4-1.2,3.4-1.2,4.7,0.1
	c0.6,0.6,1,1.4,1,2.3s-0.3,1.7-1,2.3l0,0L59.6,71.4c-0.8,0.8-1.9,1.2-3,1.2l-30.7,0.1c-0.4,0-0.7,0.1-1,0.5l-5,5.3L6.5,65l17.8-15.3
	c0.7-0.6,1.4-0.9,2.3-1l0.3,0l21.8-2.8C49.6,45.7,50.4,45.8,51.1,46.3z"/>
</svg>
