<svg version="1.1" viewBox="0.0 0.0 726.0 449.0" fill="none" stroke="none" stroke-linecap="square" stroke-miterlimit="10" width="726" height="449" xmlns:xlink="http://www.w3.org/1999/xlink" xmlns="http://www.w3.org/2000/svg"><path fill="#ffffff" d="M0 0L726.0 0L726.0 449.0L0 449.0L0 0Z" fill-rule="nonzero"/><path stroke="#333333" stroke-width="1.0" stroke-linecap="butt" d="M117.5 59.5L117.5 367.5" fill-rule="nonzero"/><path stroke="#cccccc" stroke-width="1.0" stroke-linecap="butt" d="M260.5 59.5L260.5 367.5" fill-rule="nonzero"/><path stroke="#cccccc" stroke-width="1.0" stroke-linecap="butt" d="M404.5 59.5L404.5 367.5" fill-rule="nonzero"/><path stroke="#cccccc" stroke-width="1.0" stroke-linecap="butt" d="M547.5 59.5L547.5 367.5" fill-rule="nonzero"/><path stroke="#cccccc" stroke-width="1.0" stroke-linecap="butt" d="M690.5 59.5L690.5 367.5" fill-rule="nonzero"/><path stroke="#333333" stroke-width="1.0" stroke-linecap="butt" d="M104.5 367.5L703.5 367.5" fill-rule="nonzero"/><path stroke="#cccccc" stroke-width="1.0" stroke-linecap="butt" d="M104.5 290.5L703.5 290.5" fill-rule="nonzero"/><path stroke="#cccccc" stroke-width="1.0" stroke-linecap="butt" d="M104.5 213.5L703.5 213.5" fill-rule="nonzero"/><path stroke="#cccccc" stroke-width="1.0" stroke-linecap="butt" d="M104.5 136.5L703.5 136.5" fill-rule="nonzero"/><path stroke="#cccccc" stroke-width="1.0" stroke-linecap="butt" d="M104.5 59.5L703.5 59.5" fill-rule="nonzero"/><clipPath id="id_0"><path d="M104.45 59.916668L703.55 59.916668L703.55 367.55L104.45 367.55L104.45 59.916668Z" clip-rule="nonzero"/></clipPath><path stroke="#d9d9d9" stroke-width="2.0" stroke-linecap="butt" clip-path="url(#id_0)" d="M117.8249 329.09583L117.8249 329.09583" fill-rule="nonzero"/><path stroke="#999999" stroke-width="2.0" stroke-linecap="butt" clip-path="url(#id_0)" d="M117.8249 367.35773L189.36868 367.127L260.91245 366.4348L332.45624 364.7813L404.0 360.66672L475.54376 350.32254L547.0875 324.48132L618.63135 259.87833L690.1751 98.370834" fill-rule="nonzero"/><path fill="#d9d9d9" clip-path="url(#id_0)" d="M125.8249 329.09583C125.8249 333.5141 122.24318 337.09583 117.8249 337.09583C113.406624 337.09583 109.8249 333.5141 109.8249 329.09583C109.8249 324.67755 113.406624 321.09583 117.8249 321.09583C122.24318 321.09583 125.8249 324.67755 125.8249 329.09583Z" fill-rule="nonzero"/><path fill="#999999" clip-path="url(#id_0)" d="M125.8249 367.35773C125.8249 371.776 122.24318 375.35773 117.8249 375.35773C113.406624 375.35773 109.8249 371.776 109.8249 367.35773C109.8249 362.93945 113.406624 359.35773 117.8249 359.35773C122.24318 359.35773 125.8249 362.93945 125.8249 367.35773Z" fill-rule="nonzero"/><path fill="#999999" clip-path="url(#id_0)" d="M197.36868 367.127C197.36868 371.5453 193.78696 375.127 189.36868 375.127C184.9504 375.127 181.36868 371.5453 181.36868 367.127C181.36868 362.70874 184.9504 359.127 189.36868 359.127C193.78696 359.127 197.36868 362.70874 197.36868 367.127Z" fill-rule="nonzero"/><path fill="#999999" clip-path="url(#id_0)" d="M268.91245 366.4348C268.91245 370.85312 265.33072 374.4348 260.91245 374.4348C256.49417 374.4348 252.91245 370.85312 252.91245 366.4348C252.91245 362.01654 256.49417 358.4348 260.91245 358.4348C265.33072 358.4348 268.91245 362.01654 268.91245 366.4348Z" fill-rule="nonzero"/><path fill="#999999" clip-path="url(#id_0)" d="M340.45624 364.7813C340.45624 369.1996 336.8745 372.7813 332.45624 372.7813C328.03793 372.7813 324.45624 369.1996 324.45624 364.7813C324.45624 360.36304 328.03793 356.7813 332.45624 356.7813C336.8745 356.7813 340.45624 360.36304 340.45624 364.7813Z" fill-rule="nonzero"/><path fill="#999999" clip-path="url(#id_0)" d="M412.0 360.66672C412.0 365.085 408.41827 368.66672 404.0 368.66672C399.58173 368.66672 396.0 365.085 396.0 360.66672C396.0 356.2484 399.58173 352.66672 404.0 352.66672C408.41827 352.66672 412.0 356.2484 412.0 360.66672Z" fill-rule="nonzero"/><path fill="#999999" clip-path="url(#id_0)" d="M483.54376 350.32254C483.54376 354.7408 479.96207 358.32254 475.54376 358.32254C471.1255 358.32254 467.54376 354.7408 467.54376 350.32254C467.54376 345.90427 471.1255 342.32254 475.54376 342.32254C479.96207 342.32254 483.54376 345.90427 483.54376 350.32254Z" fill-rule="nonzero"/><path fill="#999999" clip-path="url(#id_0)" d="M555.0875 324.48132C555.0875 328.8996 551.5058 332.48132 547.0875 332.48132C542.66925 332.48132 539.0875 328.8996 539.0875 324.48132C539.0875 320.06305 542.66925 316.48132 547.0875 316.48132C551.5058 316.48132 555.0875 320.06305 555.0875 324.48132Z" fill-rule="nonzero"/><path fill="#999999" clip-path="url(#id_0)" d="M626.63135 259.87833C626.63135 264.2966 623.0496 267.87833 618.63135 267.87833C614.2131 267.87833 610.63135 264.2966 610.63135 259.87833C610.63135 255.46005 614.2131 251.87833 618.63135 251.87833C623.0496 251.87833 626.63135 255.46005 626.63135 259.87833Z" fill-rule="nonzero"/><path fill="#999999" clip-path="url(#id_0)" d="M698.1751 98.370834C698.1751 102.78911 694.5934 106.370834 690.1751 106.370834C685.75684 106.370834 682.1751 102.78911 682.1751 98.370834C682.1751 93.95255 685.75684 90.370834 690.1751 90.370834C694.5934 90.370834 698.1751 93.95255 698.1751 98.370834Z" fill-rule="nonzero"/><path fill="#000000" d="M345.79688 412.59686L345.79688 413.65936L345.5625 413.65936Q344.07812 413.6906 343.20312 414.53436Q342.32812 415.3781 342.1875 416.925Q342.98438 416.01874 344.34375 416.01874Q345.64062 416.01874 346.40625 416.9406Q347.1875 417.84686 347.1875 419.3Q347.1875 420.84686 346.34375 421.76874Q345.51562 422.6906 344.10938 422.6906Q342.6875 422.6906 341.79688 421.59686Q340.90625 420.4875 340.90625 418.76874L340.90625 418.28436Q340.90625 415.53436 342.07812 414.08124Q343.25 412.6281 345.5625 412.59686L345.79688 412.59686ZM344.125 417.08124Q343.48438 417.08124 342.9375 417.47186Q342.39062 417.84686 342.17188 418.4406L342.17188 418.90936Q342.17188 420.14374 342.71875 420.89374Q343.28125 421.64374 344.10938 421.64374Q344.96875 421.64374 345.45312 421.01874Q345.9375 420.3781 345.9375 419.3625Q345.9375 418.33124 345.4375 417.70624Q344.95312 417.08124 344.125 417.08124ZM355.0625 418.3Q355.0625 420.51874 354.29688 421.6125Q353.54688 422.6906 351.9375 422.6906Q350.34375 422.6906 349.57812 421.64374Q348.8125 420.58124 348.78125 418.47186L348.78125 416.78436Q348.78125 414.59686 349.53125 413.53436Q350.29688 412.45624 351.92188 412.45624Q353.53125 412.45624 354.28125 413.4875Q355.04688 414.51874 355.0625 416.65936L355.0625 418.3ZM353.79688 416.58124Q353.79688 414.97186 353.34375 414.2375Q352.90625 413.5031 351.92188 413.5031Q350.95312 413.5031 350.5 414.2375Q350.0625 414.95624 350.04688 416.47186L350.04688 418.5031Q350.04688 420.1125 350.51562 420.89374Q350.98438 421.65936 351.9375 421.65936Q352.875 421.65936 353.32812 420.9406Q353.78125 420.20624 353.79688 418.64374L353.79688 416.58124ZM356.71875 414.5031Q356.71875 413.6125 357.28125 413.03436Q357.85938 412.45624 358.75 412.45624Q359.67188 412.45624 360.23438 413.05Q360.79688 413.6281 360.79688 414.55L360.79688 415.03436Q360.79688 415.9406 360.21875 416.51874Q359.65625 417.08124 358.76562 417.08124Q357.875 417.08124 357.29688 416.51874Q356.71875 415.9406 356.71875 414.9875L356.71875 414.5031ZM357.65625 415.03436Q357.65625 415.5656 357.95312 415.90936Q358.26562 416.2531 358.76562 416.2531Q359.25 416.2531 359.54688 415.925Q359.84375 415.59686 359.84375 415.0031L359.84375 414.5031Q359.84375 413.97186 359.54688 413.6281Q359.26562 413.28436 358.75 413.28436Q358.25 413.28436 357.95312 413.6281Q357.65625 413.97186 357.65625 414.53436L357.65625 415.03436ZM361.5625 420.1125Q361.5625 419.20624 362.125 418.64374Q362.70312 418.0656 363.59375 418.0656Q364.5 418.0656 365.0625 418.64374Q365.64062 419.20624 365.64062 420.15936L365.64062 420.64374Q365.64062 421.53436 365.0625 422.1125Q364.5 422.6906 363.60938 422.6906Q362.73438 422.6906 362.14062 422.1281Q361.5625 421.55 361.5625 420.59686L361.5625 420.1125ZM362.51562 420.64374Q362.51562 421.175 362.8125 421.53436Q363.10938 421.8781 363.60938 421.8781Q364.10938 421.8781 364.40625 421.53436Q364.70312 421.1906 364.70312 420.6125L364.70312 420.1125Q364.70312 419.5656 364.39062 419.22186Q364.09375 418.8781 363.60938 418.8781Q363.10938 418.8781 362.8125 419.22186Q362.51562 419.5656 362.51562 420.14374L362.51562 420.64374ZM359.0625 421.8L358.34375 421.34686L363.20312 413.5656L363.92188 414.01874L359.0625 421.8ZM370.15625 422.55L370.15625 412.59686L372.96875 412.59686Q374.26562 412.59686 375.26562 413.175Q376.26562 413.7375 376.79688 414.8Q377.34375 415.8625 377.35938 417.2375L377.35938 417.8781Q377.35938 419.28436 376.8125 420.34686Q376.26562 421.39374 375.25 421.97186Q374.25 422.53436 372.90625 422.55L370.15625 422.55ZM371.46875 413.675L371.46875 421.47186L372.84375 421.47186Q374.35938 421.47186 375.20312 420.53436Q376.0625 419.59686 376.0625 417.84686L376.0625 417.26874Q376.0625 415.5656 375.26562 414.6281Q374.46875 413.6906 373.0 413.675L371.46875 413.675ZM380.32812 422.55L379.0625 422.55L379.0625 415.15936L380.32812 415.15936L380.32812 422.55ZM378.96875 413.1906Q378.96875 412.8781 379.15625 412.675Q379.34375 412.45624 379.70312 412.45624Q380.07812 412.45624 380.26562 412.675Q380.46875 412.8781 380.46875 413.1906Q380.46875 413.5031 380.26562 413.70624Q380.07812 413.90936 379.70312 413.90936Q379.34375 413.90936 379.15625 413.70624Q378.96875 413.5031 378.96875 413.1906ZM386.26562 420.58124Q386.26562 420.08124 385.875 419.8Q385.48438 419.5031 384.53125 419.3Q383.57812 419.09686 383.0 418.8156Q382.4375 418.51874 382.17188 418.1281Q381.90625 417.7375 381.90625 417.1906Q381.90625 416.26874 382.67188 415.64374Q383.4375 415.01874 384.64062 415.01874Q385.89062 415.01874 386.67188 415.675Q387.45312 416.3156 387.45312 417.33124L386.1875 417.33124Q386.1875 416.8 385.75 416.425Q385.3125 416.05 384.64062 416.05Q383.95312 416.05 383.5625 416.3625Q383.17188 416.65936 383.17188 417.14374Q383.17188 417.59686 383.53125 417.83124Q383.89062 418.0656 384.82812 418.28436Q385.78125 418.4875 386.375 418.78436Q386.96875 419.08124 387.25 419.5031Q387.53125 419.90936 387.53125 420.5031Q387.53125 421.4875 386.73438 422.09686Q385.9375 422.6906 384.67188 422.6906Q383.79688 422.6906 383.10938 422.3781Q382.42188 422.05 382.03125 421.4875Q381.65625 420.925 381.65625 420.26874L382.92188 420.26874Q382.95312 420.90936 383.42188 421.28436Q383.90625 421.65936 384.67188 421.65936Q385.39062 421.65936 385.82812 421.3625Q386.26562 421.0656 386.26562 420.58124ZM391.92188 421.65936Q392.59375 421.65936 393.09375 421.2531Q393.60938 420.83124 393.67188 420.22186L394.85938 420.22186Q394.82812 420.84686 394.42188 421.425Q394.01562 422.0031 393.34375 422.34686Q392.67188 422.6906 391.92188 422.6906Q390.40625 422.6906 389.51562 421.6906Q388.625 420.675 388.625 418.925L388.625 418.70624Q388.625 417.6281 389.01562 416.78436Q389.42188 415.9406 390.15625 415.4875Q390.90625 415.01874 391.92188 415.01874Q393.15625 415.01874 393.98438 415.76874Q394.8125 416.5031 394.85938 417.6906L393.67188 417.6906Q393.60938 416.97186 393.125 416.51874Q392.64062 416.05 391.92188 416.05Q390.95312 416.05 390.42188 416.7531Q389.89062 417.4406 389.89062 418.7531L389.89062 418.9875Q389.89062 420.26874 390.42188 420.97186Q390.95312 421.65936 391.92188 421.65936ZM395.625 418.78436Q395.625 417.6906 396.04688 416.83124Q396.48438 415.95624 397.23438 415.4875Q398.0 415.01874 398.98438 415.01874Q400.48438 415.01874 401.42188 416.0656Q402.35938 417.1125 402.35938 418.84686L402.35938 418.9406Q402.35938 420.01874 401.9375 420.8781Q401.53125 421.72186 400.75 422.20624Q399.98438 422.6906 399.0 422.6906Q397.48438 422.6906 396.54688 421.64374Q395.625 420.59686 395.625 418.8781L395.625 418.78436ZM396.89062 418.9406Q396.89062 420.15936 397.45312 420.90936Q398.03125 421.65936 399.0 421.65936Q399.95312 421.65936 400.51562 420.90936Q401.09375 420.14374 401.09375 418.78436Q401.09375 417.5656 400.51562 416.8156Q399.9375 416.05 398.98438 416.05Q398.04688 416.05 397.46875 416.8Q396.89062 417.55 396.89062 418.9406ZM408.53125 421.8156Q407.78125 422.6906 406.35938 422.6906Q405.17188 422.6906 404.54688 422.0031Q403.9375 421.3156 403.9375 419.97186L403.9375 415.15936L405.1875 415.15936L405.1875 419.925Q405.1875 421.6125 406.5625 421.6125Q408.01562 421.6125 408.48438 420.53436L408.48438 415.15936L409.75 415.15936L409.75 422.55L408.54688 422.55L408.53125 421.8156ZM413.15625 415.15936L413.1875 416.08124Q414.04688 415.01874 415.40625 415.01874Q417.75 415.01874 417.78125 417.65936L417.78125 422.55L416.51562 422.55L416.51562 417.65936Q416.5 416.8625 416.14062 416.4875Q415.78125 416.09686 415.03125 416.09686Q414.40625 416.09686 413.9375 416.425Q413.48438 416.7531 413.21875 417.28436L413.21875 422.55L411.95312 422.55L411.95312 415.15936L413.15625 415.15936ZM421.67188 413.3625L421.67188 415.15936L423.04688 415.15936L423.04688 416.1281L421.67188 416.1281L421.67188 420.72186Q421.67188 421.15936 421.85938 421.39374Q422.04688 421.6125 422.48438 421.6125Q422.70312 421.6125 423.09375 421.51874L423.09375 422.55Q422.59375 422.6906 422.125 422.6906Q421.26562 422.6906 420.82812 422.175Q420.40625 421.65936 420.40625 420.72186L420.40625 416.1281L419.0625 416.1281L419.0625 415.15936L420.40625 415.15936L420.40625 413.3625L421.67188 413.3625ZM433.64062 418.15936L429.46875 418.15936L429.46875 422.55L428.15625 422.55L428.15625 412.59686L434.32812 412.59686L434.32812 413.675L429.46875 413.675L429.46875 417.08124L433.64062 417.08124L433.64062 418.15936ZM440.53125 422.55Q440.42188 422.33124 440.34375 421.76874Q439.46875 422.6906 438.23438 422.6906Q437.14062 422.6906 436.4375 422.08124Q435.75 421.45624 435.75 420.5031Q435.75 419.34686 436.625 418.70624Q437.5 418.0656 439.09375 418.0656L440.32812 418.0656L440.32812 417.4875Q440.32812 416.8156 439.92188 416.425Q439.53125 416.03436 438.76562 416.03436Q438.07812 416.03436 437.625 416.3781Q437.17188 416.72186 437.17188 417.20624L435.89062 417.20624Q435.89062 416.64374 436.28125 416.1281Q436.6875 415.6125 437.35938 415.3156Q438.03125 415.01874 438.82812 415.01874Q440.10938 415.01874 440.82812 415.65936Q441.5625 416.3 441.59375 417.40936L441.59375 420.8156Q441.59375 421.83124 441.84375 422.4406L441.84375 422.55L440.53125 422.55ZM438.42188 421.58124Q439.01562 421.58124 439.54688 421.28436Q440.09375 420.97186 440.32812 420.47186L440.32812 418.95624L439.32812 418.95624Q437.01562 418.95624 437.01562 420.3156Q437.01562 420.90936 437.40625 421.2531Q437.79688 421.58124 438.42188 421.58124ZM446.92188 421.65936Q447.59375 421.65936 448.09375 421.2531Q448.60938 420.83124 448.67188 420.22186L449.85938 420.22186Q449.82812 420.84686 449.42188 421.425Q449.01562 422.0031 448.34375 422.34686Q447.67188 422.6906 446.92188 422.6906Q445.40625 422.6906 444.51562 421.6906Q443.625 420.675 443.625 418.925L443.625 418.70624Q443.625 417.6281 444.01562 416.78436Q444.42188 415.9406 445.15625 415.4875Q445.90625 415.01874 446.92188 415.01874Q448.15625 415.01874 448.98438 415.76874Q449.8125 416.5031 449.85938 417.6906L448.67188 417.6906Q448.60938 416.97186 448.125 416.51874Q447.64062 416.05 446.92188 416.05Q445.95312 416.05 445.42188 416.7531Q444.89062 417.4406 444.89062 418.7531L444.89062 418.9875Q444.89062 420.26874 445.42188 420.97186Q445.95312 421.65936 446.92188 421.65936ZM452.67188 413.3625L452.67188 415.15936L454.04688 415.15936L454.04688 416.1281L452.67188 416.1281L452.67188 420.72186Q452.67188 421.15936 452.85938 421.39374Q453.04688 421.6125 453.48438 421.6125Q453.70312 421.6125 454.09375 421.51874L454.09375 422.55Q453.59375 422.6906 453.125 422.6906Q452.26562 422.6906 451.82812 422.175Q451.40625 421.65936 451.40625 420.72186L451.40625 416.1281L450.0625 416.1281L450.0625 415.15936L451.40625 415.15936L451.40625 413.3625L452.67188 413.3625ZM455.625 418.78436Q455.625 417.6906 456.04688 416.83124Q456.48438 415.95624 457.23438 415.4875Q458.0 415.01874 458.98438 415.01874Q460.48438 415.01874 461.42188 416.0656Q462.35938 417.1125 462.35938 418.84686L462.35938 418.9406Q462.35938 420.01874 461.9375 420.8781Q461.53125 421.72186 460.75 422.20624Q459.98438 422.6906 459.0 422.6906Q457.48438 422.6906 456.54688 421.64374Q455.625 420.59686 455.625 418.8781L455.625 418.78436ZM456.89062 418.9406Q456.89062 420.15936 457.45312 420.90936Q458.03125 421.65936 459.0 421.65936Q459.95312 421.65936 460.51562 420.90936Q461.09375 420.14374 461.09375 418.78436Q461.09375 417.5656 460.51562 416.8156Q459.9375 416.05 458.98438 416.05Q458.04688 416.05 457.46875 416.8Q456.89062 417.55 456.89062 418.9406ZM467.53125 416.28436Q467.25 416.2375 466.90625 416.2375Q465.67188 416.2375 465.21875 417.3L465.21875 422.55L463.95312 422.55L463.95312 415.15936L465.1875 415.15936L465.20312 416.0031Q465.82812 415.01874 466.96875 415.01874Q467.34375 415.01874 467.53125 415.1125L467.53125 416.28436Z" fill-rule="nonzero"/><path fill="#000000" d="M35.44999 262.67084L35.44999 263.99896L27.778112 269.0146L35.44999 269.0146L35.44999 270.3271L25.496862 270.3271L25.496862 269.0146L33.19999 263.98334L25.496862 263.98334L25.496862 262.67084L35.44999 262.67084ZM35.590614 257.4521Q35.590614 258.9677 34.60624 259.9052Q33.60624 260.8427 31.949987 260.8427L31.731237 260.8427Q30.621862 260.8427 29.762487 260.42084Q28.887487 259.99896 28.403112 259.24896Q27.918737 258.49896 27.918737 257.60834Q27.918737 256.17084 28.871862 255.37396Q29.809362 254.57709 31.590612 254.57709L32.10624 254.57709L32.10624 259.5771Q33.19999 259.56146 33.88749 258.9521Q34.559364 258.3271 34.559364 257.3896Q34.559364 256.7177 34.29374 256.2646Q34.01249 255.79584 33.559364 255.43646L34.153114 254.67084Q35.590614 255.59271 35.590614 257.4521ZM28.949987 257.60834Q28.949987 258.37396 29.512487 258.9052Q30.074987 259.42084 31.074987 259.54584L31.074987 255.84271L30.981237 255.84271Q30.012487 255.88959 29.481237 256.35834Q28.949987 256.8271 28.949987 257.60834ZM26.262487 251.81146L28.059362 251.81146L28.059362 250.43646L29.028112 250.43646L29.028112 251.81146L33.621864 251.81146Q34.059364 251.81146 34.29374 251.62396Q34.51249 251.43646 34.51249 250.99896Q34.51249 250.78021 34.41874 250.38959L35.44999 250.38959Q35.590614 250.88959 35.590614 251.35834Q35.590614 252.21771 35.07499 252.65521Q34.559364 253.07709 33.621864 253.07709L29.028112 253.07709L29.028112 254.42084L28.059362 254.42084L28.059362 253.07709L26.262487 253.07709L26.262487 251.81146ZM31.559362 244.01459L35.44999 244.01459L35.44999 245.32709L25.496862 245.32709L25.496862 241.65521Q25.496862 240.03021 26.340612 239.10834Q27.168737 238.17084 28.543737 238.17084Q29.981237 238.17084 30.778112 239.07709Q31.559362 239.98334 31.559362 241.67084L31.559362 244.01459ZM30.481237 244.01459L30.481237 241.65521Q30.481237 240.60834 29.981237 240.04584Q29.481237 239.48334 28.559362 239.48334Q27.668737 239.48334 27.137487 240.04584Q26.590612 240.60834 26.574987 241.57709L26.574987 244.01459L30.481237 244.01459ZM29.184362 232.95209Q29.137487 233.23334 29.137487 233.57709Q29.137487 234.81146 30.199987 235.26459L35.44999 235.26459L35.44999 236.53021L28.059362 236.53021L28.059362 235.29584L28.903112 235.28021Q27.918737 234.65521 27.918737 233.51459Q27.918737 233.13959 28.012487 232.95209L29.184362 232.95209ZM35.590614 228.45209Q35.590614 229.96771 34.60624 230.90521Q33.60624 231.84271 31.949987 231.84271L31.731237 231.84271Q30.621862 231.84271 29.762487 231.42084Q28.887487 230.99896 28.403112 230.24896Q27.918737 229.49896 27.918737 228.60834Q27.918737 227.17084 28.871862 226.37396Q29.809362 225.57709 31.590612 225.57709L32.10624 225.57709L32.10624 230.57709Q33.19999 230.56146 33.88749 229.95209Q34.559364 229.32709 34.559364 228.38959Q34.559364 227.71771 34.29374 227.26459Q34.01249 226.79584 33.559364 226.43646L34.153114 225.67084Q35.590614 226.59271 35.590614 228.45209ZM28.949987 228.60834Q28.949987 229.37396 29.512487 229.90521Q30.074987 230.42084 31.074987 230.54584L31.074987 226.84271L30.981237 226.84271Q30.012487 226.88959 29.481237 227.35834Q28.949987 227.82709 28.949987 228.60834ZM33.48124 220.21771Q32.98124 220.21771 32.69999 220.60834Q32.403114 220.99896 32.19999 221.95209Q31.996862 222.90521 31.715612 223.48334Q31.418737 224.04584 31.028112 224.31146Q30.637487 224.57709 30.090612 224.57709Q29.168737 224.57709 28.543737 223.81146Q27.918737 223.04584 27.918737 221.84271Q27.918737 220.59271 28.574987 219.81146Q29.215612 219.03021 30.231237 219.03021L30.231237 220.29584Q29.699987 220.29584 29.324987 220.73334Q28.949987 221.17084 28.949987 221.84271Q28.949987 222.53021 29.262487 222.92084Q29.559362 223.31146 30.043737 223.31146Q30.496862 223.31146 30.731237 222.95209Q30.965612 222.59271 31.184362 221.65521Q31.387487 220.70209 31.684362 220.10834Q31.981237 219.51459 32.403114 219.23334Q32.809364 218.95209 33.403114 218.95209Q34.38749 218.95209 34.996864 219.74896Q35.590614 220.54584 35.590614 221.81146Q35.590614 222.68646 35.278114 223.37396Q34.94999 224.06146 34.38749 224.45209Q33.82499 224.82709 33.16874 224.82709L33.16874 223.56146Q33.809364 223.53021 34.184364 223.06146Q34.559364 222.57709 34.559364 221.81146Q34.559364 221.09271 34.26249 220.65521Q33.965614 220.21771 33.48124 220.21771ZM35.590614 214.45209Q35.590614 215.96771 34.60624 216.90521Q33.60624 217.84271 31.949987 217.84271L31.731237 217.84271Q30.621862 217.84271 29.762487 217.42084Q28.887487 216.99896 28.403112 216.24896Q27.918737 215.49896 27.918737 214.60834Q27.918737 213.17084 28.871862 212.37396Q29.809362 211.57709 31.590612 211.57709L32.10624 211.57709L32.10624 216.57709Q33.19999 216.56146 33.88749 215.95209Q34.559364 215.32709 34.559364 214.38959Q34.559364 213.71771 34.29374 213.26459Q34.01249 212.79584 33.559364 212.43646L34.153114 211.67084Q35.590614 212.59271 35.590614 214.45209ZM28.949987 214.60834Q28.949987 215.37396 29.512487 215.90521Q30.074987 216.42084 31.074987 216.54584L31.074987 212.84271L30.981237 212.84271Q30.012487 212.88959 29.481237 213.35834Q28.949987 213.82709 28.949987 214.60834ZM28.059362 209.32709L28.981237 209.29584Q27.918737 208.43646 27.918737 207.07709Q27.918737 204.73334 30.559362 204.70209L35.44999 204.70209L35.44999 205.96771L30.559362 205.96771Q29.762487 205.98334 29.387487 206.34271Q28.996862 206.70209 28.996862 207.45209Q28.996862 208.07709 29.324987 208.54584Q29.653112 208.99896 30.184362 209.26459L35.44999 209.26459L35.44999 210.53021L28.059362 210.53021L28.059362 209.32709ZM26.262487 200.81146L28.059362 200.81146L28.059362 199.43646L29.028112 199.43646L29.028112 200.81146L33.621864 200.81146Q34.059364 200.81146 34.29374 200.62396Q34.51249 200.43646 34.51249 199.99896Q34.51249 199.78021 34.41874 199.38959L35.44999 199.38959Q35.590614 199.88959 35.590614 200.35834Q35.590614 201.21771 35.07499 201.65521Q34.559364 202.07709 33.621864 202.07709L29.028112 202.07709L29.028112 203.42084L28.059362 203.42084L28.059362 202.07709L26.262487 202.07709L26.262487 200.81146ZM31.418737 190.67084L31.418737 193.01459L35.44999 193.01459L35.44999 194.32709L25.496862 194.32709L25.496862 191.04584Q25.496862 189.35834 26.262487 188.45209Q27.028112 187.54584 28.496862 187.54584Q29.418737 187.54584 30.106237 188.04584Q30.793737 188.54584 31.137487 189.45209L35.371864 187.10834L35.44999 187.10834L35.44999 188.51459L31.418737 190.67084ZM30.356237 193.01459L30.356237 190.99896Q30.356237 190.01459 29.856237 189.43646Q29.340612 188.85834 28.496862 188.85834Q27.574987 188.85834 27.090612 189.42084Q26.590612 189.96771 26.574987 190.99896L26.574987 193.01459L30.356237 193.01459ZM35.44999 184.15521L35.44999 185.42084L28.059362 185.42084L28.059362 184.15521L35.44999 184.15521ZM26.090612 185.51459Q25.778112 185.51459 25.574987 185.32709Q25.356237 185.13959 25.356237 184.78021Q25.356237 184.40521 25.574987 184.21771Q25.778112 184.01459 26.090612 184.01459Q26.403112 184.01459 26.606237 184.21771Q26.809362 184.40521 26.809362 184.78021Q26.809362 185.13959 26.606237 185.32709Q26.403112 185.51459 26.090612 185.51459ZM33.48124 178.21771Q32.98124 178.21771 32.69999 178.60834Q32.403114 178.99896 32.19999 179.95209Q31.996862 180.90521 31.715612 181.48334Q31.418737 182.04584 31.028112 182.31146Q30.637487 182.57709 30.090612 182.57709Q29.168737 182.57709 28.543737 181.81146Q27.918737 181.04584 27.918737 179.84271Q27.918737 178.59271 28.574987 177.81146Q29.215612 177.03021 30.231237 177.03021L30.231237 178.29584Q29.699987 178.29584 29.324987 178.73334Q28.949987 179.17084 28.949987 179.84271Q28.949987 180.53021 29.262487 180.92084Q29.559362 181.31146 30.043737 181.31146Q30.496862 181.31146 30.731237 180.95209Q30.965612 180.59271 31.184362 179.65521Q31.387487 178.70209 31.684362 178.10834Q31.981237 177.51459 32.403114 177.23334Q32.809364 176.95209 33.403114 176.95209Q34.38749 176.95209 34.996864 177.74896Q35.590614 178.54584 35.590614 179.81146Q35.590614 180.68646 35.278114 181.37396Q34.94999 182.06146 34.38749 182.45209Q33.82499 182.82709 33.16874 182.82709L33.16874 181.56146Q33.809364 181.53021 34.184364 181.06146Q34.559364 180.57709 34.559364 179.81146Q34.559364 179.09271 34.26249 178.65521Q33.965614 178.21771 33.48124 178.21771ZM32.028114 173.46771L32.85624 174.24896L35.44999 174.24896L35.44999 175.51459L24.949987 175.51459L24.949987 174.24896L31.293737 174.24896L30.481237 173.57709L28.059362 171.28021L28.059362 169.73334L31.137487 172.60834L35.44999 169.40521L35.44999 170.88959L32.028114 173.46771Z" fill-rule="nonzero"/><path fill="#000000" d="M70.075 368.40936L70.12187 369.6906Q70.12187 370.59686 69.7625 371.1281L74.05937 371.1281L74.05937 372.05L68.0125 372.05L68.0125 371.1281L68.46562 371.1281Q68.7 371.08124 68.84062 370.70624Q68.98125 370.3156 68.99687 369.7531L68.99687 369.70624L68.95 368.40936L67.98125 368.40936L67.98125 367.4875L68.91875 367.4875L68.87187 365.95624Q68.87187 364.8 69.59062 364.09686Q70.30937 363.39374 71.48125 363.39374Q72.59062 363.39374 73.23125 364.01874Q73.8875 364.64374 73.8875 365.675L72.77812 365.675Q72.77812 365.05 72.40312 364.6906Q72.02812 364.33124 71.37187 364.33124Q70.7625 364.33124 70.37187 364.78436Q69.99687 365.22186 69.99687 365.95624L70.05937 367.4875L71.91875 367.4875L71.91875 368.40936L70.075 368.40936ZM80.5125 368.40936Q80.5125 370.3156 79.85625 371.2531Q79.21562 372.175 77.825 372.175Q76.46562 372.175 75.80937 371.26874Q75.15312 370.3625 75.12187 368.55L75.12187 367.1125Q75.12187 365.22186 75.7625 364.3156Q76.41875 363.39374 77.80937 363.39374Q79.18437 363.39374 79.84062 364.28436Q80.49687 365.15936 80.5125 367.0031L80.5125 368.40936ZM79.41875 366.925Q79.41875 365.55 79.02812 364.925Q78.65312 364.28436 77.80937 364.28436Q76.98125 364.28436 76.59062 364.925Q76.21562 365.55 76.21562 366.84686L76.21562 368.58124Q76.21562 369.95624 76.60625 370.6281Q77.0125 371.28436 77.825 371.28436Q78.62187 371.28436 79.0125 370.65936Q79.40312 370.03436 79.41875 368.70624L79.41875 366.925ZM82.29375 371.4875Q82.29375 371.20624 82.45 371.01874Q82.62187 370.83124 82.95 370.83124Q83.29375 370.83124 83.46562 371.01874Q83.6375 371.20624 83.6375 371.4875Q83.6375 371.7531 83.46562 371.9406Q83.29375 372.1125 82.95 372.1125Q82.62187 372.1125 82.45 371.9406Q82.29375 371.7531 82.29375 371.4875ZM90.5125 368.40936Q90.5125 370.3156 89.85625 371.2531Q89.21562 372.175 87.825 372.175Q86.46562 372.175 85.80937 371.26874Q85.15312 370.3625 85.12187 368.55L85.12187 367.1125Q85.12187 365.22186 85.7625 364.3156Q86.41875 363.39374 87.80937 363.39374Q89.18437 363.39374 89.84062 364.28436Q90.49687 365.15936 90.5125 367.0031L90.5125 368.40936ZM89.41875 366.925Q89.41875 365.55 89.02812 364.925Q88.65312 364.28436 87.80937 364.28436Q86.98125 364.28436 86.59062 364.925Q86.21562 365.55 86.21562 366.84686L86.21562 368.58124Q86.21562 369.95624 86.60625 370.6281Q87.0125 371.28436 87.825 371.28436Q88.62187 371.28436 89.0125 370.65936Q89.40312 370.03436 89.41875 368.70624L89.41875 366.925ZM97.5125 368.40936Q97.5125 370.3156 96.85625 371.2531Q96.21562 372.175 94.825 372.175Q93.46562 372.175 92.80937 371.26874Q92.15312 370.3625 92.12187 368.55L92.12187 367.1125Q92.12187 365.22186 92.7625 364.3156Q93.41875 363.39374 94.80937 363.39374Q96.18437 363.39374 96.84062 364.28436Q97.49687 365.15936 97.5125 367.0031L97.5125 368.40936ZM96.41875 366.925Q96.41875 365.55 96.02812 364.925Q95.65312 364.28436 94.80937 364.28436Q93.98125 364.28436 93.59062 364.925Q93.21562 365.55 93.21562 366.84686L93.21562 368.58124Q93.21562 369.95624 93.60625 370.6281Q94.0125 371.28436 94.825 371.28436Q95.62187 371.28436 96.0125 370.65936Q96.40312 370.03436 96.41875 368.70624L96.41875 366.925Z" fill-rule="nonzero"/><path fill="#000000" d="M63.075 291.50104L63.121876 292.7823Q63.121876 293.68854 62.7625 294.2198L67.05937 294.2198L67.05937 295.14166L61.0125 295.14166L61.0125 294.2198L61.465626 294.2198Q61.7 294.1729 61.840626 293.7979Q61.98125 293.4073 61.996876 292.8448L61.996876 292.7979L61.95 291.50104L60.98125 291.50104L60.98125 290.57916L61.91875 290.57916L61.871876 289.0479Q61.871876 287.89166 62.590626 287.18854Q63.309376 286.4854 64.48125 286.4854Q65.59062 286.4854 66.23125 287.1104Q66.8875 287.7354 66.8875 288.76666L65.77812 288.76666Q65.77812 288.14166 65.40312 287.7823Q65.02812 287.4229 64.37187 287.4229Q63.7625 287.4229 63.371876 287.87604Q62.996876 288.31354 62.996876 289.0479L63.059376 290.57916L64.91875 290.57916L64.91875 291.50104L63.075 291.50104ZM73.74687 295.14166L68.15312 295.14166L68.15312 294.3604L71.10625 291.07916Q71.7625 290.32916 72.0125 289.87604Q72.2625 289.4073 72.2625 288.9073Q72.2625 288.2354 71.85625 287.81354Q71.46562 287.37604 70.77812 287.37604Q69.98125 287.37604 69.52812 287.8448Q69.075 288.2979 69.075 289.12604L67.99687 289.12604Q67.99687 287.93854 68.74687 287.2198Q69.5125 286.4854 70.77812 286.4854Q71.98125 286.4854 72.66875 287.1104Q73.35625 287.7354 73.35625 288.7823Q73.35625 290.0323 71.74687 291.7823L69.46562 294.25104L73.74687 294.25104L73.74687 295.14166ZM80.5125 291.50104Q80.5125 293.4073 79.85625 294.3448Q79.21562 295.26666 77.825 295.26666Q76.46562 295.26666 75.80937 294.3604Q75.15312 293.45416 75.12187 291.64166L75.12187 290.20416Q75.12187 288.31354 75.7625 287.4073Q76.41875 286.4854 77.80937 286.4854Q79.18437 286.4854 79.84062 287.37604Q80.49687 288.25104 80.5125 290.0948L80.5125 291.50104ZM79.41875 290.01666Q79.41875 288.64166 79.02812 288.01666Q78.65312 287.37604 77.80937 287.37604Q76.98125 287.37604 76.59062 288.01666Q76.21562 288.64166 76.21562 289.93854L76.21562 291.6729Q76.21562 293.0479 76.60625 293.7198Q77.0125 294.37604 77.825 294.37604Q78.62187 294.37604 79.0125 293.75104Q79.40312 293.12604 79.41875 291.7979L79.41875 290.01666ZM82.29375 294.57916Q82.29375 294.2979 82.45 294.1104Q82.62187 293.9229 82.95 293.9229Q83.29375 293.9229 83.46562 294.1104Q83.6375 294.2979 83.6375 294.57916Q83.6375 294.8448 83.46562 295.0323Q83.29375 295.20416 82.95 295.20416Q82.62187 295.20416 82.45 295.0323Q82.29375 294.8448 82.29375 294.57916ZM90.5125 291.50104Q90.5125 293.4073 89.85625 294.3448Q89.21562 295.26666 87.825 295.26666Q86.46562 295.26666 85.80937 294.3604Q85.15312 293.45416 85.12187 291.64166L85.12187 290.20416Q85.12187 288.31354 85.7625 287.4073Q86.41875 286.4854 87.80937 286.4854Q89.18437 286.4854 89.84062 287.37604Q90.49687 288.25104 90.5125 290.0948L90.5125 291.50104ZM89.41875 290.01666Q89.41875 288.64166 89.02812 288.01666Q88.65312 287.37604 87.80937 287.37604Q86.98125 287.37604 86.59062 288.01666Q86.21562 288.64166 86.21562 289.93854L86.21562 291.6729Q86.21562 293.0479 86.60625 293.7198Q87.0125 294.37604 87.825 294.37604Q88.62187 294.37604 89.0125 293.75104Q89.40312 293.12604 89.41875 291.7979L89.41875 290.01666ZM97.5125 291.50104Q97.5125 293.4073 96.85625 294.3448Q96.21562 295.26666 94.825 295.26666Q93.46562 295.26666 92.80937 294.3604Q92.15312 293.45416 92.12187 291.64166L92.12187 290.20416Q92.12187 288.31354 92.7625 287.4073Q93.41875 286.4854 94.80937 286.4854Q96.18437 286.4854 96.84062 287.37604Q97.49687 288.25104 97.5125 290.0948L97.5125 291.50104ZM96.41875 290.01666Q96.41875 288.64166 96.02812 288.01666Q95.65312 287.37604 94.80937 287.37604Q93.98125 287.37604 93.59062 288.01666Q93.21562 288.64166 93.21562 289.93854L93.21562 291.6729Q93.21562 293.0479 93.60625 293.7198Q94.0125 294.37604 94.825 294.37604Q95.62187 294.37604 96.0125 293.75104Q96.40312 293.12604 96.41875 291.7979L96.41875 290.01666Z" fill-rule="nonzero"/><path fill="#000000" d="M63.075 214.59271L63.121876 215.87396Q63.121876 216.78021 62.7625 217.31146L67.05937 217.31146L67.05937 218.23334L61.0125 218.23334L61.0125 217.31146L61.465626 217.31146Q61.7 217.26459 61.840626 216.88959Q61.98125 216.49896 61.996876 215.93646L61.996876 215.88959L61.95 214.59271L60.98125 214.59271L60.98125 213.67084L61.91875 213.67084L61.871876 212.13959Q61.871876 210.98334 62.590626 210.28021Q63.309376 209.57709 64.48125 209.57709Q65.59062 209.57709 66.23125 210.20209Q66.8875 210.82709 66.8875 211.85834L65.77812 211.85834Q65.77812 211.23334 65.40312 210.87396Q65.02812 210.51459 64.37187 210.51459Q63.7625 210.51459 63.371876 210.96771Q62.996876 211.40521 62.996876 212.13959L63.059376 213.67084L64.91875 213.67084L64.91875 214.59271L63.075 214.59271ZM72.73125 215.37396L73.91875 215.37396L73.91875 216.24896L72.73125 216.24896L72.73125 218.23334L71.65312 218.23334L71.65312 216.24896L67.7625 216.24896L67.7625 215.60834L71.575 209.70209L72.73125 209.70209L72.73125 215.37396ZM68.99687 215.37396L71.65312 215.37396L71.65312 211.18646L71.5125 211.42084L68.99687 215.37396ZM80.5125 214.59271Q80.5125 216.49896 79.85625 217.43646Q79.21562 218.35834 77.825 218.35834Q76.46562 218.35834 75.80937 217.45209Q75.15312 216.54584 75.12187 214.73334L75.12187 213.29584Q75.12187 211.40521 75.7625 210.49896Q76.41875 209.57709 77.80937 209.57709Q79.18437 209.57709 79.84062 210.46771Q80.49687 211.34271 80.5125 213.18646L80.5125 214.59271ZM79.41875 213.10834Q79.41875 211.73334 79.02812 211.10834Q78.65312 210.46771 77.80937 210.46771Q76.98125 210.46771 76.59062 211.10834Q76.21562 211.73334 76.21562 213.03021L76.21562 214.76459Q76.21562 216.13959 76.60625 216.81146Q77.0125 217.46771 77.825 217.46771Q78.62187 217.46771 79.0125 216.84271Q79.40312 216.21771 79.41875 214.88959L79.41875 213.10834ZM82.29375 217.67084Q82.29375 217.38959 82.45 217.20209Q82.62187 217.01459 82.95 217.01459Q83.29375 217.01459 83.46562 217.20209Q83.6375 217.38959 83.6375 217.67084Q83.6375 217.93646 83.46562 218.12396Q83.29375 218.29584 82.95 218.29584Q82.62187 218.29584 82.45 218.12396Q82.29375 217.93646 82.29375 217.67084ZM90.5125 214.59271Q90.5125 216.49896 89.85625 217.43646Q89.21562 218.35834 87.825 218.35834Q86.46562 218.35834 85.80937 217.45209Q85.15312 216.54584 85.12187 214.73334L85.12187 213.29584Q85.12187 211.40521 85.7625 210.49896Q86.41875 209.57709 87.80937 209.57709Q89.18437 209.57709 89.84062 210.46771Q90.49687 211.34271 90.5125 213.18646L90.5125 214.59271ZM89.41875 213.10834Q89.41875 211.73334 89.02812 211.10834Q88.65312 210.46771 87.80937 210.46771Q86.98125 210.46771 86.59062 211.10834Q86.21562 211.73334 86.21562 213.03021L86.21562 214.76459Q86.21562 216.13959 86.60625 216.81146Q87.0125 217.46771 87.825 217.46771Q88.62187 217.46771 89.0125 216.84271Q89.40312 216.21771 89.41875 214.88959L89.41875 213.10834ZM97.5125 214.59271Q97.5125 216.49896 96.85625 217.43646Q96.21562 218.35834 94.825 218.35834Q93.46562 218.35834 92.80937 217.45209Q92.15312 216.54584 92.12187 214.73334L92.12187 213.29584Q92.12187 211.40521 92.7625 210.49896Q93.41875 209.57709 94.80937 209.57709Q96.18437 209.57709 96.84062 210.46771Q97.49687 211.34271 97.5125 213.18646L97.5125 214.59271ZM96.41875 213.10834Q96.41875 211.73334 96.02812 211.10834Q95.65312 210.46771 94.80937 210.46771Q93.98125 210.46771 93.59062 211.10834Q93.21562 211.73334 93.21562 213.03021L93.21562 214.76459Q93.21562 216.13959 93.60625 216.81146Q94.0125 217.46771 94.825 217.46771Q95.62187 217.46771 96.0125 216.84271Q96.40312 216.21771 96.41875 214.88959L96.41875 213.10834Z" fill-rule="nonzero"/><path fill="#000000" d="M63.075 137.68437L63.121876 138.96562Q63.121876 139.87187 62.7625 140.40312L67.05937 140.40312L67.05937 141.325L61.0125 141.325L61.0125 140.40312L61.465626 140.40312Q61.7 140.35625 61.840626 139.98125Q61.98125 139.59062 61.996876 139.02812L61.996876 138.98125L61.95 137.68437L60.98125 137.68437L60.98125 136.7625L61.91875 136.7625L61.871876 135.23125Q61.871876 134.075 62.590626 133.37187Q63.309376 132.66875 64.48125 132.66875Q65.59062 132.66875 66.23125 133.29375Q66.8875 133.91875 66.8875 134.95L65.77812 134.95Q65.77812 134.325 65.40312 133.96562Q65.02812 133.60625 64.37187 133.60625Q63.7625 133.60625 63.371876 134.05937Q62.996876 134.49687 62.996876 135.23125L63.059376 136.7625L64.91875 136.7625L64.91875 137.68437L63.075 137.68437ZM72.41875 132.79375L72.41875 133.7L72.21562 133.7Q70.95 133.73125 70.2 134.46562Q69.45 135.18437 69.325 136.49687Q70.0125 135.73125 71.16875 135.73125Q72.27812 135.73125 72.95 136.5125Q73.62187 137.29375 73.62187 138.54375Q73.62187 139.85625 72.90312 140.65312Q72.18437 141.45 70.96562 141.45Q69.74687 141.45 68.98125 140.5125Q68.23125 139.55937 68.23125 138.075L68.23125 137.66875Q68.23125 135.30937 69.23125 134.05937Q70.23125 132.80937 72.21562 132.79375L72.41875 132.79375ZM70.99687 136.6375Q70.43437 136.6375 69.96562 136.96562Q69.49687 137.29375 69.30937 137.80937L69.30937 138.2Q69.30937 139.2625 69.77812 139.90312Q70.2625 140.54375 70.96562 140.54375Q71.7 140.54375 72.12187 140.0125Q72.54375 139.46562 72.54375 138.59062Q72.54375 137.71562 72.12187 137.18437Q71.7 136.6375 70.99687 136.6375ZM80.5125 137.68437Q80.5125 139.59062 79.85625 140.52812Q79.21562 141.45 77.825 141.45Q76.46562 141.45 75.80937 140.54375Q75.15312 139.6375 75.12187 137.825L75.12187 136.3875Q75.12187 134.49687 75.7625 133.59062Q76.41875 132.66875 77.80937 132.66875Q79.18437 132.66875 79.84062 133.55937Q80.49687 134.43437 80.5125 136.27812L80.5125 137.68437ZM79.41875 136.2Q79.41875 134.825 79.02812 134.2Q78.65312 133.55937 77.80937 133.55937Q76.98125 133.55937 76.59062 134.2Q76.21562 134.825 76.21562 136.12187L76.21562 137.85625Q76.21562 139.23125 76.60625 139.90312Q77.0125 140.55937 77.825 140.55937Q78.62187 140.55937 79.0125 139.93437Q79.40312 139.30937 79.41875 137.98125L79.41875 136.2ZM82.29375 140.7625Q82.29375 140.48125 82.45 140.29375Q82.62187 140.10625 82.95 140.10625Q83.29375 140.10625 83.46562 140.29375Q83.6375 140.48125 83.6375 140.7625Q83.6375 141.02812 83.46562 141.21562Q83.29375 141.3875 82.95 141.3875Q82.62187 141.3875 82.45 141.21562Q82.29375 141.02812 82.29375 140.7625ZM90.5125 137.68437Q90.5125 139.59062 89.85625 140.52812Q89.21562 141.45 87.825 141.45Q86.46562 141.45 85.80937 140.54375Q85.15312 139.6375 85.12187 137.825L85.12187 136.3875Q85.12187 134.49687 85.7625 133.59062Q86.41875 132.66875 87.80937 132.66875Q89.18437 132.66875 89.84062 133.55937Q90.49687 134.43437 90.5125 136.27812L90.5125 137.68437ZM89.41875 136.2Q89.41875 134.825 89.02812 134.2Q88.65312 133.55937 87.80937 133.55937Q86.98125 133.55937 86.59062 134.2Q86.21562 134.825 86.21562 136.12187L86.21562 137.85625Q86.21562 139.23125 86.60625 139.90312Q87.0125 140.55937 87.825 140.55937Q88.62187 140.55937 89.0125 139.93437Q89.40312 139.30937 89.41875 137.98125L89.41875 136.2ZM97.5125 137.68437Q97.5125 139.59062 96.85625 140.52812Q96.21562 141.45 94.825 141.45Q93.46562 141.45 92.80937 140.54375Q92.15312 139.6375 92.12187 137.825L92.12187 136.3875Q92.12187 134.49687 92.7625 133.59062Q93.41875 132.66875 94.80937 132.66875Q96.18437 132.66875 96.84062 133.55937Q97.49687 134.43437 97.5125 136.27812L97.5125 137.68437ZM96.41875 136.2Q96.41875 134.825 96.02812 134.2Q95.65312 133.55937 94.80937 133.55937Q93.98125 133.55937 93.59062 134.2Q93.21562 134.825 93.21562 136.12187L93.21562 137.85625Q93.21562 139.23125 93.60625 139.90312Q94.0125 140.55937 94.825 140.55937Q95.62187 140.55937 96.0125 139.93437Q96.40312 139.30937 96.41875 137.98125L96.41875 136.2Z" fill-rule="nonzero"/><path fill="#000000" d="M63.075 60.77604L63.121876 62.05729Q63.121876 62.96354 62.7625 63.49479L67.05937 63.49479L67.05937 64.416664L61.0125 64.416664L61.0125 63.49479L61.465626 63.49479Q61.7 63.447914 61.840626 63.072914Q61.98125 62.68229 61.996876 62.11979L61.996876 62.072914L61.95 60.77604L60.98125 60.77604L60.98125 59.854164L61.91875 59.854164L61.871876 58.322914Q61.871876 57.166664 62.590626 56.46354Q63.309376 55.760414 64.48125 55.760414Q65.59062 55.760414 66.23125 56.385414Q66.8875 57.010414 66.8875 58.041664L65.77812 58.041664Q65.77812 57.416664 65.40312 57.05729Q65.02812 56.697914 64.37187 56.697914Q63.7625 56.697914 63.371876 57.15104Q62.996876 57.58854 62.996876 58.322914L63.059376 59.854164L64.91875 59.854164L64.91875 60.77604L63.075 60.77604ZM73.34062 58.104164Q73.34062 58.74479 72.99687 59.24479Q72.65312 59.74479 72.09062 60.02604Q72.74687 60.30729 73.1375 60.86979Q73.52812 61.416664 73.52812 62.11979Q73.52812 63.21354 72.77812 63.885414Q72.04375 64.541664 70.825 64.541664Q69.59062 64.541664 68.84062 63.885414Q68.10625 63.21354 68.10625 62.11979Q68.10625 61.416664 68.48125 60.86979Q68.85625 60.30729 69.52812 60.02604Q68.96562 59.74479 68.6375 59.24479Q68.30937 58.74479 68.30937 58.104164Q68.30937 57.02604 68.99687 56.40104Q69.68437 55.760414 70.825 55.760414Q71.95 55.760414 72.6375 56.40104Q73.34062 57.02604 73.34062 58.104164ZM72.45 62.08854Q72.45 61.36979 71.99687 60.93229Q71.54375 60.479164 70.80937 60.479164Q70.075 60.479164 69.62187 60.93229Q69.18437 61.36979 69.18437 62.104164Q69.18437 62.822914 69.62187 63.24479Q70.05937 63.65104 70.825 63.65104Q71.575 63.65104 72.0125 63.229164Q72.45 62.80729 72.45 62.08854ZM70.825 56.65104Q70.18437 56.65104 69.77812 57.05729Q69.3875 57.447914 69.3875 58.135414Q69.3875 58.77604 69.77812 59.18229Q70.16875 59.58854 70.80937 59.58854Q71.46562 59.58854 71.85625 59.18229Q72.24687 58.77604 72.24687 58.135414Q72.24687 57.479164 71.84062 57.072914Q71.43437 56.65104 70.825 56.65104ZM80.5125 60.77604Q80.5125 62.68229 79.85625 63.61979Q79.21562 64.541664 77.825 64.541664Q76.46562 64.541664 75.80937 63.635414Q75.15312 62.729164 75.12187 60.916664L75.12187 59.479164Q75.12187 57.58854 75.7625 56.68229Q76.41875 55.760414 77.80937 55.760414Q79.18437 55.760414 79.84062 56.65104Q80.49687 57.52604 80.5125 59.36979L80.5125 60.77604ZM79.41875 59.291664Q79.41875 57.916664 79.02812 57.291664Q78.65312 56.65104 77.80937 56.65104Q76.98125 56.65104 76.59062 57.291664Q76.21562 57.916664 76.21562 59.21354L76.21562 60.947914Q76.21562 62.322914 76.60625 62.99479Q77.0125 63.65104 77.825 63.65104Q78.62187 63.65104 79.0125 63.02604Q79.40312 62.40104 79.41875 61.072914L79.41875 59.291664ZM82.29375 63.854164Q82.29375 63.572914 82.45 63.385414Q82.62187 63.197914 82.95 63.197914Q83.29375 63.197914 83.46562 63.385414Q83.6375 63.572914 83.6375 63.854164Q83.6375 64.11979 83.46562 64.30729Q83.29375 64.479164 82.95 64.479164Q82.62187 64.479164 82.45 64.30729Q82.29375 64.11979 82.29375 63.854164ZM90.5125 60.77604Q90.5125 62.68229 89.85625 63.61979Q89.21562 64.541664 87.825 64.541664Q86.46562 64.541664 85.80937 63.635414Q85.15312 62.729164 85.12187 60.916664L85.12187 59.479164Q85.12187 57.58854 85.7625 56.68229Q86.41875 55.760414 87.80937 55.760414Q89.18437 55.760414 89.84062 56.65104Q90.49687 57.52604 90.5125 59.36979L90.5125 60.77604ZM89.41875 59.291664Q89.41875 57.916664 89.02812 57.291664Q88.65312 56.65104 87.80937 56.65104Q86.98125 56.65104 86.59062 57.291664Q86.21562 57.916664 86.21562 59.21354L86.21562 60.947914Q86.21562 62.322914 86.60625 62.99479Q87.0125 63.65104 87.825 63.65104Q88.62187 63.65104 89.0125 63.02604Q89.40312 62.40104 89.41875 61.072914L89.41875 59.291664ZM97.5125 60.77604Q97.5125 62.68229 96.85625 63.61979Q96.21562 64.541664 94.825 64.541664Q93.46562 64.541664 92.80937 63.635414Q92.15312 62.729164 92.12187 60.916664L92.12187 59.479164Q92.12187 57.58854 92.7625 56.68229Q93.41875 55.760414 94.80937 55.760414Q96.18437 55.760414 96.84062 56.65104Q97.49687 57.52604 97.5125 59.36979L97.5125 60.77604ZM96.41875 59.291664Q96.41875 57.916664 96.02812 57.291664Q95.65312 56.65104 94.80937 56.65104Q93.98125 56.65104 93.59062 57.291664Q93.21562 57.916664 93.21562 59.21354L93.21562 60.947914Q93.21562 62.322914 93.60625 62.99479Q94.0125 63.65104 94.825 63.65104Q95.62187 63.65104 96.0125 63.02604Q96.40312 62.40104 96.41875 61.072914L96.41875 59.291664Z" fill-rule="nonzero"/><path fill="#000000" d="M120.3874 381.90936Q120.3874 383.8156 119.73115 384.7531Q119.09052 385.675 117.6999 385.675Q116.34052 385.675 115.68427 384.76874Q115.02802 383.8625 114.99677 382.05L114.99677 380.6125Q114.99677 378.72186 115.6374 377.8156Q116.29365 376.89374 117.68427 376.89374Q119.05927 376.89374 119.71552 377.78436Q120.37177 378.65936 120.3874 380.5031L120.3874 381.90936ZM119.29365 380.425Q119.29365 379.05 118.90302 378.425Q118.52802 377.78436 117.68427 377.78436Q116.85615 377.78436 116.46552 378.425Q116.09052 379.05 116.09052 380.34686L116.09052 382.08124Q116.09052 383.45624 116.48115 384.1281Q116.8874 384.78436 117.6999 384.78436Q118.49677 384.78436 118.8874 384.15936Q119.27802 383.53436 119.29365 382.20624L119.29365 380.425Z" fill-rule="nonzero"/><path fill="#000000" d="M263.70932 385.55L258.11557 385.55L258.11557 384.76874L261.0687 381.4875Q261.72495 380.7375 261.97495 380.28436Q262.22495 379.8156 262.22495 379.3156Q262.22495 378.64374 261.8187 378.22186Q261.42807 377.78436 260.74057 377.78436Q259.9437 377.78436 259.49057 378.2531Q259.03745 378.70624 259.03745 379.53436L257.95932 379.53436Q257.95932 378.34686 258.70932 377.6281Q259.47495 376.89374 260.74057 376.89374Q261.9437 376.89374 262.6312 377.51874Q263.3187 378.14374 263.3187 379.1906Q263.3187 380.4406 261.70932 382.1906L259.42807 384.65936L263.70932 384.65936L263.70932 385.55Z" fill-rule="nonzero"/><path fill="#000000" d="M405.78125 382.6906L406.96875 382.6906L406.96875 383.5656L405.78125 383.5656L405.78125 385.55L404.70312 385.55L404.70312 383.5656L400.8125 383.5656L400.8125 382.925L404.625 377.01874L405.78125 377.01874L405.78125 382.6906ZM402.04688 382.6906L404.70312 382.6906L404.70312 378.5031L404.5625 378.7375L402.04688 382.6906Z" fill-rule="nonzero"/><path fill="#000000" d="M548.5563 377.01874L548.5563 377.925L548.35315 377.925Q547.0875 377.95624 546.3375 378.6906Q545.5875 379.40936 545.4625 380.72186Q546.15 379.95624 547.3063 379.95624Q548.41565 379.95624 549.0875 380.7375Q549.7594 381.51874 549.7594 382.76874Q549.7594 384.08124 549.04065 384.8781Q548.3219 385.675 547.10315 385.675Q545.8844 385.675 545.1188 384.7375Q544.3688 383.78436 544.3688 382.3L544.3688 381.89374Q544.3688 379.53436 545.3688 378.28436Q546.3688 377.03436 548.35315 377.01874L548.5563 377.01874ZM547.1344 380.8625Q546.5719 380.8625 546.10315 381.1906Q545.6344 381.51874 545.4469 382.03436L545.4469 382.425Q545.4469 383.4875 545.91565 384.1281Q546.4 384.76874 547.10315 384.76874Q547.8375 384.76874 548.2594 384.2375Q548.6813 383.6906 548.6813 382.8156Q548.6813 381.9406 548.2594 381.40936Q547.8375 380.8625 547.1344 380.8625Z" fill-rule="nonzero"/><path fill="#000000" d="M692.56573 379.2375Q692.56573 379.8781 692.222 380.3781Q691.87823 380.8781 691.31573 381.15936Q691.972 381.4406 692.3626 382.0031Q692.75323 382.55 692.75323 383.2531Q692.75323 384.34686 692.00323 385.01874Q691.26886 385.675 690.0501 385.675Q688.81573 385.675 688.06573 385.01874Q687.33136 384.34686 687.33136 383.2531Q687.33136 382.55 687.70636 382.0031Q688.08136 381.4406 688.75323 381.15936Q688.19073 380.8781 687.8626 380.3781Q687.5345 379.8781 687.5345 379.2375Q687.5345 378.15936 688.222 377.53436Q688.9095 376.89374 690.0501 376.89374Q691.1751 376.89374 691.8626 377.53436Q692.56573 378.15936 692.56573 379.2375ZM691.6751 383.22186Q691.6751 382.5031 691.222 382.0656Q690.76886 381.6125 690.0345 381.6125Q689.3001 381.6125 688.847 382.0656Q688.4095 382.5031 688.4095 383.2375Q688.4095 383.95624 688.847 384.3781Q689.2845 384.78436 690.0501 384.78436Q690.8001 384.78436 691.2376 384.3625Q691.6751 383.9406 691.6751 383.22186ZM690.0501 377.78436Q689.4095 377.78436 689.00323 378.1906Q688.6126 378.58124 688.6126 379.26874Q688.6126 379.90936 689.00323 380.3156Q689.39386 380.72186 690.0345 380.72186Q690.69073 380.72186 691.08136 380.3156Q691.472 379.90936 691.472 379.26874Q691.472 378.6125 691.06573 378.20624Q690.6595 377.78436 690.0501 377.78436Z" fill-rule="nonzero"/><path fill="#d9d9d9" d="M314.5 29.95C314.5 33.26371 311.81372 35.95 308.5 35.95C305.18628 35.95 302.5 33.26371 302.5 29.95C302.5 26.636292 305.18628 23.95 308.5 23.95C311.81372 23.95 314.5 26.636292 314.5 29.95Z" fill-rule="nonzero"/><path fill="#1a1a1a" d="M326.625 30.996876L324.60938 30.996876L324.60938 34.45L323.48438 34.45L323.48438 25.91875L326.3125 25.91875Q327.75 25.91875 328.51562 26.575Q329.29688 27.23125 329.29688 28.48125Q329.29688 29.278126 328.85938 29.871876Q328.4375 30.465626 327.67188 30.7625L329.67188 34.371876L329.67188 34.45L328.46875 34.45L326.625 30.996876ZM324.60938 30.075L326.34375 30.075Q327.1875 30.075 327.67188 29.653126Q328.17188 29.215626 328.17188 28.48125Q328.17188 27.7 327.70312 27.278126Q327.23438 26.85625 326.34375 26.840626L324.60938 26.840626L324.60938 30.075ZM331.5 34.45L330.42188 34.45L330.42188 28.10625L331.5 28.10625L331.5 34.45ZM330.32812 26.434376Q330.32812 26.16875 330.48438 25.98125Q330.65625 25.79375 330.96875 25.79375Q331.28125 25.79375 331.4375 25.98125Q331.60938 26.16875 331.60938 26.434376Q331.60938 26.684376 331.4375 26.871876Q331.28125 27.04375 330.96875 27.04375Q330.65625 27.04375 330.48438 26.871876Q330.32812 26.684376 330.32812 26.434376ZM337.01562 32.7625Q337.01562 32.325 336.67188 32.090626Q336.34375 31.840626 335.51562 31.66875Q334.70312 31.496876 334.21875 31.246876Q333.73438 30.996876 333.5 30.66875Q333.28125 30.325 333.28125 29.85625Q333.28125 29.075 333.9375 28.54375Q334.59375 27.996876 335.625 27.996876Q336.70312 27.996876 337.35938 28.559376Q338.03125 29.10625 338.03125 29.965626L336.95312 29.965626Q336.95312 29.528126 336.5625 29.215626Q336.1875 28.8875 335.625 28.8875Q335.03125 28.8875 334.6875 29.153126Q334.35938 29.403126 334.35938 29.809376Q334.35938 30.2 334.67188 30.403126Q334.98438 30.60625 335.79688 30.79375Q336.60938 30.965626 337.10938 31.215626Q337.60938 31.465626 337.84375 31.825Q338.09375 32.184376 338.09375 32.684376Q338.09375 33.54375 337.40625 34.059376Q336.73438 34.575 335.65625 34.575Q334.89062 34.575 334.29688 34.309376Q333.71875 34.028126 333.39062 33.54375Q333.0625 33.059376 333.0625 32.496876L334.14062 32.496876Q334.17188 33.04375 334.57812 33.371876Q334.98438 33.684376 335.65625 33.684376Q336.26562 33.684376 336.64062 33.434376Q337.01562 33.184376 337.01562 32.7625ZM341.09375 31.5125L340.40625 32.215626L340.40625 34.45L339.32812 34.45L339.32812 25.45L340.40625 25.45L340.40625 30.8875L340.98438 30.2L342.96875 28.10625L344.28125 28.10625L341.8125 30.7625L344.57812 34.45L343.29688 34.45L341.09375 31.5125ZM353.20312 32.215626L349.625 32.215626L348.82812 34.45L347.67188 34.45L350.92188 25.91875L351.90625 25.91875L355.17188 34.45L354.01562 34.45L353.20312 32.215626ZM349.96875 31.29375L352.875 31.29375L351.42188 27.309376L349.96875 31.29375Z" fill-rule="nonzero"/><path fill="#999999" d="M383.5 29.95C383.5 33.26371 380.81372 35.95 377.5 35.95C374.18628 35.95 371.5 33.26371 371.5 29.95C371.5 26.636292 374.18628 23.95 377.5 23.95C380.81372 23.95 383.5 26.636292 383.5 29.95Z" fill-rule="nonzero"/><path fill="#1a1a1a" d="M395.625 30.996876L393.60938 30.996876L393.60938 34.45L392.48438 34.45L392.48438 25.91875L395.3125 25.91875Q396.75 25.91875 397.51562 26.575Q398.29688 27.23125 398.29688 28.48125Q398.29688 29.278126 397.85938 29.871876Q397.4375 30.465626 396.67188 30.7625L398.67188 34.371876L398.67188 34.45L397.46875 34.45L395.625 30.996876ZM393.60938 30.075L395.34375 30.075Q396.1875 30.075 396.67188 29.653126Q397.17188 29.215626 397.17188 28.48125Q397.17188 27.7 396.70312 27.278126Q396.23438 26.85625 395.34375 26.840626L393.60938 26.840626L393.60938 30.075ZM400.5 34.45L399.42188 34.45L399.42188 28.10625L400.5 28.10625L400.5 34.45ZM399.32812 26.434376Q399.32812 26.16875 399.48438 25.98125Q399.65625 25.79375 399.96875 25.79375Q400.28125 25.79375 400.4375 25.98125Q400.60938 26.16875 400.60938 26.434376Q400.60938 26.684376 400.4375 26.871876Q400.28125 27.04375 399.96875 27.04375Q399.65625 27.04375 399.48438 26.871876Q399.32812 26.684376 399.32812 26.434376ZM406.01562 32.7625Q406.01562 32.325 405.67188 32.090626Q405.34375 31.840626 404.51562 31.66875Q403.70312 31.496876 403.21875 31.246876Q402.73438 30.996876 402.5 30.66875Q402.28125 30.325 402.28125 29.85625Q402.28125 29.075 402.9375 28.54375Q403.59375 27.996876 404.625 27.996876Q405.70312 27.996876 406.35938 28.559376Q407.03125 29.10625 407.03125 29.965626L405.95312 29.965626Q405.95312 29.528126 405.5625 29.215626Q405.1875 28.8875 404.625 28.8875Q404.03125 28.8875 403.6875 29.153126Q403.35938 29.403126 403.35938 29.809376Q403.35938 30.2 403.67188 30.403126Q403.98438 30.60625 404.79688 30.79375Q405.60938 30.965626 406.10938 31.215626Q406.60938 31.465626 406.84375 31.825Q407.09375 32.184376 407.09375 32.684376Q407.09375 33.54375 406.40625 34.059376Q405.73438 34.575 404.65625 34.575Q403.89062 34.575 403.29688 34.309376Q402.71875 34.028126 402.39062 33.54375Q402.0625 33.059376 402.0625 32.496876L403.14062 32.496876Q403.17188 33.04375 403.57812 33.371876Q403.98438 33.684376 404.65625 33.684376Q405.26562 33.684376 405.64062 33.434376Q406.01562 33.184376 406.01562 32.7625ZM410.09375 31.5125L409.40625 32.215626L409.40625 34.45L408.32812 34.45L408.32812 25.45L409.40625 25.45L409.40625 30.8875L409.98438 30.2L411.96875 28.10625L413.28125 28.10625L410.8125 30.7625L413.57812 34.45L412.29688 34.45L410.09375 31.5125ZM417.48438 34.45L417.48438 25.91875L420.28125 25.91875Q421.67188 25.91875 422.35938 26.496876Q423.0625 27.059376 423.0625 28.184376Q423.0625 28.79375 422.71875 29.2625Q422.39062 29.715626 421.79688 29.965626Q422.5 30.153126 422.89062 30.7Q423.29688 31.23125 423.29688 31.98125Q423.29688 33.1375 422.54688 33.79375Q421.8125 34.45 420.45312 34.45L417.48438 34.45ZM418.60938 30.465626L418.60938 33.528126L420.46875 33.528126Q421.26562 33.528126 421.71875 33.121876Q422.17188 32.715626 422.17188 31.996876Q422.17188 30.465626 420.48438 30.465626L418.60938 30.465626ZM418.60938 29.559376L420.3125 29.559376Q421.04688 29.559376 421.48438 29.2Q421.9375 28.825 421.9375 28.184376Q421.9375 27.48125 421.53125 27.16875Q421.125 26.840626 420.28125 26.840626L418.60938 26.840626L418.60938 29.559376Z" fill-rule="nonzero"/></svg>