<?xml version="1.0" standalone="no"?>
<!DOCTYPE svg PUBLIC "-//W3C//DTD SVG 1.1//EN" "http://www.w3.org/Graphics/SVG/1.1/DTD/svg11.dtd" >
<svg xmlns="http://www.w3.org/2000/svg">
<metadata></metadata>
<defs>
<font id="geomanistitalic" horiz-adv-x="440" >
<font-face units-per-em="2048" ascent="1536" descent="-512" />
<missing-glyph horiz-adv-x="520" />
<glyph unicode="&#x2e;&#x2e;&#x2e;" horiz-adv-x="1382" d="M113 74q0 52 43 90.5t96 38.5q42 0 69 -28.5t27 -70.5q0 -53 -41 -92t-94 -39q-43 0 -71.5 29t-28.5 72zM588 72q0 53 41 92t96 39q41 0 69.5 -29t28.5 -72q0 -52 -42 -90.5t-95 -38.5q-42 0 -70 28.5t-28 70.5zM1061 74q0 52 42 90.5t97 38.5q41 0 68.5 -28.5 t27.5 -70.5q0 -53 -41 -92t-94 -39q-43 0 -71.5 29t-28.5 72z" />
<glyph unicode=" "  horiz-adv-x="520" />
<glyph unicode="&#x09;" horiz-adv-x="520" />
<glyph unicode="&#xa0;" horiz-adv-x="520" />
<glyph unicode="!" horiz-adv-x="528" d="M162 74q0 53 40 91t95 38q44 0 72 -28.5t28 -70.5q0 -54 -38 -92.5t-93 -38.5q-44 0 -74 29t-30 72zM254 360l166 1074h170l-195 -1074h-141z" />
<glyph unicode="&#x22;" horiz-adv-x="610" d="M283 1028l55 406h143l-80 -406h-118zM551 1028l57 406h144l-80 -406h-121z" />
<glyph unicode="#" horiz-adv-x="1327" d="M127 393l49 133h238l143 379h-235l47 133h239l148 396h145l-145 -396h295l147 396h145l-145 -396h240l-47 -133h-244l-141 -379h241l-49 -133h-244l-147 -393h-145l145 393h-297l-148 -393h-145l148 393h-238zM561 526h297l143 379h-296z" />
<glyph unicode="$" horiz-adv-x="1036" d="M119 289l151 61q8 -45 26 -82t49 -70.5t82.5 -52t119.5 -18.5q131 0 217 74.5t86 197.5q0 61 -31 111t-80 85t-109 68t-119.5 68.5t-108.5 77.5t-80 104.5t-31 139.5q0 161 112.5 273.5t298.5 129.5l21 113h125l-21 -113q72 -10 130 -41.5t91.5 -73t52 -80t25.5 -75.5 l-147 -58q-58 181 -240 181q-127 0 -203.5 -71.5t-76.5 -172.5q0 -44 19.5 -82.5t52 -68.5t74.5 -58t89 -54.5t93.5 -54.5t88.5 -61.5t74.5 -71t52 -88t19.5 -108.5q0 -182 -119.5 -306t-320.5 -137l-27 -151h-125l27 156q-79 10 -142.5 42t-102.5 77t-62 92.5t-31 97.5z " />
<glyph unicode="%" horiz-adv-x="1550" d="M143 0l1332 1434h172l-1334 -1434h-170zM268 1100q0 146 110 253t261 107q124 0 200 -77t76 -193q0 -146 -112 -251t-266 -105q-120 0 -194.5 76t-74.5 190zM408 1116q0 -68 41 -111.5t110 -43.5q92 0 153.5 62.5t61.5 150.5q0 69 -41.5 114t-111.5 45q-89 0 -151 -64.5 t-62 -152.5zM872 240q0 146 110.5 253t262.5 107q123 0 199 -77t76 -193q0 -147 -112.5 -252t-264.5 -105q-121 0 -196 75.5t-75 191.5zM1012 256q0 -69 41 -113.5t110 -44.5q92 0 153.5 63t61.5 152q0 69 -41.5 113.5t-113.5 44.5q-89 0 -150 -63.5t-61 -151.5z" />
<glyph unicode="&#x26;" horiz-adv-x="1284" d="M137 350q0 272 324 434q-109 134 -109 267q0 78 30 150.5t85 130.5t141.5 93t190.5 35q162 0 258 -84.5t96 -218.5q0 -150 -98.5 -257.5t-296.5 -209.5l284 -328q54 74 78 142t43 180h156q-22 -136 -61 -237t-117 -199l125 -150l-129 -106l-117 145q-84 -73 -203 -118.5 t-248 -45.5q-202 0 -317 107.5t-115 269.5zM303 365q0 -113 82 -178.5t209 -65.5q92 0 181 35.5t151 89.5l-377 428q-107 -43 -176.5 -121t-69.5 -188zM506 1063q0 -75 42 -139t120 -142q329 152 329 348q0 85 -56.5 139t-152.5 54q-118 0 -200 -75.5t-82 -184.5z" />
<glyph unicode="'" horiz-adv-x="342" d="M283 1028l55 406h143l-80 -406h-118z" />
<glyph unicode="(" horiz-adv-x="612" d="M143 37l201 1196q29 169 124.5 249.5t262.5 80.5l-22 -142q-89 0 -138.5 -48.5t-62.5 -131.5l-203 -1212q-14 -86 15 -133.5t124 -47.5l-24 -141q-161 0 -232.5 82t-44.5 248z" />
<glyph unicode=")" horiz-adv-x="612" d="M94 -293l25 141q89 0 137 49t61 132l203 1212q31 180 -139 180l25 142q162 0 233.5 -81.5t42.5 -248.5l-201 -1196q-27 -166 -126.5 -248t-260.5 -82z" />
<glyph unicode="*" horiz-adv-x="876" d="M254 958l246 129l-191 121l76 103l188 -121l39 244h127l-39 -240l220 117l51 -107l-228 -123l189 -120l-74 -103l-194 123l-41 -246h-127l41 238l-228 -121z" />
<glyph unicode="+" horiz-adv-x="1126" d="M178 569l23 138h407l74 436h147l-73 -436h407l-22 -138h-408l-74 -438h-147l74 438h-408z" />
<glyph unicode="," horiz-adv-x="434" d="M61 -174q38 26 80 69t54 80q-38 6 -60 34t-22 65q0 52 39.5 90.5t93.5 38.5q45 0 73.5 -28t28.5 -75q0 -182 -215 -348z" />
<glyph unicode="-" horiz-adv-x="692" d="M174 541l25 151h522l-25 -151h-522z" />
<glyph unicode="." horiz-adv-x="436" d="M113 74q0 53 40 91t95 38q44 0 72 -28.5t28 -70.5q0 -54 -38 -92.5t-93 -38.5q-44 0 -74 29t-30 72z" />
<glyph unicode="/" horiz-adv-x="872" d="M12 -221l916 1757h153l-915 -1757h-154z" />
<glyph unicode="0" horiz-adv-x="1134" d="M196 402q-2 138 29 315q29 185 71.5 316.5t110 230.5t166.5 147.5t232 48.5q132 0 215 -50t119 -145t38 -233t-28 -315q-24 -147 -55.5 -259t-78.5 -205.5t-109 -153.5t-146.5 -93t-190.5 -33q-132 0 -215.5 50t-119.5 145.5t-38 233.5zM361.5 453q-3.5 -65 2 -110 t20.5 -88t42 -69t69 -41.5t99 -15.5t104 15.5t81.5 41.5t63.5 69.5t48.5 88.5t37 110.5t28.5 123.5t24 139q10 63 15.5 109t10.5 100t4.5 93t-4.5 81t-15 71t-28.5 56t-43 43t-61 25.5t-79.5 9.5q-65 0 -117 -19.5t-90.5 -59.5t-66.5 -88.5t-49.5 -120.5t-35.5 -139.5 t-28 -160.5q-13 -81 -20.5 -140t-11 -124z" />
<glyph unicode="1" horiz-adv-x="636" d="M299 0l211 1264l-176 -66l-29 137l264 99h136l-240 -1434h-166z" />
<glyph unicode="2" horiz-adv-x="1044" d="M90 0l16 88q16 84 71 165t130.5 148t163 132.5t172 130.5t153.5 130t111.5 142.5t42.5 157.5q0 94 -57.5 152.5t-163.5 58.5q-208 0 -301 -222l-154 41q18 45 42 86.5t66.5 88.5t93 81.5t124 57t158.5 22.5q174 0 270 -101t96 -255q0 -76 -26 -148t-70.5 -132.5 t-102 -118t-122.5 -108t-130.5 -98t-127 -93t-111.5 -87.5t-84.5 -86t-44.5 -86h680l-24 -147h-871z" />
<glyph unicode="3" horiz-adv-x="1075" d="M127 287l149 51q15 -95 79.5 -153t189.5 -58q139 0 239.5 95.5t100.5 234.5q0 237 -281 237h-125l23 133l452 457h-614l27 150h802l-26 -156l-449 -442q62 0 123.5 -20.5t116.5 -60.5t89 -110.5t34 -159.5q0 -141 -74 -259t-197 -184.5t-264 -66.5q-82 0 -148.5 19 t-109.5 49.5t-73 73t-44.5 84t-19.5 86.5z" />
<glyph unicode="4" horiz-adv-x="1146" d="M125 362l20 125l811 947h179l-156 -924h188l-24 -148h-189l-61 -362h-164l62 362h-666zM334 510h481l119 709z" />
<glyph unicode="5" horiz-adv-x="1071" d="M127 287l152 51q13 -95 78.5 -153t189.5 -58q151 0 248.5 109.5t97.5 263.5q0 117 -66.5 191.5t-187.5 74.5q-78 0 -136.5 -25t-117.5 -69l-135 24l156 738h731l-27 -152h-582l-94 -442q116 69 252 69q173 0 276 -106t103 -275q0 -149 -69 -276.5t-192.5 -203 t-273.5 -75.5q-99 0 -176 28.5t-123 76t-71.5 100t-32.5 109.5z" />
<glyph unicode="6" horiz-adv-x="1118" d="M182 430q0 91 8.5 182.5t30.5 195t56 195t89.5 176.5t125.5 146.5t169 98t216 36.5q176 0 305 -102l-97 -127q-95 74 -231 74q-103 0 -188 -46.5t-141.5 -126t-92 -172t-51.5 -196.5q58 66 155.5 116t211.5 50q172 0 265 -104.5t93 -274.5q0 -257 -145 -417.5 t-386 -160.5q-104 0 -181.5 35.5t-122.5 99t-67 144t-22 178.5zM348 412q0 -283 246 -283q149 0 245.5 107.5t96.5 285.5q0 114 -60.5 185t-175.5 71q-101 0 -189 -53.5t-149 -144.5q-14 -92 -14 -168z" />
<glyph unicode="7" horiz-adv-x="989" d="M256 0l717 1282h-699l25 152h881l-21 -127l-725 -1307h-178z" />
<glyph unicode="8" horiz-adv-x="1124" d="M152 338q0 74 22.5 140t55.5 111.5t77 83t81.5 58.5t74.5 35q-57 31 -103.5 101t-46.5 165q0 184 141.5 306t344.5 122q165 0 267.5 -90t102.5 -237q0 -72 -26 -136.5t-67.5 -109t-81.5 -74.5t-79 -47q31 -14 61.5 -38t60.5 -60.5t48.5 -91t18.5 -117.5 q0 -139 -72 -250.5t-197 -173.5t-278 -62q-184 0 -294.5 100t-110.5 265zM324 362q0 -101 67.5 -169t190.5 -68q157 0 253.5 95.5t96.5 225.5q0 109 -71 172.5t-187 63.5q-144 0 -247 -89t-103 -231zM479 1040q0 -88 61.5 -147t159.5 -59q122 0 210.5 81.5t88.5 190.5 q0 89 -57.5 145t-163.5 56q-134 0 -216.5 -79.5t-82.5 -187.5z" />
<glyph unicode="9" horiz-adv-x="1118" d="M176 76l96 127q95 -74 232 -74q103 0 188 46.5t141.5 126t92 172t51.5 196.5q-58 -66 -155.5 -116t-211.5 -50q-172 0 -265 104.5t-93 274.5q0 257 144.5 417t385.5 160q104 0 181.5 -35.5t123 -98.5t67.5 -143.5t22 -178.5q0 -91 -8.5 -182.5t-30.5 -195t-56 -195 t-89.5 -177t-125.5 -147t-169 -98t-216 -36.5q-175 0 -305 103zM422 911q0 -114 60 -185t175 -71q101 0 189 54t149 145q15 99 15 168q0 283 -246 283q-149 0 -245.5 -108t-96.5 -286z" />
<glyph unicode=":" horiz-adv-x="434" d="M113 74q0 52 43 90.5t96 38.5q42 0 69 -28.5t27 -70.5q0 -53 -41 -92t-94 -39q-43 0 -71.5 29t-28.5 72zM246 868q0 52 42 90.5t95 38.5q42 0 70 -28t28 -70q0 -53 -41 -93t-94 -40q-43 0 -71.5 29.5t-28.5 72.5z" />
<glyph unicode=";" horiz-adv-x="434" d="M72 -174q101 70 125 149q-38 6 -60 34t-22 65q0 52 39.5 90.5t93.5 38.5q45 0 73.5 -28t28.5 -75q0 -182 -215 -348zM248 868q0 52 42 90.5t95 38.5q42 0 69 -28t27 -70q0 -53 -41 -93t-94 -40q-42 0 -70 29.5t-28 72.5z" />
<glyph unicode="&#x3c;" horiz-adv-x="1009" d="M184 573l23 132l895 378l-27 -153l-715 -297l617 -295l-25 -143z" />
<glyph unicode="=" horiz-adv-x="1126" d="M147 391l23 137h963l-23 -137h-963zM205 731l22 135h963l-23 -135h-962z" />
<glyph unicode="&#x3e;" horiz-adv-x="1009" d="M121 195l24 153l713 295l-614 289l26 151l770 -378l-22 -132z" />
<glyph unicode="?" horiz-adv-x="956" d="M276 1198q25 47 57 88t82.5 83t124 66.5t160.5 24.5q157 0 259 -91.5t102 -231.5q0 -78 -24 -145.5t-63.5 -116.5t-87.5 -92t-98 -80.5t-92.5 -74.5t-73 -82.5t-38.5 -94.5l-15 -91h-161l16 97q11 64 42.5 119t73 96t89.5 79t94 75.5t83 77t60 92.5t23 114 q0 90 -55.5 145.5t-155.5 55.5q-54 0 -99 -15.5t-77.5 -43.5t-52.5 -52.5t-41 -58.5zM328 74q0 53 40 91t95 38q44 0 72 -28.5t28 -70.5q0 -54 -38 -92.5t-93 -38.5q-44 0 -74 29t-30 72z" />
<glyph unicode="@" horiz-adv-x="1824" d="M162 414q0 198 78.5 377.5t211 309.5t315.5 206.5t384 76.5q166 0 300 -51.5t220.5 -141t133 -208t46.5 -254.5q0 -276 -116.5 -439t-304.5 -163q-89 0 -140 43.5t-59 112.5q-17 -24 -42 -48t-63 -50t-91.5 -42t-112.5 -16q-146 0 -238 93t-92 245q0 134 65.5 243 t170.5 167.5t225 58.5q52 0 97 -13.5t73 -34.5t44 -38t25 -33l19 107h137l-88 -523q-23 -149 100 -149q106 0 181 128t75 339q0 119 -39 219t-112 172.5t-184 113t-248 40.5q-171 0 -325.5 -68t-264 -181.5t-174 -267t-64.5 -319.5q0 -173 69 -308t200.5 -212.5t306.5 -77.5 q216 0 399 94l45 -104q-87 -49 -208.5 -82t-256.5 -33q-201 0 -360.5 91t-248.5 253t-89 367zM741 481q0 -102 58.5 -164.5t152.5 -62.5q124 0 213.5 88.5t89.5 239.5q0 101 -56.5 162t-156.5 61q-123 0 -212 -90.5t-89 -233.5z" />
<glyph unicode="A" horiz-adv-x="1292" d="M25 0l776 1434h168l297 -1434h-166l-94 465h-560l-249 -465h-172zM520 608h461l-125 643z" />
<glyph unicode="B" horiz-adv-x="1114" d="M162 0l239 1434h396q179 0 274.5 -81.5t95.5 -224.5q0 -127 -65 -223.5t-178 -152.5q85 -33 133.5 -107.5t48.5 -177.5q0 -140 -69 -248t-183.5 -163.5t-253.5 -55.5h-438zM352 145h244q153 0 245.5 80t92.5 236q0 109 -67.5 161t-184.5 52h-242zM463 813h248 q123 0 202.5 79.5t79.5 205.5q0 88 -52 138t-150 50h-248z" />
<glyph unicode="C" horiz-adv-x="1343" d="M188 604q0 175 71 334.5t189 273t275.5 181t325.5 67.5q144 0 248.5 -44.5t168.5 -104.5l-77 -148q-32 30 -73 58t-122 56t-168 28q-131 0 -253.5 -54t-212.5 -144.5t-144 -217.5t-54 -266q0 -217 128 -355.5t344 -138.5q217 0 432 160l26 -152q-43 -33 -101 -65.5 t-167.5 -65.5t-220.5 -33q-137 0 -253 48t-195 131.5t-123 200t-44 251.5z" />
<glyph unicode="D" horiz-adv-x="1304" d="M162 0l239 1434h295q319 0 490.5 -155t171.5 -433q0 -403 -241 -624.5t-660 -221.5h-295zM352 147h162q199 0 350 78.5t236.5 232t85.5 363.5q0 218 -127.5 340.5t-353.5 122.5h-162z" />
<glyph unicode="E" horiz-adv-x="970" d="M162 0l239 1434h680l-24 -152h-514l-80 -477h448l-24 -150h-449l-86 -505h537l-25 -150h-702z" />
<glyph unicode="F" horiz-adv-x="956" d="M162 0l239 1434h680l-24 -152h-514l-82 -491h450l-26 -150h-451l-106 -641h-166z" />
<glyph unicode="G" horiz-adv-x="1507" d="M186 598q0 175 69.5 334.5t185.5 275t275.5 184t332.5 68.5q101 0 187 -21t145.5 -56t96 -66.5t64.5 -65.5l-125 -110q-143 164 -391 164q-137 0 -260 -54t-211.5 -146.5t-140.5 -220t-52 -268.5q0 -218 127 -353.5t338 -135.5q81 0 158 16.5t133.5 43t92.5 49t61 43.5 l51 299h-319l24 145h479l-88 -520q-136 -118 -288 -174t-336 -56q-270 0 -439.5 174t-169.5 451z" />
<glyph unicode="H" horiz-adv-x="1417" d="M162 0l239 1434h166l-104 -629h762l104 629h166l-240 -1434h-165l108 653h-762l-108 -653h-166z" />
<glyph unicode="I" horiz-adv-x="489" d="M162 0l239 1434h166l-239 -1434h-166z" />
<glyph unicode="J" horiz-adv-x="706" d="M47 12l43 146q65 -21 133 -21q179 0 215 209l183 1088h165l-186 -1110q-27 -163 -128.5 -249.5t-256.5 -86.5q-104 0 -168 24z" />
<glyph unicode="K" horiz-adv-x="1157" d="M162 0l239 1434h166l-110 -660l673 660h209l-716 -695l501 -739h-194l-481 721l-121 -721h-166z" />
<glyph unicode="L" horiz-adv-x="919" d="M162 0l239 1434h166l-215 -1284h537l-25 -150h-702z" />
<glyph unicode="M" horiz-adv-x="1775" d="M160 0l239 1434h213l328 -1117l688 1117h225l-239 -1434h-160l201 1192l-654 -1061h-174l-307 1063l-201 -1194h-159z" />
<glyph unicode="N" horiz-adv-x="1441" d="M160 0l239 1434h166l594 -1172l197 1172h164l-240 -1434h-164l-596 1167l-194 -1167h-166z" />
<glyph unicode="O" horiz-adv-x="1619" d="M186 604q0 175 71 334.5t188.5 273t277 181t330.5 67.5q183 0 324.5 -83.5t217.5 -228t76 -323.5q0 -139 -45 -269.5t-127 -235t-189.5 -183.5t-238.5 -121.5t-268 -42.5q-182 0 -323.5 81.5t-217.5 225t-76 324.5zM360 625q0 -218 130 -357t341 -139q175 0 328 88.5 t245.5 245.5t92.5 344q0 217 -130 357.5t-339 140.5q-132 0 -254.5 -53t-213.5 -143.5t-145.5 -217t-54.5 -266.5z" />
<glyph unicode="P" horiz-adv-x="1040" d="M162 0l239 1434h394q172 0 269 -90t97 -250q0 -219 -144.5 -356.5t-361.5 -137.5h-227l-100 -600h-166zM453 748h213q147 0 235 89t88 230q0 103 -60.5 161t-172.5 58h-213z" />
<glyph unicode="Q" horiz-adv-x="1619" d="M186 604q0 175 71 334.5t188.5 273t277 181t330.5 67.5q183 0 324.5 -83.5t217.5 -228t76 -323.5q0 -176 -69.5 -332t-194.5 -274l123 -141l-125 -107l-127 144q-219 -142 -475 -142q-182 0 -323.5 81.5t-217.5 225t-76 324.5zM360 625q0 -218 130 -357t341 -139 q187 0 349 100l-136 158l123 107l138 -160q90 93 141 215t51 258q0 217 -130 357.5t-339 140.5q-132 0 -254.5 -53t-213.5 -143.5t-145.5 -217t-54.5 -266.5z" />
<glyph unicode="R" horiz-adv-x="1120" d="M162 0l239 1434h365q191 0 289 -85t98 -241q0 -155 -85 -281t-234 -170l245 -657h-184l-219 623h-244l-104 -623h-166zM457 768h198q152 0 237 79t85 236q0 96 -60 149.5t-186 53.5h-188z" />
<glyph unicode="S" horiz-adv-x="1036" d="M119 289l151 61q8 -45 26 -82t49 -70.5t82.5 -52t119.5 -18.5q131 0 217 74.5t86 197.5q0 61 -31 111t-80 85t-109 68t-119.5 68.5t-108.5 77.5t-80 104.5t-31 139.5q0 175 131 291t340 116q90 0 161 -28.5t111.5 -73.5t62 -87.5t29.5 -84.5l-147 -58q-58 181 -240 181 q-127 0 -203.5 -71.5t-76.5 -172.5q0 -44 19.5 -82.5t52 -68.5t74.5 -58t89 -54.5t93.5 -54.5t88.5 -61.5t74.5 -71t52 -88t19.5 -108.5q0 -192 -132.5 -318.5t-352.5 -126.5q-99 0 -178.5 29.5t-127.5 78t-75.5 100.5t-36.5 108z" />
<glyph unicode="T" horiz-adv-x="1046" d="M258 1282l25 152h938l-25 -152h-385l-215 -1282h-166l215 1282h-387z" />
<glyph unicode="U" horiz-adv-x="1376" d="M240 514l153 920h166l-153 -918q-8 -51 -8 -95q0 -115 56 -191q78 -104 255 -103q179 0 292 104t144 287l153 916h164l-153 -918q-41 -249 -203 -396t-416 -147q-256 1 -374 147q-87 108 -87 271q0 58 11 123z" />
<glyph unicode="V" horiz-adv-x="1304" d="M258 1434h180l246 -1237l657 1237h185l-785 -1434h-178z" />
<glyph unicode="W" horiz-adv-x="1931" d="M262 1434h176l127 -1223l553 1223h166l150 -1223l534 1223h178l-647 -1434h-186l-150 1190l-547 -1190h-184z" />
<glyph unicode="X" horiz-adv-x="1234" d="M27 0l624 766l-342 668h185l276 -562l442 562h197l-567 -711l368 -723h-178l-311 614l-492 -614h-202z" />
<glyph unicode="Y" horiz-adv-x="1089" d="M260 1434h174l242 -607l446 607h189l-572 -762l-112 -672h-164l115 672z" />
<glyph unicode="Z" horiz-adv-x="1216" d="M72 0l20 121l1032 1163h-811l25 150h1032l-20 -123l-1033 -1161h842l-24 -150h-1063z" />
<glyph unicode="[" horiz-adv-x="612" d="M88 -293l311 1856h332l-24 -142h-170l-263 -1573h170l-24 -141h-332z" />
<glyph unicode="\" horiz-adv-x="872" d="M309 1536h150l325 -1757h-149z" />
<glyph unicode="]" horiz-adv-x="624" d="M94 -293l25 141h170l262 1573h-170l25 142h331l-311 -1856h-332z" />
<glyph unicode="^" horiz-adv-x="1071" d="M201 651l504 783h139l243 -783h-161l-174 619l-392 -619h-159z" />
<glyph unicode="_" horiz-adv-x="1241" d="M35 -195l22 136h1106l-22 -136h-1106z" />
<glyph unicode="`" horiz-adv-x="1001" d="M590 1485h174l98 -291h-137z" />
<glyph unicode="a" horiz-adv-x="1044" d="M119 279q0 112 63 203.5t171.5 143.5t238.5 52q94 0 164 -29t100 -67l23 131q5 27 5 51q0 75 -46 122q-60 62 -179 62q-146 0 -325 -94l-47 123q199 115 403 115q200 0 289 -107q67 -80 67 -199q0 -40 -8 -84l-116 -702h-140l-4 90q-123 -117 -307 -117q-157 0 -254.5 86 t-97.5 220zM287 301q0 -84 62.5 -138t170.5 -54q130 0 217.5 71.5t87.5 179.5q0 86 -63 137.5t-170 51.5q-132 0 -218.5 -72t-86.5 -176z" />
<glyph unicode="b" horiz-adv-x="1253" d="M139 0l248 1481h162l-98 -588q15 20 37 42t61 51.5t82.5 52t104.5 38t124 15.5q195 0 309.5 -128t114.5 -335q0 -138 -47 -260t-128 -209t-194 -137t-239 -50q-65 0 -123 17t-95 40t-68 53t-44.5 49.5t-21.5 35.5l-29 -168h-156zM377 459q0 -147 79.5 -243.5t219.5 -96.5 q86 0 166 35.5t140.5 98t97 153.5t36.5 196q0 152 -82 247t-217 95q-86 0 -165.5 -34.5t-140.5 -95.5t-97.5 -153.5t-36.5 -201.5z" />
<glyph unicode="c" horiz-adv-x="1048" d="M147 453q0 130 51 248.5t137 204t203.5 136t245.5 50.5q129 0 220.5 -45.5t140.5 -100.5l-78 -139q-17 21 -39.5 40.5t-59 43t-87 37.5t-107.5 14q-93 0 -177.5 -37.5t-145.5 -101t-97.5 -151t-36.5 -183.5q0 -150 90 -249t234 -99q179 0 340 141l29 -145 q-184 -144 -400 -144q-208 0 -335.5 136.5t-127.5 343.5z" />
<glyph unicode="d" horiz-adv-x="1253" d="M147 436q0 182 79.5 332.5t219.5 237t310 86.5q63 0 118.5 -15.5t92.5 -38.5t66.5 -51.5t44.5 -51.5t22 -42l98 588h164l-248 -1481h-158l29 168q-16 -19 -32.5 -36t-56 -48.5t-81 -53.5t-104 -39.5t-127.5 -17.5q-199 0 -318 128.5t-119 334.5zM315 455q0 -152 83 -244 t218 -92q124 0 225.5 67.5t157.5 179t56 240.5q0 157 -84 247.5t-217 90.5q-118 0 -218.5 -63.5t-160.5 -176.5t-60 -249z" />
<glyph unicode="e" horiz-adv-x="1157" d="M150 438q0 178 81 328.5t220.5 238t304.5 87.5q209 0 322.5 -119t113.5 -320q0 -67 -21 -155h-852q-7 -43 -7 -81q0 -119 68 -197q90 -103 259 -103q213 0 358 166l99 -80q-69 -91 -194.5 -160.5t-289.5 -69.5q-213 0 -337.5 128t-124.5 337zM344 618h686q4 30 4 57 q0 117 -68 189q-82 88 -221 88q-146 0 -257.5 -92t-143.5 -242z" />
<glyph unicode="f" horiz-adv-x="602" d="M172 0l156 928h-119l22 137h119l10 55q18 97 57 168t93.5 110.5t114 58t127.5 18.5l67 -5l-22 -141q-27 4 -52 4q-182 0 -221 -213l-10 -55h227l-22 -137h-227l-156 -928h-164z" />
<glyph unicode="g" horiz-adv-x="1243" d="M145 434q0 183 81 334.5t221 237.5t309 86q63 0 118.5 -15.5t92.5 -38t67.5 -51.5t46 -51.5t25.5 -42.5l29 172h155l-157 -948q-85 -510 -611 -510q-101 0 -206 31t-169 75l80 127q26 -17 61.5 -34.5t104.5 -35.5t139 -18q165 0 284 80t147 242l16 94 q-21 -25 -46.5 -48.5t-77.5 -61.5t-125.5 -61.5t-154.5 -23.5q-197 0 -313.5 128t-116.5 333zM311 459q0 -153 83.5 -245.5t219.5 -92.5q122 0 223.5 66t158.5 177t57 242q0 156 -83.5 247t-219.5 91q-180 0 -309.5 -139.5t-129.5 -345.5z" />
<glyph unicode="h" horiz-adv-x="1122" d="M139 0l248 1481h162l-96 -570q54 77 148 129t198 52q181 0 259 -118q56 -84 56 -204q0 -49 -10 -104l-111 -666h-162l113 672q6 33 6 62q0 82 -44 136q-59 74 -169 74q-123 0 -214 -82.5t-113 -214.5l-109 -647h-162z" />
<glyph unicode="i" d="M139 0l178 1065h162l-178 -1065h-162zM332 1323q0 52 38.5 89.5t90.5 37.5q42 0 69 -27t27 -69q0 -52 -40 -89.5t-93 -37.5q-41 0 -66.5 27t-25.5 69z" />
<glyph unicode="j" d="M-152 -387l23 139q18 -2 45 -2q91 0 144.5 53t72.5 166l184 1096h162l-184 -1100q-16 -98 -53.5 -169t-91 -111t-114 -58t-132.5 -18zM330 1323q0 52 39.5 89.5t91.5 37.5q42 0 69 -27t27 -69q0 -52 -40 -89.5t-93 -37.5q-41 0 -67.5 27.5t-26.5 68.5z" />
<glyph unicode="k" horiz-adv-x="978" d="M139 0l248 1481h162l-146 -873l502 457h213l-545 -485l394 -580h-187l-385 567l-94 -567h-162z" />
<glyph unicode="l" d="M139 0l248 1481h162l-248 -1481h-162z" />
<glyph unicode="m" horiz-adv-x="1759" d="M139 0l178 1065h160l-26 -154q46 75 136.5 128t194.5 53q117 0 192 -52.5t97 -142.5q64 94 162 144.5t213 50.5q174 0 250 -111q55 -80 56 -195q0 -45 -9 -96l-115 -690h-162l107 641q9 52 9 96q0 207 -198 207q-116 0 -202.5 -80t-110.5 -225l-106 -639h-162l112 672 q6 37 6 69q1 79 -37 131q-54 72 -167 72q-108 0 -196 -83.5t-111 -215.5l-109 -645h-162z" />
<glyph unicode="n" horiz-adv-x="1122" d="M139 0l178 1065h160l-26 -154q54 77 148.5 129t199.5 52q121 0 197 -56.5t102 -151.5q14 -52 14 -113q0 -50 -10 -105l-111 -666h-162l113 672q6 33 6 62q0 82 -44 136q-58 74 -169 74q-123 0 -213 -82.5t-112 -214.5l-109 -647h-162z" />
<glyph unicode="o" horiz-adv-x="1247" d="M147 446q0 178 91.5 327.5t243 234t325.5 84.5q212 0 341.5 -134t129.5 -342q0 -176 -90.5 -324.5t-242 -233.5t-327.5 -85q-212 0 -341.5 132.5t-129.5 340.5zM315 465q0 -153 89.5 -248.5t238.5 -95.5q194 0 331.5 138.5t137.5 338.5q0 152 -91 249t-241 97 q-127 0 -234 -64t-169 -174t-62 -241z" />
<glyph unicode="p" horiz-adv-x="1255" d="M76 -383l241 1448h156l-27 -168q16 19 32.5 36t56.5 48.5t81.5 53.5t104 39.5t127.5 17.5q199 0 318.5 -129.5t119.5 -335.5q0 -137 -48 -258.5t-129.5 -208t-195 -137t-239.5 -50.5q-63 0 -118.5 16t-92 38t-66 51.5t-44 51.5t-23.5 42l-92 -555h-162zM377 459 q0 -157 84 -247.5t219 -90.5q118 0 218.5 63t160 175.5t59.5 248.5q0 153 -84.5 244.5t-220.5 91.5q-123 0 -224 -67.5t-156.5 -178.5t-55.5 -239z" />
<glyph unicode="q" horiz-adv-x="1255" d="M150 434q0 139 47.5 261.5t128.5 209.5t194.5 137t241.5 50q65 0 122.5 -17t94 -40t67 -53t43 -49t21.5 -36l27 168h155l-241 -1448h-162l94 555q-20 -27 -50.5 -55.5t-81.5 -63.5t-124 -57.5t-154 -22.5q-195 0 -309 127t-114 334zM315 461q0 -151 82.5 -245.5 t216.5 -94.5q86 0 166 34.5t141.5 95.5t98.5 153t37 200q0 146 -83.5 243t-225.5 97q-179 0 -306 -135.5t-127 -347.5z" />
<glyph unicode="r" horiz-adv-x="657" d="M139 0l178 1065h160l-31 -178q44 85 140.5 145t212.5 60l-27 -162q-162 0 -256.5 -110.5t-128.5 -309.5l-86 -510h-162z" />
<glyph unicode="s" horiz-adv-x="854" d="M92 201l121 69q68 -159 244 -159q92 0 159.5 52t67.5 138q0 42 -25 76.5t-65 59t-88.5 48t-97.5 50.5t-89 59.5t-65 81t-25 108.5q0 139 110.5 223.5t274.5 84.5q70 0 128 -20.5t93.5 -53t56.5 -66t28 -65.5l-129 -68q-9 26 -21 46t-34 43t-58.5 35.5t-85.5 12.5 q-86 0 -144.5 -44t-58.5 -119q0 -41 25 -75.5t65.5 -60t89.5 -50.5t97.5 -53.5t89 -61.5t65.5 -81.5t25 -107.5q0 -152 -110.5 -241t-297.5 -89q-76 0 -138 21t-102 57t-64.5 72t-41.5 78z" />
<glyph unicode="t" horiz-adv-x="604" d="M182 928l23 137h129l39 223h157l-38 -223h233l-23 -137h-233l-92 -549q-10 -59 -10 -103q1 -62 21 -92q34 -51 136 -51l54 4l-25 -145q-43 -6 -98 -6q-147 0 -209 90q-42 61 -42 163q0 48 9 105l94 584h-125z" />
<glyph unicode="u" horiz-adv-x="1112" d="M197 399l110 666h162l-113 -672q-6 -33 -5 -62q0 -83 43 -137q59 -74 169 -73q123 0 213.5 82.5t112.5 214.5l108 647h164l-178 -1065h-162l27 154q-52 -76 -147 -128.5t-199 -52.5q-180 1 -258 119q-56 84 -56 203q0 49 9 104z" />
<glyph unicode="v" horiz-adv-x="1026" d="M190 1065h172l181 -883l473 883h174l-588 -1065h-178z" />
<glyph unicode="w" horiz-adv-x="1671" d="M193 1065h174l131 -877q5 7 434 877h162l137 -877l428 877h176l-539 -1065h-178l-141 846l-426 -846h-178z" />
<glyph unicode="x" horiz-adv-x="1032" d="M23 0l485 563l-279 502h191l211 -393l334 393h192l-450 -530l303 -535h-187l-239 426l-363 -426h-198z" />
<glyph unicode="y" horiz-adv-x="1040" d="M190 1065h172l193 -862l473 862h176l-811 -1432h-168l221 377z" />
<glyph unicode="z" horiz-adv-x="946" d="M66 0l18 115l737 811h-581l22 139h782l-20 -117l-733 -811h608l-22 -137h-811z" />
<glyph unicode="{" horiz-adv-x="698" d="M168 561l25 148q75 0 121 53.5t67 177.5l49 293q57 330 387 330l-24 -142q-171 0 -199 -180l-57 -338q-12 -68 -36.5 -121.5t-54.5 -82.5t-52 -43.5t-40 -20.5q12 -5 25 -14t31 -29.5t27.5 -49.5t15 -73.5t-6.5 -101.5l-57 -338q-14 -83 19 -132t122 -49l-24 -141 q-331 0 -277 330l50 293q21 123 -8 177t-103 54z" />
<glyph unicode="|" horiz-adv-x="516" d="M111 -422l340 2026h155l-340 -2026h-155z" />
<glyph unicode="}" horiz-adv-x="698" d="M94 -293l25 141q167 0 198 181l58 338q12 68 36.5 121.5t54 82.5t51.5 43.5t40 20.5q-12 5 -25 14t-31 29.5t-27.5 49.5t-15 73.5t6.5 101.5l55 338q31 180 -139 180l25 142q162 0 233.5 -81.5t42.5 -248.5l-49 -293q-21 -124 7 -177.5t103 -53.5l-24 -148 q-74 0 -121 -54t-68 -177l-49 -293q-57 -330 -387 -330z" />
<glyph unicode="~" horiz-adv-x="1097" d="M164 481q21 125 105.5 206t205.5 81q55 0 110.5 -22t93.5 -48.5t84 -48.5t83 -22q62 0 99.5 40t49.5 101h146q-20 -118 -104.5 -202.5t-205.5 -84.5q-44 0 -85 14.5t-73 35.5t-63.5 42t-70 35.5t-78.5 14.5q-63 0 -102 -40.5t-52 -101.5h-143z" />
<glyph unicode="&#xa1;" horiz-adv-x="528" d="M127 -313l195 1073h141l-166 -1073h-170zM319 1016q0 53 41.5 92t94.5 39q43 0 71.5 -28.5t28.5 -71.5q0 -52 -42 -90.5t-95 -38.5q-42 0 -70.5 28t-28.5 70z" />
<glyph unicode="&#xa2;" horiz-adv-x="1060" d="M176 610q0 166 79 308t214.5 229.5t296.5 99.5l31 187h127l-31 -191q98 -13 169 -53.5t112 -85.5l-78 -139q-17 21 -39.5 40.5t-59 43t-87 37.5t-107.5 14q-93 0 -177.5 -37.5t-145.5 -101t-97.5 -151t-36.5 -183.5q0 -157 89 -252.5t235 -95.5q179 0 340 141l28 -146 q-151 -120 -331 -139l-23 -135h-127l23 133q-184 20 -294 153t-110 324z" />
<glyph unicode="&#xa3;" horiz-adv-x="1136" d="M80 0l24 147h138l84 498h-119l22 137h119l45 265q32 189 154.5 301t316.5 112q83 0 150 -25.5t106.5 -66t62 -84t27.5 -86.5l-143 -59q-13 65 -66 115.5t-149 50.5q-122 0 -198 -71.5t-97 -195.5l-43 -256h344l-22 -137h-344l-84 -498h657l-25 -147h-960z" />
<glyph unicode="&#xa5;" horiz-adv-x="1126" d="M217 365l21 120h325l33 185h-328l21 123h256l-266 641h174l247 -607l445 607h184l-481 -641h256l-21 -123h-325l-31 -185h326l-21 -120h-325l-62 -365h-164l62 365h-326z" />
<glyph unicode="&#xa7;" horiz-adv-x="976" d="M55 -180l144 55q8 -30 23.5 -56t41.5 -51.5t69 -40t99 -14.5q122 0 190 61t68 160q0 62 -35 109.5t-100 91.5l-260 176q-56 36 -92.5 97t-36.5 141q0 111 67 196.5t170 124.5q-108 98 -108 240q0 172 121 286.5t327 114.5q71 0 130 -19t96.5 -47.5t65.5 -66t41.5 -70.5 t19.5 -65l-142 -55q-8 31 -23.5 57.5t-42 52t-70 40t-99.5 14.5q-121 0 -188.5 -62t-67.5 -162q0 -114 135 -200l203 -133q184 -125 184 -283q0 -110 -67 -195t-170 -124q108 -98 108 -240q0 -167 -126 -278t-322 -111q-82 0 -149.5 26t-108.5 66.5t-64.5 82t-30.5 81.5z M322 567q0 -90 67 -133l229 -147q86 3 148.5 64t62.5 143q0 100 -122 176l-175 106q-86 -3 -148 -64.5t-62 -144.5z" />
<glyph unicode="&#xa8;" horiz-adv-x="1001" d="M453 1323q0 46 35.5 81.5t82.5 35.5q39 0 63.5 -25.5t24.5 -62.5q0 -48 -34.5 -82.5t-83.5 -34.5q-38 0 -63 25.5t-25 62.5zM788 1323q0 46 35 81.5t84 35.5q38 0 63 -26t25 -62q0 -47 -35.5 -82t-82.5 -35q-39 0 -64 25.5t-25 62.5z" />
<glyph unicode="&#xa9;" horiz-adv-x="1646" d="M197 602q0 171 69 329.5t184.5 274.5t275.5 185t335 69q181 0 325 -84.5t223 -229.5t79 -323q0 -172 -69.5 -329.5t-186 -272t-278 -182.5t-337.5 -68q-185 0 -327.5 83.5t-217.5 226.5t-75 321zM328 614q0 -230 138.5 -378t369.5 -148q148 0 281.5 57t229 154t151.5 231 t56 283q0 151 -60.5 270t-178 188.5t-273.5 69.5q-193 0 -357.5 -97.5t-260.5 -265t-96 -364.5zM563 645q0 125 56 230.5t159 169t232 63.5q102 0 172.5 -48t105.5 -106l-96 -77q-74 104 -199 104q-132 0 -212.5 -92.5t-80.5 -226.5q0 -97 52.5 -157.5t150.5 -60.5 q129 0 234 105l75 -82q-135 -150 -319 -150q-151 0 -240.5 92.5t-89.5 235.5z" />
<glyph unicode="&#xaa;" horiz-adv-x="835" d="M233 846q0 131 104 218t257 87q63 0 114 -19.5t80 -46.5l15 84q13 82 -30.5 127t-129.5 45q-100 0 -242 -71l-45 102q153 88 318 88q154 0 216.5 -81t39.5 -218l-88 -528h-111l-4 61q-91 -80 -227 -80q-120 0 -193.5 64.5t-73.5 167.5zM365 866q0 -62 47 -101.5 t127 -39.5q95 0 160 51.5t65 130.5q0 62 -47 99.5t-125 37.5q-98 0 -162.5 -51.5t-64.5 -126.5z" />
<glyph unicode="&#xab;" horiz-adv-x="876" d="M170 598l313 377h162l-317 -377l190 -375h-149zM494 598l315 377h162l-320 -377l193 -375h-150z" />
<glyph unicode="&#xad;" horiz-adv-x="692" d="M174 541l25 151h522l-25 -151h-522z" />
<glyph unicode="&#xae;" horiz-adv-x="925" d="M217 1038q0 96 37.5 184.5t102.5 154t157 104.5t195 39q170 0 267 -99.5t97 -253.5q0 -128 -60 -237t-174.5 -176.5t-260.5 -67.5q-167 0 -264 99t-97 253zM311 1049q0 -122 74 -199.5t205 -77.5q174 0 281.5 110.5t107.5 276.5q0 124 -74.5 198.5t-208.5 74.5 q-168 0 -276.5 -110.5t-108.5 -272.5zM467 881l74 442h153q63 0 97 -30.5t34 -82.5t-25.5 -88t-62.5 -51l51 -190h-100l-39 168h-57l-29 -168h-96zM606 1133h58q27 0 43 18t16 45q0 43 -43 43h-57z" />
<glyph unicode="&#xaf;" horiz-adv-x="923" d="M428 1288l23 129h495l-22 -129h-496z" />
<glyph unicode="&#xb0;" horiz-adv-x="729" d="M254 1118q0 138 101.5 240t246.5 102q117 0 188.5 -72.5t71.5 -179.5q0 -140 -101.5 -240t-250.5 -100q-117 0 -186.5 71.5t-69.5 178.5zM385 1135q0 -64 38 -105t105 -41q88 0 145.5 59.5t57.5 145.5q0 63 -39 104t-106 41q-85 0 -143 -60t-58 -144z" />
<glyph unicode="&#xb2;" horiz-adv-x="700" d="M201 623l18 94q11 57 50.5 110t90.5 91t108 77.5t104.5 72.5t78.5 74t31 83q0 44 -32 74t-85 30q-92 0 -159 -106l-109 43q36 73 113 128.5t180 55.5t163 -57.5t60 -147.5q0 -53 -23 -101t-60 -84.5t-82 -70t-92 -63.5t-87 -58.5t-68.5 -62t-35.5 -68.5h376l-18 -114 h-522z" />
<glyph unicode="&#xb3;" horiz-adv-x="698" d="M213 791l113 45q11 -46 45 -78.5t98 -32.5q71 0 119.5 44t48.5 120q0 56 -38.5 87.5t-109.5 31.5h-75l16 100l227 209h-319l20 117h482l-17 -99l-252 -231q88 -2 145.5 -56.5t57.5 -146.5q0 -133 -94.5 -214t-228.5 -81q-107 0 -163.5 53.5t-74.5 131.5z" />
<glyph unicode="&#xb4;" horiz-adv-x="1001" d="M539 1194l188 291h184l-231 -291h-141z" />
<glyph unicode="&#xb6;" horiz-adv-x="1034" d="M258 1001q0 115 63.5 215.5t167 159t218.5 58.5h145l-256 -1526h-139l129 766q-144 1 -236 95t-92 232zM729 -92l256 1526h141l-256 -1526h-141z" />
<glyph unicode="&#xb7;" horiz-adv-x="462" d="M221 629q0 53 40 91t95 38q44 0 72.5 -28.5t28.5 -70.5q0 -54 -38 -92.5t-93 -38.5q-44 0 -74.5 29t-30.5 72z" />
<glyph unicode="&#xb8;" horiz-adv-x="923" d="M223 -451l37 105q30 -6 59 -6q132 0 132 96q0 35 -28.5 53.5t-76.5 18.5l-41 -4l64 208h102l-35 -116q65 -6 101 -46.5t36 -101.5q0 -108 -77 -162.5t-189 -54.5q-54 0 -84 10z" />
<glyph unicode="&#xb9;" horiz-adv-x="520" d="M317 1372l179 62h106l-135 -811h-131l113 677l-109 -38z" />
<glyph unicode="&#xba;" horiz-adv-x="958" d="M221 971q0 135 68 248t182 177t248 64q160 0 259 -100.5t99 -257.5q0 -134 -67.5 -247t-180.5 -177t-245 -64q-162 0 -262.5 100.5t-100.5 256.5zM356 985q0 -112 66.5 -183t177.5 -71q141 0 241.5 103.5t100.5 250.5q0 112 -65.5 183t-176.5 71q-143 0 -243.5 -103.5 t-100.5 -250.5z" />
<glyph unicode="&#xbb;" horiz-adv-x="876" d="M102 223l324 375l-188 377h151l195 -377l-320 -375h-162zM428 223l324 375l-189 377h152l192 -377l-317 -375h-162z" />
<glyph unicode="&#xbc;" horiz-adv-x="1615" d="M319 -84l1065 1602h154l-1065 -1602h-154zM377 1372l178 62h107l-136 -811h-131l113 677l-109 -38zM944 162l17 100l477 549h137l-88 -532h104l-20 -117h-105l-26 -162h-131l26 162h-391zM1104 279h252l59 364q-309 -364 -311 -364z" />
<glyph unicode="&#xbd;" horiz-adv-x="1636" d="M281 -84l1067 1602h149l-1067 -1602h-149zM377 1372l178 62h107l-136 -811h-131l113 677l-109 -38zM999 0l15 82q12 70 65 133t118.5 109t130 89t108 91.5t43.5 97.5q0 44 -31.5 74.5t-83.5 30.5q-94 0 -156 -107l-108 43q39 75 110.5 129.5t173.5 54.5q99 0 163.5 -59 t64.5 -145q0 -61 -31 -116.5t-78 -95t-103 -79.5t-105.5 -71.5t-86 -70t-43.5 -75.5h375l-18 -115h-523z" />
<glyph unicode="&#xbe;" horiz-adv-x="1728" d="M244 791l108 45q11 -45 47.5 -78t100.5 -33q71 0 119.5 44t48.5 120q0 119 -146 119h-76l17 100l223 209h-317l20 117h481l-16 -99l-248 -231q81 0 140 -56t59 -147q0 -134 -92 -214.5t-226 -80.5q-107 0 -166 54t-77 131zM434 -84l1065 1602h154l-1065 -1602h-154z M1026 162l16 100l478 549h137l-88 -532h104l-20 -117h-105l-26 -162h-131l26 162h-391zM1186 279h252l59 364q-309 -364 -311 -364z" />
<glyph unicode="&#xbf;" horiz-adv-x="956" d="M80 -16q0 78 24 145.5t63.5 116.5t87.5 92t98 80.5t92.5 74.5t73 82.5t38.5 94.5l14 90h162l-16 -96q-11 -64 -42.5 -119.5t-73 -96t-89.5 -79t-94 -75.5t-83 -77t-60 -93t-23 -114q0 -90 55.5 -145t155.5 -55q54 0 99 15.5t77.5 43.5t52.5 52.5t41 58.5l131 -58 q-25 -47 -57 -88t-82.5 -83t-124 -66.5t-160.5 -24.5q-156 0 -258 92t-102 232zM578 1016q0 54 38 92.5t93 38.5q44 0 74 -28.5t30 -71.5q0 -53 -40 -91t-95 -38q-44 0 -72 28t-28 70z" />
<glyph unicode="&#xc0;" horiz-adv-x="1292" d="M25 0l776 1434h168l297 -1434h-166l-94 465h-560l-249 -465h-172zM520 608h461l-125 643zM698 1815h174l99 -291h-137z" />
<glyph unicode="&#xc1;" horiz-adv-x="1292" d="M25 0l776 1434h168l297 -1434h-166l-94 465h-560l-249 -465h-172zM520 608h461l-125 643zM821 1524l189 291h184l-231 -291h-142z" />
<glyph unicode="&#xc2;" horiz-adv-x="1292" d="M25 0l776 1434h168l297 -1434h-166l-94 465h-560l-249 -465h-172zM520 608h461l-125 643zM623 1534l237 266h172l148 -266h-152l-94 168l-154 -168h-157z" />
<glyph unicode="&#xc3;" horiz-adv-x="1292" d="M25 0l776 1434h168l297 -1434h-166l-94 465h-560l-249 -465h-172zM520 608h461l-125 643zM584 1554q17 97 81 156t150 59q44 0 88.5 -22.5t83 -45t68.5 -22.5q34 0 58.5 24.5t33.5 65.5h117q-17 -98 -79 -157.5t-147 -59.5q-36 0 -71.5 14.5t-60 32t-55 32t-56.5 14.5 q-33 0 -57 -24.5t-33 -66.5h-121z" />
<glyph unicode="&#xc4;" horiz-adv-x="1292" d="M25 0l776 1434h168l297 -1434h-166l-94 465h-560l-249 -465h-172zM520 608h461l-125 643zM655 1649q0 46 36 81t83 35q39 0 63.5 -25.5t24.5 -62.5q0 -47 -35 -81.5t-84 -34.5q-38 0 -63 25.5t-25 62.5zM991 1649q0 46 35 81t84 35q38 0 63 -26t25 -62q0 -47 -35.5 -81.5 t-83.5 -34.5q-39 0 -63.5 25.5t-24.5 62.5z" />
<glyph unicode="&#xc5;" horiz-adv-x="1292" d="M25 0l776 1434h168l297 -1434h-166l-94 465h-560l-249 -465h-172zM520 608h461l-125 643zM741 1667q0 87 63 146t152 59q73 0 116.5 -41.5t43.5 -108.5q0 -87 -63.5 -146.5t-153.5 -59.5q-71 0 -114.5 42t-43.5 109zM842 1679q0 -33 19 -52t52 -19q45 0 73 28.5t28 73.5 q0 32 -19 51t-55 19q-41 0 -69.5 -29t-28.5 -72z" />
<glyph unicode="&#xc6;" horiz-adv-x="1660" d="M16 0l961 1434h795l-25 -152h-514l-80 -477h449l-25 -150h-449l-86 -505h535l-25 -150h-700l78 465h-426l-305 -465h-183zM596 608h358l113 674h-31z" />
<glyph unicode="&#xc7;" horiz-adv-x="1343" d="M188 604q0 175 71 334.5t189 273t275.5 181t325.5 67.5q144 0 248.5 -44.5t168.5 -104.5l-77 -148q-32 30 -73 58t-122 56t-168 28q-131 0 -253.5 -54t-212.5 -144.5t-144 -217.5t-54 -266q0 -217 128 -355.5t344 -138.5q217 0 432 160l26 -152q-43 -33 -101 -65.5 t-167.5 -65.5t-220.5 -33h-31l-20 -69q65 -6 101 -46.5t36 -101.5q0 -108 -77 -162.5t-189 -54.5q-54 0 -84 10l36 105q31 -6 60 -6q131 0 131 96q0 35 -28 53.5t-76 18.5l-41 -4l51 174q-222 40 -353 208.5t-131 409.5z" />
<glyph unicode="&#xc8;" horiz-adv-x="970" d="M162 0l239 1434h680l-24 -152h-514l-80 -477h448l-24 -150h-449l-86 -505h537l-25 -150h-702zM602 1815h174l98 -291h-137z" />
<glyph unicode="&#xc9;" horiz-adv-x="970" d="M162 0l239 1434h680l-24 -152h-514l-80 -477h448l-24 -150h-449l-86 -505h537l-25 -150h-702zM674 1524l188 291h185l-232 -291h-141z" />
<glyph unicode="&#xca;" horiz-adv-x="970" d="M162 0l239 1434h680l-24 -152h-514l-80 -477h448l-24 -150h-449l-86 -505h537l-25 -150h-702zM492 1534l237 266h172l148 -266h-152l-94 168l-154 -168h-157z" />
<glyph unicode="&#xcb;" horiz-adv-x="970" d="M162 0l239 1434h680l-24 -152h-514l-80 -477h448l-24 -150h-449l-86 -505h537l-25 -150h-702zM532 1649q0 46 36 81t83 35q39 0 63.5 -25.5t24.5 -62.5q0 -48 -34.5 -82t-83.5 -34q-38 0 -63.5 25.5t-25.5 62.5zM868 1649q0 46 35 81t84 35q38 0 63 -26t25 -62 q0 -47 -35.5 -81.5t-83.5 -34.5q-39 0 -63.5 25.5t-24.5 62.5z" />
<glyph unicode="&#xcc;" horiz-adv-x="489" d="M162 0l239 1434h166l-239 -1434h-166zM317 1815h175l98 -291h-137z" />
<glyph unicode="&#xcd;" horiz-adv-x="489" d="M162 0l239 1434h166l-239 -1434h-166zM412 1524l188 291h184l-231 -291h-141z" />
<glyph unicode="&#xce;" horiz-adv-x="489" d="M162 0l239 1434h166l-239 -1434h-166zM229 1534l238 266h172l147 -266h-151l-94 168l-154 -168h-158z" />
<glyph unicode="&#xcf;" horiz-adv-x="489" d="M162 0l239 1434h166l-239 -1434h-166zM262 1649q0 46 36 81t83 35q39 0 63.5 -25.5t24.5 -62.5q0 -47 -35 -81.5t-84 -34.5q-38 0 -63 25.5t-25 62.5zM598 1649q0 46 35 81t84 35q38 0 63 -26t25 -62q0 -47 -35.5 -81.5t-83.5 -34.5q-39 0 -63.5 25.5t-24.5 62.5z" />
<glyph unicode="&#xd0;" horiz-adv-x="1310" d="M158 651l24 148h119l107 635h297q318 0 489.5 -155t171.5 -433q0 -402 -242 -624t-659 -222h-297l108 651h-118zM358 147h164q304 0 487 179t183 495q0 218 -126.5 340.5t-352.5 122.5h-164l-82 -485h297l-25 -148h-297z" />
<glyph unicode="&#xd1;" horiz-adv-x="1441" d="M160 0l239 1434h166l594 -1172l197 1172h164l-240 -1434h-164l-596 1167l-194 -1167h-166zM664 1554q17 97 81 156t150 59q44 0 88.5 -22.5t83 -45t68.5 -22.5q34 0 58.5 24.5t33.5 65.5h116q-17 -98 -78.5 -157.5t-146.5 -59.5q-45 0 -89 23t-83 46.5t-72 23.5 t-57 -24.5t-33 -66.5h-120z" />
<glyph unicode="&#xd2;" horiz-adv-x="1619" d="M186 604q0 175 71 334.5t188.5 273t277 181t330.5 67.5q183 0 324.5 -83.5t217.5 -228t76 -323.5q0 -139 -45 -269.5t-127 -235t-189.5 -183.5t-238.5 -121.5t-268 -42.5q-182 0 -323.5 81.5t-217.5 225t-76 324.5zM360 625q0 -218 130 -357t341 -139q175 0 328 88.5 t245.5 245.5t92.5 344q0 217 -130 357.5t-339 140.5q-132 0 -254.5 -53t-213.5 -143.5t-145.5 -217t-54.5 -266.5zM874 1815h175l98 -291h-137z" />
<glyph unicode="&#xd3;" horiz-adv-x="1619" d="M186 604q0 175 71 334.5t188.5 273t277 181t330.5 67.5q183 0 324.5 -83.5t217.5 -228t76 -323.5q0 -139 -45 -269.5t-127 -235t-189.5 -183.5t-238.5 -121.5t-268 -42.5q-182 0 -323.5 81.5t-217.5 225t-76 324.5zM360 625q0 -218 130 -357t341 -139q175 0 328 88.5 t245.5 245.5t92.5 344q0 217 -130 357.5t-339 140.5q-132 0 -254.5 -53t-213.5 -143.5t-145.5 -217t-54.5 -266.5zM963 1524l188 291h184l-231 -291h-141z" />
<glyph unicode="&#xd4;" horiz-adv-x="1619" d="M186 604q0 175 71 334.5t188.5 273t277 181t330.5 67.5q183 0 324.5 -83.5t217.5 -228t76 -323.5q0 -139 -45 -269.5t-127 -235t-189.5 -183.5t-238.5 -121.5t-268 -42.5q-182 0 -323.5 81.5t-217.5 225t-76 324.5zM360 625q0 -218 130 -357t341 -139q175 0 328 88.5 t245.5 245.5t92.5 344q0 217 -130 357.5t-339 140.5q-132 0 -254.5 -53t-213.5 -143.5t-145.5 -217t-54.5 -266.5zM784 1534l238 266h172l147 -266h-151l-94 168l-154 -168h-158z" />
<glyph unicode="&#xd5;" horiz-adv-x="1619" d="M186 604q0 175 71 334.5t188.5 273t277 181t330.5 67.5q183 0 324.5 -83.5t217.5 -228t76 -323.5q0 -139 -45 -269.5t-127 -235t-189.5 -183.5t-238.5 -121.5t-268 -42.5q-182 0 -323.5 81.5t-217.5 225t-76 324.5zM360 625q0 -218 130 -357t341 -139q175 0 328 88.5 t245.5 245.5t92.5 344q0 217 -130 357.5t-339 140.5q-132 0 -254.5 -53t-213.5 -143.5t-145.5 -217t-54.5 -266.5zM752 1554q17 97 81 156t150 59q44 0 88.5 -22.5t83 -45t68.5 -22.5q34 0 58.5 24.5t33.5 65.5h117q-17 -98 -79 -157.5t-147 -59.5q-36 0 -71.5 14.5t-60 32 t-55 32t-56.5 14.5q-33 0 -57.5 -24.5t-33.5 -66.5h-120z" />
<glyph unicode="&#xd6;" horiz-adv-x="1619" d="M186 604q0 175 71 334.5t188.5 273t277 181t330.5 67.5q183 0 324.5 -83.5t217.5 -228t76 -323.5q0 -139 -45 -269.5t-127 -235t-189.5 -183.5t-238.5 -121.5t-268 -42.5q-182 0 -323.5 81.5t-217.5 225t-76 324.5zM360 625q0 -218 130 -357t341 -139q175 0 328 88.5 t245.5 245.5t92.5 344q0 217 -130 357.5t-339 140.5q-132 0 -254.5 -53t-213.5 -143.5t-145.5 -217t-54.5 -266.5zM819 1649q0 46 36 81t83 35q39 0 63.5 -25.5t24.5 -62.5q0 -47 -35 -81.5t-84 -34.5q-38 0 -63 25.5t-25 62.5zM1155 1649q0 46 35 81t84 35q38 0 63 -26 t25 -62q0 -47 -35.5 -81.5t-83.5 -34.5q-39 0 -63.5 25.5t-24.5 62.5z" />
<glyph unicode="&#xd7;" horiz-adv-x="1087" d="M125 262l420 381l-279 367l113 98l276 -365l410 371l92 -102l-416 -379l291 -381l-112 -96l-289 376l-412 -374z" />
<glyph unicode="&#xd8;" horiz-adv-x="1619" d="M186 604q0 175 71 334.5t188.5 273t277 181t330.5 67.5q223 0 383 -125l131 138l90 -82l-133 -140q147 -174 147 -426q0 -139 -45 -269.5t-127 -235t-189.5 -183.5t-238.5 -121.5t-268 -42.5q-228 0 -383 121l-129 -135l-90 82l131 137q-146 169 -146 426zM360 625 q0 -182 97 -316l860 901q-126 95 -289 95q-132 0 -254.5 -53t-213.5 -143.5t-145.5 -217t-54.5 -266.5zM541 221q122 -92 290 -92q175 0 328 88.5t245.5 245.5t92.5 344q0 183 -96 315z" />
<glyph unicode="&#xd9;" horiz-adv-x="1376" d="M240 514l153 920h166l-153 -918q-30 -182 47.5 -285.5t255.5 -103.5q179 0 292 104t144 287l153 916h164l-153 -918q-41 -249 -203 -396t-416 -147q-255 0 -373.5 146.5t-76.5 394.5zM774 1815h174l99 -291h-138z" />
<glyph unicode="&#xda;" horiz-adv-x="1376" d="M240 514l153 920h166l-153 -918q-30 -182 47.5 -285.5t255.5 -103.5q179 0 292 104t144 287l153 916h164l-153 -918q-41 -249 -203 -396t-416 -147q-255 0 -373.5 146.5t-76.5 394.5zM848 1524l188 291h185l-232 -291h-141z" />
<glyph unicode="&#xdb;" horiz-adv-x="1376" d="M240 514l153 920h166l-153 -918q-30 -182 47.5 -285.5t255.5 -103.5q179 0 292 104t144 287l153 916h164l-153 -918q-41 -249 -203 -396t-416 -147q-255 0 -373.5 146.5t-76.5 394.5zM666 1534l237 266h172l148 -266h-152l-94 168l-154 -168h-157z" />
<glyph unicode="&#xdc;" horiz-adv-x="1376" d="M240 514l153 920h166l-153 -918q-30 -182 47.5 -285.5t255.5 -103.5q179 0 292 104t144 287l153 916h164l-153 -918q-41 -249 -203 -396t-416 -147q-255 0 -373.5 146.5t-76.5 394.5zM698 1649q0 46 36 81t83 35q39 0 63.5 -25.5t24.5 -62.5q0 -47 -35 -81.5t-84 -34.5 q-38 0 -63 25.5t-25 62.5zM1034 1649q0 46 35 81t84 35q38 0 63 -26t25 -62q0 -47 -35.5 -81.5t-83.5 -34.5q-39 0 -63.5 25.5t-24.5 62.5z" />
<glyph unicode="&#xdd;" horiz-adv-x="1089" d="M260 1434h174l242 -607l446 607h189l-572 -762l-112 -672h-164l115 672zM715 1524l188 291h184l-231 -291h-141z" />
<glyph unicode="&#xde;" horiz-adv-x="1050" d="M162 0l239 1434h166l-47 -281h236q172 0 269 -89.5t97 -250.5q0 -146 -67.5 -259t-182 -172.5t-256.5 -59.5h-235l-53 -322h-166zM406 467h221q146 0 234.5 89t88.5 232q0 103 -60 160.5t-173 57.5h-221z" />
<glyph unicode="&#xdf;" horiz-adv-x="1101" d="M135 0l189 1120q30 180 146 267.5t292 87.5q148 0 234.5 -77t86.5 -188q0 -113 -59.5 -189t-151.5 -114q123 -45 189.5 -135.5t66.5 -218.5q0 -135 -51 -242t-139.5 -174t-204 -102t-248.5 -35l25 143q61 0 121 12t120.5 41.5t106.5 73.5t74.5 112.5t28.5 152.5 q0 91 -48.5 157.5t-123.5 97.5t-166 31l24 142q65 0 123 21.5t100.5 72.5t42.5 123q0 69 -47 109t-127 40q-216 0 -258 -237l-182 -1092h-164z" />
<glyph unicode="&#xe0;" horiz-adv-x="1044" d="M119 279q0 112 63 203.5t171.5 143.5t238.5 52q94 0 164 -29t100 -67l23 131q19 111 -40.5 173t-179.5 62q-146 0 -325 -94l-47 123q199 115 403 115q200 0 289 -107t59 -283l-116 -702h-140l-4 90q-123 -117 -307 -117q-157 0 -254.5 86t-97.5 220zM287 301 q0 -84 62.5 -138t170.5 -54q130 0 217.5 71.5t87.5 179.5q0 86 -63 137.5t-170 51.5q-132 0 -218.5 -72t-86.5 -176zM549 1485h174l98 -291h-137z" />
<glyph unicode="&#xe1;" horiz-adv-x="1044" d="M119 279q0 112 63 203.5t171.5 143.5t238.5 52q94 0 164 -29t100 -67l23 131q19 111 -40.5 173t-179.5 62q-146 0 -325 -94l-47 123q199 115 403 115q200 0 289 -107t59 -283l-116 -702h-140l-4 90q-123 -117 -307 -117q-157 0 -254.5 86t-97.5 220zM287 301 q0 -84 62.5 -138t170.5 -54q130 0 217.5 71.5t87.5 179.5q0 86 -63 137.5t-170 51.5q-132 0 -218.5 -72t-86.5 -176zM625 1194l188 291h184l-231 -291h-141z" />
<glyph unicode="&#xe2;" horiz-adv-x="1044" d="M119 279q0 112 63 203.5t171.5 143.5t238.5 52q94 0 164 -29t100 -67l23 131q19 111 -40.5 173t-179.5 62q-146 0 -325 -94l-47 123q199 115 403 115q200 0 289 -107t59 -283l-116 -702h-140l-4 90q-123 -117 -307 -117q-157 0 -254.5 86t-97.5 220zM287 301 q0 -84 62.5 -138t170.5 -54q130 0 217.5 71.5t87.5 179.5q0 86 -63 137.5t-170 51.5q-132 0 -218.5 -72t-86.5 -176zM444 1217l238 266h172l147 -266h-151l-94 167l-154 -167h-158z" />
<glyph unicode="&#xe3;" horiz-adv-x="1044" d="M119 279q0 112 63 203.5t171.5 143.5t238.5 52q94 0 164 -29t100 -67l23 131q19 111 -40.5 173t-179.5 62q-146 0 -325 -94l-47 123q199 115 403 115q200 0 289 -107t59 -283l-116 -702h-140l-4 90q-123 -117 -307 -117q-157 0 -254.5 86t-97.5 220zM287 301 q0 -84 62.5 -138t170.5 -54q130 0 217.5 71.5t87.5 179.5q0 86 -63 137.5t-170 51.5q-132 0 -218.5 -72t-86.5 -176zM401 1233q17 97 81.5 156t150.5 59q44 0 88 -22.5t82.5 -45t68.5 -22.5q34 0 59 24.5t34 65.5h116q-17 -98 -78.5 -157.5t-146.5 -59.5q-45 0 -89 23 t-83 46t-72 23t-57 -24t-33 -66h-121z" />
<glyph unicode="&#xe4;" horiz-adv-x="1044" d="M119 279q0 112 63 203.5t171.5 143.5t238.5 52q94 0 164 -29t100 -67l23 131q19 111 -40.5 173t-179.5 62q-146 0 -325 -94l-47 123q199 115 403 115q200 0 289 -107t59 -283l-116 -702h-140l-4 90q-123 -117 -307 -117q-157 0 -254.5 86t-97.5 220zM287 301 q0 -84 62.5 -138t170.5 -54q130 0 217.5 71.5t87.5 179.5q0 86 -63 137.5t-170 51.5q-132 0 -218.5 -72t-86.5 -176zM485 1323q0 46 36 81.5t83 35.5q39 0 63.5 -25.5t24.5 -62.5q0 -48 -35 -82.5t-84 -34.5q-38 0 -63 25.5t-25 62.5zM821 1323q0 46 35 81.5t84 35.5 q38 0 63 -26t25 -62q0 -47 -36 -82t-83 -35q-39 0 -63.5 25.5t-24.5 62.5z" />
<glyph unicode="&#xe5;" horiz-adv-x="1044" d="M119 279q0 112 63 203.5t171.5 143.5t238.5 52q94 0 164 -29t100 -67l23 131q19 111 -40.5 173t-179.5 62q-146 0 -325 -94l-47 123q199 115 403 115q200 0 289 -107t59 -283l-116 -702h-140l-4 90q-123 -117 -307 -117q-157 0 -254.5 86t-97.5 220zM287 301 q0 -84 62.5 -138t170.5 -54q130 0 217.5 71.5t87.5 179.5q0 86 -63 137.5t-170 51.5q-132 0 -218.5 -72t-86.5 -176zM565 1333q0 87 63 146t152 59q73 0 116.5 -41t43.5 -108q0 -87 -63.5 -147t-153.5 -60q-71 0 -114.5 42t-43.5 109zM666 1346q0 -33 19 -52.5t52 -19.5 q45 0 73 28.5t28 73.5q0 32 -19 51t-55 19q-41 0 -69.5 -28.5t-28.5 -71.5z" />
<glyph unicode="&#xe6;" horiz-adv-x="1841" d="M119 279q0 112 63 203.5t171.5 143.5t238.5 52q94 0 164 -29t100 -67l23 131q19 111 -40.5 173t-179.5 62q-146 0 -325 -94l-47 123q199 115 411 115q142 0 222.5 -54.5t101.5 -152.5q85 99 197 153t233 54q232 0 344 -151.5t72 -393.5l-8 -49h-854q-29 -176 59.5 -278.5 t257.5 -102.5q213 0 358 166l99 -80q-69 -91 -194.5 -160.5t-289.5 -69.5q-150 0 -256.5 59t-152.5 169q-54 -95 -161 -161.5t-255 -66.5q-157 0 -254.5 86t-97.5 220zM287 301q0 -84 62.5 -138t170.5 -54q129 0 215 72t86 181q0 85 -61.5 136t-167.5 51q-132 0 -218.5 -72 t-86.5 -176zM1032 618h682q19 159 -63 246.5t-221 87.5q-87 0 -167 -38t-142.5 -115t-88.5 -181z" />
<glyph unicode="&#xe7;" horiz-adv-x="1048" d="M147 453q0 130 51 248.5t137 204t203.5 136t245.5 50.5q129 0 220.5 -45.5t140.5 -100.5l-78 -139q-17 21 -39.5 40.5t-59 43t-87 37.5t-107.5 14q-93 0 -177.5 -37.5t-145.5 -101t-97.5 -151t-36.5 -183.5q0 -150 90 -249t234 -99q179 0 340 141l29 -145 q-184 -144 -402 -144l-20 -69q65 -6 101 -46.5t36 -101.5q0 -108 -77 -162.5t-189 -54.5q-54 0 -84 10l37 105q30 -6 59 -6q131 0 131 96q0 35 -28 53.5t-76 18.5l-41 -4l51 172q-166 32 -263.5 160.5t-97.5 308.5z" />
<glyph unicode="&#xe8;" horiz-adv-x="1157" d="M150 438q0 178 81 328.5t220.5 238t304.5 87.5q209 0 322.5 -119t113.5 -320q0 -67 -21 -155h-852q-29 -175 61 -278t259 -103q213 0 358 166l99 -80q-69 -91 -194.5 -160.5t-289.5 -69.5q-213 0 -337.5 128t-124.5 337zM344 618h686q19 159 -63.5 246.5t-221.5 87.5 q-146 0 -257.5 -92t-143.5 -242zM614 1485h174l99 -291h-137z" />
<glyph unicode="&#xe9;" horiz-adv-x="1157" d="M150 438q0 178 81 328.5t220.5 238t304.5 87.5q209 0 322.5 -119t113.5 -320q0 -67 -21 -155h-852q-29 -175 61 -278t259 -103q213 0 358 166l99 -80q-69 -91 -194.5 -160.5t-289.5 -69.5q-213 0 -337.5 128t-124.5 337zM344 618h686q19 159 -63.5 246.5t-221.5 87.5 q-146 0 -257.5 -92t-143.5 -242zM684 1194l188 291h185l-232 -291h-141z" />
<glyph unicode="&#xea;" horiz-adv-x="1157" d="M150 438q0 178 81 328.5t220.5 238t304.5 87.5q209 0 322.5 -119t113.5 -320q0 -67 -21 -155h-852q-29 -175 61 -278t259 -103q213 0 358 166l99 -80q-69 -91 -194.5 -160.5t-289.5 -69.5q-213 0 -337.5 128t-124.5 337zM344 618h686q19 159 -63.5 246.5t-221.5 87.5 q-146 0 -257.5 -92t-143.5 -242zM512 1217l238 266h172l147 -266h-151l-95 167l-153 -167h-158z" />
<glyph unicode="&#xeb;" horiz-adv-x="1157" d="M150 438q0 178 81 328.5t220.5 238t304.5 87.5q209 0 322.5 -119t113.5 -320q0 -67 -21 -155h-852q-29 -175 61 -278t259 -103q213 0 358 166l99 -80q-69 -91 -194.5 -160.5t-289.5 -69.5q-213 0 -337.5 128t-124.5 337zM344 618h686q19 159 -63.5 246.5t-221.5 87.5 q-146 0 -257.5 -92t-143.5 -242zM545 1323q0 46 36 81.5t83 35.5q39 0 63.5 -25.5t24.5 -62.5q0 -48 -35 -82.5t-84 -34.5q-38 0 -63 25.5t-25 62.5zM881 1323q0 47 34.5 82t83.5 35q38 0 63 -26t25 -62q0 -47 -35.5 -82t-82.5 -35q-39 0 -63.5 25.5t-24.5 62.5z" />
<glyph unicode="&#xec;" d="M139 0l178 1065h162l-178 -1065h-162zM238 1485h174l98 -291h-137z" />
<glyph unicode="&#xed;" d="M139 0l178 1065h162l-178 -1065h-162zM328 1194l188 291h184l-231 -291h-141z" />
<glyph unicode="&#xee;" d="M139 0l178 1065h162l-178 -1065h-162zM150 1217l237 266h172l148 -266h-152l-94 167l-154 -167h-157z" />
<glyph unicode="&#xef;" d="M139 0l178 1065h162l-178 -1065h-162zM176 1323q0 46 36 81.5t83 35.5q39 0 63.5 -25.5t24.5 -62.5q0 -48 -35 -82.5t-84 -34.5q-38 0 -63 25.5t-25 62.5zM512 1323q0 46 35 81.5t84 35.5q38 0 63 -26t25 -62q0 -47 -36 -82t-83 -35q-39 0 -63.5 25.5t-24.5 62.5z" />
<glyph unicode="&#xf0;" horiz-adv-x="1210" d="M147 426q0 165 83 303.5t224.5 218.5t309.5 80q74 0 132.5 -19t90.5 -44q-33 65 -88 130.5t-100 98.5l-355 -129v119l261 96q-79 64 -201 135l112 80q125 -60 252 -158l271 99v-119l-181 -68q133 -122 204 -280t71 -316q0 -135 -44 -257.5t-124 -216.5t-203 -150 t-272 -56q-202 0 -322.5 128.5t-120.5 324.5zM315 444q0 -140 80.5 -232.5t220.5 -92.5q104 0 190 41t140 107.5t83.5 148.5t29.5 168q0 132 -83.5 219.5t-225.5 87.5q-128 0 -229 -63t-153.5 -164t-52.5 -220z" />
<glyph unicode="&#xf1;" horiz-adv-x="1122" d="M139 0l178 1065h160l-26 -154q54 77 148.5 129t199.5 52q121 0 197 -56.5t101.5 -151.5t4.5 -218l-111 -666h-162l113 672q21 125 -37.5 198.5t-169.5 73.5q-123 0 -213 -82.5t-112 -214.5l-109 -647h-162zM449 1233q17 97 81 156t150 59q44 0 88.5 -22.5t83 -45 t68.5 -22.5q34 0 58.5 24.5t33.5 65.5h116q-17 -98 -78.5 -157.5t-146.5 -59.5q-45 0 -89 23t-83 46t-72 23t-57 -24t-33 -66h-120z" />
<glyph unicode="&#xf2;" horiz-adv-x="1247" d="M147 446q0 178 91.5 327.5t243 234t325.5 84.5q212 0 341.5 -134t129.5 -342q0 -176 -90.5 -324.5t-242 -233.5t-327.5 -85q-212 0 -341.5 132.5t-129.5 340.5zM315 465q0 -153 89.5 -248.5t238.5 -95.5q194 0 331.5 138.5t137.5 338.5q0 152 -91 249t-241 97 q-127 0 -234 -64t-169 -174t-62 -241zM627 1485h174l98 -291h-137z" />
<glyph unicode="&#xf3;" horiz-adv-x="1247" d="M147 446q0 178 91.5 327.5t243 234t325.5 84.5q212 0 341.5 -134t129.5 -342q0 -176 -90.5 -324.5t-242 -233.5t-327.5 -85q-212 0 -341.5 132.5t-129.5 340.5zM315 465q0 -153 89.5 -248.5t238.5 -95.5q194 0 331.5 138.5t137.5 338.5q0 152 -91 249t-241 97 q-127 0 -234 -64t-169 -174t-62 -241zM723 1194l188 291h185l-232 -291h-141z" />
<glyph unicode="&#xf4;" horiz-adv-x="1247" d="M147 446q0 178 91.5 327.5t243 234t325.5 84.5q212 0 341.5 -134t129.5 -342q0 -176 -90.5 -324.5t-242 -233.5t-327.5 -85q-212 0 -341.5 132.5t-129.5 340.5zM315 465q0 -153 89.5 -248.5t238.5 -95.5q194 0 331.5 138.5t137.5 338.5q0 152 -91 249t-241 97 q-127 0 -234 -64t-169 -174t-62 -241zM553 1217l238 266h172l147 -266h-152l-94 167l-153 -167h-158z" />
<glyph unicode="&#xf5;" horiz-adv-x="1247" d="M147 446q0 178 91.5 327.5t243 234t325.5 84.5q212 0 341.5 -134t129.5 -342q0 -176 -90.5 -324.5t-242 -233.5t-327.5 -85q-212 0 -341.5 132.5t-129.5 340.5zM315 465q0 -153 89.5 -248.5t238.5 -95.5q194 0 331.5 138.5t137.5 338.5q0 152 -91 249t-241 97 q-127 0 -234 -64t-169 -174t-62 -241zM514 1233q17 97 81 156t150 59q44 0 88.5 -22.5t83 -45t68.5 -22.5q34 0 58.5 24.5t33.5 65.5h117q-17 -98 -78.5 -157.5t-146.5 -59.5q-45 0 -89 23t-83 46t-72 23t-57 -24t-33 -66h-121z" />
<glyph unicode="&#xf6;" horiz-adv-x="1247" d="M147 446q0 178 91.5 327.5t243 234t325.5 84.5q212 0 341.5 -134t129.5 -342q0 -176 -90.5 -324.5t-242 -233.5t-327.5 -85q-212 0 -341.5 132.5t-129.5 340.5zM315 465q0 -153 89.5 -248.5t238.5 -95.5q194 0 331.5 138.5t137.5 338.5q0 152 -91 249t-241 97 q-127 0 -234 -64t-169 -174t-62 -241zM584 1323q0 46 35.5 81.5t82.5 35.5q39 0 64 -25.5t25 -62.5q0 -48 -35 -82.5t-84 -34.5q-38 0 -63 25.5t-25 62.5zM920 1323q0 47 34.5 82t83.5 35q38 0 63 -26t25 -62q0 -47 -35.5 -82t-82.5 -35q-39 0 -63.5 25.5t-24.5 62.5z" />
<glyph unicode="&#xf7;" horiz-adv-x="1126" d="M178 569l23 138h962l-22 -138h-963zM506 268q0 46 38 81.5t85 35.5q38 0 62 -25.5t24 -64.5q0 -46 -37 -81.5t-84 -35.5q-38 0 -63 26.5t-25 63.5zM625 979q0 47 37.5 83t85.5 36q38 0 62 -25.5t24 -64.5q0 -47 -36.5 -82t-84.5 -35q-38 0 -63 25.5t-25 62.5z" />
<glyph unicode="&#xf8;" horiz-adv-x="1249" d="M147 446q0 178 91.5 327.5t243 234t325.5 84.5q168 0 287 -86l96 100l82 -76l-96 -102q102 -127 102 -312q0 -176 -90.5 -324.5t-242 -233.5t-327.5 -85q-158 0 -276 78l-96 -100l-82 74l94 100q-111 126 -111 321zM315 465q0 -124 62 -215l602 633q-83 61 -199 61 q-127 0 -234 -64t-169 -174t-62 -241zM457 172q79 -51 186 -51q194 0 331.5 138.5t137.5 338.5q0 117 -57 205z" />
<glyph unicode="&#xf9;" horiz-adv-x="1112" d="M197 399l110 666h162l-113 -672q-21 -125 38 -198.5t169 -73.5q123 0 213.5 82.5t112.5 214.5l108 647h164l-178 -1065h-162l27 154q-52 -76 -147 -128.5t-199 -52.5q-180 0 -258.5 118.5t-46.5 307.5zM598 1485h174l98 -291h-137z" />
<glyph unicode="&#xfa;" horiz-adv-x="1112" d="M197 399l110 666h162l-113 -672q-21 -125 38 -198.5t169 -73.5q123 0 213.5 82.5t112.5 214.5l108 647h164l-178 -1065h-162l27 154q-52 -76 -147 -128.5t-199 -52.5q-180 0 -258.5 118.5t-46.5 307.5zM662 1194l188 291h184l-231 -291h-141z" />
<glyph unicode="&#xfb;" horiz-adv-x="1112" d="M197 399l110 666h162l-113 -672q-21 -125 38 -198.5t169 -73.5q123 0 213.5 82.5t112.5 214.5l108 647h164l-178 -1065h-162l27 154q-52 -76 -147 -128.5t-199 -52.5q-180 0 -258.5 118.5t-46.5 307.5zM483 1217l238 266h172l147 -266h-151l-94 167l-154 -167h-158z" />
<glyph unicode="&#xfc;" horiz-adv-x="1112" d="M197 399l110 666h162l-113 -672q-21 -125 38 -198.5t169 -73.5q123 0 213.5 82.5t112.5 214.5l108 647h164l-178 -1065h-162l27 154q-52 -76 -147 -128.5t-199 -52.5q-180 0 -258.5 118.5t-46.5 307.5zM520 1323q0 46 36 81.5t83 35.5q39 0 63.5 -25.5t24.5 -62.5 q0 -48 -35 -82.5t-84 -34.5q-38 0 -63 25.5t-25 62.5zM856 1323q0 46 35 81.5t84 35.5q38 0 63 -26t25 -62q0 -47 -36 -82t-83 -35q-39 0 -63.5 25.5t-24.5 62.5z" />
<glyph unicode="&#xfd;" horiz-adv-x="1040" d="M190 1065h172l193 -862l473 862h176l-811 -1432h-168l221 377zM631 1194l188 291h185l-232 -291h-141z" />
<glyph unicode="&#xfe;" horiz-adv-x="1255" d="M76 -383l311 1864h162l-96 -580q172 191 395 191q199 0 318.5 -129.5t119.5 -335.5q0 -137 -48 -258.5t-129.5 -208t-195 -137t-239.5 -50.5q-63 0 -118.5 16t-92 38t-66 51.5t-44 51.5t-23.5 42l-92 -555h-162zM377 459q0 -157 84 -247.5t219 -90.5q118 0 218.5 63 t160 175.5t59.5 248.5q0 153 -84.5 244.5t-220.5 91.5q-123 0 -224 -67.5t-156.5 -178.5t-55.5 -239z" />
<glyph unicode="&#xff;" horiz-adv-x="1040" d="M190 1065h172l193 -862l473 862h176l-811 -1432h-168l221 377zM473 1323q0 46 36 81.5t83 35.5q39 0 63.5 -25.5t24.5 -62.5q0 -48 -35 -82.5t-84 -34.5q-38 0 -63 25.5t-25 62.5zM809 1323q0 46 35 81.5t84 35.5q38 0 63 -26t25 -62q0 -47 -36 -82t-83 -35 q-39 0 -63.5 25.5t-24.5 62.5z" />
<glyph unicode="&#x100;" horiz-adv-x="1292" d="M25 0l776 1434h168l297 -1434h-166l-94 465h-560l-249 -465h-172zM520 608h461l-125 643zM659 1567l23 129h496l-23 -129h-496z" />
<glyph unicode="&#x101;" horiz-adv-x="1044" d="M119 279q0 112 63 203.5t171.5 143.5t238.5 52q94 0 164 -29t100 -67l23 131q19 111 -40.5 173t-179.5 62q-146 0 -325 -94l-47 123q199 115 403 115q200 0 289 -107t59 -283l-116 -702h-140l-4 90q-123 -117 -307 -117q-157 0 -254.5 86t-97.5 220zM287 301 q0 -84 62.5 -138t170.5 -54q130 0 217.5 71.5t87.5 179.5q0 86 -63 137.5t-170 51.5q-132 0 -218.5 -72t-86.5 -176zM496 1288l22 129h496l-23 -129h-495z" />
<glyph unicode="&#x102;" horiz-adv-x="1292" d="M25 0l776 1434h168l297 -1434h-166l-94 465h-560l-249 -465h-172zM520 608h461l-125 643zM684 1788h129q-11 -65 14 -105.5t93 -40.5q125 0 151 146h133q-19 -118 -98 -188t-205 -70q-124 0 -180.5 73t-36.5 185z" />
<glyph unicode="&#x103;" horiz-adv-x="1044" d="M119 279q0 112 63 203.5t171.5 143.5t238.5 52q94 0 164 -29t100 -67l23 131q19 111 -40.5 173t-179.5 62q-146 0 -325 -94l-47 123q199 115 403 115q200 0 289 -107t59 -283l-116 -702h-140l-4 90q-123 -117 -307 -117q-157 0 -254.5 86t-97.5 220zM287 301 q0 -84 62.5 -138t170.5 -54q130 0 217.5 71.5t87.5 179.5q0 86 -63 137.5t-170 51.5q-132 0 -218.5 -72t-86.5 -176zM506 1460h129q-11 -65 13.5 -105t92.5 -40q66 0 103.5 40t48.5 105h133q-19 -118 -98 -188t-205 -70q-124 0 -180.5 73t-36.5 185z" />
<glyph unicode="&#x104;" horiz-adv-x="1292" d="M25 0l776 1434h168l297 -1434q-19 -6 -45 -21t-56 -38t-50.5 -56.5t-20.5 -68.5q0 -42 31 -63t77 -21l-20 -127q-16 -4 -49 -4q-80 0 -137.5 42.5t-57.5 120.5q0 81 60 145.5t130 90.5h-28l-94 465h-560l-249 -465h-172zM520 608h461l-125 643z" />
<glyph unicode="&#x105;" horiz-adv-x="1044" d="M119 279q0 112 63 203.5t171.5 143.5t238.5 52q94 0 164 -29t100 -67l23 131q19 111 -40.5 173t-179.5 62q-146 0 -325 -94l-47 123q199 115 403 115q200 0 289 -107t59 -283l-116 -702q-19 -6 -45 -21t-56 -38t-50.5 -56.5t-20.5 -68.5q0 -42 31 -63t77 -21l-20 -127 q-17 -4 -50 -4q-80 0 -137 42.5t-57 120.5q0 81 60 145.5t130 90.5l-6 90q-123 -117 -307 -117q-157 0 -254.5 86t-97.5 220zM287 301q0 -84 62.5 -138t170.5 -54q130 0 217.5 71.5t87.5 179.5q0 86 -63 137.5t-170 51.5q-132 0 -218.5 -72t-86.5 -176z" />
<glyph unicode="&#x106;" horiz-adv-x="1343" d="M188 604q0 175 71 334.5t189 273t275.5 181t325.5 67.5q144 0 248.5 -44.5t168.5 -104.5l-77 -148q-32 30 -73 58t-122 56t-168 28q-131 0 -253.5 -54t-212.5 -144.5t-144 -217.5t-54 -266q0 -217 128 -355.5t344 -138.5q217 0 432 160l26 -152q-43 -33 -101 -65.5 t-167.5 -65.5t-220.5 -33q-137 0 -253 48t-195 131.5t-123 200t-44 251.5zM922 1524l188 291h184l-231 -291h-141z" />
<glyph unicode="&#x107;" horiz-adv-x="1048" d="M147 453q0 130 51 248.5t137 204t203.5 136t245.5 50.5q129 0 220.5 -45.5t140.5 -100.5l-78 -139q-17 21 -39.5 40.5t-59 43t-87 37.5t-107.5 14q-93 0 -177.5 -37.5t-145.5 -101t-97.5 -151t-36.5 -183.5q0 -150 90 -249t234 -99q179 0 340 141l29 -145 q-184 -144 -400 -144q-208 0 -335.5 136.5t-127.5 343.5zM705 1194l188 291h184l-231 -291h-141z" />
<glyph unicode="&#x108;" horiz-adv-x="1343" d="M188 604q0 175 71 334.5t189 273t275.5 181t325.5 67.5q144 0 248.5 -44.5t168.5 -104.5l-77 -148q-32 30 -73 58t-122 56t-168 28q-131 0 -253.5 -54t-212.5 -144.5t-144 -217.5t-54 -266q0 -217 128 -355.5t344 -138.5q217 0 432 160l26 -152q-43 -33 -101 -65.5 t-167.5 -65.5t-220.5 -33q-137 0 -253 48t-195 131.5t-123 200t-44 251.5zM784 1534l238 266h172l147 -266h-151l-94 168l-154 -168h-158z" />
<glyph unicode="&#x109;" horiz-adv-x="1048" d="M147 453q0 130 51 248.5t137 204t203.5 136t245.5 50.5q129 0 220.5 -45.5t140.5 -100.5l-78 -139q-17 21 -39.5 40.5t-59 43t-87 37.5t-107.5 14q-93 0 -177.5 -37.5t-145.5 -101t-97.5 -151t-36.5 -183.5q0 -150 90 -249t234 -99q179 0 340 141l29 -145 q-184 -144 -400 -144q-208 0 -335.5 136.5t-127.5 343.5zM539 1217l237 266h172l148 -266h-152l-94 167l-154 -167h-157z" />
<glyph unicode="&#x10a;" horiz-adv-x="1343" d="M188 604q0 175 71 334.5t189 273t275.5 181t325.5 67.5q144 0 248.5 -44.5t168.5 -104.5l-77 -148q-32 30 -73 58t-122 56t-168 28q-131 0 -253.5 -54t-212.5 -144.5t-144 -217.5t-54 -266q0 -217 128 -355.5t344 -138.5q217 0 432 160l26 -152q-43 -33 -101 -65.5 t-167.5 -65.5t-220.5 -33q-137 0 -253 48t-195 131.5t-123 200t-44 251.5zM973 1642q0 52 38.5 89.5t90.5 37.5q42 0 69 -27t27 -69q0 -52 -40 -89.5t-93 -37.5q-41 0 -66.5 27t-25.5 69z" />
<glyph unicode="&#x10b;" horiz-adv-x="1048" d="M147 453q0 130 51 248.5t137 204t203.5 136t245.5 50.5q129 0 220.5 -45.5t140.5 -100.5l-78 -139q-17 21 -39.5 40.5t-59 43t-87 37.5t-107.5 14q-93 0 -177.5 -37.5t-145.5 -101t-97.5 -151t-36.5 -183.5q0 -150 90 -249t234 -99q179 0 340 141l29 -145 q-184 -144 -400 -144q-208 0 -335.5 136.5t-127.5 343.5zM727 1323q0 52 38.5 89.5t90.5 37.5q42 0 69 -27t27 -69q0 -52 -40 -89.5t-93 -37.5q-41 0 -66.5 27t-25.5 69z" />
<glyph unicode="&#x10c;" horiz-adv-x="1343" d="M188 604q0 175 71 334.5t189 273t275.5 181t325.5 67.5q144 0 248.5 -44.5t168.5 -104.5l-77 -148q-32 30 -73 58t-122 56t-168 28q-131 0 -253.5 -54t-212.5 -144.5t-144 -217.5t-54 -266q0 -217 128 -355.5t344 -138.5q217 0 432 160l26 -152q-43 -33 -101 -65.5 t-167.5 -65.5t-220.5 -33q-137 0 -253 48t-195 131.5t-123 200t-44 251.5zM823 1800h154l92 -168l156 168h155l-237 -266h-172z" />
<glyph unicode="&#x10d;" horiz-adv-x="1048" d="M147 453q0 130 51 248.5t137 204t203.5 136t245.5 50.5q129 0 220.5 -45.5t140.5 -100.5l-78 -139q-17 21 -39.5 40.5t-59 43t-87 37.5t-107.5 14q-93 0 -177.5 -37.5t-145.5 -101t-97.5 -151t-36.5 -183.5q0 -150 90 -249t234 -99q179 0 340 141l29 -145 q-184 -144 -400 -144q-208 0 -335.5 136.5t-127.5 343.5zM571 1483h154l92 -168l156 168h155l-237 -266h-172z" />
<glyph unicode="&#x10e;" horiz-adv-x="1304" d="M162 0l239 1434h295q319 0 490.5 -155t171.5 -433q0 -403 -241 -624.5t-660 -221.5h-295zM352 147h162q199 0 350 78.5t236.5 232t85.5 363.5q0 218 -127.5 340.5t-353.5 122.5h-162zM580 1800h153l92 -168l156 168h156l-238 -266h-172z" />
<glyph unicode="&#x10f;" horiz-adv-x="1259" d="M147 436q0 182 79.5 332.5t219.5 237t310 86.5q63 0 118.5 -15.5t92.5 -38.5t66.5 -51.5t44.5 -51.5t22 -42l98 588h164l-248 -1481h-158l29 168q-16 -19 -32.5 -36t-56 -48.5t-81 -53.5t-104 -39.5t-127.5 -17.5q-199 0 -318 128.5t-119 334.5zM315 455q0 -152 83 -244 t218 -92q124 0 225.5 67.5t157.5 179t56 240.5q0 157 -84 247.5t-217 90.5q-118 0 -218.5 -63.5t-160.5 -176.5t-60 -249zM1407 1133l72 348h168l-117 -348h-123z" />
<glyph unicode="&#x110;" horiz-adv-x="1304" d="M158 651l24 148h119l107 635h297q318 0 489.5 -155t171.5 -433q0 -402 -242 -624t-659 -222h-297l108 651h-118zM358 147h164q304 0 487 179t183 495q0 218 -126.5 340.5t-352.5 122.5h-164l-82 -485h297l-25 -148h-297z" />
<glyph unicode="&#x111;" horiz-adv-x="1253" d="M147 436q0 182 79.5 332.5t219.5 237t310 86.5q63 0 118.5 -15.5t92.5 -38.5t66.5 -51.5t44.5 -51.5t22 -42l51 305h-264l20 121h264l27 162h164l-27 -162h135l-20 -121h-135l-201 -1198h-158l29 168q-16 -19 -32.5 -36t-56 -48.5t-81 -53.5t-104 -39.5t-127.5 -17.5 q-199 0 -318 128.5t-119 334.5zM315 455q0 -152 83 -244t218 -92q124 0 225.5 67.5t157.5 179t56 240.5q0 157 -84 247.5t-217 90.5q-118 0 -218.5 -63.5t-160.5 -176.5t-60 -249z" />
<glyph unicode="&#x112;" horiz-adv-x="970" d="M162 0l239 1434h680l-24 -152h-514l-80 -477h448l-24 -150h-449l-86 -505h537l-25 -150h-702zM532 1567l23 129h496l-23 -129h-496z" />
<glyph unicode="&#x113;" horiz-adv-x="1157" d="M150 438q0 178 81 328.5t220.5 238t304.5 87.5q209 0 322.5 -119t113.5 -320q0 -67 -21 -155h-852q-29 -175 61 -278t259 -103q213 0 358 166l99 -80q-69 -91 -194.5 -160.5t-289.5 -69.5q-213 0 -337.5 128t-124.5 337zM344 618h686q19 159 -63.5 246.5t-221.5 87.5 q-146 0 -257.5 -92t-143.5 -242zM561 1288l23 129h495l-22 -129h-496z" />
<glyph unicode="&#x114;" horiz-adv-x="970" d="M162 0l239 1434h680l-24 -152h-514l-80 -477h448l-24 -150h-449l-86 -505h537l-25 -150h-702zM547 1788h129q-11 -65 13.5 -105.5t92.5 -40.5q126 0 152 146h133q-19 -118 -98 -188t-205 -70q-124 0 -180.5 73t-36.5 185z" />
<glyph unicode="&#x115;" horiz-adv-x="1157" d="M150 438q0 178 81 328.5t220.5 238t304.5 87.5q209 0 322.5 -119t113.5 -320q0 -67 -21 -155h-852q-29 -175 61 -278t259 -103q213 0 358 166l99 -80q-69 -91 -194.5 -160.5t-289.5 -69.5q-213 0 -337.5 128t-124.5 337zM344 618h686q19 159 -63.5 246.5t-221.5 87.5 q-146 0 -257.5 -92t-143.5 -242zM571 1460h129q-11 -65 14 -105t93 -40q66 0 103 39.5t48 105.5h134q-19 -118 -98.5 -188t-205.5 -70q-124 0 -180.5 73t-36.5 185z" />
<glyph unicode="&#x116;" horiz-adv-x="970" d="M162 0l239 1434h680l-24 -152h-514l-80 -477h448l-24 -150h-449l-86 -505h537l-25 -150h-702zM700 1642q0 52 38.5 89.5t90.5 37.5q43 0 70 -27.5t27 -68.5q0 -52 -40 -89.5t-93 -37.5q-41 0 -67 27t-26 69z" />
<glyph unicode="&#x117;" horiz-adv-x="1157" d="M150 438q0 178 81 328.5t220.5 238t304.5 87.5q209 0 322.5 -119t113.5 -320q0 -67 -21 -155h-852q-29 -175 61 -278t259 -103q213 0 358 166l99 -80q-69 -91 -194.5 -160.5t-289.5 -69.5q-213 0 -337.5 128t-124.5 337zM344 618h686q19 159 -63.5 246.5t-221.5 87.5 q-146 0 -257.5 -92t-143.5 -242zM705 1323q0 52 38.5 89.5t90.5 37.5q42 0 69 -27t27 -69q0 -52 -40 -89.5t-93 -37.5q-41 0 -66.5 27t-25.5 69z" />
<glyph unicode="&#x118;" horiz-adv-x="970" d="M162 0l239 1434h680l-24 -152h-514l-80 -477h448l-24 -150h-449l-86 -505h537l-25 -150q-19 -6 -45 -21t-56 -38t-50.5 -56.5t-20.5 -68.5q0 -42 31 -63t78 -21l-21 -127q-16 -4 -49 -4q-80 0 -137 42.5t-57 120.5q0 81 60 145.5t130 90.5h-565z" />
<glyph unicode="&#x119;" horiz-adv-x="1157" d="M150 438q0 178 81 328.5t220.5 238t304.5 87.5q209 0 322.5 -119t113.5 -320q0 -67 -21 -155h-852q-29 -175 61 -278t259 -103q213 0 358 166l99 -80q-49 -64 -128.5 -120.5t-181.5 -84.5q-31 -13 -65 -35t-66 -63t-32 -84q0 -42 31 -63t77 -21l-20 -127q-16 -4 -49 -4 q-80 0 -137.5 42.5t-57.5 120.5q0 66 39 120t96 89q-209 3 -330.5 130t-121.5 335zM344 618h686q19 159 -63.5 246.5t-221.5 87.5q-146 0 -257.5 -92t-143.5 -242z" />
<glyph unicode="&#x11a;" horiz-adv-x="970" d="M162 0l239 1434h680l-24 -152h-514l-80 -477h448l-24 -150h-449l-86 -505h537l-25 -150h-702zM555 1800h154l92 -168l155 168h156l-238 -266h-172z" />
<glyph unicode="&#x11b;" horiz-adv-x="1157" d="M150 438q0 178 81 328.5t220.5 238t304.5 87.5q209 0 322.5 -119t113.5 -320q0 -67 -21 -155h-852q-29 -175 61 -278t259 -103q213 0 358 166l99 -80q-69 -91 -194.5 -160.5t-289.5 -69.5q-213 0 -337.5 128t-124.5 337zM344 618h686q19 159 -63.5 246.5t-221.5 87.5 q-146 0 -257.5 -92t-143.5 -242zM557 1483h154l92 -168l155 168h156l-237 -266h-172z" />
<glyph unicode="&#x11c;" horiz-adv-x="1507" d="M186 598q0 175 69.5 334.5t185.5 275t275.5 184t332.5 68.5q101 0 187 -21t145.5 -56t96 -66.5t64.5 -65.5l-125 -110q-143 164 -391 164q-137 0 -260 -54t-211.5 -146.5t-140.5 -220t-52 -268.5q0 -218 127 -353.5t338 -135.5q81 0 158 16.5t133.5 43t92.5 49t61 43.5 l51 299h-319l24 145h479l-88 -520q-136 -118 -288 -174t-336 -56q-270 0 -439.5 174t-169.5 451zM788 1534l238 266h172l148 -266h-152l-94 168l-154 -168h-158z" />
<glyph unicode="&#x11d;" horiz-adv-x="1243" d="M145 434q0 183 81 334.5t221 237.5t309 86q63 0 118.5 -15.5t92.5 -38t67.5 -51.5t46 -51.5t25.5 -42.5l29 172h155l-157 -948q-85 -510 -611 -510q-101 0 -206 31t-169 75l80 127q26 -17 61.5 -34.5t104.5 -35.5t139 -18q165 0 284 80t147 242l16 94 q-21 -25 -46.5 -48.5t-77.5 -61.5t-125.5 -61.5t-154.5 -23.5q-197 0 -313.5 128t-116.5 333zM311 459q0 -153 83.5 -245.5t219.5 -92.5q122 0 223.5 66t158.5 177t57 242q0 156 -83.5 247t-219.5 91q-180 0 -309.5 -139.5t-129.5 -345.5zM543 1217l237 266h172l148 -266 h-152l-94 167l-154 -167h-157z" />
<glyph unicode="&#x11e;" horiz-adv-x="1507" d="M186 598q0 175 69.5 334.5t185.5 275t275.5 184t332.5 68.5q101 0 187 -21t145.5 -56t96 -66.5t64.5 -65.5l-125 -110q-143 164 -391 164q-137 0 -260 -54t-211.5 -146.5t-140.5 -220t-52 -268.5q0 -218 127 -353.5t338 -135.5q81 0 158 16.5t133.5 43t92.5 49t61 43.5 l51 299h-319l24 145h479l-88 -520q-136 -118 -288 -174t-336 -56q-270 0 -439.5 174t-169.5 451zM836 1788h129q-11 -65 13.5 -105.5t92.5 -40.5q126 0 152 146h133q-19 -118 -98 -188t-205 -70q-124 0 -180.5 73t-36.5 185z" />
<glyph unicode="&#x11f;" horiz-adv-x="1243" d="M145 434q0 183 81 334.5t221 237.5t309 86q63 0 118.5 -15.5t92.5 -38t67.5 -51.5t46 -51.5t25.5 -42.5l29 172h155l-157 -948q-85 -510 -611 -510q-101 0 -206 31t-169 75l80 127q26 -17 61.5 -34.5t104.5 -35.5t139 -18q165 0 284 80t147 242l16 94 q-21 -25 -46.5 -48.5t-77.5 -61.5t-125.5 -61.5t-154.5 -23.5q-197 0 -313.5 128t-116.5 333zM311 459q0 -153 83.5 -245.5t219.5 -92.5q122 0 223.5 66t158.5 177t57 242q0 156 -83.5 247t-219.5 91q-180 0 -309.5 -139.5t-129.5 -345.5zM604 1460h129q-11 -65 14 -105 t93 -40q66 0 103 39.5t48 105.5h133q-19 -118 -98 -188t-205 -70q-124 0 -180.5 73t-36.5 185z" />
<glyph unicode="&#x120;" horiz-adv-x="1507" d="M186 598q0 175 69.5 334.5t185.5 275t275.5 184t332.5 68.5q101 0 187 -21t145.5 -56t96 -66.5t64.5 -65.5l-125 -110q-143 164 -391 164q-137 0 -260 -54t-211.5 -146.5t-140.5 -220t-52 -268.5q0 -218 127 -353.5t338 -135.5q81 0 158 16.5t133.5 43t92.5 49t61 43.5 l51 299h-319l24 145h479l-88 -520q-136 -118 -288 -174t-336 -56q-270 0 -439.5 174t-169.5 451zM975 1642q0 52 38.5 89.5t90.5 37.5q42 0 69 -27t27 -69q0 -52 -40 -89.5t-93 -37.5q-41 0 -66.5 27t-25.5 69z" />
<glyph unicode="&#x121;" horiz-adv-x="1243" d="M145 434q0 183 81 334.5t221 237.5t309 86q63 0 118.5 -15.5t92.5 -38t67.5 -51.5t46 -51.5t25.5 -42.5l29 172h155l-157 -948q-85 -510 -611 -510q-101 0 -206 31t-169 75l80 127q26 -17 61.5 -34.5t104.5 -35.5t139 -18q165 0 284 80t147 242l16 94 q-21 -25 -46.5 -48.5t-77.5 -61.5t-125.5 -61.5t-154.5 -23.5q-197 0 -313.5 128t-116.5 333zM311 459q0 -153 83.5 -245.5t219.5 -92.5q122 0 223.5 66t158.5 177t57 242q0 156 -83.5 247t-219.5 91q-180 0 -309.5 -139.5t-129.5 -345.5zM731 1323q0 52 38.5 89.5 t90.5 37.5q42 0 69 -27t27 -69q0 -52 -40 -89.5t-93 -37.5q-41 0 -66.5 27t-25.5 69z" />
<glyph unicode="&#x122;" horiz-adv-x="1507" d="M186 598q0 175 69.5 334.5t185.5 275t275.5 184t332.5 68.5q101 0 187 -21t145.5 -56t96 -66.5t64.5 -65.5l-125 -110q-143 164 -391 164q-137 0 -260 -54t-211.5 -146.5t-140.5 -220t-52 -268.5q0 -218 127 -353.5t338 -135.5q81 0 158 16.5t133.5 43t92.5 49t61 43.5 l51 299h-319l24 145h479l-88 -520q-136 -118 -288 -174t-336 -56q-270 0 -439.5 174t-169.5 451zM641 -412q100 72 119 131q-39 3 -59.5 29.5t-20.5 61.5q0 50 37 86t88 36q44 0 70 -27.5t26 -72.5q0 -169 -201 -317z" />
<glyph unicode="&#x123;" horiz-adv-x="1243" d="M145 434q0 183 82.5 334.5t224 237.5t310.5 86q77 0 141.5 -22t104.5 -57t62.5 -63.5t35.5 -56.5l29 172h155l-153 -918q-25 -147 -82.5 -253.5t-142 -168t-183.5 -90t-219 -28.5q-100 0 -199 30.5t-164 75.5l80 127q26 -17 61.5 -34.5t104.5 -35.5t139 -18 q79 0 147.5 17.5t128 54t100 100.5t55.5 150l16 94q-21 -25 -46.5 -48.5t-77.5 -61.5t-125.5 -61.5t-154.5 -23.5q-197 0 -313.5 128t-116.5 333zM311 459q0 -153 83.5 -245.5t219.5 -92.5q122 0 223.5 66t158.5 177t57 242q0 156 -83.5 247t-219.5 91q-180 0 -309.5 -139.5 t-129.5 -345.5zM709 1276q0 169 200 317l58 -67q-32 -23 -65.5 -60.5t-47.5 -76.5q35 -6 55.5 -31.5t20.5 -59.5q0 -49 -36.5 -85.5t-86.5 -36.5q-44 0 -71 28t-27 72z" />
<glyph unicode="&#x124;" horiz-adv-x="1417" d="M162 0l239 1434h166l-104 -629h762l104 629h166l-240 -1434h-165l108 653h-762l-108 -653h-166zM694 1534l238 266h172l147 -266h-151l-94 168l-154 -168h-158z" />
<glyph unicode="&#x125;" horiz-adv-x="1122" d="M139 0l248 1481h162l-96 -570q54 77 148 129t198 52q180 0 258.5 -118.5t46.5 -307.5l-111 -666h-162l113 672q21 125 -38 198.5t-169 73.5q-123 0 -214 -82.5t-113 -214.5l-109 -647h-162zM545 1534l237 266h172l148 -266h-152l-94 168l-154 -168h-157z" />
<glyph unicode="&#x126;" horiz-adv-x="1417" d="M162 0l176 1055h-125l23 129h124l41 250h166l-41 -250h762l41 250h166l-41 -250h125l-23 -129h-124l-177 -1055h-165l108 653h-762l-108 -653h-166zM463 805h762l41 250h-762z" />
<glyph unicode="&#x127;" horiz-adv-x="1122" d="M139 0l201 1202h-129l20 121h129l27 158h162l-27 -158h264l-20 -121h-264l-49 -291q54 77 148 129t198 52q180 0 258.5 -118.5t46.5 -307.5l-111 -666h-162l113 672q21 125 -38 198.5t-169 73.5q-123 0 -214 -82.5t-113 -214.5l-109 -647h-162z" />
<glyph unicode="&#x128;" horiz-adv-x="489" d="M162 0l239 1434h166l-239 -1434h-166zM184 1554q17 97 81.5 156t150.5 59q44 0 88 -22.5t82.5 -45t68.5 -22.5q34 0 59 24.5t34 65.5h116q-17 -98 -78.5 -157.5t-146.5 -59.5q-45 0 -89 23t-83 46.5t-72 23.5t-57 -24.5t-33 -66.5h-121z" />
<glyph unicode="&#x129;" d="M106 1233q17 97 81.5 156t150.5 59q44 0 88.5 -22.5t83 -45t68.5 -22.5q34 0 58.5 24.5t33.5 65.5h116q-17 -98 -78.5 -157.5t-146.5 -59.5q-45 0 -89 23t-83 46t-72 23t-57 -24t-33 -66h-121zM139 0l178 1065h162l-178 -1065h-162z" />
<glyph unicode="&#x12a;" horiz-adv-x="489" d="M162 0l239 1434h166l-239 -1434h-166zM264 1567l23 129h495l-22 -129h-496z" />
<glyph unicode="&#x12b;" d="M139 0l178 1065h162l-178 -1065h-162zM188 1288l23 129h496l-23 -129h-496z" />
<glyph unicode="&#x12c;" horiz-adv-x="489" d="M162 0l239 1434h166l-239 -1434h-166zM287 1788h129q-11 -65 13.5 -105.5t92.5 -40.5q126 0 152 146h133q-19 -118 -98 -188t-205 -70q-124 0 -180.5 73t-36.5 185z" />
<glyph unicode="&#x12d;" d="M139 0l178 1065h162l-178 -1065h-162zM207 1460h129q-11 -65 13.5 -105t92.5 -40q66 0 103.5 40t48.5 105h133q-19 -118 -98 -188t-205 -70q-124 0 -180.5 73t-36.5 185z" />
<glyph unicode="&#x12e;" horiz-adv-x="489" d="M0 -236q0 81 60 145.5t130 90.5h-28l239 1434h166l-239 -1434q-19 -6 -45 -21t-56 -38t-50.5 -56.5t-20.5 -68.5q0 -42 31 -63t77 -21l-20 -127q-16 -4 -49 -4q-80 0 -137.5 42.5t-57.5 120.5z" />
<glyph unicode="&#x12f;" d="M-27 -236q0 81 60.5 145.5t130.5 90.5h-25l178 1065h162l-178 -1065q-19 -6 -45 -21t-56 -38t-50.5 -56.5t-20.5 -68.5q0 -42 31 -63t78 -21l-21 -127q-16 -4 -49 -4q-80 0 -137.5 42.5t-57.5 120.5zM332 1323q0 52 38.5 89.5t90.5 37.5q42 0 69 -27t27 -69 q0 -52 -40 -89.5t-93 -37.5q-41 0 -66.5 27t-25.5 69z" />
<glyph unicode="&#x130;" horiz-adv-x="489" d="M162 0l239 1434h166l-239 -1434h-166zM414 1642q0 52 38.5 89.5t90.5 37.5q42 0 69 -27t27 -69q0 -52 -40 -89.5t-93 -37.5q-41 0 -66.5 27t-25.5 69z" />
<glyph unicode="&#x131;" d="M139 0l178 1065h162l-178 -1065h-162z" />
<glyph unicode="&#x132;" horiz-adv-x="1198" d="M162 0l239 1434h166l-239 -1434h-166zM537 12l43 146q65 -21 133 -21q179 0 215 209l182 1088h166l-186 -1110q-27 -163 -128.5 -249.5t-256.5 -86.5q-104 0 -168 24z" />
<glyph unicode="&#x133;" horiz-adv-x="882" d="M139 0l178 1065h162l-178 -1065h-162zM289 -387l22 139q18 -2 45 -2q91 0 144.5 53t72.5 166l185 1096h162l-185 -1100q-16 -98 -53.5 -169t-91 -111t-114 -58t-132.5 -18zM332 1323q0 52 38.5 89.5t90.5 37.5q42 0 69 -27t27 -69q0 -52 -40 -89.5t-93 -37.5 q-41 0 -66.5 27t-25.5 69zM770 1323q0 52 39.5 89.5t91.5 37.5q42 0 69 -27t27 -69q0 -52 -40 -89.5t-93 -37.5q-41 0 -67.5 27.5t-26.5 68.5z" />
<glyph unicode="&#x134;" horiz-adv-x="706" d="M47 12l43 146q65 -21 133 -21q179 0 215 209l183 1088h165l-186 -1110q-27 -163 -128.5 -249.5t-256.5 -86.5q-104 0 -168 24zM432 1534l238 266h172l147 -266h-151l-95 168l-153 -168h-158z" />
<glyph unicode="&#x135;" d="M-152 -387l23 139q27 -2 45 -2q91 0 144.5 53t72.5 166l184 1096h162l-184 -1100q-16 -98 -53.5 -169t-91 -111t-114 -58t-132.5 -18zM145 1217l238 266h172l147 -266h-151l-94 167l-154 -167h-158z" />
<glyph unicode="&#x136;" horiz-adv-x="1157" d="M162 0l239 1434h166l-110 -660l673 660h209l-716 -695l501 -739h-194l-481 721l-121 -721h-166zM436 -412q100 72 119 131q-39 3 -59.5 29.5t-20.5 61.5q0 50 37 86t88 36q44 0 70 -27.5t26 -72.5q0 -169 -200 -317z" />
<glyph unicode="&#x137;" horiz-adv-x="978" d="M139 0l248 1481h162l-146 -873l502 457h213l-545 -485l394 -580h-187l-385 567l-94 -567h-162zM344 -412q100 72 119 131q-39 3 -59.5 29.5t-20.5 61.5q0 50 37 86t88 36q44 0 70 -27.5t26 -72.5q0 -169 -201 -317z" />
<glyph unicode="&#x138;" horiz-adv-x="978" d="M139 0l178 1065h162l-78 -469l508 469h209l-540 -490l389 -575h-199l-375 555l-92 -555h-162z" />
<glyph unicode="&#x139;" horiz-adv-x="919" d="M162 0l239 1434h166l-215 -1284h537l-25 -150h-702zM430 1524l188 291h185l-232 -291h-141z" />
<glyph unicode="&#x13a;" d="M139 0l248 1481h162l-248 -1481h-162zM397 1536l189 291h184l-231 -291h-142z" />
<glyph unicode="&#x13b;" horiz-adv-x="919" d="M162 0l239 1434h166l-215 -1284h537l-25 -150h-702zM352 -412q100 72 119 131q-39 3 -59.5 29.5t-20.5 61.5q0 50 37 86t88 36q44 0 70 -27.5t26 -72.5q0 -169 -200 -317z" />
<glyph unicode="&#x13c;" d="M47 -412q100 72 119 131q-39 3 -59.5 29.5t-20.5 61.5q0 50 37 86t88 36q44 0 70 -27.5t26 -72.5q0 -169 -201 -317zM139 0l248 1481h162l-248 -1481h-162z" />
<glyph unicode="&#x13d;" horiz-adv-x="931" d="M162 0l239 1434h166l-215 -1284h537l-25 -150h-702zM760 1085l71 349h168l-116 -349h-123z" />
<glyph unicode="&#x13e;" horiz-adv-x="448" d="M139 0l248 1481h162l-248 -1481h-162zM567 1133l72 348h168l-117 -348h-123z" />
<glyph unicode="&#x13f;" horiz-adv-x="919" d="M162 0l239 1434h166l-215 -1284h537l-25 -150h-702zM662 739q0 53 40 91t95 38q44 0 72 -28t28 -70q0 -54 -38 -92.5t-93 -38.5q-44 0 -74 28.5t-30 71.5z" />
<glyph unicode="&#x140;" horiz-adv-x="669" d="M139 0l248 1481h162l-248 -1481h-162zM502 655q0 53 40 91t95 38q44 0 72 -28t28 -70q0 -54 -38 -92.5t-93 -38.5q-44 0 -74 28.5t-30 71.5z" />
<glyph unicode="&#x141;" horiz-adv-x="919" d="M123 492l27 159l133 72l118 711h166l-102 -615l278 156l-26 -166l-279 -152l-86 -507h537l-25 -150h-702l94 561z" />
<glyph unicode="&#x142;" horiz-adv-x="516" d="M131 567l27 164l147 86l113 664h162l-95 -563l156 94l-27 -168l-157 -92l-125 -752h-162l109 653z" />
<glyph unicode="&#x143;" horiz-adv-x="1441" d="M160 0l239 1434h166l594 -1172l197 1172h164l-240 -1434h-164l-596 1167l-194 -1167h-166zM903 1524l189 291h184l-232 -291h-141z" />
<glyph unicode="&#x144;" horiz-adv-x="1122" d="M139 0l178 1065h160l-26 -154q54 77 148.5 129t199.5 52q121 0 197 -56.5t101.5 -151.5t4.5 -218l-111 -666h-162l113 672q21 125 -37.5 198.5t-169.5 73.5q-123 0 -213 -82.5t-112 -214.5l-109 -647h-162zM672 1194l188 291h184l-231 -291h-141z" />
<glyph unicode="&#x145;" horiz-adv-x="1441" d="M160 0l239 1434h166l594 -1172l197 1172h164l-240 -1434h-164l-596 1167l-194 -1167h-166zM541 -412q99 71 118 131q-39 3 -59 29.5t-20 61.5q0 50 37 86t88 36q44 0 70 -27.5t26 -72.5q0 -169 -201 -317z" />
<glyph unicode="&#x146;" horiz-adv-x="1122" d="M139 0l178 1065h160l-26 -154q54 77 148.5 129t199.5 52q121 0 197 -56.5t101.5 -151.5t4.5 -218l-111 -666h-162l113 672q21 125 -37.5 198.5t-169.5 73.5q-123 0 -213 -82.5t-112 -214.5l-109 -647h-162zM383 -412q100 72 119 131q-39 3 -59.5 29.5t-20.5 61.5 q0 50 37 86t88 36q44 0 70 -27.5t26 -72.5q0 -169 -201 -317z" />
<glyph unicode="&#x147;" horiz-adv-x="1441" d="M160 0l239 1434h166l594 -1172l197 1172h164l-240 -1434h-164l-596 1167l-194 -1167h-166zM745 1800h154l92 -168l156 168h156l-238 -266h-172z" />
<glyph unicode="&#x148;" horiz-adv-x="1122" d="M139 0l178 1065h160l-26 -154q54 77 148.5 129t199.5 52q121 0 197 -56.5t101.5 -151.5t4.5 -218l-111 -666h-162l113 672q21 125 -37.5 198.5t-169.5 73.5q-123 0 -213 -82.5t-112 -214.5l-109 -647h-162zM553 1483h154l92 -168l155 168h156l-238 -266h-172z" />
<glyph unicode="&#x149;" horiz-adv-x="1173" d="M158 1122q99 71 118 131q-39 3 -59 29t-20 61q0 50 37 86.5t88 36.5q44 0 70 -27.5t26 -72.5q0 -169 -201 -317zM190 0l179 1065h159l-26 -154q54 77 148.5 129t199.5 52q121 0 197 -56.5t101.5 -151.5t4.5 -218l-111 -666h-161l112 672q21 125 -37.5 198.5t-169.5 73.5 q-123 0 -213 -82.5t-112 -214.5l-109 -647h-162z" />
<glyph unicode="&#x14a;" horiz-adv-x="1441" d="M160 0l239 1434h166l594 -1172l197 1172h164l-248 -1487q-27 -164 -128 -250t-255 -86q-115 0 -168 20l43 148q63 -19 131 -19q173 0 215 209l6 31l-596 1167l-194 -1167h-166z" />
<glyph unicode="&#x14b;" horiz-adv-x="1122" d="M139 0l178 1065h160l-26 -154q54 77 148.5 129t199.5 52q121 0 197 -56.5t101.5 -151.5t4.5 -218l-117 -701q-16 -98 -53.5 -169t-90.5 -111t-114 -58t-133 -18l-55 4l24 139q27 -2 47 -2q89 0 141.5 53t71.5 166l119 703q21 125 -37.5 198.5t-169.5 73.5 q-123 0 -213 -82.5t-112 -214.5l-109 -647h-162z" />
<glyph unicode="&#x14c;" horiz-adv-x="1619" d="M186 604q0 175 71 334.5t188.5 273t277 181t330.5 67.5q183 0 324.5 -83.5t217.5 -228t76 -323.5q0 -139 -45 -269.5t-127 -235t-189.5 -183.5t-238.5 -121.5t-268 -42.5q-182 0 -323.5 81.5t-217.5 225t-76 324.5zM360 625q0 -218 130 -357t341 -139q175 0 328 88.5 t245.5 245.5t92.5 344q0 217 -130 357.5t-339 140.5q-132 0 -254.5 -53t-213.5 -143.5t-145.5 -217t-54.5 -266.5zM823 1567l23 129h495l-22 -129h-496z" />
<glyph unicode="&#x14d;" horiz-adv-x="1247" d="M147 446q0 178 91.5 327.5t243 234t325.5 84.5q212 0 341.5 -134t129.5 -342q0 -176 -90.5 -324.5t-242 -233.5t-327.5 -85q-212 0 -341.5 132.5t-129.5 340.5zM315 465q0 -153 89.5 -248.5t238.5 -95.5q194 0 331.5 138.5t137.5 338.5q0 152 -91 249t-241 97 q-127 0 -234 -64t-169 -174t-62 -241zM596 1288l22 129h496l-22 -129h-496z" />
<glyph unicode="&#x14e;" horiz-adv-x="1619" d="M186 604q0 175 71 334.5t188.5 273t277 181t330.5 67.5q183 0 324.5 -83.5t217.5 -228t76 -323.5q0 -139 -45 -269.5t-127 -235t-189.5 -183.5t-238.5 -121.5t-268 -42.5q-182 0 -323.5 81.5t-217.5 225t-76 324.5zM360 625q0 -218 130 -357t341 -139q175 0 328 88.5 t245.5 245.5t92.5 344q0 217 -130 357.5t-339 140.5q-132 0 -254.5 -53t-213.5 -143.5t-145.5 -217t-54.5 -266.5zM854 1788h129q-11 -65 14 -105.5t93 -40.5q125 0 151 146h133q-19 -118 -98 -188t-205 -70q-124 0 -180.5 73t-36.5 185z" />
<glyph unicode="&#x14f;" horiz-adv-x="1247" d="M147 446q0 178 91.5 327.5t243 234t325.5 84.5q212 0 341.5 -134t129.5 -342q0 -176 -90.5 -324.5t-242 -233.5t-327.5 -85q-212 0 -341.5 132.5t-129.5 340.5zM315 465q0 -153 89.5 -248.5t238.5 -95.5q194 0 331.5 138.5t137.5 338.5q0 152 -91 249t-241 97 q-127 0 -234 -64t-169 -174t-62 -241zM608 1460h129q-11 -65 14 -105t93 -40q66 0 103 39.5t48 105.5h133q-19 -118 -98 -188t-205 -70q-124 0 -180.5 73t-36.5 185z" />
<glyph unicode="&#x150;" horiz-adv-x="1619" d="M186 604q0 175 71 334.5t188.5 273t277 181t330.5 67.5q183 0 324.5 -83.5t217.5 -228t76 -323.5q0 -139 -45 -269.5t-127 -235t-189.5 -183.5t-238.5 -121.5t-268 -42.5q-182 0 -323.5 81.5t-217.5 225t-76 324.5zM360 625q0 -218 130 -357t341 -139q175 0 328 88.5 t245.5 245.5t92.5 344q0 217 -130 357.5t-339 140.5q-132 0 -254.5 -53t-213.5 -143.5t-145.5 -217t-54.5 -266.5zM823 1524l195 291h170l-232 -291h-133zM1081 1524l195 291h170l-232 -291h-133z" />
<glyph unicode="&#x151;" horiz-adv-x="1247" d="M147 446q0 178 91.5 327.5t243 234t325.5 84.5q212 0 341.5 -134t129.5 -342q0 -176 -90.5 -324.5t-242 -233.5t-327.5 -85q-212 0 -341.5 132.5t-129.5 340.5zM315 465q0 -153 89.5 -248.5t238.5 -95.5q194 0 331.5 138.5t137.5 338.5q0 152 -91 249t-241 97 q-127 0 -234 -64t-169 -174t-62 -241zM606 1194l195 291h170l-232 -291h-133zM864 1194l195 291h170l-232 -291h-133z" />
<glyph unicode="&#x152;" horiz-adv-x="2211" d="M186 604q0 175 71 334.5t188.5 273t277 181t330.5 67.5q104 0 190 -26h1079l-24 -152h-801q176 -195 170 -477h485l-24 -150h-477q-32 -153 -116.5 -282t-209.5 -223h805l-25 -150h-1091q-115 -27 -211 -27q-182 0 -323.5 81.5t-217.5 225t-76 324.5zM360 625 q0 -218 130 -357t341 -139q175 0 328 88.5t245.5 245.5t92.5 344q0 217 -130 357.5t-339 140.5q-132 0 -254.5 -53t-213.5 -143.5t-145.5 -217t-54.5 -266.5z" />
<glyph unicode="&#x153;" horiz-adv-x="2099" d="M147 446q0 178 91.5 327.5t243 234t325.5 84.5q154 0 266 -72t158 -195q84 125 212 196t267 71q201 0 314.5 -123t113.5 -324q0 -97 -20 -147h-854q-29 -178 60 -279.5t259 -101.5q211 0 356 166l97 -78q-73 -93 -195 -162.5t-285 -69.5q-159 0 -269 71t-152 196 q-91 -123 -227.5 -195t-289.5 -72q-212 0 -341.5 132.5t-129.5 340.5zM315 465q0 -153 89.5 -248.5t238.5 -95.5q194 0 331.5 138.5t137.5 338.5q0 152 -91 249t-241 97q-127 0 -234 -64t-169 -174t-62 -241zM1290 618h682q19 159 -62.5 246.5t-221.5 87.5q-87 0 -167 -38 t-142.5 -115t-88.5 -181z" />
<glyph unicode="&#x154;" horiz-adv-x="1120" d="M162 0l239 1434h365q191 0 289 -85t98 -241q0 -155 -85 -281t-234 -170l245 -657h-184l-219 623h-244l-104 -623h-166zM457 768h198q152 0 237 79t85 236q0 96 -60 149.5t-186 53.5h-188zM694 1524l189 291h184l-231 -291h-142z" />
<glyph unicode="&#x155;" horiz-adv-x="657" d="M139 0l178 1065h160l-31 -178q44 85 140.5 145t212.5 60l-27 -162q-162 0 -256.5 -110.5t-128.5 -309.5l-86 -510h-162zM483 1194l189 291h184l-231 -291h-142z" />
<glyph unicode="&#x156;" horiz-adv-x="1120" d="M162 0l239 1434h365q191 0 289 -85t98 -241q0 -155 -85 -281t-234 -170l245 -657h-184l-219 623h-244l-104 -623h-166zM391 -412q100 72 119 131q-39 3 -59.5 29.5t-20.5 61.5q0 50 37 86t88 36q44 0 70 -27.5t26 -72.5q0 -169 -200 -317zM457 768h198q152 0 237 79 t85 236q0 96 -60 149.5t-186 53.5h-188z" />
<glyph unicode="&#x157;" horiz-adv-x="657" d="M72 -412q99 71 118 131q-39 3 -59 29.5t-20 61.5q0 50 37 86t88 36q44 0 70 -27.5t26 -72.5q0 -169 -201 -317zM139 0l178 1065h160l-31 -178q44 85 140.5 145t212.5 60l-27 -162q-162 0 -256.5 -110.5t-128.5 -309.5l-86 -510h-162z" />
<glyph unicode="&#x158;" horiz-adv-x="1120" d="M162 0l239 1434h365q191 0 289 -85t98 -241q0 -155 -85 -281t-234 -170l245 -657h-184l-219 623h-244l-104 -623h-166zM457 768h198q152 0 237 79t85 236q0 96 -60 149.5t-186 53.5h-188zM545 1800h153l93 -168l155 168h156l-238 -266h-172z" />
<glyph unicode="&#x159;" horiz-adv-x="657" d="M139 0l178 1065h160l-31 -178q44 85 140.5 145t212.5 60l-27 -162q-162 0 -256.5 -110.5t-128.5 -309.5l-86 -510h-162zM326 1483h153l92 -168l156 168h156l-238 -266h-172z" />
<glyph unicode="&#x15a;" horiz-adv-x="1036" d="M119 289l151 61q8 -45 26 -82t49 -70.5t82.5 -52t119.5 -18.5q131 0 217 74.5t86 197.5q0 61 -31 111t-80 85t-109 68t-119.5 68.5t-108.5 77.5t-80 104.5t-31 139.5q0 175 131 291t340 116q90 0 161 -28.5t111.5 -73.5t62 -87.5t29.5 -84.5l-147 -58q-58 181 -240 181 q-127 0 -203.5 -71.5t-76.5 -172.5q0 -44 19.5 -82.5t52 -68.5t74.5 -58t89 -54.5t93.5 -54.5t88.5 -61.5t74.5 -71t52 -88t19.5 -108.5q0 -192 -132.5 -318.5t-352.5 -126.5q-99 0 -178.5 29.5t-127.5 78t-75.5 100.5t-36.5 108zM680 1524l188 291h185l-232 -291h-141z" />
<glyph unicode="&#x15b;" horiz-adv-x="854" d="M92 201l121 69q68 -159 244 -159q92 0 159.5 52t67.5 138q0 42 -25 76.5t-65 59t-88.5 48t-97.5 50.5t-89 59.5t-65 81t-25 108.5q0 139 110.5 223.5t274.5 84.5q70 0 128 -20.5t93.5 -53t56.5 -66t28 -65.5l-129 -68q-9 26 -21 46t-34 43t-58.5 35.5t-85.5 12.5 q-86 0 -144.5 -44t-58.5 -119q0 -41 25 -75.5t65.5 -60t89.5 -50.5t97.5 -53.5t89 -61.5t65.5 -81.5t25 -107.5q0 -152 -110.5 -241t-297.5 -89q-76 0 -138 21t-102 57t-64.5 72t-41.5 78zM528 1194l189 291h184l-231 -291h-142z" />
<glyph unicode="&#x15c;" horiz-adv-x="1036" d="M119 289l151 61q8 -45 26 -82t49 -70.5t82.5 -52t119.5 -18.5q131 0 217 74.5t86 197.5q0 61 -31 111t-80 85t-109 68t-119.5 68.5t-108.5 77.5t-80 104.5t-31 139.5q0 175 131 291t340 116q90 0 161 -28.5t111.5 -73.5t62 -87.5t29.5 -84.5l-147 -58q-58 181 -240 181 q-127 0 -203.5 -71.5t-76.5 -172.5q0 -44 19.5 -82.5t52 -68.5t74.5 -58t89 -54.5t93.5 -54.5t88.5 -61.5t74.5 -71t52 -88t19.5 -108.5q0 -192 -132.5 -318.5t-352.5 -126.5q-99 0 -178.5 29.5t-127.5 78t-75.5 100.5t-36.5 108zM498 1534l237 266h172l148 -266h-152 l-94 168l-154 -168h-157z" />
<glyph unicode="&#x15d;" horiz-adv-x="854" d="M92 201l121 69q68 -159 244 -159q92 0 159.5 52t67.5 138q0 42 -25 76.5t-65 59t-88.5 48t-97.5 50.5t-89 59.5t-65 81t-25 108.5q0 139 110.5 223.5t274.5 84.5q70 0 128 -20.5t93.5 -53t56.5 -66t28 -65.5l-129 -68q-9 26 -21 46t-34 43t-58.5 35.5t-85.5 12.5 q-86 0 -144.5 -44t-58.5 -119q0 -41 25 -75.5t65.5 -60t89.5 -50.5t97.5 -53.5t89 -61.5t65.5 -81.5t25 -107.5q0 -152 -110.5 -241t-297.5 -89q-76 0 -138 21t-102 57t-64.5 72t-41.5 78zM369 1217l237 266h172l148 -266h-152l-94 167l-154 -167h-157z" />
<glyph unicode="&#x15e;" horiz-adv-x="1036" d="M119 289l151 61q8 -45 26 -82t49 -70.5t82.5 -52t119.5 -18.5q131 0 217 74.5t86 197.5q0 61 -31 111t-80 85t-109 68t-119.5 68.5t-108.5 77.5t-80 104.5t-31 139.5q0 175 131 291t340 116q90 0 161 -28.5t111.5 -73.5t62 -87.5t29.5 -84.5l-147 -58q-58 181 -240 181 q-127 0 -203.5 -71.5t-76.5 -172.5q0 -44 19.5 -82.5t52 -68.5t74.5 -58t89 -54.5t93.5 -54.5t88.5 -61.5t74.5 -71t52 -88t19.5 -108.5q0 -91 -32.5 -171t-91 -139.5t-145.5 -95t-192 -39.5l-20 -69q65 -6 101 -46.5t36 -101.5q0 -108 -77 -162.5t-189 -54.5q-54 0 -84 10 l37 105q30 -6 59 -6q131 0 131 96q0 35 -28 53.5t-76 18.5l-41 -4l49 168q-80 10 -144 42t-103 77t-62 92.5t-31 97.5z" />
<glyph unicode="&#x15f;" horiz-adv-x="854" d="M92 201l121 69q68 -159 244 -159q92 0 159.5 52t67.5 138q0 42 -25 76.5t-65 59t-88.5 48t-97.5 50.5t-89 59.5t-65 81t-25 108.5q0 139 110.5 223.5t274.5 84.5q70 0 128 -20.5t93.5 -53t56.5 -66t28 -65.5l-129 -68q-9 26 -21 46t-34 43t-58.5 35.5t-85.5 12.5 q-86 0 -144.5 -44t-58.5 -119q0 -41 25 -75.5t65.5 -60t89.5 -50.5t97.5 -53.5t89 -61.5t65.5 -81.5t25 -107.5q0 -147 -103 -234.5t-278 -95.5l-21 -69q65 -6 101.5 -46.5t36.5 -101.5q0 -108 -77.5 -162.5t-189.5 -54.5q-54 0 -84 10l37 105q31 -6 60 -6q131 0 131 96 q0 35 -28.5 53.5t-76.5 18.5l-41 -4l52 168q-111 17 -177 79.5t-96 141.5z" />
<glyph unicode="&#x160;" horiz-adv-x="1036" d="M119 289l151 61q8 -45 26 -82t49 -70.5t82.5 -52t119.5 -18.5q131 0 217 74.5t86 197.5q0 61 -31 111t-80 85t-109 68t-119.5 68.5t-108.5 77.5t-80 104.5t-31 139.5q0 175 131 291t340 116q90 0 161 -28.5t111.5 -73.5t62 -87.5t29.5 -84.5l-147 -58q-58 181 -240 181 q-127 0 -203.5 -71.5t-76.5 -172.5q0 -44 19.5 -82.5t52 -68.5t74.5 -58t89 -54.5t93.5 -54.5t88.5 -61.5t74.5 -71t52 -88t19.5 -108.5q0 -192 -132.5 -318.5t-352.5 -126.5q-99 0 -178.5 29.5t-127.5 78t-75.5 100.5t-36.5 108zM561 1800h154l92 -168l156 168h155 l-237 -266h-172z" />
<glyph unicode="&#x161;" horiz-adv-x="854" d="M92 201l121 69q68 -159 244 -159q92 0 159.5 52t67.5 138q0 42 -25 76.5t-65 59t-88.5 48t-97.5 50.5t-89 59.5t-65 81t-25 108.5q0 139 110.5 223.5t274.5 84.5q70 0 128 -20.5t93.5 -53t56.5 -66t28 -65.5l-129 -68q-9 26 -21 46t-34 43t-58.5 35.5t-85.5 12.5 q-86 0 -144.5 -44t-58.5 -119q0 -41 25 -75.5t65.5 -60t89.5 -50.5t97.5 -53.5t89 -61.5t65.5 -81.5t25 -107.5q0 -152 -110.5 -241t-297.5 -89q-76 0 -138 21t-102 57t-64.5 72t-41.5 78zM412 1483h153l92 -168l156 168h156l-238 -266h-172z" />
<glyph unicode="&#x162;" horiz-adv-x="1046" d="M258 1282l25 152h938l-25 -152h-385l-215 -1282h-45l-29 -96q65 -6 101 -46.5t36 -101.5q0 -108 -77 -162.5t-189 -54.5q-54 0 -84 10l37 105q31 -6 60 -6q131 0 131 96q0 35 -28.5 53.5t-76.5 18.5l-41 -4l58 188h-19l215 1282h-387z" />
<glyph unicode="&#x163;" horiz-adv-x="604" d="M182 928l23 137h129l39 223h157l-38 -223h233l-23 -137h-233l-92 -549q-24 -144 10.5 -195t136.5 -51l54 4l-25 -145q-43 -6 -98 -6l-31 2l-25 -84q65 -6 101.5 -46.5t36.5 -101.5q0 -108 -77.5 -162.5t-189.5 -54.5q-54 0 -84 10l37 105q31 -6 60 -6q131 0 131 96 q0 35 -28.5 53.5t-76.5 18.5l-41 -4l60 196q-158 70 -115 336l94 584h-125z" />
<glyph unicode="&#x164;" horiz-adv-x="1046" d="M258 1282l25 152h938l-25 -152h-385l-215 -1282h-166l215 1282h-387zM539 1800h153l92 -168l156 168h156l-238 -266h-172z" />
<glyph unicode="&#x165;" horiz-adv-x="604" d="M182 928l23 137h129l39 223h157l-38 -223h233l-23 -137h-233l-92 -549q-24 -144 10.5 -195t136.5 -51l54 4l-25 -145q-43 -6 -98 -6q-147 0 -209 89.5t-33 268.5l94 584h-125zM610 1141l72 340h168l-117 -340h-123z" />
<glyph unicode="&#x166;" horiz-adv-x="1046" d="M258 1282l25 152h938l-25 -152h-385l-76 -448h285l-23 -134h-284l-117 -700h-166l117 700h-258l22 134h258l76 448h-387z" />
<glyph unicode="&#x167;" horiz-adv-x="604" d="M123 571l20 123h125l39 234h-125l23 137h125l37 223h161l-36 -223h233l-23 -137h-235l-39 -234h229l-20 -123h-229l-31 -192q-24 -144 10.5 -195t136.5 -51l54 4l-25 -145q-43 -6 -98 -6q-307 0 -242 379l35 206h-125z" />
<glyph unicode="&#x168;" horiz-adv-x="1376" d="M240 514l153 920h166l-153 -918q-30 -182 47.5 -285.5t255.5 -103.5q179 0 292 104t144 287l153 916h164l-153 -918q-41 -249 -203 -396t-416 -147q-255 0 -373.5 146.5t-76.5 394.5zM645 1554q17 97 81.5 156t150.5 59q44 0 88 -22.5t82.5 -45t68.5 -22.5 q34 0 58.5 24.5t33.5 65.5h117q-17 -98 -78.5 -157.5t-146.5 -59.5q-45 0 -89 23t-83 46.5t-72 23.5t-57 -24.5t-33 -66.5h-121z" />
<glyph unicode="&#x169;" horiz-adv-x="1112" d="M197 399l110 666h162l-113 -672q-21 -125 38 -198.5t169 -73.5q123 0 213.5 82.5t112.5 214.5l108 647h164l-178 -1065h-162l27 154q-52 -76 -147 -128.5t-199 -52.5q-180 0 -258.5 118.5t-46.5 307.5zM446 1233q17 97 81.5 156t150.5 59q44 0 88.5 -22.5t83 -45 t68.5 -22.5q34 0 58.5 24.5t33.5 65.5h116q-17 -98 -78.5 -157.5t-146.5 -59.5q-45 0 -89 23t-83 46t-72 23t-57 -24t-33 -66h-121z" />
<glyph unicode="&#x16a;" horiz-adv-x="1382" d="M240 514l153 920h166l-153 -918q-30 -182 47.5 -285.5t255.5 -103.5q179 0 292 104t144 287l153 916h164l-153 -918q-41 -249 -203 -396t-416 -147q-255 0 -373.5 146.5t-76.5 394.5zM721 1567l22 129h496l-22 -129h-496z" />
<glyph unicode="&#x16b;" horiz-adv-x="1112" d="M197 399l110 666h162l-113 -672q-21 -125 38 -198.5t169 -73.5q123 0 213.5 82.5t112.5 214.5l108 647h164l-178 -1065h-162l27 154q-52 -76 -147 -128.5t-199 -52.5q-180 0 -258.5 118.5t-46.5 307.5zM532 1288l23 129h496l-23 -129h-496z" />
<glyph unicode="&#x16c;" horiz-adv-x="1376" d="M240 514l153 920h166l-153 -918q-30 -182 47.5 -285.5t255.5 -103.5q179 0 292 104t144 287l153 916h164l-153 -918q-41 -249 -203 -396t-416 -147q-255 0 -373.5 146.5t-76.5 394.5zM737 1788h129q-11 -65 14 -105.5t93 -40.5q125 0 151 146h133q-19 -118 -98 -188 t-205 -70q-124 0 -180.5 73t-36.5 185z" />
<glyph unicode="&#x16d;" horiz-adv-x="1112" d="M197 399l110 666h162l-113 -672q-21 -125 38 -198.5t169 -73.5q123 0 213.5 82.5t112.5 214.5l108 647h164l-178 -1065h-162l27 154q-52 -76 -147 -128.5t-199 -52.5q-180 0 -258.5 118.5t-46.5 307.5zM547 1460h129q-11 -65 13.5 -105t92.5 -40q66 0 103.5 40t48.5 105 h133q-19 -118 -98 -188t-205 -70q-124 0 -180.5 73t-36.5 185z" />
<glyph unicode="&#x16e;" horiz-adv-x="1376" d="M240 514l153 920h166l-153 -918q-30 -182 47.5 -285.5t255.5 -103.5q179 0 292 104t144 287l153 916h164l-153 -918q-41 -249 -203 -396t-416 -147q-255 0 -373.5 146.5t-76.5 394.5zM797 1667q0 87 63 146t152 59q73 0 116 -41.5t43 -108.5q0 -87 -63.5 -146.5 t-153.5 -59.5q-71 0 -114 42t-43 109zM897 1679q0 -33 19.5 -52t52.5 -19q45 0 72.5 28.5t27.5 73.5q0 32 -19 51t-55 19q-41 0 -69.5 -29t-28.5 -72z" />
<glyph unicode="&#x16f;" horiz-adv-x="1112" d="M197 399l110 666h162l-113 -672q-21 -125 38 -198.5t169 -73.5q123 0 213.5 82.5t112.5 214.5l108 647h164l-178 -1065h-162l27 154q-52 -76 -147 -128.5t-199 -52.5q-180 0 -258.5 118.5t-46.5 307.5zM604 1333q0 87 63 146t152 59q73 0 116.5 -41t43.5 -108 q0 -87 -63.5 -147t-153.5 -60q-71 0 -114.5 42t-43.5 109zM705 1346q0 -33 19 -52.5t52 -19.5q45 0 73 28.5t28 73.5q0 32 -19 51t-55 19q-41 0 -69.5 -28.5t-28.5 -71.5z" />
<glyph unicode="&#x170;" horiz-adv-x="1382" d="M240 514l153 920h166l-153 -918q-30 -182 47.5 -285.5t255.5 -103.5q179 0 292 104t144 287l153 916h164l-153 -918q-41 -249 -203 -396t-416 -147q-255 0 -373.5 146.5t-76.5 394.5zM725 1524l195 291h170l-232 -291h-133zM983 1524l195 291h170l-232 -291h-133z" />
<glyph unicode="&#x171;" horiz-adv-x="1112" d="M197 399l110 666h162l-113 -672q-21 -125 38 -198.5t169 -73.5q123 0 213.5 82.5t112.5 214.5l108 647h164l-178 -1065h-162l27 154q-52 -76 -147 -128.5t-199 -52.5q-180 0 -258.5 118.5t-46.5 307.5zM541 1194l194 291h170l-231 -291h-133zM799 1194l194 291h170 l-231 -291h-133z" />
<glyph unicode="&#x172;" horiz-adv-x="1376" d="M240 514l153 920h166l-153 -918q-30 -182 47.5 -285.5t255.5 -103.5q179 0 292 104t144 287l153 916h164l-153 -918q-34 -204 -151 -342t-302 -182q-55 -24 -104.5 -71t-49.5 -105q0 -42 31 -63t78 -21l-20 -127q-17 -4 -50 -4q-80 0 -137 42.5t-57 120.5q0 66 39 120 t96 89q-251 3 -367.5 149t-74.5 392z" />
<glyph unicode="&#x173;" horiz-adv-x="1112" d="M197 399l110 666h162l-113 -672q-21 -125 38 -198.5t169 -73.5q123 0 213.5 82.5t112.5 214.5l108 647h164l-178 -1065q-19 -6 -45 -21t-56 -38t-50.5 -56.5t-20.5 -68.5q0 -42 31 -63t78 -21l-21 -127q-16 -4 -49 -4q-80 0 -137.5 42.5t-57.5 120.5q0 81 60.5 145.5 t130.5 90.5h-25l27 154q-52 -76 -147 -128.5t-199 -52.5q-180 0 -258.5 118.5t-46.5 307.5z" />
<glyph unicode="&#x174;" horiz-adv-x="1931" d="M262 1434h176l127 -1223l553 1223h166l150 -1223l534 1223h178l-647 -1434h-186l-150 1190l-547 -1190h-184zM944 1534l238 266h172l147 -266h-151l-95 168l-153 -168h-158z" />
<glyph unicode="&#x175;" horiz-adv-x="1671" d="M193 1065h174l131 -877q5 7 434 877h162l137 -877l428 877h176l-539 -1065h-178l-141 846l-426 -846h-178zM760 1217l237 266h172l148 -266h-152l-94 167l-153 -167h-158z" />
<glyph unicode="&#x176;" horiz-adv-x="1089" d="M260 1434h174l242 -607l446 607h189l-572 -762l-112 -672h-164l115 672zM524 1534l238 266h172l147 -266h-151l-94 168l-154 -168h-158z" />
<glyph unicode="&#x177;" horiz-adv-x="1040" d="M190 1065h172l193 -862l473 862h176l-811 -1432h-168l221 377zM453 1217l237 266h172l148 -266h-152l-94 167l-154 -167h-157z" />
<glyph unicode="&#x178;" horiz-adv-x="1089" d="M260 1434h174l242 -607l446 607h189l-572 -762l-112 -672h-164l115 672zM563 1681q0 46 36 81.5t83 35.5q39 0 63.5 -25.5t24.5 -62.5q0 -48 -35 -82.5t-84 -34.5q-38 0 -63 25.5t-25 62.5zM899 1681q0 46 35 81.5t84 35.5q38 0 63 -26t25 -62q0 -47 -36 -82t-83 -35 q-39 0 -63.5 25.5t-24.5 62.5z" />
<glyph unicode="&#x179;" horiz-adv-x="1216" d="M72 0l20 121l1032 1163h-811l25 150h1032l-20 -123l-1033 -1161h842l-24 -150h-1063zM770 1524l188 291h185l-232 -291h-141z" />
<glyph unicode="&#x17a;" horiz-adv-x="946" d="M66 0l18 115l737 811h-581l22 139h782l-20 -117l-733 -811h608l-22 -137h-811zM559 1194l189 291h184l-232 -291h-141z" />
<glyph unicode="&#x17b;" horiz-adv-x="1216" d="M72 0l20 121l1032 1163h-811l25 150h1032l-20 -123l-1033 -1161h842l-24 -150h-1063zM776 1642q0 52 38.5 89.5t90.5 37.5q42 0 69 -27t27 -69q0 -52 -40 -89.5t-93 -37.5q-41 0 -66.5 27t-25.5 69z" />
<glyph unicode="&#x17c;" horiz-adv-x="946" d="M66 0l18 115l737 811h-581l22 139h782l-20 -117l-733 -811h608l-22 -137h-811zM588 1323q0 52 38.5 89.5t90.5 37.5q42 0 69 -27t27 -69q0 -52 -40 -89.5t-93 -37.5q-41 0 -66.5 27t-25.5 69z" />
<glyph unicode="&#x17d;" horiz-adv-x="1216" d="M72 0l20 121l1032 1163h-811l25 150h1032l-20 -123l-1033 -1161h842l-24 -150h-1063zM629 1800h153l92 -168l156 168h156l-238 -266h-172z" />
<glyph unicode="&#x17e;" horiz-adv-x="946" d="M66 0l18 115l737 811h-581l22 139h782l-20 -117l-733 -811h608l-22 -137h-811zM444 1483h154l92 -168l156 168h155l-237 -266h-172z" />
<glyph unicode="&#x192;" horiz-adv-x="931" d="M-88 -381l25 139q45 -10 94 -10q94 0 145.5 61.5t75.5 210.5l117 699h-148v137h166l43 252q16 95 53.5 164t89.5 106.5t107.5 54.5t118.5 17q28 0 57.5 -3t45.5 -6l16 -3l-21 -140q-47 11 -96 11q-90 0 -142 -52.5t-73 -179.5l-35 -221h211v-137h-238l-108 -658 q-13 -79 -26.5 -134t-42.5 -120.5t-67.5 -105.5t-102 -67t-146.5 -27q-27 0 -57 3t-46 6z" />
<glyph unicode="&#x1fa;" horiz-adv-x="1290" d="M25 0l743 1372q-55 42 -55 123q0 87 63 146t152 59q73 0 116 -41.5t43 -108.5q0 -56 -29 -101.5t-77 -74.5l285 -1374h-166l-94 465h-560l-249 -465h-172zM520 608h461l-125 643zM815 1507q0 -33 18.5 -52t51.5 -19q45 0 72.5 28.5t27.5 73.5q0 32 -19 51t-55 19 q-41 0 -68.5 -29t-27.5 -72zM868 1753l195 291h178l-231 -291h-142z" />
<glyph unicode="&#x1fb;" horiz-adv-x="1044" d="M119 279q0 112 63 203.5t171.5 143.5t238.5 52q94 0 164 -29t100 -67l23 131q19 111 -40.5 173t-179.5 62q-146 0 -325 -94l-47 123q199 115 403 115q200 0 289 -107t59 -283l-116 -702h-140l-4 90q-123 -117 -307 -117q-157 0 -254.5 86t-97.5 220zM287 301 q0 -84 62.5 -138t170.5 -54q130 0 217.5 71.5t87.5 179.5q0 86 -63 137.5t-170 51.5q-132 0 -218.5 -72t-86.5 -176zM561 1317q0 87 63 146t152 59q73 0 116.5 -41.5t43.5 -108.5q0 -87 -63.5 -147t-153.5 -60q-71 0 -114.5 42.5t-43.5 109.5zM662 1329q0 -33 19 -52.5 t52 -19.5q45 0 73 29t28 74q0 32 -19 51t-55 19q-41 0 -69.5 -29t-28.5 -72zM713 1581l188 291h184l-231 -291h-141z" />
<glyph unicode="&#x1fc;" horiz-adv-x="1660" d="M16 0l961 1434h795l-25 -152h-514l-80 -477h449l-25 -150h-449l-86 -505h535l-25 -150h-700l78 465h-426l-305 -465h-183zM596 608h358l113 674h-31zM1174 1524l188 291h184l-231 -291h-141z" />
<glyph unicode="&#x1fd;" horiz-adv-x="1841" d="M119 279q0 112 63 203.5t171.5 143.5t238.5 52q94 0 164 -29t100 -67l23 131q19 111 -40.5 173t-179.5 62q-146 0 -325 -94l-47 123q199 115 411 115q142 0 222.5 -54.5t101.5 -152.5q85 99 197 153t233 54q232 0 344 -151.5t72 -393.5l-8 -49h-854q-29 -176 59.5 -278.5 t257.5 -102.5q213 0 358 166l99 -80q-69 -91 -194.5 -160.5t-289.5 -69.5q-150 0 -256.5 59t-152.5 169q-54 -95 -161 -161.5t-255 -66.5q-157 0 -254.5 86t-97.5 220zM287 301q0 -84 62.5 -138t170.5 -54q129 0 215 72t86 181q0 85 -61.5 136t-167.5 51q-132 0 -218.5 -72 t-86.5 -176zM989 1194l189 291h184l-232 -291h-141zM1032 618h682q19 159 -63 246.5t-221 87.5q-87 0 -167 -38t-142.5 -115t-88.5 -181z" />
<glyph unicode="&#x1fe;" horiz-adv-x="1617" d="M186 604q0 175 71 334.5t188.5 273t277 181t330.5 67.5q223 0 383 -125l131 138l90 -82l-133 -140q147 -174 147 -426q0 -139 -45 -269.5t-127 -235t-189.5 -183.5t-238.5 -121.5t-268 -42.5q-228 0 -383 121l-129 -135l-90 82l131 137q-146 169 -146 426zM360 625 q0 -182 97 -316l860 901q-126 95 -289 95q-132 0 -254.5 -53t-213.5 -143.5t-145.5 -217t-54.5 -266.5zM541 221q122 -92 290 -92q175 0 328 88.5t245.5 245.5t92.5 344q0 183 -96 315zM963 1524l188 291h184l-231 -291h-141z" />
<glyph unicode="&#x1ff;" horiz-adv-x="1247" d="M147 446q0 178 91.5 327.5t243 234t325.5 84.5q168 0 287 -86l96 100l82 -76l-96 -102q102 -127 102 -312q0 -176 -90.5 -324.5t-242 -233.5t-327.5 -85q-158 0 -276 78l-96 -100l-82 74l94 100q-111 126 -111 321zM315 465q0 -124 62 -215l602 633q-83 61 -199 61 q-127 0 -234 -64t-169 -174t-62 -241zM457 172q79 -51 186 -51q194 0 331.5 138.5t137.5 338.5q0 117 -57 205zM723 1194l188 291h185l-232 -291h-141z" />
<glyph unicode="&#x218;" horiz-adv-x="1036" d="M119 289l151 61q8 -45 26 -82t49 -70.5t82.5 -52t119.5 -18.5q131 0 217 74.5t86 197.5q0 61 -31 111t-80 85t-109 68t-119.5 68.5t-108.5 77.5t-80 104.5t-31 139.5q0 175 131 291t340 116q90 0 161 -28.5t111.5 -73.5t62 -87.5t29.5 -84.5l-147 -58q-58 181 -240 181 q-127 0 -203.5 -71.5t-76.5 -172.5q0 -44 19.5 -82.5t52 -68.5t74.5 -58t89 -54.5t93.5 -54.5t88.5 -61.5t74.5 -71t52 -88t19.5 -108.5q0 -192 -132.5 -318.5t-352.5 -126.5q-99 0 -178.5 29.5t-127.5 78t-75.5 100.5t-36.5 108zM344 -412q100 72 119 131q-39 3 -59.5 29.5 t-20.5 61.5q0 50 37 86t88 36q44 0 70 -27.5t26 -72.5q0 -169 -201 -317z" />
<glyph unicode="&#x219;" horiz-adv-x="854" d="M92 201l121 69q68 -159 244 -159q92 0 159.5 52t67.5 138q0 42 -25 76.5t-65 59t-88.5 48t-97.5 50.5t-89 59.5t-65 81t-25 108.5q0 139 110.5 223.5t274.5 84.5q70 0 128 -20.5t93.5 -53t56.5 -66t28 -65.5l-129 -68q-9 26 -21 46t-34 43t-58.5 35.5t-85.5 12.5 q-86 0 -144.5 -44t-58.5 -119q0 -41 25 -75.5t65.5 -60t89.5 -50.5t97.5 -53.5t89 -61.5t65.5 -81.5t25 -107.5q0 -152 -110.5 -241t-297.5 -89q-76 0 -138 21t-102 57t-64.5 72t-41.5 78zM262 -412q100 72 119 131q-39 3 -59.5 29.5t-20.5 61.5q0 50 37 86t88 36 q44 0 70 -27.5t26 -72.5q0 -169 -200 -317z" />
<glyph unicode="&#x21a;" horiz-adv-x="1046" d="M258 1282l25 152h938l-25 -152h-385l-215 -1282h-166l215 1282h-387zM311 -412q100 72 119 131q-39 3 -59.5 29.5t-20.5 61.5q0 50 37 86t88 36q44 0 70 -27.5t26 -72.5q0 -169 -200 -317z" />
<glyph unicode="&#x21b;" horiz-adv-x="604" d="M172 -412q100 72 119 131q-39 3 -59.5 29.5t-20.5 61.5q0 50 37 86t88 36q44 0 70 -27.5t26 -72.5q0 -169 -201 -317zM182 928l23 137h129l39 223h157l-38 -223h233l-23 -137h-233l-92 -549q-24 -144 10.5 -195t136.5 -51l54 4l-25 -145q-43 -6 -98 -6q-147 0 -209 89.5 t-33 268.5l94 584h-125z" />
<glyph unicode="&#x237;" d="M-152 -387l23 139q27 -2 45 -2q91 0 144.5 53t72.5 166l184 1096h162l-184 -1100q-16 -98 -53.5 -169t-91 -111t-114 -58t-132.5 -18z" />
<glyph unicode="&#x2c6;" horiz-adv-x="923" d="M385 1217l238 266h172l147 -266h-151l-95 167l-153 -167h-158z" />
<glyph unicode="&#x2c7;" horiz-adv-x="923" d="M430 1483h154l92 -168l155 168h156l-237 -266h-172z" />
<glyph unicode="&#x2d8;" horiz-adv-x="923" d="M446 1460h129q-11 -65 14 -105t93 -40q66 0 103.5 40t48.5 105h133q-19 -118 -98 -188t-205 -70q-124 0 -181 73t-37 185z" />
<glyph unicode="&#x2d9;" horiz-adv-x="923" d="M573 1323q0 52 38.5 89.5t90.5 37.5q42 0 69.5 -27t27.5 -69q0 -52 -40 -89.5t-93 -37.5q-41 0 -67 27t-26 69z" />
<glyph unicode="&#x2da;" horiz-adv-x="923" d="M502 1333q0 87 63 146t152 59q73 0 116.5 -41t43.5 -108q0 -87 -64 -147t-154 -60q-71 0 -114 42t-43 109zM602 1346q0 -33 19.5 -52.5t52.5 -19.5q45 0 72.5 28.5t27.5 73.5q0 32 -19 51t-55 19q-41 0 -69.5 -28.5t-28.5 -71.5z" />
<glyph unicode="&#x2db;" horiz-adv-x="923" d="M279 -236q0 81 60 145.5t130 90.5h137q-19 -6 -45 -21t-56 -38t-50.5 -56.5t-20.5 -68.5q0 -42 31 -63t78 -21l-21 -127q-16 -4 -49 -4q-80 0 -137 42.5t-57 120.5z" />
<glyph unicode="&#x2dc;" horiz-adv-x="923" d="M344 1233q17 97 81 156t150 59q44 0 88.5 -22.5t83 -45t68.5 -22.5q34 0 58.5 24.5t33.5 65.5h117q-17 -98 -78.5 -157.5t-146.5 -59.5q-45 0 -89 23t-83 46t-72 23t-57 -24t-33 -66h-121z" />
<glyph unicode="&#x2dd;" horiz-adv-x="935" d="M381 1194l194 291h170l-231 -291h-133zM639 1194l195 291h170l-232 -291h-133z" />
<glyph unicode="&#x1e80;" horiz-adv-x="1929" d="M262 1434h176l127 -1223l553 1223h166l150 -1223l534 1223h178l-647 -1434h-186l-150 1190l-547 -1190h-184zM1010 1815h174l98 -291h-137z" />
<glyph unicode="&#x1e81;" horiz-adv-x="1671" d="M193 1065h174l131 -877q5 7 434 877h162l137 -877l428 877h176l-539 -1065h-178l-141 846l-426 -846h-178zM842 1485h174l98 -291h-137z" />
<glyph unicode="&#x1e82;" horiz-adv-x="1839" d="M262 1434h176l127 -1223l553 1223h166l150 -1223l534 1223h178l-647 -1434h-186l-150 1190l-547 -1190h-184zM1124 1524l189 291h184l-231 -291h-142z" />
<glyph unicode="&#x1e83;" horiz-adv-x="1671" d="M193 1065h174l131 -877q5 7 434 877h162l137 -877l428 877h176l-539 -1065h-178l-141 846l-426 -846h-178zM963 1194l188 291h184l-231 -291h-141z" />
<glyph unicode="&#x1e84;" horiz-adv-x="1929" d="M262 1434h176l127 -1223l553 1223h166l150 -1223l534 1223h178l-647 -1434h-186l-150 1190l-547 -1190h-184zM971 1649q0 46 36 81t83 35q39 0 63.5 -25.5t24.5 -62.5q0 -47 -35 -81.5t-84 -34.5q-38 0 -63 25.5t-25 62.5zM1307 1649q0 46 34.5 81t83.5 35q38 0 63 -26 t25 -62q0 -47 -35.5 -81.5t-82.5 -34.5q-39 0 -63.5 25.5t-24.5 62.5z" />
<glyph unicode="&#x1e85;" horiz-adv-x="1671" d="M193 1065h174l131 -877q5 7 434 877h162l137 -877l428 877h176l-539 -1065h-178l-141 846l-426 -846h-178zM786 1323q0 46 36 81.5t83 35.5q39 0 63.5 -25.5t24.5 -62.5q0 -48 -35 -82.5t-84 -34.5q-38 0 -63 25.5t-25 62.5zM1122 1323q0 46 35 81.5t84 35.5q38 0 63 -26 t25 -62q0 -47 -36 -82t-83 -35q-39 0 -63.5 25.5t-24.5 62.5z" />
<glyph unicode="&#x1ef2;" horiz-adv-x="1089" d="M260 1434h174l242 -607l446 607h189l-572 -762l-112 -672h-164l115 672zM602 1815h174l98 -291h-137z" />
<glyph unicode="&#x1ef3;" horiz-adv-x="1040" d="M190 1065h172l193 -862l473 862h176l-811 -1432h-168l221 377zM565 1485h174l99 -291h-138z" />
<glyph unicode="&#x2000;" horiz-adv-x="1022" />
<glyph unicode="&#x2001;" horiz-adv-x="2044" />
<glyph unicode="&#x2002;" horiz-adv-x="1022" />
<glyph unicode="&#x2003;" horiz-adv-x="2044" />
<glyph unicode="&#x2004;" horiz-adv-x="681" />
<glyph unicode="&#x2005;" horiz-adv-x="511" />
<glyph unicode="&#x2006;" horiz-adv-x="340" />
<glyph unicode="&#x2007;" horiz-adv-x="340" />
<glyph unicode="&#x2008;" horiz-adv-x="255" />
<glyph unicode="&#x2009;" horiz-adv-x="408" />
<glyph unicode="&#x200a;" horiz-adv-x="113" />
<glyph unicode="&#x2010;" horiz-adv-x="692" d="M174 541l25 151h522l-25 -151h-522z" />
<glyph unicode="&#x2011;" horiz-adv-x="692" d="M174 541l25 151h522l-25 -151h-522z" />
<glyph unicode="&#x2012;" horiz-adv-x="692" d="M174 541l25 151h522l-25 -151h-522z" />
<glyph unicode="&#x2013;" horiz-adv-x="1228" d="M176 547l23 139h1061l-23 -139h-1061z" />
<glyph unicode="&#x2014;" horiz-adv-x="1773" d="M176 547l23 139h1603l-22 -139h-1604z" />
<glyph unicode="&#x2018;" horiz-adv-x="378" d="M258 1118q0 182 215 348l72 -73q-37 -26 -79 -69.5t-54 -80.5q38 -6 60 -33.5t22 -64.5q0 -52 -40 -90.5t-94 -38.5q-45 0 -73.5 27.5t-28.5 74.5z" />
<glyph unicode="&#x2019;" horiz-adv-x="378" d="M248 1090q38 26 79.5 69t53.5 80q-38 6 -60 33.5t-22 64.5q0 52 39.5 90.5t93.5 38.5q45 0 74 -28t29 -74q0 -181 -216 -348z" />
<glyph unicode="&#x201a;" horiz-adv-x="434" d="M72 -174q36 25 73.5 66.5t51.5 82.5q-38 6 -60 34t-22 65q0 52 39.5 90.5t93.5 38.5q45 0 73.5 -28t28.5 -75q0 -182 -215 -348z" />
<glyph unicode="&#x201c;" horiz-adv-x="681" d="M258 1118q0 182 215 348l72 -73q-37 -26 -79 -69.5t-54 -80.5q38 -6 60 -33.5t22 -64.5q0 -52 -40 -90.5t-94 -38.5q-45 0 -73.5 27.5t-28.5 74.5zM561 1118q0 182 215 348l72 -73q-37 -26 -79 -69.5t-54 -80.5q38 -6 60 -33.5t22 -64.5q0 -52 -39.5 -90.5t-93.5 -38.5 q-45 0 -74 28t-29 74z" />
<glyph unicode="&#x201d;" horiz-adv-x="681" d="M248 1090q38 26 79.5 69t53.5 80q-38 6 -60 33.5t-22 64.5q0 52 39.5 90.5t93.5 38.5q45 0 74 -28t29 -74q0 -181 -216 -348zM551 1090q38 26 79.5 69t53.5 80q-38 6 -60 33.5t-22 64.5q0 52 39.5 90.5t93.5 38.5q45 0 74 -28t29 -74q0 -182 -215 -348z" />
<glyph unicode="&#x201e;" horiz-adv-x="681" d="M45 -174q36 25 73.5 66.5t51.5 82.5q-38 6 -59 33.5t-21 63.5q0 53 38.5 92t92.5 39q46 0 74.5 -28t28.5 -75q0 -182 -215 -348zM348 -174q36 25 73.5 66.5t51.5 82.5q-38 6 -59 33.5t-21 63.5q0 53 38.5 92t92.5 39q46 0 74.5 -28t28.5 -75q0 -182 -215 -348z" />
<glyph unicode="&#x2020;" horiz-adv-x="774" d="M223 934l25 143h235l60 357h162l-60 -357h240l-25 -143h-239l-156 -934h-162l156 934h-236z" />
<glyph unicode="&#x2021;" horiz-adv-x="804" d="M150 387l24 143h236l61 371h-235l24 143h236l65 390h160l-66 -390h242l-25 -143h-241l-62 -371h242l-25 -143h-241l-66 -387h-160l66 387h-235z" />
<glyph unicode="&#x2022;" horiz-adv-x="831" d="M164 584q0 164 123.5 283.5t292.5 119.5q133 0 216 -86.5t83 -214.5q0 -164 -123.5 -283.5t-292.5 -119.5q-134 0 -216.5 86t-82.5 215z" />
<glyph unicode="&#x202f;" horiz-adv-x="408" />
<glyph unicode="&#x2030;" horiz-adv-x="2291" d="M143 0l1332 1434h172l-1334 -1434h-170zM268 1100q0 146 110 253t261 107q124 0 200 -77t76 -193q0 -146 -112 -251t-266 -105q-120 0 -194.5 76t-74.5 190zM408 1116q0 -68 41 -111.5t110 -43.5q92 0 153.5 62.5t61.5 150.5q0 69 -41.5 114t-111.5 45q-89 0 -151 -64.5 t-62 -152.5zM872 240q0 146 110.5 253t262.5 107q123 0 199 -77t76 -193q0 -147 -112.5 -252t-264.5 -105q-121 0 -196 75.5t-75 191.5zM1012 256q0 -69 41 -113.5t110 -44.5q92 0 153.5 63t61.5 152q0 69 -41.5 113.5t-113.5 44.5q-89 0 -150 -63.5t-61 -151.5zM1614 240 q0 146 111.5 253t261.5 107q124 0 200 -77t76 -193q0 -147 -113 -252t-266 -105q-121 0 -195.5 75.5t-74.5 191.5zM1753 256q0 -68 42.5 -113t111.5 -45q91 0 153 63t62 152q0 69 -43 113.5t-115 44.5q-87 0 -149 -63.5t-62 -151.5z" />
<glyph unicode="&#x2039;" horiz-adv-x="552" d="M170 598l313 377h162l-317 -377l190 -375h-149z" />
<glyph unicode="&#x203a;" horiz-adv-x="552" d="M102 223l324 375l-188 377h151l195 -377l-320 -375h-162z" />
<glyph unicode="&#x2044;" horiz-adv-x="860" d="M-61 -84l1065 1602h157l-1065 -1602h-157z" />
<glyph unicode="&#x205f;" horiz-adv-x="511" />
<glyph unicode="&#x20ac;" horiz-adv-x="1284" d="M143 510l21 125h108q8 89 29 180h-106l20 125h129q95 229 297 374.5t440 145.5q224 0 342 -88l-92 -135q-106 70 -254 70q-176 0 -324 -100.5t-227 -266.5h568l-31 -125h-586q-28 -96 -31 -180h572l-31 -125h-530q12 -162 126.5 -270.5t295.5 -108.5q91 0 172 24.5 t133 55.5l49 -133q-52 -38 -157.5 -71.5t-219.5 -33.5q-129 0 -236 42t-178.5 116t-114.5 170.5t-53 208.5h-131z" />
<glyph unicode="&#x2116;" horiz-adv-x="2293" d="M160 0l239 1434h166l594 -1172l197 1172h164l-240 -1434h-164l-596 1167l-194 -1167h-166zM1561 467l26 151h670l-27 -151h-669zM1632 1040q0 109 57 206t156.5 155.5t216.5 58.5q139 0 224.5 -90t85.5 -223q0 -169 -126.5 -292.5t-303.5 -123.5q-141 0 -225.5 88 t-84.5 221zM1774 1059q0 -83 50.5 -138t139.5 -55q114 0 190 77.5t76 184.5q0 85 -50.5 141t-139.5 56q-114 0 -190 -79.5t-76 -186.5z" />
<glyph unicode="&#x2122;" horiz-adv-x="1505" d="M281 1319l18 115h504l-19 -115h-190l-105 -623h-122l104 623h-190zM768 696l123 738h149l162 -512l332 512h147l-122 -738h-117l88 531l-293 -447h-119l-143 447l-88 -531h-119z" />
<glyph unicode="&#x2212;" horiz-adv-x="1126" d="M178 569l23 138h962l-22 -138h-963z" />
<glyph unicode="&#x25fc;" horiz-adv-x="1064" d="M0 0v1065h1065v-1065h-1065z" />
<glyph unicode="&#xf6c3;" horiz-adv-x="471" d="M59 -412q100 72 119 131q-39 3 -59.5 29.5t-20.5 61.5q0 50 37 86t88 36q44 0 70 -27.5t26 -72.5q0 -169 -200 -317z" />
<glyph horiz-adv-x="692" d="M193 653l24 152h522l-24 -152h-522z" />
<glyph horiz-adv-x="1228" d="M195 666l22 139h1061l-23 -139h-1060z" />
<glyph horiz-adv-x="1773" d="M195 666l22 139h1604l-23 -139h-1603z" />
<glyph horiz-adv-x="876" d="M193 731l313 377h162l-318 -377l191 -375h-150zM516 731l315 377h162l-319 -377l192 -375h-149z" />
<glyph horiz-adv-x="876" d="M125 356l324 375l-189 377h152l194 -377l-319 -375h-162zM451 356l323 375l-188 377h151l193 -377l-318 -375h-161z" />
<glyph horiz-adv-x="552" d="M193 731l313 377h162l-318 -377l191 -375h-150z" />
<glyph horiz-adv-x="552" d="M125 356l324 375l-189 377h152l194 -377l-319 -375h-162z" />
<glyph horiz-adv-x="612" d="M156 113l200 1196q57 329 387 329l-22 -141q-89 0 -138.5 -48.5t-62.5 -131.5l-203 -1213q-28 -180 140 -180l-25 -141q-161 0 -232 82t-44 248z" />
<glyph horiz-adv-x="612" d="M106 -217l25 141q89 0 137.5 49t61.5 131l202 1213q31 180 -139 180l25 141q333 0 276 -329l-200 -1196q-27 -166 -127 -248t-261 -82z" />
<glyph horiz-adv-x="612" d="M100 -217l312 1855h331l-24 -141h-170l-262 -1573h170l-25 -141h-332z" />
<glyph horiz-adv-x="624" d="M106 -217l25 141h170l262 1573h-170l25 141h332l-312 -1855h-332z" />
<glyph horiz-adv-x="698" d="M180 637l25 147q75 0 121 54t67 178l49 293q57 329 387 329l-24 -141q-170 0 -201 -180l-55 -338q-12 -68 -36.5 -121.5t-54 -82.5t-51.5 -43.5t-40 -20.5q12 -4 25 -13.5t31 -30t27.5 -50t15 -74t-6.5 -101.5l-58 -338q-14 -83 19.5 -131.5t122.5 -48.5l-25 -141 q-330 0 -276 330l49 293q21 123 -8 177t-103 54z" />
<glyph horiz-adv-x="516" d="M123 -344l340 2025h155l-339 -2025h-156z" />
<glyph horiz-adv-x="698" d="M106 -217l25 141q168 0 199 180l57 338q9 55 28 101.5t39.5 74.5t44 49t40 30.5t30.5 13.5q-12 5 -25 14t-31 29.5t-27.5 49.5t-15 73.5t6.5 101.5l55 338q31 180 -139 180l25 141q333 0 276 -329l-49 -293q-21 -123 7.5 -177.5t103.5 -54.5l-25 -147q-74 0 -120.5 -54 t-67.5 -177l-49 -293q-57 -330 -388 -330z" />
<glyph horiz-adv-x="872" d="M20 -166l916 1757h154l-916 -1757h-154z" />
<glyph horiz-adv-x="872" d="M317 1591h150l326 -1757h-150z" />
<glyph horiz-adv-x="528" d="M180 0l195 1073h141l-166 -1073h-170zM373 1329q0 53 41 92t94 39q43 0 71.5 -28.5t28.5 -71.5q0 -52 -42 -90.5t-95 -38.5q-42 0 -70 28t-28 70z" />
<glyph horiz-adv-x="956" d="M133 297q0 78 24 145.5t63.5 116.5t87.5 92t98 80.5t92.5 74.5t73 82.5t38.5 94.5l15 90h161l-16 -96q-11 -64 -42.5 -119t-73 -96t-89.5 -79t-94 -75.5t-83 -77t-60 -92.5t-23 -114q0 -90 55.5 -145.5t155.5 -55.5q54 0 99 15.5t77.5 43.5t52.5 52.5t41 58.5l132 -57 q-138 -263 -424 -263q-156 0 -258.5 92t-102.5 232zM631 1329q0 54 38 92.5t93 38.5q44 0 74 -28.5t30 -71.5q0 -53 -40 -91t-95 -38q-44 0 -72 28t-28 70z" />
<glyph horiz-adv-x="462" d="M236 717q0 53 40 91t95 38q44 0 72 -28t28 -70q0 -54 -38 -93t-93 -39q-44 0 -74 29t-30 72z" />
<glyph horiz-adv-x="831" d="M180 674q0 164 123.5 283.5t292.5 119.5q133 0 216 -86.5t83 -214.5q0 -164 -123.5 -283.5t-292.5 -119.5q-134 0 -216.5 86t-82.5 215z" />
<glyph horiz-adv-x="1134" d="M196 402q-2 138 29 315q29 185 71.5 316.5t110 230.5t166.5 147.5t232 48.5q132 0 215 -50t119 -145t38 -233t-28 -315q-24 -147 -55.5 -259t-78.5 -205.5t-109 -153.5t-146.5 -93t-190.5 -33q-132 0 -215.5 50t-119.5 145.5t-38 233.5zM361.5 453q-3.5 -65 2 -110 t20.5 -88t42 -69t69 -41.5t99 -15.5t104 15.5t81.5 41.5t63.5 69.5t48.5 88.5t37 110.5t28.5 123.5t24 139q10 63 15.5 109t10.5 100t4.5 93t-4.5 81t-15 71t-28.5 56t-43 43t-61 25.5t-79.5 9.5q-65 0 -117 -19.5t-90.5 -59.5t-66.5 -88.5t-49.5 -120.5t-35.5 -139.5 t-28 -160.5q-13 -81 -20.5 -140t-11 -124z" />
<glyph horiz-adv-x="1134" d="M227 0l25 152h291l186 1112l-313 -115l-37 133l409 152h136l-215 -1282h270l-25 -152h-727z" />
<glyph horiz-adv-x="1134" d="M131 0l16 88q16 84 71 165t130.5 148t163 132.5t172 130.5t153.5 130t111.5 142.5t42.5 157.5q0 94 -57.5 152.5t-163.5 58.5q-208 0 -301 -222l-154 41q18 45 42 86.5t66.5 88.5t93 81.5t124 57t158.5 22.5q174 0 270 -101t96 -255q0 -76 -26 -148t-70.5 -132.5 t-102 -118t-122.5 -108t-130.5 -98t-127 -93t-111.5 -87.5t-84.5 -86t-44.5 -86h680l-25 -147h-870z" />
<glyph horiz-adv-x="1134" d="M164 287l149 51q15 -95 79.5 -153t189.5 -58q139 0 239.5 95.5t100.5 234.5q0 237 -281 237h-125l23 133l452 457h-614l26 150h803l-26 -156l-449 -442q62 0 123.5 -20.5t116.5 -60.5t89 -110.5t34 -159.5q0 -141 -74 -259t-197 -184.5t-264 -66.5q-82 0 -148.5 19 t-109.5 49.5t-73 73t-44.5 84t-19.5 86.5z" />
<glyph horiz-adv-x="1134" d="M119 362l20 125l811 947h178l-155 -924h188l-24 -148h-189l-61 -362h-164l61 362h-665zM328 510h481l119 709z" />
<glyph horiz-adv-x="1134" d="M164 287l151 51q13 -95 78.5 -153t190.5 -58q151 0 248.5 109.5t97.5 263.5q0 117 -66.5 191.5t-187.5 74.5q-78 0 -136.5 -25t-117.5 -69l-135 24l155 738h732l-27 -152h-582l-94 -442q116 69 252 69q173 0 276 -106t103 -275q0 -149 -69 -276.5t-192.5 -203 t-273.5 -75.5q-99 0 -176 28.5t-123 76t-71.5 100t-32.5 109.5z" />
<glyph horiz-adv-x="1134" d="M190 430q0 91 8.5 182.5t30.5 195t56 195t89.5 176.5t125.5 146.5t169 98t216 36.5q176 0 305 -102l-96 -127q-95 74 -232 74q-103 0 -188 -46.5t-141.5 -126t-92 -172t-51.5 -196.5q58 66 155.5 116t211.5 50q172 0 265 -104.5t93 -274.5q0 -257 -144.5 -417.5 t-385.5 -160.5q-104 0 -181.5 35.5t-123 99t-67.5 144t-22 178.5zM356 412q0 -283 246 -283q149 0 245.5 107.5t96.5 285.5q0 114 -60 185t-175 71q-101 0 -189 -53.5t-149 -144.5q-15 -99 -15 -168z" />
<glyph horiz-adv-x="1134" d="M334 0l717 1282h-699l25 152h880l-20 -127l-725 -1307h-178z" />
<glyph horiz-adv-x="1134" d="M156 338q0 74 22.5 140t55.5 111.5t77 83t81.5 58.5t74.5 35q-57 31 -103.5 101t-46.5 165q0 184 141.5 306t344.5 122q165 0 268 -90t103 -237q0 -72 -26 -136.5t-67.5 -109t-81.5 -74.5t-79 -47q71 -32 129.5 -110t58.5 -197q0 -139 -72 -250.5t-197 -173.5t-278 -62 q-184 0 -294.5 100t-110.5 265zM328 362q0 -101 67.5 -169t190.5 -68q157 0 253.5 95.5t96.5 225.5q0 109 -71 172.5t-187 63.5q-144 0 -247 -89t-103 -231zM483 1040q0 -88 62 -147t160 -59q122 0 210.5 81.5t88.5 190.5q0 89 -58 145t-164 56q-134 0 -216.5 -79.5 t-82.5 -187.5z" />
<glyph horiz-adv-x="1134" d="M184 76l97 127q95 -74 231 -74q103 0 188 46.5t141.5 126t92 172t51.5 196.5q-58 -66 -155.5 -116t-211.5 -50q-172 0 -265 104.5t-93 274.5q0 257 145 417t386 160q104 0 181.5 -35.5t122.5 -99t67 -143.5t22 -178q0 -91 -8.5 -182.5t-30.5 -195t-56 -195t-89.5 -177 t-125.5 -147t-169 -98t-216 -36.5q-175 0 -305 103zM430 911q0 -114 60.5 -185t175.5 -71q101 0 189 54t149 145q14 92 14 168q0 283 -246 283q-149 0 -245.5 -108t-96.5 -286z" />
</font>
</defs>
</svg>
