<?xml version="1.0" encoding="UTF-8"?>
<svg xmlns="http://www.w3.org/2000/svg"
     xmlns:adl="http://www.kite9.org/schema/adl"
     xmlns:exslt="http://exslt.org/common"
     xmlns:pp="http://www.kite9.org/schema/post-processor"
     xmlns:xlink="http://www.w3.org/1999/xlink"
     contentScriptType="text/ecmascript"
     zoomAndPan="magnify"
     contentStyleType="text/css"
     version="1.0"
     width="1034"
     pp:width="$width"
     preserveAspectRatio="xMidYMid meet"
     height="93"
     pp:height="$height">
   <metadata xmlns:md="http://www.kite9.org/schema/metadata">
      <md:self>http://robs-pro:8080/api/renderer?format=svg</md:self>
   </metadata>
   <defs>
      <style xml:space="preserve">*[k9-format="text-fixed"] {
--kite9-type: TEXT;
--kite9-vertical-align: CENTER;
--kite9-horizontal-align: CENTER;
--kite9-horizontal-sizing: MINIMIZE;
--kite9-vertical-sizing: MINIMIZE;
}

*[k9-format="image"], *[k9-format="image-fixed"] {
--kite9-type: SVG;
--kite9-horizontal-align: CENTER;
--kite9-vertical-align: CENTER;
}

*[k9-format="shape"] {
--kite9-type: CONTAINER;
--kite9-horizontal-align: CENTER;
--kite9-vertical-align: CENTER;
}

*[k9-format="svg"], *[k9-format="svg-fixed"] {
--kite9-type: SVG;
--kite9-horizontal-align: CENTER;
--kite9-vertical-align: CENTER;
}

*[k9-format="container"] {
--kite9-type: CONTAINER;
--kite9-horizontal-sizing: MINIMIZE;
--kite9-vertical-sizing: MINIMIZE;
}

*[k9-format="text-image-portrait"], *[k9-format="text-image-captioned"], *[k9-format="text-shape-captioned"], *[k9-format="text-shape-portrait"], *[k9-format="text-shape-inline"] {
--kite9-type: CONTAINER;
--kite9-horizontal-sizing: MINIMIZE;
--kite9-vertical-sizing: MINIMIZE;
}

*[k9-format="text-image-portrait"], *[k9-format="text-shape-portrait"] {
--kite9-layout: DOWN;
}

*[k9-format="text-shape-captioned"] &gt; g &gt; *[k9-elem="depiction"], *[k9-format="text-image-portrait"] &gt; g &gt; *[k9-elem="depiction"], *[k9-format="text-shape-portrait"] &gt; g &gt; *[k9-elem="depiction"] {
--kite9-type: SVG;
--kite9-horizontal-align: CENTER;
--kite9-connections: SEPARATE;
}

*[k9-format="text-shape-inline"] &gt; g &gt; *[k9-elem="caption"], *[k9-format="text-image-portrait"] &gt; g &gt; *[k9-elem="caption"], *[k9-format="text-shape-portrait"] &gt; g &gt; *[k9-elem="caption"], *[k9-format="text-shape-captioned"] &gt; g &gt; *[k9-elem="caption"] {
--kite9-type: TEXT;
--kite9-horizontal-align: CENTER;
--kite9-vertical-align: CENTER;
--kite9-horizontal-sizing: MINIMIZE;
--kite9-vertical-sizing: MINIMIZE;
}

*[k9-format="text-shape-captioned"] &gt; g &gt; *[k9-elem="shape-align"] {
--kite9-type: LINK;
}

*[k9-format="text-shape-captioned"] &gt; g &gt; *[k9-elem="shape-align"] &gt; g &gt; *[k9-elem="from"], *[k9-format="text-shape-captioned"] &gt; g &gt; *[k9-elem="shape-align"] &gt; g &gt; *[k9-elem="to"] {
--kite9-type: LINK_END;
}

*[k9-elem="diagram"] {
--kite9-type: DIAGRAM;
--kite9-traversal-bottom: LEAVING;
--kite9-traversal-left: LEAVING;
--kite9-traversal-right: LEAVING;
--kite9-traversal-top: LEAVING;
}

*[k9-elem="group"] {
--kite9-horizontal-sizing: MINIMIZE;
--kite9-vertical-sizing: MINIMIZE;
--kite9-traversal-bottom: ALWAYS;
--kite9-traversal-left: ALWAYS;
--kite9-traversal-right: ALWAYS;
--kite9-traversal-top: ALWAYS;
--kite9-min-width: 40pt;
--kite9-min-height: 40pt;
}

*[k9-elem="container"] {
--kite9-padding-top: 15pt;
--kite9-padding-right: 15pt;
--kite9-padding-bottom: 15pt;
--kite9-padding-left: 15pt;
--kite9-margin-top: 15pt;
--kite9-margin-right: 15pt;
--kite9-margin-bottom: 15pt;
--kite9-margin-left: 15pt;
--kite9-horizontal-sizing: MINIMIZE;
--kite9-vertical-sizing: MINIMIZE;
}

*[k9-elem="label"] {
--kite9-usage: LABEL;
--kite9-horizontal-sizing: MINIMIZE;
--kite9-vertical-sizing: MINIMIZE;
--kite9-direction: DOWN;
}

*[k9-elem="label-inner"] {
--kite9-horizontal-sizing: MINIMIZE;
--kite9-vertical-sizing: MINIMIZE;
--kite9-padding-top: 4pt;
--kite9-padding-right: 4pt;
--kite9-padding-bottom: 4pt;
--kite9-padding-left: 4pt;
--kite9-margin-top: 4pt;
--kite9-margin-right: 4pt;
--kite9-margin-bottom: 4pt;
--kite9-margin-left: 4pt;
}

*[k9-elem="label"][end="to"] {
--kite9-link-end: TO;
}

*[k9-elem="label"][end="from"] {
--kite9-link-end: FROM;
}

*[k9-elem="table"] {
--kite9-layout: GRID;
--kite9-padding-top: 10pt;
--kite9-padding-right: 10pt;
--kite9-padding-bottom: 10pt;
--kite9-padding-left: 10pt;
}

*[k9-elem="cell"] {
--kite9-usage: REGULAR;
--kite9-vertical-align: CENTER;
--kite9-horizontal-align: CENTER;
--kite9-horizontal-sizing: MINIMIZE;
--kite9-vertical-sizing: MINIMIZE;
text-align: center;
--kite9-min-width: 30pt;
--kite9-min-height: 30pt;
--kite9-traversal-bottom: ALWAYS;
--kite9-traversal-left: ALWAYS;
--kite9-traversal-right: ALWAYS;
--kite9-traversal-top: ALWAYS;
}

*[k9-format="link-align"], *[k9-format="link-basic"] {
--kite9-type: LINK;
--kite9-link-from-xpath: "descendant::*[@k9-elem='from']/@reference";
--kite9-link-to-xpath: "descendant::*[@k9-elem='to']/@reference";
}

*[k9-elem="link-grab"], *[k9-elem="align-grab"], *[k9-elem="grab"], *[k9-elem="align-body"], *[k9-elem="link-body"] {
--kite9-usage: DECAL;
--kite9-type: SVG;
fill: none;
}

*[k9-elem="from"], *[k9-elem="to"] {
fill: rgb(255, 255, 255);
fill-opacity: 0.01;
}

*[k9-elem="link"] {
--kite9-margin-top: 20pt;
--kite9-margin-right: 20pt;
--kite9-margin-bottom: 20pt;
--kite9-margin-left: 20pt;
--kite9-link-corner-radius: 6pt;
}

*.indicators-on *[id] *[k9-elem="align-body"] {
stroke: rgb(187, 221, 238);
stroke-opacity: 1;
}

*[k9-elem="from"] {
--kite9-link-end: FROM;
}

*[k9-elem="to"] {
--kite9-link-end: TO;
}

*[k9-elem="from"].gap, *[k9-elem="to"].gap {
--kite9-marker-reserve: 20pt;
}

*[k9-elem="from"][shape="open-diamond"], *[k9-elem="to"][shape="open-diamond"] {
--kite9-marker-reserve: 8pt;
}

*[k9-elem="from"][shape="open-arrow"], *[k9-elem="to"][shape="open-arrow"] {
--kite9-marker-reserve: 6pt;
}

*[k9-elem="from"], *[k9-elem="to"] {
--kite9-type: LINK_END;
--kite9-padding-top: 8pt;
--kite9-padding-right: 8pt;
--kite9-padding-bottom: 8pt;
--kite9-padding-left: 8pt;
}

*[k9-elem="port"] {
--kite9-type: PORT;
}

*[k9-elem="hub"] {
--kite9-type: SVG;
--kite9-margin-top: 0;
--kite9-margin-right: 0;
--kite9-margin-bottom: 0;
--kite9-margin-left: 0;
--kite9-min-width: 10pt;
--kite9-min-height: 10pt;
}

*[k9-elem="group"] {
--kite9-type: CONTAINER;
--kite9-margin-top: 20pt;
--kite9-margin-right: 20pt;
--kite9-margin-bottom: 20pt;
--kite9-margin-left: 20pt;
}

*[k9-elem="textarea"] {
--kite9-margin-top: 4pt;
--kite9-margin-right: 4pt;
--kite9-margin-bottom: 4pt;
--kite9-margin-left: 4pt;
--kite9-vertical-align: CENTER;
--kite9-horizontal-align: CENTER;
}

*[id] &gt; *[k9-highlight] {
}

*.indicators-on *[id] &gt; *[k9-highlight~="grab"] {
stroke-width: 10pt;
fill-opacity: 0.5;
}

*.indicators-on *[id] &gt; *[k9-highlight~="bar"] {
stroke-width: 10pt;
stroke-opacity: 0.1;
}

*.indicators-on *[id] &gt; *[k9-highlight~="stroke"] {
stroke: rgb(183, 192, 254);
stroke-opacity: 0.8;
stroke-width: 1pt;
stroke-dasharray: none;
}

*.indicators-on *[id] &gt; *[k9-highlight~="stroke"] &gt; image {
filter: url(#highlight-visible);
}

*.indicators-on *[id] &gt; *[k9-highlight~="fill"] {
fill: rgb(183, 192, 254);
fill-opacity: 0.6;
}

*.indicators-off *[id] &gt; *[k9-highlight~="fill"] {
fill-opacity: 0;
}

*.indicators-off *[id] &gt; *[k9-highlight~="stroke"] {
stroke-opacity: 0;
}

*.indicators-off *[id] &gt; *[k9-highlight~="stroke"] &gt; image {
filter: url(#highlight-invisible);
}

*.indicators-on *[id][default] &gt; *[k9-highlight~="bar"], *.indicators-on *[id][default] &gt; g &gt; *[k9-highlight~="bar"] {
stroke-width: 10pt;
stroke-opacity: 0.8;
stroke: rgb(253, 152, 112);
}

*.indicators-on *[id][default] &gt; *[k9-highlight~="pulse"], *.indicators-on *[id][default] &gt; g &gt; *[k9-highlight~="pulse"] {
fill-opacity: 1;
fill: rgb(253, 152, 112);
}

*.mouseover &gt; g &gt; *[k9-highlight~="stroke"], *.mouseover &gt; g &gt; *[k9-highlight~="outline"], *.mouseover &gt; g &gt; *[k9-highlight~="bar"], *.mouseover &gt; *[k9-highlight~="stroke"], *.mouseover &gt; *[k9-highlight~="outline"], *.mouseover &gt; *[k9-highlight~="bar"] {
stroke: rgb(187, 221, 238);
stroke-opacity: 1;
}

*.mouseover &gt; g &gt; *[k9-highlight~="pulse"], *.mouseover &gt; g &gt; *[k9-highlight~="fill"], *.mouseover &gt; g &gt; *[k9-highlight~="grab"], *.mouseover &gt; *[k9-highlight~="pulse"], *.mouseover &gt; *[k9-highlight~="fill"], *.mouseover &gt; *[k9-highlight~="grab"], *.mouseover.grid-temporary {
fill: rgb(204, 238, 255);
fill-opacity: 0.8;
}

*.selected &gt; g &gt; *[k9-highlight~="outline"], *.selected &gt; g &gt; *[k9-highlight~="stroke"], *.selected &gt; g &gt; *[k9-highlight~="bar"], *.selected &gt; *[k9-highlight~="outline"], *.selected &gt; *[k9-highlight~="stroke"], *.selected &gt; *[k9-highlight~="bar"] {
stroke: rgb(255, 204, 0);
stroke-opacity: 0.8;
}

*[k9-elem="_temporary"].selected, *.selected &gt; g &gt; *[k9-highlight~="pulse"], *.selected &gt; g &gt; *[k9-highlight~="fill"], *.selected &gt; g &gt; *[k9-highlight~="grab"], *.selected &gt; *[k9-highlight~="pulse"], *.selected &gt; *[k9-highlight~="fill"], *.selected &gt; *[k9-highlight~="grab"] {
fill: rgb(255, 204, 0);
fill-opacity: 0.8;
}

*.dropping &gt; g &gt; *[k9-highlight~="outline"], *.dropping &gt; g &gt; *[k9-highlight~="stroke"], *.dropping &gt; g &gt; *[k9-highlight~="bar"], *.dropping &gt; *[k9-highlight~="outline"], *.dropping &gt; *[k9-highlight~="stroke"], *.dropping &gt; *[k9-highlight~="bar"] {
stroke: rgb(220, 221, 221);
stroke-opacity: 0.8;
}

*.dropping &gt; g &gt; *[k9-highlight~="pulse"], *.dropping &gt; g &gt; *[k9-highlight~="fill"], *.dropping &gt; g &gt; *[k9-highlight~="grab"], *.dropping &gt; *[k9-highlight~="pulse"], *.dropping &gt; *[k9-highlight~="fill"], *.dropping &gt; *[k9-highlight~="grab"] {
fill: rgb(220, 221, 221);
fill-opacity: 0.8;
}

*[k9-elem="diagram"].selected &gt; *[k9-highlight] {
fill-opacity: 0;
fill: white;
}

*.inactive &gt; *[k9-highlight~="outline"], *.inactive &gt; *[k9-highlight~="stroke"], *.inactive &gt; *[k9-highlight~="bar"] {
stroke-opacity: 0.2;
}

*.inactive &gt; *[k9-highlight~="pulse"], *.inactive &gt; *[k9-highlight~="fill"], *.inactive &gt; *[k9-highlight~="grab"], *.inactive &gt; g &gt; text {
fill-opacity: 0.2;
}

*.indicators-on *.grid-temporary {
fill-opacity: 0.3;
stroke: none;
}

*[k9-elem="action"] {
--kite9-horizontal-sizing: MINIMIZE;
--kite9-vertical-sizing: MINIMIZE;
--kite9-margin-top: 10pt;
--kite9-margin-right: 10pt;
--kite9-margin-bottom: 10pt;
--kite9-margin-left: 10pt;
--kite9-padding-top: 12pt;
--kite9-padding-right: 22pt;
--kite9-padding-bottom: 12pt;
--kite9-padding-left: 12pt;
stroke-width: 1pt;
}

*[k9-elem="action"].left {
--kite9-padding-left: 22pt;
--kite9-padding-right: 12pt;
}

*[k9-elem="glyph"] &gt; g &gt; *[k9-elem="caption"], *[k9-elem="action"] &gt; g &gt; *[k9-elem="caption"] {
--kite9-margin-top: 0pt;
--kite9-margin-right: 0pt;
--kite9-margin-bottom: 0pt;
--kite9-margin-left: 0pt;
--kite9-padding-top: 0pt;
--kite9-padding-right: 0pt;
--kite9-padding-bottom: 0pt;
--kite9-padding-left: 0pt;
fill: black;
}

*[k9-elem="glyph"] {
--kite9-layout: DOWN;
--kite9-padding-top: 6pt;
--kite9-padding-right: 10pt;
--kite9-padding-bottom: 6pt;
--kite9-padding-left: 10pt;
--kite9-margin-top: 10pt;
--kite9-margin-right: 10pt;
--kite9-margin-left: 10pt;
--kite9-margin-bottom: 10pt;
}

*[k9-elem="artifact"], *[k9-elem="cash"], *[k9-elem="document"], *[k9-elem="users"], *[k9-elem="computer"], *[k9-elem="interface"], *[k9-elem="component"], *[k9-elem="channel-artifact"], *[k9-elem="internal-model-artifact"], *[k9-elem="protocol-artifact"], *[k9-elem="agent-artifact"], *[k9-elem="image-artifact"], *[k9-elem="generic-artifact"] {
--kite9-margin-top: 10pt;
--kite9-margin-right: 10pt;
--kite9-margin-bottom: 10pt;
--kite9-margin-left: 10pt;
--kite9-link-inset: 10pt;
--kite9-link-gutter: 10pt;
--kite9-layout: VERTICAL;
--kite9-padding-top: 10pt;
--kite9-padding-right: 10pt;
--kite9-padding-bottom: 10pt;
--kite9-padding-left: 10pt;
--kite9-min-width: 110pt;
--kite9-min-height: 140pt;
}

*[k9-elem="arrow"], *[k9-elem="block"] {
--kite9-padding-top: 8pt;
--kite9-padding-right: 8pt;
--kite9-padding-bottom: 8pt;
--kite9-padding-left: 8pt;
--kite9-horizontal-sizing: MINIMIZE;
--kite9-vertical-sizing: MINIMIZE;
--kite9-connections: SEPARATE;
font-size: 15pt;
font-weight: 500;
--kite9-link-inset: 3pt;
}

*[k9-elem="block"] &gt; g &gt; *[k9-elem="caption"] {
--kite9-margin-top: 5pt;
--kite9-margin-right: 5pt;
--kite9-margin-bottom: 5pt;
--kite9-margin-left: 5pt;
--kite9-padding-top: 5pt;
--kite9-padding-right: 5pt;
--kite9-padding-bottom: 5pt;
--kite9-padding-left: 5pt;
}

*[k9-elem="arrow"] &gt; g &gt; *[k9-elem="caption"] {
--kite9-margin-top: 0pt;
--kite9-margin-right: 0pt;
--kite9-margin-bottom: 0pt;
--kite9-margin-left: 0pt;
--kite9-padding-top: 0pt;
--kite9-padding-right: 0pt;
--kite9-padding-bottom: 0pt;
--kite9-padding-left: 0pt;
}

*[k9-elem="description"] {
--kite9-padding-top: 10pt;
--kite9-padding-right: 10pt;
--kite9-padding-bottom: 10pt;
--kite9-padding-left: 10pt;
--kite9-usage: REGULAR;
--kite9-text-bounds-width: 250pt;
--kite9-direction: DOWN;
}

*[k9-elem="planner"] {
--kite9-layout: GRID;
--kite9-padding-top: 10pt;
--kite9-padding-right: 10pt;
--kite9-padding-bottom: 10pt;
--kite9-padding-left: 10pt;
}

*[k9-elem="planner-cell"], *[k9-elem="planner-header"] {
--kite9-usage: REGULAR;
--kite9-vertical-align: CENTER;
--kite9-horizontal-align: CENTER;
--kite9-horizontal-sizing: MINIMIZE;
--kite9-vertical-sizing: MINIMIZE;
text-align: center;
--kite9-min-width: 230pt;
--kite9-min-height: 30pt;
--kite9-traversal-bottom: ALWAYS;
--kite9-traversal-left: ALWAYS;
--kite9-traversal-right: ALWAYS;
--kite9-traversal-top: ALWAYS;
--kite9-padding-top: 10pt;
--kite9-padding-right: 10pt;
--kite9-padding-bottom: 10pt;
--kite9-padding-left: 10pt;
--kite9-layout: RIGHT;
}

*[k9-elem="planner-header"] {
--kite9-min-width: 60pt;
--kite9-min-height: 30pt;
}

*[k9-elem="mitigated"] {
--kite9-min-width: 120pt;
--kite9-min-height: 160pt;
}

*[k9-elem="hidden"] {
--kite9-min-width: 120pt;
--kite9-min-height: 160pt;
}

*[k9-elem="risk"] {
--kite9-layout: DOWN;
--kite9-margin-top: 10pt;
--kite9-margin-right: 10pt;
--kite9-margin-bottom: 10pt;
--kite9-margin-left: 10pt;
--kite9-link-inset: 10pt;
--kite9-link-gutter: 10pt;
--kite9-padding-top: 10pt;
--kite9-padding-right: 10pt;
--kite9-padding-bottom: 10pt;
--kite9-padding-left: 10pt;
--kite9-min-width: 120pt;
--kite9-min-height: 160pt;
}

*[k9-elem="title"][k9-format="text-fixed"] {
--kite9-horizontal-align: CENTER;
--kite9-vertical-align: BOTTOM;
--kite9-horizontal-sizing: MINIMIZE;
--kite9-vertical-sizing: MINIMIZE;
--kite9-type: TEXT;
--kite9-text-bounds-width: 110pt;
--kite9-padding-top: 0pt;
--kite9-padding-right: 0pt;
--kite9-padding-bottom: 0pt;
--kite9-padding-left: 0pt;
}

*[k9-elem="code"][k9-format="text-fixed"] {
--kite9-horizontal-align: CENTER;
--kite9-vertical-align: TOP;
--kite9-horizontal-sizing: MINIMIZE;
--kite9-vertical-sizing: MINIMIZE;
--kite9-padding-top: 0pt;
--kite9-padding-right: 0pt;
--kite9-padding-bottom: 0pt;
--kite9-padding-left: 0pt;
--kite9-margin-top: 0pt;
--kite9-margin-right: 0pt;
--kite9-margin-bottom: 10pt;
--kite9-margin-left: 0pt;
}

*[k9-elem="risk"] &gt; g &gt; *[k9-format="image-fixed"] {
--kite9-vertical-align: TOP;
--kite9-horizontal-align: CENTER;
}

*[k9-elem="celltext"] {
--kite9-usage: REGULAR;
--kite9-padding-top: 10pt;
--kite9-padding-right: 10pt;
--kite9-padding-bottom: 10pt;
--kite9-padding-left: 10pt;
--kite9-vertical-align: CENTER;
--kite9-horizontal-align: LEFT;
--kite9-horizontal-sizing: MINIMIZE;
--kite9-vertical-sizing: MINIMIZE;
font-size: 40pt;
fill: black;
font-family: "gothic";
stroke: none;
--kite9-text-bounds-width: 350pt;
}

*[k9-elem="celltext"].bold {
font-family: "gothic-bold";
}

*[k9-elem="celltext"].bottom {
--kite9-vertical-align: BOTTOM;
}

*[k9-elem="celltext"] *[k9-elem="text-label"] {
--kite9-horizontal-align: LEFT;
}

*[k9-elem="bulleted"] {
--kite9-usage: REGULAR;
--kite9-type: CONTAINER;
--kite9-vertical-align: TOP;
--kite9-horizontal-align: LEFT;
font-size: 40pt;
fill: black;
font-family: "gothic";
stroke: none;
}

*[k9-elem="ctext"] {
--kite9-usage: REGULAR;
--kite9-vertical-align: TOP;
--kite9-horizontal-align: LEFT;
font-size: 40pt;
fill: black;
font-family: "gothic";
stroke: none;
--kite9-type: TEXT;
}

*[k9-elem="btext"] {
--kite9-usage: REGULAR;
--kite9-vertical-align: TOP;
--kite9-horizontal-align: LEFT;
font-size: 40pt;
fill: black;
font-family: "gothic-bold";
stroke: none;
--kite9-type: TEXT;
}

*[k9-elem="tick"] {
--kite9-usage: REGULAR;
--kite9-type: CONTAINER;
}

*[k9-elem="table"] *[k9-elem="risk"], *[k9-elem="table"] *[k9-elem="tick"] {
--kite9-horizontal-align: CENTER;
--kite9-margin-top: 20pt;
--kite9-margin-right: 20pt;
--kite9-margin-bottom: 20pt;
--kite9-margin-left: 20pt;
}

*[k9-elem="table"] *[k9-elem="celltext"].bottom {
--kite9-vertical-align: BOTTOM;
}

*[k9-elem="table"] *[k9-elem="celltext"].top {
--kite9-vertical-align: TOP;
}

*[k9-elem="description"], *[k9-elem="long-description"], *.description {
font-size: 14pt;
font-family: "gothic-italic";
font-style: italic;
--kite9-padding-top: 10pt;
--kite9-padding-right: 10pt;
--kite9-padding-bottom: 10pt;
--kite9-padding-left: 10pt;
--kite9-text-bounds-width: 250pt;
}

*[k9-elem="leg"] {
--kite9-type: CONTAINER;
--kite9-layout: DOWN;
--kite9-min-height: 110pt;
--kite9-min-width: 70pt;
--kite9-horizontal-sizing: MINIMIZE;
--kite9-vertical-sizing: MINIMIZE;
--kite9-margin-top: 0pt;
--kite9-margin-right: 0pt;
--kite9-margin-bottom: 0pt;
--kite9-margin-left: 0pt;
--kite9-vertical-align: BOTTOM;
}

*[k9-elem="plinth"] {
--kite9-type: CONTAINER;
--kite9-horizontal-sizing: MAXIMIZE;
--kite9-vertical-sizing: MAXIMIZE;
}

*[k9-elem="big-image"] {
--kite9-margin-top: 10pt;
--kite9-margin-right: 10pt;
--kite9-margin-bottom: 10pt;
--kite9-margin-left: 10pt;
--kite9-link-inset: 10pt;
--kite9-link-gutter: 10pt;
--kite9-layout: VERTICAL;
--kite9-padding-top: 10pt;
--kite9-padding-right: 10pt;
--kite9-padding-bottom: 10pt;
--kite9-padding-left: 10pt;
--kite9-min-width: 110pt;
--kite9-min-height: 140pt;
}

*[k9-elem="diagram"].principle {
fill-opacity: 1;
fill: rgb(245, 245, 245);
--kite9-layout: VERTICAL;
--kite9-padding-left: 0pt;
--kite9-padding-right: 0pt;
--kite9-padding-top: 0pt;
--kite9-padding-bottom: 0pt;
}

*[k9-elem="group"].principle-outline {
fill: white;
fill-opacity: 1;
--kite9-padding-top: 50pt;
--kite9-padding-right: 50pt;
--kite9-padding-bottom: 50pt;
--kite9-padding-left: 50pt;
}

*[k9-elem="group"].principle-top {
--kite9-layout: GRID;
--kite9-grid-columns: 2;
--kite9-grid-rows: 2;
--kite9-padding-top: 0pt;
--kite9-padding-right: 0pt;
--kite9-padding-bottom: 0pt;
--kite9-padding-left: 0pt;
--kite9-margin-top: 3pt;
--kite9-margin-right: 3pt;
--kite9-margin-bottom: 3pt;
--kite9-margin-left: 3pt;
--kite9-horizontal-sizing: MAXIMIZE;
--kite9-vertical-sizing: MAXIMIZE;
--kite9-min-width: 1000pt;
--kite9-min-height: 535pt;
}

*[k9-elem="group"].principle-left-top {
--kite9-horizontal-sizing: MINIMIZE;
--kite9-vertical-sizing: MINIMIZE;
--kite9-layout: DOWN;
--kite9-padding-top: 10pt;
--kite9-margin-top: 0pt;
}

*[k9-elem="group"].principle-right-top {
--kite9-horizontal-sizing: MAXIMIZE;
--kite9-vertical-sizing: MINIMIZE;
--kite9-layout: DOWN;
--kite9-padding-top: 10pt;
--kite9-padding-right: 10pt;
--kite9-padding-bottom: 10pt;
--kite9-padding-left: 30pt;
--kite9-margin-top: 0pt;
--kite9-margin-right: 0pt;
--kite9-margin-bottom: 0pt;
--kite9-margin-left: 0pt;
}

*[k9-elem="group"].principle-left-bottom {
--kite9-horizontal-sizing: MINIMIZE;
--kite9-vertical-sizing: MAXIMIZE;
--kite9-layout: DOWN;
--kite9-padding-top: 10pt;
--kite9-padding-right: 10pt;
--kite9-padding-bottom: 10pt;
--kite9-padding-left: 10pt;
--kite9-margin-top: 0pt;
--kite9-margin-right: 0pt;
--kite9-margin-bottom: 0pt;
--kite9-margin-left: 0pt;
}

*[k9-elem="group"].principle-right-bottom {
--kite9-horizontal-sizing: MAXIMIZE;
--kite9-vertical-sizing: MAXIMIZE;
--kite9-layout: DOWN;
--kite9-padding-top: 10pt;
--kite9-padding-right: 10pt;
--kite9-padding-bottom: 10pt;
--kite9-padding-left: 30pt;
--kite9-margin-top: 0pt;
--kite9-margin-right: 0pt;
--kite9-margin-bottom: 0pt;
--kite9-margin-left: 0pt;
}

*[k9-elem="risk-first-logo"].principle {
--kite9-vertical-align: BOTTOM;
--kite9-padding-top: 0;
--kite9-padding-right: 0;
--kite9-padding-bottom: 0;
--kite9-padding-left: 0;
--kite9-margin-top: 0;
--kite9-margin-right: 0;
--kite9-margin-bottom: 0;
--kite9-margin-left: 0;
}

*[k9-elem="page-title"].principle-site {
font-family: "Metropolis";
font-size: 14pt;
fill: rgb(97, 162, 161);
letter-spacing: 1.4;
font-weight: 600;
text-align: center;
--kite9-margin-top: 0;
}

*[k9-elem="page-title"].number {
font-family: "Metropolis";
font-size: 60pt;
fill: rgb(245, 62, 121);
indent: 0;
font-weight: 600;
--kite9-padding-bottom: 0;
--kite9-margin-bottom: 0;
--kite9-vertical-align: TOP;
}

*[k9-elem="page-title"].principle {
font-family: "Metropolis";
font-size: 60pt;
font-weight: 600;
fill: rgb(0, 0, 0);
text-align: left;
--kite9-padding-bottom: 0;
--kite9-margin-bottom: 0;
--kite9-margin-right: 30pt;
--kite9-vertical-align: TOP;
}

*[k9-elem="page-summary"].principle {
font-family: "Metropolis";
font-size: 25pt;
--kite9-text-bounds-width: 600pt;
--kite9-padding-top: 0pt;
--kite9-padding-right: 0pt;
--kite9-padding-bottom: 0pt;
--kite9-padding-left: 0pt;
fill: rgb(97, 162, 161);
indent: 0;
text-align: center;
font-weight: 300;
font-style: italic;
}

*[k9-texture="none"] {
fill: white;
fill-opacity: 0.001;
stroke-opacity: 0.001;
}

*[k9-texture="background"] {
fill: white;
fill-opacity: 1;
stroke: black;
stroke-opacity: 1;
}

*[k9-texture~="default"] {
fill: white;
fill-opacity: 1;
}

*[k9-texture~="outline"] {
fill: white;
fill-opacity: 0.001;
stroke: black;
stroke-opacity: 1;
}

*[k9-texture~="foreground"] {
fill: black;
fill-opacity: 1;
stroke: none;
stroke-width: 0;
}

*[k9-texture="background"][k9-elem="container"] {
stroke: black;
stroke-width: 1pt;
}

*[k9-texture="background"][k9-elem="container"].solid &gt; g.k9-shape &gt; rect {
stroke-dasharray: none;
}

*[k9-texture="background"][k9-elem="container"].dotted &gt; g.k9-shape &gt; rect {
stroke-dasharray: 4 4;
}

*[k9-elem="from"], *[k9-elem="to"] {
fill: rgb(255, 255, 255);
fill-opacity: 0.01;
}

*[k9-elem="link"] {
stroke: black;
stroke-width: 2pt;
fill: none;
}

*[k9-elem="link"].invisible {
stroke: none;
}

*[k9-elem="link"].dotted {
stroke-dasharray: 8;
}

*[k9-elem="link"].thick {
stroke-width: 4pt;
}

*[k9-elem="link"].grey {
stroke: rgb(204, 204, 204);
}

*[k9-elem="hub"][k9-texture="background"] {
fill: rgb(255, 255, 255);
stroke: none;
}

*[k9-elem="cell"] {
text-align: center;
}

*[k9-elem="_temporary"], *[k9-elem="cell"] &gt; *[k9-texture="background"] {
fill: rgb(255, 255, 255);
fill-opacity: 0.01;
}

*[k9-elem="cell"].bordered {
stroke: black;
stroke-width: 2pt;
}

*[k9-elem="cell"].shaded {
fill: rgb(222, 222, 222);
fill-opacity: 1;
}

*[k9-elem="table"].invisible *[k9-elem="cell"], *[k9-elem="table"].invisible *[k9-elem="_temporary"], *[k9-elem="cell"].invisible, *[k9-elem="table"].invisible {
stroke: none;
}

*[k9-elem="cell"].left {
--kite9-horizontal-align: LEFT;
text-align: left;
}

*[k9-elem="cell"].right {
--kite9-horizontal-align: RIGHT;
text-align: right;
}

*[k9-elem="cell"].bottom {
--kite9-vertical-align: BOTTOM;
}

*[k9-elem="cell"].top {
--kite9-vertical-align: TOP;
}

*[k9-elem="label"] *[k9-texture="background"] {
stroke: none;
}

*[k9-elem="label-inner"], *[k9-elem="label"] {
--kite9-margin-top: 0;
--kite9-margin-right: 0;
--kite9-margin-bottom: 0;
--kite9-margin-left: 0;
--kite9-padding-top: 0;
--kite9-padding-right: 0;
--kite9-padding-bottom: 0;
--kite9-padding-left: 0;
}

*[k9-elem="from"], *[k9-elem="to"] {
fill: rgb(255, 255, 255);
fill-opacity: 0.01;
}

*[k9-elem="link"] {
stroke: black;
stroke-width: 2pt;
fill: none;
}

*[k9-elem="link"].invisible {
stroke: none;
}

*[k9-elem="link"].dotted {
stroke-dasharray: 8;
}

*[k9-elem="link"].thick {
stroke-width: 4pt;
}

*[k9-elem="link"].grey {
stroke: rgb(204, 204, 204);
}

*[k9-elem="hub"][k9-texture="background"] {
fill: rgb(255, 255, 255);
stroke: none;
}

*#_moveLayer *[highlight~="fill"], *#_moveLayer *[highlight~="pulse"] {
fill: rgb(183, 192, 254);
fill-opacity: 0.7;
}

*#_moveLayer *[highlight~="stroke"], *#_moveLayer *[highlight~="outline"] {
stroke: rgb(183, 192, 254);
stroke-opacity: 0.7;
}

*.indicators-on *[k9-info~="contradicting:"] &gt; g &gt; *[k9-highlight~="stroke"], *.indicators-on *[k9-info~="contradicting:"] &gt; g &gt; *[k9-highlight~="outline"], *.indicators-on *[k9-info~="contradicting:"] &gt; g &gt; *[k9-highlight~="bar"], *.indicators-on *[k9-info~="contradicting:"] &gt; *[k9-highlight~="stroke"], *.indicators-on *[k9-info~="contradicting:"] &gt; *[k9-highlight~="outline"], *.indicators-on *[k9-info~="contradicting:"] &gt; *[k9-highlight~="bar"] {
stroke: rgb(255, 89, 86);
stroke-opacity: 0.5;
}

*.indicators-on *[k9-info~="contradicting:"] &gt; g &gt; *[k9-highlight~="stroke"], *.indicators-on *[k9-info~="contradicting:"] &gt; g &gt; *[k9-highlight~="outline"], *.indicators-on *[k9-info~="contradicting:"] &gt; g &gt; *[k9-highlight~="bar"], *.indicators-on *[k9-info~="contradicting:"] &gt; *[k9-highlight~="stroke"], *.indicators-on *[k9-info~="contradicting:"] &gt; *[k9-highlight~="outline"], *.indicators-on *[k9-info~="contradicting:"] &gt; *[k9-highlight~="bar"] {
fill: rgb(255, 89, 86);
fill-opacity: 0.5;
}

@media editor {
*[k9-elem="diagram"] {
--kite9-padding-top: 200pt;
--kite9-padding-right: 200pt;
--kite9-padding-bottom: 200pt;
--kite9-padding-left: 200pt;
--kite9-min-width: 50pt;
--kite9-min-height: 50pt;
}
}

*[media="editor"] *[k9-elem="diagram"] {
--kite9-padding-top: 200pt;
--kite9-padding-right: 200pt;
--kite9-padding-bottom: 200pt;
--kite9-padding-left: 200pt;
--kite9-min-width: 50pt;
--kite9-min-height: 50pt;
}

*[k9-elem].attention {
stroke: rgb(255, 89, 86);
stroke-opacity: 1;
}

svg {
cursor: pointer;
}

*#_update {
overflow: hidden;
}

*[k9-elem="box"] &gt; *[k9-texture="background"] {
fill: rgb(204, 204, 170);
fill-opacity: 1;
stroke: rgb(170, 170, 136);
stroke-dasharray: none;
}

*[k9-texture="foreground"], *[k9-texture="background"] &gt; g &gt; text {
fill: rgb(36, 51, 20);
font-family: "metropolis";
font-size: 50pt;
}

*[k9-elem="label"] {
fill: black;
font-family: "metropolis";
font-size: 35pt;
}

*[k9-elem="box"].shaded {
fill: rgb(170, 85, 0);
}

*[k9-elem="textarea"].warning {
fill: rgb(255, 136, 0);
}

*[k9-elem="votes"] {
--kite9-type: SVG;
--kite9-usage: DECAL;
}

*[k9-elem="votes"] &gt; g &gt; rect.back {
fill: rgb(122, 164, 127);
fill-opacity: 0.9;
stroke: none;
}

*[k9-elem="votes"] &gt; g &gt; text.count {
font-size: 16pt;
fill: white;
fill-opacity: 1;
text-anchor: middle;
dominant-baseline: middle;
}

*[k9-elem="votes"] &gt; g &gt; text.font-awesome {
font-size: 16pt;
font-family: "Font Awesome 5 Free";
font-weight: 400;
fill: white;
fill-opacity: 1;
text-anchor: middle;
dominant-baseline: middle;
}

*[k9-elem="votes"][count="0"] &gt; g &gt; rect.back, *[k9-elem="votes"][count="0"] &gt; g &gt; text.count, *[k9-elem="votes"][count="0"] &gt; g &gt; text.font-awesome {
fill-opacity: 0;
stroke-opacity: 0;
}

*[k9-elem="diagram"][k9-texture="none"] {
fill: white;
fill-opacity: 1;
}

*[k9-texture] {
font-family: "metropolis";
font-size: 22pt;
}

*[k9-texture="artifact"] {
fill: white;
fill-opacity: 0.001;
stroke: none;
}

*[k9-texture="artifact"] text {
font-size: 16pt;
font-weight: 400;
fill: black;
text-align: center;
--kite9-text-bounds-width: 100pt;
}

*[k9-elem="description"] text {
font-style: italic;
font-size: 16pt;
font-weight: 400;
--kite9-direction: RIGHT;
}

*[k9-elem="caption"] {
text-align: center;
}

*[k9-elem="label"] {
--kite9-padding-top: 10pt;
--kite9-padding-right: 10pt;
--kite9-padding-bottom: 10pt;
--kite9-padding-left: 10pt;
fill: white;
}

*[k9-elem="arrow"] {
fill: black;
fill-opacity: 1;
}

*[k9-elem="arrow"] &gt; g &gt; *[k9-elem="caption"] &gt; g &gt; text {
fill: white;
fill-opacity: 1;
}

*[k9-elem="from"], *[k9-elem="to"] {
--kite9-marker-reserve: 8pt;
}

*[k9-elem="link"] {
--kite9-link-minimum-length: 30pt;
}

*[k9-elem="glyph"][k9-texture="background"] &gt; g &gt; rect, *[k9-elem="action"] *[k9-texture="background"] {
fill: url(#risk-background);
stroke: black;
stroke-width: 1pt;
}

*[k9-elem="action"] &gt; g &gt; *[k9-elem="caption"] &gt; g &gt; text {
fill-opacity: 1;
font-size: 16pt;
font-weight: 400;
fill: black;
text-align: center;
}

*[k9-elem="hidden"], *[k9-elem="mitigated"] {
fill: white;
}

*[k9-elem="title"] {
font-size: 16pt;
font-weight: 400;
fill: black;
text-align: center;
}

*[k9-elem="code"] {
font-size: 22pt;
font-weight: 300;
fill: black;
text-align: center;
}

*[k9-elem="risk"][k9-texture="background"], *[k9-elem="block"][k9-texture="background"] {
fill: url(#risk-background);
stroke: black;
stroke-width: 1pt;
}

*[k9-elem="container"][k9-texture="background"] {
fill-opacity: 0.001;
}

*[k9-elem="planner-cell"], *[k9-elem="planner-header"] {
stroke: rgb(174, 174, 174);
stroke-width: 1pt;
}

*[k9-elem="diagram"].principle {
fill-opacity: 1;
fill: rgb(245, 245, 245);
}

*[k9-elem="container"][k9-texture="background"].principle-top {
fill: white;
fill-opacity: 1;
}

</style>
      <defs id="links-markers">
         <marker id="-start-marker" preserveAspectRatio="xMidYMid meet"/>
         <marker id="-end-marker" preserveAspectRatio="xMidYMid meet"/>
         <marker refX="1"
                 refY="3"
                 orient="auto"
                 id="strike-start-marker"
                 markerHeight="6"
                 preserveAspectRatio="xMidYMid meet"
                 markerWidth="8">
            <path class="strike-marker" d="         M7,0 L5,6 h-1 L6,0z"/>
         </marker>
         <marker refX="7"
                 refY="3"
                 orient="auto"
                 id="strike-end-marker"
                 markerHeight="6"
                 preserveAspectRatio="xMidYMid meet"
                 markerWidth="8">
            <path class="strike-marker" d="         M3,0 L1,6 h-1 L2,0z"/>
         </marker>
         <marker refY="3"
                 preserveAspectRatio="xMidYMid meet"
                 markerHeight="6"
                 id="circle-start-marker"
                 markerWidth="6"
                 refX="3">
            <circle r="2" class="circle-marker" cx="3" cy="3"/>
         </marker>
         <marker refY="3"
                 preserveAspectRatio="xMidYMid meet"
                 markerHeight="6"
                 id="circle-end-marker"
                 markerWidth="6"
                 refX="3">
            <circle r="2" class="circle-marker" cx="3" cy="3"/>
         </marker>
         <marker refX="2"
                 refY="3"
                 orient="auto"
                 id="diamond-start-marker"
                 markerHeight="6"
                 preserveAspectRatio="xMidYMid meet"
                 markerWidth="8">
            <polygon class="diamond-marker" points="1,3 4,1 7,3 4,5"/>
         </marker>
         <marker refX="6"
                 refY="3"
                 orient="auto"
                 id="diamond-end-marker"
                 markerHeight="6"
                 preserveAspectRatio="xMidYMid meet"
                 markerWidth="8">
            <polygon class="diamond-marker" points="1,3 4,1 7,3 4,5"/>
         </marker>
         <marker refX="5"
                 refY="3"
                 orient="auto"
                 id="open-diamond-start-marker"
                 markerHeight="6"
                 preserveAspectRatio="xMidYMid meet"
                 markerWidth="8">
            <path class="open-diamond-marker"
                  d="         M0,3 L3,1 L6,3 L5,3 L3,1.66 L1,3             L3,4.33 L5,3 L6,3 L3,5 L0,3"/>
         </marker>
         <marker refX="1"
                 refY="3"
                 orient="auto"
                 id="open-diamond-end-marker"
                 markerHeight="6"
                 preserveAspectRatio="xMidYMid meet"
                 markerWidth="8">
            <path class="open-diamond-marker"
                  d="         M6,3 L3,1 L0,3 L1,3 L3,1.66 L5,3             L3,4.33 L1,3 L0,3 L3,5 L6,3"/>
         </marker>
         <marker refX="4"
                 refY="4"
                 orient="auto"
                 id="barbed-arrow-end-marker"
                 markerHeight="7"
                 preserveAspectRatio="xMidYMid meet"
                 markerWidth="7">
            <path class="barbed-arrow-marker" d="M2,2 L6,4 L2,6 L4,4 L2,2"/>
         </marker>
         <marker refX="4"
                 refY="4"
                 orient="auto"
                 id="barbed-arrow-start-marker"
                 markerHeight="7"
                 preserveAspectRatio="xMidYMid meet"
                 markerWidth="7">
            <path class="barbed-arrow-marker" d="M6,2 L2,4 L6,6 L4,4 L6,2"/>
         </marker>
         <marker refX="1"
                 refY="4"
                 orient="auto"
                 id="open-arrow-end-marker"
                 markerHeight="7"
                 preserveAspectRatio="xMidYMid meet"
                 markerWidth="7">
            <path class="open-arrow-marker"
                  d="         M6,4 L1,2 L1,3 L4,4 L1,5 L1,6 L6,4         M2,3 h-1 v2 h1z"/>
         </marker>
         <marker refX="6"
                 refY="4"
                 orient="auto"
                 id="open-arrow-start-marker"
                 markerHeight="7"
                 preserveAspectRatio="xMidYMid meet"
                 markerWidth="7">
            <path class="open-arrow-marker"
                  d="         M1,4 L6,2 L6,3 L3,4 L6,5 L6,6 L1,4         M5,3 h1 v2 h-1z"/>
         </marker>
         <marker refX="4"
                 refY="4"
                 orient="auto"
                 id="arrow-start-marker"
                 markerHeight="7"
                 preserveAspectRatio="xMidYMid meet"
                 markerWidth="7">
            <polygon class="arrow-marker" points="2,4 6,2 6,6"/>
         </marker>
         <marker refX="4"
                 refY="4"
                 orient="auto"
                 id="arrow-end-marker"
                 markerHeight="7"
                 preserveAspectRatio="xMidYMid meet"
                 markerWidth="7">
            <polygon class="arrow-marker" points="6,4 2,2 2,6"/>
         </marker>
         <marker refX="5"
                 refY="4"
                 orient="auto"
                 id="crow-end-marker"
                 markerHeight="7"
                 preserveAspectRatio="xMidYMid meet"
                 markerWidth="7">
            <path class="crow-marker"
                  d="          M1,4 L4,1 l0.66 0.66 L2.3,4z          M1,4 L4,7 l0.66 -0.66 L2.3,4z"/>
         </marker>
         <marker refX="1"
                 refY="4"
                 orient="auto"
                 id="crow-start-marker"
                 markerHeight="7"
                 preserveAspectRatio="xMidYMid meet"
                 markerWidth="7">
            <path class="crow-marker"
                  d="          M5,4 L2,1 l-0.66 0.66 L3.66,4z          M5,4 L2,7 l-0.66 -0.66 L3.66,4z"/>
         </marker>
         <marker refX="2"
                 refY="2"
                 orient="auto"
                 id="square-end-marker"
                 markerHeight="7"
                 preserveAspectRatio="xMidYMid meet"
                 markerWidth="7">
            <rect x="0" width="4" height="4" y="0" class="square-marker"/>
         </marker>
         <marker refX="2"
                 refY="2"
                 orient="auto"
                 id="square-start-marker"
                 markerHeight="7"
                 preserveAspectRatio="xMidYMid meet"
                 markerWidth="7">
            <rect x="0" width="4" height="4" y="0" class="square-marker"/>
         </marker>
      </defs>
      <defs id="highlight-indicators">
         <filter xlink:actuate="onLoad"
                 xlink:type="simple"
                 id="highlight-visible"
                 xlink:show="other">
            <feColorMatrix values="0 0 0 0 .214                 0 0 0 0 .25                 0 0 0 0 1                 0 0 0 1 0 "
                           type="matrix"/>
         </filter>
         <filter xlink:actuate="onLoad"
                 xlink:type="simple"
                 id="highlight-invisible"
                 xlink:show="other">
            <feColorMatrix values="0 0 0 0 0                 0 0 0 0 0                 0 0 0 0 0                 0 0 0 0 0 "
                           type="matrix"/>
         </filter>
      </defs>
      <linearGradient x1="0%"
                      y1="0%"
                      x2="0%"
                      y2="100%"
                      xlink:type="simple"
                      xlink:actuate="onLoad"
                      id="risk-background"
                      xlink:show="other">
         <stop stop-color="#FFF" offset="0%"/>
         <stop stop-color="#DDD" offset="100%"/>
      </linearGradient>
      <filter xmlns:svg="http://www.w3.org/2000/svg"
              xlink:type="simple"
              xlink:actuate="onLoad"
              height="130%"
              id="dropshadow"
              xlink:show="other">
         <feGaussianBlur stdDeviation="4" in="SourceAlpha"/>
         <feOffset dx="6" dy="6"/>
         <feColorMatrix values="             0 0 0 0 0                 0 0 0 0 0                 0 0 0 0 0                 0 0 0 .4 0"
                        type="matrix"/>
         <feMerge>
            <feMergeNode/>
            <feMergeNode in="SourceGraphic"/>
         </feMerge>
      </filter>
      <script xlink:actuate="onLoad"
              xlink:type="simple"
              id="adl:markup"
              xlink:show="other"
              type="text/xml;purpose=adl;base64">PD94bWwgdmVyc2lvbj0iMS4wIiBlbmNvZGluZz0iVVRGLTgiPz4KPGRpYWdyYW0geG1sbnM9Imh0dHA6Ly93d3cua2l0ZTkub3JnL3NjaGVtYS9hZGwiCiAgICAgICAgIHhtbG5zOnhzbHQ9Imh0dHA6Ly93d3cua2l0ZTkub3JnL3NjaGVtYS94c2x0IgogICAgICAgICBpZD0iZGlhIgogICAgICAgICB4c2x0OnRlbXBsYXRlPSIvcHVibGljL3RlbXBsYXRlcy9yaXNrLWZpcnN0L3Jpc2stZmlyc3QtdGVtcGxhdGUueHNsIj4KICAgPGFjdGlvbiBpZD0iMiI+Rml4IFJlbmRlcmluZyBCdWc8L2FjdGlvbj4KICAgPGFjdGlvbiBpZD0iMSI+QnVpbGQgQSBTZWFyY2ggRnVuY3Rpb248L2FjdGlvbj4KICAgPGFjdGlvbiBpZD0iMyI+UmVmYWN0b3IgU3Vic2NyaXB0aW9uczwvYWN0aW9uPgogICA8YWN0aW9uIGlkPSI0Ij5GSXggQ0kgUGlwZWxpbmU8L2FjdGlvbj4KPC9kaWFncmFtPgo=</script>
   </defs>
   <g xmlns:xslt="http://www.kite9.org/schema/xslt"
      k9-contains="connected label"
      k9-texture="none"
      k9-info="margin: [0.0 0.0 0.0 0.0]; padding: [0.0 0.0 0.0 0.0]; min-size: [0.0 0.0]; sizing: [minimize minimize]; horiz: center; vert: center; layout: null; rectangular: diagram; rect-pos: [0.0, 0.0]; rect-size: [1034.0, 93.0]; position: none; painter: direct-svg; "
      id="dia"
      k9-format="container"
      k9-ui="layout label fill size"
      k9-elem="diagram"
      xslt:template="/public/templates/risk-first/risk-first-template.xsl"
      k9-type="diagram">
      <g class="k9-shape">
         <rect x="0"
               y="0"
               width="1034"
               pp:y="$y"
               pp:height="$height"
               pp:x="$x"
               rx="0"
               ry="0"
               height="93"
               pp:width="$width"/>
      </g>
      <g class="k9-content">
         <g transform="translate(13.0,13.0)"
            k9-texture="background"
            k9-info="margin: [13.333333969116211 13.333333969116211 13.333333969116211 13.333333969116211]; padding: [16.0 29.33333396911621 16.0 16.0]; min-size: [0.0 0.0]; sizing: [minimize minimize]; horiz: center; vert: center; layout: null; rectangular: connected; rect-pos: [13.0, 13.0]; rect-size: [228.0, 67.0]; position: none; painter: direct-svg; "
            id="2"
            k9-format="text-shape-inline"
            k9-ui="size drag delete align connect autoconnect edit vote"
            k9-elem="action"
            k9-type="connected">
            <g class="k9-shape" k9-highlight="pulse">
               <g k9-highlight="pulse"
                  k9-texture="background"
                  style="transform: translate(0px,0px)"
                  pp:style="transform: translate([[$x]]px,[[$y]]px)">
                  <polygon points="             0 0,              207.99999940395355 0,             228 33.5,             207.99999940395355 67,             0 67"
                           pp:points="             0 0,              [[$width - (15 * $pt)]] 0,             [[$width]] [[$height div 2]],             [[$width - (15 * $pt)]] [[$height]],             0 [[$height]]"/>
               </g>
            </g>
            <g class="k9-content">
               <g k9-elem="caption"
                  k9-texture="foreground"
                  transform="translate(14.3,45.3)"
                  k9-format="text-fixed"
                  k9-info="margin: [0.0 0.0 0.0 0.0]; padding: [0.0 0.0 0.0 0.0]; min-size: [0.0 0.0]; sizing: [minimize minimize]; horiz: center; vert: center; rectangular: connected; rect-pos: [29.0, 29.0]; rect-size: [183.0, 35.0]; position: none; painter: direct-svg; ">
                  <g class="k9-content k9-no-shape" k9-highlight="pulse">
                     <g rendered="true">
                        <g>
                           <path d="M3.3681 -13.0764 L3.3681 -8.2569 L11.3264 -8.2569 L11.3264 -6.6806 L3.3681 -6.6806 L3.3681 0 L1.6875 0 L1.6875 -14.6528 L12.2014 -14.6528 L12.2014 -13.0764 L3.3681 -13.0764 ZM15.4017 -13.0347 Q14.9573 -13.0347 14.6448 -13.3542 Q14.3392 -13.6736 14.3392 -14.1042 Q14.3392 -14.5278 14.6448 -14.8333 Q14.9573 -15.1458 15.4017 -15.1458 Q15.8323 -15.1458 16.1379 -14.8333 Q16.4504 -14.5278 16.4504 -14.1042 Q16.4504 -13.6736 16.1379 -13.3542 Q15.8323 -13.0347 15.4017 -13.0347 ZM14.5892 -11.0278 L16.1934 -11.0278 L16.1934 0 L14.5892 0 L14.5892 -11.0278 ZM26.9865 0 L23.6809 -4.3958 L20.3545 0 L18.4726 0 L22.7434 -5.6319 L18.6462 -11.0278 L20.5212 -11.0278 L23.6809 -6.8681 L26.8129 -11.0278 L28.6948 -11.0278 L24.6184 -5.6319 L28.8615 0 L26.9865 0 ZM48.7681 -9.9653 Q48.7681 -8.2569 47.657 -7.0278 Q46.5529 -5.8056 44.782 -5.4167 L48.5737 0 L46.6779 0 L42.9626 -5.2708 L39.0806 -5.2708 L39.0806 0 L37.4209 0 L37.4209 -14.6528 L43.3723 -14.6528 Q44.8654 -14.6528 46.1015 -14.0556 Q47.3376 -13.4583 48.0529 -12.3819 Q48.7681 -11.3056 48.7681 -9.9653 ZM39.0806 -6.8472 L43.0737 -6.8472 Q44.8862 -6.8472 45.9834 -7.6806 Q47.0806 -8.5139 47.0806 -9.9653 Q47.0806 -11.4167 45.9834 -12.2431 Q44.8862 -13.0764 43.0737 -13.0764 L39.0806 -13.0764 L39.0806 -6.8472 ZM56.1904 -1.1736 Q57.1765 -1.1736 58.1626 -1.5556 Q59.1557 -1.9444 59.6695 -2.4931 L60.6487 -1.4514 Q59.9473 -0.6806 58.6765 -0.2083 Q57.4057 0.2569 56.2112 0.2569 Q54.739 0.2569 53.4612 -0.4861 Q52.1834 -1.2361 51.3987 -2.5694 Q50.6209 -3.9028 50.6209 -5.5486 Q50.6209 -7.1458 51.357 -8.4653 Q52.0932 -9.7917 53.3432 -10.5347 Q54.5932 -11.2847 56.0654 -11.2847 Q58.5376 -11.2847 59.9126 -9.5556 Q61.2876 -7.8264 61.2876 -4.9097 L52.2668 -4.9097 Q52.4404 -3.2639 53.5168 -2.2153 Q54.5932 -1.1736 56.1904 -1.1736 ZM56.1279 -9.8542 Q54.6348 -9.8542 53.5654 -8.8819 Q52.5029 -7.9167 52.2876 -6.3333 L59.7112 -6.3333 Q59.5445 -7.9167 58.6209 -8.8819 Q57.7043 -9.8542 56.1279 -9.8542 ZM69.1615 -11.2847 Q70.356 -11.2847 71.3073 -10.7361 Q72.2587 -10.1944 72.7796 -9.2222 Q73.3004 -8.2569 73.3004 -7.0208 L73.3004 0 L71.7032 0 L71.7032 -6.8056 Q71.7032 -8.1528 70.9323 -9 Q70.1685 -9.8542 68.9462 -9.8542 Q68.0296 -9.8542 67.2518 -9.4722 Q66.474 -9.0903 66.0018 -8.4236 Q65.5365 -7.7639 65.5365 -7.0208 L65.5365 0 L63.9393 0 L63.9393 -11.0278 L65.5365 -11.0278 L65.5365 -9.2569 Q66.0296 -10.1528 67.0157 -10.7153 Q68.0087 -11.2847 69.1615 -11.2847 ZM86.7631 -14.9097 L86.7631 0 L85.1659 0 L85.1659 -2.0694 Q84.52 -0.9583 83.4853 -0.3472 Q82.4506 0.2569 81.152 0.2569 Q79.7214 0.2569 78.5548 -0.4792 Q77.395 -1.2153 76.7353 -2.5347 Q76.0756 -3.8611 76.0756 -5.5278 Q76.0756 -7.1875 76.7353 -8.5 Q77.395 -9.8125 78.5548 -10.5486 Q79.7214 -11.2847 81.152 -11.2847 Q82.4506 -11.2847 83.4853 -10.6736 Q84.52 -10.0694 85.1659 -8.9583 L85.1659 -14.9097 L86.7631 -14.9097 ZM81.4506 -1.1736 Q82.52 -1.1736 83.3673 -1.7292 Q84.2214 -2.2847 84.6937 -3.2708 Q85.1659 -4.2639 85.1659 -5.5278 Q85.1659 -6.7847 84.6937 -7.7639 Q84.2214 -8.75 83.3673 -9.2986 Q82.52 -9.8542 81.4506 -9.8542 Q80.3812 -9.8542 79.5409 -9.2986 Q78.7006 -8.75 78.2284 -7.7639 Q77.7631 -6.7847 77.7631 -5.5278 Q77.7631 -4.2639 78.2284 -3.2708 Q78.7006 -2.2847 79.5409 -1.7292 Q80.3812 -1.1736 81.4506 -1.1736 ZM95.1238 -1.1736 Q96.1099 -1.1736 97.096 -1.5556 Q98.0891 -1.9444 98.603 -2.4931 L99.5821 -1.4514 Q98.8807 -0.6806 97.6099 -0.2083 Q96.3391 0.2569 95.1446 0.2569 Q93.6724 0.2569 92.3946 -0.4861 Q91.1169 -1.2361 90.3321 -2.5694 Q89.5544 -3.9028 89.5544 -5.5486 Q89.5544 -7.1458 90.2905 -8.4653 Q91.0266 -9.7917 92.2766 -10.5347 Q93.5266 -11.2847 94.9988 -11.2847 Q97.471 -11.2847 98.846 -9.5556 Q100.221 -7.8264 100.221 -4.9097 L91.2002 -4.9097 Q91.3738 -3.2639 92.4502 -2.2153 Q93.5266 -1.1736 95.1238 -1.1736 ZM95.0613 -9.8542 Q93.5682 -9.8542 92.4988 -8.8819 Q91.4363 -7.9167 91.221 -6.3333 L98.6446 -6.3333 Q98.478 -7.9167 97.5544 -8.8819 Q96.6377 -9.8542 95.0613 -9.8542 ZM104.5949 -8.875 Q105.088 -9.9861 106.2199 -10.6319 Q107.3519 -11.2847 108.8658 -11.2847 L108.8658 -9.8542 Q107.6297 -9.8542 106.6574 -9.3819 Q105.6852 -8.9167 105.1366 -8.0694 Q104.5949 -7.2292 104.5949 -6.1667 L104.5949 0 L102.9977 0 L102.9977 -11.0278 L104.5949 -11.0278 L104.5949 -8.875 ZM111.8713 -13.0347 Q111.4268 -13.0347 111.1143 -13.3542 Q110.8088 -13.6736 110.8088 -14.1042 Q110.8088 -14.5278 111.1143 -14.8333 Q111.4268 -15.1458 111.8713 -15.1458 Q112.3018 -15.1458 112.6074 -14.8333 Q112.9199 -14.5278 112.9199 -14.1042 Q112.9199 -13.6736 112.6074 -13.3542 Q112.3018 -13.0347 111.8713 -13.0347 ZM111.0588 -11.0278 L112.6629 -11.0278 L112.6629 0 L111.0588 0 L111.0588 -11.0278 ZM121.1296 -11.2847 Q122.3241 -11.2847 123.2754 -10.7361 Q124.2268 -10.1944 124.7477 -9.2222 Q125.2685 -8.2569 125.2685 -7.0208 L125.2685 0 L123.6713 0 L123.6713 -6.8056 Q123.6713 -8.1528 122.9004 -9 Q122.1366 -9.8542 120.9143 -9.8542 Q119.9977 -9.8542 119.2199 -9.4722 Q118.4421 -9.0903 117.9699 -8.4236 Q117.5046 -7.7639 117.5046 -7.0208 L117.5046 0 L115.9074 0 L115.9074 -11.0278 L117.5046 -11.0278 L117.5046 -9.2569 Q117.9977 -10.1528 118.9838 -10.7153 Q119.9768 -11.2847 121.1296 -11.2847 ZM138.6895 -11.0278 L138.6895 -1.1736 Q138.6895 0.2361 137.9951 1.3333 Q137.3007 2.4306 136.0715 3.0486 Q134.8493 3.6667 133.2729 3.6667 Q131.9673 3.6667 130.7729 3.2639 Q129.5784 2.8611 128.8076 2.1944 L129.5159 0.9375 Q130.1548 1.5556 131.0923 1.8958 Q132.0298 2.2431 133.0576 2.2431 Q134.9534 2.2431 136.0159 1.3472 Q137.0854 0.4514 137.0854 -1.1736 L137.0854 -2.9653 Q136.4465 -1.9444 135.4118 -1.375 Q134.377 -0.8125 133.0784 -0.8125 Q131.6062 -0.8125 130.4534 -1.4792 Q129.3007 -2.1528 128.6479 -3.3472 Q128.002 -4.5417 128.002 -6.0556 Q128.002 -7.5764 128.6479 -8.7708 Q129.3007 -9.9653 130.4534 -10.625 Q131.6062 -11.2847 133.0784 -11.2847 Q134.377 -11.2847 135.4118 -10.7153 Q136.4465 -10.1528 137.0854 -9.1319 L137.0854 -11.0278 L138.6895 -11.0278 ZM133.377 -2.2431 Q134.4395 -2.2431 135.2937 -2.7292 Q136.1479 -3.2222 136.6132 -4.0833 Q137.0854 -4.9514 137.0854 -6.0556 Q137.0854 -7.1458 136.6132 -8.0069 Q136.1479 -8.875 135.2937 -9.3611 Q134.4395 -9.8542 133.377 -9.8542 Q132.3076 -9.8542 131.4673 -9.3611 Q130.627 -8.875 130.1548 -8.0069 Q129.6826 -7.1458 129.6826 -6.0556 Q129.6826 -4.9514 130.1548 -4.0833 Q130.627 -3.2222 131.4673 -2.7292 Q132.3076 -2.2431 133.377 -2.2431 ZM148.6526 -14.6528 L155.3679 -14.6528 Q156.5415 -14.6528 157.4582 -14.1806 Q158.3818 -13.7153 158.8887 -12.8819 Q159.4026 -12.0556 159.4026 -11.0069 Q159.4026 -9.8958 158.8818 -9.1458 Q158.3609 -8.4028 157.3123 -7.7847 Q158.5901 -7.1458 159.2845 -6.1736 Q159.979 -5.2083 159.979 -4.0139 Q159.979 -2.8611 159.4234 -1.9375 Q158.8679 -1.0208 157.8748 -0.5069 Q156.8887 0 155.6248 0 L148.6526 0 L148.6526 -14.6528 ZM154.9443 -8.4514 Q156.1595 -8.4514 156.9373 -9.1111 Q157.7151 -9.7708 157.7151 -10.7917 Q157.7151 -11.8194 156.9373 -12.4792 Q156.1595 -13.1389 154.9443 -13.1389 L150.3123 -13.1389 L150.3123 -8.4514 L154.9443 -8.4514 ZM155.2012 -1.5139 Q156.5623 -1.5139 157.4234 -2.2708 Q158.2915 -3.0278 158.2915 -4.2222 Q158.2915 -5.4167 157.4234 -6.1736 Q156.5623 -6.9306 155.2012 -6.9306 L150.3123 -6.9306 L150.3123 -1.5139 L155.2012 -1.5139 ZM172.1812 -11.0278 L172.1812 0 L170.5839 0 L170.5839 -1.7708 Q170.0909 -0.875 169.0978 -0.3056 Q168.1048 0.2569 166.952 0.2569 Q165.7575 0.2569 164.8062 -0.2847 Q163.8617 -0.8333 163.3339 -1.7986 Q162.8131 -2.7708 162.8131 -4.0139 L162.8131 -11.0278 L164.4173 -11.0278 L164.4173 -4.2222 Q164.4173 -2.8819 165.1812 -2.0278 Q165.952 -1.1736 167.1673 -1.1736 Q168.0839 -1.1736 168.8617 -1.5556 Q169.6464 -1.9444 170.1117 -2.6042 Q170.5839 -3.2639 170.5839 -4.0139 L170.5839 -11.0278 L172.1812 -11.0278 ZM185.623 -11.0278 L185.623 -1.1736 Q185.623 0.2361 184.9286 1.3333 Q184.2341 2.4306 183.005 3.0486 Q181.7827 3.6667 180.2063 3.6667 Q178.9008 3.6667 177.7063 3.2639 Q176.5119 2.8611 175.7411 2.1944 L176.4494 0.9375 Q177.0883 1.5556 178.0258 1.8958 Q178.9633 2.2431 179.9911 2.2431 Q181.8869 2.2431 182.9494 1.3472 Q184.0188 0.4514 184.0188 -1.1736 L184.0188 -2.9653 Q183.38 -1.9444 182.3452 -1.375 Q181.3105 -0.8125 180.0119 -0.8125 Q178.5397 -0.8125 177.3869 -1.4792 Q176.2341 -2.1528 175.5813 -3.3472 Q174.9355 -4.5417 174.9355 -6.0556 Q174.9355 -7.5764 175.5813 -8.7708 Q176.2341 -9.9653 177.3869 -10.625 Q178.5397 -11.2847 180.0119 -11.2847 Q181.3105 -11.2847 182.3452 -10.7153 Q183.38 -10.1528 184.0188 -9.1319 L184.0188 -11.0278 L185.623 -11.0278 ZM180.3105 -2.2431 Q181.373 -2.2431 182.2272 -2.7292 Q183.0813 -3.2222 183.5466 -4.0833 Q184.0188 -4.9514 184.0188 -6.0556 Q184.0188 -7.1458 183.5466 -8.0069 Q183.0813 -8.875 182.2272 -9.3611 Q181.373 -9.8542 180.3105 -9.8542 Q179.2411 -9.8542 178.4008 -9.3611 Q177.5605 -8.875 177.0883 -8.0069 Q176.6161 -7.1458 176.6161 -6.0556 Q176.6161 -4.9514 177.0883 -4.0833 Q177.5605 -3.2222 178.4008 -2.7292 Q179.2411 -2.2431 180.3105 -2.2431 Z"
                                 stroke="none"/>
                        </g>
                     </g>
                  </g>
               </g>
            </g>
         </g>
         <g transform="translate(254.0,13.0)"
            k9-texture="background"
            k9-info="margin: [13.333333969116211 13.333333969116211 13.333333969116211 13.333333969116211]; padding: [16.0 29.33333396911621 16.0 16.0]; min-size: [0.0 0.0]; sizing: [minimize minimize]; horiz: center; vert: center; layout: null; rectangular: connected; rect-pos: [254.0, 13.0]; rect-size: [285.0, 67.0]; position: none; painter: direct-svg; "
            id="1"
            k9-format="text-shape-inline"
            k9-ui="size drag delete align connect autoconnect edit vote"
            k9-elem="action"
            k9-type="connected">
            <g class="k9-shape" k9-highlight="pulse">
               <g k9-highlight="pulse"
                  k9-texture="background"
                  style="transform: translate(0px,0px)"
                  pp:style="transform: translate([[$x]]px,[[$y]]px)">
                  <polygon points="             0 0,              264.99999940395355 0,             285 33.5,             264.99999940395355 67,             0 67"
                           pp:points="             0 0,              [[$width - (15 * $pt)]] 0,             [[$width]] [[$height div 2]],             [[$width - (15 * $pt)]] [[$height]],             0 [[$height]]"/>
               </g>
            </g>
            <g class="k9-content">
               <g k9-elem="caption"
                  k9-texture="foreground"
                  transform="translate(14.0,45.3)"
                  k9-format="text-fixed"
                  k9-info="margin: [0.0 0.0 0.0 0.0]; padding: [0.0 0.0 0.0 0.0]; min-size: [0.0 0.0]; sizing: [minimize minimize]; horiz: center; vert: center; rectangular: connected; rect-pos: [270.0, 29.0]; rect-size: [240.0, 35.0]; position: none; painter: direct-svg; ">
                  <g class="k9-content k9-no-shape" k9-highlight="pulse">
                     <g rendered="true">
                        <g>
                           <path d="M2.0069 -14.6528 L8.7222 -14.6528 Q9.8958 -14.6528 10.8125 -14.1806 Q11.7361 -13.7153 12.2431 -12.8819 Q12.7569 -12.0556 12.7569 -11.0069 Q12.7569 -9.8958 12.2361 -9.1458 Q11.7153 -8.4028 10.6667 -7.7847 Q11.9444 -7.1458 12.6389 -6.1736 Q13.3333 -5.2083 13.3333 -4.0139 Q13.3333 -2.8611 12.7778 -1.9375 Q12.2222 -1.0208 11.2292 -0.5069 Q10.2431 0 8.9792 0 L2.0069 0 L2.0069 -14.6528 ZM8.2986 -8.4514 Q9.5139 -8.4514 10.2917 -9.1111 Q11.0694 -9.7708 11.0694 -10.7917 Q11.0694 -11.8194 10.2917 -12.4792 Q9.5139 -13.1389 8.2986 -13.1389 L3.6667 -13.1389 L3.6667 -8.4514 L8.2986 -8.4514 ZM8.5556 -1.5139 Q9.9167 -1.5139 10.7778 -2.2708 Q11.6458 -3.0278 11.6458 -4.2222 Q11.6458 -5.4167 10.7778 -6.1736 Q9.9167 -6.9306 8.5556 -6.9306 L3.6667 -6.9306 L3.6667 -1.5139 L8.5556 -1.5139 ZM25.5355 -11.0278 L25.5355 0 L23.9383 0 L23.9383 -1.7708 Q23.4452 -0.875 22.4521 -0.3056 Q21.4591 0.2569 20.3063 0.2569 Q19.1119 0.2569 18.1605 -0.2847 Q17.216 -0.8333 16.6883 -1.7986 Q16.1674 -2.7708 16.1674 -4.0139 L16.1674 -11.0278 L17.7716 -11.0278 L17.7716 -4.2222 Q17.7716 -2.8819 18.5355 -2.0278 Q19.3063 -1.1736 20.5216 -1.1736 Q21.4383 -1.1736 22.216 -1.5556 Q23.0008 -1.9444 23.466 -2.6042 Q23.9383 -3.2639 23.9383 -4.0139 L23.9383 -11.0278 L25.5355 -11.0278 ZM29.5884 -13.0347 Q29.144 -13.0347 28.8315 -13.3542 Q28.5259 -13.6736 28.5259 -14.1042 Q28.5259 -14.5278 28.8315 -14.8333 Q29.144 -15.1458 29.5884 -15.1458 Q30.019 -15.1458 30.3246 -14.8333 Q30.6371 -14.5278 30.6371 -14.1042 Q30.6371 -13.6736 30.3246 -13.3542 Q30.019 -13.0347 29.5884 -13.0347 ZM28.7759 -11.0278 L30.3801 -11.0278 L30.3801 0 L28.7759 0 L28.7759 -11.0278 ZM33.5968 -14.9097 L35.201 -14.9097 L35.201 0 L33.5968 0 L33.5968 -14.9097 ZM48.6617 -14.9097 L48.6617 0 L47.0645 0 L47.0645 -2.0694 Q46.4186 -0.9583 45.3839 -0.3472 Q44.3492 0.2569 43.0506 0.2569 Q41.62 0.2569 40.4534 -0.4792 Q39.2936 -1.2153 38.6339 -2.5347 Q37.9742 -3.8611 37.9742 -5.5278 Q37.9742 -7.1875 38.6339 -8.5 Q39.2936 -9.8125 40.4534 -10.5486 Q41.62 -11.2847 43.0506 -11.2847 Q44.3492 -11.2847 45.3839 -10.6736 Q46.4186 -10.0694 47.0645 -8.9583 L47.0645 -14.9097 L48.6617 -14.9097 ZM43.3492 -1.1736 Q44.4186 -1.1736 45.2659 -1.7292 Q46.12 -2.2847 46.5922 -3.2708 Q47.0645 -4.2639 47.0645 -5.5278 Q47.0645 -6.7847 46.5922 -7.7639 Q46.12 -8.75 45.2659 -9.2986 Q44.4186 -9.8542 43.3492 -9.8542 Q42.2797 -9.8542 41.4395 -9.2986 Q40.5992 -8.75 40.127 -7.7639 Q39.6617 -6.7847 39.6617 -5.5278 Q39.6617 -4.2639 40.127 -3.2708 Q40.5992 -2.2847 41.4395 -1.7292 Q42.2797 -1.1736 43.3492 -1.1736 ZM68.7577 -3.3264 L60.5841 -3.3264 L59.1119 0 L57.2994 0 L63.7646 -14.6528 L65.5771 -14.6528 L72.0424 0 L70.2299 0 L68.7577 -3.3264 ZM68.0771 -4.9097 L64.6813 -12.6111 L61.2716 -4.9097 L68.0771 -4.9097 ZM85.6761 0.2361 Q82.2594 0.2361 79.8913 -2.0903 L80.9399 -3.3889 Q81.9399 -2.3889 83.1136 -1.8333 Q84.2872 -1.2778 85.7386 -1.2778 Q86.8288 -1.2778 87.5927 -1.6319 Q88.3636 -1.9861 88.7594 -2.5694 Q89.1552 -3.1597 89.1552 -3.8403 Q89.1552 -4.9514 88.2247 -5.5347 Q87.2941 -6.125 85.2038 -6.6111 Q83.6066 -7 82.5719 -7.4653 Q81.5372 -7.9375 80.9677 -8.7361 Q80.4052 -9.5347 80.4052 -10.75 Q80.4052 -11.9028 81.0441 -12.8611 Q81.683 -13.8264 82.8011 -14.375 Q83.9261 -14.9306 85.3149 -14.9306 Q86.8705 -14.9306 88.1136 -14.3889 Q89.3636 -13.8472 90.4538 -12.8403 L89.4261 -11.5417 Q88.4886 -12.4375 87.4191 -12.9236 Q86.3566 -13.4167 85.2247 -13.4167 Q84.3497 -13.4167 83.6205 -13.0625 Q82.8983 -12.7153 82.4955 -12.125 Q82.0927 -11.5417 82.0927 -10.8819 Q82.0927 -9.8333 83.0094 -9.2917 Q83.9261 -8.75 86.0372 -8.2361 Q88.3844 -7.6806 89.6066 -6.7292 Q90.8358 -5.7847 90.8358 -3.9861 Q90.8358 -2.7917 90.2455 -1.8333 Q89.6622 -0.875 88.4886 -0.3194 Q87.3149 0.2361 85.6761 0.2361 ZM98.5798 -1.1736 Q99.5659 -1.1736 100.552 -1.5556 Q101.5451 -1.9444 102.059 -2.4931 L103.0381 -1.4514 Q102.3368 -0.6806 101.0659 -0.2083 Q99.7951 0.2569 98.6006 0.2569 Q97.1284 0.2569 95.8506 -0.4861 Q94.5729 -1.2361 93.7881 -2.5694 Q93.0104 -3.9028 93.0104 -5.5486 Q93.0104 -7.1458 93.7465 -8.4653 Q94.4826 -9.7917 95.7326 -10.5347 Q96.9826 -11.2847 98.4548 -11.2847 Q100.927 -11.2847 102.302 -9.5556 Q103.677 -7.8264 103.677 -4.9097 L94.6562 -4.9097 Q94.8298 -3.2639 95.9062 -2.2153 Q96.9826 -1.1736 98.5798 -1.1736 ZM98.5173 -9.8542 Q97.0243 -9.8542 95.9548 -8.8819 Q94.8923 -7.9167 94.677 -6.3333 L102.1006 -6.3333 Q101.934 -7.9167 101.0104 -8.8819 Q100.0937 -9.8542 98.5173 -9.8542 ZM110.7871 -11.2847 Q112.9815 -11.2847 114.1204 -10.0347 Q115.2662 -8.7917 115.2662 -6.7222 L115.2662 0 L113.6621 0 L113.6621 -1.7292 Q113.0857 -0.7917 112.0093 -0.2639 Q110.9329 0.2569 109.7801 0.2569 Q108.0093 0.2569 106.8773 -0.7014 Q105.7523 -1.6667 105.7523 -3.2639 Q105.7523 -4.3333 106.3357 -5.1736 Q106.9259 -6.0139 107.9121 -6.4722 Q108.9051 -6.9306 110.0787 -6.9306 Q111.7454 -6.9306 113.6621 -6.3125 L113.6621 -6.7222 Q113.6621 -8.0625 112.9815 -8.9861 Q112.3009 -9.9167 110.6759 -9.9167 Q109.9329 -9.9167 109.1482 -9.6528 Q108.3704 -9.3889 107.4537 -8.9167 L106.8148 -10.2153 Q108.9468 -11.2847 110.7871 -11.2847 ZM110.0579 -1.1528 Q111.2523 -1.1528 112.3079 -1.7569 Q113.3634 -2.3681 113.6621 -3.4583 L113.6621 -5.1389 Q112.044 -5.5903 110.3357 -5.5903 Q109.0787 -5.5903 108.1898 -4.9514 Q107.3079 -4.3125 107.3079 -3.3264 Q107.3079 -2.3264 108.0857 -1.7361 Q108.8634 -1.1528 110.0579 -1.1528 ZM120.275 -8.875 Q120.768 -9.9861 121.9 -10.6319 Q123.0319 -11.2847 124.5458 -11.2847 L124.5458 -9.8542 Q123.3097 -9.8542 122.3375 -9.3819 Q121.3652 -8.9167 120.8166 -8.0694 Q120.275 -7.2292 120.275 -6.1667 L120.275 0 L118.6777 0 L118.6777 -11.0278 L120.275 -11.0278 L120.275 -8.875 ZM131.8846 0.2569 Q130.3708 0.2569 129.0444 -0.5278 Q127.7249 -1.3194 126.9402 -2.6528 Q126.1624 -3.9861 126.1624 -5.5278 Q126.1624 -7.0625 126.9402 -8.3819 Q127.7249 -9.7083 129.0444 -10.4931 Q130.3708 -11.2847 131.8846 -11.2847 Q132.9888 -11.2847 134.0027 -10.8542 Q135.0166 -10.4306 135.8083 -9.6667 L134.6971 -8.5764 Q134.1416 -9.1736 133.4124 -9.5139 Q132.6902 -9.8542 131.8846 -9.8542 Q130.7944 -9.8542 129.8638 -9.2639 Q128.9402 -8.6806 128.3916 -7.6806 Q127.8499 -6.6806 127.8499 -5.5278 Q127.8499 -4.3542 128.3916 -3.3611 Q128.9402 -2.3681 129.8638 -1.7708 Q130.7944 -1.1736 131.8846 -1.1736 Q132.6902 -1.1736 133.4402 -1.5208 Q134.1902 -1.875 134.7596 -2.5139 L135.8708 -1.4306 Q135.086 -0.6389 134.0513 -0.1875 Q133.0166 0.2569 131.8846 0.2569 ZM143.5723 -11.2847 Q144.7668 -11.2847 145.7182 -10.7361 Q146.6695 -10.1944 147.1904 -9.2222 Q147.7112 -8.2569 147.7112 -7.0208 L147.7112 0 L146.114 0 L146.114 -6.8056 Q146.114 -8.1528 145.3432 -9 Q144.5793 -9.8542 143.357 -9.8542 Q142.4404 -9.8542 141.6626 -9.4722 Q140.8848 -9.0903 140.4126 -8.4236 Q139.9473 -7.7639 139.9473 -7.0208 L139.9473 0 L138.3501 0 L138.3501 -14.9097 L139.9473 -14.9097 L139.9473 -9.2569 Q140.4404 -10.1528 141.4265 -10.7153 Q142.4195 -11.2847 143.5723 -11.2847 ZM158.8884 -13.0764 L158.8884 -8.2569 L166.8467 -8.2569 L166.8467 -6.6806 L158.8884 -6.6806 L158.8884 0 L157.2078 0 L157.2078 -14.6528 L167.7217 -14.6528 L167.7217 -13.0764 L158.8884 -13.0764 ZM179.4985 -11.0278 L179.4985 0 L177.9012 0 L177.9012 -1.7708 Q177.4082 -0.875 176.4151 -0.3056 Q175.4221 0.2569 174.2693 0.2569 Q173.0748 0.2569 172.1235 -0.2847 Q171.179 -0.8333 170.6512 -1.7986 Q170.1304 -2.7708 170.1304 -4.0139 L170.1304 -11.0278 L171.7346 -11.0278 L171.7346 -4.2222 Q171.7346 -2.8819 172.4985 -2.0278 Q173.2693 -1.1736 174.4846 -1.1736 Q175.4012 -1.1736 176.179 -1.5556 Q176.9637 -1.9444 177.429 -2.6042 Q177.9012 -3.2639 177.9012 -4.0139 L177.9012 -11.0278 L179.4985 -11.0278 ZM188.0098 -11.2847 Q189.2042 -11.2847 190.1556 -10.7361 Q191.107 -10.1944 191.6278 -9.2222 Q192.1487 -8.2569 192.1487 -7.0208 L192.1487 0 L190.5514 0 L190.5514 -6.8056 Q190.5514 -8.1528 189.7806 -9 Q189.0167 -9.8542 187.7945 -9.8542 Q186.8778 -9.8542 186.1 -9.4722 Q185.3223 -9.0903 184.85 -8.4236 Q184.3848 -7.7639 184.3848 -7.0208 L184.3848 0 L182.7875 0 L182.7875 -11.0278 L184.3848 -11.0278 L184.3848 -9.2569 Q184.8778 -10.1528 185.8639 -10.7153 Q186.857 -11.2847 188.0098 -11.2847 ZM200.5141 0.2569 Q199.0002 0.2569 197.6738 -0.5278 Q196.3544 -1.3194 195.5697 -2.6528 Q194.7919 -3.9861 194.7919 -5.5278 Q194.7919 -7.0625 195.5697 -8.3819 Q196.3544 -9.7083 197.6738 -10.4931 Q199.0002 -11.2847 200.5141 -11.2847 Q201.6183 -11.2847 202.6322 -10.8542 Q203.6461 -10.4306 204.4377 -9.6667 L203.3266 -8.5764 Q202.7711 -9.1736 202.0419 -9.5139 Q201.3197 -9.8542 200.5141 -9.8542 Q199.4238 -9.8542 198.4933 -9.2639 Q197.5697 -8.6806 197.0211 -7.6806 Q196.4794 -6.6806 196.4794 -5.5278 Q196.4794 -4.3542 197.0211 -3.3611 Q197.5697 -2.3681 198.4933 -1.7708 Q199.4238 -1.1736 200.5141 -1.1736 Q201.3197 -1.1736 202.0697 -1.5208 Q202.8197 -1.875 203.3891 -2.5139 L204.5002 -1.4306 Q203.7155 -0.6389 202.6808 -0.1875 Q201.6461 0.2569 200.5141 0.2569 ZM212.5838 -0.4514 Q211.6879 0.2569 210.5421 0.2569 Q209.3685 0.2569 208.6046 -0.5278 Q207.8476 -1.3194 207.8476 -2.5625 L207.8476 -9.5972 L206.1254 -9.5972 L206.1254 -11.0278 L207.8476 -11.0278 L207.8476 -14.0556 L209.4518 -14.0556 L209.4518 -11.0278 L212.1601 -11.0278 L212.1601 -9.5972 L209.4518 -9.5972 L209.4518 -2.5625 Q209.4518 -1.9653 209.799 -1.5694 Q210.1532 -1.1736 210.6463 -1.1736 Q211.0074 -1.1736 211.306 -1.2986 Q211.6046 -1.4306 211.799 -1.6181 L212.5838 -0.4514 ZM215.6368 -13.0347 Q215.1924 -13.0347 214.8799 -13.3542 Q214.5743 -13.6736 214.5743 -14.1042 Q214.5743 -14.5278 214.8799 -14.8333 Q215.1924 -15.1458 215.6368 -15.1458 Q216.0674 -15.1458 216.3729 -14.8333 Q216.6854 -14.5278 216.6854 -14.1042 Q216.6854 -13.6736 216.3729 -13.3542 Q216.0674 -13.0347 215.6368 -13.0347 ZM214.8243 -11.0278 L216.4285 -11.0278 L216.4285 0 L214.8243 0 L214.8243 -11.0278 ZM224.7702 0.2569 Q223.2563 0.2569 221.9299 -0.5278 Q220.6104 -1.3194 219.8257 -2.6528 Q219.0479 -3.9861 219.0479 -5.5278 Q219.0479 -7.0625 219.8257 -8.3819 Q220.6104 -9.7083 221.9299 -10.4931 Q223.2563 -11.2847 224.7702 -11.2847 Q226.2841 -11.2847 227.5966 -10.4931 Q228.9091 -9.7083 229.6868 -8.3819 Q230.4646 -7.0625 230.4646 -5.5278 Q230.4646 -3.9861 229.6868 -2.6528 Q228.9091 -1.3194 227.5966 -0.5278 Q226.2841 0.2569 224.7702 0.2569 ZM224.7702 -1.1736 Q225.8327 -1.1736 226.7632 -1.7708 Q227.6938 -2.3681 228.2354 -3.3611 Q228.7771 -4.3542 228.7771 -5.5278 Q228.7771 -6.6806 228.2354 -7.6806 Q227.6938 -8.6806 226.7632 -9.2639 Q225.8327 -9.8542 224.7702 -9.8542 Q223.6799 -9.8542 222.7493 -9.2639 Q221.8257 -8.6806 221.2771 -7.6806 Q220.7354 -6.6806 220.7354 -5.5278 Q220.7354 -4.3542 221.2771 -3.3611 Q221.8257 -2.3681 222.7493 -1.7708 Q223.6799 -1.1736 224.7702 -1.1736 ZM238.3566 -11.2847 Q239.551 -11.2847 240.5024 -10.7361 Q241.4538 -10.1944 241.9746 -9.2222 Q242.4954 -8.2569 242.4954 -7.0208 L242.4954 0 L240.8982 0 L240.8982 -6.8056 Q240.8982 -8.1528 240.1274 -9 Q239.3635 -9.8542 238.1413 -9.8542 Q237.2246 -9.8542 236.4468 -9.4722 Q235.6691 -9.0903 235.1968 -8.4236 Q234.7316 -7.7639 234.7316 -7.0208 L234.7316 0 L233.1343 0 L233.1343 -11.0278 L234.7316 -11.0278 L234.7316 -9.2569 Q235.2246 -10.1528 236.2107 -10.7153 Q237.2038 -11.2847 238.3566 -11.2847 Z"
                                 stroke="none"/>
                        </g>
                     </g>
                  </g>
               </g>
            </g>
         </g>
         <g transform="translate(552.0,13.0)"
            k9-texture="background"
            k9-info="margin: [13.333333969116211 13.333333969116211 13.333333969116211 13.333333969116211]; padding: [16.0 29.33333396911621 16.0 16.0]; min-size: [0.0 0.0]; sizing: [minimize minimize]; horiz: center; vert: center; layout: null; rectangular: connected; rect-pos: [552.0, 13.0]; rect-size: [273.0, 67.0]; position: none; painter: direct-svg; "
            id="3"
            k9-format="text-shape-inline"
            k9-ui="size drag delete align connect autoconnect edit vote"
            k9-elem="action"
            k9-type="connected">
            <g class="k9-shape" k9-highlight="pulse">
               <g k9-highlight="pulse"
                  k9-texture="background"
                  style="transform: translate(0px,0px)"
                  pp:style="transform: translate([[$x]]px,[[$y]]px)">
                  <polygon points="             0 0,              252.99999940395355 0,             273 33.5,             252.99999940395355 67,             0 67"
                           pp:points="             0 0,              [[$width - (15 * $pt)]] 0,             [[$width]] [[$height div 2]],             [[$width - (15 * $pt)]] [[$height]],             0 [[$height]]"/>
               </g>
            </g>
            <g class="k9-content">
               <g k9-elem="caption"
                  k9-texture="foreground"
                  transform="translate(14.3,45.3)"
                  k9-format="text-fixed"
                  k9-info="margin: [0.0 0.0 0.0 0.0]; padding: [0.0 0.0 0.0 0.0]; min-size: [0.0 0.0]; sizing: [minimize minimize]; horiz: center; vert: center; rectangular: connected; rect-pos: [568.0, 29.0]; rect-size: [228.0, 35.0]; position: none; painter: direct-svg; ">
                  <g class="k9-content k9-no-shape" k9-highlight="pulse">
                     <g rendered="true">
                        <g>
                           <path d="M13.0347 -9.9653 Q13.0347 -8.2569 11.9236 -7.0278 Q10.8194 -5.8056 9.0486 -5.4167 L12.8403 0 L10.9444 0 L7.2292 -5.2708 L3.3472 -5.2708 L3.3472 0 L1.6875 0 L1.6875 -14.6528 L7.6389 -14.6528 Q9.1319 -14.6528 10.3681 -14.0556 Q11.6042 -13.4583 12.3194 -12.3819 Q13.0347 -11.3056 13.0347 -9.9653 ZM3.3472 -6.8472 L7.3403 -6.8472 Q9.1528 -6.8472 10.25 -7.6806 Q11.3472 -8.5139 11.3472 -9.9653 Q11.3472 -11.4167 10.25 -12.2431 Q9.1528 -13.0764 7.3403 -13.0764 L3.3472 -13.0764 L3.3472 -6.8472 ZM20.457 -1.1736 Q21.4431 -1.1736 22.4292 -1.5556 Q23.4222 -1.9444 23.9361 -2.4931 L24.9153 -1.4514 Q24.2139 -0.6806 22.9431 -0.2083 Q21.6722 0.2569 20.4778 0.2569 Q19.0056 0.2569 17.7278 -0.4861 Q16.45 -1.2361 15.6653 -2.5694 Q14.8875 -3.9028 14.8875 -5.5486 Q14.8875 -7.1458 15.6236 -8.4653 Q16.3597 -9.7917 17.6097 -10.5347 Q18.8597 -11.2847 20.332 -11.2847 Q22.8042 -11.2847 24.1792 -9.5556 Q25.5542 -7.8264 25.5542 -4.9097 L16.5334 -4.9097 Q16.707 -3.2639 17.7834 -2.2153 Q18.8597 -1.1736 20.457 -1.1736 ZM20.3945 -9.8542 Q18.9014 -9.8542 17.832 -8.8819 Q16.7695 -7.9167 16.5542 -6.3333 L23.9778 -6.3333 Q23.8111 -7.9167 22.8875 -8.8819 Q21.9709 -9.8542 20.3945 -9.8542 ZM30.6781 -11.0278 L33.3864 -11.0278 L33.3864 -9.5972 L30.6781 -9.5972 L30.6781 0 L29.0739 0 L29.0739 -9.5972 L27.3517 -9.5972 L27.3517 -11.0278 L29.0739 -11.0278 L29.0739 -12.5417 Q29.0739 -13.7847 29.8309 -14.5694 Q30.5948 -15.3611 31.7684 -15.3611 Q32.9142 -15.3611 33.8101 -14.6528 L33.0253 -13.4861 Q32.8309 -13.6736 32.5323 -13.7986 Q32.2337 -13.9306 31.8726 -13.9306 Q31.3795 -13.9306 31.0253 -13.5347 Q30.6781 -13.1389 30.6781 -12.5417 L30.6781 -11.0278 ZM40.1522 -11.2847 Q42.3467 -11.2847 43.4856 -10.0347 Q44.6314 -8.7917 44.6314 -6.7222 L44.6314 0 L43.0272 0 L43.0272 -1.7292 Q42.4508 -0.7917 41.3745 -0.2639 Q40.2981 0.2569 39.1453 0.2569 Q37.3745 0.2569 36.2425 -0.7014 Q35.1175 -1.6667 35.1175 -3.2639 Q35.1175 -4.3333 35.7008 -5.1736 Q36.2911 -6.0139 37.2772 -6.4722 Q38.2703 -6.9306 39.4439 -6.9306 Q41.1106 -6.9306 43.0272 -6.3125 L43.0272 -6.7222 Q43.0272 -8.0625 42.3467 -8.9861 Q41.6661 -9.9167 40.0411 -9.9167 Q39.2981 -9.9167 38.5133 -9.6528 Q37.7356 -9.3889 36.8189 -8.9167 L36.18 -10.2153 Q38.312 -11.2847 40.1522 -11.2847 ZM39.4231 -1.1528 Q40.6175 -1.1528 41.6731 -1.7569 Q42.7286 -2.3681 43.0272 -3.4583 L43.0272 -5.1389 Q41.4092 -5.5903 39.7008 -5.5903 Q38.4439 -5.5903 37.555 -4.9514 Q36.6731 -4.3125 36.6731 -3.3264 Q36.6731 -2.3264 37.4508 -1.7361 Q38.2286 -1.1528 39.4231 -1.1528 ZM53.0152 0.2569 Q51.5013 0.2569 50.1749 -0.5278 Q48.8554 -1.3194 48.0707 -2.6528 Q47.2929 -3.9861 47.2929 -5.5278 Q47.2929 -7.0625 48.0707 -8.3819 Q48.8554 -9.7083 50.1749 -10.4931 Q51.5013 -11.2847 53.0152 -11.2847 Q54.1193 -11.2847 55.1332 -10.8542 Q56.1471 -10.4306 56.9388 -9.6667 L55.8277 -8.5764 Q55.2721 -9.1736 54.5429 -9.5139 Q53.8207 -9.8542 53.0152 -9.8542 Q51.9249 -9.8542 50.9943 -9.2639 Q50.0707 -8.6806 49.5221 -7.6806 Q48.9804 -6.6806 48.9804 -5.5278 Q48.9804 -4.3542 49.5221 -3.3611 Q50.0707 -2.3681 50.9943 -1.7708 Q51.9249 -1.1736 53.0152 -1.1736 Q53.8207 -1.1736 54.5707 -1.5208 Q55.3207 -1.875 55.8902 -2.5139 L57.0013 -1.4306 Q56.2165 -0.6389 55.1818 -0.1875 Q54.1471 0.2569 53.0152 0.2569 ZM65.0848 -0.4514 Q64.1889 0.2569 63.0431 0.2569 Q61.8695 0.2569 61.1056 -0.5278 Q60.3487 -1.3194 60.3487 -2.5625 L60.3487 -9.5972 L58.6265 -9.5972 L58.6265 -11.0278 L60.3487 -11.0278 L60.3487 -14.0556 L61.9528 -14.0556 L61.9528 -11.0278 L64.6612 -11.0278 L64.6612 -9.5972 L61.9528 -9.5972 L61.9528 -2.5625 Q61.9528 -1.9653 62.3001 -1.5694 Q62.6542 -1.1736 63.1473 -1.1736 Q63.5084 -1.1736 63.807 -1.2986 Q64.1056 -1.4306 64.3001 -1.6181 L65.0848 -0.4514 ZM72.4712 0.2569 Q70.9573 0.2569 69.6309 -0.5278 Q68.3115 -1.3194 67.5267 -2.6528 Q66.749 -3.9861 66.749 -5.5278 Q66.749 -7.0625 67.5267 -8.3819 Q68.3115 -9.7083 69.6309 -10.4931 Q70.9573 -11.2847 72.4712 -11.2847 Q73.9851 -11.2847 75.2976 -10.4931 Q76.6101 -9.7083 77.3879 -8.3819 Q78.1656 -7.0625 78.1656 -5.5278 Q78.1656 -3.9861 77.3879 -2.6528 Q76.6101 -1.3194 75.2976 -0.5278 Q73.9851 0.2569 72.4712 0.2569 ZM72.4712 -1.1736 Q73.5337 -1.1736 74.4642 -1.7708 Q75.3948 -2.3681 75.9365 -3.3611 Q76.4781 -4.3542 76.4781 -5.5278 Q76.4781 -6.6806 75.9365 -7.6806 Q75.3948 -8.6806 74.4642 -9.2639 Q73.5337 -9.8542 72.4712 -9.8542 Q71.3809 -9.8542 70.4504 -9.2639 Q69.5267 -8.6806 68.9781 -7.6806 Q68.4365 -6.6806 68.4365 -5.5278 Q68.4365 -4.3542 68.9781 -3.3611 Q69.5267 -2.3681 70.4504 -1.7708 Q71.3809 -1.1736 72.4712 -1.1736 ZM82.5575 -8.875 Q83.0506 -9.9861 84.1825 -10.6319 Q85.3145 -11.2847 86.8284 -11.2847 L86.8284 -9.8542 Q85.5923 -9.8542 84.62 -9.3819 Q83.6478 -8.9167 83.0992 -8.0694 Q82.5575 -7.2292 82.5575 -6.1667 L82.5575 0 L80.9603 0 L80.9603 -11.0278 L82.5575 -11.0278 L82.5575 -8.875 ZM100.3747 0.2361 Q96.9581 0.2361 94.59 -2.0903 L95.6386 -3.3889 Q96.6386 -2.3889 97.8122 -1.8333 Q98.9858 -1.2778 100.4372 -1.2778 Q101.5275 -1.2778 102.2914 -1.6319 Q103.0622 -1.9861 103.4581 -2.5694 Q103.8539 -3.1597 103.8539 -3.8403 Q103.8539 -4.9514 102.9233 -5.5347 Q101.9928 -6.125 99.9025 -6.6111 Q98.3053 -7 97.2706 -7.4653 Q96.2358 -7.9375 95.6664 -8.7361 Q95.1039 -9.5347 95.1039 -10.75 Q95.1039 -11.9028 95.7428 -12.8611 Q96.3817 -13.8264 97.4997 -14.375 Q98.6247 -14.9306 100.0136 -14.9306 Q101.5692 -14.9306 102.8122 -14.3889 Q104.0622 -13.8472 105.1525 -12.8403 L104.1247 -11.5417 Q103.1872 -12.4375 102.1178 -12.9236 Q101.0553 -13.4167 99.9233 -13.4167 Q99.0483 -13.4167 98.3192 -13.0625 Q97.597 -12.7153 97.1942 -12.125 Q96.7914 -11.5417 96.7914 -10.8819 Q96.7914 -9.8333 97.7081 -9.2917 Q98.6247 -8.75 100.7358 -8.2361 Q103.0831 -7.6806 104.3053 -6.7292 Q105.5345 -5.7847 105.5345 -3.9861 Q105.5345 -2.7917 104.9442 -1.8333 Q104.3608 -0.875 103.1872 -0.3194 Q102.0136 0.2361 100.3747 0.2361 ZM117.6743 -11.0278 L117.6743 0 L116.0771 0 L116.0771 -1.7708 Q115.584 -0.875 114.591 -0.3056 Q113.5979 0.2569 112.4452 0.2569 Q111.2507 0.2569 110.2993 -0.2847 Q109.3549 -0.8333 108.8271 -1.7986 Q108.3063 -2.7708 108.3063 -4.0139 L108.3063 -11.0278 L109.9104 -11.0278 L109.9104 -4.2222 Q109.9104 -2.8819 110.6743 -2.0278 Q111.4452 -1.1736 112.6604 -1.1736 Q113.5771 -1.1736 114.3549 -1.5556 Q115.1396 -1.9444 115.6049 -2.6042 Q116.0771 -3.2639 116.0771 -4.0139 L116.0771 -11.0278 L117.6743 -11.0278 ZM126.6995 -11.2847 Q128.1301 -11.2847 129.2898 -10.5486 Q130.4565 -9.8125 131.1162 -8.5 Q131.7759 -7.1875 131.7759 -5.5278 Q131.7759 -3.8611 131.1162 -2.5347 Q130.4565 -1.2153 129.2898 -0.4792 Q128.1301 0.2569 126.6995 0.2569 Q125.4009 0.2569 124.3662 -0.3472 Q123.3315 -0.9583 122.6856 -2.0694 L122.6856 0 L121.0884 0 L121.0884 -14.9097 L122.6856 -14.9097 L122.6856 -8.9583 Q123.3315 -10.0694 124.3662 -10.6736 Q125.4009 -11.2847 126.6995 -11.2847 ZM126.4009 -1.1736 Q127.4704 -1.1736 128.3106 -1.7292 Q129.1509 -2.2847 129.6162 -3.2708 Q130.0884 -4.2639 130.0884 -5.5278 Q130.0884 -6.7847 129.6162 -7.7639 Q129.1509 -8.75 128.3106 -9.2986 Q127.4704 -9.8542 126.4009 -9.8542 Q125.3315 -9.8542 124.4773 -9.2986 Q123.6301 -8.75 123.1579 -7.7639 Q122.6856 -6.7847 122.6856 -5.5278 Q122.6856 -4.2639 123.1579 -3.2708 Q123.6301 -2.2847 124.4773 -1.7292 Q125.3315 -1.1736 126.4009 -1.1736 ZM138.4561 0.2569 Q137.2825 0.2569 136.0741 -0.1667 Q134.8727 -0.5972 133.8866 -1.3889 L134.72 -2.5625 Q136.6158 -1.1736 138.4561 -1.1736 Q139.5394 -1.1736 140.213 -1.6389 Q140.8866 -2.1111 140.8866 -2.9028 Q140.8866 -3.4583 140.5186 -3.8264 Q140.1575 -4.2014 139.6158 -4.4167 Q139.0741 -4.6319 138.1088 -4.9097 Q136.088 -5.4861 135.2547 -6.1736 Q134.4213 -6.8681 134.4213 -8.0417 Q134.4213 -9.5139 135.5047 -10.3958 Q136.595 -11.2847 138.2825 -11.2847 Q139.2825 -11.2847 140.3033 -10.9514 Q141.3311 -10.625 142.2269 -10.0486 L141.463 -8.8125 Q139.8172 -9.8542 138.2825 -9.8542 Q137.3033 -9.8542 136.6575 -9.4236 Q136.0186 -9 136.0186 -8.2361 Q136.0186 -7.7639 136.2963 -7.4653 Q136.5741 -7.1667 137.1297 -6.9306 Q137.6852 -6.7014 138.8797 -6.3125 Q140.0533 -5.9514 140.7755 -5.6111 Q141.5047 -5.2708 141.9908 -4.6597 Q142.4838 -4.0556 142.4838 -3.0694 Q142.4838 -1.5764 141.345 -0.6597 Q140.2061 0.2569 138.4561 0.2569 ZM150.2527 0.2569 Q148.7388 0.2569 147.4124 -0.5278 Q146.093 -1.3194 145.3083 -2.6528 Q144.5305 -3.9861 144.5305 -5.5278 Q144.5305 -7.0625 145.3083 -8.3819 Q146.093 -9.7083 147.4124 -10.4931 Q148.7388 -11.2847 150.2527 -11.2847 Q151.3569 -11.2847 152.3708 -10.8542 Q153.3846 -10.4306 154.1763 -9.6667 L153.0652 -8.5764 Q152.5096 -9.1736 151.7805 -9.5139 Q151.0583 -9.8542 150.2527 -9.8542 Q149.1624 -9.8542 148.2319 -9.2639 Q147.3083 -8.6806 146.7596 -7.6806 Q146.218 -6.6806 146.218 -5.5278 Q146.218 -4.3542 146.7596 -3.3611 Q147.3083 -2.3681 148.2319 -1.7708 Q149.1624 -1.1736 150.2527 -1.1736 Q151.0583 -1.1736 151.8083 -1.5208 Q152.5583 -1.875 153.1277 -2.5139 L154.2388 -1.4306 Q153.4541 -0.6389 152.4194 -0.1875 Q151.3846 0.2569 150.2527 0.2569 ZM158.4404 -8.875 Q158.9334 -9.9861 160.0654 -10.6319 Q161.1973 -11.2847 162.7112 -11.2847 L162.7112 -9.8542 Q161.4751 -9.8542 160.5029 -9.3819 Q159.5307 -8.9167 158.9821 -8.0694 Q158.4404 -7.2292 158.4404 -6.1667 L158.4404 0 L156.8432 0 L156.8432 -11.0278 L158.4404 -11.0278 L158.4404 -8.875 ZM165.7167 -13.0347 Q165.2723 -13.0347 164.9598 -13.3542 Q164.6542 -13.6736 164.6542 -14.1042 Q164.6542 -14.5278 164.9598 -14.8333 Q165.2723 -15.1458 165.7167 -15.1458 Q166.1473 -15.1458 166.4528 -14.8333 Q166.7653 -14.5278 166.7653 -14.1042 Q166.7653 -13.6736 166.4528 -13.3542 Q166.1473 -13.0347 165.7167 -13.0347 ZM164.9042 -11.0278 L166.5084 -11.0278 L166.5084 0 L164.9042 0 L164.9042 -11.0278 ZM175.489 -11.2847 Q176.9195 -11.2847 178.0792 -10.5486 Q179.2459 -9.8125 179.9056 -8.5 Q180.5653 -7.1875 180.5653 -5.5278 Q180.5653 -3.8611 179.9056 -2.5347 Q179.2459 -1.2153 178.0792 -0.4792 Q176.9195 0.2569 175.489 0.2569 Q174.1903 0.2569 173.1556 -0.3472 Q172.1209 -0.9583 171.4751 -2.0694 L171.4751 3.6667 L169.8778 3.6667 L169.8778 -11.0278 L171.4751 -11.0278 L171.4751 -8.9583 Q172.1209 -10.0694 173.1556 -10.6736 Q174.1903 -11.2847 175.489 -11.2847 ZM175.1903 -1.1736 Q176.2598 -1.1736 177.1001 -1.7292 Q177.9403 -2.2847 178.4056 -3.2708 Q178.8778 -4.2639 178.8778 -5.5278 Q178.8778 -6.7847 178.4056 -7.7639 Q177.9403 -8.75 177.1001 -9.2986 Q176.2598 -9.8542 175.1903 -9.8542 Q174.1209 -9.8542 173.2667 -9.2986 Q172.4195 -8.75 171.9473 -7.7639 Q171.4751 -6.7847 171.4751 -5.5278 Q171.4751 -4.2639 171.9473 -3.2708 Q172.4195 -2.2847 173.2667 -1.7292 Q174.1209 -1.1736 175.1903 -1.1736 ZM188.9677 -0.4514 Q188.0719 0.2569 186.926 0.2569 Q185.7524 0.2569 184.9885 -0.5278 Q184.2316 -1.3194 184.2316 -2.5625 L184.2316 -9.5972 L182.5094 -9.5972 L182.5094 -11.0278 L184.2316 -11.0278 L184.2316 -14.0556 L185.8358 -14.0556 L185.8358 -11.0278 L188.5441 -11.0278 L188.5441 -9.5972 L185.8358 -9.5972 L185.8358 -2.5625 Q185.8358 -1.9653 186.183 -1.5694 Q186.5371 -1.1736 187.0302 -1.1736 Q187.3913 -1.1736 187.6899 -1.2986 Q187.9885 -1.4306 188.183 -1.6181 L188.9677 -0.4514 ZM192.0208 -13.0347 Q191.5763 -13.0347 191.2638 -13.3542 Q190.9583 -13.6736 190.9583 -14.1042 Q190.9583 -14.5278 191.2638 -14.8333 Q191.5763 -15.1458 192.0208 -15.1458 Q192.4513 -15.1458 192.7569 -14.8333 Q193.0694 -14.5278 193.0694 -14.1042 Q193.0694 -13.6736 192.7569 -13.3542 Q192.4513 -13.0347 192.0208 -13.0347 ZM191.2083 -11.0278 L192.8124 -11.0278 L192.8124 0 L191.2083 0 L191.2083 -11.0278 ZM201.1541 0.2569 Q199.6402 0.2569 198.3138 -0.5278 Q196.9944 -1.3194 196.2097 -2.6528 Q195.4319 -3.9861 195.4319 -5.5278 Q195.4319 -7.0625 196.2097 -8.3819 Q196.9944 -9.7083 198.3138 -10.4931 Q199.6402 -11.2847 201.1541 -11.2847 Q202.668 -11.2847 203.9805 -10.4931 Q205.293 -9.7083 206.0708 -8.3819 Q206.8486 -7.0625 206.8486 -5.5278 Q206.8486 -3.9861 206.0708 -2.6528 Q205.293 -1.3194 203.9805 -0.5278 Q202.668 0.2569 201.1541 0.2569 ZM201.1541 -1.1736 Q202.2166 -1.1736 203.1472 -1.7708 Q204.0777 -2.3681 204.6194 -3.3611 Q205.1611 -4.3542 205.1611 -5.5278 Q205.1611 -6.6806 204.6194 -7.6806 Q204.0777 -8.6806 203.1472 -9.2639 Q202.2166 -9.8542 201.1541 -9.8542 Q200.0638 -9.8542 199.1333 -9.2639 Q198.2097 -8.6806 197.6611 -7.6806 Q197.1194 -6.6806 197.1194 -5.5278 Q197.1194 -4.3542 197.6611 -3.3611 Q198.2097 -2.3681 199.1333 -1.7708 Q200.0638 -1.1736 201.1541 -1.1736 ZM214.7405 -11.2847 Q215.9349 -11.2847 216.8863 -10.7361 Q217.8377 -10.1944 218.3585 -9.2222 Q218.8794 -8.2569 218.8794 -7.0208 L218.8794 0 L217.2822 0 L217.2822 -6.8056 Q217.2822 -8.1528 216.5113 -9 Q215.7474 -9.8542 214.5252 -9.8542 Q213.6085 -9.8542 212.8307 -9.4722 Q212.053 -9.0903 211.5807 -8.4236 Q211.1155 -7.7639 211.1155 -7.0208 L211.1155 0 L209.5182 0 L209.5182 -11.0278 L211.1155 -11.0278 L211.1155 -9.2569 Q211.6085 -10.1528 212.5947 -10.7153 Q213.5877 -11.2847 214.7405 -11.2847 ZM226.0295 0.2569 Q224.8559 0.2569 223.6476 -0.1667 Q222.4462 -0.5972 221.4601 -1.3889 L222.2934 -2.5625 Q224.1893 -1.1736 226.0295 -1.1736 Q227.1129 -1.1736 227.7865 -1.6389 Q228.4601 -2.1111 228.4601 -2.9028 Q228.4601 -3.4583 228.092 -3.8264 Q227.7309 -4.2014 227.1893 -4.4167 Q226.6476 -4.6319 225.6823 -4.9097 Q223.6615 -5.4861 222.8282 -6.1736 Q221.9948 -6.8681 221.9948 -8.0417 Q221.9948 -9.5139 223.0782 -10.3958 Q224.1684 -11.2847 225.8559 -11.2847 Q226.8559 -11.2847 227.8768 -10.9514 Q228.9045 -10.625 229.8004 -10.0486 L229.0365 -8.8125 Q227.3907 -9.8542 225.8559 -9.8542 Q224.8768 -9.8542 224.2309 -9.4236 Q223.592 -9 223.592 -8.2361 Q223.592 -7.7639 223.8698 -7.4653 Q224.1476 -7.1667 224.7032 -6.9306 Q225.2587 -6.7014 226.4532 -6.3125 Q227.6268 -5.9514 228.349 -5.6111 Q229.0782 -5.2708 229.5643 -4.6597 Q230.0573 -4.0556 230.0573 -3.0694 Q230.0573 -1.5764 228.9184 -0.6597 Q227.7795 0.2569 226.0295 0.2569 Z"
                                 stroke="none"/>
                        </g>
                     </g>
                  </g>
               </g>
            </g>
         </g>
         <g transform="translate(838.0,13.0)"
            k9-texture="background"
            k9-info="margin: [13.333333969116211 13.333333969116211 13.333333969116211 13.333333969116211]; padding: [16.0 29.33333396911621 16.0 16.0]; min-size: [0.0 0.0]; sizing: [minimize minimize]; horiz: center; vert: center; layout: null; rectangular: connected; rect-pos: [838.0, 13.0]; rect-size: [183.0, 67.0]; position: none; painter: direct-svg; "
            id="4"
            k9-format="text-shape-inline"
            k9-ui="size drag delete align connect autoconnect edit vote"
            k9-elem="action"
            k9-type="connected">
            <g class="k9-shape" k9-highlight="pulse">
               <g k9-highlight="pulse"
                  k9-texture="background"
                  style="transform: translate(0px,0px)"
                  pp:style="transform: translate([[$x]]px,[[$y]]px)">
                  <polygon points="             0 0,              162.99999940395355 0,             183 33.5,             162.99999940395355 67,             0 67"
                           pp:points="             0 0,              [[$width - (15 * $pt)]] 0,             [[$width]] [[$height div 2]],             [[$width - (15 * $pt)]] [[$height]],             0 [[$height]]"/>
               </g>
            </g>
            <g class="k9-content">
               <g k9-elem="caption"
                  k9-texture="foreground"
                  transform="translate(14.3,45.3)"
                  k9-format="text-fixed"
                  k9-info="margin: [0.0 0.0 0.0 0.0]; padding: [0.0 0.0 0.0 0.0]; min-size: [0.0 0.0]; sizing: [minimize minimize]; horiz: center; vert: center; rectangular: connected; rect-pos: [854.0, 29.0]; rect-size: [138.0, 35.0]; position: none; painter: direct-svg; ">
                  <g class="k9-content k9-no-shape" k9-highlight="pulse">
                     <g rendered="true">
                        <g>
                           <path d="M3.3681 -13.0764 L3.3681 -8.2569 L11.3264 -8.2569 L11.3264 -6.6806 L3.3681 -6.6806 L3.3681 0 L1.6875 0 L1.6875 -14.6528 L12.2014 -14.6528 L12.2014 -13.0764 L3.3681 -13.0764 ZM14.6795 -14.6528 L16.3392 -14.6528 L16.3392 0 L14.6795 0 L14.6795 -14.6528 ZM27.2211 0 L23.9156 -4.3958 L20.5892 0 L18.7073 0 L22.9781 -5.6319 L18.8809 -11.0278 L20.7559 -11.0278 L23.9156 -6.8681 L27.0475 -11.0278 L28.9295 -11.0278 L24.8531 -5.6319 L29.0961 0 L27.2211 0 ZM44.5861 0.2569 Q42.6 0.2569 40.8639 -0.7778 Q39.1278 -1.8125 38.1 -3.5625 Q37.0792 -5.3125 37.0792 -7.3403 Q37.0792 -9.3681 38.1 -11.1042 Q39.1278 -12.8403 40.8639 -13.875 Q42.6 -14.9097 44.5861 -14.9097 Q46.0792 -14.9097 47.4403 -14.3194 Q48.8084 -13.7361 49.857 -12.6736 L48.725 -11.5208 Q47.9125 -12.3958 46.8361 -12.8819 Q45.7597 -13.375 44.5861 -13.375 Q43.0306 -13.375 41.6972 -12.5556 Q40.3639 -11.7361 39.5584 -10.3333 Q38.7597 -8.9375 38.7597 -7.3403 Q38.7597 -5.7153 39.5584 -4.3264 Q40.3639 -2.9444 41.6972 -2.1111 Q43.0306 -1.2778 44.5861 -1.2778 Q45.7597 -1.2778 46.8361 -1.7708 Q47.9125 -2.2639 48.725 -3.1389 L49.857 -1.9861 Q48.8084 -0.9375 47.4403 -0.3403 Q46.0792 0.2569 44.5861 0.2569 ZM52.1623 -14.6528 L53.822 -14.6528 L53.822 0 L52.1623 0 L52.1623 -14.6528 ZM63.3836 -14.6528 L69.335 -14.6528 Q70.8281 -14.6528 72.0642 -14.0556 Q73.3003 -13.4583 74.0156 -12.3819 Q74.7309 -11.3056 74.7309 -9.9653 Q74.7309 -8.6181 74.0156 -7.5417 Q73.3003 -6.4653 72.0642 -5.8681 Q70.8281 -5.2708 69.335 -5.2708 L65.0434 -5.2708 L65.0434 0 L63.3836 0 L63.3836 -14.6528 ZM69.0364 -6.8472 Q70.8489 -6.8472 71.9461 -7.6806 Q73.0434 -8.5139 73.0434 -9.9653 Q73.0434 -11.4167 71.9461 -12.2431 Q70.8489 -13.0764 69.0364 -13.0764 L65.0434 -13.0764 L65.0434 -6.8472 L69.0364 -6.8472 ZM77.8445 -13.0347 Q77.4001 -13.0347 77.0876 -13.3542 Q76.782 -13.6736 76.782 -14.1042 Q76.782 -14.5278 77.0876 -14.8333 Q77.4001 -15.1458 77.8445 -15.1458 Q78.2751 -15.1458 78.5807 -14.8333 Q78.8932 -14.5278 78.8932 -14.1042 Q78.8932 -13.6736 78.5807 -13.3542 Q78.2751 -13.0347 77.8445 -13.0347 ZM77.032 -11.0278 L78.6362 -11.0278 L78.6362 0 L77.032 0 L77.032 -11.0278 ZM87.6168 -11.2847 Q89.0473 -11.2847 90.2071 -10.5486 Q91.3737 -9.8125 92.0334 -8.5 Q92.6932 -7.1875 92.6932 -5.5278 Q92.6932 -3.8611 92.0334 -2.5347 Q91.3737 -1.2153 90.2071 -0.4792 Q89.0473 0.2569 87.6168 0.2569 Q86.3182 0.2569 85.2834 -0.3472 Q84.2487 -0.9583 83.6029 -2.0694 L83.6029 3.6667 L82.0057 3.6667 L82.0057 -11.0278 L83.6029 -11.0278 L83.6029 -8.9583 Q84.2487 -10.0694 85.2834 -10.6736 Q86.3182 -11.2847 87.6168 -11.2847 ZM87.3182 -1.1736 Q88.3876 -1.1736 89.2279 -1.7292 Q90.0682 -2.2847 90.5334 -3.2708 Q91.0057 -4.2639 91.0057 -5.5278 Q91.0057 -6.7847 90.5334 -7.7639 Q90.0682 -8.75 89.2279 -9.2986 Q88.3876 -9.8542 87.3182 -9.8542 Q86.2487 -9.8542 85.3946 -9.2986 Q84.5473 -8.75 84.0751 -7.7639 Q83.6029 -6.7847 83.6029 -5.5278 Q83.6029 -4.2639 84.0751 -3.2708 Q84.5473 -2.2847 85.3946 -1.7292 Q86.2487 -1.1736 87.3182 -1.1736 ZM100.4358 -1.1736 Q101.4219 -1.1736 102.408 -1.5556 Q103.4011 -1.9444 103.915 -2.4931 L104.8941 -1.4514 Q104.1927 -0.6806 102.9219 -0.2083 Q101.6511 0.2569 100.4566 0.2569 Q98.9844 0.2569 97.7066 -0.4861 Q96.4289 -1.2361 95.6441 -2.5694 Q94.8664 -3.9028 94.8664 -5.5486 Q94.8664 -7.1458 95.6025 -8.4653 Q96.3386 -9.7917 97.5886 -10.5347 Q98.8386 -11.2847 100.3108 -11.2847 Q102.783 -11.2847 104.158 -9.5556 Q105.533 -7.8264 105.533 -4.9097 L96.5122 -4.9097 Q96.6858 -3.2639 97.7622 -2.2153 Q98.8386 -1.1736 100.4358 -1.1736 ZM100.3733 -9.8542 Q98.8802 -9.8542 97.8108 -8.8819 Q96.7483 -7.9167 96.533 -6.3333 L103.9566 -6.3333 Q103.79 -7.9167 102.8664 -8.8819 Q101.9497 -9.8542 100.3733 -9.8542 ZM108.1569 -14.9097 L109.7611 -14.9097 L109.7611 0 L108.1569 0 L108.1569 -14.9097 ZM113.7913 -13.0347 Q113.3468 -13.0347 113.0343 -13.3542 Q112.7288 -13.6736 112.7288 -14.1042 Q112.7288 -14.5278 113.0343 -14.8333 Q113.3468 -15.1458 113.7913 -15.1458 Q114.2218 -15.1458 114.5274 -14.8333 Q114.8399 -14.5278 114.8399 -14.1042 Q114.8399 -13.6736 114.5274 -13.3542 Q114.2218 -13.0347 113.7913 -13.0347 ZM112.9788 -11.0278 L114.583 -11.0278 L114.583 0 L112.9788 0 L112.9788 -11.0278 ZM123.0496 -11.2847 Q124.2441 -11.2847 125.1955 -10.7361 Q126.1469 -10.1944 126.6677 -9.2222 Q127.1885 -8.2569 127.1885 -7.0208 L127.1885 0 L125.5913 0 L125.5913 -6.8056 Q125.5913 -8.1528 124.8205 -9 Q124.0566 -9.8542 122.8344 -9.8542 Q121.9177 -9.8542 121.1399 -9.4722 Q120.3621 -9.0903 119.8899 -8.4236 Q119.4246 -7.7639 119.4246 -7.0208 L119.4246 0 L117.8274 0 L117.8274 -11.0278 L119.4246 -11.0278 L119.4246 -9.2569 Q119.9177 -10.1528 120.9038 -10.7153 Q121.8969 -11.2847 123.0496 -11.2847 ZM135.4012 -1.1736 Q136.3873 -1.1736 137.3734 -1.5556 Q138.3665 -1.9444 138.8804 -2.4931 L139.8596 -1.4514 Q139.1582 -0.6806 137.8873 -0.2083 Q136.6165 0.2569 135.4221 0.2569 Q133.9498 0.2569 132.6721 -0.4861 Q131.3943 -1.2361 130.6096 -2.5694 Q129.8318 -3.9028 129.8318 -5.5486 Q129.8318 -7.1458 130.5679 -8.4653 Q131.304 -9.7917 132.554 -10.5347 Q133.804 -11.2847 135.2762 -11.2847 Q137.7484 -11.2847 139.1234 -9.5556 Q140.4984 -7.8264 140.4984 -4.9097 L131.4776 -4.9097 Q131.6512 -3.2639 132.7276 -2.2153 Q133.804 -1.1736 135.4012 -1.1736 ZM135.3387 -9.8542 Q133.8457 -9.8542 132.7762 -8.8819 Q131.7137 -7.9167 131.4984 -6.3333 L138.9221 -6.3333 Q138.7554 -7.9167 137.8318 -8.8819 Q136.9151 -9.8542 135.3387 -9.8542 Z"
                                 stroke="none"/>
                        </g>
                     </g>
                  </g>
               </g>
            </g>
         </g>
      </g>
   </g>
   <defs>
      <script xlink:actuate="onLoad"
              xlink:type="simple"
              xlink:show="other"
              type="module">
     import '/public/templates/risk-first/risk-first.js?v=v0.15'
  </script>
   </defs>
</svg>
