<?xml version="1.0" encoding="utf-8"?>
<!-- Generator: Adobe Illustrator 21.1.0, SVG Export Plug-In . SVG Version: 6.00 Build 0)  -->
<svg version="1.1" id="Layer_1" xmlns="http://www.w3.org/2000/svg" xmlns:xlink="http://www.w3.org/1999/xlink" x="0pt" y="0pt"
	 viewBox="0 0 85 85" style="enable-background:new 0 0 85 85;" xml:space="preserve">
<style type="text/css">
	.st0{fill:none;stroke:#000000;stroke-width:3;stroke-linecap:round;stroke-linejoin:round;}
	.st1{fill:none;stroke:#000000;stroke-width:2;stroke-linecap:round;stroke-linejoin:round;}
</style>
<g>
	<path class="st0" d="M57.6,59.1c-0.1,0-0.2-0.1-0.3-0.1c-0.9-0.5-1.7-1.2-2.3-2s-1.1-1.7-1.5-2.7c-0.3-1-0.4-2-0.3-3.1s0.4-2,0.8-3
		c0.2-0.5,0.5-0.9,0.8-1.3s0.7-0.8,1-1.1c0.4-0.3,0.8-0.6,1.2-0.9c0.4-0.3,0.8-0.5,1.2-0.9c0.7-0.6,1.1-1.4,1.3-2.3s0.2-1.8-0.1-2.6
		c-0.2-0.6-0.5-1.1-0.8-1.6s-0.7-1-0.9-1.5c-0.3-0.5-0.6-1.1-0.9-1.6c-0.3-0.5-0.7-1-1.2-1.4c-0.7-0.6-1.5-0.9-2.4-1
		c-0.9-0.1-1.7,0-2.5,0.4c-0.6,0.3-1.2,0.6-1.8,0.8s-1.2,0.4-1.9,0.5c-0.6,0.1-1.2,0-1.7,0c-0.6-0.1-1.2-0.2-1.7-0.4
		c-1.1-0.4-2.1-1-3-1.8c-0.8-0.8-1.5-1.7-2-2.8c-0.4-1-0.5-2-0.6-3s-0.3-2-0.9-2.9c-0.5-0.6-1-1.1-1.7-1.4s-1.4-0.5-2.2-0.5
		c-0.6,0-1.3,0-1.9,0c-0.7,0-1.3,0-2,0s-1.5,0-2.1,0.2c-0.7,0.2-1.3,0.5-1.9,1c-0.4,0.4-0.7,0.8-0.9,1.2c-0.2,0.5-0.4,1-0.5,1.5
		c-0.1,0.6-0.1,1.1-0.1,1.7c-0.1,0.5-0.1,1.1-0.3,1.6c-0.4,1-0.9,2-1.6,2.8s-1.6,1.5-2.5,1.9c-1,0.5-2.1,0.8-3.2,0.9
		c-1.1,0.1-2.2-0.1-3.2-0.4c-0.5-0.2-0.9-0.4-1.4-0.6c-0.4-0.2-0.9-0.4-1.4-0.5c-0.4-0.1-0.8-0.1-1.3-0.1c-0.4,0-0.8,0.1-1.2,0.3
		C7,32.6,6.5,33,6,33.5s-0.8,1-1.2,1.6c-0.3,0.6-0.7,1.2-1,1.7c-0.3,0.6-0.7,1.1-1,1.7c-0.4,0.7-0.6,1.4-0.7,2.2
		c0,0.7,0.1,1.5,0.4,2.2c0.4,0.9,1.1,1.5,1.9,2C5.2,45.5,6,46,6.6,46.7c1.4,1.7,2,3.8,1.9,5.9c-0.1,2.1-1,4.1-2.7,5.6
		c-0.4,0.3-1.1,0.8-1.5,1.1c-0.8,0.5-0.4,0.1-0.8,0.5c-0.3,0.3-0.9,0.6-1.1,0.9S2.1,61.5,2,61.9c-0.2,0.7-0.2,1.4,0,2
		s0.4,1.3,0.8,1.9c0.7,1.2,1.3,2.6,2.1,3.7c0.8,1.2,1.9,2.1,3.4,2.3c0.5,0.1,0.9,0.1,1.4,0s0.9-0.2,1.3-0.4c0.6-0.3,1.2-0.6,1.8-0.8
		c0.6-0.2,1.2-0.4,1.9-0.4c1.2-0.1,2.3,0,3.5,0.4c1.1,0.4,2.1,1,3,1.8c0.9,0.9,1.6,1.9,2,2.9c0.4,1.1,0.6,2.2,0.7,3.5
		c0.1,0.9,0.4,1.7,0.9,2.4c0.5,0.7,1.2,1.2,2,1.6c0.6,0.2,1.1,0.3,1.7,0.3s1.2,0,1.8,0c0.6,0,1.2,0,1.8,0s1.2,0,1.8-0.1
		c1-0.1,2-0.6,2.7-1.3c0.7-0.7,1.2-1.6,1.3-2.7c0.1-0.6,0.1-1.1,0.2-1.7s0.1-1.1,0.4-1.7c0.2-0.5,0.4-1,0.7-1.5s0.6-0.9,1-1.4
		c0.7-0.8,1.6-1.4,2.5-1.8c1-0.4,2-0.7,3.1-0.8c0.5,0,1.1,0,1.6,0.1s1.1,0.2,1.6,0.4c0.5,0.2,0.9,0.4,1.4,0.6
		c0.4,0.2,0.9,0.4,1.4,0.5c0.9,0.2,1.8,0.1,2.6-0.2c0.8-0.3,1.6-0.8,2.1-1.6c0.3-0.5,0.7-1,0.9-1.5c0.3-0.5,0.6-1,0.8-1.6
		c0.3-0.5,0.6-1.1,0.9-1.6c0.3-0.5,0.5-1.1,0.6-1.7c0.1-0.9,0-1.8-0.4-2.6C58.8,60.2,58.2,59.6,57.6,59.1"/>
	<path class="st0" d="M30.7,60.4c2.1,0,4-0.8,5.6-2.1c1.5-1.3,2.6-3,3-5.1c0.3-1.8,0.1-3.5-0.7-5.1c-0.7-1.6-1.9-2.9-3.4-3.9
		c-1.5-0.9-3.3-1.3-5.1-1.2c-1.7,0.1-3.4,0.7-4.8,1.9c-1.4,1.2-2.4,2.7-2.9,4.4s-0.4,3.5,0.2,5.3c0.6,1.7,1.7,3.2,3.2,4.2
		C27.2,59.9,28.9,60.4,30.7,60.4"/>
</g>
<g>
	<path class="st1" d="M82.5,20.2c0,0-0.1,0-0.1-0.1c-0.4-0.3-0.8-0.6-1.1-1c-0.3-0.4-0.5-0.8-0.7-1.3s-0.2-1-0.2-1.5
		c0-0.5,0.2-1,0.4-1.4c0.1-0.2,0.2-0.4,0.4-0.6c0.1-0.2,0.3-0.4,0.5-0.6c0.2-0.2,0.4-0.3,0.6-0.4c0.2-0.1,0.4-0.3,0.6-0.4
		c0.3-0.3,0.5-0.7,0.6-1.1s0.1-0.9-0.1-1.3c-0.1-0.3-0.2-0.5-0.4-0.8c-0.2-0.3-0.3-0.5-0.5-0.7c-0.1-0.3-0.3-0.5-0.4-0.8
		c-0.2-0.3-0.3-0.5-0.6-0.7c-0.3-0.3-0.7-0.4-1.1-0.5s-0.8,0-1.2,0.2c-0.3,0.1-0.6,0.3-0.9,0.4s-0.6,0.2-0.9,0.2s-0.6,0-0.8,0
		S76,7.7,75.8,7.6c-0.5-0.2-1-0.5-1.4-0.9s-0.7-0.8-1-1.4c-0.2-0.5-0.2-1-0.3-1.5c-0.1-0.5-0.1-1-0.5-1.4C72.3,2.2,72,2,71.7,1.9
		s-0.7-0.2-1-0.2s-0.6,0-0.9,0s-0.6,0-0.9,0c-0.4,0-0.7,0-1,0.1S67.3,2,67,2.3c-0.2,0.2-0.3,0.4-0.5,0.6c-0.1,0.2-0.2,0.5-0.2,0.7
		c0,0.3,0,0.5-0.1,0.8S66.1,4.9,66,5.1c-0.2,0.5-0.4,0.9-0.8,1.3c-0.3,0.4-0.8,0.7-1.2,0.9c-0.5,0.2-1,0.4-1.5,0.4s-1.1,0-1.6-0.2
		c-0.2-0.1-0.4-0.2-0.7-0.3C60,7.1,59.8,7,59.5,6.9C59.3,7,59.1,7,58.9,7c-0.2,0-0.4,0.1-0.6,0.1c-0.3,0.1-0.6,0.3-0.8,0.5
		s-0.4,0.5-0.6,0.8c-0.2,0.3-0.3,0.6-0.5,0.8c-0.2,0.3-0.3,0.6-0.5,0.8c-0.2,0.3-0.3,0.7-0.3,1c0,0.4,0,0.7,0.2,1.1
		c0.2,0.4,0.6,0.7,0.9,1c0.4,0.3,0.8,0.5,1,0.9c0.7,0.8,1,1.8,0.9,2.8c-0.1,1-0.5,2-1.3,2.7c-0.2,0.2-0.4,0.3-0.6,0.4
		c-0.2,0.1-0.4,0.3-0.6,0.4c-0.2,0.2-0.3,0.3-0.4,0.5s-0.2,0.4-0.2,0.6c-0.1,0.3-0.1,0.7,0,1s0.2,0.6,0.4,0.9c0.3,0.6,0.6,1.2,1,1.8
		c0.4,0.6,0.9,1,1.6,1.1c0.2,0,0.4,0,0.7,0c0.2,0,0.4-0.1,0.6-0.2c0.3-0.1,0.6-0.3,0.9-0.4c0.3-0.1,0.6-0.2,0.9-0.2
		c0.6-0.1,1.1,0,1.7,0.2c0.5,0.2,1,0.5,1.4,0.9c0.5,0.4,0.8,0.9,0.9,1.4c0.2,0.5,0.3,1.1,0.3,1.7c0,0.4,0.2,0.8,0.4,1.1
		c0.2,0.3,0.6,0.6,1,0.7c0.3,0.1,0.5,0.1,0.8,0.2c0.3,0,0.6,0,0.9,0s0.6,0,0.9,0s0.6,0,0.9,0c0.5-0.1,0.9-0.3,1.3-0.6
		c0.3-0.3,0.6-0.8,0.6-1.3c0-0.3,0-0.6,0.1-0.8s0.1-0.5,0.2-0.8s0.2-0.5,0.4-0.7c0.1-0.2,0.3-0.4,0.5-0.7c0.3-0.4,0.8-0.7,1.2-0.9
		c0.5-0.2,1-0.3,1.5-0.4c0.3,0,0.5,0,0.8,0s0.5,0.1,0.8,0.2c0.2,0.1,0.4,0.2,0.7,0.3c0.2,0.1,0.4,0.2,0.7,0.3
		c0.4,0.1,0.8,0.1,1.2-0.1c0.4-0.1,0.8-0.4,1-0.8c0.2-0.2,0.3-0.5,0.5-0.7c0.1-0.3,0.3-0.5,0.4-0.7c0.1-0.3,0.3-0.5,0.4-0.8
		s0.3-0.5,0.3-0.8c0.1-0.4,0-0.9-0.2-1.3C83.1,20.7,82.8,20.4,82.5,20.2"/>
	<path class="st1" d="M69.6,20.8c1,0,1.9-0.4,2.7-1c0.7-0.6,1.3-1.5,1.4-2.5c0.2-0.8,0-1.7-0.3-2.5s-0.9-1.4-1.7-1.9
		c-0.7-0.4-1.6-0.6-2.4-0.6c-0.8,0.1-1.7,0.4-2.3,0.9c-0.7,0.6-1.2,1.3-1.4,2.1c-0.2,0.8-0.2,1.7,0.1,2.5c0.3,0.8,0.8,1.5,1.5,2
		C67.9,20.5,68.7,20.8,69.6,20.8"/>
</g>
</svg>
