<svg xmlns="http://www.w3.org/2000/svg" xmlns:xlink="http://www.w3.org/1999/xlink" version="1.1" x="0pt" y="0pt" viewBox="0 0 1024 1024" style="enable-background:new 0 0 1024 1024;" xml:space="preserve"><g><g><path d="M679.1,677.6c-8.4-4.8-15.6-11.5-20.6-19.4c-4.8-7.7-8.2-17.2-8.9-25.5c-1.8-19.6,5.1-38,20.3-51.1    c3.7-3.2,8-5.5,12.2-8.2c5.3-3.4,10.3-7.4,14.6-12c8.5-8.9,14.8-19.7,18.4-31.5c6.6-21.3,3.3-44.3-7.7-63.5    c-7.1-12.4-14.3-24.7-21.4-37.1c-9.1-15.8-20-29.8-36.8-38.1c-22.8-11.3-49.5-11.2-72.1,0.4c-5.9,3-11.4,6.1-18,7.9    c-6.3,1.7-12.7,2.2-19.3,1.8c-10.3-0.7-20.5-4.6-29.2-10.5c-8.8-5.9-15.7-14.4-20.1-24c-2.2-4.8-3.7-10.2-4.5-15.4    c-0.9-5.9-0.4-11.9-1.1-17.8c-3.1-24.9-17.6-47.3-39.6-59.6c-15.9-8.9-32.6-10.1-50.2-10.1c-13.5,0-27.1-0.1-40.6,0    c-27.4,0.2-52.9,14-67.4,37.4c-7.5,12.1-11.4,26.2-11.7,40.4c-0.2,10.3-2.2,20.2-7.1,29.1c-9.2,16.7-27,28.6-45.3,30.4    c-10.1,1-19.3-0.2-28.8-4.1c-5.1-2.1-9.7-5.3-14.8-7.5c-5.8-2.5-11.7-4.5-17.9-5.6c-24.6-4.2-49.8,3-68.1,20    c-11.3,10.5-18.3,24.9-25.9,38.1c-7.1,12.4-15.6,24.8-20.6,38.3c-8.4,22.7-5.1,49.4,8.2,69.6c6.9,10.5,16.1,18.9,26.9,25.3    c8.6,5.2,15.9,11.9,20.9,20.2c9.8,16.2,11.3,35.7,4.2,53.5c-3.3,8.2-9.3,16.3-16.7,22.5c-3.7,3.2-8.1,5.4-12.3,8.1    c-5.4,3.6-10.5,7.8-14.9,12.6c-16.9,18.5-23.9,43.7-19.5,68.3c2.8,15.6,11.5,28.8,19.3,42.2c6.9,11.9,13.1,24.8,21.5,35.8    c15,19.8,38.9,31.7,63.8,31.3c12.6-0.2,25-3.4,36.1-9.2c12-6.3,23.5-10.3,37.3-9.3c21,1.6,40.5,15.8,48.9,35.1    c5,11.3,4,22.7,5.6,34.6c1.6,12,6.1,23.8,13.1,33.7c14.7,20.7,38,33.5,63.5,34c12.9,0.3,25.8,0,38.7,0c18.6,0,36.2-0.5,53.1-9.7    c25.6-13.9,40.4-40.9,40.8-69.7c0.7-41.4,43.9-69.8,81.8-53.6c5.3,2.3,10.1,5.5,15.4,7.7c5.8,2.5,11.8,4.3,18,5.3    c12.2,1.9,24.7,1.2,36.4-2.5c20-6.4,35.6-20.1,46.1-38.2c7.3-12.7,14.7-25.4,22-38.1c9.9-17.1,15.3-35.2,12.5-55.1    C714.4,711,700,690,679.1,677.6c-11.1-6.6-21.2,10.7-10.1,17.3c18.5,10.9,29.8,30.7,29.5,52c-0.2,15.5-7.5,27.7-14.9,40.7    c-6.4,11-12.6,22.1-19.1,33c-10.6,18-29.9,29.4-50.7,29.5c-10.6,0.1-20.6-2.8-29.9-8c-10.2-5.8-21.1-9.3-32.8-10.4    c-21.7-2.2-43.6,5.8-59.8,20.2c-17.5,15.5-25.3,37.1-25.9,60.1c-0.7,24.7-17.5,47.2-41.2,54.4c-13.7,4.2-29.2,2.6-43.3,2.6    c-13.1,0-27.6,1.5-40.4-1.6c-20.4-5-37.1-20.6-42.9-40.9c-3.3-11.6-1.8-23.6-4.6-35.3c-2.9-12-8.8-22.9-16.7-32.3    c-15.3-18.1-39.6-28.6-63.3-27.4c-7.6,0.4-15.3,1.7-22.4,4.3c-6.4,2.3-12.1,5.7-18.2,8.7c-9.5,4.7-20.2,6.2-30.7,5.4    c-19-1.6-36.1-13.3-45.7-29.8c-6.9-11.8-13.7-23.7-20.5-35.5c-2.4-4.1-4.9-8.2-7-12.4c-4.9-9.5-6.7-20.1-6.1-30.6    c0.6-10.1,4.3-20.1,10-28.7c6-9,14.1-14.4,23-20.2c37.8-24.7,47.6-78,20-114c-6.8-8.9-15.2-15.6-24.8-21.4    c-9.2-5.6-16.5-13.5-21.6-22.9c-9.5-17.9-8.7-39.3,1.2-56.9c6.5-11.4,13.1-22.7,19.7-34c2.1-3.7,4.2-7.4,6.4-11.1    c5.5-9.3,13.1-16.9,22.5-22.1c18.6-10.3,40.4-9.3,58.7,1c19.6,11,43.5,13.6,64.8,5.9c20.7-7.5,37.9-22.9,46.6-43.3    c4.8-11.2,5.9-22.4,6.5-34.4c0.6-12,5.1-23.9,12.6-33.3c7.7-9.6,18.2-16.6,30-19.9c6.9-1.9,13.7-2.2,20.8-2.2    c14.6,0,29.1,0,43.7,0c17.3,0,33.2,4.7,45.7,17.2c7.4,7.4,12.7,16.5,15.3,26.6c3.1,11.6,1.5,23.7,4.5,35.4    c6.1,23.4,23.5,42.7,45.7,52.1c11.2,4.7,23.5,7,35.6,6.2c7.4-0.5,14.7-1.9,21.6-4.6c6.6-2.5,12.3-6.1,18.7-9    c19.2-8.7,42.1-5.8,59,6.6c11.7,8.6,17.9,21.5,25,33.8c6.4,11.2,13.6,22.2,19.3,33.8c9.3,19.1,6.6,41.8-5.3,59.2    c-6.1,8.9-14.6,13.9-23.3,19.8c-9.4,6.4-17.4,14.5-23.4,24.1c-11.2,18.1-14.3,40.6-9.1,61.1c5.2,20.5,18.9,38.2,37.2,48.7    C680.2,701.3,690.3,684.1,679.1,677.6z"></path><path d="M380.4,729c-42.5-0.3-82.1-27.2-96.4-67.6c-14.5-41-1.7-86.7,31.7-114.4c32.9-27.3,81.2-30.2,117.6-8.3    c36.3,21.8,56.1,65.5,47.8,107.2C471.6,693.8,429.2,728.7,380.4,729c-12.9,0.1-12.9,20.1,0,20c51.4-0.3,97.5-32.8,115.3-81    c17.5-47.5,2.2-103.5-36.9-135.6c-39.8-32.6-97-37.7-141.3-11c-44.3,26.7-67.1,79.2-57,129.8c9.7,48.8,50.8,88.6,100,96.1    c6.6,1,13.3,1.6,20,1.7C393.3,749,393.3,729,380.4,729z"></path></g></g><g><g><path d="M954.6,239.2c-16.3-9.4-17.2-32.7-1.3-42.8c11.1-7,19.9-16.7,22.6-29.9c2.4-11.6,0.3-23.1-5.5-33.4    c-8.7-15.2-16.3-33-33.3-40.5c-13.2-5.8-27.8-5.1-40.4,1.7c-9.7,5.1-20.4,5.2-29.1-1.8c-3.9-3.2-6.8-7.5-8.2-12.4    c-1.7-6-0.9-12.3-2.4-18.4c-3.2-12.4-12.1-23.5-23.7-29c-14-6.7-31.4-4.9-46.5-4.6c-15.3,0.3-29.1,7.7-37.7,20.4    c-4.3,6.3-6.6,13.9-7.2,21.4c-0.5,5.4-0.4,10-2.8,14.6c-4.2,7.9-12.8,13.6-21.2,13.7c-4.8,0-9-0.9-13.6-3.4    c-5.9-3.2-12-5.2-18.7-5.9c-13.1-1.4-26.8,3.8-36,13.1c-5.7,5.8-9.4,13.3-13.4,20.2c-4.1,7-8.9,14.1-11.2,22    c-3.7,12.6-1.5,27.2,6.1,38c4,5.6,8.8,10,14.7,13.6c4,2.5,7.1,5.3,9.3,9.2c4.3,7.4,4.5,16.7,0.6,24c-2.2,4.2-5.1,7.3-9.3,9.9    c-5.7,3.6-10.5,7.5-14.5,12.9c-7.9,10.7-10.5,24.9-7.2,37.7c2,7.9,6.7,15,10.8,22c3.9,6.8,7.5,14.1,12.8,20    c8.6,9.8,22.4,15.5,35.4,14.8c7.1-0.4,13.7-2.3,19.9-5.7c5.3-2.8,10.9-4.5,17.1-3.6c9.1,1.4,17.6,8.5,20.2,17.9    c1.7,6,0.9,12.3,2.4,18.4c1.7,6.5,4.9,12.5,9.2,17.7c8.4,10.3,21.3,15.9,34.4,16.1c6.5,0.1,13,0,19.5,0c10.3,0,20-0.6,29.3-5.8    c13.5-7.5,21.8-21.6,22.9-36.9c0.7-10.3,3.3-18.5,12.2-23.8c8.1-4.8,16.8-4.9,25.5-0.3c23,12.2,49.6,4.4,62.6-18    c3.8-6.6,7.6-13.2,11.4-19.8c5.7-9.9,8.2-20.7,6.3-32.1C974.1,257.2,965.8,246,954.6,239.2c-11-6.7-21.1,10.6-10.1,17.3    c8.7,5.2,13.8,15,12.4,25.1c-0.9,6.6-5.1,12.4-8.3,18.1c-3.1,5.5-5.9,11.5-9.7,16.6c-5.7,7.8-16.2,11.7-25.5,9.6    c-5.4-1.3-9.9-4.5-15-6.4c-5.4-2-11.5-2.9-17.2-2.5c-11.5,0.8-22.7,5.7-30.5,14.2c-4.2,4.6-7.4,9.8-9.5,15.6    c-2.3,6.1-2,12.1-2.8,18.4c-1.4,11.1-10.6,20.3-21.7,21.8c-6.5,0.8-13.4,0.1-19.9,0.1c-6.4,0-13.1,0.7-19.1-1.7    c-8.7-3.4-15.1-12-15.8-21.3c-0.9-13.4-3.9-25.3-14.2-34.8c-9.3-8.6-22.3-13.5-35-12.1c-7.3,0.8-13.4,3.3-19.9,6.6    c-4.4,2.2-9.6,3.2-14.5,2.5c-16.3-2.2-22.8-19.9-30.1-32.5c-3.9-6.7-6.3-13.6-4.4-21.2c1.1-4.6,3.4-8.7,6.8-12.1    c3.8-3.8,8.9-6,12.9-9.6c18.1-15.9,19.2-44.2,4.2-62.4c-6.7-8.1-17.5-11.2-22.2-21c-3.7-7.8-2.9-16.4,1.3-23.9    c3.6-6.3,7.2-12.5,10.9-18.8c3.8-6.5,8-12.2,15.5-14.8c4.4-1.5,9-1.9,13.6-0.8c5.4,1.3,9.9,4.5,15,6.4c11.4,4.2,24,3,34.8-2.2    c10.7-5.1,18.7-14.6,22.7-25.7c2.1-6,1.8-11.9,2.6-18c0.8-5.7,3.6-10.8,7.7-14.8c6.2-5.9,13.8-6.8,21.9-6.8c7.1,0,14.2,0,21.2,0    c8.3,0.1,16,3.4,21,10.2c6.9,9.4,3.9,21.6,8.3,32.2c5,11.9,14.8,20.8,26.9,25.2c5.9,2.1,12.5,2.9,18.7,2.3    c7.6-0.8,13.7-3.7,20.5-6.9c8.6-4.1,19.1-2.8,26.5,3.3c5.2,4.3,8.2,11,11.5,16.7c3.2,5.5,7.4,11.2,9.5,17.2    c3.4,9.5,0.9,19.9-6.5,26.9c-3.9,3.7-8.9,5.9-12.9,9.5c-4.1,3.7-7.6,8.4-9.9,13.5c-4.7,10.3-5.9,22-2.4,32.9    c3.4,10.8,10.8,20,20.6,25.7C955.7,262.9,965.7,245.6,954.6,239.2z"></path><path d="M800.1,264.7c-19.6-0.2-38-12.5-44.5-31.3c-6.5-19-0.7-40.1,14.9-52.8c15.2-12.3,37.1-13.6,53.8-3.7    c16.6,9.9,25.9,29.7,22.3,48.8C842.5,248.2,822.9,264.4,800.1,264.7c-12.9,0.2-12.9,20.2,0,20c28.5-0.3,53.5-18.1,63.4-44.7    c9.5-25.8,1-56.5-20.1-73.9c-21.7-18-53.1-21-77.5-6.4c-24.6,14.6-36.9,43.5-31.5,71.4c6,31.2,34.6,53.3,65.8,53.7    C813,284.8,813,264.8,800.1,264.7z"></path></g></g></svg>