<?xml version="1.0" encoding="utf-8"?>
<!-- Generator: Adobe Illustrator 21.1.0, SVG Export Plug-In . SVG Version: 6.00 Build 0)  -->
<svg version="1.1"
	 id="Layer_1" xmlns:cc="http://creativecommons.org/ns#" xmlns:dc="http://purl.org/dc/elements/1.1/" xmlns:inkscape="http://www.inkscape.org/namespaces/inkscape" xmlns:rdf="http://www.w3.org/1999/02/22-rdf-syntax-ns#" xmlns:sodipodi="http://sodipodi.sourceforge.net/DTD/sodipodi-0.dtd" xmlns:svg="http://www.w3.org/2000/svg"
	 xmlns="http://www.w3.org/2000/svg" xmlns:xlink="http://www.w3.org/1999/xlink" x="0pt" y="0pt" viewBox="0 0 85 85"
	 style="enable-background:new 0 0 85 85;" xml:space="preserve">
<style type="text/css">
	.st0{fill:#FFFFFF;stroke:#000000;stroke-width:3;stroke-miterlimit:10;}
	.st1{fill:none;stroke:#000000;stroke-width:3;stroke-miterlimit:10;}
	.st2{fill:none;stroke:#000000;stroke-width:3;stroke-linecap:round;stroke-miterlimit:10;}
</style>
<g>
	<path class="st0" d="M35.6,63.3h45.3c0.9,0,1.7-0.8,1.7-1.7V19.2c0-0.4-0.1-0.7-0.3-1L70.7,2.9c-0.3-0.4-0.8-0.7-1.4-0.7H35.6
		c-0.9,0-1.7,0.8-1.7,1.7v57.7C33.9,62.6,34.7,63.3,35.6,63.3z"/>
	<path class="st1" d="M69.5,1.2v17.9c0,0.6,0.4,1,0.9,1h12.3"/>
</g>
<g>
	<path class="st0" d="M20.5,73.6h45.3c0.9,0,1.7-0.8,1.7-1.7V29.4c0-0.4-0.1-0.7-0.3-1L55.6,13.2c-0.3-0.4-0.8-0.7-1.4-0.7H20.5
		c-0.9,0-1.7,0.8-1.7,1.7v57.7C18.8,72.8,19.6,73.6,20.5,73.6z"/>
	<path class="st1" d="M54.3,11.5v17.9c0,0.6,0.4,1,0.9,1h12.3"/>
</g>
<g>
	<path class="st0" d="M4,82.7h45.3c0.9,0,1.7-0.8,1.7-1.7V38.5c0-0.4-0.1-0.7-0.3-1L39,22.3c-0.3-0.4-0.8-0.7-1.4-0.7H4
		c-0.9,0-1.7,0.8-1.7,1.7V81C2.3,81.9,3.1,82.7,4,82.7z"/>
	<path class="st1" d="M37.8,20.5v17.9c0,0.6,0.4,1,0.9,1H51"/>
	<path class="st2" d="M12.1,59.2l8.3,8.3c0.6,0.6,1.4,0.6,2,0L42,47.8"/>
</g>
</svg>
