<svg xmlns:dc="http://purl.org/dc/elements/1.1/" xmlns:cc="http://creativecommons.org/ns#" xmlns:rdf="http://www.w3.org/1999/02/22-rdf-syntax-ns#" xmlns:svg="http://www.w3.org/2000/svg" xmlns="http://www.w3.org/2000/svg" xmlns:sodipodi="http://sodipodi.sourceforge.net/DTD/sodipodi-0.dtd" xmlns:inkscape="http://www.inkscape.org/namespaces/inkscape" version="1.1" x="0pt" y="0pt" viewBox="0 0 100 100"><g transform="translate(0,-952.36218)"><path style="text-indent:0;text-transform:none;direction:ltr;block-progression:tb;baseline-shift:baseline;color:#000000;enable-background:accumulate;" d="m 56.866844,1003.2808 a 2.0009599,1.9994412 0 0 0 -1.37541,0.6048 l -19.491398,19.4766 -8.25917,-8.2622 a 2.0009599,1.9994412 0 1 0 -2.8309,2.8261 l 9.67396,9.6773 a 2.0009599,1.9994412 0 0 0 2.83024,6e-4 l 20.906848,-20.891 a 2.0009599,1.9994412 0 0 0 -1.45417,-3.4322 z" fill="#000000" fill-opacity="1" fill-rule="evenodd" stroke="none" marker="none" visibility="visible" display="inline" overflow="visible"></path><path style="text-indent:0;text-transform:none;direction:ltr;block-progression:tb;baseline-shift:baseline;color:#000000;enable-background:accumulate;" d="m 69.000034,958.36208 -36.999998,0 c -1.04717,10e-5 -1.9999,0.9528 -2,2 l 0,7.0001 -5,0 c -1.047161,1e-4 -1.999901,0.9528 -2.000001,2 l 0,8 -7,0 c -1.05324,-0.01 -1.98959,0.959 -2,2 l 0,65.00002 c -0.006,1.0514 0.93624,2.0101 2,2 l 51.999999,0 c 1.06378,0.01 2.00621,-0.9486 2,-2 l 0,-8 6,0 c 1.06378,0.01 2.03747,-0.9486 2.03126,-2 l -0.0313,-7 6,0 c 1.04716,-10e-5 1.9999,-0.9528 2,-2 l 0,-47.00002 c 0,-0.8471 -0.29787,-1.3964 -0.71875,-1.9375 l -13.46873,-16.8751 c -0.37059,-0.4352 -1.40261,-1.1811 -2.81252,-1.1875 z m -34.999998,4.0001 33.999998,0 0,10 -3.59374,-4 c -0.43737,-0.5263 -0.90667,-1 -1.40626,-1 l -28.999998,0 z m 37.999998,4 8,10 -8,0 z m -44.999998,5 33.999998,0 0,13 -5,-6 c -0.57209,-0.7074 -1.28683,-1 -2,-1 l -26.999998,0 z m 37.999998,4 7,10 -7,0 z m 9,5 8,0 0,43.00002 -4,0 0,-36.00002 c 0,-1 -0.15625,-1.9063 -1,-3 z m -55.999999,1 33.999999,0 0,16 c -0.006,1.0514 0.7175,2.01013 1.78126,2.00003 l 12.21874,0 0,42.99999 -47.999999,0 z m 37.999999,3 8,11 -8,0 z m 18,5 0,43.00002 -4,0 0,-36.00002 c 0,-0.6387 -0.66946,-1.5257 -1,-2 l -4,-5 z" fill="#000000" fill-opacity="1" fill-rule="evenodd" stroke="none" marker="none" visibility="visible" display="inline" overflow="visible"></path></g></svg>