<?xml version="1.0" encoding="utf-8"?>
<!-- Generator: Adobe Illustrator 21.1.0, SVG Export Plug-In . SVG Version: 6.00 Build 0)  -->
<svg version="1.1" id="Layer_1" xmlns="http://www.w3.org/2000/svg" xmlns:xlink="http://www.w3.org/1999/xlink" x="0pt" y="0pt"
	 viewBox="0 0 85 85" style="enable-background:new 0 0 85 85;" xml:space="preserve">
<style type="text/css">
	.st0{fill:none;stroke:#000000;stroke-width:2.9089;stroke-miterlimit:10;}
	.st1{fill:#1A171B;}
	.st2{fill:none;stroke:#1A171B;stroke-width:3;stroke-miterlimit:10;}
</style>
<circle class="st0" cx="42.5" cy="42.4" r="40.7"/>
<g>
	<circle class="st1" cx="29" cy="30.7" r="2"/>
	<circle class="st1" cx="21.9" cy="30.7" r="2"/>
	<circle class="st1" cx="36" cy="30.7" r="2"/>
	<path class="st2" d="M65.2,59.5H19.8c-2.3,0-4.2-1.9-4.2-4.2V29.4c0-2.3,1.9-4.2,4.2-4.2h45.4c2.3,0,4.2,1.9,4.2,4.2v25.9
		C69.4,57.6,67.5,59.5,65.2,59.5z"/>
	<line class="st2" x1="16.5" y1="36" x2="68.7" y2="36"/>
	<line class="st2" x1="33.8" y1="44.9" x2="65.1" y2="44.9"/>
	<line class="st2" x1="20" y1="44.9" x2="27.9" y2="44.9"/>
	<line class="st2" x1="33.8" y1="50.9" x2="65.1" y2="50.9"/>
	<line class="st2" x1="20" y1="50.9" x2="27.9" y2="50.9"/>
</g>
</svg>
