<?xml version="1.0" encoding="utf-8"?>
<!-- Generator: Adobe Illustrator 21.1.0, SVG Export Plug-In . SVG Version: 
	6.00 Build 0) -->
<svg version="1.1" id="Layer_1" xmlns="http://www.w3.org/2000/svg"
	xmlns:xlink="http://www.w3.org/1999/xlink" x="0pt" y="0pt"
	viewBox="0 0 85 85" style="enable-background:new 0 0 85 85;"
	xml:space="preserve">
<style type="text/css">
	.st0{
		fill:none;
		stroke:#1A171B;
		stroke-width:3;
		stroke-linecap:round;
		stroke-miterlimit:10;
	}
</style>
<g>
	<path class="st0"
	d="M25.6,22.5h50c0.2,0,0.3,0.1,0.3,0.3v19.3c0,0.2-0.2,0.4-0.4,0.4h-16" />
	<path class="st0"
	d="M62.7,46l-3.3-3.2c-0.2-0.2-0.2-0.4,0-0.6l3.3-3.2" />
</g>
<g>
	<path class="st0"
	d="M25.7,42.5h-16c-0.2,0-0.3,0.1-0.3,0.3v19.3c0,0.2,0.2,0.4,0.4,0.4h49" />
	<path class="st0"
	d="M55.6,66l3.3-3.2c0.2-0.2,0.2-0.4,0-0.6l-3.3-3.2" />
</g>
<circle class="st0" cx="42.5" cy="42.5" r="6.9" />
<path class="st0"
	d="M15.4,29.2H2.8c-0.3,0-0.5-0.2-0.5-0.5V16.2c0-0.3,0.2-0.5,0.5-0.5h12.6c0.3,0,0.5,0.2,0.5,0.5v12.6
	C15.9,29,15.6,29.2,15.4,29.2z" />
<path class="st0"
	d="M74.8,55.5l-6.2,13c-0.1,0.3,0.1,0.7,0.4,0.7H82c0.4,0,0.6-0.4,0.4-0.7l-6.7-13C75.5,55.2,75,55.2,74.8,55.5z" />
</svg>
