<?xml version="1.0" encoding="utf-8"?>
<!-- Generator: Adobe Illustrator 21.1.0, SVG Export Plug-In . SVG Version: 6.00 Build 0)  -->
<svg version="1.1" id="Layer_1" xmlns="http://www.w3.org/2000/svg" xmlns:xlink="http://www.w3.org/1999/xlink" x="0pt" y="0pt"
	 viewBox="0 0 85 85" style="enable-background:new 0 0 85 85;" xml:space="preserve">
<style type="text/css">
	.st0{fill:none;stroke:#000000;stroke-width:3;stroke-linecap:round;stroke-linejoin:round;}
</style>
<title>users</title>
<desc>Created with Sketch.</desc>
<path class="st0" d="M3.7,81.7c0.2-5,1.6-11.1,3.2-12.2c1.1-0.7,7.3-2.7,10.3-3.7c2.2-0.7,2.7-1.2,3.4-1.4c3.1-1.2,4.5-3.9,4-7.3
	c-0.2-1.3-1.1-2.6-2.3-4.5C20.5,50,19,46.5,19,43.2c0-6.8,4.5-12.4,9.9-12.4s9.9,5.7,9.9,12.4c0,3.3-1.6,6.8-3.2,9.3
	c-1.2,1.8-2.1,3.1-2.3,4.5c-0.5,3.4,0.9,6,4,7.3c0.7,0.2,1.9,0.7,4.2,1.4c3,1,8.4,3.1,9.4,3.7c1.8,1.3,3.1,8,3.2,12.3"/>
<path class="st0" d="M68.3,67.9c-0.2-4.3-1.4-10.9-3.2-12.3c-1.1-0.7-7.3-2.7-10.2-3.7c-2.2-0.7-3.6-1.2-4.2-1.4
	c-3.1-1.2-4.5-3.9-4-7.2c0.2-1.3,1.1-2.6,2.3-4.5c1.7-2.6,3.7-6.2,3.7-9.5c0-6.8-4.1-12.3-9.5-12.3c-1.6,0-3.6,0.4-5,1.3
	c0,0-3.5,2.2-3.6,6"/>
<path class="st0" d="M82.3,54c-0.2-4.3-1.4-10.9-3.2-12.3c-1.1-0.7-7.3-2.7-10.2-3.7c-2.2-0.7-3.6-1.2-4.2-1.4
	c-3.1-1.2-4.5-3.9-4-7.3c0.2-1.3,1.1-2.6,2.3-4.5c1.7-2.6,3.7-6.2,3.7-9.5C66.6,8.6,62.4,3,57.1,3c-1.6,0-3.6,0.4-5,1.3
	c0,0-3.5,2.2-3.6,6"/>
</svg>
