<svg xmlns="http://www.w3.org/2000/svg" xmlns:xlink="http://www.w3.org/1999/xlink" viewBox="0 0 100 100" version="1.1" x="0pt" y="0pt"><title>users</title><desc>Created with Sketch.</desc><g stroke="none" stroke-width="1" fill="none" fill-rule="evenodd"><path d="M68.8281197,66.1200332 C67.2537351,64.9807495 63.1718072,63.5294803 54.6171534,60.7080861 C52.5353841,60.0211582 50.5683361,59.3720043 49.9723457,59.1285716 C49.318062,58.8608889 48.9813601,58.7228505 49.1501774,57.5196774 C49.3497736,57.0048313 50.2591486,55.650562 50.9283553,54.6530476 C53.3351678,51.0677784 56.9722014,45.6493024 56.9722014,39.6889322 C56.9722014,27.7943072 48.6773024,18.1176245 38.4806438,18.1176245 C28.2844514,18.1176245 19.9890861,27.7943072 19.9890861,39.6889322 C19.9890861,45.6493024 23.6265861,51.0677784 26.0329322,54.6530476 C26.7026053,55.650562 27.6119803,57.0048313 27.8111101,57.5201438 C27.9803938,58.7228505 27.6436918,58.8608889 26.9884755,59.1285716 C26.3929514,59.3724707 24.4259034,60.0211582 22.3432014,60.7085524 C13.7894803,63.5294803 9.70801875,64.9807495 8.13363413,66.1200332 C2.40736971,70.2644514 1.60525433,83.4233409 1.50265817,86.0194899 C1.43130721,87.8209851 2.83407644,89.3389418 4.63557163,89.4098264 C4.67940817,89.4116918 4.72324471,89.4126245 4.7666149,89.4126245 C6.51028317,89.4126245 7.95688894,88.0345716 8.02637452,86.2773793 C8.26234567,80.3011534 9.90015337,72.9007062 11.9334226,71.4284514 C13.2368601,70.5866966 20.7688168,68.1024707 24.3885957,66.9081582 C27.1134563,66.0099755 28.6925043,65.4858024 29.4610428,65.1710188 C33.1349178,63.6679851 34.8799851,60.4772447 34.2476197,56.4167687 C33.9967255,54.801812 32.9297255,53.213437 31.4537399,51.0141486 C29.371038,47.9110812 26.5179322,43.6612687 26.5179322,39.6889322 C26.5179322,31.5353361 31.9965668,24.6464707 38.4806438,24.6464707 C44.965187,24.6464707 50.4433553,31.5353361 50.4433553,39.6889322 C50.4433553,43.6612687 47.5907159,47.9110812 45.5075476,51.0141486 C44.031562,53.213437 42.9650284,54.801812 42.7136678,56.4167687 C42.0817688,60.4772447 43.8263697,63.6679851 47.4997784,65.1710188 C48.2692495,65.4858024 49.8478313,66.0095091 52.5722255,66.9076918 C56.1920043,68.1020043 63.7244274,70.5866966 65.0003505,71.4093313 C67.2397447,73.0294178 68.7245909,81.0864803 68.9353793,86.2792447 C69.0057976,88.0359707 70.451937,89.4126245 72.1951389,89.4126245 C72.2385091,89.4126245 72.2823457,89.4116918 72.3261822,89.4098264 C74.1276774,89.3389418 75.5304466,87.8205188 75.4590957,86.0194899 C75.4530332,85.8674611 75.3028697,82.2458168 74.5389947,78.1429034 C73.396913,72.007187 71.5287303,68.0744899 68.8281197,66.1200332" fill="#000000"></path><path d="M97.5496332,70.9911587 C96.4070851,64.8559087 94.5393687,60.9232115 91.8387582,58.9692212 C90.2643736,57.8290048 86.1824457,56.3777356 77.6277918,53.5563413 C75.5455563,52.8698798 73.5789745,52.2211923 72.9829841,51.9772933 C72.3287005,51.7091442 71.9919986,51.5715721 72.1608159,50.3679327 C72.360412,49.8535529 73.269787,48.4988173 73.9394601,47.5013029 C76.3458062,43.9155673 79.9828399,38.4970913 79.9828399,32.5376538 C79.9828399,20.6430288 71.6874745,10.9663462 61.4912822,10.9663462 C58.3653639,10.9663462 55.2716236,11.9018365 52.5453639,13.6711538 C51.032537,14.6523462 50.6025659,16.6739567 51.5842245,18.1867837 C52.2091284,19.1502548 53.2565418,19.6744279 54.3254072,19.6744279 C54.9344553,19.6744279 55.5504986,19.5042115 56.099388,19.1479231 C57.7889601,18.0510769 59.6030466,17.4951923 61.4912822,17.4951923 C67.9753591,17.4951923 73.4539937,24.3840577 73.4539937,32.5376538 C73.4539937,36.509524 70.600888,40.7593365 68.5181861,43.8624038 C67.0422005,46.0616923 65.9752005,47.651 65.7243062,49.2654904 C65.0924072,53.3259663 66.8370082,56.5167067 70.5104168,58.0197404 C71.2794216,58.3340577 72.8584697,58.8577644 75.5828639,59.7564135 C79.2026428,60.950726 86.7350659,63.4349519 88.0109889,64.2580529 C90.2499168,65.8781394 91.734763,73.9347356 91.9460178,79.1270337 C92.0159697,80.884226 93.4625755,82.2608798 95.2053111,82.2608798 C95.2486813,82.2608798 95.2929841,82.2599471 95.3368207,82.2580817 C97.1383159,82.1871971 98.5406188,80.668774 98.4697341,78.8677452 C98.4632053,78.71525 98.3135082,75.0945385 97.5496332,70.9911587" fill="#000000"></path></g></svg>