<?xml version="1.0" encoding="UTF-8"?>
<svg xmlns="http://www.w3.org/2000/svg"
     xmlns:adl="http://www.kite9.org/schema/adl"
     xmlns:exslt="http://exslt.org/common"
     xmlns:pp="http://www.kite9.org/schema/post-processor"
     xmlns:xlink="http://www.w3.org/1999/xlink"
     contentScriptType="text/ecmascript"
     zoomAndPan="magnify"
     contentStyleType="text/css"
     version="1.0"
     width="1046"
     pp:width="$width"
     preserveAspectRatio="xMidYMid meet"
     height="83"
     pp:height="$height">
   <metadata xmlns:md="http://www.kite9.org/schema/metadata">
      <md:self>http://robs-pro:8080/api/renderer?format=svg</md:self>
   </metadata>
   <defs>
      <style xml:space="preserve">*[k9-format="text-fixed"] {
--kite9-type: TEXT;
--kite9-vertical-align: CENTER;
--kite9-horizontal-align: CENTER;
--kite9-horizontal-sizing: MINIMIZE;
--kite9-vertical-sizing: MINIMIZE;
}

*[k9-format="image"], *[k9-format="image-fixed"] {
--kite9-type: SVG;
--kite9-horizontal-align: CENTER;
--kite9-vertical-align: CENTER;
}

*[k9-format="shape"] {
--kite9-type: CONTAINER;
--kite9-horizontal-align: CENTER;
--kite9-vertical-align: CENTER;
}

*[k9-format="svg"], *[k9-format="svg-fixed"] {
--kite9-type: SVG;
--kite9-horizontal-align: CENTER;
--kite9-vertical-align: CENTER;
}

*[k9-format="container"] {
--kite9-type: CONTAINER;
--kite9-horizontal-sizing: MINIMIZE;
--kite9-vertical-sizing: MINIMIZE;
}

*[k9-format="text-image-portrait"], *[k9-format="text-image-captioned"], *[k9-format="text-shape-captioned"], *[k9-format="text-shape-portrait"], *[k9-format="text-shape-inline"] {
--kite9-type: CONTAINER;
--kite9-horizontal-sizing: MINIMIZE;
--kite9-vertical-sizing: MINIMIZE;
}

*[k9-format="text-image-portrait"], *[k9-format="text-shape-portrait"] {
--kite9-layout: DOWN;
}

*[k9-format="text-shape-captioned"] &gt; g &gt; *[k9-elem="depiction"], *[k9-format="text-image-portrait"] &gt; g &gt; *[k9-elem="depiction"], *[k9-format="text-shape-portrait"] &gt; g &gt; *[k9-elem="depiction"] {
--kite9-type: SVG;
--kite9-horizontal-align: CENTER;
--kite9-connections: SEPARATE;
}

*[k9-format="text-shape-inline"] &gt; g &gt; *[k9-elem="caption"], *[k9-format="text-image-portrait"] &gt; g &gt; *[k9-elem="caption"], *[k9-format="text-shape-portrait"] &gt; g &gt; *[k9-elem="caption"], *[k9-format="text-shape-captioned"] &gt; g &gt; *[k9-elem="caption"] {
--kite9-type: TEXT;
--kite9-horizontal-align: CENTER;
--kite9-vertical-align: CENTER;
--kite9-horizontal-sizing: MINIMIZE;
--kite9-vertical-sizing: MINIMIZE;
}

*[k9-format="text-shape-captioned"] &gt; g &gt; *[k9-elem="shape-align"] {
--kite9-type: LINK;
}

*[k9-format="text-shape-captioned"] &gt; g &gt; *[k9-elem="shape-align"] &gt; g &gt; *[k9-elem="from"], *[k9-format="text-shape-captioned"] &gt; g &gt; *[k9-elem="shape-align"] &gt; g &gt; *[k9-elem="to"] {
--kite9-type: LINK_END;
}

*[k9-elem="diagram"] {
--kite9-type: DIAGRAM;
--kite9-traversal-bottom: LEAVING;
--kite9-traversal-left: LEAVING;
--kite9-traversal-right: LEAVING;
--kite9-traversal-top: LEAVING;
}

*[k9-elem="group"] {
--kite9-horizontal-sizing: MINIMIZE;
--kite9-vertical-sizing: MINIMIZE;
--kite9-traversal-bottom: ALWAYS;
--kite9-traversal-left: ALWAYS;
--kite9-traversal-right: ALWAYS;
--kite9-traversal-top: ALWAYS;
--kite9-min-width: 40pt;
--kite9-min-height: 40pt;
}

*[k9-elem="container"] {
--kite9-padding-top: 15pt;
--kite9-padding-right: 15pt;
--kite9-padding-bottom: 15pt;
--kite9-padding-left: 15pt;
--kite9-margin-top: 15pt;
--kite9-margin-right: 15pt;
--kite9-margin-bottom: 15pt;
--kite9-margin-left: 15pt;
--kite9-horizontal-sizing: MINIMIZE;
--kite9-vertical-sizing: MINIMIZE;
}

*[k9-elem="label"] {
--kite9-usage: LABEL;
--kite9-horizontal-sizing: MINIMIZE;
--kite9-vertical-sizing: MINIMIZE;
--kite9-direction: DOWN;
}

*[k9-elem="label-inner"] {
--kite9-horizontal-sizing: MINIMIZE;
--kite9-vertical-sizing: MINIMIZE;
--kite9-padding-top: 4pt;
--kite9-padding-right: 4pt;
--kite9-padding-bottom: 4pt;
--kite9-padding-left: 4pt;
--kite9-margin-top: 4pt;
--kite9-margin-right: 4pt;
--kite9-margin-bottom: 4pt;
--kite9-margin-left: 4pt;
}

*[k9-elem="label"][end="to"] {
--kite9-link-end: TO;
}

*[k9-elem="label"][end="from"] {
--kite9-link-end: FROM;
}

*[k9-elem="table"] {
--kite9-layout: GRID;
--kite9-padding-top: 10pt;
--kite9-padding-right: 10pt;
--kite9-padding-bottom: 10pt;
--kite9-padding-left: 10pt;
}

*[k9-elem="cell"] {
--kite9-usage: REGULAR;
--kite9-vertical-align: CENTER;
--kite9-horizontal-align: CENTER;
--kite9-horizontal-sizing: MINIMIZE;
--kite9-vertical-sizing: MINIMIZE;
text-align: center;
--kite9-min-width: 30pt;
--kite9-min-height: 30pt;
--kite9-traversal-bottom: ALWAYS;
--kite9-traversal-left: ALWAYS;
--kite9-traversal-right: ALWAYS;
--kite9-traversal-top: ALWAYS;
}

*[k9-format="link-align"], *[k9-format="link-basic"] {
--kite9-type: LINK;
--kite9-link-from-xpath: "descendant::*[@k9-elem='from']/@reference";
--kite9-link-to-xpath: "descendant::*[@k9-elem='to']/@reference";
}

*[k9-elem="link-grab"], *[k9-elem="align-grab"], *[k9-elem="grab"], *[k9-elem="align-body"], *[k9-elem="link-body"] {
--kite9-usage: DECAL;
--kite9-type: SVG;
fill: none;
}

*[k9-elem="from"], *[k9-elem="to"] {
fill: rgb(255, 255, 255);
fill-opacity: 0.01;
}

*[k9-elem="link"] {
--kite9-margin-top: 20pt;
--kite9-margin-right: 20pt;
--kite9-margin-bottom: 20pt;
--kite9-margin-left: 20pt;
--kite9-link-corner-radius: 6pt;
}

*.indicators-on *[id] *[k9-elem="align-body"] {
stroke: rgb(187, 221, 238);
stroke-opacity: 1;
}

*[k9-elem="from"] {
--kite9-link-end: FROM;
}

*[k9-elem="to"] {
--kite9-link-end: TO;
}

*[k9-elem="from"].gap, *[k9-elem="to"].gap {
--kite9-marker-reserve: 20pt;
}

*[k9-elem="from"][shape="open-diamond"], *[k9-elem="to"][shape="open-diamond"] {
--kite9-marker-reserve: 8pt;
}

*[k9-elem="from"][shape="open-arrow"], *[k9-elem="to"][shape="open-arrow"] {
--kite9-marker-reserve: 6pt;
}

*[k9-elem="from"], *[k9-elem="to"] {
--kite9-type: LINK_END;
--kite9-padding-top: 8pt;
--kite9-padding-right: 8pt;
--kite9-padding-bottom: 8pt;
--kite9-padding-left: 8pt;
}

*[k9-elem="port"] {
--kite9-type: PORT;
}

*[k9-elem="hub"] {
--kite9-type: SVG;
--kite9-margin-top: 0;
--kite9-margin-right: 0;
--kite9-margin-bottom: 0;
--kite9-margin-left: 0;
--kite9-min-width: 10pt;
--kite9-min-height: 10pt;
}

*[k9-elem="group"] {
--kite9-type: CONTAINER;
--kite9-margin-top: 20pt;
--kite9-margin-right: 20pt;
--kite9-margin-bottom: 20pt;
--kite9-margin-left: 20pt;
}

*[k9-elem="textarea"] {
--kite9-margin-top: 4pt;
--kite9-margin-right: 4pt;
--kite9-margin-bottom: 4pt;
--kite9-margin-left: 4pt;
--kite9-vertical-align: CENTER;
--kite9-horizontal-align: CENTER;
}

*[id] &gt; *[k9-highlight] {
}

*.indicators-on *[id] &gt; *[k9-highlight~="grab"] {
stroke-width: 10pt;
fill-opacity: 0.5;
}

*.indicators-on *[id] &gt; *[k9-highlight~="bar"] {
stroke-width: 10pt;
stroke-opacity: 0.1;
}

*.indicators-on *[id] &gt; *[k9-highlight~="stroke"] {
stroke: rgb(183, 192, 254);
stroke-opacity: 0.8;
stroke-width: 1pt;
stroke-dasharray: none;
}

*.indicators-on *[id] &gt; *[k9-highlight~="stroke"] &gt; image {
filter: url(#highlight-visible);
}

*.indicators-on *[id] &gt; *[k9-highlight~="fill"] {
fill: rgb(183, 192, 254);
fill-opacity: 0.6;
}

*.indicators-off *[id] &gt; *[k9-highlight~="fill"] {
fill-opacity: 0;
}

*.indicators-off *[id] &gt; *[k9-highlight~="stroke"] {
stroke-opacity: 0;
}

*.indicators-off *[id] &gt; *[k9-highlight~="stroke"] &gt; image {
filter: url(#highlight-invisible);
}

*.indicators-on *[id][default] &gt; *[k9-highlight~="bar"], *.indicators-on *[id][default] &gt; g &gt; *[k9-highlight~="bar"] {
stroke-width: 10pt;
stroke-opacity: 0.8;
stroke: rgb(253, 152, 112);
}

*.indicators-on *[id][default] &gt; *[k9-highlight~="pulse"], *.indicators-on *[id][default] &gt; g &gt; *[k9-highlight~="pulse"] {
fill-opacity: 1;
fill: rgb(253, 152, 112);
}

*.mouseover &gt; g &gt; *[k9-highlight~="stroke"], *.mouseover &gt; g &gt; *[k9-highlight~="outline"], *.mouseover &gt; g &gt; *[k9-highlight~="bar"], *.mouseover &gt; *[k9-highlight~="stroke"], *.mouseover &gt; *[k9-highlight~="outline"], *.mouseover &gt; *[k9-highlight~="bar"] {
stroke: rgb(187, 221, 238);
stroke-opacity: 1;
}

*.mouseover &gt; g &gt; *[k9-highlight~="pulse"], *.mouseover &gt; g &gt; *[k9-highlight~="fill"], *.mouseover &gt; g &gt; *[k9-highlight~="grab"], *.mouseover &gt; *[k9-highlight~="pulse"], *.mouseover &gt; *[k9-highlight~="fill"], *.mouseover &gt; *[k9-highlight~="grab"], *.mouseover.grid-temporary {
fill: rgb(204, 238, 255);
fill-opacity: 0.8;
}

*.selected &gt; g &gt; *[k9-highlight~="outline"], *.selected &gt; g &gt; *[k9-highlight~="stroke"], *.selected &gt; g &gt; *[k9-highlight~="bar"], *.selected &gt; *[k9-highlight~="outline"], *.selected &gt; *[k9-highlight~="stroke"], *.selected &gt; *[k9-highlight~="bar"] {
stroke: rgb(255, 204, 0);
stroke-opacity: 0.8;
}

*[k9-elem="_temporary"].selected, *.selected &gt; g &gt; *[k9-highlight~="pulse"], *.selected &gt; g &gt; *[k9-highlight~="fill"], *.selected &gt; g &gt; *[k9-highlight~="grab"], *.selected &gt; *[k9-highlight~="pulse"], *.selected &gt; *[k9-highlight~="fill"], *.selected &gt; *[k9-highlight~="grab"] {
fill: rgb(255, 204, 0);
fill-opacity: 0.8;
}

*.dropping &gt; g &gt; *[k9-highlight~="outline"], *.dropping &gt; g &gt; *[k9-highlight~="stroke"], *.dropping &gt; g &gt; *[k9-highlight~="bar"], *.dropping &gt; *[k9-highlight~="outline"], *.dropping &gt; *[k9-highlight~="stroke"], *.dropping &gt; *[k9-highlight~="bar"] {
stroke: rgb(220, 221, 221);
stroke-opacity: 0.8;
}

*.dropping &gt; g &gt; *[k9-highlight~="pulse"], *.dropping &gt; g &gt; *[k9-highlight~="fill"], *.dropping &gt; g &gt; *[k9-highlight~="grab"], *.dropping &gt; *[k9-highlight~="pulse"], *.dropping &gt; *[k9-highlight~="fill"], *.dropping &gt; *[k9-highlight~="grab"] {
fill: rgb(220, 221, 221);
fill-opacity: 0.8;
}

*[k9-elem="diagram"].selected &gt; *[k9-highlight] {
fill-opacity: 0;
fill: white;
}

*.inactive &gt; *[k9-highlight~="outline"], *.inactive &gt; *[k9-highlight~="stroke"], *.inactive &gt; *[k9-highlight~="bar"] {
stroke-opacity: 0.2;
}

*.inactive &gt; *[k9-highlight~="pulse"], *.inactive &gt; *[k9-highlight~="fill"], *.inactive &gt; *[k9-highlight~="grab"], *.inactive &gt; g &gt; text {
fill-opacity: 0.2;
}

*.indicators-on *.grid-temporary {
fill-opacity: 0.3;
stroke: none;
}

*[k9-elem="action"] {
--kite9-horizontal-sizing: MINIMIZE;
--kite9-vertical-sizing: MINIMIZE;
--kite9-margin-top: 10pt;
--kite9-margin-right: 10pt;
--kite9-margin-bottom: 10pt;
--kite9-margin-left: 10pt;
--kite9-padding-top: 12pt;
--kite9-padding-right: 22pt;
--kite9-padding-bottom: 12pt;
--kite9-padding-left: 12pt;
stroke-width: 1pt;
}

*[k9-elem="action"].left {
--kite9-padding-left: 22pt;
--kite9-padding-right: 12pt;
}

*[k9-elem="glyph"] &gt; g &gt; *[k9-elem="caption"], *[k9-elem="action"] &gt; g &gt; *[k9-elem="caption"] {
--kite9-margin-top: 0pt;
--kite9-margin-right: 0pt;
--kite9-margin-bottom: 0pt;
--kite9-margin-left: 0pt;
--kite9-padding-top: 0pt;
--kite9-padding-right: 0pt;
--kite9-padding-bottom: 0pt;
--kite9-padding-left: 0pt;
fill: black;
}

*[k9-elem="glyph"] {
--kite9-layout: DOWN;
--kite9-padding-top: 6pt;
--kite9-padding-right: 10pt;
--kite9-padding-bottom: 6pt;
--kite9-padding-left: 10pt;
--kite9-margin-top: 10pt;
--kite9-margin-right: 10pt;
--kite9-margin-left: 10pt;
--kite9-margin-bottom: 10pt;
}

*[k9-elem="artifact"], *[k9-elem="cash"], *[k9-elem="document"], *[k9-elem="users"], *[k9-elem="computer"], *[k9-elem="interface"], *[k9-elem="component"], *[k9-elem="channel-artifact"], *[k9-elem="internal-model-artifact"], *[k9-elem="protocol-artifact"], *[k9-elem="agent-artifact"], *[k9-elem="image-artifact"], *[k9-elem="generic-artifact"] {
--kite9-margin-top: 10pt;
--kite9-margin-right: 10pt;
--kite9-margin-bottom: 10pt;
--kite9-margin-left: 10pt;
--kite9-link-inset: 10pt;
--kite9-link-gutter: 10pt;
--kite9-layout: VERTICAL;
--kite9-padding-top: 10pt;
--kite9-padding-right: 10pt;
--kite9-padding-bottom: 10pt;
--kite9-padding-left: 10pt;
--kite9-min-width: 110pt;
--kite9-min-height: 140pt;
}

*[k9-elem="arrow"], *[k9-elem="block"] {
--kite9-padding-top: 8pt;
--kite9-padding-right: 8pt;
--kite9-padding-bottom: 8pt;
--kite9-padding-left: 8pt;
--kite9-horizontal-sizing: MINIMIZE;
--kite9-vertical-sizing: MINIMIZE;
--kite9-connections: SEPARATE;
font-size: 15pt;
font-weight: 500;
--kite9-link-inset: 3pt;
}

*[k9-elem="block"] &gt; g &gt; *[k9-elem="caption"] {
--kite9-margin-top: 5pt;
--kite9-margin-right: 5pt;
--kite9-margin-bottom: 5pt;
--kite9-margin-left: 5pt;
--kite9-padding-top: 5pt;
--kite9-padding-right: 5pt;
--kite9-padding-bottom: 5pt;
--kite9-padding-left: 5pt;
}

*[k9-elem="arrow"] &gt; g &gt; *[k9-elem="caption"] {
--kite9-margin-top: 0pt;
--kite9-margin-right: 0pt;
--kite9-margin-bottom: 0pt;
--kite9-margin-left: 0pt;
--kite9-padding-top: 0pt;
--kite9-padding-right: 0pt;
--kite9-padding-bottom: 0pt;
--kite9-padding-left: 0pt;
}

*[k9-elem="description"] {
--kite9-padding-top: 10pt;
--kite9-padding-right: 10pt;
--kite9-padding-bottom: 10pt;
--kite9-padding-left: 10pt;
--kite9-usage: REGULAR;
--kite9-text-bounds-width: 250pt;
--kite9-direction: DOWN;
}

*[k9-elem="planner"] {
--kite9-layout: GRID;
--kite9-padding-top: 10pt;
--kite9-padding-right: 10pt;
--kite9-padding-bottom: 10pt;
--kite9-padding-left: 10pt;
}

*[k9-elem="planner-cell"], *[k9-elem="planner-header"] {
--kite9-usage: REGULAR;
--kite9-vertical-align: CENTER;
--kite9-horizontal-align: CENTER;
--kite9-horizontal-sizing: MINIMIZE;
--kite9-vertical-sizing: MINIMIZE;
text-align: center;
--kite9-min-width: 230pt;
--kite9-min-height: 30pt;
--kite9-traversal-bottom: ALWAYS;
--kite9-traversal-left: ALWAYS;
--kite9-traversal-right: ALWAYS;
--kite9-traversal-top: ALWAYS;
--kite9-padding-top: 10pt;
--kite9-padding-right: 10pt;
--kite9-padding-bottom: 10pt;
--kite9-padding-left: 10pt;
--kite9-layout: RIGHT;
}

*[k9-elem="planner-header"] {
--kite9-min-width: 60pt;
--kite9-min-height: 30pt;
}

*[k9-elem="mitigated"] {
--kite9-min-width: 120pt;
--kite9-min-height: 160pt;
}

*[k9-elem="hidden"], *[k9-elem="mitigated"] {
--kite9-margin-top: 10pt;
--kite9-margin-right: 10pt;
--kite9-margin-bottom: 10pt;
--kite9-margin-left: 10pt;
--kite9-min-width: 120pt;
--kite9-min-height: 160pt;
--kite9-padding-top: 0;
--kite9-padding-right: 0;
--kite9-padding-bottom: 0;
--kite9-padding-left: 0;
}

*[k9-elem="mitigated"] *.k9-content *[k9-elem="risk"], *[k9-elem="hidden"] *.k9-content *[k9-elem="risk"] {
--kite9-margin-top: 0;
--kite9-margin-right: 0;
--kite9-margin-bottom: 0;
--kite9-margin-left: 0;
}

*[k9-elem="risk"] {
--kite9-layout: DOWN;
--kite9-margin-top: 10pt;
--kite9-margin-right: 10pt;
--kite9-margin-bottom: 10pt;
--kite9-margin-left: 10pt;
--kite9-link-inset: 10pt;
--kite9-link-gutter: 10pt;
--kite9-padding-top: 10pt;
--kite9-padding-right: 10pt;
--kite9-padding-bottom: 10pt;
--kite9-padding-left: 10pt;
--kite9-min-width: 145pt;
--kite9-min-height: 170pt;
}

*[k9-elem="title"][k9-format="text-fixed"] {
--kite9-horizontal-align: CENTER;
--kite9-vertical-align: BOTTOM;
--kite9-horizontal-sizing: MINIMIZE;
--kite9-vertical-sizing: MINIMIZE;
--kite9-type: TEXT;
--kite9-text-bounds-width: 110pt;
--kite9-padding-top: 0pt;
--kite9-padding-right: 0pt;
--kite9-padding-bottom: 0pt;
--kite9-padding-left: 0pt;
}

*[k9-elem="code"][k9-format="text-fixed"] {
--kite9-horizontal-align: CENTER;
--kite9-vertical-align: TOP;
--kite9-horizontal-sizing: MINIMIZE;
--kite9-vertical-sizing: MINIMIZE;
--kite9-padding-top: 0pt;
--kite9-padding-right: 0pt;
--kite9-padding-bottom: 0pt;
--kite9-padding-left: 0pt;
--kite9-margin-top: 0pt;
--kite9-margin-right: 0pt;
--kite9-margin-bottom: 10pt;
--kite9-margin-left: 0pt;
}

*[k9-elem="risk"] &gt; g &gt; *[k9-format="image-fixed"] {
--kite9-vertical-align: TOP;
--kite9-horizontal-align: CENTER;
}

*[k9-elem="celltext"][k9-format="text-fixed"] {
--kite9-usage: REGULAR;
--kite9-padding-top: 10pt;
--kite9-padding-right: 10pt;
--kite9-padding-bottom: 10pt;
--kite9-padding-left: 10pt;
--kite9-vertical-align: BOTTOM;
--kite9-horizontal-align: CENTER;
--kite9-horizontal-sizing: MINIMIZE;
--kite9-vertical-sizing: MINIMIZE;
font-size: 15pt;
fill: black;
stroke: none;
--kite9-text-bounds-width: 350pt;
}

*[k9-elem="celltext"].bold {
font-weight: bold;
}

*[k9-elem="celltext"].bottom {
--kite9-vertical-align: BOTTOM;
}

*[k9-elem="celltext"] *[k9-elem="text-label"] {
--kite9-horizontal-align: LEFT;
}

*[k9-elem="description"].top {
--kite9-vertical-align: TOP;
}

*[k9-elem="tick"] {
--kite9-usage: REGULAR;
--kite9-type: CONTAINER;
}

*[k9-elem="table"] *[k9-elem="risk"], *[k9-elem="table"] *[k9-elem="tick"] {
--kite9-horizontal-align: CENTER;
--kite9-margin-top: 20pt;
--kite9-margin-right: 20pt;
--kite9-margin-bottom: 20pt;
--kite9-margin-left: 20pt;
}

*[k9-elem="table"] *[k9-elem="celltext"].bottom {
--kite9-vertical-align: BOTTOM;
}

*[k9-elem="table"] *[k9-elem="celltext"].top {
--kite9-vertical-align: TOP;
}

*[k9-elem="table"] &gt; rect, *[k9-elem="table"] &gt; g &gt; rect {
stroke: white;
}

*[k9-elem="table"].wide *[k9-elem="description"] {
--kite9-text-bounds-width: 450pt;
}

*[k9-elem="description"].top {
--kite9-horizontal-align: LEFT;
text-align: left;
}

*[k9-elem="description"].left {
--kite9-horizontal-align: LEFT;
text-align: left;
}

*[k9-elem="description"].middle {
--kite9-horizontal-align: CENTER;
}

*[k9-elem="cell"] &gt; g &gt; rect {
stroke: white;
}

*[k9-elem="description"], *[k9-elem="long-description"], *.description {
font-size: 14pt;
--kite9-padding-top: 10pt;
--kite9-padding-right: 10pt;
--kite9-padding-bottom: 10pt;
--kite9-padding-left: 10pt;
--kite9-text-bounds-width: 250pt;
}

*[k9-elem="description"].bold {
fill: black;
font-style: normal;
font-weight: 600;
}

*[k9-elem="big-image"] {
--kite9-margin-top: 10pt;
--kite9-margin-right: 10pt;
--kite9-margin-bottom: 10pt;
--kite9-margin-left: 10pt;
--kite9-link-inset: 10pt;
--kite9-link-gutter: 10pt;
--kite9-layout: VERTICAL;
--kite9-padding-top: 10pt;
--kite9-padding-right: 10pt;
--kite9-padding-bottom: 10pt;
--kite9-padding-left: 10pt;
--kite9-min-width: 110pt;
--kite9-min-height: 140pt;
}

*[k9-elem="diagram"].principle {
fill-opacity: 1;
fill: rgb(245, 245, 245);
--kite9-layout: VERTICAL;
--kite9-padding-left: 0pt;
--kite9-padding-right: 0pt;
--kite9-padding-top: 0pt;
--kite9-padding-bottom: 0pt;
}

*[k9-elem="group"].principle-outline {
fill: white;
fill-opacity: 1;
--kite9-padding-top: 50pt;
--kite9-padding-right: 50pt;
--kite9-padding-bottom: 50pt;
--kite9-padding-left: 50pt;
}

*[k9-elem="group"].principle-top {
--kite9-layout: GRID;
--kite9-grid-columns: 2;
--kite9-grid-rows: 2;
--kite9-padding-top: 0pt;
--kite9-padding-right: 0pt;
--kite9-padding-bottom: 0pt;
--kite9-padding-left: 0pt;
--kite9-margin-top: 3pt;
--kite9-margin-right: 3pt;
--kite9-margin-bottom: 3pt;
--kite9-margin-left: 3pt;
--kite9-horizontal-sizing: MAXIMIZE;
--kite9-vertical-sizing: MAXIMIZE;
--kite9-min-width: 1000pt;
--kite9-min-height: 535pt;
}

*[k9-elem="group"].principle-left-top {
--kite9-horizontal-sizing: MINIMIZE;
--kite9-vertical-sizing: MINIMIZE;
--kite9-layout: DOWN;
--kite9-padding-top: 10pt;
--kite9-margin-top: 0pt;
}

*[k9-elem="group"].principle-right-top {
--kite9-horizontal-sizing: MAXIMIZE;
--kite9-vertical-sizing: MINIMIZE;
--kite9-layout: DOWN;
--kite9-padding-top: 10pt;
--kite9-padding-right: 10pt;
--kite9-padding-bottom: 10pt;
--kite9-padding-left: 30pt;
--kite9-margin-top: 0pt;
--kite9-margin-right: 0pt;
--kite9-margin-bottom: 0pt;
--kite9-margin-left: 0pt;
}

*[k9-elem="group"].principle-left-bottom {
--kite9-horizontal-sizing: MINIMIZE;
--kite9-vertical-sizing: MAXIMIZE;
--kite9-layout: DOWN;
--kite9-padding-top: 10pt;
--kite9-padding-right: 10pt;
--kite9-padding-bottom: 10pt;
--kite9-padding-left: 10pt;
--kite9-margin-top: 0pt;
--kite9-margin-right: 0pt;
--kite9-margin-bottom: 0pt;
--kite9-margin-left: 0pt;
}

*[k9-elem="group"].principle-right-bottom {
--kite9-horizontal-sizing: MAXIMIZE;
--kite9-vertical-sizing: MAXIMIZE;
--kite9-layout: DOWN;
--kite9-padding-top: 10pt;
--kite9-padding-right: 10pt;
--kite9-padding-bottom: 10pt;
--kite9-padding-left: 30pt;
--kite9-margin-top: 0pt;
--kite9-margin-right: 0pt;
--kite9-margin-bottom: 0pt;
--kite9-margin-left: 0pt;
}

*[k9-elem="risk-first-logo"].principle {
--kite9-vertical-align: BOTTOM;
--kite9-padding-top: 0;
--kite9-padding-right: 0;
--kite9-padding-bottom: 0;
--kite9-padding-left: 0;
--kite9-margin-top: 0;
--kite9-margin-right: 0;
--kite9-margin-bottom: 0;
--kite9-margin-left: 0;
}

*[k9-elem="page-title"].principle-site {
font-family: "Metropolis";
font-size: 14pt;
fill: rgb(97, 162, 161);
letter-spacing: 1.4;
font-weight: 600;
text-align: center;
--kite9-margin-top: 0;
}

*[k9-elem="page-title"].number {
font-family: "Metropolis";
font-size: 60pt;
fill: rgb(245, 62, 121);
indent: 0;
font-weight: 600;
--kite9-padding-bottom: 0;
--kite9-margin-bottom: 0;
--kite9-vertical-align: TOP;
}

*[k9-elem="page-title"].principle {
font-family: "Metropolis";
font-size: 60pt;
font-weight: 600;
fill: rgb(0, 0, 0);
text-align: left;
--kite9-padding-bottom: 0;
--kite9-margin-bottom: 0;
--kite9-margin-right: 30pt;
--kite9-vertical-align: TOP;
}

*[k9-elem="page-summary"].principle {
font-family: "Metropolis";
font-size: 25pt;
--kite9-text-bounds-width: 600pt;
--kite9-padding-top: 0pt;
--kite9-padding-right: 0pt;
--kite9-padding-bottom: 0pt;
--kite9-padding-left: 0pt;
fill: rgb(97, 162, 161);
indent: 0;
text-align: center;
font-weight: 300;
font-style: italic;
}

*[k9-elem="glyph"].rect {
--kite9-min-height: 40pt;
--kite9-min-width: 30pt;
}

*[k9-elem="glyph"].circle {
--kite9-min-height: 30pt;
--kite9-min-width: 30pt;
}

*[k9-texture="none"] {
fill: white;
fill-opacity: 0.001;
stroke-opacity: 0.001;
}

*[k9-texture="background"] {
fill: white;
fill-opacity: 1;
stroke: black;
stroke-opacity: 1;
}

*[k9-texture~="default"] {
fill: white;
fill-opacity: 1;
}

*[k9-texture~="outline"] {
fill: white;
fill-opacity: 0.001;
stroke: black;
stroke-opacity: 1;
}

*[k9-texture~="foreground"] {
fill: black;
fill-opacity: 1;
stroke: none;
stroke-width: 0;
}

*[k9-texture="background"][k9-elem="container"] {
stroke: black;
stroke-width: 1pt;
}

*[k9-texture="background"][k9-elem="container"].solid &gt; g.k9-shape &gt; rect {
stroke-dasharray: none;
}

*[k9-texture="background"][k9-elem="container"].dotted &gt; g.k9-shape &gt; rect {
stroke-dasharray: 4 4;
}

*[k9-elem="from"], *[k9-elem="to"] {
fill: rgb(255, 255, 255);
fill-opacity: 0.01;
}

*[k9-elem="link"] {
stroke: black;
stroke-width: 2pt;
fill: none;
}

*[k9-elem="link"].invisible {
stroke: none;
}

*[k9-elem="link"].dotted {
stroke-dasharray: 8;
}

*[k9-elem="link"].thick {
stroke-width: 4pt;
}

*[k9-elem="link"].grey {
stroke: rgb(204, 204, 204);
}

*[k9-elem="hub"][k9-texture="background"] {
fill: rgb(255, 255, 255);
stroke: none;
}

*[k9-elem="cell"] {
text-align: center;
}

*[k9-elem="_temporary"], *[k9-elem="cell"] &gt; *[k9-texture="background"] {
fill: rgb(255, 255, 255);
fill-opacity: 0.01;
}

*[k9-elem="cell"].bordered {
stroke: black;
stroke-width: 2pt;
}

*[k9-elem="cell"].shaded {
fill: rgb(222, 222, 222);
fill-opacity: 1;
}

*[k9-elem="table"].invisible *[k9-elem="cell"], *[k9-elem="table"].invisible *[k9-elem="_temporary"], *[k9-elem="cell"].invisible, *[k9-elem="table"].invisible {
stroke: none;
}

*[k9-elem="cell"].left {
--kite9-horizontal-align: LEFT;
text-align: left;
}

*[k9-elem="cell"].right {
--kite9-horizontal-align: RIGHT;
text-align: right;
}

*[k9-elem="cell"].bottom {
--kite9-vertical-align: BOTTOM;
}

*[k9-elem="cell"].top {
--kite9-vertical-align: TOP;
}

*[k9-elem="label"] *[k9-texture="background"] {
stroke: none;
}

*[k9-elem="label-inner"], *[k9-elem="label"] {
--kite9-margin-top: 0;
--kite9-margin-right: 0;
--kite9-margin-bottom: 0;
--kite9-margin-left: 0;
--kite9-padding-top: 0;
--kite9-padding-right: 0;
--kite9-padding-bottom: 0;
--kite9-padding-left: 0;
}

*[k9-elem="from"], *[k9-elem="to"] {
fill: rgb(255, 255, 255);
fill-opacity: 0.01;
}

*[k9-elem="link"] {
stroke: black;
stroke-width: 2pt;
fill: none;
}

*[k9-elem="link"].invisible {
stroke: none;
}

*[k9-elem="link"].dotted {
stroke-dasharray: 8;
}

*[k9-elem="link"].thick {
stroke-width: 4pt;
}

*[k9-elem="link"].grey {
stroke: rgb(204, 204, 204);
}

*[k9-elem="hub"][k9-texture="background"] {
fill: rgb(255, 255, 255);
stroke: none;
}

*#_moveLayer *[highlight~="fill"], *#_moveLayer *[highlight~="pulse"] {
fill: rgb(183, 192, 254);
fill-opacity: 0.7;
}

*#_moveLayer *[highlight~="stroke"], *#_moveLayer *[highlight~="outline"] {
stroke: rgb(183, 192, 254);
stroke-opacity: 0.7;
}

*.indicators-on *[k9-info~="contradicting:"] &gt; g &gt; *[k9-highlight~="stroke"], *.indicators-on *[k9-info~="contradicting:"] &gt; g &gt; *[k9-highlight~="outline"], *.indicators-on *[k9-info~="contradicting:"] &gt; g &gt; *[k9-highlight~="bar"], *.indicators-on *[k9-info~="contradicting:"] &gt; *[k9-highlight~="stroke"], *.indicators-on *[k9-info~="contradicting:"] &gt; *[k9-highlight~="outline"], *.indicators-on *[k9-info~="contradicting:"] &gt; *[k9-highlight~="bar"] {
stroke: rgb(255, 89, 86);
stroke-opacity: 0.5;
}

*.indicators-on *[k9-info~="contradicting:"] &gt; g &gt; *[k9-highlight~="stroke"], *.indicators-on *[k9-info~="contradicting:"] &gt; g &gt; *[k9-highlight~="outline"], *.indicators-on *[k9-info~="contradicting:"] &gt; g &gt; *[k9-highlight~="bar"], *.indicators-on *[k9-info~="contradicting:"] &gt; *[k9-highlight~="stroke"], *.indicators-on *[k9-info~="contradicting:"] &gt; *[k9-highlight~="outline"], *.indicators-on *[k9-info~="contradicting:"] &gt; *[k9-highlight~="bar"] {
fill: rgb(255, 89, 86);
fill-opacity: 0.5;
}

@media editor {
*[k9-elem="diagram"] {
--kite9-padding-top: 200pt;
--kite9-padding-right: 200pt;
--kite9-padding-bottom: 200pt;
--kite9-padding-left: 200pt;
--kite9-min-width: 50pt;
--kite9-min-height: 50pt;
}
}

*[media="editor"] *[k9-elem="diagram"] {
--kite9-padding-top: 200pt;
--kite9-padding-right: 200pt;
--kite9-padding-bottom: 200pt;
--kite9-padding-left: 200pt;
--kite9-min-width: 50pt;
--kite9-min-height: 50pt;
}

*[k9-elem].attention {
stroke: rgb(255, 89, 86);
stroke-opacity: 1;
}

svg {
cursor: pointer;
}

*#_update {
overflow: hidden;
}

*[k9-elem="box"] &gt; *[k9-texture="background"] {
fill: rgb(204, 204, 170);
fill-opacity: 1;
stroke: rgb(170, 170, 136);
stroke-dasharray: none;
}

*[k9-texture="foreground"], *[k9-texture="background"] &gt; g &gt; text {
fill: rgb(36, 51, 20);
font-family: "metropolis";
font-size: 50pt;
}

*[k9-elem="label"] {
fill: black;
font-family: "metropolis";
font-size: 35pt;
}

*[k9-elem="box"].shaded {
fill: rgb(170, 85, 0);
}

*[k9-elem="textarea"].warning {
fill: rgb(255, 136, 0);
}

*[k9-elem="votes"] {
--kite9-type: SVG;
--kite9-usage: DECAL;
}

*[k9-elem="votes"] &gt; g &gt; rect.back {
fill: rgb(122, 164, 127);
fill-opacity: 0.9;
stroke: none;
}

*[k9-elem="votes"] &gt; g &gt; text.count {
font-size: 16pt;
fill: white;
fill-opacity: 1;
text-anchor: middle;
dominant-baseline: middle;
}

*[k9-elem="votes"] &gt; g &gt; text.font-awesome {
font-size: 16pt;
font-family: "Font Awesome 5 Free";
font-weight: 400;
fill: white;
fill-opacity: 1;
text-anchor: middle;
dominant-baseline: middle;
}

*[k9-elem="votes"][count="0"] &gt; g &gt; rect.back, *[k9-elem="votes"][count="0"] &gt; g &gt; text.count, *[k9-elem="votes"][count="0"] &gt; g &gt; text.font-awesome {
fill-opacity: 0;
stroke-opacity: 0;
}

*[k9-elem="diagram"][k9-texture="none"] {
fill: white;
fill-opacity: 1;
}

*[k9-texture] {
font-family: "metropolis";
font-size: 16pt;
font-weight: 500;
}

*[k9-texture="artifact"] {
fill: white;
fill-opacity: 0.001;
stroke: none;
}

*[k9-texture="artifact"] text {
font-size: 16pt;
font-weight: 400;
fill: black;
text-align: center;
--kite9-text-bounds-width: 100pt;
}

*[k9-elem="label"] text, *[k9-elem="description"] text {
font-style: italic;
--kite9-direction: RIGHT;
}

*[k9-elem="caption"] {
text-align: center;
}

*[k9-elem="label"] {
--kite9-padding-top: 10pt;
--kite9-padding-right: 10pt;
--kite9-padding-bottom: 10pt;
--kite9-padding-left: 10pt;
fill: white;
}

*[k9-elem="arrow"] {
fill: black;
fill-opacity: 1;
}

*[k9-elem="arrow"] &gt; g &gt; *[k9-elem="caption"] &gt; g &gt; text {
fill: white;
fill-opacity: 1;
font-size: 16pt;
}

*[k9-elem="from"], *[k9-elem="to"] {
--kite9-marker-reserve: 8pt;
}

*[k9-elem="link"] {
--kite9-link-minimum-length: 30pt;
}

*[k9-elem="glyph"][k9-texture="background"] &gt; g &gt; rect, *[k9-elem="glyph"][k9-texture="background"] &gt; g &gt; ellipse, *[k9-elem="action"] *[k9-texture="background"] {
fill: url(#risk-background);
stroke: black;
stroke-width: 1pt;
}

*[k9-elem="action"] &gt; g &gt; *[k9-elem="caption"] &gt; g &gt; text {
fill-opacity: 1;
font-size: 16pt;
font-weight: 500;
fill: black;
text-align: center;
}

*[k9-elem="hidden"], *[k9-elem="mitigated"] {
fill: white;
}

*[k9-elem="title"] {
font-size: 16pt;
font-weight: 500;
fill: black;
text-align: center;
}

*[k9-elem="code"] {
font-size: 22pt;
font-weight: 500;
fill: black;
text-align: center;
}

*[k9-elem="risk"][k9-texture="background"], *[k9-elem="block"][k9-texture="background"] {
fill: url(#risk-background);
stroke: black;
stroke-width: 1pt;
}

*[k9-elem="container"][k9-texture="background"] {
fill-opacity: 0.001;
}

*[k9-elem="planner-cell"], *[k9-elem="planner-header"] {
stroke: rgb(174, 174, 174);
stroke-width: 1pt;
}

*[k9-elem="diagram"].principle {
fill-opacity: 1;
fill: rgb(245, 245, 245);
}

*[k9-elem="container"][k9-texture="background"].principle-top {
fill: white;
fill-opacity: 1;
}

</style>
      <defs id="links-markers">
         <marker id="-start-marker" preserveAspectRatio="xMidYMid meet"/>
         <marker id="-end-marker" preserveAspectRatio="xMidYMid meet"/>
         <marker refX="1"
                 refY="3"
                 orient="auto"
                 id="strike-start-marker"
                 markerHeight="6"
                 preserveAspectRatio="xMidYMid meet"
                 markerWidth="8">
            <path class="strike-marker" d="         M7,0 L5,6 h-1 L6,0z"/>
         </marker>
         <marker refX="7"
                 refY="3"
                 orient="auto"
                 id="strike-end-marker"
                 markerHeight="6"
                 preserveAspectRatio="xMidYMid meet"
                 markerWidth="8">
            <path class="strike-marker" d="         M3,0 L1,6 h-1 L2,0z"/>
         </marker>
         <marker refY="3"
                 preserveAspectRatio="xMidYMid meet"
                 markerHeight="6"
                 id="circle-start-marker"
                 markerWidth="6"
                 refX="3">
            <circle r="2" class="circle-marker" cx="3" cy="3"/>
         </marker>
         <marker refY="3"
                 preserveAspectRatio="xMidYMid meet"
                 markerHeight="6"
                 id="circle-end-marker"
                 markerWidth="6"
                 refX="3">
            <circle r="2" class="circle-marker" cx="3" cy="3"/>
         </marker>
         <marker refX="2"
                 refY="3"
                 orient="auto"
                 id="diamond-start-marker"
                 markerHeight="6"
                 preserveAspectRatio="xMidYMid meet"
                 markerWidth="8">
            <polygon class="diamond-marker" points="1,3 4,1 7,3 4,5"/>
         </marker>
         <marker refX="6"
                 refY="3"
                 orient="auto"
                 id="diamond-end-marker"
                 markerHeight="6"
                 preserveAspectRatio="xMidYMid meet"
                 markerWidth="8">
            <polygon class="diamond-marker" points="1,3 4,1 7,3 4,5"/>
         </marker>
         <marker refX="5"
                 refY="3"
                 orient="auto"
                 id="open-diamond-start-marker"
                 markerHeight="6"
                 preserveAspectRatio="xMidYMid meet"
                 markerWidth="8">
            <path class="open-diamond-marker"
                  d="         M0,3 L3,1 L6,3 L5,3 L3,1.66 L1,3             L3,4.33 L5,3 L6,3 L3,5 L0,3"/>
         </marker>
         <marker refX="1"
                 refY="3"
                 orient="auto"
                 id="open-diamond-end-marker"
                 markerHeight="6"
                 preserveAspectRatio="xMidYMid meet"
                 markerWidth="8">
            <path class="open-diamond-marker"
                  d="         M6,3 L3,1 L0,3 L1,3 L3,1.66 L5,3             L3,4.33 L1,3 L0,3 L3,5 L6,3"/>
         </marker>
         <marker refX="4"
                 refY="4"
                 orient="auto"
                 id="barbed-arrow-end-marker"
                 markerHeight="7"
                 preserveAspectRatio="xMidYMid meet"
                 markerWidth="7">
            <path class="barbed-arrow-marker" d="M2,2 L6,4 L2,6 L4,4 L2,2"/>
         </marker>
         <marker refX="4"
                 refY="4"
                 orient="auto"
                 id="barbed-arrow-start-marker"
                 markerHeight="7"
                 preserveAspectRatio="xMidYMid meet"
                 markerWidth="7">
            <path class="barbed-arrow-marker" d="M6,2 L2,4 L6,6 L4,4 L6,2"/>
         </marker>
         <marker refX="1"
                 refY="4"
                 orient="auto"
                 id="open-arrow-end-marker"
                 markerHeight="7"
                 preserveAspectRatio="xMidYMid meet"
                 markerWidth="7">
            <path class="open-arrow-marker"
                  d="         M6,4 L1,2 L1,3 L4,4 L1,5 L1,6 L6,4         M2,3 h-1 v2 h1z"/>
         </marker>
         <marker refX="6"
                 refY="4"
                 orient="auto"
                 id="open-arrow-start-marker"
                 markerHeight="7"
                 preserveAspectRatio="xMidYMid meet"
                 markerWidth="7">
            <path class="open-arrow-marker"
                  d="         M1,4 L6,2 L6,3 L3,4 L6,5 L6,6 L1,4         M5,3 h1 v2 h-1z"/>
         </marker>
         <marker refX="4"
                 refY="4"
                 orient="auto"
                 id="arrow-start-marker"
                 markerHeight="7"
                 preserveAspectRatio="xMidYMid meet"
                 markerWidth="7">
            <polygon class="arrow-marker" points="2,4 6,2 6,6"/>
         </marker>
         <marker refX="4"
                 refY="4"
                 orient="auto"
                 id="arrow-end-marker"
                 markerHeight="7"
                 preserveAspectRatio="xMidYMid meet"
                 markerWidth="7">
            <polygon class="arrow-marker" points="6,4 2,2 2,6"/>
         </marker>
         <marker refX="5"
                 refY="4"
                 orient="auto"
                 id="crow-end-marker"
                 markerHeight="7"
                 preserveAspectRatio="xMidYMid meet"
                 markerWidth="7">
            <path class="crow-marker"
                  d="          M1,4 L4,1 l0.66 0.66 L2.3,4z          M1,4 L4,7 l0.66 -0.66 L2.3,4z"/>
         </marker>
         <marker refX="1"
                 refY="4"
                 orient="auto"
                 id="crow-start-marker"
                 markerHeight="7"
                 preserveAspectRatio="xMidYMid meet"
                 markerWidth="7">
            <path class="crow-marker"
                  d="          M5,4 L2,1 l-0.66 0.66 L3.66,4z          M5,4 L2,7 l-0.66 -0.66 L3.66,4z"/>
         </marker>
         <marker refX="2"
                 refY="2"
                 orient="auto"
                 id="square-end-marker"
                 markerHeight="7"
                 preserveAspectRatio="xMidYMid meet"
                 markerWidth="7">
            <rect x="0" width="4" height="4" y="0" class="square-marker"/>
         </marker>
         <marker refX="2"
                 refY="2"
                 orient="auto"
                 id="square-start-marker"
                 markerHeight="7"
                 preserveAspectRatio="xMidYMid meet"
                 markerWidth="7">
            <rect x="0" width="4" height="4" y="0" class="square-marker"/>
         </marker>
      </defs>
      <defs id="highlight-indicators">
         <filter xlink:actuate="onLoad"
                 xlink:type="simple"
                 id="highlight-visible"
                 xlink:show="other">
            <feColorMatrix values="0 0 0 0 .214                 0 0 0 0 .25                 0 0 0 0 1                 0 0 0 1 0 "
                           type="matrix"/>
         </filter>
         <filter xlink:actuate="onLoad"
                 xlink:type="simple"
                 id="highlight-invisible"
                 xlink:show="other">
            <feColorMatrix values="0 0 0 0 0                 0 0 0 0 0                 0 0 0 0 0                 0 0 0 0 0 "
                           type="matrix"/>
         </filter>
      </defs>
      <linearGradient x1="0%"
                      y1="0%"
                      x2="0%"
                      y2="100%"
                      xlink:type="simple"
                      xlink:actuate="onLoad"
                      id="risk-background"
                      xlink:show="other">
         <stop stop-color="#FFF" offset="0%"/>
         <stop stop-color="#DDD" offset="100%"/>
      </linearGradient>
      <filter xmlns:svg="http://www.w3.org/2000/svg"
              xlink:type="simple"
              xlink:actuate="onLoad"
              height="130%"
              id="dropshadow"
              xlink:show="other">
         <feGaussianBlur stdDeviation="4" in="SourceAlpha"/>
         <feOffset dx="6" dy="6"/>
         <feColorMatrix values="             0 0 0 0 0                 0 0 0 0 0                 0 0 0 0 0                 0 0 0 .4 0"
                        type="matrix"/>
         <feMerge>
            <feMergeNode/>
            <feMergeNode in="SourceGraphic"/>
         </feMerge>
      </filter>
      <script xlink:actuate="onLoad"
              xlink:type="simple"
              id="adl:markup"
              xlink:show="other"
              type="text/xml;purpose=adl;base64">PD94bWwgdmVyc2lvbj0iMS4wIiBlbmNvZGluZz0iVVRGLTgiPz4KPGRpYWdyYW0geG1sbnM9Imh0dHA6Ly93d3cua2l0ZTkub3JnL3NjaGVtYS9hZGwiCiAgICAgICAgIHhtbG5zOnhzbHQ9Imh0dHA6Ly93d3cua2l0ZTkub3JnL3NjaGVtYS94c2x0IgogICAgICAgICBpZD0iZGlhIgogICAgICAgICB4c2x0OnRlbXBsYXRlPSIvcHVibGljL3RlbXBsYXRlcy9yaXNrLWZpcnN0L3Jpc2stZmlyc3QtdGVtcGxhdGUueHNsIj4KICAgPGFjdGlvbiBpZD0iMiI+Rml4IFJlbmRlcmluZyBCdWc8L2FjdGlvbj4KICAgPGFjdGlvbiBpZD0iMSI+QnVpbGQgQSBTZWFyY2ggRnVuY3Rpb248L2FjdGlvbj4KICAgPGFjdGlvbiBpZD0iMyI+UmVmYWN0b3IgU3Vic2NyaXB0aW9uczwvYWN0aW9uPgogICA8YWN0aW9uIGlkPSI0Ij5GSXggQ0kgUGlwZWxpbmU8L2FjdGlvbj4KPC9kaWFncmFtPgo=</script>
   </defs>
   <g xmlns:xslt="http://www.kite9.org/schema/xslt"
      k9-contains="connected label"
      k9-texture="none"
      k9-info="margin: [0.0 0.0 0.0 0.0]; padding: [0.0 0.0 0.0 0.0]; min-size: [0.0 0.0]; sizing: [minimize minimize]; horiz: center; vert: center; layout: null; rectangular: diagram; rect-pos: [0.0, 0.0]; rect-size: [1046.0, 83.0]; position: none; painter: direct-svg; "
      id="dia"
      k9-format="container"
      k9-ui="layout label fill size"
      k9-elem="diagram"
      xslt:template="/public/templates/risk-first/risk-first-template.xsl"
      k9-type="diagram">
      <g class="k9-shape">
         <rect x="0"
               y="0"
               width="1046"
               pp:y="$y"
               pp:height="$height"
               pp:x="$x"
               rx="0"
               ry="0"
               height="83"
               pp:width="$width"/>
      </g>
      <g class="k9-content">
         <g transform="translate(13.0,13.0)"
            k9-texture="background"
            k9-info="margin: [13.333333969116211 13.333333969116211 13.333333969116211 13.333333969116211]; padding: [16.0 29.33333396911621 16.0 16.0]; min-size: [0.0 0.0]; sizing: [minimize minimize]; horiz: center; vert: center; layout: null; rectangular: connected; rect-pos: [13.0, 13.0]; rect-size: [231.0, 57.0]; position: none; painter: direct-svg; "
            id="2"
            k9-format="text-shape-inline"
            k9-ui="size drag delete align connect autoconnect edit vote"
            k9-elem="action"
            k9-type="connected">
            <g class="k9-shape" k9-highlight="pulse">
               <g k9-highlight="pulse"
                  k9-texture="background"
                  style="transform: translate(0px,0px)"
                  pp:style="transform: translate([[$x]]px,[[$y]]px)">
                  <polygon points="             0 0,              210.99999940395355 0,             231 28.5,             210.99999940395355 57,             0 57"
                           pp:points="             0 0,              [[$width - (15 * $pt)]] 0,             [[$width]] [[$height div 2]],             [[$width - (15 * $pt)]] [[$height]],             0 [[$height]]"/>
               </g>
            </g>
            <g class="k9-content">
               <g k9-elem="caption"
                  k9-texture="foreground"
                  transform="translate(14.4,37.3)"
                  k9-format="text-fixed"
                  k9-info="margin: [0.0 0.0 0.0 0.0]; padding: [0.0 0.0 0.0 0.0]; min-size: [0.0 0.0]; sizing: [minimize minimize]; horiz: center; vert: center; rectangular: connected; rect-pos: [29.0, 29.0]; rect-size: [186.0, 25.0]; position: none; painter: direct-svg; ">
                  <g class="k9-content k9-no-shape" k9-highlight="pulse">
                     <g rendered="true">
                        <g>
                           <path d="M3.7778 -12.6528 L3.7778 -8.3819 L11.5417 -8.3819 L11.5417 -6.3819 L3.7778 -6.3819 L3.7778 0 L1.5972 0 L1.5972 -14.6528 L12.375 -14.6528 L12.375 -12.6528 L3.7778 -12.6528 ZM15.746 -12.8611 Q15.2113 -12.8611 14.8363 -13.2431 Q14.4613 -13.6319 14.4613 -14.1458 Q14.4613 -14.6528 14.8363 -15.0278 Q15.2113 -15.4028 15.746 -15.4028 Q16.253 -15.4028 16.628 -15.0139 Q17.003 -14.6319 17.003 -14.1458 Q17.003 -13.6319 16.628 -13.2431 Q16.253 -12.8611 15.746 -12.8611 ZM14.6766 -11.0278 L16.7877 -11.0278 L16.7877 0 L14.6766 0 L14.6766 -11.0278 ZM27.2415 0 L24.2346 -4.0556 L21.2068 0 L18.8596 0 L23.061 -5.6319 L19.0263 -11.0278 L21.4221 -11.0278 L24.2346 -7.2292 L27.0749 -11.0278 L29.4221 -11.0278 L25.4082 -5.6528 L29.6096 0 L27.2415 0 ZM49.4751 -9.875 Q49.4751 -8.2153 48.4403 -6.9861 Q47.4056 -5.7569 45.7181 -5.3125 L49.4473 0 L46.9751 0 L43.3917 -5.0972 L40.0237 -5.0972 L40.0237 0 L37.864 0 L37.864 -14.6528 L44.0306 -14.6528 Q45.5653 -14.6528 46.8015 -14.0417 Q48.0445 -13.4375 48.7598 -12.3403 Q49.4751 -11.2431 49.4751 -9.875 ZM40.0237 -7.1042 L43.732 -7.1042 Q45.3362 -7.1042 46.3015 -7.8472 Q47.2737 -8.5972 47.2737 -9.875 Q47.2737 -11.1597 46.3015 -11.9028 Q45.3362 -12.6528 43.732 -12.6528 L40.0237 -12.6528 L40.0237 -7.1042 ZM56.9157 -1.6181 Q57.7699 -1.6181 58.6727 -1.9583 Q59.5824 -2.3056 60.0754 -2.8194 L61.3949 -1.4514 Q60.6727 -0.6806 59.4018 -0.2083 Q58.131 0.2569 56.9365 0.2569 Q55.4018 0.2569 54.0963 -0.4861 Q52.7977 -1.2361 52.0268 -2.5556 Q51.2629 -3.8819 51.2629 -5.5486 Q51.2629 -7.1667 51.999 -8.4792 Q52.7352 -9.7917 53.9921 -10.5347 Q55.256 -11.2847 56.7699 -11.2847 Q58.4296 -11.2847 59.624 -10.4861 Q60.8185 -9.6875 61.4504 -8.2153 Q62.0824 -6.7431 62.0824 -4.7778 L53.3949 -4.7778 Q53.6102 -3.3681 54.5546 -2.4931 Q55.506 -1.6181 56.9157 -1.6181 ZM56.8532 -9.4097 Q55.5754 -9.4097 54.624 -8.6042 Q53.6727 -7.8056 53.4157 -6.4653 L60.0338 -6.4653 Q59.8393 -7.8056 59.0268 -8.6042 Q58.2213 -9.4097 56.8532 -9.4097 ZM70.1433 -11.2847 Q71.3377 -11.2847 72.2891 -10.7361 Q73.2405 -10.1944 73.7613 -9.2222 Q74.2822 -8.2569 74.2822 -7.0208 L74.2822 0 L72.2127 0 L72.2127 -6.6528 Q72.2127 -7.8958 71.4975 -8.6736 Q70.7822 -9.4514 69.678 -9.4514 Q68.5252 -9.4514 67.6502 -8.7847 Q66.7752 -8.125 66.6433 -7.1458 L66.6433 0 L64.5322 0 L64.5322 -11.0278 L66.6433 -11.0278 L66.6433 -9.4306 Q67.1572 -10.2639 68.0947 -10.7708 Q69.0322 -11.2847 70.1433 -11.2847 ZM87.8942 -14.9097 L87.8942 0 L85.8039 0 L85.8039 -1.9167 Q85.165 -0.875 84.1512 -0.3056 Q83.1373 0.2569 81.8803 0.2569 Q80.4498 0.2569 79.2831 -0.4792 Q78.1234 -1.2153 77.4567 -2.5347 Q76.797 -3.8611 76.797 -5.5278 Q76.797 -7.1875 77.4567 -8.5 Q78.1234 -9.8125 79.2831 -10.5486 Q80.4498 -11.2847 81.8803 -11.2847 Q83.1373 -11.2847 84.1373 -10.7153 Q85.1442 -10.1528 85.8039 -9.1319 L85.8039 -14.9097 L87.8942 -14.9097 ZM82.3873 -1.5764 Q83.3734 -1.5764 84.1512 -2.0764 Q84.9289 -2.5833 85.3664 -3.4861 Q85.8039 -4.3958 85.8039 -5.5278 Q85.8039 -6.6528 85.3664 -7.5486 Q84.9289 -8.4514 84.1512 -8.9514 Q83.3734 -9.4514 82.3873 -9.4514 Q81.3873 -9.4514 80.5956 -8.9514 Q79.8109 -8.4514 79.3734 -7.5486 Q78.9359 -6.6528 78.9359 -5.5278 Q78.9359 -4.3958 79.3734 -3.4861 Q79.8109 -2.5833 80.5956 -2.0764 Q81.3873 -1.5764 82.3873 -1.5764 ZM96.1265 -1.6181 Q96.9806 -1.6181 97.8834 -1.9583 Q98.7931 -2.3056 99.2862 -2.8194 L100.6056 -1.4514 Q99.8834 -0.6806 98.6126 -0.2083 Q97.3417 0.2569 96.1473 0.2569 Q94.6126 0.2569 93.307 -0.4861 Q92.0084 -1.2361 91.2376 -2.5556 Q90.4737 -3.8819 90.4737 -5.5486 Q90.4737 -7.1667 91.2098 -8.4792 Q91.9459 -9.7917 93.2029 -10.5347 Q94.4667 -11.2847 95.9806 -11.2847 Q97.6404 -11.2847 98.8348 -10.4861 Q100.0292 -9.6875 100.6612 -8.2153 Q101.2931 -6.7431 101.2931 -4.7778 L92.6056 -4.7778 Q92.8209 -3.3681 93.7654 -2.4931 Q94.7167 -1.6181 96.1265 -1.6181 ZM96.064 -9.4097 Q94.7862 -9.4097 93.8348 -8.6042 Q92.8834 -7.8056 92.6265 -6.4653 L99.2445 -6.4653 Q99.0501 -7.8056 98.2376 -8.6042 Q97.432 -9.4097 96.064 -9.4097 ZM105.9652 -8.9167 Q106.4929 -10.0278 107.5693 -10.6528 Q108.6527 -11.2847 110.0554 -11.2847 L110.0554 -9.4514 Q108.354 -9.4514 107.229 -8.5833 Q106.111 -7.7222 105.9652 -6.2708 L105.9652 0 L103.854 0 L103.854 -11.0278 L105.9652 -11.0278 L105.9652 -8.9167 ZM113.1756 -12.8611 Q112.6408 -12.8611 112.2658 -13.2431 Q111.8908 -13.6319 111.8908 -14.1458 Q111.8908 -14.6528 112.2658 -15.0278 Q112.6408 -15.4028 113.1756 -15.4028 Q113.6825 -15.4028 114.0575 -15.0139 Q114.4325 -14.6319 114.4325 -14.1458 Q114.4325 -13.6319 114.0575 -13.2431 Q113.6825 -12.8611 113.1756 -12.8611 ZM112.1061 -11.0278 L114.2172 -11.0278 L114.2172 0 L112.1061 0 L112.1061 -11.0278 ZM122.8794 -11.2847 Q124.0738 -11.2847 125.0252 -10.7361 Q125.9766 -10.1944 126.4975 -9.2222 Q127.0183 -8.2569 127.0183 -7.0208 L127.0183 0 L124.9488 0 L124.9488 -6.6528 Q124.9488 -7.8958 124.2336 -8.6736 Q123.5183 -9.4514 122.4141 -9.4514 Q121.2613 -9.4514 120.3863 -8.7847 Q119.5113 -8.125 119.3794 -7.1458 L119.3794 0 L117.2683 0 L117.2683 -11.0278 L119.3794 -11.0278 L119.3794 -9.4306 Q119.8933 -10.2639 120.8308 -10.7708 Q121.7683 -11.2847 122.8794 -11.2847 ZM140.547 -11.0278 L140.547 -1.1736 Q140.547 0.2361 139.8317 1.3333 Q139.1164 2.4306 137.8456 3.0486 Q136.5748 3.6667 134.9567 3.6667 Q133.6095 3.6667 132.3803 3.2639 Q131.1581 2.8611 130.3456 2.1944 L131.1789 0.6181 Q131.7762 1.1944 132.6998 1.5139 Q133.6303 1.8333 134.6373 1.8333 Q136.4081 1.8333 137.415 1.0208 Q138.4289 0.2153 138.4289 -1.2153 L138.4289 -2.8194 Q137.7692 -1.8542 136.7623 -1.3333 Q135.7623 -0.8125 134.5262 -0.8125 Q133.0956 -0.8125 131.9567 -1.4792 Q130.8178 -2.1528 130.165 -3.3472 Q129.5123 -4.5417 129.5123 -6.0556 Q129.5123 -7.5764 130.165 -8.7708 Q130.8178 -9.9653 131.9567 -10.625 Q133.0956 -11.2847 134.5262 -11.2847 Q135.7623 -11.2847 136.7762 -10.7361 Q137.79 -10.1944 138.4289 -9.2569 L138.4289 -11.0278 L140.547 -11.0278 ZM135.0609 -2.6458 Q136.5331 -2.6458 137.4775 -3.6042 Q138.4289 -4.5625 138.4289 -6.0556 Q138.4289 -7.5486 137.4775 -8.5 Q136.5331 -9.4514 135.0609 -9.4514 Q133.5887 -9.4514 132.6512 -8.5 Q131.7137 -7.5486 131.7137 -6.0556 Q131.7137 -4.5625 132.6512 -3.6042 Q133.5887 -2.6458 135.0609 -2.6458 ZM150.1212 -14.6528 L157.0795 -14.6528 Q158.2948 -14.6528 159.2392 -14.1806 Q160.1906 -13.7153 160.7253 -12.8819 Q161.26 -12.0556 161.26 -11.0069 Q161.26 -9.8958 160.7323 -9.1181 Q160.2114 -8.3403 159.1698 -7.7639 Q160.4684 -7.125 161.1628 -6.1667 Q161.8573 -5.2083 161.8573 -3.9861 Q161.8573 -2.8403 161.2809 -1.9306 Q160.7045 -1.0208 159.6767 -0.5069 Q158.6559 0 157.3573 0 L150.1212 0 L150.1212 -14.6528 ZM156.5448 -8.5556 Q157.6559 -8.5556 158.3573 -9.1389 Q159.0587 -9.7292 159.0587 -10.6458 Q159.0587 -11.5625 158.3573 -12.1597 Q157.6559 -12.7569 156.5448 -12.7569 L152.2809 -12.7569 L152.2809 -8.5556 L156.5448 -8.5556 ZM156.8642 -1.8958 Q158.1003 -1.8958 158.8781 -2.5694 Q159.6559 -3.2431 159.6559 -4.3125 Q159.6559 -5.375 158.8781 -6.0486 Q158.1003 -6.7222 156.8642 -6.7222 L152.2809 -6.7222 L152.2809 -1.8958 L156.8642 -1.8958 ZM174.1874 -11.0278 L174.1874 0 L172.0763 0 L172.0763 -1.5972 Q171.5624 -0.7708 170.6249 -0.2569 Q169.6874 0.2569 168.5763 0.2569 Q167.3819 0.2569 166.4305 -0.2847 Q165.486 -0.8333 164.9582 -1.7986 Q164.4374 -2.7708 164.4374 -4.0139 L164.4374 -11.0278 L166.5069 -11.0278 L166.5069 -4.375 Q166.5069 -3.1389 167.2221 -2.3542 Q167.9374 -1.5764 169.0485 -1.5764 Q170.1944 -1.5764 171.0694 -2.2361 Q171.9444 -2.9028 172.0763 -3.8819 L172.0763 -11.0278 L174.1874 -11.0278 ZM187.7578 -11.0278 L187.7578 -1.1736 Q187.7578 0.2361 187.0425 1.3333 Q186.3272 2.4306 185.0564 3.0486 Q183.7856 3.6667 182.1675 3.6667 Q180.8203 3.6667 179.5911 3.2639 Q178.3689 2.8611 177.5564 2.1944 L178.3897 0.6181 Q178.9869 1.1944 179.9106 1.5139 Q180.8411 1.8333 181.8481 1.8333 Q183.6189 1.8333 184.6258 1.0208 Q185.6397 0.2153 185.6397 -1.2153 L185.6397 -2.8194 Q184.98 -1.8542 183.9731 -1.3333 Q182.9731 -0.8125 181.7369 -0.8125 Q180.3064 -0.8125 179.1675 -1.4792 Q178.0286 -2.1528 177.3758 -3.3472 Q176.7231 -4.5417 176.7231 -6.0556 Q176.7231 -7.5764 177.3758 -8.7708 Q178.0286 -9.9653 179.1675 -10.625 Q180.3064 -11.2847 181.7369 -11.2847 Q182.9731 -11.2847 183.9869 -10.7361 Q185.0008 -10.1944 185.6397 -9.2569 L185.6397 -11.0278 L187.7578 -11.0278 ZM182.2717 -2.6458 Q183.7439 -2.6458 184.6883 -3.6042 Q185.6397 -4.5625 185.6397 -6.0556 Q185.6397 -7.5486 184.6883 -8.5 Q183.7439 -9.4514 182.2717 -9.4514 Q180.7994 -9.4514 179.8619 -8.5 Q178.9244 -7.5486 178.9244 -6.0556 Q178.9244 -4.5625 179.8619 -3.6042 Q180.7994 -2.6458 182.2717 -2.6458 Z"
                                 stroke="none"/>
                        </g>
                     </g>
                  </g>
               </g>
            </g>
         </g>
         <g transform="translate(257.0,13.0)"
            k9-texture="background"
            k9-info="margin: [13.333333969116211 13.333333969116211 13.333333969116211 13.333333969116211]; padding: [16.0 29.33333396911621 16.0 16.0]; min-size: [0.0 0.0]; sizing: [minimize minimize]; horiz: center; vert: center; layout: null; rectangular: connected; rect-pos: [257.0, 13.0]; rect-size: [288.0, 57.0]; position: none; painter: direct-svg; "
            id="1"
            k9-format="text-shape-inline"
            k9-ui="size drag delete align connect autoconnect edit vote"
            k9-elem="action"
            k9-type="connected">
            <g class="k9-shape" k9-highlight="pulse">
               <g k9-highlight="pulse"
                  k9-texture="background"
                  style="transform: translate(0px,0px)"
                  pp:style="transform: translate([[$x]]px,[[$y]]px)">
                  <polygon points="             0 0,              267.99999940395355 0,             288 28.5,             267.99999940395355 57,             0 57"
                           pp:points="             0 0,              [[$width - (15 * $pt)]] 0,             [[$width]] [[$height div 2]],             [[$width - (15 * $pt)]] [[$height]],             0 [[$height]]"/>
               </g>
            </g>
            <g class="k9-content">
               <g k9-elem="caption"
                  k9-texture="foreground"
                  transform="translate(14.1,37.3)"
                  k9-format="text-fixed"
                  k9-info="margin: [0.0 0.0 0.0 0.0]; padding: [0.0 0.0 0.0 0.0]; min-size: [0.0 0.0]; sizing: [minimize minimize]; horiz: center; vert: center; rectangular: connected; rect-pos: [273.0, 29.0]; rect-size: [243.0, 25.0]; position: none; painter: direct-svg; ">
                  <g class="k9-content k9-no-shape" k9-highlight="pulse">
                     <g rendered="true">
                        <g>
                           <path d="M1.8542 -14.6528 L8.8125 -14.6528 Q10.0278 -14.6528 10.9722 -14.1806 Q11.9236 -13.7153 12.4583 -12.8819 Q12.9931 -12.0556 12.9931 -11.0069 Q12.9931 -9.8958 12.4653 -9.1181 Q11.9444 -8.3403 10.9028 -7.7639 Q12.2014 -7.125 12.8958 -6.1667 Q13.5903 -5.2083 13.5903 -3.9861 Q13.5903 -2.8403 13.0139 -1.9306 Q12.4375 -1.0208 11.4097 -0.5069 Q10.3889 0 9.0903 0 L1.8542 0 L1.8542 -14.6528 ZM8.2778 -8.5556 Q9.3889 -8.5556 10.0903 -9.1389 Q10.7917 -9.7292 10.7917 -10.6458 Q10.7917 -11.5625 10.0903 -12.1597 Q9.3889 -12.7569 8.2778 -12.7569 L4.0139 -12.7569 L4.0139 -8.5556 L8.2778 -8.5556 ZM8.5972 -1.8958 Q9.8333 -1.8958 10.6111 -2.5694 Q11.3889 -3.2431 11.3889 -4.3125 Q11.3889 -5.375 10.6111 -6.0486 Q9.8333 -6.7222 8.5972 -6.7222 L4.0139 -6.7222 L4.0139 -1.8958 L8.5972 -1.8958 ZM25.9204 -11.0278 L25.9204 0 L23.8093 0 L23.8093 -1.5972 Q23.2954 -0.7708 22.3579 -0.2569 Q21.4204 0.2569 20.3093 0.2569 Q19.1149 0.2569 18.1635 -0.2847 Q17.219 -0.8333 16.6912 -1.7986 Q16.1704 -2.7708 16.1704 -4.0139 L16.1704 -11.0278 L18.2399 -11.0278 L18.2399 -4.375 Q18.2399 -3.1389 18.9551 -2.3542 Q19.6704 -1.5764 20.7815 -1.5764 Q21.9274 -1.5764 22.8024 -2.2361 Q23.6774 -2.9028 23.8093 -3.8819 L23.8093 -11.0278 L25.9204 -11.0278 ZM30.0394 -12.8611 Q29.5047 -12.8611 29.1297 -13.2431 Q28.7547 -13.6319 28.7547 -14.1458 Q28.7547 -14.6528 29.1297 -15.0278 Q29.5047 -15.4028 30.0394 -15.4028 Q30.5463 -15.4028 30.9213 -15.0139 Q31.2963 -14.6319 31.2963 -14.1458 Q31.2963 -13.6319 30.9213 -13.2431 Q30.5463 -12.8611 30.0394 -12.8611 ZM28.9699 -11.0278 L31.0811 -11.0278 L31.0811 0 L28.9699 0 L28.9699 -11.0278 ZM34.1321 -14.9097 L36.2224 -14.9097 L36.2224 0 L34.1321 0 L34.1321 -14.9097 ZM49.8781 -14.9097 L49.8781 0 L47.7879 0 L47.7879 -1.9167 Q47.149 -0.875 46.1351 -0.3056 Q45.1212 0.2569 43.8642 0.2569 Q42.4337 0.2569 41.267 -0.4792 Q40.1073 -1.2153 39.4406 -2.5347 Q38.7809 -3.8611 38.7809 -5.5278 Q38.7809 -7.1875 39.4406 -8.5 Q40.1073 -9.8125 41.267 -10.5486 Q42.4337 -11.2847 43.8642 -11.2847 Q45.1212 -11.2847 46.1212 -10.7153 Q47.1281 -10.1528 47.7879 -9.1319 L47.7879 -14.9097 L49.8781 -14.9097 ZM44.3712 -1.5764 Q45.3573 -1.5764 46.1351 -2.0764 Q46.9129 -2.5833 47.3504 -3.4861 Q47.7879 -4.3958 47.7879 -5.5278 Q47.7879 -6.6528 47.3504 -7.5486 Q46.9129 -8.4514 46.1351 -8.9514 Q45.3573 -9.4514 44.3712 -9.4514 Q43.3712 -9.4514 42.5795 -8.9514 Q41.7948 -8.4514 41.3573 -7.5486 Q40.9198 -6.6528 40.9198 -5.5278 Q40.9198 -4.3958 41.3573 -3.4861 Q41.7948 -2.5833 42.5795 -2.0764 Q43.3712 -1.5764 44.3712 -1.5764 ZM69.4826 -2.9861 L61.8437 -2.9861 L60.5659 0 L58.177 0 L64.4687 -14.6528 L66.8576 -14.6528 L73.1492 0 L70.7603 0 L69.4826 -2.9861 ZM68.6492 -4.9306 L65.6631 -11.8819 L62.677 -4.9306 L68.6492 -4.9306 ZM86.6554 0.2361 Q83.0721 0.2361 80.6207 -2.1111 L81.9193 -3.7153 Q84.0721 -1.6667 86.7387 -1.6667 Q88.1901 -1.6667 89.0026 -2.3125 Q89.8151 -2.9653 89.8151 -3.9028 Q89.8151 -4.8819 88.9679 -5.4028 Q88.1276 -5.9306 86.1415 -6.3819 Q84.4818 -6.7639 83.4262 -7.25 Q82.3707 -7.7431 81.7734 -8.5556 Q81.1762 -9.3681 81.1762 -10.625 Q81.1762 -11.8403 81.8221 -12.8194 Q82.4748 -13.8056 83.6346 -14.3681 Q84.8012 -14.9306 86.2526 -14.9306 Q87.8707 -14.9306 89.1693 -14.3958 Q90.4748 -13.8681 91.6068 -12.8611 L90.3707 -11.2431 Q89.4262 -12.0972 88.3498 -12.5625 Q87.2734 -13.0347 86.1623 -13.0347 Q85.3776 -13.0347 84.7318 -12.7222 Q84.0929 -12.4167 83.7318 -11.9028 Q83.3707 -11.3889 83.3707 -10.8194 Q83.3707 -10.1528 83.7734 -9.7222 Q84.1832 -9.2986 84.9401 -9.0069 Q85.6971 -8.7222 87.0373 -8.4028 Q89.4957 -7.8264 90.7387 -6.8889 Q91.9887 -5.9514 91.9887 -4.1181 Q91.9887 -2.8611 91.3707 -1.875 Q90.7526 -0.8958 89.5443 -0.3264 Q88.3429 0.2361 86.6554 0.2361 ZM99.6251 -1.6181 Q100.4793 -1.6181 101.3821 -1.9583 Q102.2918 -2.3056 102.7849 -2.8194 L104.1043 -1.4514 Q103.3821 -0.6806 102.1112 -0.2083 Q100.8404 0.2569 99.646 0.2569 Q98.1112 0.2569 96.8057 -0.4861 Q95.5071 -1.2361 94.7362 -2.5556 Q93.9724 -3.8819 93.9724 -5.5486 Q93.9724 -7.1667 94.7085 -8.4792 Q95.4446 -9.7917 96.7015 -10.5347 Q97.9654 -11.2847 99.4793 -11.2847 Q101.139 -11.2847 102.3335 -10.4861 Q103.5279 -9.6875 104.1599 -8.2153 Q104.7918 -6.7431 104.7918 -4.7778 L96.1043 -4.7778 Q96.3196 -3.3681 97.264 -2.4931 Q98.2154 -1.6181 99.6251 -1.6181 ZM99.5626 -9.4097 Q98.2849 -9.4097 97.3335 -8.6042 Q96.3821 -7.8056 96.1251 -6.4653 L102.7432 -6.4653 Q102.5487 -7.8056 101.7362 -8.6042 Q100.9307 -9.4097 99.5626 -9.4097 ZM111.8736 -11.2847 Q114.0472 -11.2847 115.2624 -10.0278 Q116.4777 -8.7708 116.4777 -6.6806 L116.4777 0 L114.4083 0 L114.4083 -1.5139 Q113.8111 -0.6806 112.7972 -0.2083 Q111.7902 0.2569 110.7416 0.2569 Q108.9499 0.2569 107.8041 -0.7014 Q106.6652 -1.6667 106.6652 -3.2639 Q106.6652 -4.3333 107.2486 -5.1736 Q107.8388 -6.0139 108.8527 -6.4722 Q109.8666 -6.9306 111.0819 -6.9306 Q112.6583 -6.9306 114.4083 -6.3333 L114.4083 -6.6806 Q114.4083 -7.8958 113.7486 -8.7153 Q113.0888 -9.5347 111.5749 -9.5347 Q110.2486 -9.5347 108.4569 -8.6181 L107.693 -10.1736 Q109.9083 -11.2847 111.8736 -11.2847 ZM111.1444 -1.4097 Q112.2555 -1.4097 113.2069 -1.9514 Q114.1583 -2.4931 114.4083 -3.4583 L114.4083 -4.9306 Q113.0263 -5.3542 111.4013 -5.3542 Q110.2694 -5.3542 109.4777 -4.7778 Q108.693 -4.2014 108.693 -3.3264 Q108.693 -2.4514 109.3874 -1.9306 Q110.0819 -1.4097 111.1444 -1.4097 ZM121.7518 -8.9167 Q122.2796 -10.0278 123.356 -10.6528 Q124.4393 -11.2847 125.8421 -11.2847 L125.8421 -9.4514 Q124.1407 -9.4514 123.0157 -8.5833 Q121.8977 -7.7222 121.7518 -6.2708 L121.7518 0 L119.6407 0 L119.6407 -11.0278 L121.7518 -11.0278 L121.7518 -8.9167 ZM133.122 0.2569 Q131.5872 0.2569 130.24 -0.5278 Q128.8928 -1.3194 128.1012 -2.6528 Q127.3164 -3.9861 127.3164 -5.5278 Q127.3164 -7.0625 128.115 -8.3819 Q128.9206 -9.7083 130.2539 -10.4931 Q131.5872 -11.2847 133.1428 -11.2847 Q134.2956 -11.2847 135.3372 -10.8333 Q136.3859 -10.3889 137.1984 -9.5764 L135.7678 -8.2569 Q135.2747 -8.8125 134.5803 -9.1319 Q133.8859 -9.4514 133.122 -9.4514 Q132.1359 -9.4514 131.2956 -8.9167 Q130.4553 -8.3819 129.9484 -7.4722 Q129.4484 -6.5694 129.4484 -5.5278 Q129.4484 -4.4583 129.9484 -3.5486 Q130.4553 -2.6458 131.2956 -2.1111 Q132.1359 -1.5764 133.1428 -1.5764 Q133.9067 -1.5764 134.6081 -1.9097 Q135.3164 -2.2431 135.8303 -2.8194 L137.2609 -1.5139 Q136.4275 -0.6806 135.372 -0.2083 Q134.3164 0.2569 133.122 0.2569 ZM145.1301 -11.2847 Q146.3246 -11.2847 147.276 -10.7361 Q148.2273 -10.1944 148.7482 -9.2222 Q149.269 -8.2569 149.269 -7.0208 L149.269 0 L147.1996 0 L147.1996 -6.6528 Q147.1996 -7.8958 146.4843 -8.6736 Q145.769 -9.4514 144.6648 -9.4514 Q143.8523 -9.4514 143.144 -9.0972 Q142.4426 -8.75 142.026 -8.1458 Q141.6093 -7.5486 141.6093 -6.8472 L141.6093 0 L139.519 0 L139.519 -14.9097 L141.6093 -14.9097 L141.6093 -9.3889 Q142.1232 -10.2431 143.0676 -10.7639 Q144.019 -11.2847 145.1301 -11.2847 ZM160.6421 -12.6528 L160.6421 -8.3819 L168.406 -8.3819 L168.406 -6.3819 L160.6421 -6.3819 L160.6421 0 L158.4615 0 L158.4615 -14.6528 L169.2393 -14.6528 L169.2393 -12.6528 L160.6421 -12.6528 ZM181.2701 -11.0278 L181.2701 0 L179.159 0 L179.159 -1.5972 Q178.6451 -0.7708 177.7076 -0.2569 Q176.7701 0.2569 175.659 0.2569 Q174.4645 0.2569 173.5131 -0.2847 Q172.5687 -0.8333 172.0409 -1.7986 Q171.5201 -2.7708 171.5201 -4.0139 L171.5201 -11.0278 L173.5895 -11.0278 L173.5895 -4.375 Q173.5895 -3.1389 174.3048 -2.3542 Q175.0201 -1.5764 176.1312 -1.5764 Q177.277 -1.5764 178.152 -2.2361 Q179.027 -2.9028 179.159 -3.8819 L179.159 -11.0278 L181.2701 -11.0278 ZM189.9515 -11.2847 Q191.146 -11.2847 192.0974 -10.7361 Q193.0488 -10.1944 193.5696 -9.2222 Q194.0904 -8.2569 194.0904 -7.0208 L194.0904 0 L192.021 0 L192.021 -6.6528 Q192.021 -7.8958 191.3057 -8.6736 Q190.5904 -9.4514 189.4863 -9.4514 Q188.3335 -9.4514 187.4585 -8.7847 Q186.5835 -8.125 186.4515 -7.1458 L186.4515 0 L184.3404 0 L184.3404 -11.0278 L186.4515 -11.0278 L186.4515 -9.4306 Q186.9654 -10.2639 187.9029 -10.7708 Q188.8404 -11.2847 189.9515 -11.2847 ZM202.3275 0.2569 Q200.7927 0.2569 199.4455 -0.5278 Q198.0983 -1.3194 197.3066 -2.6528 Q196.5219 -3.9861 196.5219 -5.5278 Q196.5219 -7.0625 197.3205 -8.3819 Q198.1261 -9.7083 199.4594 -10.4931 Q200.7927 -11.2847 202.3483 -11.2847 Q203.5011 -11.2847 204.5427 -10.8333 Q205.5913 -10.3889 206.4038 -9.5764 L204.9733 -8.2569 Q204.4802 -8.8125 203.7858 -9.1319 Q203.0913 -9.4514 202.3275 -9.4514 Q201.3413 -9.4514 200.5011 -8.9167 Q199.6608 -8.3819 199.1538 -7.4722 Q198.6538 -6.5694 198.6538 -5.5278 Q198.6538 -4.4583 199.1538 -3.5486 Q199.6608 -2.6458 200.5011 -2.1111 Q201.3413 -1.5764 202.3483 -1.5764 Q203.1122 -1.5764 203.8136 -1.9097 Q204.5219 -2.2431 205.0358 -2.8194 L206.4663 -1.5139 Q205.633 -0.6806 204.5775 -0.2083 Q203.5219 0.2569 202.3275 0.2569 ZM214.655 -0.5347 Q214.2106 -0.1736 213.6342 0.0417 Q213.0578 0.2569 212.4606 0.2569 Q211.1759 0.2569 210.3634 -0.5833 Q209.5578 -1.4306 209.5578 -2.75 L209.5578 -9.2361 L207.8911 -9.2361 L207.8911 -11.0278 L209.5578 -11.0278 L209.5578 -14.0556 L211.6273 -14.0556 L211.6273 -11.0278 L214.2314 -11.0278 L214.2314 -9.2361 L211.6273 -9.2361 L211.6273 -2.9028 Q211.6273 -2.3264 211.9536 -1.9514 Q212.287 -1.5764 212.7592 -1.5764 Q213.0995 -1.5764 213.405 -1.6944 Q213.7175 -1.8125 213.8911 -1.9861 L214.655 -0.5347 ZM217.8584 -12.8611 Q217.3237 -12.8611 216.9487 -13.2431 Q216.5737 -13.6319 216.5737 -14.1458 Q216.5737 -14.6528 216.9487 -15.0278 Q217.3237 -15.4028 217.8584 -15.4028 Q218.3654 -15.4028 218.7404 -15.0139 Q219.1154 -14.6319 219.1154 -14.1458 Q219.1154 -13.6319 218.7404 -13.2431 Q218.3654 -12.8611 217.8584 -12.8611 ZM216.789 -11.0278 L218.9001 -11.0278 L218.9001 0 L216.789 0 L216.789 -11.0278 ZM227.1803 0.2569 Q225.6248 0.2569 224.2914 -0.5278 Q222.9581 -1.3194 222.1526 -2.6528 Q221.3539 -3.9861 221.3539 -5.5278 Q221.3539 -7.0625 222.1526 -8.3819 Q222.9581 -9.7083 224.2914 -10.4931 Q225.6248 -11.2847 227.1803 -11.2847 Q228.7151 -11.2847 230.0484 -10.4931 Q231.3817 -9.7083 232.1665 -8.3819 Q232.9581 -7.0625 232.9581 -5.5278 Q232.9581 -3.9861 232.1665 -2.6528 Q231.3817 -1.3194 230.0484 -0.5278 Q228.7151 0.2569 227.1803 0.2569 ZM227.1803 -1.5764 Q228.1595 -1.5764 228.9998 -2.1111 Q229.847 -2.6458 230.347 -3.5486 Q230.847 -4.4583 230.847 -5.5278 Q230.847 -6.5694 230.347 -7.4722 Q229.847 -8.3819 228.9998 -8.9167 Q228.1595 -9.4514 227.1803 -9.4514 Q226.1734 -9.4514 225.3192 -8.9167 Q224.472 -8.3819 223.9651 -7.4722 Q223.4651 -6.5694 223.4651 -5.5278 Q223.4651 -4.4583 223.9651 -3.5486 Q224.472 -2.6458 225.3192 -2.1111 Q226.1734 -1.5764 227.1803 -1.5764 ZM241.045 -11.2847 Q242.2394 -11.2847 243.1908 -10.7361 Q244.1422 -10.1944 244.663 -9.2222 Q245.1839 -8.2569 245.1839 -7.0208 L245.1839 0 L243.1144 0 L243.1144 -6.6528 Q243.1144 -7.8958 242.3992 -8.6736 Q241.6839 -9.4514 240.5797 -9.4514 Q239.4269 -9.4514 238.5519 -8.7847 Q237.6769 -8.125 237.545 -7.1458 L237.545 0 L235.4339 0 L235.4339 -11.0278 L237.545 -11.0278 L237.545 -9.4306 Q238.0589 -10.2639 238.9964 -10.7708 Q239.9339 -11.2847 241.045 -11.2847 Z"
                                 stroke="none"/>
                        </g>
                     </g>
                  </g>
               </g>
            </g>
         </g>
         <g transform="translate(558.0,13.0)"
            k9-texture="background"
            k9-info="margin: [13.333333969116211 13.333333969116211 13.333333969116211 13.333333969116211]; padding: [16.0 29.33333396911621 16.0 16.0]; min-size: [0.0 0.0]; sizing: [minimize minimize]; horiz: center; vert: center; layout: null; rectangular: connected; rect-pos: [558.0, 13.0]; rect-size: [276.0, 57.0]; position: none; painter: direct-svg; "
            id="3"
            k9-format="text-shape-inline"
            k9-ui="size drag delete align connect autoconnect edit vote"
            k9-elem="action"
            k9-type="connected">
            <g class="k9-shape" k9-highlight="pulse">
               <g k9-highlight="pulse"
                  k9-texture="background"
                  style="transform: translate(0px,0px)"
                  pp:style="transform: translate([[$x]]px,[[$y]]px)">
                  <polygon points="             0 0,              255.99999940395355 0,             276 28.5,             255.99999940395355 57,             0 57"
                           pp:points="             0 0,              [[$width - (15 * $pt)]] 0,             [[$width]] [[$height div 2]],             [[$width - (15 * $pt)]] [[$height]],             0 [[$height]]"/>
               </g>
            </g>
            <g class="k9-content">
               <g k9-elem="caption"
                  k9-texture="foreground"
                  transform="translate(14.4,37.3)"
                  k9-format="text-fixed"
                  k9-info="margin: [0.0 0.0 0.0 0.0]; padding: [0.0 0.0 0.0 0.0]; min-size: [0.0 0.0]; sizing: [minimize minimize]; horiz: center; vert: center; rectangular: connected; rect-pos: [574.0, 29.0]; rect-size: [231.0, 25.0]; position: none; painter: direct-svg; ">
                  <g class="k9-content k9-no-shape" k9-highlight="pulse">
                     <g rendered="true">
                        <g>
                           <path d="M13.2083 -9.875 Q13.2083 -8.2153 12.1736 -6.9861 Q11.1389 -5.7569 9.4514 -5.3125 L13.1806 0 L10.7083 0 L7.125 -5.0972 L3.7569 -5.0972 L3.7569 0 L1.5972 0 L1.5972 -14.6528 L7.7639 -14.6528 Q9.2986 -14.6528 10.5347 -14.0417 Q11.7778 -13.4375 12.4931 -12.3403 Q13.2083 -11.2431 13.2083 -9.875 ZM3.7569 -7.1042 L7.4653 -7.1042 Q9.0694 -7.1042 10.0347 -7.8472 Q11.0069 -8.5972 11.0069 -9.875 Q11.0069 -11.1597 10.0347 -11.9028 Q9.0694 -12.6528 7.4653 -12.6528 L3.7569 -12.6528 L3.7569 -7.1042 ZM20.649 -1.6181 Q21.5031 -1.6181 22.4059 -1.9583 Q23.3156 -2.3056 23.8087 -2.8194 L25.1281 -1.4514 Q24.4059 -0.6806 23.1351 -0.2083 Q21.8643 0.2569 20.6698 0.2569 Q19.1351 0.2569 17.8295 -0.4861 Q16.5309 -1.2361 15.7601 -2.5556 Q14.9962 -3.8819 14.9962 -5.5486 Q14.9962 -7.1667 15.7323 -8.4792 Q16.4684 -9.7917 17.7254 -10.5347 Q18.9893 -11.2847 20.5031 -11.2847 Q22.1629 -11.2847 23.3573 -10.4861 Q24.5518 -9.6875 25.1837 -8.2153 Q25.8156 -6.7431 25.8156 -4.7778 L17.1281 -4.7778 Q17.3434 -3.3681 18.2879 -2.4931 Q19.2393 -1.6181 20.649 -1.6181 ZM20.5865 -9.4097 Q19.3087 -9.4097 18.3573 -8.6042 Q17.4059 -7.8056 17.149 -6.4653 L23.767 -6.4653 Q23.5726 -7.8056 22.7601 -8.6042 Q21.9545 -9.4097 20.5865 -9.4097 ZM31.1682 -11.0278 L33.7724 -11.0278 L33.7724 -9.2361 L31.1682 -9.2361 L31.1682 0 L29.0988 0 L29.0988 -9.2361 L27.4321 -9.2361 L27.4321 -11.0278 L29.0988 -11.0278 L29.0988 -12.3542 Q29.0988 -13.6736 29.9043 -14.5139 Q30.7168 -15.3611 32.0016 -15.3611 Q32.5988 -15.3611 33.1752 -15.1458 Q33.7516 -14.9306 34.196 -14.5694 L33.4321 -13.1597 Q33.2585 -13.3333 32.946 -13.4514 Q32.6404 -13.5694 32.3002 -13.5694 Q31.8279 -13.5694 31.4946 -13.1944 Q31.1682 -12.8194 31.1682 -12.2431 L31.1682 -11.0278 ZM40.5774 -11.2847 Q42.751 -11.2847 43.9663 -10.0278 Q45.1816 -8.7708 45.1816 -6.6806 L45.1816 0 L43.1121 0 L43.1121 -1.5139 Q42.5149 -0.6806 41.501 -0.2083 Q40.4941 0.2569 39.4455 0.2569 Q37.6538 0.2569 36.508 -0.7014 Q35.3691 -1.6667 35.3691 -3.2639 Q35.3691 -4.3333 35.9524 -5.1736 Q36.5427 -6.0139 37.5566 -6.4722 Q38.5705 -6.9306 39.7857 -6.9306 Q41.3621 -6.9306 43.1121 -6.3333 L43.1121 -6.6806 Q43.1121 -7.8958 42.4524 -8.7153 Q41.7927 -9.5347 40.2788 -9.5347 Q38.9524 -9.5347 37.1607 -8.6181 L36.3968 -10.1736 Q38.6121 -11.2847 40.5774 -11.2847 ZM39.8482 -1.4097 Q40.9593 -1.4097 41.9107 -1.9514 Q42.8621 -2.4931 43.1121 -3.4583 L43.1121 -4.9306 Q41.7302 -5.3542 40.1052 -5.3542 Q38.9732 -5.3542 38.1816 -4.7778 Q37.3968 -4.2014 37.3968 -3.3264 Q37.3968 -2.4514 38.0913 -1.9306 Q38.7857 -1.4097 39.8482 -1.4097 ZM53.4418 0.2569 Q51.9071 0.2569 50.5599 -0.5278 Q49.2126 -1.3194 48.421 -2.6528 Q47.6363 -3.9861 47.6363 -5.5278 Q47.6363 -7.0625 48.4349 -8.3819 Q49.2404 -9.7083 50.5738 -10.4931 Q51.9071 -11.2847 53.4626 -11.2847 Q54.6154 -11.2847 55.6571 -10.8333 Q56.7057 -10.3889 57.5182 -9.5764 L56.0876 -8.2569 Q55.5946 -8.8125 54.9001 -9.1319 Q54.2057 -9.4514 53.4418 -9.4514 Q52.4557 -9.4514 51.6154 -8.9167 Q50.7751 -8.3819 50.2682 -7.4722 Q49.7682 -6.5694 49.7682 -5.5278 Q49.7682 -4.4583 50.2682 -3.5486 Q50.7751 -2.6458 51.6154 -2.1111 Q52.4557 -1.5764 53.4626 -1.5764 Q54.2265 -1.5764 54.9279 -1.9097 Q55.6363 -2.2431 56.1501 -2.8194 L57.5807 -1.5139 Q56.7474 -0.6806 55.6918 -0.2083 Q54.6363 0.2569 53.4418 0.2569 ZM65.7694 -0.5347 Q65.325 -0.1736 64.7486 0.0417 Q64.1722 0.2569 63.575 0.2569 Q62.2902 0.2569 61.4777 -0.5833 Q60.6722 -1.4306 60.6722 -2.75 L60.6722 -9.2361 L59.0055 -9.2361 L59.0055 -11.0278 L60.6722 -11.0278 L60.6722 -14.0556 L62.7416 -14.0556 L62.7416 -11.0278 L65.3458 -11.0278 L65.3458 -9.2361 L62.7416 -9.2361 L62.7416 -2.9028 Q62.7416 -2.3264 63.068 -1.9514 Q63.4013 -1.5764 63.8736 -1.5764 Q64.2138 -1.5764 64.5194 -1.6944 Q64.8319 -1.8125 65.0055 -1.9861 L65.7694 -0.5347 ZM73.1534 0.2569 Q71.5978 0.2569 70.2645 -0.5278 Q68.9311 -1.3194 68.1256 -2.6528 Q67.327 -3.9861 67.327 -5.5278 Q67.327 -7.0625 68.1256 -8.3819 Q68.9311 -9.7083 70.2645 -10.4931 Q71.5978 -11.2847 73.1534 -11.2847 Q74.6881 -11.2847 76.0214 -10.4931 Q77.3548 -9.7083 78.1395 -8.3819 Q78.9311 -7.0625 78.9311 -5.5278 Q78.9311 -3.9861 78.1395 -2.6528 Q77.3548 -1.3194 76.0214 -0.5278 Q74.6881 0.2569 73.1534 0.2569 ZM73.1534 -1.5764 Q74.1325 -1.5764 74.9728 -2.1111 Q75.82 -2.6458 76.32 -3.5486 Q76.82 -4.4583 76.82 -5.5278 Q76.82 -6.5694 76.32 -7.4722 Q75.82 -8.3819 74.9728 -8.9167 Q74.1325 -9.4514 73.1534 -9.4514 Q72.1464 -9.4514 71.2922 -8.9167 Q70.445 -8.3819 69.9381 -7.4722 Q69.4381 -6.5694 69.4381 -5.5278 Q69.4381 -4.4583 69.9381 -3.5486 Q70.445 -2.6458 71.2922 -2.1111 Q72.1464 -1.5764 73.1534 -1.5764 ZM83.6291 -8.9167 Q84.1569 -10.0278 85.2333 -10.6528 Q86.3166 -11.2847 87.7194 -11.2847 L87.7194 -9.4514 Q86.018 -9.4514 84.893 -8.5833 Q83.7749 -7.7222 83.6291 -6.2708 L83.6291 0 L81.518 0 L81.518 -11.0278 L83.6291 -11.0278 L83.6291 -8.9167 ZM101.2048 0.2361 Q97.6214 0.2361 95.17 -2.1111 L96.4686 -3.7153 Q98.6214 -1.6667 101.2881 -1.6667 Q102.7395 -1.6667 103.552 -2.3125 Q104.3645 -2.9653 104.3645 -3.9028 Q104.3645 -4.8819 103.5173 -5.4028 Q102.677 -5.9306 100.6909 -6.3819 Q99.0311 -6.7639 97.9756 -7.25 Q96.92 -7.7431 96.3228 -8.5556 Q95.7256 -9.3681 95.7256 -10.625 Q95.7256 -11.8403 96.3714 -12.8194 Q97.0242 -13.8056 98.1839 -14.3681 Q99.3506 -14.9306 100.802 -14.9306 Q102.42 -14.9306 103.7186 -14.3958 Q105.0242 -13.8681 106.1561 -12.8611 L104.92 -11.2431 Q103.9756 -12.0972 102.8992 -12.5625 Q101.8228 -13.0347 100.7117 -13.0347 Q99.927 -13.0347 99.2811 -12.7222 Q98.6423 -12.4167 98.2811 -11.9028 Q97.92 -11.3889 97.92 -10.8194 Q97.92 -10.1528 98.3228 -9.7222 Q98.7325 -9.2986 99.4895 -9.0069 Q100.2464 -8.7222 101.5867 -8.4028 Q104.045 -7.8264 105.2881 -6.8889 Q106.5381 -5.9514 106.5381 -4.1181 Q106.5381 -2.8611 105.92 -1.875 Q105.302 -0.8958 104.0936 -0.3264 Q102.8923 0.2361 101.2048 0.2361 ZM118.8273 -11.0278 L118.8273 0 L116.7162 0 L116.7162 -1.5972 Q116.2023 -0.7708 115.2648 -0.2569 Q114.3273 0.2569 113.2162 0.2569 Q112.0217 0.2569 111.0703 -0.2847 Q110.1259 -0.8333 109.5981 -1.7986 Q109.0773 -2.7708 109.0773 -4.0139 L109.0773 -11.0278 L111.1467 -11.0278 L111.1467 -4.375 Q111.1467 -3.1389 111.862 -2.3542 Q112.5773 -1.5764 113.6884 -1.5764 Q114.8342 -1.5764 115.7092 -2.2361 Q116.5842 -2.9028 116.7162 -3.8819 L116.7162 -11.0278 L118.8273 -11.0278 ZM128.0226 -11.2847 Q129.4532 -11.2847 130.6129 -10.5486 Q131.7796 -9.8125 132.4393 -8.5 Q133.099 -7.1875 133.099 -5.5278 Q133.099 -3.8611 132.4393 -2.5347 Q131.7796 -1.2153 130.6129 -0.4792 Q129.4532 0.2569 128.0226 0.2569 Q126.7657 0.2569 125.7518 -0.3056 Q124.7379 -0.875 124.099 -1.9167 L124.099 0 L122.0087 0 L122.0087 -14.9097 L124.099 -14.9097 L124.099 -9.1319 Q124.7587 -10.1528 125.7587 -10.7153 Q126.7657 -11.2847 128.0226 -11.2847 ZM127.5087 -1.5764 Q128.5157 -1.5764 129.3004 -2.0764 Q130.0921 -2.5833 130.5296 -3.4861 Q130.9671 -4.3958 130.9671 -5.5278 Q130.9671 -6.6528 130.5296 -7.5486 Q130.0921 -8.4514 129.3004 -8.9514 Q128.5157 -9.4514 127.5087 -9.4514 Q126.5296 -9.4514 125.7518 -8.9514 Q124.974 -8.4514 124.5365 -7.5486 Q124.099 -6.6528 124.099 -5.5278 Q124.099 -4.3958 124.5365 -3.4861 Q124.974 -2.5833 125.7518 -2.0764 Q126.5296 -1.5764 127.5087 -1.5764 ZM139.6507 0.2569 Q138.4077 0.2569 137.1577 -0.1667 Q135.9146 -0.5972 134.9354 -1.3889 L135.9354 -2.9028 Q137.7896 -1.5556 139.6716 -1.5556 Q140.6091 -1.5556 141.1854 -1.9514 Q141.7618 -2.3472 141.7618 -2.9861 Q141.7618 -3.6667 141.1646 -4.0069 Q140.5674 -4.3542 139.2618 -4.7153 Q137.241 -5.2708 136.3521 -5.9722 Q135.4702 -6.6806 135.4702 -7.9792 Q135.4702 -9.4722 136.5882 -10.375 Q137.7063 -11.2847 139.4771 -11.2847 Q140.5257 -11.2847 141.5813 -10.9444 Q142.6368 -10.6042 143.5535 -10.0069 L142.616 -8.4514 Q140.9702 -9.4722 139.4771 -9.4722 Q138.6229 -9.4722 138.0813 -9.1181 Q137.5396 -8.7708 137.5396 -8.1736 Q137.5396 -7.7431 137.7827 -7.4861 Q138.0257 -7.2292 138.5118 -7.0139 Q139.0049 -6.8056 140.0743 -6.4861 Q141.2688 -6.125 142.0257 -5.7917 Q142.7827 -5.4583 143.3035 -4.8194 Q143.8313 -4.1806 143.8313 -3.1597 Q143.8313 -1.6181 142.6577 -0.6806 Q141.4841 0.2569 139.6507 0.2569 ZM151.49 0.2569 Q149.9553 0.2569 148.6081 -0.5278 Q147.2608 -1.3194 146.4692 -2.6528 Q145.6845 -3.9861 145.6845 -5.5278 Q145.6845 -7.0625 146.4831 -8.3819 Q147.2886 -9.7083 148.622 -10.4931 Q149.9553 -11.2847 151.5108 -11.2847 Q152.6636 -11.2847 153.7053 -10.8333 Q154.7539 -10.3889 155.5664 -9.5764 L154.1358 -8.2569 Q153.6428 -8.8125 152.9483 -9.1319 Q152.2539 -9.4514 151.49 -9.4514 Q150.5039 -9.4514 149.6636 -8.9167 Q148.8233 -8.3819 148.3164 -7.4722 Q147.8164 -6.5694 147.8164 -5.5278 Q147.8164 -4.4583 148.3164 -3.5486 Q148.8233 -2.6458 149.6636 -2.1111 Q150.5039 -1.5764 151.5108 -1.5764 Q152.2747 -1.5764 152.9761 -1.9097 Q153.6845 -2.2431 154.1983 -2.8194 L155.6289 -1.5139 Q154.7956 -0.6806 153.74 -0.2083 Q152.6845 0.2569 151.49 0.2569 ZM160.1093 -8.9167 Q160.6371 -10.0278 161.7134 -10.6528 Q162.7968 -11.2847 164.1996 -11.2847 L164.1996 -9.4514 Q162.4982 -9.4514 161.3732 -8.5833 Q160.2551 -7.7222 160.1093 -6.2708 L160.1093 0 L157.9982 0 L157.9982 -11.0278 L160.1093 -11.0278 L160.1093 -8.9167 ZM167.3197 -12.8611 Q166.785 -12.8611 166.41 -13.2431 Q166.035 -13.6319 166.035 -14.1458 Q166.035 -14.6528 166.41 -15.0278 Q166.785 -15.4028 167.3197 -15.4028 Q167.8266 -15.4028 168.2016 -15.0139 Q168.5766 -14.6319 168.5766 -14.1458 Q168.5766 -13.6319 168.2016 -13.2431 Q167.8266 -12.8611 167.3197 -12.8611 ZM166.2502 -11.0278 L168.3613 -11.0278 L168.3613 0 L166.2502 0 L166.2502 -11.0278 ZM177.5374 -11.2847 Q178.968 -11.2847 180.1277 -10.5486 Q181.2944 -9.8125 181.9541 -8.5 Q182.6138 -7.1875 182.6138 -5.5278 Q182.6138 -3.8611 181.9541 -2.5347 Q181.2944 -1.2153 180.1277 -0.4792 Q178.968 0.2569 177.5374 0.2569 Q176.2805 0.2569 175.2666 -0.3056 Q174.2527 -0.875 173.6138 -1.9167 L173.6138 3.6667 L171.5235 3.6667 L171.5235 -11.0278 L173.6138 -11.0278 L173.6138 -9.1319 Q174.2735 -10.1528 175.2735 -10.7153 Q176.2805 -11.2847 177.5374 -11.2847 ZM177.0235 -1.5764 Q178.0305 -1.5764 178.8152 -2.0764 Q179.6069 -2.5833 180.0444 -3.4861 Q180.4819 -4.3958 180.4819 -5.5278 Q180.4819 -6.6528 180.0444 -7.5486 Q179.6069 -8.4514 178.8152 -8.9514 Q178.0305 -9.4514 177.0235 -9.4514 Q176.0444 -9.4514 175.2666 -8.9514 Q174.4888 -8.4514 174.0513 -7.5486 Q173.6138 -6.6528 173.6138 -5.5278 Q173.6138 -4.3958 174.0513 -3.4861 Q174.4888 -2.5833 175.2666 -2.0764 Q176.0444 -1.5764 177.0235 -1.5764 ZM191.103 -0.5347 Q190.6586 -0.1736 190.0822 0.0417 Q189.5058 0.2569 188.9086 0.2569 Q187.6238 0.2569 186.8113 -0.5833 Q186.0058 -1.4306 186.0058 -2.75 L186.0058 -9.2361 L184.3391 -9.2361 L184.3391 -11.0278 L186.0058 -11.0278 L186.0058 -14.0556 L188.0752 -14.0556 L188.0752 -11.0278 L190.6794 -11.0278 L190.6794 -9.2361 L188.0752 -9.2361 L188.0752 -2.9028 Q188.0752 -2.3264 188.4016 -1.9514 Q188.735 -1.5764 189.2072 -1.5764 Q189.5475 -1.5764 189.853 -1.6944 Q190.1655 -1.8125 190.3391 -1.9861 L191.103 -0.5347 ZM194.3064 -12.8611 Q193.7717 -12.8611 193.3967 -13.2431 Q193.0217 -13.6319 193.0217 -14.1458 Q193.0217 -14.6528 193.3967 -15.0278 Q193.7717 -15.4028 194.3064 -15.4028 Q194.8133 -15.4028 195.1883 -15.0139 Q195.5633 -14.6319 195.5633 -14.1458 Q195.5633 -13.6319 195.1883 -13.2431 Q194.8133 -12.8611 194.3064 -12.8611 ZM193.237 -11.0278 L195.3481 -11.0278 L195.3481 0 L193.237 0 L193.237 -11.0278 ZM203.6283 0.2569 Q202.0727 0.2569 200.7394 -0.5278 Q199.4061 -1.3194 198.6005 -2.6528 Q197.8019 -3.9861 197.8019 -5.5278 Q197.8019 -7.0625 198.6005 -8.3819 Q199.4061 -9.7083 200.7394 -10.4931 Q202.0727 -11.2847 203.6283 -11.2847 Q205.163 -11.2847 206.4964 -10.4931 Q207.8297 -9.7083 208.6144 -8.3819 Q209.4061 -7.0625 209.4061 -5.5278 Q209.4061 -3.9861 208.6144 -2.6528 Q207.8297 -1.3194 206.4964 -0.5278 Q205.163 0.2569 203.6283 0.2569 ZM203.6283 -1.5764 Q204.6075 -1.5764 205.4478 -2.1111 Q206.295 -2.6458 206.795 -3.5486 Q207.295 -4.4583 207.295 -5.5278 Q207.295 -6.5694 206.795 -7.4722 Q206.295 -8.3819 205.4478 -8.9167 Q204.6075 -9.4514 203.6283 -9.4514 Q202.6214 -9.4514 201.7672 -8.9167 Q200.92 -8.3819 200.413 -7.4722 Q199.913 -6.5694 199.913 -5.5278 Q199.913 -4.4583 200.413 -3.5486 Q200.92 -2.6458 201.7672 -2.1111 Q202.6214 -1.5764 203.6283 -1.5764 ZM217.4929 -11.2847 Q218.6874 -11.2847 219.6388 -10.7361 Q220.5902 -10.1944 221.111 -9.2222 Q221.6318 -8.2569 221.6318 -7.0208 L221.6318 0 L219.5624 0 L219.5624 -6.6528 Q219.5624 -7.8958 218.8471 -8.6736 Q218.1318 -9.4514 217.0277 -9.4514 Q215.8749 -9.4514 214.9999 -8.7847 Q214.1249 -8.125 213.9929 -7.1458 L213.9929 0 L211.8818 0 L211.8818 -11.0278 L213.9929 -11.0278 L213.9929 -9.4306 Q214.5068 -10.2639 215.4443 -10.7708 Q216.3818 -11.2847 217.4929 -11.2847 ZM228.6536 0.2569 Q227.4105 0.2569 226.1605 -0.1667 Q224.9175 -0.5972 223.9383 -1.3889 L224.9383 -2.9028 Q226.7925 -1.5556 228.6744 -1.5556 Q229.6119 -1.5556 230.1883 -1.9514 Q230.7647 -2.3472 230.7647 -2.9861 Q230.7647 -3.6667 230.1675 -4.0069 Q229.5702 -4.3542 228.2647 -4.7153 Q226.2439 -5.2708 225.355 -5.9722 Q224.473 -6.6806 224.473 -7.9792 Q224.473 -9.4722 225.5911 -10.375 Q226.7091 -11.2847 228.48 -11.2847 Q229.5286 -11.2847 230.5841 -10.9444 Q231.6397 -10.6042 232.5564 -10.0069 L231.6189 -8.4514 Q229.973 -9.4722 228.48 -9.4722 Q227.6258 -9.4722 227.0841 -9.1181 Q226.5425 -8.7708 226.5425 -8.1736 Q226.5425 -7.7431 226.7855 -7.4861 Q227.0286 -7.2292 227.5147 -7.0139 Q228.0077 -6.8056 229.0772 -6.4861 Q230.2716 -6.125 231.0286 -5.7917 Q231.7855 -5.4583 232.3064 -4.8194 Q232.8341 -4.1806 232.8341 -3.1597 Q232.8341 -1.6181 231.6605 -0.6806 Q230.4869 0.2569 228.6536 0.2569 Z"
                                 stroke="none"/>
                        </g>
                     </g>
                  </g>
               </g>
            </g>
         </g>
         <g transform="translate(847.0,13.0)"
            k9-texture="background"
            k9-info="margin: [13.333333969116211 13.333333969116211 13.333333969116211 13.333333969116211]; padding: [16.0 29.33333396911621 16.0 16.0]; min-size: [0.0 0.0]; sizing: [minimize minimize]; horiz: center; vert: center; layout: null; rectangular: connected; rect-pos: [847.0, 13.0]; rect-size: [186.0, 57.0]; position: none; painter: direct-svg; "
            id="4"
            k9-format="text-shape-inline"
            k9-ui="size drag delete align connect autoconnect edit vote"
            k9-elem="action"
            k9-type="connected">
            <g class="k9-shape" k9-highlight="pulse">
               <g k9-highlight="pulse"
                  k9-texture="background"
                  style="transform: translate(0px,0px)"
                  pp:style="transform: translate([[$x]]px,[[$y]]px)">
                  <polygon points="             0 0,              165.99999940395355 0,             186 28.5,             165.99999940395355 57,             0 57"
                           pp:points="             0 0,              [[$width - (15 * $pt)]] 0,             [[$width]] [[$height div 2]],             [[$width - (15 * $pt)]] [[$height]],             0 [[$height]]"/>
               </g>
            </g>
            <g class="k9-content">
               <g k9-elem="caption"
                  k9-texture="foreground"
                  transform="translate(14.4,37.3)"
                  k9-format="text-fixed"
                  k9-info="margin: [0.0 0.0 0.0 0.0]; padding: [0.0 0.0 0.0 0.0]; min-size: [0.0 0.0]; sizing: [minimize minimize]; horiz: center; vert: center; rectangular: connected; rect-pos: [863.0, 29.0]; rect-size: [141.0, 25.0]; position: none; painter: direct-svg; ">
                  <g class="k9-content k9-no-shape" k9-highlight="pulse">
                     <g rendered="true">
                        <g>
                           <path d="M3.7778 -12.6528 L3.7778 -8.3819 L11.5417 -8.3819 L11.5417 -6.3819 L3.7778 -6.3819 L3.7778 0 L1.5972 0 L1.5972 -14.6528 L12.375 -14.6528 L12.375 -12.6528 L3.7778 -12.6528 ZM14.7807 -14.6528 L16.9405 -14.6528 L16.9405 0 L14.7807 0 L14.7807 -14.6528 ZM27.4975 0 L24.4906 -4.0556 L21.4628 0 L19.1156 0 L23.317 -5.6319 L19.2823 -11.0278 L21.6781 -11.0278 L24.4906 -7.2292 L27.3309 -11.0278 L29.6781 -11.0278 L25.6642 -5.6528 L29.8656 0 L27.4975 0 ZM45.1616 0.2569 Q43.1339 0.2569 41.3839 -0.7778 Q39.6408 -1.8125 38.5922 -3.5625 Q37.5436 -5.3125 37.5436 -7.3403 Q37.5436 -9.3681 38.5922 -11.1042 Q39.6408 -12.8403 41.3839 -13.875 Q43.1339 -14.9097 45.1616 -14.9097 Q46.6964 -14.9097 48.0922 -14.2986 Q49.495 -13.6944 50.5575 -12.6111 L49.0436 -11.1597 Q48.2797 -11.9861 47.2727 -12.4583 Q46.2727 -12.9306 45.1616 -12.9306 Q43.7311 -12.9306 42.4811 -12.1597 Q41.238 -11.3889 40.5019 -10.1111 Q39.7658 -8.8333 39.7658 -7.3403 Q39.7658 -5.8472 40.5019 -4.5556 Q41.238 -3.2639 42.4811 -2.4931 Q43.7311 -1.7292 45.1616 -1.7292 Q46.2727 -1.7292 47.2727 -2.1944 Q48.2797 -2.6667 49.0436 -3.5 L50.5575 -2.0486 Q49.495 -0.9583 48.0922 -0.3472 Q46.6964 0.2569 45.1616 0.2569 ZM52.7542 -14.6528 L54.9139 -14.6528 L54.9139 0 L52.7542 0 L52.7542 -14.6528 ZM64.232 -14.6528 L70.3987 -14.6528 Q71.9334 -14.6528 73.1695 -14.0417 Q74.4126 -13.4375 75.1278 -12.3403 Q75.8431 -11.2431 75.8431 -9.875 Q75.8431 -8.5139 75.1278 -7.4097 Q74.4126 -6.3125 73.1695 -5.7014 Q71.9334 -5.0972 70.3987 -5.0972 L66.3917 -5.0972 L66.3917 0 L64.232 0 L64.232 -14.6528 ZM70.1001 -7.1042 Q71.7042 -7.1042 72.6695 -7.8472 Q73.6417 -8.5972 73.6417 -9.875 Q73.6417 -11.1597 72.6695 -11.9028 Q71.7042 -12.6528 70.1001 -12.6528 L66.3917 -12.6528 L66.3917 -7.1042 L70.1001 -7.1042 ZM79.0635 -12.8611 Q78.5288 -12.8611 78.1538 -13.2431 Q77.7788 -13.6319 77.7788 -14.1458 Q77.7788 -14.6528 78.1538 -15.0278 Q78.5288 -15.4028 79.0635 -15.4028 Q79.5704 -15.4028 79.9454 -15.0139 Q80.3204 -14.6319 80.3204 -14.1458 Q80.3204 -13.6319 79.9454 -13.2431 Q79.5704 -12.8611 79.0635 -12.8611 ZM77.994 -11.0278 L80.1052 -11.0278 L80.1052 0 L77.994 0 L77.994 -11.0278 ZM89.2812 -11.2847 Q90.7118 -11.2847 91.8715 -10.5486 Q93.0382 -9.8125 93.6979 -8.5 Q94.3576 -7.1875 94.3576 -5.5278 Q94.3576 -3.8611 93.6979 -2.5347 Q93.0382 -1.2153 91.8715 -0.4792 Q90.7118 0.2569 89.2812 0.2569 Q88.0243 0.2569 87.0104 -0.3056 Q85.9965 -0.875 85.3576 -1.9167 L85.3576 3.6667 L83.2673 3.6667 L83.2673 -11.0278 L85.3576 -11.0278 L85.3576 -9.1319 Q86.0173 -10.1528 87.0173 -10.7153 Q88.0243 -11.2847 89.2812 -11.2847 ZM88.7673 -1.5764 Q89.7743 -1.5764 90.559 -2.0764 Q91.3507 -2.5833 91.7882 -3.4861 Q92.2257 -4.3958 92.2257 -5.5278 Q92.2257 -6.6528 91.7882 -7.5486 Q91.3507 -8.4514 90.559 -8.9514 Q89.7743 -9.4514 88.7673 -9.4514 Q87.7882 -9.4514 87.0104 -8.9514 Q86.2326 -8.4514 85.7951 -7.5486 Q85.3576 -6.6528 85.3576 -5.5278 Q85.3576 -4.3958 85.7951 -3.4861 Q86.2326 -2.5833 87.0104 -2.0764 Q87.7882 -1.5764 88.7673 -1.5764 ZM101.9718 -1.6181 Q102.826 -1.6181 103.7288 -1.9583 Q104.6385 -2.3056 105.1315 -2.8194 L106.451 -1.4514 Q105.7288 -0.6806 104.4579 -0.2083 Q103.1871 0.2569 101.9926 0.2569 Q100.4579 0.2569 99.1524 -0.4861 Q97.8538 -1.2361 97.0829 -2.5556 Q96.319 -3.8819 96.319 -5.5486 Q96.319 -7.1667 97.0551 -8.4792 Q97.7913 -9.7917 99.0482 -10.5347 Q100.3121 -11.2847 101.826 -11.2847 Q103.4857 -11.2847 104.6801 -10.4861 Q105.8746 -9.6875 106.5065 -8.2153 Q107.1385 -6.7431 107.1385 -4.7778 L98.451 -4.7778 Q98.6663 -3.3681 99.6107 -2.4931 Q100.5621 -1.6181 101.9718 -1.6181 ZM101.9093 -9.4097 Q100.6315 -9.4097 99.6801 -8.6042 Q98.7288 -7.8056 98.4718 -6.4653 L105.0899 -6.4653 Q104.8954 -7.8056 104.0829 -8.6042 Q103.2774 -9.4097 101.9093 -9.4097 ZM109.5883 -14.9097 L111.6786 -14.9097 L111.6786 0 L109.5883 0 L109.5883 -14.9097 ZM115.7996 -12.8611 Q115.2649 -12.8611 114.8899 -13.2431 Q114.5149 -13.6319 114.5149 -14.1458 Q114.5149 -14.6528 114.8899 -15.0278 Q115.2649 -15.4028 115.7996 -15.4028 Q116.3065 -15.4028 116.6815 -15.0139 Q117.0565 -14.6319 117.0565 -14.1458 Q117.0565 -13.6319 116.6815 -13.2431 Q116.3065 -12.8611 115.7996 -12.8611 ZM114.7301 -11.0278 L116.8412 -11.0278 L116.8412 0 L114.7301 0 L114.7301 -11.0278 ZM125.5034 -11.2847 Q126.6979 -11.2847 127.6493 -10.7361 Q128.6006 -10.1944 129.1215 -9.2222 Q129.6423 -8.2569 129.6423 -7.0208 L129.6423 0 L127.5729 0 L127.5729 -6.6528 Q127.5729 -7.8958 126.8576 -8.6736 Q126.1423 -9.4514 125.0381 -9.4514 Q123.8854 -9.4514 123.0104 -8.7847 Q122.1354 -8.125 122.0034 -7.1458 L122.0034 0 L119.8923 0 L119.8923 -11.0278 L122.0034 -11.0278 L122.0034 -9.4306 Q122.5173 -10.2639 123.4548 -10.7708 Q124.3923 -11.2847 125.5034 -11.2847 ZM137.7266 -1.6181 Q138.5807 -1.6181 139.4835 -1.9583 Q140.3932 -2.3056 140.8863 -2.8194 L142.2057 -1.4514 Q141.4835 -0.6806 140.2127 -0.2083 Q138.9418 0.2569 137.7474 0.2569 Q136.2127 0.2569 134.9071 -0.4861 Q133.6085 -1.2361 132.8377 -2.5556 Q132.0738 -3.8819 132.0738 -5.5486 Q132.0738 -7.1667 132.8099 -8.4792 Q133.546 -9.7917 134.803 -10.5347 Q136.0668 -11.2847 137.5807 -11.2847 Q139.2405 -11.2847 140.4349 -10.4861 Q141.6293 -9.6875 142.2613 -8.2153 Q142.8932 -6.7431 142.8932 -4.7778 L134.2057 -4.7778 Q134.421 -3.3681 135.3655 -2.4931 Q136.3168 -1.6181 137.7266 -1.6181 ZM137.6641 -9.4097 Q136.3863 -9.4097 135.4349 -8.6042 Q134.4835 -7.8056 134.2266 -6.4653 L140.8446 -6.4653 Q140.6502 -7.8056 139.8377 -8.6042 Q139.0321 -9.4097 137.6641 -9.4097 Z"
                                 stroke="none"/>
                        </g>
                     </g>
                  </g>
               </g>
            </g>
         </g>
      </g>
   </g>
   <defs>
      <script xlink:actuate="onLoad"
              xlink:type="simple"
              xlink:show="other"
              type="module">
     import '/public/templates/risk-first/risk-first.js?v=v0.15'
  </script>
   </defs>
</svg>
