<svg version="1.1" viewBox="0.0 0.0 726.0 449.0" fill="none" stroke="none" stroke-linecap="square" stroke-miterlimit="10" width="726" height="449" xmlns:xlink="http://www.w3.org/1999/xlink" xmlns="http://www.w3.org/2000/svg"><path fill="#ffffff" d="M0 0L726.0 0L726.0 449.0L0 449.0L0 0Z" fill-rule="nonzero"/><path stroke="#333333" stroke-width="1.0" stroke-linecap="butt" d="M124.5 59.5L124.5 367.5" fill-rule="nonzero"/><path stroke="#cccccc" stroke-width="1.0" stroke-linecap="butt" d="M237.5 59.5L237.5 367.5" fill-rule="nonzero"/><path stroke="#cccccc" stroke-width="1.0" stroke-linecap="butt" d="M350.5 59.5L350.5 367.5" fill-rule="nonzero"/><path stroke="#cccccc" stroke-width="1.0" stroke-linecap="butt" d="M464.5 59.5L464.5 367.5" fill-rule="nonzero"/><path stroke="#cccccc" stroke-width="1.0" stroke-linecap="butt" d="M577.5 59.5L577.5 367.5" fill-rule="nonzero"/><path stroke="#cccccc" stroke-width="1.0" stroke-linecap="butt" d="M690.5 59.5L690.5 367.5" fill-rule="nonzero"/><path stroke="#333333" stroke-width="1.0" stroke-linecap="butt" d="M111.5 367.5L703.5 367.5" fill-rule="nonzero"/><path stroke="#cccccc" stroke-width="1.0" stroke-linecap="butt" d="M111.5 265.5L703.5 265.5" fill-rule="nonzero"/><path stroke="#cccccc" stroke-width="1.0" stroke-linecap="butt" d="M111.5 162.5L703.5 162.5" fill-rule="nonzero"/><path stroke="#cccccc" stroke-width="1.0" stroke-linecap="butt" d="M111.5 59.5L703.5 59.5" fill-rule="nonzero"/><clipPath id="id_0"><path d="M111.45 59.916668L703.55 59.916668L703.55 367.55L111.45 367.55L111.45 59.916668Z" clip-rule="nonzero"/></clipPath><path stroke="#d9d9d9" stroke-width="2.0" stroke-linecap="butt" clip-path="url(#id_0)" d="M124.81784 334.5102L181.35428 326.2656L237.8907 315.92914L294.42712 303.02902L350.96356 286.90906L407.5 266.7488L464.03644 241.54338L520.5729 210.04173L577.1093 170.66467L633.64575 121.44334L690.1821 59.916668" fill-rule="nonzero"/><path stroke="#999999" stroke-width="2.0" stroke-linecap="butt" clip-path="url(#id_0)" d="M124.81784 174.76645L181.35428 162.4611" fill-rule="nonzero"/><path fill="#d9d9d9" clip-path="url(#id_0)" d="M132.81784 334.5102C132.81784 338.92847 129.23611 342.5102 124.81784 342.5102C120.39957 342.5102 116.81784 338.92847 116.81784 334.5102C116.81784 330.0919 120.39957 326.5102 124.81784 326.5102C129.23611 326.5102 132.81784 330.0919 132.81784 334.5102Z" fill-rule="nonzero"/><path fill="#d9d9d9" clip-path="url(#id_0)" d="M189.35428 326.2656C189.35428 330.6839 185.77255 334.2656 181.35428 334.2656C176.936 334.2656 173.35428 330.6839 173.35428 326.2656C173.35428 321.84732 176.936 318.2656 181.35428 318.2656C185.77255 318.2656 189.35428 321.84732 189.35428 326.2656Z" fill-rule="nonzero"/><path fill="#d9d9d9" clip-path="url(#id_0)" d="M245.8907 315.92914C245.8907 320.3474 242.30899 323.92914 237.8907 323.92914C233.47243 323.92914 229.8907 320.3474 229.8907 315.92914C229.8907 311.51083 233.47243 307.92914 237.8907 307.92914C242.30899 307.92914 245.8907 311.51083 245.8907 315.92914Z" fill-rule="nonzero"/><path fill="#d9d9d9" clip-path="url(#id_0)" d="M302.42712 303.02902C302.42712 307.44733 298.84543 311.02902 294.42712 311.02902C290.00885 311.02902 286.42712 307.44733 286.42712 303.02902C286.42712 298.61075 290.00885 295.02902 294.42712 295.02902C298.84543 295.02902 302.42712 298.61075 302.42712 303.02902Z" fill-rule="nonzero"/><path fill="#d9d9d9" clip-path="url(#id_0)" d="M358.96356 286.90906C358.96356 291.32733 355.38184 294.90906 350.96356 294.90906C346.5453 294.90906 342.96356 291.32733 342.96356 286.90906C342.96356 282.49078 346.5453 278.90906 350.96356 278.90906C355.38184 278.90906 358.96356 282.49078 358.96356 286.90906Z" fill-rule="nonzero"/><path fill="#d9d9d9" clip-path="url(#id_0)" d="M415.5 266.7488C415.5 271.16708 411.91827 274.7488 407.5 274.7488C403.08173 274.7488 399.5 271.16708 399.5 266.7488C399.5 262.33054 403.08173 258.7488 407.5 258.7488C411.91827 258.7488 415.5 262.33054 415.5 266.7488Z" fill-rule="nonzero"/><path fill="#d9d9d9" clip-path="url(#id_0)" d="M472.03644 241.54338C472.03644 245.96167 468.4547 249.54338 464.03644 249.54338C459.61816 249.54338 456.03644 245.96167 456.03644 241.54338C456.03644 237.1251 459.61816 233.54338 464.03644 233.54338C468.4547 233.54338 472.03644 237.1251 472.03644 241.54338Z" fill-rule="nonzero"/><path fill="#d9d9d9" clip-path="url(#id_0)" d="M528.5729 210.04173C528.5729 214.46 524.99115 218.04173 520.5729 218.04173C516.1546 218.04173 512.5729 214.46 512.5729 210.04173C512.5729 205.62346 516.1546 202.04173 520.5729 202.04173C524.99115 202.04173 528.5729 205.62346 528.5729 210.04173Z" fill-rule="nonzero"/><path fill="#d9d9d9" clip-path="url(#id_0)" d="M585.1093 170.66467C585.1093 175.08295 581.5276 178.66467 577.1093 178.66467C572.69104 178.66467 569.1093 175.08295 569.1093 170.66467C569.1093 166.24638 572.69104 162.66467 577.1093 162.66467C581.5276 162.66467 585.1093 166.24638 585.1093 170.66467Z" fill-rule="nonzero"/><path fill="#d9d9d9" clip-path="url(#id_0)" d="M641.64575 121.44334C641.64575 125.86161 638.064 129.44333 633.64575 129.44333C629.2274 129.44333 625.64575 125.86161 625.64575 121.44334C625.64575 117.025055 629.2274 113.44334 633.64575 113.44334C638.064 113.44334 641.64575 117.025055 641.64575 121.44334Z" fill-rule="nonzero"/><path fill="#d9d9d9" clip-path="url(#id_0)" d="M698.1821 59.916668C698.1821 64.334946 694.60046 67.916664 690.1821 67.916664C685.76385 67.916664 682.1821 64.334946 682.1821 59.916668C682.1821 55.49839 685.76385 51.916668 690.1821 51.916668C694.60046 51.916668 698.1821 55.49839 698.1821 59.916668Z" fill-rule="nonzero"/><path fill="#999999" clip-path="url(#id_0)" d="M132.81784 174.76645C132.81784 179.18472 129.23611 182.76645 124.81784 182.76645C120.39957 182.76645 116.81784 179.18472 116.81784 174.76645C116.81784 170.34816 120.39957 166.76645 124.81784 166.76645C129.23611 166.76645 132.81784 170.34816 132.81784 174.76645Z" fill-rule="nonzero"/><path fill="#999999" clip-path="url(#id_0)" d="M189.35428 162.4611C189.35428 166.8794 185.77255 170.4611 181.35428 170.4611C176.936 170.4611 173.35428 166.8794 173.35428 162.4611C173.35428 158.04283 176.936 154.4611 181.35428 154.4611C185.77255 154.4611 189.35428 158.04283 189.35428 162.4611Z" fill-rule="nonzero"/><path fill="#000000" d="M356.84375 422.55L350.32812 422.55L350.32812 421.64374L353.76562 417.8156Q354.53125 416.9406 354.82812 416.40936Q355.125 415.8625 355.125 415.26874Q355.125 414.5031 354.64062 414.0031Q354.17188 413.5031 353.39062 413.5031Q352.45312 413.5031 351.92188 414.03436Q351.40625 414.5656 351.40625 415.53436L350.14062 415.53436Q350.14062 414.15936 351.01562 413.3156Q351.90625 412.45624 353.39062 412.45624Q354.78125 412.45624 355.57812 413.1906Q356.39062 413.90936 356.39062 415.1281Q356.39062 416.59686 354.51562 418.6281L351.85938 421.51874L356.84375 421.51874L356.84375 422.55ZM364.5625 418.3Q364.5625 420.51874 363.79688 421.6125Q363.04688 422.6906 361.4375 422.6906Q359.84375 422.6906 359.07812 421.64374Q358.3125 420.58124 358.28125 418.47186L358.28125 416.78436Q358.28125 414.59686 359.03125 413.53436Q359.79688 412.45624 361.42188 412.45624Q363.03125 412.45624 363.78125 413.4875Q364.54688 414.51874 364.5625 416.65936L364.5625 418.3ZM363.29688 416.58124Q363.29688 414.97186 362.84375 414.2375Q362.40625 413.5031 361.42188 413.5031Q360.45312 413.5031 360.0 414.2375Q359.5625 414.95624 359.54688 416.47186L359.54688 418.5031Q359.54688 420.1125 360.01562 420.89374Q360.48438 421.65936 361.4375 421.65936Q362.375 421.65936 362.82812 420.9406Q363.28125 420.20624 363.29688 418.64374L363.29688 416.58124ZM366.21875 414.5031Q366.21875 413.6125 366.78125 413.03436Q367.35938 412.45624 368.25 412.45624Q369.17188 412.45624 369.73438 413.05Q370.29688 413.6281 370.29688 414.55L370.29688 415.03436Q370.29688 415.9406 369.71875 416.51874Q369.15625 417.08124 368.26562 417.08124Q367.375 417.08124 366.79688 416.51874Q366.21875 415.9406 366.21875 414.9875L366.21875 414.5031ZM367.15625 415.03436Q367.15625 415.5656 367.45312 415.90936Q367.76562 416.2531 368.26562 416.2531Q368.75 416.2531 369.04688 415.925Q369.34375 415.59686 369.34375 415.0031L369.34375 414.5031Q369.34375 413.97186 369.04688 413.6281Q368.76562 413.28436 368.25 413.28436Q367.75 413.28436 367.45312 413.6281Q367.15625 413.97186 367.15625 414.53436L367.15625 415.03436ZM371.0625 420.1125Q371.0625 419.20624 371.625 418.64374Q372.20312 418.0656 373.09375 418.0656Q374.0 418.0656 374.5625 418.64374Q375.14062 419.20624 375.14062 420.15936L375.14062 420.64374Q375.14062 421.53436 374.5625 422.1125Q374.0 422.6906 373.10938 422.6906Q372.23438 422.6906 371.64062 422.1281Q371.0625 421.55 371.0625 420.59686L371.0625 420.1125ZM372.01562 420.64374Q372.01562 421.175 372.3125 421.53436Q372.60938 421.8781 373.10938 421.8781Q373.60938 421.8781 373.90625 421.53436Q374.20312 421.1906 374.20312 420.6125L374.20312 420.1125Q374.20312 419.5656 373.89062 419.22186Q373.59375 418.8781 373.10938 418.8781Q372.60938 418.8781 372.3125 419.22186Q372.01562 419.5656 372.01562 420.14374L372.01562 420.64374ZM368.5625 421.8L367.84375 421.34686L372.70312 413.5656L373.42188 414.01874L368.5625 421.8ZM379.65625 422.55L379.65625 412.59686L382.46875 412.59686Q383.76562 412.59686 384.76562 413.175Q385.76562 413.7375 386.29688 414.8Q386.84375 415.8625 386.85938 417.2375L386.85938 417.8781Q386.85938 419.28436 386.3125 420.34686Q385.76562 421.39374 384.75 421.97186Q383.75 422.53436 382.40625 422.55L379.65625 422.55ZM380.96875 413.675L380.96875 421.47186L382.34375 421.47186Q383.85938 421.47186 384.70312 420.53436Q385.5625 419.59686 385.5625 417.84686L385.5625 417.26874Q385.5625 415.5656 384.76562 414.6281Q383.96875 413.6906 382.5 413.675L380.96875 413.675ZM389.82812 422.55L388.5625 422.55L388.5625 415.15936L389.82812 415.15936L389.82812 422.55ZM388.46875 413.1906Q388.46875 412.8781 388.65625 412.675Q388.84375 412.45624 389.20312 412.45624Q389.57812 412.45624 389.76562 412.675Q389.96875 412.8781 389.96875 413.1906Q389.96875 413.5031 389.76562 413.70624Q389.57812 413.90936 389.20312 413.90936Q388.84375 413.90936 388.65625 413.70624Q388.46875 413.5031 388.46875 413.1906ZM395.76562 420.58124Q395.76562 420.08124 395.375 419.8Q394.98438 419.5031 394.03125 419.3Q393.07812 419.09686 392.5 418.8156Q391.9375 418.51874 391.67188 418.1281Q391.40625 417.7375 391.40625 417.1906Q391.40625 416.26874 392.17188 415.64374Q392.9375 415.01874 394.14062 415.01874Q395.39062 415.01874 396.17188 415.675Q396.95312 416.3156 396.95312 417.33124L395.6875 417.33124Q395.6875 416.8 395.25 416.425Q394.8125 416.05 394.14062 416.05Q393.45312 416.05 393.0625 416.3625Q392.67188 416.65936 392.67188 417.14374Q392.67188 417.59686 393.03125 417.83124Q393.39062 418.0656 394.32812 418.28436Q395.28125 418.4875 395.875 418.78436Q396.46875 419.08124 396.75 419.5031Q397.03125 419.90936 397.03125 420.5031Q397.03125 421.4875 396.23438 422.09686Q395.4375 422.6906 394.17188 422.6906Q393.29688 422.6906 392.60938 422.3781Q391.92188 422.05 391.53125 421.4875Q391.15625 420.925 391.15625 420.26874L392.42188 420.26874Q392.45312 420.90936 392.92188 421.28436Q393.40625 421.65936 394.17188 421.65936Q394.89062 421.65936 395.32812 421.3625Q395.76562 421.0656 395.76562 420.58124ZM401.42188 421.65936Q402.09375 421.65936 402.59375 421.2531Q403.10938 420.83124 403.17188 420.22186L404.35938 420.22186Q404.32812 420.84686 403.92188 421.425Q403.51562 422.0031 402.84375 422.34686Q402.17188 422.6906 401.42188 422.6906Q399.90625 422.6906 399.01562 421.6906Q398.125 420.675 398.125 418.925L398.125 418.70624Q398.125 417.6281 398.51562 416.78436Q398.92188 415.9406 399.65625 415.4875Q400.40625 415.01874 401.42188 415.01874Q402.65625 415.01874 403.48438 415.76874Q404.3125 416.5031 404.35938 417.6906L403.17188 417.6906Q403.10938 416.97186 402.625 416.51874Q402.14062 416.05 401.42188 416.05Q400.45312 416.05 399.92188 416.7531Q399.39062 417.4406 399.39062 418.7531L399.39062 418.9875Q399.39062 420.26874 399.92188 420.97186Q400.45312 421.65936 401.42188 421.65936ZM405.125 418.78436Q405.125 417.6906 405.54688 416.83124Q405.98438 415.95624 406.73438 415.4875Q407.5 415.01874 408.48438 415.01874Q409.98438 415.01874 410.92188 416.0656Q411.85938 417.1125 411.85938 418.84686L411.85938 418.9406Q411.85938 420.01874 411.4375 420.8781Q411.03125 421.72186 410.25 422.20624Q409.48438 422.6906 408.5 422.6906Q406.98438 422.6906 406.04688 421.64374Q405.125 420.59686 405.125 418.8781L405.125 418.78436ZM406.39062 418.9406Q406.39062 420.15936 406.95312 420.90936Q407.53125 421.65936 408.5 421.65936Q409.45312 421.65936 410.01562 420.90936Q410.59375 420.14374 410.59375 418.78436Q410.59375 417.5656 410.01562 416.8156Q409.4375 416.05 408.48438 416.05Q407.54688 416.05 406.96875 416.8Q406.39062 417.55 406.39062 418.9406ZM418.03125 421.8156Q417.28125 422.6906 415.85938 422.6906Q414.67188 422.6906 414.04688 422.0031Q413.4375 421.3156 413.4375 419.97186L413.4375 415.15936L414.6875 415.15936L414.6875 419.925Q414.6875 421.6125 416.0625 421.6125Q417.51562 421.6125 417.98438 420.53436L417.98438 415.15936L419.25 415.15936L419.25 422.55L418.04688 422.55L418.03125 421.8156ZM422.65625 415.15936L422.6875 416.08124Q423.54688 415.01874 424.90625 415.01874Q427.25 415.01874 427.28125 417.65936L427.28125 422.55L426.01562 422.55L426.01562 417.65936Q426.0 416.8625 425.64062 416.4875Q425.28125 416.09686 424.53125 416.09686Q423.90625 416.09686 423.4375 416.425Q422.98438 416.7531 422.71875 417.28436L422.71875 422.55L421.45312 422.55L421.45312 415.15936L422.65625 415.15936ZM431.17188 413.3625L431.17188 415.15936L432.54688 415.15936L432.54688 416.1281L431.17188 416.1281L431.17188 420.72186Q431.17188 421.15936 431.35938 421.39374Q431.54688 421.6125 431.98438 421.6125Q432.20312 421.6125 432.59375 421.51874L432.59375 422.55Q432.09375 422.6906 431.625 422.6906Q430.76562 422.6906 430.32812 422.175Q429.90625 421.65936 429.90625 420.72186L429.90625 416.1281L428.5625 416.1281L428.5625 415.15936L429.90625 415.15936L429.90625 413.3625L431.17188 413.3625ZM441.3125 418.51874L438.96875 418.51874L438.96875 422.55L437.65625 422.55L437.65625 412.59686L440.9375 412.59686Q442.625 412.59686 443.53125 413.3625Q444.4375 414.1281 444.4375 415.59686Q444.4375 416.51874 443.9375 417.20624Q443.4375 417.89374 442.53125 418.2375L444.875 422.47186L444.875 422.55L443.46875 422.55L441.3125 418.51874ZM438.96875 417.45624L440.98438 417.45624Q441.96875 417.45624 442.54688 416.95624Q443.125 416.4406 443.125 415.59686Q443.125 414.675 442.5625 414.1906Q442.01562 413.6906 440.98438 413.675L438.96875 413.675L438.96875 417.45624ZM451.03125 422.55Q450.92188 422.33124 450.84375 421.76874Q449.96875 422.6906 448.73438 422.6906Q447.64062 422.6906 446.9375 422.08124Q446.25 421.45624 446.25 420.5031Q446.25 419.34686 447.125 418.70624Q448.0 418.0656 449.59375 418.0656L450.82812 418.0656L450.82812 417.4875Q450.82812 416.8156 450.42188 416.425Q450.03125 416.03436 449.26562 416.03436Q448.57812 416.03436 448.125 416.3781Q447.67188 416.72186 447.67188 417.20624L446.39062 417.20624Q446.39062 416.64374 446.78125 416.1281Q447.1875 415.6125 447.85938 415.3156Q448.53125 415.01874 449.32812 415.01874Q450.60938 415.01874 451.32812 415.65936Q452.0625 416.3 452.09375 417.40936L452.09375 420.8156Q452.09375 421.83124 452.34375 422.4406L452.34375 422.55L451.03125 422.55ZM448.92188 421.58124Q449.51562 421.58124 450.04688 421.28436Q450.59375 420.97186 450.82812 420.47186L450.82812 418.95624L449.82812 418.95624Q447.51562 418.95624 447.51562 420.3156Q447.51562 420.90936 447.90625 421.2531Q448.29688 421.58124 448.92188 421.58124ZM456.17188 413.3625L456.17188 415.15936L457.54688 415.15936L457.54688 416.1281L456.17188 416.1281L456.17188 420.72186Q456.17188 421.15936 456.35938 421.39374Q456.54688 421.6125 456.98438 421.6125Q457.20312 421.6125 457.59375 421.51874L457.59375 422.55Q457.09375 422.6906 456.625 422.6906Q455.76562 422.6906 455.32812 422.175Q454.90625 421.65936 454.90625 420.72186L454.90625 416.1281L453.5625 416.1281L453.5625 415.15936L454.90625 415.15936L454.90625 413.3625L456.17188 413.3625ZM462.53125 422.6906Q461.01562 422.6906 460.07812 421.70624Q459.14062 420.70624 459.14062 419.05L459.14062 418.83124Q459.14062 417.72186 459.5625 416.8625Q459.98438 415.9875 460.73438 415.5031Q461.48438 415.01874 462.375 415.01874Q463.8125 415.01874 464.60938 415.97186Q465.40625 416.90936 465.40625 418.6906L465.40625 419.20624L460.40625 419.20624Q460.42188 420.3 461.03125 420.9875Q461.65625 421.65936 462.59375 421.65936Q463.26562 421.65936 463.71875 421.39374Q464.1875 421.1125 464.54688 420.65936L465.3125 421.2531Q464.39062 422.6906 462.53125 422.6906ZM462.375 416.05Q461.60938 416.05 461.07812 416.6125Q460.5625 417.175 460.4375 418.175L464.14062 418.175L464.14062 418.08124Q464.09375 417.1125 463.625 416.58124Q463.15625 416.05 462.375 416.05Z" fill-rule="nonzero"/><path fill="#000000" d="M35.44999 267.17084L35.44999 268.49896L27.778112 273.5146L35.44999 273.5146L35.44999 274.8271L25.496862 274.8271L25.496862 273.5146L33.19999 268.48334L25.496862 268.48334L25.496862 267.17084L35.44999 267.17084ZM35.590614 261.9521Q35.590614 263.4677 34.60624 264.4052Q33.60624 265.3427 31.949987 265.3427L31.731237 265.3427Q30.621862 265.3427 29.762487 264.92084Q28.887487 264.49896 28.403112 263.74896Q27.918737 262.99896 27.918737 262.10834Q27.918737 260.67084 28.871862 259.87396Q29.809362 259.0771 31.590612 259.0771L32.10624 259.0771L32.10624 264.0771Q33.19999 264.06146 33.88749 263.4521Q34.559364 262.8271 34.559364 261.8896Q34.559364 261.2177 34.29374 260.7646Q34.01249 260.29584 33.559364 259.93646L34.153114 259.17084Q35.590614 260.0927 35.590614 261.9521ZM28.949987 262.10834Q28.949987 262.87396 29.512487 263.4052Q30.074987 263.92084 31.074987 264.04584L31.074987 260.3427L30.981237 260.3427Q30.012487 260.3896 29.481237 260.85834Q28.949987 261.3271 28.949987 262.10834ZM26.262487 256.31146L28.059362 256.31146L28.059362 254.93646L29.028112 254.93646L29.028112 256.31146L33.621864 256.31146Q34.059364 256.31146 34.29374 256.12396Q34.51249 255.93646 34.51249 255.49896Q34.51249 255.28021 34.41874 254.88959L35.44999 254.88959Q35.590614 255.38959 35.590614 255.85834Q35.590614 256.7177 35.07499 257.1552Q34.559364 257.5771 33.621864 257.5771L29.028112 257.5771L29.028112 258.92084L28.059362 258.92084L28.059362 257.5771L26.262487 257.5771L26.262487 256.31146ZM31.559362 248.51459L35.44999 248.51459L35.44999 249.82709L25.496862 249.82709L25.496862 246.15521Q25.496862 244.53021 26.340612 243.60834Q27.168737 242.67084 28.543737 242.67084Q29.981237 242.67084 30.778112 243.57709Q31.559362 244.48334 31.559362 246.17084L31.559362 248.51459ZM30.481237 248.51459L30.481237 246.15521Q30.481237 245.10834 29.981237 244.54584Q29.481237 243.98334 28.559362 243.98334Q27.668737 243.98334 27.137487 244.54584Q26.590612 245.10834 26.574987 246.07709L26.574987 248.51459L30.481237 248.51459ZM29.184362 237.45209Q29.137487 237.73334 29.137487 238.07709Q29.137487 239.31146 30.199987 239.76459L35.44999 239.76459L35.44999 241.03021L28.059362 241.03021L28.059362 239.79584L28.903112 239.78021Q27.918737 239.15521 27.918737 238.01459Q27.918737 237.63959 28.012487 237.45209L29.184362 237.45209ZM35.590614 232.95209Q35.590614 234.46771 34.60624 235.40521Q33.60624 236.34271 31.949987 236.34271L31.731237 236.34271Q30.621862 236.34271 29.762487 235.92084Q28.887487 235.49896 28.403112 234.74896Q27.918737 233.99896 27.918737 233.10834Q27.918737 231.67084 28.871862 230.87396Q29.809362 230.07709 31.590612 230.07709L32.10624 230.07709L32.10624 235.07709Q33.19999 235.06146 33.88749 234.45209Q34.559364 233.82709 34.559364 232.88959Q34.559364 232.21771 34.29374 231.76459Q34.01249 231.29584 33.559364 230.93646L34.153114 230.17084Q35.590614 231.09271 35.590614 232.95209ZM28.949987 233.10834Q28.949987 233.87396 29.512487 234.40521Q30.074987 234.92084 31.074987 235.04584L31.074987 231.34271L30.981237 231.34271Q30.012487 231.38959 29.481237 231.85834Q28.949987 232.32709 28.949987 233.10834ZM33.48124 224.71771Q32.98124 224.71771 32.69999 225.10834Q32.403114 225.49896 32.19999 226.45209Q31.996862 227.40521 31.715612 227.98334Q31.418737 228.54584 31.028112 228.81146Q30.637487 229.07709 30.090612 229.07709Q29.168737 229.07709 28.543737 228.31146Q27.918737 227.54584 27.918737 226.34271Q27.918737 225.09271 28.574987 224.31146Q29.215612 223.53021 30.231237 223.53021L30.231237 224.79584Q29.699987 224.79584 29.324987 225.23334Q28.949987 225.67084 28.949987 226.34271Q28.949987 227.03021 29.262487 227.42084Q29.559362 227.81146 30.043737 227.81146Q30.496862 227.81146 30.731237 227.45209Q30.965612 227.09271 31.184362 226.15521Q31.387487 225.20209 31.684362 224.60834Q31.981237 224.01459 32.403114 223.73334Q32.809364 223.45209 33.403114 223.45209Q34.38749 223.45209 34.996864 224.24896Q35.590614 225.04584 35.590614 226.31146Q35.590614 227.18646 35.278114 227.87396Q34.94999 228.56146 34.38749 228.95209Q33.82499 229.32709 33.16874 229.32709L33.16874 228.06146Q33.809364 228.03021 34.184364 227.56146Q34.559364 227.07709 34.559364 226.31146Q34.559364 225.59271 34.26249 225.15521Q33.965614 224.71771 33.48124 224.71771ZM35.590614 218.95209Q35.590614 220.46771 34.60624 221.40521Q33.60624 222.34271 31.949987 222.34271L31.731237 222.34271Q30.621862 222.34271 29.762487 221.92084Q28.887487 221.49896 28.403112 220.74896Q27.918737 219.99896 27.918737 219.10834Q27.918737 217.67084 28.871862 216.87396Q29.809362 216.07709 31.590612 216.07709L32.10624 216.07709L32.10624 221.07709Q33.19999 221.06146 33.88749 220.45209Q34.559364 219.82709 34.559364 218.88959Q34.559364 218.21771 34.29374 217.76459Q34.01249 217.29584 33.559364 216.93646L34.153114 216.17084Q35.590614 217.09271 35.590614 218.95209ZM28.949987 219.10834Q28.949987 219.87396 29.512487 220.40521Q30.074987 220.92084 31.074987 221.04584L31.074987 217.34271L30.981237 217.34271Q30.012487 217.38959 29.481237 217.85834Q28.949987 218.32709 28.949987 219.10834ZM28.059362 213.82709L28.981237 213.79584Q27.918737 212.93646 27.918737 211.57709Q27.918737 209.23334 30.559362 209.20209L35.44999 209.20209L35.44999 210.46771L30.559362 210.46771Q29.762487 210.48334 29.387487 210.84271Q28.996862 211.20209 28.996862 211.95209Q28.996862 212.57709 29.324987 213.04584Q29.653112 213.49896 30.184362 213.76459L35.44999 213.76459L35.44999 215.03021L28.059362 215.03021L28.059362 213.82709ZM26.262487 205.31146L28.059362 205.31146L28.059362 203.93646L29.028112 203.93646L29.028112 205.31146L33.621864 205.31146Q34.059364 205.31146 34.29374 205.12396Q34.51249 204.93646 34.51249 204.49896Q34.51249 204.28021 34.41874 203.88959L35.44999 203.88959Q35.590614 204.38959 35.590614 204.85834Q35.590614 205.71771 35.07499 206.15521Q34.559364 206.57709 33.621864 206.57709L29.028112 206.57709L29.028112 207.92084L28.059362 207.92084L28.059362 206.57709L26.262487 206.57709L26.262487 205.31146ZM33.69999 195.53021L25.496862 192.68646L25.496862 191.24896L35.44999 194.95209L35.44999 196.10834L25.496862 199.79584L25.496862 198.35834L33.69999 195.53021ZM35.44999 185.45209Q35.23124 185.56146 34.66874 185.63959Q35.590614 186.51459 35.590614 187.74896Q35.590614 188.84271 34.98124 189.54584Q34.35624 190.23334 33.403114 190.23334Q32.246864 190.23334 31.606237 189.35834Q30.965612 188.48334 30.965612 186.88959L30.965612 185.65521L30.387487 185.65521Q29.715612 185.65521 29.324987 186.06146Q28.934362 186.45209 28.934362 187.21771Q28.934362 187.90521 29.278112 188.35834Q29.621862 188.81146 30.106237 188.81146L30.106237 190.09271Q29.543737 190.09271 29.028112 189.70209Q28.512487 189.29584 28.215612 188.62396Q27.918737 187.95209 27.918737 187.15521Q27.918737 185.87396 28.559362 185.15521Q29.199987 184.42084 30.309362 184.38959L33.715614 184.38959Q34.73124 184.38959 35.340614 184.13959L35.44999 184.13959L35.44999 185.45209ZM34.48124 187.56146Q34.48124 186.96771 34.184364 186.43646Q33.871864 185.88959 33.371864 185.65521L31.856237 185.65521L31.856237 186.65521Q31.856237 188.96771 33.215614 188.96771Q33.809364 188.96771 34.153114 188.57709Q34.48124 188.18646 34.48124 187.56146ZM35.44999 180.65521L35.44999 181.92084L24.949987 181.92084L24.949987 180.65521L35.44999 180.65521ZM34.715614 174.45209Q35.590614 175.20209 35.590614 176.62396Q35.590614 177.81146 34.903114 178.43646Q34.215614 179.04584 32.871864 179.04584L28.059362 179.04584L28.059362 177.79584L32.82499 177.79584Q34.51249 177.79584 34.51249 176.42084Q34.51249 174.96771 33.434364 174.49896L28.059362 174.49896L28.059362 173.23334L35.44999 173.23334L35.44999 174.43646L34.715614 174.45209ZM35.590614 167.95209Q35.590614 169.46771 34.60624 170.40521Q33.60624 171.34271 31.949987 171.34271L31.731237 171.34271Q30.621862 171.34271 29.762487 170.92084Q28.887487 170.49896 28.403112 169.74896Q27.918737 168.99896 27.918737 168.10834Q27.918737 166.67084 28.871862 165.87396Q29.809362 165.07709 31.590612 165.07709L32.10624 165.07709L32.10624 170.07709Q33.19999 170.06146 33.88749 169.45209Q34.559364 168.82709 34.559364 167.88959Q34.559364 167.21771 34.29374 166.76459Q34.01249 166.29584 33.559364 165.93646L34.153114 165.17084Q35.590614 166.09271 35.590614 167.95209ZM28.949987 168.10834Q28.949987 168.87396 29.512487 169.40521Q30.074987 169.92084 31.074987 170.04584L31.074987 166.34271L30.981237 166.34271Q30.012487 166.38959 29.481237 166.85834Q28.949987 167.32709 28.949987 168.10834Z" fill-rule="nonzero"/><path fill="#000000" d="M77.075 368.40936L77.12187 369.6906Q77.12187 370.59686 76.7625 371.1281L81.05937 371.1281L81.05937 372.05L75.0125 372.05L75.0125 371.1281L75.46562 371.1281Q75.7 371.08124 75.84062 370.70624Q75.98125 370.3156 75.99687 369.7531L75.99687 369.70624L75.95 368.40936L74.98125 368.40936L74.98125 367.4875L75.91875 367.4875L75.87187 365.95624Q75.87187 364.8 76.59062 364.09686Q77.30937 363.39374 78.48125 363.39374Q79.59062 363.39374 80.23125 364.01874Q80.8875 364.64374 80.8875 365.675L79.77812 365.675Q79.77812 365.05 79.40312 364.6906Q79.02812 364.33124 78.37187 364.33124Q77.7625 364.33124 77.37187 364.78436Q76.99687 365.22186 76.99687 365.95624L77.05937 367.4875L78.91875 367.4875L78.91875 368.40936L77.075 368.40936ZM87.5125 368.40936Q87.5125 370.3156 86.85625 371.2531Q86.21562 372.175 84.825 372.175Q83.46562 372.175 82.80937 371.26874Q82.15312 370.3625 82.12187 368.55L82.12187 367.1125Q82.12187 365.22186 82.7625 364.3156Q83.41875 363.39374 84.80937 363.39374Q86.18437 363.39374 86.84062 364.28436Q87.49687 365.15936 87.5125 367.0031L87.5125 368.40936ZM86.41875 366.925Q86.41875 365.55 86.02812 364.925Q85.65312 364.28436 84.80937 364.28436Q83.98125 364.28436 83.59062 364.925Q83.21562 365.55 83.21562 366.84686L83.21562 368.58124Q83.21562 369.95624 83.60625 370.6281Q84.0125 371.28436 84.825 371.28436Q85.62187 371.28436 86.0125 370.65936Q86.40312 370.03436 86.41875 368.70624L86.41875 366.925ZM89.29375 371.4875Q89.29375 371.20624 89.45 371.01874Q89.62187 370.83124 89.95 370.83124Q90.29375 370.83124 90.46562 371.01874Q90.6375 371.20624 90.6375 371.4875Q90.6375 371.7531 90.46562 371.9406Q90.29375 372.1125 89.95 372.1125Q89.62187 372.1125 89.45 371.9406Q89.29375 371.7531 89.29375 371.4875ZM97.5125 368.40936Q97.5125 370.3156 96.85625 371.2531Q96.21562 372.175 94.825 372.175Q93.46562 372.175 92.80937 371.26874Q92.15312 370.3625 92.12187 368.55L92.12187 367.1125Q92.12187 365.22186 92.7625 364.3156Q93.41875 363.39374 94.80937 363.39374Q96.18437 363.39374 96.84062 364.28436Q97.49687 365.15936 97.5125 367.0031L97.5125 368.40936ZM96.41875 366.925Q96.41875 365.55 96.02812 364.925Q95.65312 364.28436 94.80937 364.28436Q93.98125 364.28436 93.59062 364.925Q93.21562 365.55 93.21562 366.84686L93.21562 368.58124Q93.21562 369.95624 93.60625 370.6281Q94.0125 371.28436 94.825 371.28436Q95.62187 371.28436 96.0125 370.65936Q96.40312 370.03436 96.41875 368.70624L96.41875 366.925ZM104.5125 368.40936Q104.5125 370.3156 103.85625 371.2531Q103.21562 372.175 101.825 372.175Q100.46562 372.175 99.80937 371.26874Q99.15312 370.3625 99.12187 368.55L99.12187 367.1125Q99.12187 365.22186 99.7625 364.3156Q100.41875 363.39374 101.80937 363.39374Q103.18437 363.39374 103.84062 364.28436Q104.49687 365.15936 104.5125 367.0031L104.5125 368.40936ZM103.41875 366.925Q103.41875 365.55 103.02812 364.925Q102.65312 364.28436 101.80937 364.28436Q100.98125 364.28436 100.59062 364.925Q100.21562 365.55 100.21562 366.84686L100.21562 368.58124Q100.21562 369.95624 100.60625 370.6281Q101.0125 371.28436 101.825 371.28436Q102.62187 371.28436 103.0125 370.65936Q103.40312 370.03436 103.41875 368.70624L103.41875 366.925Z" fill-rule="nonzero"/><path fill="#000000" d="M70.075 265.86493L70.12187 267.14618Q70.12187 268.05243 69.7625 268.58368L74.05937 268.58368L74.05937 269.50555L68.0125 269.50555L68.0125 268.58368L68.46562 268.58368Q68.7 268.5368 68.84062 268.1618Q68.98125 267.77118 68.99687 267.20868L68.99687 267.1618L68.95 265.86493L67.98125 265.86493L67.98125 264.94305L68.91875 264.94305L68.87187 263.4118Q68.87187 262.25555 69.59062 261.55243Q70.30937 260.8493 71.48125 260.8493Q72.59062 260.8493 73.23125 261.4743Q73.8875 262.0993 73.8875 263.13055L72.77812 263.13055Q72.77812 262.50555 72.40312 262.14618Q72.02812 261.7868 71.37187 261.7868Q70.7625 261.7868 70.37187 262.23993Q69.99687 262.67743 69.99687 263.4118L70.05937 264.94305L71.91875 264.94305L71.91875 265.86493L70.075 265.86493ZM75.65312 265.2243L76.09062 260.9743L80.46562 260.9743L80.46562 261.9743L77.0125 261.9743L76.74687 264.30243Q77.3875 263.92743 78.18437 263.92743Q79.34062 263.92743 80.02812 264.70868Q80.71562 265.4743 80.71562 266.7868Q80.71562 268.0993 79.99687 268.86493Q79.29375 269.63055 78.0125 269.63055Q76.8875 269.63055 76.16875 269.00555Q75.45 268.36493 75.35625 267.25555L76.37187 267.25555Q76.48125 267.98993 76.90312 268.36493Q77.325 268.73993 78.0125 268.73993Q78.7625 268.73993 79.2 268.2243Q79.6375 267.70868 79.6375 266.80243Q79.6375 265.94305 79.16875 265.42743Q78.7 264.9118 77.91875 264.9118Q77.21562 264.9118 76.80937 265.20868L76.52812 265.44305L75.65312 265.2243ZM87.5125 265.86493Q87.5125 267.77118 86.85625 268.70868Q86.21562 269.63055 84.825 269.63055Q83.46562 269.63055 82.80937 268.7243Q82.15312 267.81805 82.12187 266.00555L82.12187 264.56805Q82.12187 262.67743 82.7625 261.77118Q83.41875 260.8493 84.80937 260.8493Q86.18437 260.8493 86.84062 261.73993Q87.49687 262.61493 87.5125 264.45868L87.5125 265.86493ZM86.41875 264.38055Q86.41875 263.00555 86.02812 262.38055Q85.65312 261.73993 84.80937 261.73993Q83.98125 261.73993 83.59062 262.38055Q83.21562 263.00555 83.21562 264.30243L83.21562 266.0368Q83.21562 267.4118 83.60625 268.08368Q84.0125 268.73993 84.825 268.73993Q85.62187 268.73993 86.0125 268.11493Q86.40312 267.48993 86.41875 266.1618L86.41875 264.38055ZM89.29375 268.94305Q89.29375 268.6618 89.45 268.4743Q89.62187 268.2868 89.95 268.2868Q90.29375 268.2868 90.46562 268.4743Q90.6375 268.6618 90.6375 268.94305Q90.6375 269.20868 90.46562 269.39618Q90.29375 269.56805 89.95 269.56805Q89.62187 269.56805 89.45 269.39618Q89.29375 269.20868 89.29375 268.94305ZM97.5125 265.86493Q97.5125 267.77118 96.85625 268.70868Q96.21562 269.63055 94.825 269.63055Q93.46562 269.63055 92.80937 268.7243Q92.15312 267.81805 92.12187 266.00555L92.12187 264.56805Q92.12187 262.67743 92.7625 261.77118Q93.41875 260.8493 94.80937 260.8493Q96.18437 260.8493 96.84062 261.73993Q97.49687 262.61493 97.5125 264.45868L97.5125 265.86493ZM96.41875 264.38055Q96.41875 263.00555 96.02812 262.38055Q95.65312 261.73993 94.80937 261.73993Q93.98125 261.73993 93.59062 262.38055Q93.21562 263.00555 93.21562 264.30243L93.21562 266.0368Q93.21562 267.4118 93.60625 268.08368Q94.0125 268.73993 94.825 268.73993Q95.62187 268.73993 96.0125 268.11493Q96.40312 267.48993 96.41875 266.1618L96.41875 264.38055ZM104.5125 265.86493Q104.5125 267.77118 103.85625 268.70868Q103.21562 269.63055 101.825 269.63055Q100.46562 269.63055 99.80937 268.7243Q99.15312 267.81805 99.12187 266.00555L99.12187 264.56805Q99.12187 262.67743 99.7625 261.77118Q100.41875 260.8493 101.80937 260.8493Q103.18437 260.8493 103.84062 261.73993Q104.49687 262.61493 104.5125 264.45868L104.5125 265.86493ZM103.41875 264.38055Q103.41875 263.00555 103.02812 262.38055Q102.65312 261.73993 101.80937 261.73993Q100.98125 261.73993 100.59062 262.38055Q100.21562 263.00555 100.21562 264.30243L100.21562 266.0368Q100.21562 267.4118 100.60625 268.08368Q101.0125 268.73993 101.825 268.73993Q102.62187 268.73993 103.0125 268.11493Q103.40312 267.48993 103.41875 266.1618L103.41875 264.38055Z" fill-rule="nonzero"/><path fill="#000000" d="M63.075 163.32048L63.121876 164.60173Q63.121876 165.50798 62.7625 166.03923L67.05937 166.03923L67.05937 166.9611L61.0125 166.9611L61.0125 166.03923L61.465626 166.03923Q61.7 165.99236 61.840626 165.61736Q61.98125 165.22673 61.996876 164.66423L61.996876 164.61736L61.95 163.32048L60.98125 163.32048L60.98125 162.3986L61.91875 162.3986L61.871876 160.86736Q61.871876 159.7111 62.590626 159.00798Q63.309376 158.30486 64.48125 158.30486Q65.59062 158.30486 66.23125 158.92986Q66.8875 159.55486 66.8875 160.5861L65.77812 160.5861Q65.77812 159.9611 65.40312 159.60173Q65.02812 159.24236 64.37187 159.24236Q63.7625 159.24236 63.371876 159.69548Q62.996876 160.13298 62.996876 160.86736L63.059376 162.3986L64.91875 162.3986L64.91875 163.32048L63.075 163.32048ZM71.71562 166.9611L70.6375 166.9611L70.6375 159.74236L68.45 160.53923L68.45 159.55486L71.55937 158.38298L71.71562 158.38298L71.71562 166.9611ZM80.5125 163.32048Q80.5125 165.22673 79.85625 166.16423Q79.21562 167.0861 77.825 167.0861Q76.46562 167.0861 75.80937 166.17986Q75.15312 165.2736 75.12187 163.4611L75.12187 162.0236Q75.12187 160.13298 75.7625 159.22673Q76.41875 158.30486 77.80937 158.30486Q79.18437 158.30486 79.84062 159.19548Q80.49687 160.07048 80.5125 161.91423L80.5125 163.32048ZM79.41875 161.8361Q79.41875 160.4611 79.02812 159.8361Q78.65312 159.19548 77.80937 159.19548Q76.98125 159.19548 76.59062 159.8361Q76.21562 160.4611 76.21562 161.75798L76.21562 163.49236Q76.21562 164.86736 76.60625 165.53923Q77.0125 166.19548 77.825 166.19548Q78.62187 166.19548 79.0125 165.57048Q79.40312 164.94548 79.41875 163.61736L79.41875 161.8361ZM87.5125 163.32048Q87.5125 165.22673 86.85625 166.16423Q86.21562 167.0861 84.825 167.0861Q83.46562 167.0861 82.80937 166.17986Q82.15312 165.2736 82.12187 163.4611L82.12187 162.0236Q82.12187 160.13298 82.7625 159.22673Q83.41875 158.30486 84.80937 158.30486Q86.18437 158.30486 86.84062 159.19548Q87.49687 160.07048 87.5125 161.91423L87.5125 163.32048ZM86.41875 161.8361Q86.41875 160.4611 86.02812 159.8361Q85.65312 159.19548 84.80937 159.19548Q83.98125 159.19548 83.59062 159.8361Q83.21562 160.4611 83.21562 161.75798L83.21562 163.49236Q83.21562 164.86736 83.60625 165.53923Q84.0125 166.19548 84.825 166.19548Q85.62187 166.19548 86.0125 165.57048Q86.40312 164.94548 86.41875 163.61736L86.41875 161.8361ZM89.29375 166.3986Q89.29375 166.11736 89.45 165.92986Q89.62187 165.74236 89.95 165.74236Q90.29375 165.74236 90.46562 165.92986Q90.6375 166.11736 90.6375 166.3986Q90.6375 166.66423 90.46562 166.85173Q90.29375 167.0236 89.95 167.0236Q89.62187 167.0236 89.45 166.85173Q89.29375 166.66423 89.29375 166.3986ZM97.5125 163.32048Q97.5125 165.22673 96.85625 166.16423Q96.21562 167.0861 94.825 167.0861Q93.46562 167.0861 92.80937 166.17986Q92.15312 165.2736 92.12187 163.4611L92.12187 162.0236Q92.12187 160.13298 92.7625 159.22673Q93.41875 158.30486 94.80937 158.30486Q96.18437 158.30486 96.84062 159.19548Q97.49687 160.07048 97.5125 161.91423L97.5125 163.32048ZM96.41875 161.8361Q96.41875 160.4611 96.02812 159.8361Q95.65312 159.19548 94.80937 159.19548Q93.98125 159.19548 93.59062 159.8361Q93.21562 160.4611 93.21562 161.75798L93.21562 163.49236Q93.21562 164.86736 93.60625 165.53923Q94.0125 166.19548 94.825 166.19548Q95.62187 166.19548 96.0125 165.57048Q96.40312 164.94548 96.41875 163.61736L96.41875 161.8361ZM104.5125 163.32048Q104.5125 165.22673 103.85625 166.16423Q103.21562 167.0861 101.825 167.0861Q100.46562 167.0861 99.80937 166.17986Q99.15312 165.2736 99.12187 163.4611L99.12187 162.0236Q99.12187 160.13298 99.7625 159.22673Q100.41875 158.30486 101.80937 158.30486Q103.18437 158.30486 103.84062 159.19548Q104.49687 160.07048 104.5125 161.91423L104.5125 163.32048ZM103.41875 161.8361Q103.41875 160.4611 103.02812 159.8361Q102.65312 159.19548 101.80937 159.19548Q100.98125 159.19548 100.59062 159.8361Q100.21562 160.4611 100.21562 161.75798L100.21562 163.49236Q100.21562 164.86736 100.60625 165.53923Q101.0125 166.19548 101.825 166.19548Q102.62187 166.19548 103.0125 165.57048Q103.40312 164.94548 103.41875 163.61736L103.41875 161.8361Z" fill-rule="nonzero"/><path fill="#000000" d="M63.075 60.77604L63.121876 62.05729Q63.121876 62.96354 62.7625 63.49479L67.05937 63.49479L67.05937 64.416664L61.0125 64.416664L61.0125 63.49479L61.465626 63.49479Q61.7 63.447914 61.840626 63.072914Q61.98125 62.68229 61.996876 62.11979L61.996876 62.072914L61.95 60.77604L60.98125 60.77604L60.98125 59.854164L61.91875 59.854164L61.871876 58.322914Q61.871876 57.166664 62.590626 56.46354Q63.309376 55.760414 64.48125 55.760414Q65.59062 55.760414 66.23125 56.385414Q66.8875 57.010414 66.8875 58.041664L65.77812 58.041664Q65.77812 57.416664 65.40312 57.05729Q65.02812 56.697914 64.37187 56.697914Q63.7625 56.697914 63.371876 57.15104Q62.996876 57.58854 62.996876 58.322914L63.059376 59.854164L64.91875 59.854164L64.91875 60.77604L63.075 60.77604ZM71.71562 64.416664L70.6375 64.416664L70.6375 57.197914L68.45 57.99479L68.45 57.010414L71.55937 55.83854L71.71562 55.83854L71.71562 64.416664ZM75.65312 60.135414L76.09062 55.885414L80.46562 55.885414L80.46562 56.885414L77.0125 56.885414L76.74687 59.21354Q77.3875 58.83854 78.18437 58.83854Q79.34062 58.83854 80.02812 59.61979Q80.71562 60.385414 80.71562 61.697914Q80.71562 63.010414 79.99687 63.77604Q79.29375 64.541664 78.0125 64.541664Q76.8875 64.541664 76.16875 63.916664Q75.45 63.27604 75.35625 62.166664L76.37187 62.166664Q76.48125 62.90104 76.90312 63.27604Q77.325 63.65104 78.0125 63.65104Q78.7625 63.65104 79.2 63.135414Q79.6375 62.61979 79.6375 61.71354Q79.6375 60.854164 79.16875 60.33854Q78.7 59.822914 77.91875 59.822914Q77.21562 59.822914 76.80937 60.11979L76.52812 60.354164L75.65312 60.135414ZM87.5125 60.77604Q87.5125 62.68229 86.85625 63.61979Q86.21562 64.541664 84.825 64.541664Q83.46562 64.541664 82.80937 63.635414Q82.15312 62.729164 82.12187 60.916664L82.12187 59.479164Q82.12187 57.58854 82.7625 56.68229Q83.41875 55.760414 84.80937 55.760414Q86.18437 55.760414 86.84062 56.65104Q87.49687 57.52604 87.5125 59.36979L87.5125 60.77604ZM86.41875 59.291664Q86.41875 57.916664 86.02812 57.291664Q85.65312 56.65104 84.80937 56.65104Q83.98125 56.65104 83.59062 57.291664Q83.21562 57.916664 83.21562 59.21354L83.21562 60.947914Q83.21562 62.322914 83.60625 62.99479Q84.0125 63.65104 84.825 63.65104Q85.62187 63.65104 86.0125 63.02604Q86.40312 62.40104 86.41875 61.072914L86.41875 59.291664ZM89.29375 63.854164Q89.29375 63.572914 89.45 63.385414Q89.62187 63.197914 89.95 63.197914Q90.29375 63.197914 90.46562 63.385414Q90.6375 63.572914 90.6375 63.854164Q90.6375 64.11979 90.46562 64.30729Q90.29375 64.479164 89.95 64.479164Q89.62187 64.479164 89.45 64.30729Q89.29375 64.11979 89.29375 63.854164ZM97.5125 60.77604Q97.5125 62.68229 96.85625 63.61979Q96.21562 64.541664 94.825 64.541664Q93.46562 64.541664 92.80937 63.635414Q92.15312 62.729164 92.12187 60.916664L92.12187 59.479164Q92.12187 57.58854 92.7625 56.68229Q93.41875 55.760414 94.80937 55.760414Q96.18437 55.760414 96.84062 56.65104Q97.49687 57.52604 97.5125 59.36979L97.5125 60.77604ZM96.41875 59.291664Q96.41875 57.916664 96.02812 57.291664Q95.65312 56.65104 94.80937 56.65104Q93.98125 56.65104 93.59062 57.291664Q93.21562 57.916664 93.21562 59.21354L93.21562 60.947914Q93.21562 62.322914 93.60625 62.99479Q94.0125 63.65104 94.825 63.65104Q95.62187 63.65104 96.0125 63.02604Q96.40312 62.40104 96.41875 61.072914L96.41875 59.291664ZM104.5125 60.77604Q104.5125 62.68229 103.85625 63.61979Q103.21562 64.541664 101.825 64.541664Q100.46562 64.541664 99.80937 63.635414Q99.15312 62.729164 99.12187 60.916664L99.12187 59.479164Q99.12187 57.58854 99.7625 56.68229Q100.41875 55.760414 101.80937 55.760414Q103.18437 55.760414 103.84062 56.65104Q104.49687 57.52604 104.5125 59.36979L104.5125 60.77604ZM103.41875 59.291664Q103.41875 57.916664 103.02812 57.291664Q102.65312 56.65104 101.80937 56.65104Q100.98125 56.65104 100.59062 57.291664Q100.21562 57.916664 100.21562 59.21354L100.21562 60.947914Q100.21562 62.322914 100.60625 62.99479Q101.0125 63.65104 101.825 63.65104Q102.62187 63.65104 103.0125 63.02604Q103.40312 62.40104 103.41875 61.072914L103.41875 59.291664Z" fill-rule="nonzero"/><path fill="#000000" d="M127.38034 381.90936Q127.38034 383.8156 126.72409 384.7531Q126.083466 385.675 124.69284 385.675Q123.333466 385.675 122.677216 384.76874Q122.020966 383.8625 121.989716 382.05L121.989716 380.6125Q121.989716 378.72186 122.63034 377.8156Q123.28659 376.89374 124.677216 376.89374Q126.052216 376.89374 126.708466 377.78436Q127.364716 378.65936 127.38034 380.5031L127.38034 381.90936ZM126.28659 380.425Q126.28659 379.05 125.895966 378.425Q125.520966 377.78436 124.677216 377.78436Q123.84909 377.78436 123.458466 378.425Q123.083466 379.05 123.083466 380.34686L123.083466 382.08124Q123.083466 383.45624 123.47409 384.1281Q123.88034 384.78436 124.69284 384.78436Q125.489716 384.78436 125.88034 384.15936Q126.270966 383.53436 126.28659 382.20624L126.28659 380.425Z" fill-rule="nonzero"/><path fill="#000000" d="M240.68758 385.55L235.09383 385.55L235.09383 384.76874L238.04695 381.4875Q238.7032 380.7375 238.9532 380.28436Q239.2032 379.8156 239.2032 379.3156Q239.2032 378.64374 238.79695 378.22186Q238.40633 377.78436 237.71883 377.78436Q236.92195 377.78436 236.46883 378.2531Q236.0157 378.70624 236.0157 379.53436L234.93758 379.53436Q234.93758 378.34686 235.68758 377.6281Q236.4532 376.89374 237.71883 376.89374Q238.92195 376.89374 239.60945 377.51874Q240.29695 378.14374 240.29695 379.1906Q240.29695 380.4406 238.68758 382.1906L236.40633 384.65936L240.68758 384.65936L240.68758 385.55Z" fill-rule="nonzero"/><path fill="#000000" d="M352.7448 382.6906L353.9323 382.6906L353.9323 383.5656L352.7448 383.5656L352.7448 385.55L351.6667 385.55L351.6667 383.5656L347.77606 383.5656L347.77606 382.925L351.58856 377.01874L352.7448 377.01874L352.7448 382.6906ZM349.01044 382.6906L351.6667 382.6906L351.6667 378.5031L351.52606 378.7375L349.01044 382.6906Z" fill-rule="nonzero"/><path fill="#000000" d="M465.5052 377.01874L465.5052 377.925L465.30206 377.925Q464.03644 377.95624 463.28644 378.6906Q462.53644 379.40936 462.41144 380.72186Q463.09894 379.95624 464.2552 379.95624Q465.36456 379.95624 466.03644 380.7375Q466.7083 381.51874 466.7083 382.76874Q466.7083 384.08124 465.98956 384.8781Q465.2708 385.675 464.05206 385.675Q462.8333 385.675 462.0677 384.7375Q461.3177 383.78436 461.3177 382.3L461.3177 381.89374Q461.3177 379.53436 462.3177 378.28436Q463.3177 377.03436 465.30206 377.01874L465.5052 377.01874ZM464.0833 380.8625Q463.5208 380.8625 463.05206 381.1906Q462.5833 381.51874 462.3958 382.03436L462.3958 382.425Q462.3958 383.4875 462.86456 384.1281Q463.34894 384.76874 464.05206 384.76874Q464.78644 384.76874 465.2083 384.2375Q465.6302 383.6906 465.6302 382.8156Q465.6302 381.9406 465.2083 381.40936Q464.78644 380.8625 464.0833 380.8625Z" fill-rule="nonzero"/><path fill="#000000" d="M579.49994 379.2375Q579.49994 379.8781 579.1562 380.3781Q578.81244 380.8781 578.24994 381.15936Q578.9062 381.4406 579.2968 382.0031Q579.68744 382.55 579.68744 383.2531Q579.68744 384.34686 578.93744 385.01874Q578.20306 385.675 576.9843 385.675Q575.74994 385.675 574.99994 385.01874Q574.26556 384.34686 574.26556 383.2531Q574.26556 382.55 574.64056 382.0031Q575.01556 381.4406 575.68744 381.15936Q575.12494 380.8781 574.7968 380.3781Q574.4687 379.8781 574.4687 379.2375Q574.4687 378.15936 575.1562 377.53436Q575.8437 376.89374 576.9843 376.89374Q578.1093 376.89374 578.7968 377.53436Q579.49994 378.15936 579.49994 379.2375ZM578.6093 383.22186Q578.6093 382.5031 578.1562 382.0656Q577.70306 381.6125 576.9687 381.6125Q576.2343 381.6125 575.7812 382.0656Q575.3437 382.5031 575.3437 383.2375Q575.3437 383.95624 575.7812 384.3781Q576.2187 384.78436 576.9843 384.78436Q577.7343 384.78436 578.1718 384.3625Q578.6093 383.9406 578.6093 383.22186ZM576.9843 377.78436Q576.3437 377.78436 575.93744 378.1906Q575.5468 378.58124 575.5468 379.26874Q575.5468 379.90936 575.93744 380.3156Q576.32806 380.72186 576.9687 380.72186Q577.62494 380.72186 578.01556 380.3156Q578.4062 379.90936 578.4062 379.26874Q578.4062 378.6125 577.99994 378.20624Q577.5937 377.78436 576.9843 377.78436Z" fill-rule="nonzero"/><path fill="#000000" d="M687.44775 385.55L686.3696 385.55L686.3696 378.33124L684.1821 379.1281L684.1821 378.14374L687.2915 376.97186L687.44775 376.97186L687.44775 385.55ZM696.2446 381.90936Q696.2446 383.8156 695.5884 384.7531Q694.94775 385.675 693.5571 385.675Q692.19775 385.675 691.5415 384.76874Q690.88525 383.8625 690.854 382.05L690.854 380.6125Q690.854 378.72186 691.4946 377.8156Q692.1509 376.89374 693.5415 376.89374Q694.9165 376.89374 695.57275 377.78436Q696.229 378.65936 696.2446 380.5031L696.2446 381.90936ZM695.1509 380.425Q695.1509 379.05 694.76025 378.425Q694.38525 377.78436 693.5415 377.78436Q692.7134 377.78436 692.32275 378.425Q691.94775 379.05 691.94775 380.34686L691.94775 382.08124Q691.94775 383.45624 692.3384 384.1281Q692.7446 384.78436 693.5571 384.78436Q694.354 384.78436 694.7446 384.15936Q695.13525 383.53436 695.1509 382.20624L695.1509 380.425Z" fill-rule="nonzero"/><path fill="#d9d9d9" d="M287.5 29.95C287.5 33.26371 284.81372 35.95 281.5 35.95C278.18628 35.95 275.5 33.26371 275.5 29.95C275.5 26.636292 278.18628 23.95 281.5 23.95C284.81372 23.95 287.5 26.636292 287.5 29.95Z" fill-rule="nonzero"/><path fill="#1a1a1a" d="M297.60938 31.10625L297.60938 34.45L296.48438 34.45L296.48438 25.91875L299.64062 25.91875Q301.03125 25.91875 301.82812 26.6375Q302.625 27.340626 302.625 28.528126Q302.625 29.7625 301.84375 30.434376Q301.07812 31.10625 299.625 31.10625L297.60938 31.10625ZM297.60938 30.184376L299.64062 30.184376Q300.54688 30.184376 301.01562 29.7625Q301.5 29.340626 301.5 28.54375Q301.5 27.778126 301.01562 27.325Q300.54688 26.85625 299.70312 26.840626L297.60938 26.840626L297.60938 30.184376ZM308.23438 34.45Q308.14062 34.2625 308.07812 33.778126Q307.32812 34.575 306.28125 34.575Q305.34375 34.575 304.73438 34.04375Q304.14062 33.5125 304.14062 32.684376Q304.14062 31.7 304.89062 31.153126Q305.64062 30.60625 307.01562 30.60625L308.0625 30.60625L308.0625 30.10625Q308.0625 29.54375 307.71875 29.215626Q307.39062 28.871876 306.71875 28.871876Q306.14062 28.871876 305.75 29.16875Q305.35938 29.45 305.35938 29.871876L304.26562 29.871876Q304.26562 29.3875 304.59375 28.95Q304.9375 28.5125 305.51562 28.2625Q306.09375 27.996876 306.78125 27.996876Q307.89062 27.996876 308.5 28.54375Q309.125 29.090626 309.15625 30.04375L309.15625 32.965626Q309.15625 33.840626 309.375 34.35625L309.375 34.45L308.23438 34.45ZM306.4375 33.621876Q306.95312 33.621876 307.40625 33.35625Q307.85938 33.090626 308.0625 32.66875L308.0625 31.371876L307.21875 31.371876Q305.21875 31.371876 305.21875 32.54375Q305.21875 33.04375 305.5625 33.340626Q305.90625 33.621876 306.4375 33.621876ZM313.39062 32.85625L314.875 28.10625L316.03125 28.10625L313.48438 35.434376Q312.89062 37.0125 311.60938 37.0125L311.39062 36.996876L311.0 36.91875L311.0 36.04375L311.28125 36.059376Q311.84375 36.059376 312.14062 35.840626Q312.45312 35.621876 312.65625 35.028126L312.89062 34.371876L310.625 28.10625L311.8125 28.10625L313.39062 32.85625ZM318.34375 28.10625L318.375 28.809376Q319.0625 27.996876 320.25 27.996876Q321.57812 27.996876 322.0625 29.0125Q322.375 28.559376 322.875 28.278126Q323.39062 27.996876 324.07812 27.996876Q326.17188 27.996876 326.20312 30.2L326.20312 34.45L325.125 34.45L325.125 30.2625Q325.125 29.590626 324.8125 29.2625Q324.5 28.91875 323.76562 28.91875Q323.15625 28.91875 322.75 29.278126Q322.35938 29.6375 322.29688 30.246876L322.29688 34.45L321.21875 34.45L321.21875 30.29375Q321.21875 28.91875 319.85938 28.91875Q318.79688 28.91875 318.40625 29.825L318.40625 34.45L317.3125 34.45L317.3125 28.10625L318.34375 28.10625ZM330.95312 34.575Q329.65625 34.575 328.84375 33.73125Q328.04688 32.871876 328.04688 31.45L328.04688 31.2625Q328.04688 30.309376 328.40625 29.575Q328.76562 28.825 329.40625 28.41875Q330.0625 27.996876 330.8125 27.996876Q332.04688 27.996876 332.73438 28.809376Q333.42188 29.621876 333.42188 31.1375L333.42188 31.590626L329.125 31.590626Q329.15625 32.528126 329.67188 33.10625Q330.20312 33.684376 331.01562 33.684376Q331.57812 33.684376 331.96875 33.45Q332.375 33.215626 332.6875 32.825L333.34375 33.340626Q332.54688 34.575 330.95312 34.575ZM330.8125 28.8875Q330.15625 28.8875 329.70312 29.371876Q329.26562 29.840626 329.17188 30.7L332.34375 30.7L332.34375 30.621876Q332.29688 29.79375 331.89062 29.340626Q331.5 28.8875 330.8125 28.8875ZM335.34375 28.10625L335.375 28.903126Q336.10938 27.996876 337.28125 27.996876Q339.29688 27.996876 339.3125 30.2625L339.3125 34.45L338.21875 34.45L338.21875 30.246876Q338.21875 29.575 337.90625 29.246876Q337.60938 28.91875 336.95312 28.91875Q336.42188 28.91875 336.01562 29.2Q335.625 29.48125 335.40625 29.934376L335.40625 34.45L334.32812 34.45L334.32812 28.10625L335.34375 28.10625ZM342.79688 26.575L342.79688 28.10625L343.96875 28.10625L343.96875 28.95L342.79688 28.95L342.79688 32.871876Q342.79688 33.2625 342.95312 33.45Q343.10938 33.6375 343.48438 33.6375Q343.67188 33.6375 344.0 33.575L344.0 34.45Q343.57812 34.575 343.17188 34.575Q342.45312 34.575 342.07812 34.1375Q341.70312 33.684376 341.70312 32.871876L341.70312 28.95L340.54688 28.95L340.54688 28.10625L341.70312 28.10625L341.70312 26.575L342.79688 26.575ZM348.48438 34.45L348.48438 25.91875L351.28125 25.91875Q352.67188 25.91875 353.35938 26.496876Q354.0625 27.059376 354.0625 28.184376Q354.0625 28.79375 353.71875 29.2625Q353.39062 29.715626 352.79688 29.965626Q353.5 30.153126 353.89062 30.7Q354.29688 31.23125 354.29688 31.98125Q354.29688 33.1375 353.54688 33.79375Q352.8125 34.45 351.45312 34.45L348.48438 34.45ZM349.60938 30.465626L349.60938 33.528126L351.46875 33.528126Q352.26562 33.528126 352.71875 33.121876Q353.17188 32.715626 353.17188 31.996876Q353.17188 30.465626 351.48438 30.465626L349.60938 30.465626ZM349.60938 29.559376L351.3125 29.559376Q352.04688 29.559376 352.48438 29.2Q352.9375 28.825 352.9375 28.184376Q352.9375 27.48125 352.53125 27.16875Q352.125 26.840626 351.28125 26.840626L349.60938 26.840626L349.60938 29.559376Z" fill-rule="nonzero"/><path fill="#999999" d="M382.5 29.95C382.5 33.26371 379.81372 35.95 376.5 35.95C373.18628 35.95 370.5 33.26371 370.5 29.95C370.5 26.636292 373.18628 23.95 376.5 23.95C379.81372 23.95 382.5 26.636292 382.5 29.95Z" fill-rule="nonzero"/><path fill="#1a1a1a" d="M392.60938 31.10625L392.60938 34.45L391.48438 34.45L391.48438 25.91875L394.64062 25.91875Q396.03125 25.91875 396.82812 26.6375Q397.625 27.340626 397.625 28.528126Q397.625 29.7625 396.84375 30.434376Q396.07812 31.10625 394.625 31.10625L392.60938 31.10625ZM392.60938 30.184376L394.64062 30.184376Q395.54688 30.184376 396.01562 29.7625Q396.5 29.340626 396.5 28.54375Q396.5 27.778126 396.01562 27.325Q395.54688 26.85625 394.70312 26.840626L392.60938 26.840626L392.60938 30.184376ZM403.23438 34.45Q403.14062 34.2625 403.07812 33.778126Q402.32812 34.575 401.28125 34.575Q400.34375 34.575 399.73438 34.04375Q399.14062 33.5125 399.14062 32.684376Q399.14062 31.7 399.89062 31.153126Q400.64062 30.60625 402.01562 30.60625L403.0625 30.60625L403.0625 30.10625Q403.0625 29.54375 402.71875 29.215626Q402.39062 28.871876 401.71875 28.871876Q401.14062 28.871876 400.75 29.16875Q400.35938 29.45 400.35938 29.871876L399.26562 29.871876Q399.26562 29.3875 399.59375 28.95Q399.9375 28.5125 400.51562 28.2625Q401.09375 27.996876 401.78125 27.996876Q402.89062 27.996876 403.5 28.54375Q404.125 29.090626 404.15625 30.04375L404.15625 32.965626Q404.15625 33.840626 404.375 34.35625L404.375 34.45L403.23438 34.45ZM401.4375 33.621876Q401.95312 33.621876 402.40625 33.35625Q402.85938 33.090626 403.0625 32.66875L403.0625 31.371876L402.21875 31.371876Q400.21875 31.371876 400.21875 32.54375Q400.21875 33.04375 400.5625 33.340626Q400.90625 33.621876 401.4375 33.621876ZM408.39062 32.85625L409.875 28.10625L411.03125 28.10625L408.48438 35.434376Q407.89062 37.0125 406.60938 37.0125L406.39062 36.996876L406.0 36.91875L406.0 36.04375L406.28125 36.059376Q406.84375 36.059376 407.14062 35.840626Q407.45312 35.621876 407.65625 35.028126L407.89062 34.371876L405.625 28.10625L406.8125 28.10625L408.39062 32.85625ZM413.34375 28.10625L413.375 28.809376Q414.0625 27.996876 415.25 27.996876Q416.57812 27.996876 417.0625 29.0125Q417.375 28.559376 417.875 28.278126Q418.39062 27.996876 419.07812 27.996876Q421.17188 27.996876 421.20312 30.2L421.20312 34.45L420.125 34.45L420.125 30.2625Q420.125 29.590626 419.8125 29.2625Q419.5 28.91875 418.76562 28.91875Q418.15625 28.91875 417.75 29.278126Q417.35938 29.6375 417.29688 30.246876L417.29688 34.45L416.21875 34.45L416.21875 30.29375Q416.21875 28.91875 414.85938 28.91875Q413.79688 28.91875 413.40625 29.825L413.40625 34.45L412.3125 34.45L412.3125 28.10625L413.34375 28.10625ZM425.95312 34.575Q424.65625 34.575 423.84375 33.73125Q423.04688 32.871876 423.04688 31.45L423.04688 31.2625Q423.04688 30.309376 423.40625 29.575Q423.76562 28.825 424.40625 28.41875Q425.0625 27.996876 425.8125 27.996876Q427.04688 27.996876 427.73438 28.809376Q428.42188 29.621876 428.42188 31.1375L428.42188 31.590626L424.125 31.590626Q424.15625 32.528126 424.67188 33.10625Q425.20312 33.684376 426.01562 33.684376Q426.57812 33.684376 426.96875 33.45Q427.375 33.215626 427.6875 32.825L428.34375 33.340626Q427.54688 34.575 425.95312 34.575ZM425.8125 28.8875Q425.15625 28.8875 424.70312 29.371876Q424.26562 29.840626 424.17188 30.7L427.34375 30.7L427.34375 30.621876Q427.29688 29.79375 426.89062 29.340626Q426.5 28.8875 425.8125 28.8875ZM430.34375 28.10625L430.375 28.903126Q431.10938 27.996876 432.28125 27.996876Q434.29688 27.996876 434.3125 30.2625L434.3125 34.45L433.21875 34.45L433.21875 30.246876Q433.21875 29.575 432.90625 29.246876Q432.60938 28.91875 431.95312 28.91875Q431.42188 28.91875 431.01562 29.2Q430.625 29.48125 430.40625 29.934376L430.40625 34.45L429.32812 34.45L429.32812 28.10625L430.34375 28.10625ZM437.79688 26.575L437.79688 28.10625L438.96875 28.10625L438.96875 28.95L437.79688 28.95L437.79688 32.871876Q437.79688 33.2625 437.95312 33.45Q438.10938 33.6375 438.48438 33.6375Q438.67188 33.6375 439.0 33.575L439.0 34.45Q438.57812 34.575 438.17188 34.575Q437.45312 34.575 437.07812 34.1375Q436.70312 33.684376 436.70312 32.871876L436.70312 28.95L435.54688 28.95L435.54688 28.10625L436.70312 28.10625L436.70312 26.575L437.79688 26.575ZM448.20312 32.215626L444.625 32.215626L443.82812 34.45L442.67188 34.45L445.92188 25.91875L446.90625 25.91875L450.17188 34.45L449.01562 34.45L448.20312 32.215626ZM444.96875 31.29375L447.875 31.29375L446.42188 27.309376L444.96875 31.29375Z" fill-rule="nonzero"/></svg>