<?xml version="1.0" encoding="UTF-8"?>
<svg width="50pt" height="50pt" version="1.1" viewBox="0 0 512 512" xmlns="http://www.w3.org/2000/svg">
 <g>
  <path d="m302.35 174.38c0 5.5625-4.5156 10.078-10.078 10.078l-72.547-0.003907c-5.5625 0-10.078-4.5156-10.078-10.078v-36.273c0-5.5625 4.5156-10.078 10.078-10.078h72.547c5.5625 0 10.078 4.5156 10.078 10.078zm-20.152-26.199h-52.398v16.121h52.395z"/>
  <path d="m302.35 264.06h44.336c3.9883 0 7.5977 2.3594 9.2109 6.0039 1.6133 3.6484 0.92578 7.8984-1.7539 10.863l-90.688 99.754c-3.8086 4.1914-11.105 4.1914-14.914 0l-90.688-99.754c-2.6758-2.9648-3.3633-7.2344-1.75-10.863 1.6133-3.6484 5.2188-6.0039 9.2109-6.0039h44.336v-53.402c0-5.5625 4.5156-10.078 10.078-10.078h72.547c5.5625 0 10.078 4.5156 10.078 10.078zm-10.078 20.152c-5.5625 0-10.078-4.5156-10.078-10.078v-53.402h-52.395v53.402c0 5.5625-4.5156 10.078-10.078 10.078h-31.637l67.914 74.703 67.914-74.703z"/>
 </g>
</svg>
