<?xml version="1.0" encoding="UTF-8"?>
<svg  width="50pt" height="50pt" version="1.1" viewBox="0 0 512 512" xmlns="http://www.w3.org/2000/svg">
 <g>
  <path d="m337.62 302.35c-5.5625 0-10.078-4.5156-10.078-10.078l0.003907-72.547c0-5.5625 4.5156-10.078 10.078-10.078h36.273c5.5625 0 10.078 4.5156 10.078 10.078v72.547c0 5.5625-4.5156 10.078-10.078 10.078zm26.199-20.152v-52.398h-16.121v52.395z"/>
  <path d="m247.94 302.35v44.336c0 3.9883-2.3594 7.5977-6.0039 9.2109-3.6484 1.6133-7.8984 0.92578-10.863-1.7539l-99.754-90.688c-4.1914-3.8086-4.1914-11.105 0-14.914l99.754-90.688c2.9648-2.6758 7.2344-3.3633 10.863-1.75 3.6484 1.6133 6.0039 5.2188 6.0039 9.2109v44.336h53.402c5.5625 0 10.078 4.5156 10.078 10.078v72.547c0 5.5625-4.5156 10.078-10.078 10.078zm-20.152-10.078c0-5.5625 4.5156-10.078 10.078-10.078h53.402v-52.395h-53.402c-5.5625 0-10.078-4.5156-10.078-10.078v-31.637l-74.703 67.914 74.703 67.914z"/>
 </g>
</svg>
