<?xml version="1.0" encoding="UTF-8"?>
<svg  width="50pt" height="50pt" version="1.1" viewBox="0 0 512 512" xmlns="http://www.w3.org/2000/svg">
 <g>
  <path d="m329.6 385.6c0-8.832-7.168-16-16-16h-115.2c-8.832 0-16 7.168-16 16v57.602c0 8.832 7.168 16 16 16h115.2c8.832 0 16-7.168 16-16zm-32 41.598h-83.203v-25.602h83.199z"/>
  <path d="m329.6 243.2h70.398c6.3359 0 12.062-3.7422 14.625-9.5352 2.5586-5.793 1.4727-12.543-2.7852-17.246l-144-158.4c-6.0469-6.6562-17.633-6.6562-23.68 0l-144 158.4c-4.2578 4.7031-5.3438 11.484-2.7852 17.246 2.5625 5.793 8.2891 9.5352 14.625 9.5352h70.398v84.801c0 8.832 7.168 16 16 16h115.2c8.832 0 16-7.168 16-16zm-16-32c-8.832 0-16 7.168-16 16v84.801h-83.203v-84.801c0-8.832-7.168-16-16-16h-50.238l107.84-118.62 107.84 118.62z"/>
 </g>
</svg>
