<svg xmlns="http://www.w3.org/2000/svg" xmlns:xlink="http://www.w3.org/1999/xlink" version="1.1" x="0px" y="0px" viewBox="0 0 100 100" enable-background="new 0 0 100 100" xml:space="preserve"><g><path fill="none" d="M47.47,45.11c0.988-1.833,2.368-3.37,4.024-4.661c-3.403-4.104-7.348-7.116-11.817-9.001   c-0.724-0.305-1.446-0.572-2.167-0.808c-3.807,4.425-5.739,10.4-5.739,17.806c0,10.771,4.051,17.483,9.107,21.677   c0.792-2.448,1.355-5.413,1.953-8.864C43.732,56.05,44.754,50.147,47.47,45.11z"></path><path d="M11.789,64.595c0.785,0.413,1.754,0.111,2.166-0.675l2.711-5.163c-0.571,5.07-0.688,13.213,3.343,18.25   c2.343,2.927,5.714,4.411,10.023,4.411c0.049,0,0.099,0,0.148-0.001c6.368-0.05,9.922-2.679,12.1-6.518   c8.545,5.199,17.952,5.402,18.125,5.403c0.005,0,0.01,0,0.015,0c0.88,0,1.597-0.709,1.604-1.59c0.008-0.886-0.704-1.61-1.59-1.618   c-0.644-0.006-9.241-0.191-16.853-5.011c1.172-3.127,1.796-6.724,2.411-10.278c0.901-5.209,1.833-10.596,4.302-15.173   c0.761-1.411,1.841-2.607,3.136-3.636c1.7,2.417,3.249,5.132,4.632,8.164l-4.34-4.102c-0.644-0.608-1.659-0.581-2.268,0.064   c-0.608,0.644-0.58,1.66,0.064,2.268l10.313,9.746c0.304,0.288,0.7,0.438,1.102,0.438c0.236,0,0.474-0.052,0.694-0.158   c0.6-0.288,0.959-0.915,0.904-1.578l-1.139-13.863c-0.072-0.883-0.86-1.541-1.729-1.468c-0.884,0.073-1.541,0.847-1.468,1.73   l0.391,4.764c-1.346-2.841-2.832-5.43-4.458-7.757c7.471-3.932,19.075-4.182,26.144-3.89l-5.241,1.328   c-0.858,0.218-1.378,1.09-1.16,1.949c0.184,0.727,0.837,1.21,1.554,1.21c0.13,0,0.263-0.016,0.396-0.049l13.755-3.485   c0.644-0.163,1.121-0.707,1.198-1.367c0.078-0.66-0.259-1.3-0.847-1.609l-12.315-6.466c-0.785-0.412-1.756-0.112-2.166,0.675   c-0.412,0.784-0.11,1.754,0.674,2.166l4.645,2.439c-7.464-0.343-20.169-0.098-28.573,4.538c-3.779-4.642-8.207-8.059-13.267-10.193   c-0.292-0.123-0.582-0.234-0.873-0.346c8.323-6.908,20.157-6.344,20.278-6.338c0.868,0.054,1.642-0.627,1.691-1.511   c0.05-0.884-0.624-1.641-1.508-1.692c-0.587-0.033-14.339-0.72-23.698,8.116c-0.099,0.094-0.191,0.193-0.289,0.288   c-11.93-3.105-22.376,1.399-22.866,1.616c-0.81,0.358-1.177,1.306-0.818,2.116c0.359,0.811,1.306,1.177,2.116,0.818   c0.104-0.046,8.916-3.85,19.146-1.812c-3.678,4.862-5.541,11.13-5.541,18.7c0,12.454,5.022,20.031,11.074,24.652   c-1.763,3.289-4.5,5.073-9.482,5.112c-3.401,0.003-5.89-1.021-7.638-3.203c-3.036-3.789-3.168-10.146-2.774-14.688l1.188,4.689   c0.184,0.727,0.837,1.21,1.554,1.21c0.13,0,0.263-0.016,0.395-0.049c0.859-0.218,1.379-1.09,1.161-1.949l-3.485-13.754   c-0.163-0.644-0.707-1.121-1.367-1.199c-0.662-0.077-1.3,0.259-1.609,0.848l-6.466,12.315   C10.702,63.213,11.004,64.183,11.789,64.595z M31.772,48.445c0-7.406,1.932-13.381,5.739-17.806   c0.72,0.237,1.443,0.503,2.167,0.808c4.468,1.885,8.414,4.898,11.817,9.001c-1.656,1.291-3.036,2.828-4.024,4.661   c-2.716,5.038-3.738,10.94-4.639,16.148c-0.597,3.451-1.161,6.416-1.953,8.864C35.823,65.928,31.772,59.216,31.772,48.445z"></path></g></svg>