<svg xmlns="http://www.w3.org/2000/svg" xmlns:xlink="http://www.w3.org/1999/xlink" version="1.1" x="0px" y="0px" viewBox="0 0 100 100" enable-background="new 0 0 100 100" xml:space="preserve"><path d="M87.5,85v-1.2c0-9.9-11.4-15.7-18.2-19.1c-1.4-0.7-2.5-1.3-3.2-1.7c-0.8-0.5-1.4-1.3-1.8-2.1c0.1,0,0.2,0,0.2,0  c8.6,0,12.8-5.7,13-5.9c0.3-0.4,0.4-1,0.3-1.5c-0.1-0.5-0.4-1-0.9-1.2c-2.4-1.4-4.7-3.7-5.2-15.2c0.3-1.8,0.5-3.7,0.5-5.6  C72.3,16.8,62.7,5,51,5S29.8,16.8,29.8,31.2c0,1.9,0.2,3.8,0.5,5.6c-0.5,11.5-2.8,13.8-5.2,15.3c-0.5,0.3-0.8,0.7-0.9,1.2  c-0.1,0.5,0,1.1,0.3,1.5c0.2,0.3,4.3,5.9,13,5.9c0.1,0,0.2,0,0.2,0c-0.4,0.9-1,1.6-1.8,2.1c-0.7,0.5-2.2,1.2-3.9,1.9  c-7.3,3.4-19.6,9.2-19.6,18.9v2.5h0V95h75L87.5,85L87.5,85z M36.8,41.6c-0.7-3.3-1.3-9.4,0.9-12.8c0.9-1.4,2.2-2.2,4-2.6  c8.4-1.5,12.6-4.5,14.8-7.4c1.4,1.7,3.1,3.2,4.8,4.7c2.9,2.6,6,5.3,6,7.7C67.3,43,60,52.5,51,52.5C44.9,52.5,39.6,48.1,36.8,41.6z   M61.6,65.6c-1.4,1-5,3.2-10.6,3.2c-4.7,0-8.9-2.2-10.5-3.3c2.6-2.9,3.1-7,3.1-9.6c2.3,1.1,4.8,1.7,7.4,1.7c2.6,0,5.1-0.6,7.4-1.7  C58.4,58.5,58.9,62.6,61.6,65.6z M43.8,76.4l-6.9,4.9l6.9,4.9V90L34,83.2v-3.9l9.7-6.8V76.4z M51,90h-3.9L51,72.5h3.9L51,90z   M68.5,83.2L58.8,90v-3.9l6.9-4.9l-6.9-4.9v-3.9l9.7,6.8V83.2z"></path></svg>