<svg xmlns="http://www.w3.org/2000/svg" version="1.1" viewBox="0 0 64 64" x="0px" y="0px"><title>credit-card</title><path d="M9.929 50.372c0.816 0 1.584 0.202 2.261 0.558 0.676-0.355 1.445-0.558 2.261-0.558 2.688 0 4.875 2.187 4.875 4.875s-2.187 4.875-4.875 4.875c-0.816 0-1.584-0.202-2.261-0.558-0.676 0.355-1.445 0.558-2.261 0.558-2.688 0-4.875-2.187-4.875-4.875s2.187-4.875 4.875-4.875zM14.192 57.608c0.085 0.009 0.171 0.015 0.258 0.015 1.31 0 2.375-1.065 2.375-2.375s-1.066-2.375-2.375-2.375c-0.087 0-0.173 0.005-0.258 0.015 0.389 0.7 0.611 1.505 0.611 2.36s-0.223 1.66-0.611 2.36zM12.189 55.973c0.074-0.229 0.114-0.473 0.114-0.726s-0.041-0.497-0.114-0.726c-0.074 0.229-0.114 0.473-0.114 0.726s0.041 0.497 0.114 0.726zM9.928 57.622c0.087 0 0.173-0.005 0.258-0.015-0.389-0.7-0.611-1.505-0.611-2.36s0.223-1.66 0.611-2.36c-0.085-0.009-0.171-0.015-0.258-0.015-1.31 0-2.375 1.065-2.375 2.375s1.065 2.375 2.375 2.375z"></path><path d="M31.298 0c0.96 0 1.921 0.365 2.652 1.096l28.954 28.954c1.462 1.462 1.462 3.841 0 5.303l-14.457 14.457v10.439c0 2.068-1.682 3.75-3.75 3.75h-40.946c-2.068 0-3.75-1.682-3.75-3.75v-25.88c0-2.068 1.682-3.75 3.75-3.75h12.515l-5.919-5.919c-1.462-1.462-1.462-3.841 0-5.303l18.3-18.301c0.731-0.731 1.692-1.096 2.652-1.096zM31.298 2.499c-0.32 0-0.64 0.122-0.884 0.365l-1.895 1.895 30.721 30.721 1.895-1.895c0.487-0.487 0.487-1.28-0-1.768l-28.954-28.953c-0.244-0.244-0.564-0.365-0.884-0.365zM26.751 6.528l-14.637 14.637c-0.236 0.236-0.366 0.55-0.366 0.884s0.13 0.648 0.366 0.884l7.687 7.687 22.917-0-13.794-13.794c-0.488-0.488-0.488-1.28 0-1.768s1.279-0.488 1.768 0l24.486 24.486 2.294-2.294zM44.697 33.119h-40.946c-0.689 0-1.25 0.561-1.25 1.25v25.88c0 0.689 0.561 1.25 1.25 1.25h40.946c0.689 0 1.25-0.561 1.25-1.25v-25.88c0-0.689-0.561-1.25-1.25-1.25zM48.447 36.348v9.927l4.963-4.963z"></path></svg>