<svg xmlns="http://www.w3.org/2000/svg" xmlns:xlink="http://www.w3.org/1999/xlink" version="1.1" x="0px" y="0px" viewBox="0 0 48 48" enable-background="new 0 0 48 48" xml:space="preserve"><path d="M12,19.666v6.254l1.357-1.357c0.391-0.391,1.023-0.391,1.414,0s0.391,1.023,0,1.414l-3.064,3.064  c-0.195,0.195-0.451,0.293-0.707,0.293s-0.512-0.098-0.707-0.293l-3.064-3.064c-0.391-0.391-0.391-1.023,0-1.414  s1.023-0.391,1.414,0L10,25.92v-6.254c0-0.552,0.448-1,1-1S12,19.114,12,19.666z M28.334,36H22.08l1.357-1.357  c0.391-0.391,0.391-1.023,0-1.414s-1.023-0.391-1.414,0l-3.064,3.064c-0.391,0.391-0.391,1.023,0,1.414l3.064,3.064  c0.195,0.195,0.451,0.293,0.707,0.293s0.512-0.098,0.707-0.293c0.391-0.391,0.391-1.023,0-1.414L22.08,38h6.254c0.553,0,1-0.447,1-1  S28.887,36,28.334,36z M37,18.666c-0.553,0-1,0.448-1,1v6.254l-1.357-1.357c-0.391-0.391-1.023-0.391-1.414,0s-0.391,1.023,0,1.414  l3.064,3.064c0.195,0.195,0.451,0.293,0.707,0.293s0.512-0.098,0.707-0.293l3.064-3.064c0.391-0.391,0.391-1.023,0-1.414  s-1.023-0.391-1.414,0L38,25.92v-6.254C38,19.114,37.553,18.666,37,18.666z M31.58,16.421c-0.391-0.391-1.023-0.391-1.414,0  L18.127,28.458v-1.92c0-0.553-0.448-1-1-1s-1,0.447-1,1v4.334c0,0.13,0.027,0.26,0.077,0.382c0.101,0.245,0.296,0.439,0.541,0.541  c0.122,0.051,0.251,0.077,0.382,0.077h4.333c0.552,0,1-0.447,1-1s-0.448-1-1-1h-1.919L31.58,17.835  C31.971,17.444,31.971,16.812,31.58,16.421z M16.334,37c0,2.941-2.393,5.334-5.334,5.334S5.666,39.941,5.666,37  S8.059,31.666,11,31.666S16.334,34.059,16.334,37z M14.334,37c0-1.838-1.496-3.334-3.334-3.334S7.666,35.162,7.666,37  S9.162,40.334,11,40.334S14.334,38.838,14.334,37z M42.334,37c0,2.941-2.393,5.334-5.334,5.334S31.666,39.941,31.666,37  s2.393-5.334,5.334-5.334S42.334,34.059,42.334,37z M40.334,37c0-1.838-1.496-3.334-3.334-3.334S33.666,35.162,33.666,37  s1.496,3.334,3.334,3.334S40.334,38.838,40.334,37z M5.666,11c0-2.941,2.393-5.334,5.334-5.334S16.334,8.059,16.334,11  S13.941,16.334,11,16.334S5.666,13.941,5.666,11z M7.666,11c0,1.838,1.496,3.334,3.334,3.334s3.334-1.496,3.334-3.334  S12.838,7.666,11,7.666S7.666,9.162,7.666,11z M31.666,11c0-2.941,2.393-5.334,5.334-5.334S42.334,8.059,42.334,11  S39.941,16.334,37,16.334S31.666,13.941,31.666,11z M33.666,11c0,1.838,1.496,3.334,3.334,3.334s3.334-1.496,3.334-3.334  S38.838,7.666,37,7.666S33.666,9.162,33.666,11z"></path></svg>