<svg xmlns="http://www.w3.org/2000/svg" xmlns:xlink="http://www.w3.org/1999/xlink" version="1.1" x="0px" y="0px" viewBox="0 0 512 512" enable-background="new 0 0 512 512" xml:space="preserve"><g><g><path d="M405.417,158.42c-9.76-20.497-23.829-37.73-41.817-51.22C325.084,78.313,279.653,74,256,74s-69.084,4.313-107.6,33.2    c-17.988,13.49-32.058,30.724-41.817,51.22C95.579,181.528,90,208.975,90,240v198h6c39.397,0,56.004-11.743,69.348-21.178    C174.232,410.539,180.652,406,192,406c13.515,0,20.115,6.6,27.758,14.243C228.081,428.566,237.515,438,256,438    s27.919-9.434,36.242-17.757C299.885,412.6,306.485,406,320,406c11.348,0,17.768,4.539,26.652,10.822    C359.996,426.257,376.603,438,416,438h6V240C422,208.975,416.421,181.528,405.417,158.42z M410,425.9    c-31.235-1.07-44.573-10.5-56.42-18.876C344.108,400.326,335.162,394,320,394c-18.485,0-27.919,9.434-36.242,17.757    C276.115,419.4,269.515,426,256,426s-20.115-6.6-27.758-14.243C219.919,403.434,210.485,394,192,394    c-15.162,0-24.108,6.326-33.58,13.024C146.573,415.4,133.235,424.83,102,425.9V240c0-55.075,18.033-96.525,53.6-123.2    C191.331,90.001,233.841,86,256,86s64.669,4.001,100.4,30.8C391.967,143.475,410,184.925,410,240V425.9z"></path><path d="M192,186c-20.953,0-38,17.047-38,38v32c0,20.953,17.047,38,38,38s38-17.047,38-38v-32C230,203.047,212.953,186,192,186z     M218,256c0,14.336-11.663,26-26,26s-26-11.664-26-26v-32c0-14.336,11.663-26,26-26s26,11.664,26,26V256z"></path><path d="M320,186c-20.953,0-38,17.047-38,38v32c0,20.953,17.047,38,38,38s38-17.047,38-38v-32C358,203.047,340.953,186,320,186z     M346,256c0,14.336-11.663,26-26,26s-26-11.664-26-26v-32c0-14.336,11.663-26,26-26s26,11.664,26,26V256z"></path></g></g></svg>