<svg xmlns:x="http://ns.adobe.com/Extensibility/1.0/" xmlns:i="http://ns.adobe.com/AdobeIllustrator/10.0/" xmlns:graph="http://ns.adobe.com/Graphs/1.0/"
  xmlns="http://www.w3.org/2000/svg" xmlns:xlink="http://www.w3.org/1999/xlink" version="1.1" x="0px" y="0px" viewBox="0 0 100 100" enable-background="new 0 0 100 100"
  xml:space="preserve"><metadata><sfw xmlns="http://ns.adobe.com/SaveForWeb/1.0/"><slices></slices><sliceSourceBounds width="1447.2" height="1444.2" x="1" y="-1446.1"
  bottomLeftOrigin="true"></sliceSourceBounds></sfw></metadata><path
  d="M91.4,92.8v-13c0-15.5-12.7-28.2-28.2-28.2H36.8c-15.6,0-28.2,12.7-28.2,28.2v13c0,1.4,1.1,2.5,2.5,2.5h77.7  C90.2,95.3,91.4,94.2,91.4,92.8z M86.4,90.3H13.6V79.8C13.6,67,24,56.6,36.8,56.6h26.3C76,56.6,86.4,67,86.4,79.8V90.3z M50,46.2  c11.4,0,20.8-9.3,20.8-20.8S61.4,4.7,50,4.7S29.2,14,29.2,25.4S38.6,46.2,50,46.2z M50,9.7c8.7,0,15.8,7.1,15.8,15.8  S58.7,41.2,50,41.2s-15.8-7.1-15.8-15.8S41.3,9.7,50,9.7z"></path></svg>