<svg xmlns="http://www.w3.org/2000/svg" xmlns:xlink="http://www.w3.org/1999/xlink" version="1.1" x="0px" y="0px" viewBox="0 0 100 100" enable-background="new 0 0 100 100" xml:space="preserve"><path fill-rule="evenodd" clip-rule="evenodd" d="M46.0356445,37.0375977V61.4375h7.7998047V37.0375977H46.0356445z   M51.2856445,10.7875977c0.8334961,0.300293,1.4663086,0.8334961,1.8999023,1.6000977L94.5356445,83.9375  c0.4331055,0.7666016,0.5664063,1.6000977,0.3999023,2.5c-0.1333008,0.8666992-0.5498047,1.5834961-1.25,2.1503906  C92.9853516,89.1542969,92.2021484,89.4375,91.3354492,89.4375H8.6855469c-0.8999023,0-1.6835938-0.2666016-2.3500977-0.7998047  c-0.6665039-0.6000977-1.0834961-1.3334961-1.25-2.2001953c-0.199707-0.8999023-0.0664063-1.7333984,0.3999023-2.5  l41.3500977-71.5498047c0.4335938-0.7666016,1.0668945-1.2998047,1.8999023-1.6000977  C49.5688477,10.487793,50.4189453,10.487793,51.2856445,10.7875977z M46.0854492,74.6875h7.8500977v-7.8999023h-7.8500977V74.6875z"></path></svg>