<svg xmlns:dc="http://purl.org/dc/elements/1.1/" xmlns:cc="http://creativecommons.org/ns#" xmlns:rdf="http://www.w3.org/1999/02/22-rdf-syntax-ns#" xmlns:svg="http://www.w3.org/2000/svg" xmlns="http://www.w3.org/2000/svg" xmlns:sodipodi="http://sodipodi.sourceforge.net/DTD/sodipodi-0.dtd" xmlns:inkscape="http://www.inkscape.org/namespaces/inkscape" version="1.1" x="0px" y="0px" viewBox="0 0 100 100"><g transform="translate(0,-952.36218)"><path style="font-size:medium;font-style:normal;font-variant:normal;font-weight:normal;font-stretch:normal;text-indent:0;text-align:start;text-decoration:none;line-height:normal;letter-spacing:normal;word-spacing:normal;text-transform:none;direction:ltr;block-progression:tb;writing-mode:lr-tb;text-anchor:start;baseline-shift:baseline;opacity:1;color:#000000;fill:#000000;fill-opacity:1;stroke:none;stroke-width:6;marker:none;visibility:visible;display:inline;overflow:visible;enable-background:accumulate;font-family:Sans;-inkscape-font-specification:Sans" d="M 56 10 C 48.409316 10 42.617299 12.21048 37.90625 14.25 C 33.195201 16.28952 29.611111 18 26 18 L 14.5 18 A 3.0003 3.0003 0 0 0 11.5625 20.34375 C 10.557136 24.79748 10 30.167 10 36 C 10 41.83299 10.557138 47.20253 11.5625 51.65625 A 3.0003 3.0003 0 0 0 14.5 54 L 27.09375 54 C 34.669062 58.3569 39.462175 65.4328 42.3125 71.6875 C 43.773912 74.8944 44.725142 77.8472 45.3125 80 C 45.606179 81.0764 45.808436 81.9546 45.9375 82.5625 C 46.00203 82.8664 46.062886 83.11755 46.09375 83.28125 C 46.12461 83.44495 46.08065 83.2592 46.15625 83.625 C 46.911572 87.2813 50.182229 90 54 90 C 58.382761 90 62 86.3827 62 82 L 62 63 L 79 63 C 84.718919 63 89 57.8369 89 52 C 89 50.1502 88.467968 48.48192 87.71875 46.9375 C 89.15514 45.01678 90 42.61289 90 40 C 90 37.30417 89.11804 34.82904 87.59375 32.875 C 87.841663 31.96234 88 30.99726 88 30 C 88 26.49729 86.362875 23.29797 83.6875 21.5 C 83.75985 20.98755 84 20.53135 84 20 C 84 14.7443 80.205245 10 75 10 L 56 10 z M 56 16 L 75 16 C 76.422171 16 78 17.5237 78 20 C 78 20.73539 77.844662 21.39723 77.59375 21.96875 A 3.0003 3.0003 0 0 0 79.5625 26.09375 C 80.713294 26.39952 82 27.86391 82 30 C 82 30.82299 81.789313 31.55721 81.46875 32.1875 A 3.0003 3.0003 0 0 0 82.21875 35.84375 C 83.220361 36.69191 84 38.21551 84 40 C 84 41.81128 83.190115 43.34028 82.15625 44.1875 A 3.0003 3.0003 0 0 0 81.75 48.40625 C 82.488708 49.29565 83 50.5658 83 52 C 83 54.9996 81.013067 57 79 57 L 59 57 A 3.0003 3.0003 0 0 0 56 60 L 56 82 C 56 83.14 55.140087 84 54 84 C 52.991747 84 52.215424 83.329 52.03125 82.4375 C 52.09837 82.7623 52.03815 82.35855 52 82.15625 C 51.96186 81.95405 51.887482 81.6656 51.8125 81.3125 C 51.662537 80.6062 51.452331 79.6372 51.125 78.4375 C 50.470339 76.038 49.409262 72.79125 47.78125 69.21875 C 44.525226 62.07385 38.925589 53.5538 29.4375 48.375 A 3.0003 3.0003 0 0 0 28 48 L 17.0625 48 C 16.44116 44.48568 16 40.47191 16 36 C 16 31.52808 16.441161 27.51428 17.0625 24 L 26 24 C 31.388889 24 35.784029 21.71048 40.3125 19.75 C 44.840971 17.78952 49.548762 16 56 16 z " transform="translate(0,952.36218)"></path></g></svg>