<svg xmlns="http://www.w3.org/2000/svg" xmlns:xlink="http://www.w3.org/1999/xlink" version="1.2" baseProfile="tiny" x="0px" y="0px" viewBox="0 0 100 100" xml:space="preserve"><path d="M92.5,5h-10C81.119,5,80,6.119,80,7.5V10H70c-17.92,0-32.5,14.579-32.5,32.5v15c0,4.136-3.364,7.5-7.5,7.5H20v-2.5   c0-1.381-1.119-2.5-2.5-2.5h-10C6.119,60,5,61.119,5,62.5v30C5,93.881,6.119,95,7.5,95h10c1.381,0,2.5-1.119,2.5-2.5V90h10   c17.92,0,32.5-14.579,32.5-32.5v-15c0-4.136,3.364-7.5,7.5-7.5h10v2.5c0,1.381,1.119,2.5,2.5,2.5h10c1.381,0,2.5-1.119,2.5-2.5v-30   C95,6.119,93.881,5,92.5,5z M15,67.5v20V90h-5V65h5V67.5z M80,30H70c-6.893,0-12.5,5.607-12.5,12.5v15C57.5,72.663,45.164,85,30,85   H20V70h10c6.893,0,12.5-5.607,12.5-12.5v-15C42.5,27.337,54.836,15,70,15h10V30z M90,35h-5v-2.5v-20V10h5V35z"></path></svg>