<svg xmlns="http://www.w3.org/2000/svg" xmlns:xlink="http://www.w3.org/1999/xlink" version="1.1" x="0px" y="0px" viewBox="0 0 100 100" style="enable-background:new 0 0 100 100;" xml:space="preserve"><path d="M54.6,59c-0.4-9.9-1-22.5-1.7-29.3c-0.5,4.7-0.9,12-1.2,17.8c-1.2,23.5-1.9,27.6-4.8,27.6c-3,0-3.5-4.8-4.3-18.4  c-0.3-5.3-0.8-13-1.7-15.7c-0.6,1.9-1,6.6-1.2,9.6c-0.5,7.9-1,14.1-4.7,14.1s-4.3-4.5-4.8-8.2C30,55,29.6,52.1,29,51.7  c-0.9,0-1.1,0.4-1.8,2c-0.6,1.5-1.5,3.7-4.2,3.7c-2.5,0-3.7-1.4-4.5-2.3c-0.7-0.8-1-1-1.5-1c-0.8,0-1.1,0.2-1.7,0.6  C14.5,55.2,13.4,56,11,56H5c-0.8,0-1.5-0.7-1.5-1.5S4.2,53,5,53h6c1.4,0,2-0.4,2.6-0.8c0.7-0.5,1.7-1.1,3.4-1.1c2,0,3,1.2,3.7,2  c0.7,0.8,1.1,1.3,2.3,1.3c0.5,0,0.8-0.3,1.4-1.8c0.7-1.6,1.6-3.9,4.6-3.9c3.2,0,3.7,3.9,4.2,7.4c0.3,2,0.7,5.4,1.7,5.6  c1.1-1,1.5-7.4,1.8-11.3c0.6-7.6,1-13.1,4.3-13.1c3.1,0,3.7,4.9,4.6,19.1c0.3,4.5,0.7,10.8,1.3,13.9c0.9-4.5,1.4-15.4,1.8-23.1  c1-21.6,1.6-24.8,4.2-24.8s3.2,2.9,4.6,36.4c0.3,8.8,0.8,18.9,1.3,25.6c0.6-8.2,1.1-22.2,1.5-34.1C61.8,6.7,62.4,5,64.9,5  c2.6,0,3.1,2.5,4.3,33.5c0.4,11.3,0.9,26.1,1.9,32.1c0.7-3.7,1.1-10.8,1.4-15.9c0.9-15.3,1.5-20.2,4.4-20.2c3,0,3.7,4.6,4.7,13.4  c0.4,3.3,1,8.3,1.7,9.6c0.3-0.1,0.5-0.5,1-1.3c0.7-1.3,1.8-3.1,4.6-3.1h5c0.8,0,1.5,0.7,1.5,1.5s-0.7,1.5-1.5,1.5H89  c-1,0-1.4,0.5-2,1.6c-0.6,1.1-1.6,2.8-4,2.8c-2.8,0-3.4-4.1-4.3-12.4c-0.4-3-0.9-7.6-1.6-9.8c-0.8,3.1-1.3,10.9-1.6,16.4  c-1,15.8-1.5,20.9-4.6,20.9c-2.8,0-3.5-3.2-4.8-37.1c-0.3-8.5-0.7-18.3-1.2-24.6c-0.7,8.5-1.2,23.6-1.6,36.5  c-1.4,42.1-2,43.6-4.4,43.6C56.4,94,55.8,91.4,54.6,59z"></path></svg>