<svg xmlns="http://www.w3.org/2000/svg" xmlns:xlink="http://www.w3.org/1999/xlink" viewBox="0 0 24 24" version="1.1" x="0px" y="0px"><title>design_076-difference-combine-merge-layer</title><desc>Created with Sketch.</desc><g stroke="none" stroke-width="1" fill="none" fill-rule="evenodd"><g transform="translate(-284.000000, -380.000000)" fill="#000000"><g transform="translate(284.000000, 380.000000)"><path d="M15,18 C19.9705627,18 24,13.9705627 24,9 C24,4.02943725 19.9705627,0 15,0 C10.0294373,0 6,4.02943725 6,9 C6,13.9705627 10.0294373,18 15,18 Z M15,17 C19.418278,17 23,13.418278 23,9 C23,4.581722 19.418278,1 15,1 C10.581722,1 7,4.581722 7,9 C7,13.418278 10.581722,17 15,17 Z"></path><path d="M9,24 C13.9705627,24 18,19.9705627 18,15 C18,10.0294373 13.9705627,6 9,6 C4.02943725,6 0,10.0294373 0,15 C0,19.9705627 4.02943725,24 9,24 Z M9,23 C13.418278,23 17,19.418278 17,15 C17,10.581722 13.418278,7 9,7 C4.581722,7 1,10.581722 1,15 C1,19.418278 4.581722,23 9,23 Z"></path></g></g></g></svg>