<svg xmlns="http://www.w3.org/2000/svg" xmlns:xlink="http://www.w3.org/1999/xlink" version="1.1" x="0px" y="0px" viewBox="0 0 100 100" enable-background="new 0 0 100 100" xml:space="preserve"><path d="M50,15c-8.123,0-15.6,2.793-21.545,7.454c-0.772-1.186-1.634-2.441-2.594-3.768c-0.848-1.172-2.163-1.854-3.608-1.871  c-0.018,0-0.036,0-0.054,0c-1.425,0-2.733,0.649-3.597,1.788c-5.042,6.644-7.6,11.582-7.602,14.679  c-0.001,3.764,1.932,7.166,4.824,9.232C15.294,44.928,15,47.429,15,50c0,19.299,15.701,35,35,35s35-15.701,35-35S69.299,15,50,15z   M22.191,22.148c4.4,6.167,5.973,9.852,5.972,11.149c0,1.669-0.655,3.252-1.842,4.459c-1.141,1.159-2.665,1.823-4.183,1.823  c-0.001,0-0.002,0-0.003,0c-3.27-0.004-6.136-2.946-6.135-6.295C16.001,31.945,17.632,28.238,22.191,22.148z M50,80  c-16.569,0-30-13.431-30-30c0-1.901,0.194-3.755,0.535-5.558c0.524,0.081,1.054,0.137,1.596,0.137h0.001c0.002,0,0.004,0,0.006,0  c2.849,0,5.672-1.209,7.746-3.316c2.114-2.148,3.278-4.977,3.279-7.964c0.001-1.616-0.721-3.798-2.142-6.514  C36.192,22.551,42.795,20,50,20c16.569,0,30,13.431,30,30S66.569,80,50,80z"></path><path d="M42.769,44.917c-1.076,0-2.069-0.699-2.394-1.783c-0.321-1.071-1.275-1.79-2.374-1.79s-2.052,0.719-2.374,1.79  c-0.396,1.322-1.792,2.071-3.112,1.677c-1.323-0.396-2.073-1.79-1.677-3.112c0.96-3.203,3.838-5.354,7.163-5.354  s6.203,2.152,7.163,5.354c0.396,1.322-0.354,2.716-1.677,3.112C43.249,44.883,43.007,44.917,42.769,44.917z"></path><path d="M66.765,44.917c-1.076,0-2.069-0.7-2.394-1.783c-0.321-1.07-1.274-1.79-2.373-1.79s-2.052,0.719-2.373,1.79  c-0.396,1.322-1.789,2.07-3.112,1.678c-1.322-0.396-2.073-1.79-1.677-3.112c0.959-3.203,3.837-5.355,7.162-5.355  s6.203,2.152,7.162,5.355c0.396,1.323-0.354,2.716-1.677,3.112C67.244,44.883,67.002,44.917,66.765,44.917z"></path><path d="M65.414,66.827c-0.588,0-1.178-0.206-1.653-0.626c-3.802-3.355-8.688-5.204-13.761-5.204s-9.959,1.849-13.761,5.204  c-1.035,0.914-2.615,0.814-3.528-0.22c-0.914-1.035-0.815-2.614,0.22-3.528C37.646,58.29,43.708,55.997,50,55.997  c6.292,0,12.354,2.293,17.069,6.456c1.035,0.914,1.134,2.493,0.22,3.528C66.795,66.541,66.106,66.827,65.414,66.827z"></path></svg>