<svg xmlns="http://www.w3.org/2000/svg" xmlns:xlink="http://www.w3.org/1999/xlink" version="1.1" x="0px" y="0px" viewBox="0 0 50.4 50.4" enable-background="new 0 0 50.4 50.4" xml:space="preserve"><g><path d="M0.536,23.697C0.177,23.361,0,22.92,0,22.374v-7.72c0-0.336,0.167-0.505,0.505-0.505c0.313,0,0.472,0.179,0.472,0.536   v5.703h1.672v-5.766c0-0.315,0.154-0.473,0.472-0.473c0.292,0,0.441,0.169,0.441,0.505v5.734h1.734v-5.766   c0-0.315,0.156-0.473,0.471-0.473c0.333,0,0.502,0.169,0.502,0.505V22.5c0,0.42-0.171,0.809-0.518,1.165   c-0.349,0.357-0.765,0.536-1.246,0.536v14.054c0,0.987-0.452,1.48-1.354,1.48c-0.903,0-1.354-0.493-1.354-1.48V24.201   C1.313,24.201,0.893,24.033,0.536,23.697z"></path><path d="M41.815,25.86c-1.157-0.887-1.391-2.491-0.621-3.695c-0.592,0.003-1.191-0.139-1.697-0.527   c-1.226-0.931-1.457-2.683-0.528-3.905c0.459-0.595,1.113-0.947,1.803-1.049C38.245,12.855,34.248,10,29.39,9.047   C19.784,7.165,10.471,13.424,8.585,23.03c-1.737,8.855,3.456,17.445,11.8,20.212c-0.396-0.623-0.576-1.388-0.422-2.166   c0.182-0.924,0.79-1.621,1.563-2.026c-0.414-0.301-0.707-0.716-0.918-1.177c-5.13-2.416-8.201-8.058-7.064-13.869   c1.165-5.932,6.388-10.235,12.421-10.235c0.816,0,1.64,0.079,2.448,0.238c3.322,0.652,6.19,2.557,8.08,5.365   c1.89,2.81,2.57,6.187,1.918,9.507c-0.464,2.378-1.605,4.476-3.166,6.157c-0.003,0.013,0.002,0.022,0,0.034   c0.451-0.127,0.922-0.186,1.415-0.09c1.582,0.311,2.605,1.796,2.421,3.373c2.11-2.316,3.646-5.203,4.292-8.501   c0.229-1.16,0.331-2.316,0.329-3.455C43.049,26.444,42.377,26.289,41.815,25.86z"></path><path d="M47.595,29.591h-1.445V16.45c0-0.713,0.22-1.292,0.661-1.732c0.395-0.378,0.882-0.568,1.446-0.568   c0.549,0,1.021,0.19,1.42,0.568c0.442,0.442,0.662,1.02,0.662,1.736v21.831c0,0.968-0.452,1.451-1.354,1.451   c-0.929,0-1.391-0.484-1.391-1.454V29.591z"></path><path d="M20.348,36.086c0.312-1.613,1.882-2.668,3.492-2.353c0.126,0.025,0.222,0.102,0.34,0.142   c-0.004-0.205-0.045-0.403-0.004-0.612c0.315-1.616,1.885-2.668,3.495-2.352c1.076,0.21,1.859,0.997,2.195,1.964   c0.655-0.947,1.826-1.474,3.029-1.238c1.074,0.212,1.854,0.997,2.192,1.962c1.11-1.409,1.931-3.069,2.292-4.923   c0.598-3.045-0.024-6.142-1.759-8.718c-1.73-2.577-4.362-4.324-7.411-4.92c-0.74-0.145-1.498-0.219-2.245-0.219   c-5.532,0-10.322,3.947-11.39,9.388c-0.992,5.053,1.503,9.951,5.774,12.338C20.355,36.39,20.317,36.242,20.348,36.086z"></path></g></svg>