<svg xmlns="http://www.w3.org/2000/svg" xmlns:xlink="http://www.w3.org/1999/xlink" version="1.1" x="0px" y="0px" viewBox="0 0 100 100" style="enable-background:new 0 0 100 100;" xml:space="preserve"><path d="M50.2,5c-0.1,0-0.1,0-0.2,0C25.2,5,5.1,25,5,49.8C4.9,74.7,25,94.9,49.8,95c0.1,0,0.1,0,0.2,0c24.8,0,44.9-20,45-44.8  C95.1,25.3,75,5.1,50.2,5z M50,89l-0.1,0c-10.4,0-20.2-4.1-27.5-11.5C15,70.1,11,60.3,11,49.9C11.1,28.4,28.6,11,50,11l0.1,0  c10.4,0,20.2,4.1,27.5,11.5C85,29.9,89,39.7,89,50.1C88.9,71.6,71.4,89,50,89z M71.2,68c1.2,1.2,1.2,3.1,0,4.2  C65.4,78.1,57.7,81,50.1,81c-7.7,0-15.4-3-21.3-8.9c-1.2-1.2-1.2-3.1,0-4.2c1.2-1.2,3.1-1.2,4.2,0c9.3,9.4,24.5,9.4,33.9,0.1  C68.2,66.9,70.1,66.9,71.2,68z M28.1,46.8c-0.6-0.6-1.3-0.9-2.1-0.9c0,0,0,0,0,0c-1.6,0-3,1.3-3,3c0,1.7-1.3,3-3,3c0,0,0,0,0,0  c-1.7,0-3-1.4-3-3c0-5,4.1-9,9-9c0,0,0,0,0,0c2.4,0,4.7,1,6.4,2.7c1.7,1.7,2.6,4,2.6,6.4c0,1.7-1.3,3-3,3c0,0,0,0,0,0  c-1.7,0-3-1.4-3-3C29,48.1,28.7,47.4,28.1,46.8z M83,49.1c0,1.7-1.3,3-3,3c0,0,0,0,0,0c-1.7,0-3-1.4-3-3c0-1.7-1.3-3-3-3  c0,0,0,0,0,0c-1.6,0-3,1.3-3,3c0,1.7-1.3,3-3,3c0,0,0,0,0,0c-1.7,0-3-1.4-3-3c0-5,4.1-9,9-9c0,0,0,0,0,0C79,40.1,83,44.2,83,49.1z"></path></svg>