<svg xmlns:dc="http://purl.org/dc/elements/1.1/" xmlns:cc="http://creativecommons.org/ns#" xmlns:rdf="http://www.w3.org/1999/02/22-rdf-syntax-ns#" xmlns:svg="http://www.w3.org/2000/svg" xmlns="http://www.w3.org/2000/svg" xmlns:sodipodi="http://sodipodi.sourceforge.net/DTD/sodipodi-0.dtd" xmlns:inkscape="http://www.inkscape.org/namespaces/inkscape" viewBox="0 0 16 16" version="1.1" x="0px" y="0px"><g transform="translate(0,-1036.3622)"><g transform="translate(628,-140.49998)"><g transform="translate(-599.5,50.350676)"><g transform="translate(-29.5,89.649313)"><g transform="translate(1.5,-1.5000527)"><g transform="translate(127.5,-148.00021)"><path style="color:#000000;font-style:normal;font-variant:normal;font-weight:normal;font-stretch:normal;font-size:medium;line-height:normal;font-family:sans-serif;text-indent:0;text-align:start;text-decoration:none;text-decoration-line:none;text-decoration-style:solid;text-decoration-color:#000000;letter-spacing:normal;word-spacing:normal;text-transform:none;direction:ltr;block-progression:tb;writing-mode:lr-tb;baseline-shift:baseline;text-anchor:start;white-space:normal;clip-rule:nonzero;display:inline;overflow:visible;visibility:visible;opacity:1;isolation:auto;mix-blend-mode:normal;color-interpolation:sRGB;color-interpolation-filters:linearRGB;solid-color:#000000;solid-opacity:1;fill:#000000;fill-opacity:1;fill-rule:nonzero;stroke:none;stroke-width:1;stroke-linecap:round;stroke-linejoin:round;stroke-miterlimit:4;stroke-dasharray:none;stroke-dashoffset:0;stroke-opacity:1;color-rendering:auto;image-rendering:auto;shape-rendering:auto;text-rendering:auto;enable-background:accumulate" d="M 0.5 0 C 0.22387 0 3e-005 0.2239 0 0.5 L 0 12.5 C 3e-005 12.7761 0.22387 13 0.5 13 L 6.203125 13 C 6.089775 12.6842 6.0420131 12.3438 6.0019531 12 L 1 12 L 1 3 L 12 3 L 12 6.0019531 C 12.34415 6.0419531 12.68381 6.088925 13 6.203125 L 13 0.5 C 12.99997 0.2239 12.77613 0 12.5 0 L 0.5 0 z M 1 1 L 12 1 L 12 2 L 1 2 L 1 1 z M 2 4 L 2 5 L 3 5 L 3 4 L 2 4 z M 4 4 L 4 5 L 5 5 L 5 4 L 4 4 z M 6 4 L 6 5 L 7 5 L 7 4 L 6 4 z M 8 4 L 8 5 L 9 5 L 9 4 L 8 4 z M 10.011719 4 L 10.011719 5 L 11.011719 5 L 11.011719 4 L 10.011719 4 z M 2 6 L 2 7 L 3 7 L 3 6 L 2 6 z M 4 6 L 4 7 L 5 7 L 5 6 L 4 6 z M 6 6 L 6 7 L 7 7 L 7 6 L 6 6 z M 8 6 L 8 7 L 8.5214844 7 C 8.6824344 6.8929 8.82779 6.7678344 9 6.6777344 L 9 6 L 8 6 z M 11.5 7 C 9.0193 7 7.00004 9.0193 7 11.5 C 6.99999 13.9808 9.01926 16 11.5 16 C 13.98074 16 16 13.9808 16 11.5 C 15.99995 9.0193 13.98071 7 11.5 7 z M 11.5 7.8183594 C 13.53877 7.8183594 15.181611 9.4612 15.181641 11.5 C 15.181651 13.5388 13.5388 15.181641 11.5 15.181641 C 9.4612 15.181641 7.8183494 13.5388 7.8183594 11.5 C 7.8183894 9.4612 9.46123 7.8183594 11.5 7.8183594 z M 2 8 L 2 9 L 3 9 L 3 8 L 2 8 z M 4 8 L 4 9 L 5 9 L 5 8 L 4 8 z M 6 8 L 6 9 L 6.6777344 9 C 6.7674344 8.8284 6.89334 8.6839375 7 8.5234375 L 7 8 L 6 8 z M 11.494141 8.9980469 A 0.50005 0.50005 0 0 0 11 9.5058594 L 11 11.498047 A 0.50005 0.50005 0 0 0 11.5 11.998047 L 13.287109 11.998047 A 0.50005 0.50005 0 1 0 13.287109 10.998047 L 12 10.998047 L 12 9.5058594 A 0.50005 0.50005 0 0 0 11.494141 8.9980469 z M 2 10 L 2 11 L 3 11 L 3 10 L 2 10 z M 4 10 L 4 11 L 5 11 L 5 10 L 4 10 z " transform="translate(-128,1186.3625)"></path></g></g></g></g></g></g></svg>