<svg xmlns:dc="http://purl.org/dc/elements/1.1/" xmlns:cc="http://creativecommons.org/ns#" xmlns:rdf="http://www.w3.org/1999/02/22-rdf-syntax-ns#" xmlns:svg="http://www.w3.org/2000/svg" xmlns="http://www.w3.org/2000/svg" xmlns:sodipodi="http://sodipodi.sourceforge.net/DTD/sodipodi-0.dtd" xmlns:inkscape="http://www.inkscape.org/namespaces/inkscape" version="1.1" x="0px" y="0px" viewBox="0 0 100 100"><g transform="translate(0,-952.36218)"><path style="text-indent:0;text-transform:none;direction:ltr;block-progression:tb;baseline-shift:baseline;color:#000000;enable-background:accumulate;" d="m 50,957.34393 c -16.313672,0 -24.222742,2.87175 -33.6875,5.06352 A 3.0003,3.0009086 0 0 0 14,965.34555 l 0,40.00815 c 0,10.4281 7.027573,19.8476 14.625,27.2242 7.597427,7.3765 15.755267,12.6471 20.21875,14.5342 a 3.0003,3.0009086 0 0 0 2.3125,0 c 4.463485,-1.8871 12.621323,-7.1577 20.21875,-14.5342 C 78.972427,1025.2013 86,1015.7818 86,1005.3537 l 0,-40.00815 a 3.0003,3.0009086 0 0 0 -2.3125,-2.9381 C 74.222739,960.21567 66.313673,957.34393 50,957.34393 z m 0,6.00121 c 14.3297,0 21.333823,2.21348 30,4.34464 l 0,37.66392 c 0,7.5912 -5.74158,16.076 -12.78125,22.9109 -6.508412,6.3191 -13.743682,10.9199 -17.21875,12.6275 -3.475067,-1.7076 -10.710337,-6.3084 -17.21875,-12.6275 C 25.74158,1021.4297 20,1012.9449 20,1005.3537 l 0,-37.66392 c 8.66618,-2.13115 15.670303,-4.34464 30,-4.34464 z m 12.8125,20.97301 a 3.0003,3.0009086 0 0 0 -2.03125,1.0002 c -2.420379,2.63226 -7.548459,8.3576 -14.84375,15.72195 -2.451876,-2.47401 -4.980536,-4.91364 -6.78125,-6.78264 a 3.0003,3.0009086 0 1 0 -4.3125,4.1571 c 2.675266,2.77664 5.80375,5.52184 8.9375,8.93934 a 3.0003,3.0009086 0 0 0 4.34375,0.125 c 8.837452,-8.74273 14.594082,-15.37893 17.09375,-18.09743 a 3.0003,3.0009086 0 0 0 -2.40625,-5.06352 z" fill="#000000" fill-opacity="1" stroke="none" marker="none" visibility="visible" display="inline" overflow="visible"></path></g></svg>