<svg xmlns="http://www.w3.org/2000/svg" xmlns:xlink="http://www.w3.org/1999/xlink" version="1.1" x="0px" y="0px" viewBox="0 0 48 48" enable-background="new 0 0 48 48" xml:space="preserve"><g><g><path d="M45.5,40.3H2.5c-1.1,0-2-0.9-2-2V9.7c0-1.1,0.9-2,2-2h43.1c1.1,0,2,0.9,2,2v28.7C47.5,39.4,46.6,40.3,45.5,40.3z     M4.4,36.4h39.2V11.6H4.4V36.4z"></path></g><g><path d="M35.8,40.3C35.8,40.3,35.8,40.3,35.8,40.3H12.2c-0.6,0-1.2-0.3-1.6-0.8c-0.4-0.5-0.5-1.1-0.3-1.7l2.4-8    c0.3-0.8,1-1.4,1.9-1.4h18.7c0.9,0,1.6,0.6,1.9,1.4l2.4,7.7c0.1,0.3,0.2,0.5,0.2,0.8C37.8,39.4,36.9,40.3,35.8,40.3z M14.9,36.4    h18.3l-1.2-4H16.1L14.9,36.4z"></path></g><g><g><path d="M13.5,24c-1.1,0-2-0.9-2-2V22c0-1.1,0.9-2,2-2s2,0.9,2,2v0.1C15.4,23.2,14.5,24,13.5,24z"></path></g><g><path d="M34.5,24c-1.1,0-2-0.9-2-2V22c0-1.1,0.9-2,2-2s2,0.9,2,2v0.1C36.5,23.2,35.6,24,34.5,24z"></path></g></g></g></svg>