<svg xmlns="http://www.w3.org/2000/svg" xmlns:xlink="http://www.w3.org/1999/xlink" version="1.1" x="0px" y="0px" viewBox="0 0 100 100" style="enable-background:new 0 0 100 100;" xml:space="preserve"><g><g><path d="M81.7,78.1C81.7,78.1,81.7,78.1,81.7,78.1H18.3c-0.9,0-1.7-0.5-2.1-1.2c-0.4-0.8-0.4-1.7,0.1-2.5l31.7-51.5    c0.9-1.4,3.3-1.4,4.2,0l31.4,51c0.5,0.4,0.8,1.1,0.8,1.8C84.2,77,83.1,78.1,81.7,78.1z M22.6,73.3h54.6L50,28.9L22.6,73.3z"></path><path d="M50,58.8c-1.3,0-2.4-1.1-2.4-2.4V43.4c0-1.3,1.1-2.4,2.4-2.4c1.3,0,2.4,1.1,2.4,2.4v12.9C52.4,57.7,51.3,58.8,50,58.8z"></path><path d="M50,68.8c-0.7,0-1.3-0.2-1.8-0.7c-0.4-0.4-0.6-1-0.6-1.7c0-0.6,0.2-1.3,0.7-1.7c0.9-0.9,2.5-0.9,3.5,0    c0.4,0.4,0.7,1.1,0.7,1.7c0,0.7-0.3,1.3-0.7,1.8C51.2,68.5,50.6,68.8,50,68.8z"></path></g></g></svg>