<svg xmlns:dc="http://purl.org/dc/elements/1.1/" xmlns:cc="http://creativecommons.org/ns#" xmlns:rdf="http://www.w3.org/1999/02/22-rdf-syntax-ns#" xmlns:svg="http://www.w3.org/2000/svg" xmlns="http://www.w3.org/2000/svg" xmlns:sodipodi="http://sodipodi.sourceforge.net/DTD/sodipodi-0.dtd" xmlns:inkscape="http://www.inkscape.org/namespaces/inkscape" version="1.1" x="0px" y="0px" viewBox="0 0 100 100"><g transform="translate(0,-952.36218)"><path style="text-indent:0;text-transform:none;direction:ltr;block-progression:tb;baseline-shift:baseline;color:#000000;enable-background:accumulate;" d="m 56.375002,975.33091 a 3.0003,3.0003 0 0 0 -2.7812,2.25 l -13,48.00009 a 3.0134711,3.0134711 0 1 0 5.8124,1.5937 l 13,-48.00004 a 3.0003,3.0003 0 0 0 -3.0312,-3.84375 z m -21.6875,5.03125 a 3.0003,3.0003 0 0 0 -1.5625,0.6563 l -24,19.00004 a 3.0003,3.0003 0 0 0 0,4.7187 l 24,19 a 3.0136814,3.0136814 0 1 0 3.75,-4.7187 l -21.0312,-16.625 21.0312,-16.65634 a 3.0003,3.0003 0 0 0 -2.1875,-5.375 z m 29.9375,0 a 3.0003,3.0003 0 0 0 -1.5,5.375 l 21.031196,16.65634 -21.031196,16.625 a 3.0136814,3.0136814 0 1 0 3.75,4.7187 l 23.999996,-19 a 3.0003,3.0003 0 0 0 0,-4.7187 L 66.875002,981.01846 a 3.0003,3.0003 0 0 0 -2.25,-0.6563 z" fill="#000000" fill-opacity="1" stroke="none" marker="none" visibility="visible" display="inline" overflow="visible"></path></g></svg>