<svg xmlns:sketch="http://www.bohemiancoding.com/sketch/ns" xmlns="http://www.w3.org/2000/svg" xmlns:xlink="http://www.w3.org/1999/xlink" version="1.1"
  x="0px" y="0px" viewBox="-31.5 -6 64 64" enable-background="new -31.5 -6 64 64" xml:space="preserve"><title>New Feature</title><desc>Created with Sketch.</desc><g
  sketch:type="MSPage"><g transform="translate(-310.000000, -524.000000)" sketch:type="MSArtboardGroup"><g transform="translate(18.000000, 22.000000)" sketch:type="MSShapeGroup"><g
  transform="translate(0.000000, 6.000000)"><g><path fill="#000000" d="M261.1,532.5v20h20.1v-20H261.1z M276.6,547.9h-10.9V537h10.9V547.9z"></path><path fill="#000000"
  d="M324,504.8c0-0.6-0.4-0.9-1.3-1l-11.4-1.6l-5.1-10.3c-0.3-0.6-0.7-0.9-1.1-0.9s-0.8,0.3-1.1,0.9       l-5.1,10.3l-11.4,1.6c-0.8,0.1-1.3,0.5-1.3,1c0,0.3,0.2,0.7,0.6,1.1l8.2,8l-1.9,11.3c0,0.2,0,0.4,0,0.5c0,0.3,0.1,0.6,0.2,0.8       c0.2,0.2,0.4,0.3,0.7,0.3c0.3,0,0.6-0.1,0.9-0.3l10.2-5.3l10.2,5.3c0.3,0.2,0.6,0.3,0.9,0.3c0.3,0,0.5-0.1,0.7-0.3       c0.2-0.2,0.2-0.5,0.2-0.8c0-0.2,0-0.3,0-0.5l-1.9-11.3l8.2-8C323.8,505.5,324,505.2,324,504.8z"></path><path fill="#000000" d="M261.1,506.4v20h20.1v-20H261.1z M276.6,521.8h-10.9V511h10.9V521.8z"></path><path fill="#000000" d="M287.3,532.5v20h20.1v-20H287.3z M302.8,547.9h-10.9V537h10.9V547.9z"></path></g></g></g></g></g></svg>