<svg xmlns:dc="http://purl.org/dc/elements/1.1/" xmlns:cc="http://creativecommons.org/ns#" xmlns:rdf="http://www.w3.org/1999/02/22-rdf-syntax-ns#" xmlns:svg="http://www.w3.org/2000/svg" xmlns="http://www.w3.org/2000/svg" xmlns:sodipodi="http://sodipodi.sourceforge.net/DTD/sodipodi-0.dtd" xmlns:inkscape="http://www.inkscape.org/namespaces/inkscape" version="1.1" x="0px" y="0px" viewBox="0 0 100 100"><g transform="translate(0,-952.36218)"><path style="" d="m 54.280138,954.86299 c -1.244591,0.01 -2.510249,0.051 -3.799293,0.1348 -15.166927,0.9891 -25.178515,7.4503 -31.489487,20.3275 -2.580028,5.2645 -4.218506,10.8708 -4.608012,15.77 -0.125782,1.5825 -0.07486,1.8404 0.555995,2.6789 0.384168,0.5107 0.699204,1.0989 0.699204,1.3058 0,0.2067 -1.253581,2.2776 -2.788395,4.5995 -3.2185893,4.86911 -5.3365893,8.42491 -5.7705493,9.67941 -0.59785,1.7283 0.36021,2.8546 3.1674863,3.7066 0.370663,0.1125 1.128837,0.4356 1.684831,0.7161 1.150321,0.5804 1.255266,1.0845 0.606539,2.9232 -0.903824,2.5617 -0.39727,3.5506 2.004948,3.934 l 1.19623,0.1938 -1.356289,0.5981 c -0.745234,0.3289 -1.431661,0.7935 -1.524771,1.0362 -0.259033,0.675 0.347425,1.7405 1.347864,2.3587 1.498772,0.9264 1.562472,1.2903 0.640236,3.9762 -1.25125,3.6442 -0.994037,6.6764 0.699205,8.1799 1.818916,1.6152 5.191987,2.1179 9.527717,1.4237 4.167085,-0.6672 6.591422,-0.7986 7.52277,-0.4128 1.094843,0.4535 1.55096,1.5726 1.903858,4.7259 0.401907,3.5914 0.850651,6.6925 1.002475,6.9416 0.06782,0.1111 10.409625,0.2021 22.989515,0.2021 l 22.871577,0 -0.884536,-1.8196 c -2.910983,-5.9421 -4.021044,-12.1394 -3.394934,-19.0133 0.602523,-6.6149 1.707839,-9.4606 5.281944,-13.5966 7.779363,-9.0022 10.689847,-15.97131 10.723948,-25.68521 0.01617,-4.5785 -0.400558,-7.4593 -1.617437,-11.1873 -4.971518,-15.2306 -18.523366,-23.7944 -37.192639,-23.6972 z m -1.280471,18.9881 c 1.524542,0 2.267998,0.1562 3.28542,0.6571 1.894936,0.9328 2.810527,3.1925 3.041119,7.5227 0.0889,1.6693 -0.225026,5.8701 -1.272047,17.0505 l -0.960354,10.25221 -0.328542,3.1844 c -0.162255,1.5643 -0.970233,2.5055 -1.03617,2.6367 -0.320307,0.6378 -1.098267,1.2718 -1.920707,1.5585 -0.576078,0.2008 -1.797405,0.282 -2.375612,0.16 -0.626514,-0.1321 -1.271562,-0.4932 -1.676406,-0.9435 -0.829314,-0.9223 -1.529072,-2.8076 -1.853314,-4.9871 -0.139666,-0.9387 -1.403154,-18.14751 -1.887011,-25.72731 -0.165571,-2.5938 -0.244704,-4.4774 -0.210603,-4.8776 0.231239,-2.7131 1.433629,-4.7019 3.445478,-5.6947 1.239119,-0.6115 2.098369,-0.7957 3.748749,-0.7919 z m -0.429632,50.88191 c 0.72534,0 1.415069,0.1321 2.072342,0.4043 0.657245,0.2719 1.236854,0.6641 1.735375,1.1626 0.498683,0.4987 0.893136,1.0697 1.187806,1.7269 0.294697,0.6573 0.44648,1.3776 0.44648,2.1482 0,0.7253 -0.152484,1.4151 -0.44648,2.0723 -0.29467,0.6573 -0.689123,1.2367 -1.187806,1.7354 -0.498521,0.4985 -1.07813,0.8931 -1.735375,1.1878 -0.657273,0.2947 -1.347002,0.4381 -2.072342,0.4381 -0.770574,0 -1.482489,-0.1441 -2.139735,-0.4381 -0.657435,-0.2947 -1.236855,-0.6893 -1.735376,-1.1878 -0.498683,-0.4987 -0.882218,-1.0781 -1.154109,-1.7354 -0.272053,-0.6572 -0.412783,-1.347 -0.412783,-2.0723 0,-1.5412 0.524265,-2.8325 1.566892,-3.8751 1.042466,-1.0425 2.333963,-1.5669 3.875111,-1.5669 z" fill="#000000"></path></g></svg>