<svg xmlns:dc="http://purl.org/dc/elements/1.1/" xmlns:cc="http://creativecommons.org/ns#" xmlns:rdf="http://www.w3.org/1999/02/22-rdf-syntax-ns#" xmlns:svg="http://www.w3.org/2000/svg" xmlns="http://www.w3.org/2000/svg" xmlns:sodipodi="http://sodipodi.sourceforge.net/DTD/sodipodi-0.dtd" xmlns:inkscape="http://www.inkscape.org/namespaces/inkscape" viewBox="0 0 32 32.000001" version="1.1" x="0px" y="0px"><g transform="translate(0,-1020.3622)"><path style="color:#000000;font-style:normal;font-variant:normal;font-weight:normal;font-stretch:normal;font-size:medium;line-height:normal;font-family:sans-serif;text-indent:0;text-align:start;text-decoration:none;text-decoration-line:none;text-decoration-style:solid;text-decoration-color:#000000;letter-spacing:normal;word-spacing:normal;text-transform:none;direction:ltr;block-progression:tb;writing-mode:lr-tb;baseline-shift:baseline;text-anchor:start;white-space:normal;clip-rule:nonzero;display:inline;overflow:visible;visibility:visible;opacity:1;isolation:auto;mix-blend-mode:normal;color-interpolation:sRGB;color-interpolation-filters:linearRGB;solid-color:#000000;solid-opacity:1;fill:#000000;fill-opacity:1;fill-rule:nonzero;stroke:none;stroke-width:0.99999994;stroke-linecap:round;stroke-linejoin:round;stroke-miterlimit:4;stroke-dasharray:none;stroke-dashoffset:1.39999998;stroke-opacity:1;color-rendering:auto;image-rendering:auto;shape-rendering:auto;text-rendering:auto;enable-background:accumulate" d="M 9 3 L 9 8 L 8.5 8 C 7.6776483 8 7 8.6777 7 9.5 L 7 10 L 2 10 L 2 11 L 7 11 L 7 14 L 2 14 L 2 15 L 7 15 L 7 18 L 2 18 L 2 19 L 7 19 L 7 22 L 2 22 L 2 23 L 7 23 L 7 23.5 C 7 24.3224 7.6776483 25 8.5 25 L 9 25 L 9 30 L 10 30 L 10 25 L 13 25 L 13 30 L 14 30 L 14 25 L 17 25 L 17 30 L 18 30 L 18 25 L 21 25 L 21 30 L 22 30 L 22 25 L 22.5 25 C 23.322352 25 24 24.3224 24 23.5 L 24 23 L 29 23 L 29 22 L 24 22 L 24 19 L 29 19 L 29 18 L 24 18 L 24 15 L 29 15 L 29 14 L 24 14 L 24 11 L 29 11 L 29 10 L 24 10 L 24 9.5 C 24 8.6777 23.322352 8 22.5 8 L 22 8 L 22 3 L 21 3 L 21 8 L 18 8 L 18 3 L 17 3 L 17 8 L 14 8 L 14 3 L 13 3 L 13 8 L 10 8 L 10 3 L 9 3 z M 8.5 9 L 21 9 L 22 9 L 22.5 9 C 22.78565 9 23 9.2144 23 9.5 L 23 10 L 23 11 L 23 14 L 23 15 L 23 18 L 23 19 L 23 22 L 23 23 L 23 23.5 C 23 23.7857 22.78565 24 22.5 24 L 8.5 24 C 8.2143505 24 8 23.7857 8 23.5 L 8 9.5 C 8 9.2144 8.2143505 9 8.5 9 z M 12.875 13 C 12.398979 13 12 13.3989 12 13.875 L 12 19.125 C 12 19.6011 12.398818 20 12.875 20 L 18.125 20 C 18.601181 20 19 19.6011 19 19.125 L 19 13.875 C 19 13.3989 18.601021 13 18.125 13 L 12.875 13 z M 13 14 L 18 14 L 18 19 L 13 19 L 13 14 z " transform="translate(0,1020.3622)"></path></g></svg>