<svg xmlns="http://www.w3.org/2000/svg" xmlns:xlink="http://www.w3.org/1999/xlink" version="1.1" x="0px" y="0px" viewBox="0 0 100 100" enable-background="new 0 0 100 100" xml:space="preserve"><path d="M81.98,79.717l-2.229-15.595c-0.586-4.104-3.572-7.37-7.609-8.32l-11.131-2.618L59,51.172v-3.248  c0.546-0.857,1.439-2.539,1.865-4.895c0.576-0.605,1.277-1.633,1.771-3.323c0.627-2.151,0.525-4.049-0.215-5.278  C62.654,32.549,63,29.643,63,29c0-6.794-6.748-11-13-11c-7.862,0-10.175,4.313-10.775,5.975C38.499,24.806,37,26.791,37,29  c0,0.643,0.346,3.549,0.579,5.428c-0.741,1.23-0.843,3.127-0.214,5.278c0.493,1.69,1.195,2.718,1.771,3.323  c0.425,2.356,1.319,4.038,1.865,4.895v3.248l-2.012,2.012l-11.131,2.619c-4.036,0.95-7.023,4.215-7.609,8.32L18.02,79.717  c-0.082,0.574,0.089,1.155,0.469,1.594C18.869,81.748,19.42,82,20,82h60c0.58,0,1.131-0.252,1.512-0.689  C81.891,80.872,82.063,80.291,81.98,79.717z M39.284,39.145c-0.574-1.966-0.354-3.685,0.392-4.064c0,0-0.676-5.365-0.676-6.082  c0-2,2-4,2-4s1-5,9-5c5,0,11,3.333,11,9c0,0.716-0.676,6.082-0.676,6.082c0.746,0.378,0.966,2.098,0.392,4.064  C60.051,41.423,59,42,59,42c-0.422,3.328-2,5.299-2,5.299V51v2.08c0,0.584-0.255,1.139-0.698,1.518L50,60l-6.302-5.4  C43.255,54.219,43,53.664,43,53.08v-5.781c0,0-1.578-1.97-2-5.299C41,42,39.949,41.423,39.284,39.145z M20,80l2.228-15.596  c0.466-3.26,2.882-5.901,6.087-6.655L40,55l2-2v1l-1,2c0,5.281,1.046,10.51,3.077,15.385L46,76l1-5l2-5l-2-4l3-2l3,2l-2,4l2,5l1,5  l1.923-4.615C57.954,66.51,59,61.281,59,56l-1-2v-1l2,2l11.686,2.749c3.205,0.754,5.621,3.396,6.086,6.655L80,80H20z"></path></svg>