<svg xmlns="http://www.w3.org/2000/svg" xmlns:xlink="http://www.w3.org/1999/xlink" version="1.1" x="0px" y="0px" viewBox="0 0 90 90" enable-background="new 0 0 90 90" xml:space="preserve"><path fill-rule="evenodd" clip-rule="evenodd" d="M74.117,10.588c-8.771,0-15.882,7.111-15.882,15.883  c0,7.867,5.728,14.381,13.235,15.644V45c0,0-0.008,12.364-10.926,15.271C59.041,53.063,52.654,47.646,45,47.646  c-7.654,0-14.041,5.417-15.545,12.624C18.537,57.365,18.529,45,18.529,45v-2.886c7.508-1.263,13.235-7.777,13.235-15.644  c0-8.771-7.111-15.883-15.882-15.883S0,17.699,0,26.471c0,7.867,5.727,14.381,13.235,15.644c0,0.957,0,1.921,0,2.886  c0,14.368,9.744,18.983,16.013,20.469C30.207,73.323,36.887,79.412,45,79.412s14.794-6.089,15.753-13.943  C67.021,63.983,76.765,59.367,76.765,45c0-0.965,0-1.929,0-2.886C84.273,40.852,90,34.337,90,26.471  C90,17.699,82.889,10.588,74.117,10.588z M5.294,26.471c0-5.848,4.741-10.589,10.588-10.589s10.588,4.741,10.588,10.589  c0,5.847-4.741,10.588-10.588,10.588S5.294,32.317,5.294,26.471z"></path></svg>