<svg xmlns="http://www.w3.org/2000/svg" xmlns:xlink="http://www.w3.org/1999/xlink" version="1.1" x="0px" y="0px" viewBox="0 0 24 24" style="enable-background:new 0 0 24 24;" xml:space="preserve"><path d="M17.561,10.628c-0.013,0-0.025,0-0.039,0c-0.26-2.209-2.181-3.925-4.414-3.925c-1.824,0-3.478,1.131-4.142,2.823  c-0.114-0.013-0.231-0.019-0.35-0.019c-1.456,0-2.735,1.018-3.071,2.432c-1.375,0.124-2.44,1.283-2.44,2.672  c0,1.48,1.204,2.685,2.683,2.685h11.772c1.838,0,3.334-1.496,3.334-3.335C20.895,12.124,19.399,10.628,17.561,10.628z   M17.561,16.629H5.788c-1.111,0-2.016-0.905-2.016-2.018c0-1.11,0.903-2.016,2.008-2.018l0.042,0.002  c0.167,0,0.309-0.123,0.33-0.285c0.175-1.218,1.235-2.137,2.464-2.137c0.171,0,0.341,0.018,0.515,0.053l0.058,0.005  c0.146,0,0.273-0.093,0.316-0.231c0.503-1.573,1.951-2.631,3.603-2.631c2.033,0,3.691,1.593,3.775,3.624  c0.003,0.093,0.045,0.181,0.116,0.241c0.062,0.053,0.139,0.077,0.253,0.078c0.112-0.012,0.213-0.02,0.308-0.02  c1.471,0,2.667,1.197,2.667,2.668S19.031,16.629,17.561,16.629z"></path></svg>