<svg xmlns="http://www.w3.org/2000/svg" xmlns:xlink="http://www.w3.org/1999/xlink" version="1.1" x="0px" y="0px" viewBox="0 0 100 100" enable-background="new 0 0 100 100" xml:space="preserve"><path d="M75.9,42.5l-17-1.9L51.8,25.2c-0.683-1.595-2.916-1.598-3.6,0l-7.1,15.4l-17,1.9c-1.784,0.223-2.368,2.443-1.1,3.5  l12.6,11.4L32.1,74c-0.452,1.804,1.671,2.985,3,2.1L50,67.8l14.9,8.3c1.335,0.892,3.229-0.264,3-2.1l-3.4-16.6L77.1,46  C78.378,44.721,77.52,42.703,75.9,42.5z M62.3,56.7L65.9,74.4L50,65.5l-15.9,8.9l3.6-17.7L24.3,44.5l18.1-2.1L50,26.1l7.6,16.4  L75.7,44.6L62.3,56.7z"></path></svg>