<?xml version="1.0" encoding="UTF-8"?>
<svg width="1200pt" height="1200pt" version="1.1" viewBox="0 0 1200 1200" xmlns="http://www.w3.org/2000/svg">
 <path d="m1116.4 445.32c-13.211-12.238-74.652-14.762-115.21-15.359h-5.1484c-1.8008 0-3.4805-0.12109-5.1602 0-6.4805-0.12109-12.133-0.12109-16.559-0.12109-32.762 0-46.32 33.48-48.84 46.32-3.1211 16.922-15.359 59.762-23.398 87.84l-3.9609-4.6797v-0.23828l-3.7188-4.8008c7.9219-27.602 18.48-65.039 21.348-79.922 2.8789-15.121 18.961-54.48 58.57-54.48 6.2383 0 12.602 0 18.949 0.12109 4.3203-21 0.73047-37.801-10.309-48-8.1602-7.5586-43.211-11.641-104.4-12-4.0781-0.12109-8.1602-0.12109-12.48-0.12109-25.441 0-35.879 26.039-37.801 36-2.2695 12-9.8281 36.121-15.828 54.359l-3.7305-4.8008-3.6016-4.5586c5.3984-17.039 11.398-36.719 13.32-46.801 2.3984-12.238 15.48-44.16 47.641-44.16 4.9219 0 9.9609 0 15 0.12109 2.8789-17.281-0.71875-31.078-10.078-39.84-11.52-10.68-72.254-16.32-94.441-16.32-22.32 0-32.16 22.078-34.078 31.922-1.9219 9.7188-6.2539 25.68-9.3594 36.961-10.789-5.5195-23.879-9.9609-39.121-13.32l-0.003906-66.242c0-23.879-39.961-43.32-89.16-43.32-49.32 0-89.281 19.441-89.281 43.32v66.121c-14.641 3.2383-27.121 7.4414-37.68 12.719-3.2539-11.281-7.4414-26.762-9.2539-36.238-1.7891-9.8398-11.746-31.922-33.961-31.922-22.199 0-83.039 5.6406-94.559 16.32-9.4805 8.7617-12.961 22.559-9.8398 39.84 5.0508-0.12109 9.9609-0.12109 14.879-0.12109 32.172 0 45.254 31.922 47.52 44.16 1.9219 9.8398 7.6914 28.801 12.961 45.359l-3.7188 4.6797-3.707 4.6836c-5.8672-18.121-13.078-41.281-15.238-52.922-1.9219-9.9609-12.48-36-37.801-36-4.3086 0-8.3984 0-12.48 0.12109-61.309 0.35938-96.348 4.4414-104.52 12-11.039 10.199-14.641 27-10.309 48 6.4805-0.12109 12.828-0.12109 19.078-0.12109 39.48 0 55.68 39.359 58.559 54.48 2.7461 14.641 12.961 51 20.879 78.48l-3.7305 4.8008-3.8281 4.6797c-8.1719-28.078-20.051-69.602-23.172-86.16-2.5195-12.84-15.961-46.32-48.719-46.32-4.4414 0-10.078 0-16.691 0.12109-1.6797-0.12109-3.3477 0-5.0391 0h-5.2695c-40.559 0.59766-101.88 3.1172-115.08 15.359-16.922 15.602-20.281 42.961-9.6133 76.801 14.039 43.922 51.254 248.04 52.801 256.68 0.12109 0 11.398 23.762 78.48 34.441v73.199l-63.84-25.441c-6.1211-2.3984-13.078 0.60156-15.602 6.7188-1.6797 4.3203-0.71875 9.1211 2.1602 12.359-1.7891 2.2812-2.8672 5.2812-2.8672 8.3984 0 7.8008 6.3477 14.039 14.16 14.039 6.8398 0 12.48-4.6797 13.922-11.039l36.238 14.52-56.867 22.68c-6.1328 2.3984-9.1328 9.4805-6.7305 15.602 0.35938 0.83984 0.73047 1.5586 1.3203 2.2812-1.3203 2.1602-2.0391 4.6797-2.0391 7.3203 0 7.8008 6.3477 14.16 14.16 14.16s14.16-6.3594 14.16-14.16c0-2.5195-0.71875-4.9219-1.7891-6.9609l70.199-27.961 68.762 27.48c-0.61328 1.4414-0.83984 3-0.83984 4.5586 0 7.8008 6.2383 14.16 14.039 14.16s14.16-6.3594 14.16-14.16c0-1.9219-0.34766-3.6016-0.96094-5.2812 0.35938-0.48047 0.48047-0.96094 0.73047-1.4414 2.5195-6.1211-0.48047-13.199-6.7305-15.602l-56.895-22.672 38.52-15.359c2.5195 3.4805 6.6016 5.6406 11.16 5.6406 7.8008 0 14.16-6.3594 14.16-14.16 0-1.5586-0.23828-3-0.71875-4.3203 1.5586-3 1.9219-6.7188 0.48047-10.078-2.3984-6.1211-9.4805-9.1211-15.602-6.7188l-63.84 25.441v-69.48c2.3984 0.12109 4.8008 0.23828 7.3203 0.48047 3.8281 1.8008 7.7891 3.7188 12 5.3984 4.0781 1.8008 8.2695 3.6016 12.719 5.2812 28.32 11.16 62.52 21 99.84 29.039 17.398 11.398 33 27.719 33 49.199v112.08s18.121 40.441 195 40.441c177 0 195.12-40.441 195.12-40.441v-112.08c0-20.039 13.559-35.52 29.398-46.801h0.12109c43.199-8.2812 82.68-18.961 113.52-31.801h0.12109 0.13281s0.12109 0 0.12109-0.12109c1.5586 0 3.1211-0.12109 4.6797-0.23828v59.16l-63.961-25.559c-6-2.3984-13.078 0.60156-15.602 6.7188-1.6797 4.3203-0.71875 9.1211 2.1602 12.359-1.7891 2.2812-2.8672 5.2812-2.8672 8.3984 0 7.8008 6.3477 14.039 14.16 14.039 6.8398 0 12.48-4.6797 13.922-11.039l36.238 14.52-56.879 22.68c-6.1211 2.3984-9.1211 9.4805-6.7188 15.602 0.35938 0.83984 0.71875 1.5586 1.3203 2.2812-1.3203 2.1602-2.0391 4.6797-2.0391 7.3203 0 7.8008 6.3477 14.16 14.16 14.16 7.7891 0 14.16-6.3594 14.16-14.16 0-2.5195-0.71875-4.9219-1.7891-6.9609l70.199-27.961 68.762 27.359c-0.61328 1.4414-0.83984 3-0.83984 4.6797 0 7.8008 6.2383 14.16 14.039 14.16s14.16-6.3594 14.16-14.16c0-1.9219-0.34766-3.6016-0.96094-5.2812 0.35938-0.48047 0.48047-0.96094 0.73047-1.4414 2.5195-6.1211-0.48047-13.199-6.6016-15.602l-56.879-22.68 38.398-15.359c2.5195 3.4805 6.6016 5.6406 11.16 5.6406 7.8008 0 14.16-6.3594 14.16-14.16 0-1.5586-0.23828-3-0.71875-4.3203 1.5586-3 1.9219-6.7188 0.48047-10.078-2.3984-6.1211-9.4805-9.1211-15.48-6.7188l-63.961 25.559v-72c75.84-9.9609 87.719-36.359 87.961-36.719 1.3086-7.6797 38.52-211.8 52.441-255.72 10.629-33.84 7.2695-61.199-9.5312-76.801zm-130.56 272.76c-0.13281 0.60156-0.25391 1.0781-0.48047 1.4414-15.242 38.039-193.8 84.48-380.64 84.48-191.16 0-359.75-54.84-375.72-90.359-0.35938-0.83984-0.60156-1.5586-0.73047-2.3984-0.23828-0.71875-0.23828-1.4414 0-2.2812v-1.1992l0.48047 0.12109c0.35937-1.1992 1.2109-2.5195 2.6523-4.1992l71.398-90.719 22.68-28.801 66.719-84.719 23.52-29.762 55.32-70.32c11.762-14.281 44.641-31.199 133.8-31.199 71.16 0 116.16 10.559 133.43 30.84l56.762 71.879v0.12109l15.238 19.441 0.13281 0.23828 0.12109 0.12109 74.746 94.922 17.051 21.602 0.24219 0.24219 75.602 96.121 1.3203 1.4414c6.7148 6.3477 6.9531 10.547 6.3555 12.945z"/>
</svg>
