<?xml version="1.0" encoding="UTF-8"?>
<svg width="1200pt" height="1200pt" version="1.1" viewBox="0 0 1200 1200" xmlns="http://www.w3.org/2000/svg">
 <path d="m516.91 962.36c-6.5156-23.555-22.273-40.633-47.184-47.363-7.6445-2.0625-14.93-6.3477-22.621-7.1406-13.609-1.3906-28.02-3.6133-40.992-0.63672-29.902 6.8516-56.16 22.402-80.363 41.113-4.1172 3.1797-8.4609 7.3086-10.262 11.941-4.2734 10.969-6.9375 22.547-10.512 33.805-4.2227 13.285-1.3789 24.84 4.5 37.547 6.6016 14.27 9.2656 30.406 13.211 45.84 4.7266 18.48 20.398 27.91 34.391 35.977 19.391 11.172 41.398 18.098 62.773 25.43 6.6719 2.293 14.965 0.5625 22.414-0.23828 20.125-2.1836 34.945-15.266 50.578-26.172 7.3906-5.1484 14.785-11.746 19.211-19.391 10.871-18.805 19.906-38.617 14.016-61.727 0.96094-0.046875 1.9062-0.097656 2.8672-0.14453-3.8516-23.012-5.8438-46.508-12.027-68.84z"/>
 <path d="m339.28 838.36c0.55078 12.898 27.73 38.305 45.695 35.785 19.152-2.6875 43.008-28.727 41.641-47.184-0.27734-28.789-20.508-40.285-39.938-39.602-22.934 0.79297-48.312 29.809-47.398 51z"/>
 <path d="m459.86 837.49c-0.3125 7.9336-1.8359 18.781 2.4727 23.316 8.2422 8.7109 19.488 16.883 30.875 19.777 15.793 4.0078 30.109-14.711 32.125-38.125 1.7266-19.957-10.129-35.328-28.633-37.164-12.922-1.2734-36.301 18.609-36.84 32.195z"/>
 <path d="m272.84 918.34c-10.211 4.9688-20.34 10.094-30.637 14.855-10.391 4.8125-15.324 13.211-14.195 24.07 1.5469 14.902 10.836 24.469 23.484 26.23 20.605 2.8672 45-20.555 43.391-41.676-0.71875-9.2734-12.719-21.488-22.043-23.48z"/>
 <path d="m571.62 893.47c-13.883-0.83984-30.758 22.848-30.961 43.477-0.10938 10.766 14.867 21.781 30.336 22.309 15.805 0.53906 28.727-14.258 29.125-33.348 0.25-11.57-17.496-31.777-28.5-32.438z"/>
 <path d="m319.96 552.37c15.805 15.852 35.242 28.262 53.965 40.922 5.8438 3.9492 14.293 4.4531 21.695 5.6172 19.992 3.1445 37.715-5.6172 55.656-12.07 8.4727-3.0469 17.34-7.4766 23.605-13.715 15.395-15.312 29.293-32.09 29.641-55.934 0.9375 0.20312 1.8711 0.40625 2.8086 0.61328 2.293-23.184 6.5039-46.391 6.3594-69.562-0.14453-24.445-10.895-45.035-33.203-58.031-6.8398-3.9844-12.758-10.02-19.98-12.793-12.77-4.8945-26.113-10.801-39.406-11.316-30.648-1.1875-60.059 6.9727-88.309 18.719-4.8008 1.9922-10.066 4.8477-13.02 8.8555-6.9844 9.4805-12.574 19.957-18.973 29.891-7.5469 11.723-7.8242 23.617-5.4492 37.414 2.6523 15.492 1.0078 31.766 0.80469 47.699-0.25781 19.082 12.402 32.27 23.805 43.691z"/>
 <path d="m409.33 328.64c19.188 2.3984 49.008-16.512 52.512-34.691 7.2344-27.863-9.2891-44.242-28.223-48.648-22.344-5.207-54.422 16.188-59.062 36.875-2.8359 12.602 16.773 44.219 34.773 46.465z"/>
 <path d="m535.15 291.36c-12.145-4.6094-39.898 8.4844-43.957 21.457-2.375 7.5859-6.6719 17.652-3.707 23.16 5.6875 10.559 14.398 21.383 24.648 27.145 14.207 7.9922 32.902-6.3477 40.957-28.414 6.8633-18.82-0.55469-36.746-17.941-43.348z"/>
 <path d="m251.94 399.39c19.141 8.1484 48.805-8.1016 52.754-28.906 1.7383-9.1445-6.6602-24.059-15.145-28.43-11.148 2.125-22.273 4.4297-33.457 6.3477-11.293 1.9336-18.238 8.7617-19.98 19.535-2.3906 14.797 4.0781 26.449 15.828 31.453z"/>
 <path d="m543.25 429.89c-2.9023 10.367 8.6758 24.898 23.461 29.449 15.109 4.6445 31.453-6.2656 36.816-24.59 3.2539-11.102-8.6172-35.23-19.055-38.746-13.18-4.4414-35.656 14.039-41.223 33.887z"/>
 <path d="m862.92 663.39c-2.3516-3.707-7.1641-6.6367-11.617-8.7734-26.242-12.602-54.133-22.199-84.562-23.844-13.199-0.71875-27.215 3.2031-40.512 6.3242-7.5234 1.7656-14.219 6.457-21.527 9.2891-23.855 9.2656-37.367 26.09-40.957 47.16-3.4062 19.98-2.5195 40.355-3.5156 60.562 0.94922-0.097656 1.9062-0.19141 2.8555-0.27734-3.0117 20.594 8.3398 36.277 21.383 50.832 5.3164 5.9297 13.441 10.523 21.371 13.883 16.801 7.1289 33.07 16.223 53.258 15.266 7.4766-0.35938 15.887-0.046875 22.223-2.9531 20.27-9.2891 41.207-18.301 59.051-30.59 12.863-8.8672 27.227-19.141 29.676-35.617 2.0391-13.754 2.6992-27.938 7.5117-41.074 4.2852-11.699 5.6875-21.984-0.10938-32.746-4.918-9.1289-8.9609-18.656-14.527-27.441z"/>
 <path d="m736.67 564.98c0.89844 15.984 27.684 34.895 46.969 34.5 18.098-0.37109 41.902-25.934 40.883-37.043-1.6797-18.254-30.336-39.492-53.137-36.961-19.309 2.1602-37.941 14.844-34.715 39.504z"/>
 <path d="m677.27 620.26c10.934-4.0781 21.059-12.648 28.164-21.266 3.707-4.5 0.88672-13.547-0.39453-20.305-2.1836-11.543-27.742-25.262-40.391-22.344-18.098 4.1758-27.961 18.996-23.82 35.82 4.832 19.738 21.285 33.742 36.441 28.094z"/>
 <path d="m932.16 629.9c-10.777-2.6289-21.434-5.5781-32.148-8.3867-8.9883 3.0234-19.379 15.156-18.961 23.195 0.97266 18.289 27.984 34.895 48.023 29.531 12.312-3.2891 20.34-12.77 20.051-25.738-0.1875-9.4453-6.082-15.949-16.965-18.602z"/>
 <path d="m601.2 642.31c-10.812 2.125-25.934 21.898-24.277 31.766 2.7227 16.273 17.316 27.109 32.891 24.422 15.254-2.6289 28.727-14.16 27.324-23.352-2.707-17.621-22.305-35.523-35.938-32.836z"/>
 <path d="m666.29 241.29c-10.945 17.699-6.7422 36.613-0.55078 55.141 2.5195 7.5469 8.1602 14.988 14.102 21.238 12.59 13.211 23.902 28.02 42.816 35.16 6.9961 2.6406 14.605 6.2656 21.562 6.1211 22.285-0.46875 45.086-0.43359 66.336-4.6211 15.336-3.0234 32.594-6.7578 41.375-20.902 7.332-11.82 13.57-24.562 23.195-34.715 8.5781-9.0352 13.945-17.914 12.898-30.109-0.88672-10.32-0.81641-20.676-2.4375-30.949-0.68359-4.3438-3.9375-8.9297-7.1758-12.66-19.078-21.984-40.871-41.867-68.148-55.465-11.832-5.9023-26.242-7.8594-39.684-10.285-7.6094-1.3789-15.613 0.27734-23.449-0.023437-25.57-0.97266-44.652 9.1094-56.316 27.012-11.051 16.98-18.336 36.047-27.277 54.191 0.92969 0.27734 1.8398 0.57812 2.7539 0.86719z"/>
 <path d="m838.21 147.5c16.754 6.8398 48.758-7.1641 52.234-17.762 5.7109-17.41-12.156-48.289-34.094-55.02-18.582-5.6992-40.711-1.4492-47.551 22.465-5.5195 15.023 11.555 43.02 29.41 50.316z"/>
 <path d="m732.34 124.32c11.652 0.60156 24.348-3.2539 34.285-8.3398 5.1836-2.6523 6.1914-12.086 7.7031-18.781 2.5781-11.461-15.434-34.199-28.199-36.551-18.266-3.3477-33.203 6.3359-36.098 23.426-3.3711 20.039 6.1562 39.418 22.309 40.246z"/>
 <path d="m962.45 234.39c-8.8438-6.6836-17.449-13.633-26.172-20.461-9.457-0.79297-23.809 6.2148-26.605 13.766-6.3594 17.172 11.82 43.141 32.352 46.176 12.602 1.8594 23.734-3.6484 28.633-15.66 3.5625-8.7578 0.71875-17.062-8.207-23.82z"/>
 <path d="m673.71 158.76c4.5117-17.242-6.3594-41.438-19.945-44.398-10.766-2.3398-32.496 9.8047-34.895 19.512-3.9609 16.02 5.125 31.754 20.496 35.473 15.035 3.6328 31.98-1.5859 34.344-10.586z"/>
</svg>
