<?xml version="1.0" encoding="UTF-8"?>
<svg width="1200pt" height="1200pt" version="1.1" viewBox="200 200 800 800" xmlns="http://www.w3.org/2000/svg">
 <path d="m860.64 526.8c-0.13281-35.223-12.285-69.344-34.441-96.723 7.5234-31.301 5.1758-64.164-6.7188-94.078-2.3438-5.7578-7.1445-10.16-13.082-12-8.3984-2.8789-40.199-8.2812-105 33.719-27.867-7.3555-56.621-10.828-85.438-10.32-28.859-0.51172-57.652 2.9609-85.562 10.32-66.48-42.961-101.04-36-108-33.961v0.003907c-5.9688 1.9219-10.766 6.4102-13.078 12.238-11.922 29.816-14.355 62.59-6.9609 93.84-22.879 27.242-35.078 61.871-34.32 97.441 0 132.72 75.961 172.8 145.56 186.96-3.5742 8.7383-6.0352 17.891-7.3203 27.242-0.125 0.99609-0.125 2.0039 0 3v36.719c-63.359 5.2812-76.922-31.801-78.238-36h-0.003907c-0.30469-0.97656-0.66797-1.9414-1.0781-2.8789-12.238-24.969-33.781-44.141-60-53.398-7.1172-2.3828-14.965-0.78125-20.582 4.1914-5.6172 4.9727-8.1562 12.566-6.6602 19.918 1.4961 7.3555 6.8047 13.348 13.922 15.73 14.527 5.2461 26.645 15.613 34.078 29.16 8.3984 27.238 42.719 70.32 118.32 65.52v34.559c0 7.5039 4.0039 14.434 10.5 18.188 6.5 3.75 14.504 3.75 21 0 6.5-3.7539 10.5-10.684 10.5-18.188v-111.96c1.5938-12.227 6.9141-23.664 15.242-32.758 3.9062-3.6602 6.2617-8.6836 6.5742-14.027 0.3125-5.3477-1.4414-10.609-4.8984-14.699-3.457-4.0859-8.3555-6.6914-13.676-7.2734-73.199-8.5195-140.88-32.641-140.88-150.84h-0.003906c-0.98047-28.848 10.16-56.789 30.723-77.043 2.7344-2.9414 4.625-6.5703 5.4688-10.5 0.84375-3.9258 0.61328-8.0117-0.66797-11.82-7.0703-20.539-7.5312-42.781-1.3203-63.598 25.766 5.8164 49.961 17.156 70.918 33.238 5.457 3.6094 12.258 4.5391 18.48 2.5195 26.664-8.1133 54.457-11.883 82.32-11.16 27.82-0.72266 55.578 3.043 82.199 11.16 6.2227 2.0391 13.031 1.1094 18.48-2.5195 20.184-15.465 43.289-26.688 67.922-33 6.1172 21.051 5.5703 43.477-1.5625 64.203-1.1758 3.457-1.4141 7.1641-0.69922 10.746s2.3633 6.9102 4.7812 9.6523c19.863 21.211 31.117 49.062 31.559 78.121 0 117.96-71.16 142.44-140.88 150.84-5.5977 0.62109-10.707 3.4805-14.168 7.9258-3.4609 4.4453-4.9805 10.098-4.2109 15.68 0.77344 5.5781 3.7617 10.609 8.2969 13.953 7.4414 5.6406 16.078 21.48 16.078 48v95.039h0.003906c0 7.5039 4 14.438 10.5 18.188 6.4961 3.75 14.5 3.75 21 0 6.4961-3.75 10.5-10.684 10.5-18.188v-95.039c0.21875-16.711-2.8398-33.305-9-48.84 56.398-12 143.52-49.078 143.52-187.2z"/>
</svg>
