<?xml version="1.0" encoding="UTF-8"?>
<svg width="1200pt" height="1200pt" version="1.1" viewBox="0 0 1200 1200" xmlns="http://www.w3.org/2000/svg">
 <path d="m1087.2 140.4c-44.398-3.6016-84 28.801-94.801 72l-32.398 132c-19.199 75.602-84 130.8-163.2 136.8-73.199 6-156 8.3984-244.8 8.3984-22.801 0-46.801 1.1992-70.801 2.3984-186 10.805-342 136.8-391.2 314.4l-56.398 208.8c-12 42 4.8008 88.801 43.199 108 13.199 7.1992 27.602 10.801 42 10.801 39.602 0 75.602-26.398 86.398-66l58.801-213.6c12-45.602 37.199-84 69.602-114l-3.6016 384c0 22.801 18 40.801 40.801 40.801h357.6c22.801 0 40.801-18 40.801-40.801l-3.6016-459.6c14.398-1.1992 28.801-2.3984 43.199-2.3984 156-12 285.6-122.4 324-273.6l34.801-136.8c13.199-52.801-24-106.8-80.402-111.6z"/>
 <path d="m751.2 236.4c0 110.68-89.723 200.4-200.4 200.4-110.68 0-200.4-89.723-200.4-200.4 0-110.68 89.723-200.4 200.4-200.4 110.68 0 200.4 89.723 200.4 200.4z"/>
</svg>
