<svg height='100px' width='100px'  fill="#000000" xmlns="http://www.w3.org/2000/svg" xmlns:xlink="http://www.w3.org/1999/xlink" xml:space="preserve" version="1.1" style="shape-rendering:geometricPrecision;text-rendering:geometricPrecision;image-rendering:optimizeQuality;" viewBox="0 0 7.005 7.005" x="0px" y="0px" fill-rule="evenodd" clip-rule="evenodd"><defs><style type="text/css">
   
    .fil0 {fill:none}
    .fil1 {fill:#000000;fill-rule:nonzero}
   
  </style></defs><g><g><rect class="fil0" width="7.005" height="7.005"></rect><path class="fil1" d="M3.297 4.943l0 -1.235 -2.058 0 0 1.235 0.823 0 0 2.057 -2.057 0 0 -2.057 0.205 0 0.618 0 0 -1.646 2.469 0 0 -1.235 -0.823 0 0 -2.057 0.205 0 1.852 0 0 2.057 -0.823 0 0 1.235 2.469 0 0 1.646 0.823 0 0 2.057 -2.057 0 0 -2.057 0.205 0 0.618 0 0 -1.235 -2.058 0 0 1.235 0.823 0 0 2.057 -2.057 0 0 -2.057 0.205 0 0.618 0zm0.823 0.411l-1.235 0 0 1.235 1.235 0 0 -1.235zm0 -4.938l-1.235 0 0 1.235 1.235 0 0 -1.235zm-2.469 4.938l-1.235 0 0 1.235 1.235 0 0 -1.235zm4.938 0l-1.235 0 0 1.235 1.235 0 0 -1.235z"></path></g></g></svg>