<?xml version="1.0" encoding="UTF-8"?>
<svg width="1200pt" height="1200pt" version="1.1" viewBox="0 0 1200 1200" xmlns="http://www.w3.org/2000/svg" fill="#0ac18655">
 <path d="m1106.2 993.75h-59.25l73.5-25.875c4.6875-1.6875 8.625-5.25 10.688-9.75s2.4375-9.75 0.5625-14.438l-321-860.81c-7.125-19.312-28.875-29.25-48.188-21.938l-143.81 53.438v-20.625c0-20.625-16.875-37.5-37.5-37.5h-150c-20.625 0-37.5 16.875-37.5 37.5v112.69h-112.5v-112.69c0-20.625-16.875-37.5-37.5-37.5h-150c-20.625 0-37.5 16.875-37.5 37.5v1012.5c0 20.625 16.875 37.5 37.5 37.5h1012.5c20.625 0 37.5-16.875 37.5-37.5v-75c0-20.625-16.875-37.5-37.5-37.5zm-16.312-54.938-141.56 49.875-90.562-243 140.62-52.312zm-104.81-280.69-140.62 52.312-26.25-70.312 140.62-52.312zm-209.62-562.12 170.25 456.75-140.62 52.312-170.06-456.75zm-156.75 116.06 291.38 781.69h-291.38zm-187.5-118.31h150v487.5h-150zm0 525h150v75h-150zm0 112.5h150v262.5h-150zm-150-487.31h112.5v149.81h-112.5zm0 187.31h112.5v375h-112.5zm0 412.5h112.5v150h-112.5zm-187.5-750h150v900h-150zm0 1012.5v-75h1012.5v75z"/>
 <path d="m506.25 187.5c-30.938 0-56.25 25.312-56.25 56.25s25.312 56.25 56.25 56.25 56.25-25.312 56.25-56.25-25.312-56.25-56.25-56.25zm0 75c-10.312 0-18.75-8.4375-18.75-18.75s8.4375-18.75 18.75-18.75 18.75 8.4375 18.75 18.75-8.4375 18.75-18.75 18.75z"/>
 <path d="m810.38 243c-5.25-14.062-15.75-25.312-29.25-31.5-13.688-6.1875-28.875-6.75-42.938-1.5s-25.312 15.75-31.5 29.438-6.75 28.875-1.5 42.938c8.4375 22.688 30 36.562 52.688 36.562 6.5625 0 13.125-1.125 19.5-3.5625 14.062-5.25 25.312-15.75 31.5-29.25 6.1875-13.688 6.75-29.062 1.5-43.125zm-46.125 37.125c-9.75 3.75-20.438-1.3125-24.188-11.062-3.5625-9.75 1.3125-20.438 11.062-24.188 2.0625-0.75 4.3125-1.125 6.5625-1.125 7.6875 0 14.812 4.6875 17.625 12.188 3.5625 9.9375-1.3125 20.625-11.062 24.188z"/>
 <path d="m168.75 187.5c-30.938 0-56.25 25.312-56.25 56.25s25.312 56.25 56.25 56.25 56.25-25.312 56.25-56.25-25.312-56.25-56.25-56.25zm0 75c-10.312 0-18.75-8.4375-18.75-18.75s8.4375-18.75 18.75-18.75 18.75 8.4375 18.75 18.75-8.4375 18.75-18.75 18.75z"/>
 <path d="m168.75 712.5c-30.938 0-56.25 25.312-56.25 56.25s25.312 56.25 56.25 56.25 56.25-25.312 56.25-56.25-25.312-56.25-56.25-56.25zm0 75c-10.312 0-18.75-8.4375-18.75-18.75s8.4375-18.75 18.75-18.75 18.75 8.4375 18.75 18.75-8.4375 18.75-18.75 18.75z"/>
 <path d="m187.5 637.5v-262.5c0-10.312-8.4375-18.75-18.75-18.75s-18.75 8.4375-18.75 18.75v262.5c0 10.312 8.4375 18.75 18.75 18.75s18.75-8.4375 18.75-18.75z"/>
 <path d="m337.5 468.75c-10.312 0-18.75 8.4375-18.75 18.75v262.5c0 10.312 8.4375 18.75 18.75 18.75s18.75-8.4375 18.75-18.75v-262.5c0-10.312-8.4375-18.75-18.75-18.75z"/>
</svg>
