<?xml version="1.0" encoding="UTF-8"?>
<svg width="1200pt" height="1200pt" version="1.1" viewBox="0 0 1200 1200" xmlns="http://www.w3.org/2000/svg">
 <path d="m878.76 553.45-198.14-343.13c-8.625-14.906-20.25-26.625-33.891-34.5l0.046876-0.046875c-13.547-7.8281-29.438-11.953-46.781-11.953-16.828 0-32.297 3.9375-45.609 11.297l-1.125 0.70312c-13.688 7.875-25.266 19.594-33.891 34.5l-198.14 343.13-0.046875-0.046875-198.1 343.08c-8.5781 14.812-12.844 30.703-12.844 46.641 0 15.469 4.0312 30.891 12.141 45.375 0.23438 0.375 0.46875 0.75 0.70312 1.1719 8.6719 15 20.25 26.672 33.797 34.5 13.594 7.8281 29.484 12 46.828 12h792.47c17.344 0 33.281-4.1719 46.828-12 13.594-7.8281 25.172-19.547 33.797-34.5l0.046875 0.046875c8.5312-14.812 12.797-30.656 12.797-46.547s-4.2656-31.781-12.844-46.641l-197.29-341.76c-0.28125-0.42188-0.5625-0.84375-0.79688-1.3125zm-154.74-368.29 198.14 343.13c0.28125 0.46875 0.51562 0.9375 0.75 1.4062l197.34 341.86c13.125 22.781 19.734 47.156 19.734 71.578s-6.5625 48.797-19.734 71.578l-0.046874 0.09375 0.046874 0.046875c-13.031 22.594-30.938 40.453-52.266 52.781-21.328 12.328-45.75 18.891-71.766 18.891l-792.47-0.046875c-26.062 0-50.438-6.5625-71.766-18.891-21.328-12.328-39.234-30.188-52.266-52.781-0.28125-0.51562-0.5625-1.0312-0.84375-1.5469-12.609-22.359-18.891-46.219-18.891-70.125 0-24.375 6.5625-48.797 19.734-71.578l198.14-343.22-0.046875-0.046875 198.14-343.13c13.078-22.641 30.938-40.5 52.172-52.781l1.5469-0.84375c21-11.766 44.859-18.047 70.312-18.047 26.062 0 50.438 6.5625 71.766 18.891l0.09375 0.046875 0.046875-0.046875c21.234 12.234 39.094 30.141 52.172 52.781zm-102.7 688.08c5.4375 5.4375 8.8594 13.031 8.8594 21.375s-3.375 15.891-8.8594 21.375c-5.4375 5.4375-13.031 8.8594-21.375 8.8594s-15.891-3.375-21.375-8.8594c-5.4375-5.4375-8.8594-13.031-8.8594-21.375s3.375-15.891 8.8594-21.375c5.4375-5.4375 13.031-8.8594 21.375-8.8594s15.891 3.375 21.375 8.8594zm-21.375-59.109c22.219 0 42.328 9 56.906 23.578 14.578 14.578 23.578 34.688 23.578 56.906s-9 42.328-23.578 56.906c-14.578 14.578-34.688 23.578-56.906 23.578s-42.328-9-56.906-23.578c-14.578-14.578-23.578-34.688-23.578-56.906s9-42.328 23.578-56.906c14.578-14.578 34.688-23.578 56.906-23.578zm29.203-375.52c-2.2969 67.688-6.1406 180.42-12.75 271.31-0.51563 7.2188-4.125 11.859-8.6719 13.969-2.5312 1.1719-5.25 1.7344-7.9219 1.7344-2.7188 0-5.4375-0.5625-7.875-1.7344-4.4062-2.0625-7.9219-6.6562-8.4375-14.016-6.4219-88.5-9.9844-192.32-12.281-260.02-0.60938-17.203-1.125-32.109-1.5-42.891-0.5625-14.156 6.3281-23.203 15.469-27.188 4.5938-2.0156 9.6562-3.0469 14.719-3.0469 5.1094 0 10.172 0.98438 14.766 2.9531 9.2344 4.0312 16.172 13.078 15.656 27.234-0.28125 7.3125-0.65625 18.703-1.0781 31.641zm51.188-29.859c-0.375 10.359-0.70313 20.25-1.0781 31.406-2.3438 69.047-6.2344 184.13-12.75 273.28-2.0625 28.031-17.719 46.734-37.781 56.016-9 4.1719-18.938 6.2344-28.922 6.2812-9.9375 0-19.922-2.0625-28.922-6.2344-19.922-9.2344-35.438-27.891-37.5-56.016-6.2812-86.719-9.9375-192.79-12.328-261.98-0.5625-16.219-1.0312-30.328-1.5-42.703-1.4531-38.156 18.75-63.188 45.516-74.906 10.828-4.7344 22.781-7.125 34.781-7.1719 11.906 0 23.906 2.3438 34.781 7.125 26.812 11.672 47.109 36.703 45.703 74.953z" fill-rule="evenodd"/>
</svg>
