<?xml version="1.0" encoding="UTF-8"?>
<svg width="1200pt" height="1200pt" version="1.1" viewBox="0 0 1200 1200" xmlns="http://www.w3.org/2000/svg">
 <path d="m1103 547.6-196.13 201.84 46.359 285.47c4.875 30.047-7.2656 59.344-31.734 76.594-23.344 16.406-53.25 18-78.188 4.2188l-240.47-133.45-240.52 133.45c-11.25 6.2812-23.531 9.3281-35.812 9.3281-14.859 0-29.578-4.5469-42.375-13.547-24.469-17.156-36.656-46.547-31.781-76.594l46.359-285.47-196.13-201.84c-20.484-21.094-27.328-51.656-17.906-79.875 9.1875-27.328 32.156-46.969 60-51.234l269.53-41.344 120.84-256.4c12.609-26.906 38.578-43.734 67.781-43.734 29.156 0 55.172 16.781 67.781 43.781l120.84 256.26 269.53 41.344c27.844 4.2656 50.812 23.906 60 51.234 9.4688 28.172 2.5781 58.781-17.906 79.875z"/>
</svg>
