<?xml version="1.0" encoding="UTF-8"?>
<svg width="1200pt" height="1200pt" version="1.1" viewBox="0 0 1200 1200" xmlns="http://www.w3.org/2000/svg">
 <path d="m529.71 198.61c4.4375 4.5625 6.8828 10.699 6.7969 17.066-0.089843 6.3633-2.7031 12.434-7.2656 16.871l-125.77 122.3c-5.3984 5.2461-12.945 7.6602-20.383 6.5156-7.4414-1.1406-13.914-5.7031-17.492-12.328l-24.469-45.422c-3.0195-5.6055-3.6914-12.184-1.8633-18.285 1.8281-6.1016 6.0078-11.227 11.613-14.246 5.6055-3.0195 12.184-3.6914 18.285-1.8633 6.1016 1.8281 11.227 6.0078 14.246 11.613l9.375 17.438 42.602-41.418c-13.609-11.375-30.773-17.625-48.508-17.664-27.684 0-53.262 14.77-67.102 38.742-13.844 23.973-13.844 53.512 0 77.484 13.84 23.973 39.418 38.742 67.102 38.742 14.656 0.054687 29.02-4.0938 41.391-11.953 12.371-7.8594 22.23-19.098 28.406-32.391 3.6914-7.7266 11.219-12.902 19.754-13.586s16.789 3.2305 21.664 10.273c4.875 7.0391 5.6328 16.141 1.9883 23.891-12.898 27.156-35.121 48.777-62.625 60.922-27.5 12.145-58.453 14.004-87.211 5.2422-28.758-8.7656-53.414-27.566-69.469-52.984-16.055-25.418-22.445-55.758-18.008-85.492 4.4375-29.738 19.414-56.887 42.195-76.508 22.777-19.617 51.852-30.402 81.914-30.383 30.695 0.050781 60.277 11.5 83.008 32.125l25.883-25.164c4.5625-4.4336 10.703-6.8789 17.066-6.7891 6.3633 0.085937 12.43 2.6953 16.871 7.2539zm33.609 142.05h351.28c8.5742 0 16.496-4.5742 20.785-12 4.2852-7.4258 4.2852-16.574 0-24-4.2891-7.4258-12.211-12-20.785-12h-351.28c-8.5742 0-16.496 4.5742-20.785 12-4.2852 7.4258-4.2852 16.574 0 24 4.2891 7.4258 12.211 12 20.785 12zm-67.547 140.77-25.883 25.164c-22.73-20.625-52.312-32.074-83.008-32.125-30.094-0.042969-59.199 10.73-82.012 30.355s-37.809 46.793-42.262 76.555c-4.4531 29.762 1.9414 60.133 18.012 85.574 16.07 25.441 40.75 44.258 69.539 53.02 28.789 8.7656 59.766 6.8906 87.289-5.2812 27.52-12.168 49.75-33.828 62.637-61.02 3.6445-7.75 2.8867-16.852-1.9883-23.895-4.875-7.0391-13.129-10.953-21.664-10.27-8.5352 0.68359-16.062 5.8594-19.754 13.586-6.1797 13.289-16.039 24.527-28.406 32.383-12.371 7.8555-26.738 11.996-41.391 11.938-27.68 0-53.254-14.766-67.094-38.734-13.84-23.973-13.84-53.504 0-77.473 13.84-23.973 39.414-38.738 67.094-38.738 17.734 0.039062 34.898 6.2891 48.508 17.664l-42.602 41.418-9.375-17.438v0.003907c-4.0703-7.5547-11.859-12.363-20.434-12.613-8.5781-0.25391-16.637 4.0898-21.141 11.391-4.5078 7.3008-4.7773 16.449-0.70703 24.004l24.469 45.398c3.5742 6.625 10.051 11.188 17.492 12.332 7.4414 1.1406 14.984-1.2734 20.383-6.5195l125.77-122.27c4.6016-4.4297 7.2461-10.512 7.3516-16.898 0.10547-6.3828-2.3398-12.547-6.793-17.125s-10.547-7.1953-16.934-7.2656c-6.3867-0.070313-12.539 2.4062-17.094 6.8828zm0 283.38-25.883 25.164c-22.734-20.625-52.312-32.074-83.008-32.125-30.098-0.046874-59.211 10.723-82.027 30.348-22.82 19.625-37.824 46.801-42.277 76.566s1.9375 60.141 18.012 85.586c16.074 25.445 40.762 44.27 69.555 53.031 28.793 8.7656 59.777 6.8867 87.301-5.2891 27.523-12.176 49.758-33.84 62.641-61.039 3.6445-7.75 2.8867-16.852-1.9883-23.895-4.875-7.0391-13.129-10.953-21.664-10.27s-16.062 5.8594-19.754 13.586c-6.1758 13.289-16.035 24.531-28.406 32.391-12.371 7.8594-26.734 12.008-41.391 11.953-27.684 0-53.262-14.77-67.102-38.742-13.844-23.973-13.844-53.512 0-77.484 13.84-23.973 39.418-38.742 67.102-38.742 17.738 0.039063 34.898 6.2891 48.508 17.668l-42.602 41.418-9.375-17.438c-4.0703-7.5547-11.859-12.359-20.434-12.613-8.5781-0.25-16.637 4.0898-21.141 11.391-4.5078 7.3008-4.7773 16.449-0.70703 24.004l24.469 45.422c3.5742 6.625 10.051 11.191 17.492 12.332s14.984-1.2734 20.383-6.5195l125.77-122.3c6.1094-5.9844 8.5742-14.773 6.4648-23.062s-8.4727-14.832-16.703-17.168c-8.2266-2.3398-17.078-0.11719-23.23 5.8242zm418.83-188.86h-351.28c-8.5742 0-16.496 4.5742-20.785 12-4.2852 7.4258-4.2852 16.574 0 24 4.2891 7.4258 12.211 12 20.785 12h351.28c8.5742 0 16.496-4.5742 20.785-12 4.2852-7.4258 4.2852-16.574 0-24-4.2891-7.4258-12.211-12-20.785-12zm0 282.7h-351.28c-8.5742 0-16.496 4.5742-20.785 12-4.2852 7.4258-4.2852 16.574 0 24 4.2891 7.4258 12.211 12 20.785 12h351.28c8.5742 0 16.496-4.5742 20.785-12 4.2852-7.4258 4.2852-16.574 0-24-4.2891-7.4258-12.211-12-20.785-12z"/>
</svg>
