<?xml version="1.0" encoding="UTF-8"?>
<svg width="1200pt" height="1200pt" version="1.1" viewBox="0 0 1200 1200" xmlns="http://www.w3.org/2000/svg">
 <path d="m770.48 727.45c0-65.625 53.203-118.78 118.78-118.78 65.625 0 118.78 53.203 118.78 118.78 0 65.625-53.203 118.78-118.78 118.78-65.625 0-118.78-53.203-118.78-118.78zm167.39 140.34h-161.34l-84.703-107.3v-158.76c0-25.641-17.344-49.125-42.516-53.953-33.891-6.5156-63.516 19.266-63.516 51.984v179.16c0 11.906 4.0312 23.484 11.391 32.859l111.8 141.52v161.06c0 14.156 11.484 25.641 25.641 25.641h309.14c14.156 0 25.641-11.484 25.641-25.641v-115.03c0-72.656-58.875-131.53-131.53-131.53zm-38.391-807.47c-111.38 5.9062-200.29 100.73-199.78 212.11 0.65625 103.45 75.609 189 173.81 206.53l27.328 57.047c4.0312 8.625 16.219 8.625 20.25 0l27.328-57.047c98.906-17.719 174-103.97 174-207.74 0-120.47-101.06-217.5-222.94-210.89zm-8.7656 302.72-95.016-96 30.188-29.859 64.781 65.625 105.47-106.97 30.188 29.859zm-509.72 483.19c65.625 0 118.78-53.203 118.78-118.78 0-65.625-53.203-118.78-118.78-118.78-65.625 0-118.78 53.203-118.78 118.78s53.203 118.78 118.78 118.78zm180.19 153.14v115.03c0 14.156-11.484 25.641-25.641 25.641l-309.14-0.046876c-14.156 0-25.641-11.484-25.641-25.641v-161.06l-111.8-141.56c-7.4062-9.375-11.391-20.906-11.391-32.859v-177.19c0-25.641 17.344-49.125 42.516-53.953 33.891-6.5156 63.516 19.266 63.516 51.984v160.74l84.703 107.3h161.29c72.656 0.046876 131.58 58.922 131.58 131.63zm-218.58-939.05c-111.38 5.9062-200.48 100.73-199.64 212.11 0.65625 103.45 75.422 189 173.81 206.53l27.328 57.047c4.0312 8.625 16.031 8.625 20.062 0l27.328-57.047c98.906-17.719 173.81-103.97 173.81-207.74 0.046875-120.47-100.69-217.5-222.71-210.89zm86.906 257.68-30.047 29.859-45.234-45.75-45.375 45.75-30.188-29.859 45.75-46.078-45.75-46.219 30.188-29.859 45.375 45.891 45.234-45.891 30.047 29.859-45.562 46.219z"/>
</svg>
