<?xml version="1.0" encoding="UTF-8"?>
<svg width="1200pt" height="1200pt" version="1.1" viewBox="0 0 1200 1200" xmlns="http://www.w3.org/2000/svg">
 <path d="m1170 348.14c-1.2656-46.453-21.609-90.328-56.344-121.22-34.688-30.891-80.625-46.078-126.89-42-11.625-44.25-37.547-83.438-73.734-111.42s-80.625-43.266-126.37-43.406l-548.81 0.046875c-55.125 0.046875-107.91 21.938-146.86 60.891-38.953 38.953-60.844 91.781-60.938 146.86v724.18c0.046875 55.078 21.984 107.91 60.938 146.86s91.781 60.844 146.86 60.938h548.81c55.078-0.046875 107.91-21.984 146.86-60.938 38.953-38.953 60.844-91.781 60.938-146.86v-364.03l125.81-125.81c32.953-32.719 50.953-77.625 49.734-124.08zm-263.21 613.97c-0.046875 31.828-12.703 62.391-35.203 84.891-22.547 22.5-53.062 35.156-84.891 35.203h-548.86c-31.828-0.046875-62.391-12.703-84.891-35.203-22.5-22.547-35.156-53.062-35.203-84.891l-0.046875-724.22c0.046875-31.828 12.703-62.391 35.203-84.891 22.547-22.5 53.062-35.156 84.891-35.203h548.81c27.703 0.046875 54.562 9.6562 76.031 27.234s36.188 42 41.672 69.188c-8.2969 5.625-16.078 12-23.25 18.984l-442.69 442.78c-0.28125 0.375-0.375 0.84375-0.70312 1.1719-4.4062 4.5469-7.7812 9.9844-9.8438 15.938l-88.547 265.74c-4.4062 13.359-2.1562 27.984 6.0469 39.375 8.2031 11.391 21.375 18.188 35.438 18.234 4.6875 0 9.375-0.79688 13.875-2.2969l265.74-88.547-0.046875 0.046875c5.9531-2.1094 11.438-5.4375 15.938-9.8438 0.375-0.28125 0.84375-0.375 1.1719-0.70312l229.31-229.36zm-418.4-174.05 76.781 76.781-115.27 38.438zm569.86-377.81-138.32 138.47-273.32 273.28-115.17-115.17 411.79-411.79c15.281-15.234 35.953-23.766 57.516-23.766s42.234 8.5312 57.516 23.766c15.281 15.281 23.859 36 23.859 57.562 0 21.656-8.5781 42.375-23.859 57.656z"/>
</svg>
