<?xml version="1.0" encoding="UTF-8"?>
<svg width="1200pt" height="1200pt" version="1.1" viewBox="0 0 1200 1200" xmlns="http://www.w3.org/2000/svg">
 <path d="m50.016 150c0-55.219 44.766-99.984 99.984-99.984h900c55.219 0 99.984 44.766 99.984 99.984v549.98c0 55.266-44.766 100.03-99.984 100.03h-300v-100.03h300v-549.98h-900v249.98h-99.984z" fill-rule="evenodd"/>
 <path d="m225 624.98c-27.609 0-50.016 22.406-50.016 50.016s22.406 50.016 50.016 50.016 50.016-22.406 50.016-50.016-22.406-50.016-50.016-50.016zm-150 50.016c0-82.828 67.172-150 150-150s150 67.172 150 150-67.172 150-150 150-150-67.172-150-150z" fill-rule="evenodd"/>
 <path d="m200.02 950.02c-27.609 0-50.016 22.359-50.016 49.969v100.03h-99.984v-100.03c0-82.828 67.125-150 150-150h49.969c82.875 0 150 67.172 150 150v100.03h-99.984v-100.03c0-27.609-22.406-49.969-50.016-49.969z" fill-rule="evenodd"/>
 <path d="m635.34 785.34-249.98 250.03-70.688-70.734 249.98-249.98z" fill-rule="evenodd"/>
 <path d="m399.98 249.98h500.02v100.03h-500.02z" fill-rule="evenodd"/>
 <path d="m600 399.98h300v100.03h-300z" fill-rule="evenodd"/>
</svg>
