<?xml version="1.0" encoding="UTF-8"?>
<svg width="1200pt" height="1200pt" version="1.1" viewBox="0 0 1200 1200" xmlns="http://www.w3.org/2000/svg">
 <path d="m600 1200c-331.35 0-600-268.65-600-600s268.65-600 600-600 600 268.65 600 600-268.65 600-600 600zm0-1050c-248.48 0-450 201.52-450 450s201.52 450 450 450 450-201.52 450-450-201.52-450-450-450zm0 150c-124.27 0-225 100.73-225 225h150c0-41.398 33.523-75 75-75s75 33.602 75 75-33.523 75-75 75h-37.5c-20.699 0-37.5 16.801-37.5 37.5v112.5h150v-13.801c87.148-30.977 150-113.4 150-211.2 0-124.27-100.73-225-225-225zm0 525h-75v75h150v-75z" fill="#8f8f8f"/>
</svg>
