<svg xmlns="http://www.w3.org/2000/svg" xmlns:xlink="http://www.w3.org/1999/xlink" viewBox="0 0 100 100" version="1.1" x="0pt" y="0pt"><title>Artboard Copy 12</title><desc>Created with Sketch.</desc><g stroke="none" stroke-width="1" fill="none" fill-rule="evenodd"><g fill="#000000"><path d="M82.2302561,76.8458019 C77.6340651,77.9095839 68.9784717,78.3591936 54,78 C35.6817459,77.5607163 23.9040642,77.9139824 18.8727148,76.995303 C18.7488562,76.9984281 18.6246117,77 18.5,77 C10.4918711,77 4,70.5081289 4,62.5 C4,54.4918711 10.4918711,48 18.5,48 C18.6673448,48 18.8340274,48.0028349 19.0000025,48.0084592 C19.0000008,48.0056397 19,48.0028199 19,48 C19,40.2680135 25.2680135,34 33,34 C34.9616118,34 36.8289962,34.4034353 38.523707,35.1318595 C41.6372831,27.4321715 49.1842658,22 58,22 C69.5979797,22 79,31.4020203 79,43 C79,43.6872275 78.9669891,44.3667448 78.9024664,45.0370529 C79.2651288,45.0124841 79.6311065,45 80,45 C88.836556,45 96,52.163444 96,61 C96,69.0797139 90.0110902,75.760643 82.2302561,76.8458019 Z"></path></g></g></svg>