<svg height='100px' width='100px'  fill="#000000" xmlns="http://www.w3.org/2000/svg" xmlns:xlink="http://www.w3.org/1999/xlink" version="1.1" x="0px" y="0px" viewBox="0 0 10 10" enable-background="new 0 0 10 10" xml:space="preserve"><g><path d="M8.939,3.645c0-0.059-0.031-0.106-0.074-0.14c-0.006-0.003-0.004-0.012-0.01-0.015L6.6,2.03   c-0.061-0.04-0.139-0.04-0.201,0L4.142,3.489C4.137,3.493,4.138,3.501,4.134,3.504C4.09,3.539,4.058,3.585,4.058,3.645v2.711   c0,0.008,0.007,0.012,0.008,0.02C4.068,6.4,4.081,6.418,4.093,6.441C4.105,6.461,4.112,6.48,4.13,6.494   C4.135,6.5,4.135,6.508,4.142,6.512l2.256,1.459C6.43,7.99,6.465,8,6.5,8s0.07-0.01,0.1-0.029l2.256-1.459   C8.863,6.508,8.863,6.5,8.869,6.494C8.887,6.48,8.893,6.461,8.904,6.441C8.918,6.418,8.93,6.4,8.932,6.375   c0.002-0.008,0.008-0.012,0.008-0.02V3.645z M4.429,3.986l1.885,1.219v2.268L4.429,6.256V3.986z M6.686,5.203l1.883-1.217v2.268   L6.686,7.473V5.203z M6.5,2.407l1.914,1.237L6.5,4.881L4.585,3.645L6.5,2.407z"></path><path d="M2.736,2.849C2.773,2.886,2.82,2.903,2.867,2.903s0.095-0.018,0.131-0.054c0.072-0.073,0.072-0.19,0-0.263L2.187,1.776   c-0.033-0.033-0.08-0.054-0.131-0.054S1.958,1.743,1.924,1.777l-0.81,0.81c-0.073,0.073-0.073,0.19,0,0.263   c0.072,0.072,0.189,0.072,0.262,0l0.494-0.494v5.292L1.377,7.152c-0.073-0.072-0.19-0.072-0.262,0   c-0.073,0.072-0.073,0.189,0,0.262l0.811,0.811C1.96,8.26,2.007,8.279,2.056,8.279c0.05,0,0.097-0.02,0.131-0.055l0.81-0.811   c0.072-0.072,0.072-0.189,0-0.262s-0.189-0.072-0.262,0L2.241,7.646V2.355L2.736,2.849z"></path></g></svg>