<svg height='100px' width='100px'  fill="#000000" xmlns="http://www.w3.org/2000/svg" xmlns:xlink="http://www.w3.org/1999/xlink" version="1.1" x="0px" y="0px" viewBox="0 0 100 100" style="enable-background:new 0 0 100 100;" xml:space="preserve"><g><path d="M50,83.854c-18.655,0-33.833-15.178-33.833-33.834c0-18.655,15.178-33.833,33.833-33.833s33.833,15.178,33.833,33.833   C83.833,68.677,68.655,83.854,50,83.854z M50,20.188c-16.45,0-29.833,13.383-29.833,29.833S33.55,79.854,50,79.854   s29.833-13.384,29.833-29.834S66.45,20.188,50,20.188z"></path></g><g><g><rect x="41.885" y="33.875" width="4" height="32.25"></rect></g><g><path d="M51.74,54.625h-5.855v-4h5.855c3.516,0,6.375-2.859,6.375-6.375s-2.859-6.375-6.375-6.375h-5.855v-4h5.855    c5.721,0,10.375,4.654,10.375,10.375S57.461,54.625,51.74,54.625z"></path></g></g></svg>