<svg height='100px' width='100px'  fill="#000000" xmlns="http://www.w3.org/2000/svg" xmlns:xlink="http://www.w3.org/1999/xlink" version="1.1" x="0px" y="0px" viewBox="0 0 100 100" style="enable-background:new 0 0 100 100;" xml:space="preserve"><style type="text/css">
	.st0{fill:#000000;}
</style><g><path d="M50,25.3c-24.5,0-44.5,20-44.5,44.5l0,0.6c0,0.8,0.7,1.5,1.5,1.5h34.6c0.4,0,0.8-0.2,1.1-0.5c0.3-0.3,0.4-0.7,0.4-1.1   c0-0.1,0-0.3,0-0.5c0-3.8,3.1-6.9,6.9-6.9s6.9,3.1,6.9,6.9c0,0.2,0,0.3,0,0.5c0,0.4,0.1,0.8,0.4,1.1c0.3,0.3,0.7,0.5,1.1,0.5H93   c0.8,0,1.5-0.7,1.5-1.5l0-0.6C94.5,45.2,74.5,25.3,50,25.3z M59.8,68.8c-0.2-2.1-1-3.9-2.3-5.4l13.7-13.7c0.6-0.6,0.6-1.5,0-2.1   c-0.6-0.6-1.5-0.6-2.1,0L55.2,61.4c-1.5-1-3.3-1.5-5.2-1.5c-5.1,0-9.4,3.9-9.8,8.9H8.5c0.1-6.5,1.8-12.5,4.6-18l4.1,2.4   c0.2,0.1,0.5,0.2,0.7,0.2c0.5,0,1-0.3,1.3-0.8c0.4-0.7,0.2-1.6-0.5-2l-4.1-2.4c3.3-5.4,7.7-10,13-13.4l2.5,4.3   c0.3,0.5,0.8,0.8,1.3,0.8c0.3,0,0.5-0.1,0.7-0.2c0.7-0.4,1-1.3,0.5-2l-2.5-4.4c5.4-3,11.6-4.8,18.1-5v5.2c0,0.8,0.7,1.5,1.5,1.5   s1.5-0.7,1.5-1.5v-5.2c6.6,0.2,12.8,1.9,18.2,4.8l-2.6,4.6c-0.4,0.7-0.2,1.6,0.5,2c0.2,0.1,0.5,0.2,0.7,0.2c0.5,0,1-0.3,1.3-0.8   l2.6-4.5c5.4,3.4,9.9,8,13.3,13.4l-4.5,2.6c-0.7,0.4-1,1.3-0.5,2c0.3,0.5,0.8,0.8,1.3,0.8c0.3,0,0.5-0.1,0.7-0.2l4.4-2.6   c2.8,5.5,4.5,11.6,4.7,18.2H59.8z"></path><path d="M50.1,65.2c-2.6,0-4.8,2.1-4.8,4.8s2.1,4.8,4.8,4.8s4.8-2.1,4.8-4.8S52.8,65.2,50.1,65.2z M50.1,71.7c-1,0-1.8-0.8-1.8-1.8   s0.8-1.8,1.8-1.8s1.8,0.8,1.8,1.8S51.1,71.7,50.1,71.7z"></path></g></svg>