<svg version="1.1" viewBox="0.0 0.0 828.2178477690288 477.748031496063" fill="none" stroke="none" stroke-linecap="square" stroke-miterlimit="10" xmlns:xlink="http://www.w3.org/1999/xlink" xmlns="http://www.w3.org/2000/svg"><clipPath id="p.0"><path d="m0 0l828.21783 0l0 477.74802l-828.21783 0l0 -477.74802z" clip-rule="nonzero"/></clipPath><g clip-path="url(#p.0)"><path fill="#000000" fill-opacity="0.0" d="m0 0l828.21783 0l0 477.74802l-828.21783 0z" fill-rule="evenodd"/><path fill="#000000" fill-opacity="0.0" d="m50.582676 185.65295l0 0c0 -8.052017 6.5274506 -14.579468 14.579464 -14.579468l528.3529 0c3.8666992 0 7.5750732 1.5360565 10.309265 4.270233c2.734192 2.7341766 4.2702026 6.44252 4.2702026 10.309235l0 244.06943c0 8.052002 -6.527466 14.579468 -14.579468 14.579468l-528.3529 0c-8.052013 0 -14.579464 -6.527466 -14.579464 -14.579468z" fill-rule="evenodd"/><path stroke="#000000" stroke-width="3.0" stroke-linejoin="round" stroke-linecap="butt" stroke-dasharray="12.0,9.0" d="m50.582676 185.65295l0 0c0 -8.052017 6.5274506 -14.579468 14.579464 -14.579468l528.3529 0c3.8666992 0 7.5750732 1.5360565 10.309265 4.270233c2.734192 2.7341766 4.2702026 6.44252 4.2702026 10.309235l0 244.06943c0 8.052002 -6.527466 14.579468 -14.579468 14.579468l-528.3529 0c-8.052013 0 -14.579464 -6.527466 -14.579464 -14.579468z" fill-rule="evenodd"/><path fill="#000000" d="m241.13503 421.01666l5.75 0l0 1.359375l-5.75 0l0 -1.359375zm0.140625 4.984375l6.53125 0l0 1.390625l-8.125 0l0 -11.203125l7.890625 0l0 1.390625l-6.296875 0l0 8.421875zm9.1262665 1.390625l0 -9.234375q0 -1.25 0.71875 -1.984375q0.734375 -0.75 2.078125 -0.75q0.484375 0 0.9375 0.125q0.46875 0.109375 0.78125 0.375l-0.453125 1.171875q-0.25 -0.203125 -0.5625 -0.296875q-0.296875 -0.109375 -0.625 -0.109375q-0.671875 0 -1.03125 0.375q-0.34375 0.375 -0.34375 1.109375l0 1.140625l0.03125 0.703125l0 7.375l-1.53125 0zm-1.453125 -7.21875l0 -1.265625l5.40625 0l0 1.265625l-5.40625 0zm7.1011353 7.21875l0 -9.234375q0 -1.25 0.71875 -1.984375q0.734375 -0.75 2.078125 -0.75q0.484375 0 0.9375 0.125q0.46875 0.109375 0.78125 0.375l-0.453125 1.171875q-0.25 -0.203125 -0.5625 -0.296875q-0.296875 -0.109375 -0.625 -0.109375q-0.671875 0 -1.03125 0.375q-0.34375 0.375 -0.34375 1.109375l0 1.140625l0.03125 0.703125l0 7.375l-1.53125 0zm-1.453125 -7.21875l0 -1.265625l5.40625 0l0 1.265625l-5.40625 0zm6.859375 7.21875l0 -8.484375l1.53125 0l0 8.484375l-1.53125 0zm0.765625 -10.109375q-0.4375 0 -0.734375 -0.28125q-0.296875 -0.296875 -0.296875 -0.71875q0 -0.421875 0.296875 -0.703125q0.296875 -0.296875 0.734375 -0.296875q0.453125 0 0.75 0.28125q0.296875 0.28125 0.296875 0.6875q0 0.4375 -0.296875 0.734375q-0.28125 0.296875 -0.75 0.296875zm7.4088745 10.203125q-1.296875 0 -2.3125 -0.5625q-1.015625 -0.5625 -1.59375 -1.53125q-0.578125 -0.96875 -0.578125 -2.234375q0 -1.265625 0.578125 -2.234375q0.578125 -0.984375 1.59375 -1.53125q1.015625 -0.5625 2.3125 -0.5625q1.140625 0 2.046875 0.46875q0.90625 0.453125 1.40625 1.34375l-1.171875 0.75q-0.40625 -0.625 -1.015625 -0.921875q-0.59375 -0.296875 -1.28125 -0.296875q-0.84375 0 -1.5 0.375q-0.65625 0.359375 -1.046875 1.03125q-0.375 0.65625 -0.375 1.578125q0 0.90625 0.375 1.578125q0.390625 0.671875 1.046875 1.046875q0.65625 0.359375 1.5 0.359375q0.6875 0 1.28125 -0.296875q0.609375 -0.296875 1.015625 -0.921875l1.171875 0.734375q-0.5 0.890625 -1.40625 1.359375q-0.90625 0.46875 -2.046875 0.46875zm5.3208923 -0.09375l0 -8.484375l1.53125 0l0 8.484375l-1.53125 0zm0.765625 -10.109375q-0.4375 0 -0.734375 -0.28125q-0.296875 -0.296875 -0.296875 -0.71875q0 -0.421875 0.296875 -0.703125q0.296875 -0.296875 0.734375 -0.296875q0.453125 0 0.75 0.28125q0.296875 0.28125 0.296875 0.6875q0 0.4375 -0.296875 0.734375q-0.28125 0.296875 -0.75 0.296875zm7.479645 10.203125q-1.359375 0 -2.390625 -0.5625q-1.03125 -0.5625 -1.609375 -1.53125q-0.5625 -0.96875 -0.5625 -2.234375q0 -1.265625 0.546875 -2.234375q0.5625 -0.984375 1.53125 -1.53125q0.96875 -0.5625 2.171875 -0.5625q1.234375 0 2.171875 0.546875q0.953125 0.546875 1.484375 1.53125q0.546875 0.984375 0.546875 2.296875q0 0.09375 -0.015625 0.21875q0 0.125 -0.015625 0.234375l-7.21875 0l0 -1.09375l6.40625 0l-0.625 0.375q0.03125 -0.8125 -0.328125 -1.453125q-0.359375 -0.640625 -0.96875 -1.0q-0.609375 -0.359375 -1.4375 -0.359375q-0.796875 0 -1.421875 0.359375q-0.625 0.359375 -0.984375 1.015625q-0.34375 0.640625 -0.34375 1.46875l0 0.265625q0 0.84375 0.390625 1.515625q0.390625 0.65625 1.09375 1.03125q0.71875 0.359375 1.625 0.359375q0.75 0 1.359375 -0.25q0.625 -0.265625 1.09375 -0.765625l0.84375 0.984375q-0.578125 0.671875 -1.4375 1.03125q-0.859375 0.34375 -1.90625 0.34375zm10.542023 -8.65625q1.046875 0 1.828125 0.40625q0.796875 0.390625 1.234375 1.21875q0.453125 0.8125 0.453125 2.0625l0 4.875l-1.53125 0l0 -4.703125q0 -1.234375 -0.609375 -1.859375q-0.59375 -0.625 -1.671875 -0.625q-0.828125 0 -1.4375 0.328125q-0.609375 0.3125 -0.9375 0.9375q-0.328125 0.625 -0.328125 1.546875l0 4.375l-1.53125 0l0 -8.484375l1.46875 0l0 2.296875l-0.234375 -0.609375q0.421875 -0.828125 1.28125 -1.296875q0.859375 -0.46875 2.015625 -0.46875zm9.286652 8.65625q-1.28125 0 -1.984375 -0.6875q-0.703125 -0.6875 -0.703125 -1.96875l0 -7.78125l1.53125 0l0 7.71875q0 0.6875 0.34375 1.0625q0.34375 0.359375 0.984375 0.359375q0.71875 0 1.203125 -0.390625l0.46875 1.09375q-0.34375 0.3125 -0.84375 0.453125q-0.484375 0.140625 -1.0 0.140625zm-4.140625 -7.3125l0 -1.265625l5.40625 0l0 1.265625l-5.40625 0zm12.381134 7.21875l0 -11.203125l4.71875 0q1.78125 0 3.140625 0.703125q1.375 0.703125 2.140625 1.96875q0.765625 1.265625 0.765625 2.9375q0 1.65625 -0.765625 2.921875q-0.765625 1.265625 -2.140625 1.96875q-1.359375 0.703125 -3.140625 0.703125l-4.71875 0zm1.59375 -1.390625l3.015625 0q1.40625 0 2.421875 -0.53125q1.015625 -0.53125 1.5625 -1.484375q0.5625 -0.953125 0.5625 -2.1875q0 -1.265625 -0.5625 -2.203125q-0.546875 -0.953125 -1.5625 -1.484375q-1.015625 -0.53125 -2.421875 -0.53125l-3.015625 0l0 8.421875zm15.169159 1.484375q-1.359375 0 -2.390625 -0.5625q-1.03125 -0.5625 -1.609375 -1.53125q-0.5625 -0.96875 -0.5625 -2.234375q0 -1.265625 0.546875 -2.234375q0.5625 -0.984375 1.53125 -1.53125q0.96875 -0.5625 2.171875 -0.5625q1.234375 0 2.171875 0.546875q0.953125 0.546875 1.484375 1.53125q0.546875 0.984375 0.546875 2.296875q0 0.09375 -0.015625 0.21875q0 0.125 -0.015625 0.234375l-7.21875 0l0 -1.09375l6.40625 0l-0.625 0.375q0.03125 -0.8125 -0.328125 -1.453125q-0.359375 -0.640625 -0.96875 -1.0q-0.609375 -0.359375 -1.4375 -0.359375q-0.796875 0 -1.421875 0.359375q-0.625 0.359375 -0.984375 1.015625q-0.34375 0.640625 -0.34375 1.46875l0 0.265625q0 0.84375 0.390625 1.515625q0.390625 0.65625 1.09375 1.03125q0.71875 0.359375 1.625 0.359375q0.75 0 1.359375 -0.25q0.625 -0.265625 1.09375 -0.765625l0.84375 0.984375q-0.578125 0.671875 -1.4375 1.03125q-0.859375 0.34375 -1.90625 0.34375zm8.085144 -0.09375l-3.71875 -8.484375l1.59375 0l3.296875 7.6875l-0.765625 0l3.359375 -7.6875l1.5 0l-3.703125 8.484375l-1.5625 0zm10.250885 0.09375q-1.359375 0 -2.390625 -0.5625q-1.03125 -0.5625 -1.609375 -1.53125q-0.5625 -0.96875 -0.5625 -2.234375q0 -1.265625 0.546875 -2.234375q0.5625 -0.984375 1.53125 -1.53125q0.96875 -0.5625 2.171875 -0.5625q1.234375 0 2.171875 0.546875q0.953125 0.546875 1.484375 1.53125q0.546875 0.984375 0.546875 2.296875q0 0.09375 -0.015625 0.21875q0 0.125 -0.015625 0.234375l-7.21875 0l0 -1.09375l6.40625 0l-0.625 0.375q0.03125 -0.8125 -0.328125 -1.453125q-0.359375 -0.640625 -0.96875 -1.0q-0.609375 -0.359375 -1.4375 -0.359375q-0.796875 0 -1.421875 0.359375q-0.625 0.359375 -0.984375 1.015625q-0.34375 0.640625 -0.34375 1.46875l0 0.265625q0 0.84375 0.390625 1.515625q0.390625 0.65625 1.09375 1.03125q0.71875 0.359375 1.625 0.359375q0.75 0 1.359375 -0.25q0.625 -0.265625 1.09375 -0.765625l0.84375 0.984375q-0.578125 0.671875 -1.4375 1.03125q-0.859375 0.34375 -1.90625 0.34375zm6.0107727 -0.09375l0 -11.875l1.53125 0l0 11.875l-1.53125 0zm8.104614 0.09375q-1.28125 0 -2.28125 -0.5625q-0.984375 -0.5625 -1.5625 -1.53125q-0.578125 -0.984375 -0.578125 -2.234375q0 -1.265625 0.578125 -2.234375q0.578125 -0.984375 1.5625 -1.53125q1.0 -0.5625 2.28125 -0.5625q1.265625 0 2.265625 0.5625q1.0 0.546875 1.5625 1.515625q0.5625 0.96875 0.5625 2.25q0 1.265625 -0.5625 2.234375q-0.5625 0.96875 -1.5625 1.53125q-1.0 0.5625 -2.265625 0.5625zm0 -1.34375q0.8125 0 1.453125 -0.359375q0.65625 -0.375 1.015625 -1.046875q0.375 -0.6875 0.375 -1.578125q0 -0.921875 -0.375 -1.578125q-0.359375 -0.671875 -1.015625 -1.03125q-0.640625 -0.375 -1.453125 -0.375q-0.828125 0 -1.46875 0.375q-0.640625 0.359375 -1.03125 1.03125q-0.375 0.65625 -0.375 1.578125q0 0.890625 0.375 1.578125q0.390625 0.671875 1.03125 1.046875q0.640625 0.359375 1.46875 0.359375zm11.019409 1.34375q-1.0625 0 -1.9375 -0.484375q-0.859375 -0.484375 -1.390625 -1.4375q-0.515625 -0.96875 -0.515625 -2.40625q0 -1.453125 0.5 -2.40625q0.515625 -0.953125 1.375 -1.4375q0.875 -0.484375 1.96875 -0.484375q1.25 0 2.203125 0.546875q0.96875 0.546875 1.515625 1.515625q0.5625 0.96875 0.5625 2.265625q0 1.296875 -0.5625 2.28125q-0.546875 0.96875 -1.515625 1.515625q-0.953125 0.53125 -2.203125 0.53125zm-4.5 3.015625l0 -11.59375l1.46875 0l0 2.296875l-0.09375 1.96875l0.15625 1.96875l0 5.359375l-1.53125 0zm4.375 -4.359375q0.8125 0 1.453125 -0.359375q0.65625 -0.375 1.03125 -1.046875q0.375 -0.6875 0.375 -1.578125q0 -0.921875 -0.375 -1.578125q-0.375 -0.671875 -1.03125 -1.03125q-0.640625 -0.375 -1.453125 -0.375q-0.796875 0 -1.453125 0.375q-0.640625 0.359375 -1.03125 1.03125q-0.375 0.65625 -0.375 1.578125q0 0.890625 0.375 1.578125q0.390625 0.671875 1.03125 1.046875q0.65625 0.359375 1.453125 0.359375zm17.146393 -7.3125q1.03125 0 1.8125 0.40625q0.78125 0.390625 1.21875 1.21875q0.4375 0.8125 0.4375 2.0625l0 4.875l-1.53125 0l0 -4.703125q0 -1.234375 -0.578125 -1.859375q-0.578125 -0.625 -1.609375 -0.625q-0.765625 0 -1.34375 0.328125q-0.578125 0.3125 -0.890625 0.9375q-0.3125 0.625 -0.3125 1.546875l0 4.375l-1.53125 0l0 -4.703125q0 -1.234375 -0.578125 -1.859375q-0.5625 -0.625 -1.625 -0.625q-0.75 0 -1.328125 0.328125q-0.578125 0.3125 -0.90625 0.9375q-0.3125 0.625 -0.3125 1.546875l0 4.375l-1.53125 0l0 -8.484375l1.46875 0l0 2.265625l-0.234375 -0.578125q0.40625 -0.828125 1.234375 -1.296875q0.828125 -0.46875 1.9375 -0.46875q1.21875 0 2.09375 0.609375q0.875 0.59375 1.15625 1.8125l-0.625 -0.265625q0.375 -0.96875 1.328125 -1.5625q0.96875 -0.59375 2.25 -0.59375zm10.083893 8.65625q-1.359375 0 -2.390625 -0.5625q-1.03125 -0.5625 -1.609375 -1.53125q-0.5625 -0.96875 -0.5625 -2.234375q0 -1.265625 0.546875 -2.234375q0.5625 -0.984375 1.53125 -1.53125q0.96875 -0.5625 2.171875 -0.5625q1.234375 0 2.171875 0.546875q0.953125 0.546875 1.484375 1.53125q0.546875 0.984375 0.546875 2.296875q0 0.09375 -0.015625 0.21875q0 0.125 -0.015625 0.234375l-7.21875 0l0 -1.09375l6.40625 0l-0.625 0.375q0.03125 -0.8125 -0.328125 -1.453125q-0.359375 -0.640625 -0.96875 -1.0q-0.609375 -0.359375 -1.4375 -0.359375q-0.796875 0 -1.421875 0.359375q-0.625 0.359375 -0.984375 1.015625q-0.34375 0.640625 -0.34375 1.46875l0 0.265625q0 0.84375 0.390625 1.515625q0.390625 0.65625 1.09375 1.03125q0.71875 0.359375 1.625 0.359375q0.75 0 1.359375 -0.25q0.625 -0.265625 1.09375 -0.765625l0.84375 0.984375q-0.578125 0.671875 -1.4375 1.03125q-0.859375 0.34375 -1.90625 0.34375zm10.542053 -8.65625q1.046875 0 1.828125 0.40625q0.796875 0.390625 1.234375 1.21875q0.453125 0.8125 0.453125 2.0625l0 4.875l-1.53125 0l0 -4.703125q0 -1.234375 -0.609375 -1.859375q-0.59375 -0.625 -1.671875 -0.625q-0.828125 0 -1.4375 0.328125q-0.609375 0.3125 -0.9375 0.9375q-0.328125 0.625 -0.328125 1.546875l0 4.375l-1.53125 0l0 -8.484375l1.46875 0l0 2.296875l-0.234375 -0.609375q0.421875 -0.828125 1.28125 -1.296875q0.859375 -0.46875 2.015625 -0.46875zm9.286621 8.65625q-1.28125 0 -1.984375 -0.6875q-0.703125 -0.6875 -0.703125 -1.96875l0 -7.78125l1.53125 0l0 7.71875q0 0.6875 0.34375 1.0625q0.34375 0.359375 0.984375 0.359375q0.71875 0 1.203125 -0.390625l0.46875 1.09375q-0.34375 0.3125 -0.84375 0.453125q-0.484375 0.140625 -1.0 0.140625zm-4.140625 -7.3125l0 -1.265625l5.40625 0l0 1.265625l-5.40625 0z" fill-rule="nonzero"/><path fill="#efefef" d="m50.582676 154.74803l365.16534 -126.29921l365.16537 126.29921z" fill-rule="evenodd"/><path stroke="#000000" stroke-width="2.0" stroke-linejoin="round" stroke-linecap="butt" d="m50.582676 154.74803l365.16534 -126.29921l365.16537 126.29921z" fill-rule="evenodd"/><path fill="#000000" d="m261.95343 132.77322l0 -18.65625l8.375 0q3.21875 0 4.953125 1.296875q1.734375 1.28125 1.734375 3.53125q0 1.515625 -0.6875 2.5625q-0.671875 1.03125 -1.828125 1.59375q-1.140625 0.5625 -2.46875 0.5625l0.484375 -0.8125q1.59375 0 2.8125 0.5625q1.234375 0.5625 1.953125 1.640625q0.71875 1.078125 0.71875 2.6875q0 2.390625 -1.796875 3.71875q-1.796875 1.3125 -5.34375 1.3125l-8.90625 0zm2.671875 -2.15625l6.125 0q2.21875 0 3.390625 -0.75q1.171875 -0.75 1.171875 -2.34375q0 -1.625 -1.171875 -2.375q-1.171875 -0.75 -3.390625 -0.75l-6.375 0l0 -2.15625l5.703125 0q2.03125 0 3.140625 -0.734375q1.125 -0.75 1.125 -2.25q0 -1.484375 -1.125 -2.234375q-1.109375 -0.75 -3.140625 -0.75l-5.453125 0l0 14.34375zm23.42871 2.3125q-2.265625 0 -3.984375 -0.921875q-1.71875 -0.9375 -2.671875 -2.5625q-0.9375 -1.625 -0.9375 -3.734375q0 -2.109375 0.90625 -3.734375q0.921875 -1.625 2.53125 -2.546875q1.625 -0.921875 3.640625 -0.921875q2.0625 0 3.625 0.90625q1.578125 0.90625 2.46875 2.546875q0.890625 1.640625 0.890625 3.828125q0 0.15625 -0.015625 0.375q0 0.21875 -0.03125 0.40625l-12.015625 0l0 -1.84375l10.6875 0l-1.046875 0.640625q0.03125 -1.359375 -0.5625 -2.421875q-0.578125 -1.078125 -1.609375 -1.671875q-1.03125 -0.609375 -2.390625 -0.609375q-1.328125 0 -2.375 0.609375q-1.03125 0.59375 -1.625 1.671875q-0.578125 1.078125 -0.578125 2.46875l0 0.421875q0 1.421875 0.65625 2.53125q0.65625 1.09375 1.828125 1.71875q1.171875 0.609375 2.6875 0.609375q1.25 0 2.28125 -0.421875q1.03125 -0.4375 1.796875 -1.28125l1.40625 1.65625q-0.953125 1.109375 -2.390625 1.703125q-1.421875 0.578125 -3.171875 0.578125zm14.079193 0q-1.765625 0 -3.359375 -0.46875q-1.578125 -0.484375 -2.484375 -1.1875l1.0625 -2.015625q0.90625 0.609375 2.234375 1.046875q1.34375 0.421875 2.71875 0.421875q1.796875 0 2.578125 -0.5q0.78125 -0.515625 0.78125 -1.421875q0 -0.671875 -0.484375 -1.046875q-0.46875 -0.375 -1.265625 -0.546875q-0.78125 -0.1875 -1.734375 -0.328125q-0.953125 -0.15625 -1.921875 -0.375q-0.953125 -0.234375 -1.765625 -0.640625q-0.796875 -0.421875 -1.28125 -1.15625q-0.46875 -0.734375 -0.46875 -1.953125q0 -1.28125 0.71875 -2.234375q0.71875 -0.96875 2.03125 -1.484375q1.328125 -0.53125 3.140625 -0.53125q1.390625 0 2.8125 0.34375q1.421875 0.328125 2.328125 0.9375l-1.09375 2.03125q-0.953125 -0.640625 -2.0 -0.875q-1.03125 -0.25 -2.078125 -0.25q-1.671875 0 -2.5 0.546875q-0.828125 0.546875 -0.828125 1.40625q0 0.71875 0.484375 1.109375q0.5 0.375 1.28125 0.59375q0.796875 0.21875 1.75 0.359375q0.96875 0.140625 1.921875 0.375q0.953125 0.21875 1.734375 0.625q0.796875 0.40625 1.28125 1.125q0.5 0.71875 0.5 1.90625q0 1.28125 -0.75 2.21875q-0.734375 0.9375 -2.09375 1.453125q-1.359375 0.515625 -3.25 0.515625zm14.151611 0q-2.140625 0 -3.3125 -1.140625q-1.171875 -1.140625 -1.171875 -3.28125l0 -12.953125l2.5625 0l0 12.84375q0 1.15625 0.5625 1.765625q0.578125 0.609375 1.65625 0.609375q1.1875 0 1.984375 -0.671875l0.8125 1.84375q-0.59375 0.515625 -1.40625 0.75q-0.8125 0.234375 -1.6875 0.234375zm-6.875 -12.171875l0 -2.109375l9.0 0l0 2.109375l-9.0 0zm20.596771 12.015625l0 -18.65625l7.28125 0q2.453125 0 4.1875 0.78125q1.734375 0.765625 2.65625 2.234375q0.9375 1.453125 0.9375 3.484375q0 2.03125 -0.9375 3.484375q-0.921875 1.453125 -2.65625 2.234375q-1.734375 0.78125 -4.1875 0.78125l-5.8125 0l1.203125 -1.25l0 6.90625l-2.671875 0zm2.671875 -6.640625l-1.203125 -1.328125l5.734375 0q2.5625 0 3.875 -1.09375q1.3125 -1.09375 1.3125 -3.09375q0 -2.0 -1.3125 -3.09375q-1.3125 -1.09375 -3.875 -1.09375l-5.734375 0l1.203125 -1.328125l0 11.03125zm21.941345 6.796875q-2.140625 0 -3.796875 -0.921875q-1.65625 -0.9375 -2.609375 -2.578125q-0.953125 -1.640625 -0.953125 -3.71875q0 -2.109375 0.953125 -3.734375q0.953125 -1.625 2.609375 -2.546875q1.65625 -0.921875 3.796875 -0.921875q2.09375 0 3.765625 0.921875q1.671875 0.921875 2.609375 2.53125q0.953125 1.609375 0.953125 3.75q0 2.109375 -0.953125 3.734375q-0.9375 1.625 -2.609375 2.5625q-1.671875 0.921875 -3.765625 0.921875zm0 -2.234375q1.359375 0 2.4375 -0.609375q1.078125 -0.625 1.6875 -1.75q0.609375 -1.140625 0.609375 -2.625q0 -1.515625 -0.609375 -2.625q-0.609375 -1.109375 -1.6875 -1.71875q-1.078125 -0.609375 -2.4375 -0.609375q-1.359375 0 -2.4375 0.609375q-1.0625 0.609375 -1.703125 1.71875q-0.640625 1.109375 -0.640625 2.625q0 1.484375 0.640625 2.625q0.640625 1.125 1.703125 1.75q1.078125 0.609375 2.4375 0.609375zm14.926666 2.234375q-1.765625 0 -3.359375 -0.46875q-1.578125 -0.484375 -2.484375 -1.1875l1.0625 -2.015625q0.90625 0.609375 2.234375 1.046875q1.34375 0.421875 2.71875 0.421875q1.796875 0 2.578125 -0.5q0.78125 -0.515625 0.78125 -1.421875q0 -0.671875 -0.484375 -1.046875q-0.46875 -0.375 -1.265625 -0.546875q-0.78125 -0.1875 -1.734375 -0.328125q-0.953125 -0.15625 -1.921875 -0.375q-0.953125 -0.234375 -1.765625 -0.640625q-0.796875 -0.421875 -1.28125 -1.15625q-0.46875 -0.734375 -0.46875 -1.953125q0 -1.28125 0.71875 -2.234375q0.71875 -0.96875 2.03125 -1.484375q1.328125 -0.53125 3.140625 -0.53125q1.390625 0 2.8125 0.34375q1.421875 0.328125 2.328125 0.9375l-1.09375 2.03125q-0.953125 -0.640625 -2.0 -0.875q-1.03125 -0.25 -2.078125 -0.25q-1.671875 0 -2.5 0.546875q-0.828125 0.546875 -0.828125 1.40625q0 0.71875 0.484375 1.109375q0.5 0.375 1.28125 0.59375q0.796875 0.21875 1.75 0.359375q0.96875 0.140625 1.921875 0.375q0.953125 0.21875 1.734375 0.625q0.796875 0.40625 1.28125 1.125q0.5 0.71875 0.5 1.90625q0 1.28125 -0.75 2.21875q-0.734375 0.9375 -2.09375 1.453125q-1.359375 0.515625 -3.25 0.515625zm13.354736 0q-1.765625 0 -3.359375 -0.46875q-1.578125 -0.484375 -2.484375 -1.1875l1.0625 -2.015625q0.90625 0.609375 2.234375 1.046875q1.34375 0.421875 2.71875 0.421875q1.796875 0 2.578125 -0.5q0.78125 -0.515625 0.78125 -1.421875q0 -0.671875 -0.484375 -1.046875q-0.46875 -0.375 -1.265625 -0.546875q-0.78125 -0.1875 -1.734375 -0.328125q-0.953125 -0.15625 -1.921875 -0.375q-0.953125 -0.234375 -1.765625 -0.640625q-0.796875 -0.421875 -1.28125 -1.15625q-0.46875 -0.734375 -0.46875 -1.953125q0 -1.28125 0.71875 -2.234375q0.71875 -0.96875 2.03125 -1.484375q1.328125 -0.53125 3.140625 -0.53125q1.390625 0 2.8125 0.34375q1.421875 0.328125 2.328125 0.9375l-1.09375 2.03125q-0.953125 -0.640625 -2.0 -0.875q-1.03125 -0.25 -2.078125 -0.25q-1.671875 0 -2.5 0.546875q-0.828125 0.546875 -0.828125 1.40625q0 0.71875 0.484375 1.109375q0.5 0.375 1.28125 0.59375q0.796875 0.21875 1.75 0.359375q0.96875 0.140625 1.921875 0.375q0.953125 0.21875 1.734375 0.625q0.796875 0.40625 1.28125 1.125q0.5 0.71875 0.5 1.90625q0 1.28125 -0.75 2.21875q-0.734375 0.9375 -2.09375 1.453125q-1.359375 0.515625 -3.25 0.515625zm9.292236 -0.15625l0 -14.125l2.5625 0l0 14.125l-2.5625 0zm1.28125 -16.84375q-0.75 0 -1.25 -0.484375q-0.484375 -0.484375 -0.484375 -1.171875q0 -0.71875 0.484375 -1.1875q0.5 -0.484375 1.25 -0.484375q0.75 0 1.234375 0.46875q0.5 0.453125 0.5 1.15625q0 0.71875 -0.484375 1.21875q-0.484375 0.484375 -1.25 0.484375zm13.655823 17.0q-1.8125 0 -3.265625 -0.8125q-1.453125 -0.8125 -2.296875 -2.40625q-0.84375 -1.609375 -0.84375 -4.0q0 -2.40625 0.859375 -4.0q0.875 -1.59375 2.328125 -2.390625q1.453125 -0.8125 3.21875 -0.8125q2.078125 0 3.671875 0.90625q1.59375 0.90625 2.53125 2.53125q0.9375 1.609375 0.9375 3.765625q0 2.15625 -0.9375 3.78125q-0.9375 1.625 -2.53125 2.53125q-1.59375 0.90625 -3.671875 0.90625zm-7.5 -0.15625l0 -19.78125l2.5625 0l0 9.40625l-0.265625 3.28125l0.15625 3.28125l0 3.8125l-2.453125 0zm7.28125 -2.078125q1.359375 0 2.4375 -0.609375q1.078125 -0.625 1.703125 -1.75q0.625 -1.140625 0.625 -2.625q0 -1.515625 -0.625 -2.625q-0.625 -1.109375 -1.703125 -1.71875q-1.078125 -0.609375 -2.4375 -0.609375q-1.328125 0 -2.421875 0.609375q-1.078125 0.609375 -1.703125 1.71875q-0.625 1.109375 -0.625 2.625q0 1.484375 0.625 2.625q0.625 1.125 1.703125 1.75q1.09375 0.609375 2.421875 0.609375zm10.898224 2.078125l0 -19.78125l2.5625 0l0 19.78125l-2.5625 0zm13.733948 0.15625q-2.265625 0 -3.984375 -0.921875q-1.71875 -0.9375 -2.671875 -2.5625q-0.9375 -1.625 -0.9375 -3.734375q0 -2.109375 0.90625 -3.734375q0.921875 -1.625 2.53125 -2.546875q1.625 -0.921875 3.640625 -0.921875q2.0625 0 3.625 0.90625q1.578125 0.90625 2.46875 2.546875q0.890625 1.640625 0.890625 3.828125q0 0.15625 -0.015625 0.375q0 0.21875 -0.03125 0.40625l-12.015625 0l0 -1.84375l10.6875 0l-1.046875 0.640625q0.03125 -1.359375 -0.5625 -2.421875q-0.578125 -1.078125 -1.609375 -1.671875q-1.03125 -0.609375 -2.390625 -0.609375q-1.328125 0 -2.375 0.609375q-1.03125 0.59375 -1.625 1.671875q-0.578125 1.078125 -0.578125 2.46875l0 0.421875q0 1.421875 0.65625 2.53125q0.65625 1.09375 1.828125 1.71875q1.171875 0.609375 2.6875 0.609375q1.25 0 2.28125 -0.421875q1.03125 -0.4375 1.796875 -1.28125l1.40625 1.65625q-0.953125 1.109375 -2.390625 1.703125q-1.421875 0.578125 -3.171875 0.578125zm22.999695 0.0625q-2.125 0 -4.078125 -0.65625q-1.9375 -0.65625 -3.0625 -1.6875l0.984375 -2.09375q1.0625 0.9375 2.71875 1.5625q1.65625 0.609375 3.4375 0.609375q1.625 0 2.640625 -0.375q1.015625 -0.375 1.484375 -1.03125q0.484375 -0.65625 0.484375 -1.484375q0 -0.953125 -0.625 -1.53125q-0.625 -0.59375 -1.625 -0.953125q-1.0 -0.359375 -2.203125 -0.625q-1.1875 -0.265625 -2.40625 -0.625q-1.21875 -0.359375 -2.21875 -0.921875q-1.0 -0.5625 -1.609375 -1.5q-0.609375 -0.953125 -0.609375 -2.453125q0 -1.4375 0.75 -2.640625q0.765625 -1.21875 2.34375 -1.953125q1.59375 -0.734375 4.046875 -0.734375q1.625 0 3.21875 0.4375q1.609375 0.421875 2.78125 1.21875l-0.875 2.125q-1.203125 -0.796875 -2.546875 -1.15625q-1.328125 -0.359375 -2.578125 -0.359375q-1.5625 0 -2.578125 0.40625q-1.015625 0.390625 -1.484375 1.0625q-0.46875 0.671875 -0.46875 1.5q0 0.984375 0.625 1.578125q0.625 0.578125 1.625 0.921875q1.0 0.34375 2.203125 0.625q1.203125 0.28125 2.40625 0.625q1.21875 0.34375 2.21875 0.90625q1.0 0.5625 1.609375 1.5q0.609375 0.921875 0.609375 2.390625q0 1.421875 -0.765625 2.640625q-0.765625 1.203125 -2.390625 1.9375q-1.609375 0.734375 -4.0625 0.734375zm16.897217 -0.0625q-2.15625 0 -3.859375 -0.921875q-1.6875 -0.9375 -2.640625 -2.5625q-0.953125 -1.625 -0.953125 -3.734375q0 -2.109375 0.953125 -3.734375q0.953125 -1.625 2.640625 -2.546875q1.703125 -0.921875 3.859375 -0.921875q1.921875 0 3.421875 0.765625q1.515625 0.765625 2.34375 2.25l-1.953125 1.25q-0.6875 -1.03125 -1.6875 -1.515625q-1.0 -0.5 -2.140625 -0.5q-1.390625 0 -2.484375 0.609375q-1.09375 0.609375 -1.734375 1.71875q-0.640625 1.109375 -0.640625 2.625q0 1.515625 0.640625 2.640625q0.640625 1.109375 1.734375 1.734375q1.09375 0.609375 2.484375 0.609375q1.140625 0 2.140625 -0.484375q1.0 -0.5 1.6875 -1.546875l1.953125 1.234375q-0.828125 1.46875 -2.34375 2.25q-1.5 0.78125 -3.421875 0.78125zm16.424622 -14.421875q1.734375 0 3.046875 0.671875q1.328125 0.671875 2.0625 2.03125q0.75 1.359375 0.75 3.4375l0 8.125l-2.546875 0l0 -7.84375q0 -2.046875 -1.0 -3.078125q-1.0 -1.046875 -2.8125 -1.046875q-1.359375 0 -2.375 0.53125q-1.015625 0.53125 -1.5625 1.578125q-0.546875 1.03125 -0.546875 2.578125l0 7.28125l-2.5625 0l0 -19.78125l2.5625 0l0 9.46875l-0.5 -1.015625q0.6875 -1.390625 2.125 -2.15625q1.4375 -0.78125 3.359375 -0.78125zm16.902832 14.421875q-2.265625 0 -3.984375 -0.921875q-1.71875 -0.9375 -2.671875 -2.5625q-0.9375 -1.625 -0.9375 -3.734375q0 -2.109375 0.90625 -3.734375q0.921875 -1.625 2.53125 -2.546875q1.625 -0.921875 3.640625 -0.921875q2.0625 0 3.625 0.90625q1.578125 0.90625 2.46875 2.546875q0.890625 1.640625 0.890625 3.828125q0 0.15625 -0.015625 0.375q0 0.21875 -0.03125 0.40625l-12.015625 0l0 -1.84375l10.6875 0l-1.046875 0.640625q0.03125 -1.359375 -0.5625 -2.421875q-0.578125 -1.078125 -1.609375 -1.671875q-1.03125 -0.609375 -2.390625 -0.609375q-1.328125 0 -2.375 0.609375q-1.03125 0.59375 -1.625 1.671875q-0.578125 1.078125 -0.578125 2.46875l0 0.421875q0 1.421875 0.65625 2.53125q0.65625 1.09375 1.828125 1.71875q1.171875 0.609375 2.6875 0.609375q1.25 0 2.28125 -0.421875q1.03125 -0.4375 1.796875 -1.28125l1.40625 1.65625q-0.953125 1.109375 -2.390625 1.703125q-1.421875 0.578125 -3.171875 0.578125zm15.860474 0q-2.0625 0 -3.671875 -0.90625q-1.609375 -0.90625 -2.546875 -2.53125q-0.921875 -1.625 -0.921875 -3.78125q0 -2.15625 0.921875 -3.765625q0.9375 -1.625 2.546875 -2.53125q1.609375 -0.90625 3.671875 -0.90625q1.78125 0 3.21875 0.8125q1.4375 0.796875 2.296875 2.390625q0.875 1.59375 0.875 4.0q0 2.390625 -0.84375 4.0q-0.828125 1.59375 -2.265625 2.40625q-1.4375 0.8125 -3.28125 0.8125zm0.21875 -2.234375q1.328125 0 2.40625 -0.609375q1.078125 -0.625 1.703125 -1.75q0.625 -1.140625 0.625 -2.625q0 -1.515625 -0.625 -2.625q-0.625 -1.109375 -1.703125 -1.71875q-1.078125 -0.609375 -2.40625 -0.609375q-1.359375 0 -2.4375 0.609375q-1.0625 0.609375 -1.703125 1.71875q-0.640625 1.109375 -0.640625 2.625q0 1.484375 0.640625 2.625q0.640625 1.125 1.703125 1.75q1.078125 0.609375 2.4375 0.609375zm4.8125 2.078125l0 -3.8125l0.171875 -3.28125l-0.28125 -3.28125l0 -9.40625l2.5625 0l0 19.78125l-2.453125 0zm13.257568 0.15625q-1.8125 0 -3.1875 -0.65625q-1.375 -0.671875 -2.140625 -2.046875q-0.75 -1.375 -0.75 -3.453125l0 -8.125l2.546875 0l0 7.828125q0 2.078125 1.0 3.125q1.0 1.046875 2.8125 1.046875q1.34375 0 2.328125 -0.546875q0.984375 -0.546875 1.515625 -1.59375q0.53125 -1.0625 0.53125 -2.5625l0 -7.296875l2.5625 0l0 14.125l-2.421875 0l0 -3.8125l0.390625 1.015625q-0.6875 1.40625 -2.078125 2.1875q-1.375 0.765625 -3.109375 0.765625zm12.09314 -0.15625l0 -19.78125l2.5625 0l0 19.78125l-2.5625 0zm13.733948 0.15625q-2.265625 0 -3.984375 -0.921875q-1.71875 -0.9375 -2.671875 -2.5625q-0.9375 -1.625 -0.9375 -3.734375q0 -2.109375 0.90625 -3.734375q0.921875 -1.625 2.53125 -2.546875q1.625 -0.921875 3.640625 -0.921875q2.0625 0 3.625 0.90625q1.578125 0.90625 2.46875 2.546875q0.890625 1.640625 0.890625 3.828125q0 0.15625 -0.015625 0.375q0 0.21875 -0.03125 0.40625l-12.015625 0l0 -1.84375l10.6875 0l-1.046875 0.640625q0.03125 -1.359375 -0.5625 -2.421875q-0.578125 -1.078125 -1.609375 -1.671875q-1.03125 -0.609375 -2.390625 -0.609375q-1.328125 0 -2.375 0.609375q-1.03125 0.59375 -1.625 1.671875q-0.578125 1.078125 -0.578125 2.46875l0 0.421875q0 1.421875 0.65625 2.53125q0.65625 1.09375 1.828125 1.71875q1.171875 0.609375 2.6875 0.609375q1.25 0 2.28125 -0.421875q1.03125 -0.4375 1.796875 -1.28125l1.40625 1.65625q-0.953125 1.109375 -2.390625 1.703125q-1.421875 0.578125 -3.171875 0.578125z" fill-rule="nonzero"/><path fill="#efefef" d="m63.892387 184.14174l160.31497 0l0 218.96062l-160.31497 0z" fill-rule="evenodd"/><path stroke="#000000" stroke-width="2.0" stroke-linejoin="round" stroke-linecap="butt" d="m63.892387 184.14174l160.31497 0l0 218.96062l-160.31497 0z" fill-rule="evenodd"/><path fill="#000000" d="m123.121315 280.60706q-1.28125 0 -2.359375 -0.421875q-1.078125 -0.421875 -1.875 -1.1875q-0.796875 -0.78125 -1.25 -1.828125q-0.4375 -1.046875 -0.4375 -2.28125q0 -1.25 0.4375 -2.28125q0.453125 -1.046875 1.25 -1.828125q0.8125 -0.78125 1.890625 -1.203125q1.078125 -0.421875 2.359375 -0.421875q1.296875 0 2.390625 0.4375q1.09375 0.4375 1.859375 1.3125l-1.03125 1.0q-0.640625 -0.671875 -1.4375 -1.0q-0.796875 -0.328125 -1.71875 -0.328125q-0.9375 0 -1.75 0.328125q-0.8125 0.3125 -1.40625 0.890625q-0.578125 0.578125 -0.90625 1.375q-0.328125 0.78125 -0.328125 1.71875q0 0.921875 0.328125 1.71875q0.328125 0.78125 0.90625 1.359375q0.59375 0.578125 1.40625 0.90625q0.8125 0.3125 1.75 0.3125q0.921875 0 1.71875 -0.328125q0.796875 -0.328125 1.4375 -1.015625l1.03125 1.015625q-0.765625 0.859375 -1.859375 1.3125q-1.09375 0.4375 -2.40625 0.4375zm6.3336563 -0.125l0 -11.875l1.53125 0l0 11.875l-1.53125 0zm9.7296295 0l0 -1.796875l-0.078125 -0.328125l0 -3.0625q0 -0.96875 -0.578125 -1.5q-0.5625 -0.546875 -1.6875 -0.546875q-0.765625 0 -1.484375 0.25q-0.71875 0.25 -1.203125 0.671875l-0.640625 -1.15625q0.65625 -0.53125 1.5625 -0.8125q0.921875 -0.28125 1.9375 -0.28125q1.734375 0 2.671875 0.859375q0.953125 0.84375 0.953125 2.578125l0 5.125l-1.453125 0zm-2.78125 0.09375q-0.953125 0 -1.671875 -0.3125q-0.703125 -0.328125 -1.09375 -0.890625q-0.375 -0.578125 -0.375 -1.296875q0 -0.6875 0.328125 -1.234375q0.328125 -0.5625 1.0625 -0.890625q0.75 -0.34375 2.015625 -0.34375l2.6875 0l0 1.09375l-2.625 0q-1.140625 0 -1.546875 0.390625q-0.40625 0.375 -0.40625 0.921875q0 0.625 0.5 1.0q0.5 0.375 1.375 0.375q0.875 0 1.515625 -0.375q0.65625 -0.390625 0.9375 -1.125l0.296875 1.0625q-0.296875 0.75 -1.0625 1.1875q-0.765625 0.4375 -1.9375 0.4375zm9.521149 0q-1.0625 0 -2.015625 -0.28125q-0.953125 -0.296875 -1.484375 -0.703125l0.640625 -1.21875q0.53125 0.359375 1.328125 0.625q0.8125 0.25 1.640625 0.25q1.078125 0 1.546875 -0.296875q0.46875 -0.3125 0.46875 -0.859375q0 -0.390625 -0.296875 -0.609375q-0.28125 -0.234375 -0.75 -0.34375q-0.46875 -0.109375 -1.046875 -0.1875q-0.578125 -0.09375 -1.15625 -0.234375q-0.578125 -0.140625 -1.0625 -0.390625q-0.46875 -0.25 -0.765625 -0.6875q-0.28125 -0.4375 -0.28125 -1.171875q0 -0.765625 0.421875 -1.34375q0.4375 -0.578125 1.234375 -0.890625q0.796875 -0.3125 1.875 -0.3125q0.84375 0 1.6875 0.203125q0.859375 0.203125 1.40625 0.5625l-0.65625 1.21875q-0.578125 -0.375 -1.203125 -0.515625q-0.625 -0.15625 -1.25 -0.15625q-1.0 0 -1.5 0.328125q-0.5 0.328125 -0.5 0.84375q0 0.4375 0.296875 0.671875q0.296875 0.21875 0.765625 0.359375q0.484375 0.125 1.046875 0.21875q0.578125 0.078125 1.15625 0.21875q0.578125 0.125 1.046875 0.375q0.46875 0.234375 0.765625 0.671875q0.296875 0.421875 0.296875 1.140625q0 0.78125 -0.453125 1.34375q-0.4375 0.546875 -1.25 0.859375q-0.8125 0.3125 -1.953125 0.3125zm8.016022 0q-1.0625 0 -2.015625 -0.28125q-0.953125 -0.296875 -1.484375 -0.703125l0.640625 -1.21875q0.53125 0.359375 1.328125 0.625q0.8125 0.25 1.640625 0.25q1.078125 0 1.546875 -0.296875q0.46875 -0.3125 0.46875 -0.859375q0 -0.390625 -0.296875 -0.609375q-0.28125 -0.234375 -0.75 -0.34375q-0.46875 -0.109375 -1.046875 -0.1875q-0.578125 -0.09375 -1.15625 -0.234375q-0.578125 -0.140625 -1.0625 -0.390625q-0.46875 -0.25 -0.765625 -0.6875q-0.28125 -0.4375 -0.28125 -1.171875q0 -0.765625 0.421875 -1.34375q0.4375 -0.578125 1.234375 -0.890625q0.796875 -0.3125 1.875 -0.3125q0.84375 0 1.6875 0.203125q0.859375 0.203125 1.40625 0.5625l-0.65625 1.21875q-0.578125 -0.375 -1.203125 -0.515625q-0.625 -0.15625 -1.25 -0.15625q-1.0 0 -1.5 0.328125q-0.5 0.328125 -0.5 0.84375q0 0.4375 0.296875 0.671875q0.296875 0.21875 0.765625 0.359375q0.484375 0.125 1.046875 0.21875q0.578125 0.078125 1.15625 0.21875q0.578125 0.125 1.046875 0.375q0.46875 0.234375 0.765625 0.671875q0.296875 0.421875 0.296875 1.140625q0 0.78125 -0.453125 1.34375q-0.4375 0.546875 -1.25 0.859375q-0.8125 0.3125 -1.953125 0.3125zm5.5785217 -0.09375l0 -8.484375l1.53125 0l0 8.484375l-1.53125 0zm0.765625 -10.109375q-0.4375 0 -0.734375 -0.28125q-0.296875 -0.296875 -0.296875 -0.71875q0 -0.421875 0.296875 -0.703125q0.296875 -0.296875 0.734375 -0.296875q0.453125 0 0.75 0.28125q0.296875 0.28125 0.296875 0.6875q0 0.4375 -0.296875 0.734375q-0.28125 0.296875 -0.75 0.296875zm7.4015045 10.203125q-1.296875 0 -2.3125 -0.5625q-1.015625 -0.5625 -1.59375 -1.53125q-0.578125 -0.96875 -0.578125 -2.234375q0 -1.265625 0.578125 -2.234375q0.578125 -0.984375 1.59375 -1.53125q1.015625 -0.5625 2.3125 -0.5625q1.140625 0 2.046875 0.46875q0.90625 0.453125 1.40625 1.34375l-1.171875 0.75q-0.40625 -0.625 -1.015625 -0.921875q-0.59375 -0.296875 -1.28125 -0.296875q-0.84375 0 -1.5 0.375q-0.65625 0.359375 -1.046875 1.03125q-0.375 0.65625 -0.375 1.578125q0 0.90625 0.375 1.578125q0.390625 0.671875 1.046875 1.046875q0.65625 0.359375 1.5 0.359375q0.6875 0 1.28125 -0.296875q0.609375 -0.296875 1.015625 -0.921875l1.171875 0.734375q-0.5 0.890625 -1.40625 1.359375q-0.90625 0.46875 -2.046875 0.46875z" fill-rule="nonzero"/><path fill="#000000" d="m114.11331 299.48206l0 -11.203125l1.296875 0l5.03125 8.46875l-0.703125 0l4.953125 -8.46875l1.3125 0l0.015625 11.203125l-1.53125 0l-0.015625 -8.78125l0.375 0l-4.421875 7.421875l-0.734375 0l-4.453125 -7.421875l0.40625 0l0 8.78125l-1.53125 0zm15.045654 0l0 -8.484375l1.53125 0l0 8.484375l-1.53125 0zm0.765625 -10.109375q-0.4375 0 -0.734375 -0.28125q-0.296875 -0.296875 -0.296875 -0.71875q0 -0.421875 0.296875 -0.703125q0.296875 -0.296875 0.734375 -0.296875q0.453125 0 0.75 0.28125q0.296875 0.28125 0.296875 0.6875q0 0.4375 -0.296875 0.734375q-0.28125 0.296875 -0.75 0.296875zm6.1358795 10.203125q-1.0625 0 -2.015625 -0.28125q-0.953125 -0.296875 -1.484375 -0.703125l0.640625 -1.21875q0.53125 0.359375 1.328125 0.625q0.8125 0.25 1.640625 0.25q1.078125 0 1.546875 -0.296875q0.46875 -0.3125 0.46875 -0.859375q0 -0.390625 -0.296875 -0.609375q-0.28125 -0.234375 -0.75 -0.34375q-0.46875 -0.109375 -1.046875 -0.1875q-0.578125 -0.09375 -1.15625 -0.234375q-0.578125 -0.140625 -1.0625 -0.390625q-0.46875 -0.25 -0.765625 -0.6875q-0.28125 -0.4375 -0.28125 -1.171875q0 -0.765625 0.421875 -1.34375q0.4375 -0.578125 1.234375 -0.890625q0.796875 -0.3125 1.875 -0.3125q0.84375 0 1.6875 0.203125q0.859375 0.203125 1.40625 0.5625l-0.65625 1.21875q-0.578125 -0.375 -1.203125 -0.515625q-0.625 -0.15625 -1.25 -0.15625q-1.0 0 -1.5 0.328125q-0.5 0.328125 -0.5 0.84375q0 0.4375 0.296875 0.671875q0.296875 0.21875 0.765625 0.359375q0.484375 0.125 1.046875 0.21875q0.578125 0.078125 1.15625 0.21875q0.578125 0.125 1.046875 0.375q0.46875 0.234375 0.765625 0.671875q0.296875 0.421875 0.296875 1.140625q0 0.78125 -0.453125 1.34375q-0.4375 0.546875 -1.25 0.859375q-0.8125 0.3125 -1.953125 0.3125zm8.500397 0q-1.28125 0 -1.984375 -0.6875q-0.703125 -0.6875 -0.703125 -1.96875l0 -7.78125l1.53125 0l0 7.71875q0 0.6875 0.34375 1.0625q0.34375 0.359375 0.984375 0.359375q0.71875 0 1.203125 -0.390625l0.46875 1.09375q-0.34375 0.3125 -0.84375 0.453125q-0.484375 0.140625 -1.0 0.140625zm-4.140625 -7.3125l0 -1.265625l5.40625 0l0 1.265625l-5.40625 0zm13.108383 7.21875l0 -1.796875l-0.078125 -0.328125l0 -3.0625q0 -0.96875 -0.578125 -1.5q-0.5625 -0.546875 -1.6875 -0.546875q-0.765625 0 -1.484375 0.25q-0.71875 0.25 -1.203125 0.671875l-0.640625 -1.15625q0.65625 -0.53125 1.5625 -0.8125q0.921875 -0.28125 1.9375 -0.28125q1.734375 0 2.671875 0.859375q0.953125 0.84375 0.953125 2.578125l0 5.125l-1.453125 0zm-2.78125 0.09375q-0.953125 0 -1.671875 -0.3125q-0.703125 -0.328125 -1.09375 -0.890625q-0.375 -0.578125 -0.375 -1.296875q0 -0.6875 0.328125 -1.234375q0.328125 -0.5625 1.0625 -0.890625q0.75 -0.34375 2.015625 -0.34375l2.6875 0l0 1.09375l-2.625 0q-1.140625 0 -1.546875 0.390625q-0.40625 0.375 -0.40625 0.921875q0 0.625 0.5 1.0q0.5 0.375 1.375 0.375q0.875 0 1.515625 -0.375q0.65625 -0.390625 0.9375 -1.125l0.296875 1.0625q-0.296875 0.75 -1.0625 1.1875q-0.765625 0.4375 -1.9375 0.4375zm8.333649 -2.140625l0.03125 -1.96875l4.875 -4.46875l1.859375 0l-3.734375 3.6875l-0.84375 0.703125l-2.1875 2.046875zm-1.25 2.046875l0 -11.875l1.53125 0l0 11.875l-1.53125 0zm6.484375 0l-3.328125 -4.125l0.984375 -1.234375l4.234375 5.359375l-1.890625 0zm6.800888 0.09375q-1.359375 0 -2.390625 -0.5625q-1.03125 -0.5625 -1.609375 -1.53125q-0.5625 -0.96875 -0.5625 -2.234375q0 -1.265625 0.546875 -2.234375q0.5625 -0.984375 1.53125 -1.53125q0.96875 -0.5625 2.171875 -0.5625q1.234375 0 2.171875 0.546875q0.953125 0.546875 1.484375 1.53125q0.546875 0.984375 0.546875 2.296875q0 0.09375 -0.015625 0.21875q0 0.125 -0.015625 0.234375l-7.21875 0l0 -1.09375l6.40625 0l-0.625 0.375q0.03125 -0.8125 -0.328125 -1.453125q-0.359375 -0.640625 -0.96875 -1.0q-0.609375 -0.359375 -1.4375 -0.359375q-0.796875 0 -1.421875 0.359375q-0.625 0.359375 -0.984375 1.015625q-0.34375 0.640625 -0.34375 1.46875l0 0.265625q0 0.84375 0.390625 1.515625q0.390625 0.65625 1.09375 1.03125q0.71875 0.359375 1.625 0.359375q0.75 0 1.359375 -0.25q0.625 -0.265625 1.09375 -0.765625l0.84375 0.984375q-0.578125 0.671875 -1.4375 1.03125q-0.859375 0.34375 -1.90625 0.34375z" fill-rule="nonzero"/><path fill="#000000" d="m101.64217 318.48206l5.078125 -11.203125l1.578125 0l5.09375 11.203125l-1.6875 0l-4.53125 -10.296875l0.640625 0l-4.53125 10.296875l-1.640625 0zm2.15625 -2.796875l0.4375 -1.28125l6.296875 0l0.46875 1.28125l-7.203125 0zm12.826889 2.796875l-3.71875 -8.484375l1.59375 0l3.296875 7.6875l-0.765625 0l3.359375 -7.6875l1.5 0l-3.703125 8.484375l-1.5625 0zm10.11026 0.09375q-1.28125 0 -2.28125 -0.5625q-0.984375 -0.5625 -1.5625 -1.53125q-0.578125 -0.984375 -0.578125 -2.234375q0 -1.265625 0.578125 -2.234375q0.578125 -0.984375 1.5625 -1.53125q1.0 -0.5625 2.28125 -0.5625q1.2656326 0 2.2656326 0.5625q1.0 0.546875 1.5625 1.515625q0.5625 0.96875 0.5625 2.25q0 1.265625 -0.5625 2.234375q-0.5625 0.96875 -1.5625 1.53125q-1.0 0.5625 -2.2656326 0.5625zm0 -1.34375q0.8125 0 1.4531326 -0.359375q0.65625 -0.375 1.015625 -1.046875q0.375 -0.6875 0.375 -1.578125q0 -0.921875 -0.375 -1.578125q-0.359375 -0.671875 -1.015625 -1.03125q-0.6406326 -0.375 -1.4531326 -0.375q-0.828125 0 -1.46875 0.375q-0.640625 0.359375 -1.03125 1.03125q-0.375 0.65625 -0.375 1.578125q0 0.890625 0.375 1.578125q0.390625 0.671875 1.03125 1.046875q0.640625 0.359375 1.46875 0.359375zm6.5194016 1.25l0 -8.484375l1.53125 0l0 8.484375l-1.53125 0zm0.765625 -10.109375q-0.4375 0 -0.734375 -0.28125q-0.296875 -0.296875 -0.296875 -0.71875q0 -0.421875 0.296875 -0.703125q0.296875 -0.296875 0.734375 -0.296875q0.453125 0 0.75 0.28125q0.296875 0.28125 0.296875 0.6875q0 0.4375 -0.296875 0.734375q-0.28125 0.296875 -0.75 0.296875zm7.1983795 10.203125q-1.21875 0 -2.1875 -0.53125q-0.96875 -0.546875 -1.53125 -1.515625q-0.5625 -0.984375 -0.5625 -2.28125q0 -1.296875 0.5625 -2.265625q0.5625 -0.96875 1.53125 -1.515625q0.96875 -0.546875 2.1875 -0.546875q1.078125 0 1.9375 0.484375q0.875 0.484375 1.390625 1.4375q0.515625 0.953125 0.515625 2.40625q0 1.4375 -0.5 2.40625q-0.5 0.953125 -1.375 1.4375q-0.859375 0.484375 -1.96875 0.484375zm0.140625 -1.34375q0.796875 0 1.4375 -0.359375q0.65625 -0.375 1.03125 -1.046875q0.375 -0.6875 0.375 -1.578125q0 -0.921875 -0.375 -1.578125q-0.375 -0.671875 -1.03125 -1.03125q-0.640625 -0.375 -1.4375 -0.375q-0.828125 0 -1.46875 0.375q-0.640625 0.359375 -1.03125 1.03125q-0.375 0.65625 -0.375 1.578125q0 0.890625 0.375 1.578125q0.390625 0.671875 1.03125 1.046875q0.640625 0.359375 1.46875 0.359375zm2.890625 1.25l0 -2.28125l0.09375 -1.96875l-0.15625 -1.96875l0 -5.65625l1.53125 0l0 11.875l-1.46875 0zm9.646393 0l0 -1.796875l-0.078125 -0.328125l0 -3.0625q0 -0.96875 -0.578125 -1.5q-0.5625 -0.546875 -1.6875 -0.546875q-0.765625 0 -1.484375 0.25q-0.71875 0.25 -1.203125 0.671875l-0.640625 -1.15625q0.65625 -0.53125 1.5625 -0.8125q0.921875 -0.28125 1.9375 -0.28125q1.734375 0 2.671875 0.859375q0.953125 0.84375 0.953125 2.578125l0 5.125l-1.453125 0zm-2.78125 0.09375q-0.953125 0 -1.671875 -0.3125q-0.703125 -0.328125 -1.09375 -0.890625q-0.375 -0.578125 -0.375 -1.296875q0 -0.6875 0.328125 -1.234375q0.328125 -0.5625 1.0625 -0.890625q0.75 -0.34375 2.015625 -0.34375l2.6875 0l0 1.09375l-2.625 0q-1.140625 0 -1.546875 0.390625q-0.40625 0.375 -0.40625 0.921875q0 0.625 0.5 1.0q0.5 0.375 1.375 0.375q0.875 0 1.515625 -0.375q0.65625 -0.390625 0.9375 -1.125l0.296875 1.0625q-0.296875 0.75 -1.0625 1.1875q-0.765625 0.4375 -1.9375 0.4375zm11.614899 -8.65625q1.046875 0 1.828125 0.40625q0.796875 0.390625 1.234375 1.21875q0.453125 0.8125 0.453125 2.0625l0 4.875l-1.53125 0l0 -4.703125q0 -1.234375 -0.609375 -1.859375q-0.59375 -0.625 -1.671875 -0.625q-0.828125 0 -1.4375 0.328125q-0.609375 0.3125 -0.9375 0.9375q-0.328125 0.625 -0.328125 1.546875l0 4.375l-1.53125 0l0 -8.484375l1.46875 0l0 2.296875l-0.234375 -0.609375q0.421875 -0.828125 1.28125 -1.296875q0.859375 -0.46875 2.015625 -0.46875zm10.067902 8.65625q-1.296875 0 -2.3125 -0.5625q-1.015625 -0.5625 -1.59375 -1.53125q-0.578125 -0.96875 -0.578125 -2.234375q0 -1.265625 0.578125 -2.234375q0.578125 -0.984375 1.59375 -1.53125q1.015625 -0.5625 2.3125 -0.5625q1.140625 0 2.046875 0.46875q0.90625 0.453125 1.40625 1.34375l-1.171875 0.75q-0.40625 -0.625 -1.015625 -0.921875q-0.59375 -0.296875 -1.28125 -0.296875q-0.84375 0 -1.5 0.375q-0.65625 0.359375 -1.046875 1.03125q-0.375 0.65625 -0.375 1.578125q0 0.90625 0.375 1.578125q0.390625 0.671875 1.046875 1.046875q0.65625 0.359375 1.5 0.359375q0.6875 0 1.28125 -0.296875q0.609375 -0.296875 1.015625 -0.921875l1.171875 0.734375q-0.5 0.890625 -1.40625 1.359375q-0.90625 0.46875 -2.046875 0.46875zm9.086136 0q-1.359375 0 -2.390625 -0.5625q-1.03125 -0.5625 -1.609375 -1.53125q-0.5625 -0.96875 -0.5625 -2.234375q0 -1.265625 0.546875 -2.234375q0.5625 -0.984375 1.53125 -1.53125q0.96875 -0.5625 2.171875 -0.5625q1.234375 0 2.171875 0.546875q0.953125 0.546875 1.484375 1.53125q0.546875 0.984375 0.546875 2.296875q0 0.09375 -0.015625 0.21875q0 0.125 -0.015625 0.234375l-7.21875 0l0 -1.09375l6.40625 0l-0.625 0.375q0.03125 -0.8125 -0.328125 -1.453125q-0.359375 -0.640625 -0.96875 -1.0q-0.609375 -0.359375 -1.4375 -0.359375q-0.796875 0 -1.421875 0.359375q-0.625 0.359375 -0.984375 1.015625q-0.34375 0.640625 -0.34375 1.46875l0 0.265625q0 0.84375 0.390625 1.515625q0.390625 0.65625 1.09375 1.03125q0.71875 0.359375 1.625 0.359375q0.75 0 1.359375 -0.25q0.625 -0.265625 1.09375 -0.765625l0.84375 0.984375q-0.578125 0.671875 -1.4375 1.03125q-0.859375 0.34375 -1.90625 0.34375z" fill-rule="nonzero"/><path fill="#efefef" d="m249.11658 184.14282l160.6614 0l0 218.96063l-160.6614 0z" fill-rule="evenodd"/><path stroke="#000000" stroke-width="2.0" stroke-linejoin="round" stroke-linecap="butt" d="m249.11658 184.14282l160.6614 0l0 218.96063l-160.6614 0z" fill-rule="evenodd"/><path fill="#000000" d="m275.58267 289.98315l0 -11.203125l4.71875 0q1.78125 0 3.140625 0.703125q1.375 0.703125 2.140625 1.96875q0.765625 1.265625 0.765625 2.9375q0 1.65625 -0.765625 2.921875q-0.765625 1.265625 -2.140625 1.96875q-1.359375 0.703125 -3.140625 0.703125l-4.71875 0zm1.59375 -1.390625l3.015625 0q1.40625 0 2.421875 -0.53125q1.015625 -0.53125 1.5625 -1.484375q0.5625 -0.953125 0.5625 -2.1875q0 -1.265625 -0.5625 -2.203125q-0.546875 -0.953125 -1.5625 -1.484375q-1.015625 -0.53125 -2.421875 -0.53125l-3.015625 0l0 8.421875zm15.169159 1.484375q-1.359375 0 -2.390625 -0.5625q-1.03125 -0.5625 -1.609375 -1.53125q-0.5625 -0.96875 -0.5625 -2.234375q0 -1.265625 0.546875 -2.234375q0.5625 -0.984375 1.53125 -1.53125q0.96875 -0.5625 2.171875 -0.5625q1.234375 0 2.171875 0.546875q0.953125 0.546875 1.484375 1.53125q0.546875 0.984375 0.546875 2.296875q0 0.09375 -0.015625 0.21875q0 0.125 -0.015625 0.234375l-7.21875 0l0 -1.09375l6.40625 0l-0.625 0.375q0.03125 -0.8125 -0.328125 -1.453125q-0.359375 -0.640625 -0.96875 -1.0q-0.609375 -0.359375 -1.4375 -0.359375q-0.796875 0 -1.421875 0.359375q-0.625 0.359375 -0.984375 1.015625q-0.34375 0.640625 -0.34375 1.46875l0 0.265625q0 0.84375 0.390625 1.515625q0.390625 0.65625 1.09375 1.03125q0.71875 0.359375 1.625 0.359375q0.75 0 1.359375 -0.25q0.625 -0.265625 1.09375 -0.765625l0.84375 0.984375q-0.578125 0.671875 -1.4375 1.03125q-0.859375 0.34375 -1.90625 0.34375zm8.085144 -0.09375l-3.71875 -8.484375l1.59375 0l3.296875 7.6875l-0.765625 0l3.359375 -7.6875l1.5 0l-3.703125 8.484375l-1.5625 0zm10.250885 0.09375q-1.359375 0 -2.390625 -0.5625q-1.03125 -0.5625 -1.609375 -1.53125q-0.5625 -0.96875 -0.5625 -2.234375q0 -1.265625 0.546875 -2.234375q0.5625 -0.984375 1.53125 -1.53125q0.96875 -0.5625 2.171875 -0.5625q1.234375 0 2.171875 0.546875q0.953125 0.546875 1.484375 1.53125q0.546875 0.984375 0.546875 2.296875q0 0.09375 -0.015625 0.21875q0 0.125 -0.015625 0.234375l-7.21875 0l0 -1.09375l6.40625 0l-0.625 0.375q0.03125 -0.8125 -0.328125 -1.453125q-0.359375 -0.640625 -0.96875 -1.0q-0.609375 -0.359375 -1.4375 -0.359375q-0.796875 0 -1.421875 0.359375q-0.625 0.359375 -0.984375 1.015625q-0.34375 0.640625 -0.34375 1.46875l0 0.265625q0 0.84375 0.390625 1.515625q0.390625 0.65625 1.09375 1.03125q0.71875 0.359375 1.625 0.359375q0.75 0 1.359375 -0.25q0.625 -0.265625 1.09375 -0.765625l0.84375 0.984375q-0.578125 0.671875 -1.4375 1.03125q-0.859375 0.34375 -1.90625 0.34375zm6.0107727 -0.09375l0 -11.875l1.53125 0l0 11.875l-1.53125 0zm8.104645 0.09375q-1.28125 0 -2.28125 -0.5625q-0.984375 -0.5625 -1.5625 -1.53125q-0.578125 -0.984375 -0.578125 -2.234375q0 -1.265625 0.578125 -2.234375q0.578125 -0.984375 1.5625 -1.53125q1.0 -0.5625 2.28125 -0.5625q1.265625 0 2.265625 0.5625q1.0 0.546875 1.5625 1.515625q0.5625 0.96875 0.5625 2.25q0 1.265625 -0.5625 2.234375q-0.5625 0.96875 -1.5625 1.53125q-1.0 0.5625 -2.265625 0.5625zm0 -1.34375q0.8125 0 1.453125 -0.359375q0.65625 -0.375 1.015625 -1.046875q0.375 -0.6875 0.375 -1.578125q0 -0.921875 -0.375 -1.578125q-0.359375 -0.671875 -1.015625 -1.03125q-0.640625 -0.375 -1.453125 -0.375q-0.828125 0 -1.46875 0.375q-0.640625 0.359375 -1.03125 1.03125q-0.375 0.65625 -0.375 1.578125q0 0.890625 0.375 1.578125q0.390625 0.671875 1.03125 1.046875q0.640625 0.359375 1.46875 0.359375zm11.019379 1.34375q-1.0625 0 -1.9375 -0.484375q-0.859375 -0.484375 -1.390625 -1.4375q-0.515625 -0.96875 -0.515625 -2.40625q0 -1.453125 0.5 -2.40625q0.515625 -0.953125 1.375 -1.4375q0.875 -0.484375 1.96875 -0.484375q1.25 0 2.203125 0.546875q0.96875 0.546875 1.515625 1.515625q0.5625 0.96875 0.5625 2.265625q0 1.296875 -0.5625 2.28125q-0.546875 0.96875 -1.515625 1.515625q-0.953125 0.53125 -2.203125 0.53125zm-4.5 3.015625l0 -11.59375l1.46875 0l0 2.296875l-0.09375 1.96875l0.15625 1.96875l0 5.359375l-1.53125 0zm4.375 -4.359375q0.8125 0 1.453125 -0.359375q0.65625 -0.375 1.03125 -1.046875q0.375 -0.6875 0.375 -1.578125q0 -0.921875 -0.375 -1.578125q-0.375 -0.671875 -1.03125 -1.03125q-0.640625 -0.375 -1.453125 -0.375q-0.796875 0 -1.453125 0.375q-0.640625 0.359375 -1.03125 1.03125q-0.375 0.65625 -0.375 1.578125q0 0.890625 0.375 1.578125q0.390625 0.671875 1.03125 1.046875q0.65625 0.359375 1.453125 0.359375zm17.146393 -7.3125q1.03125 0 1.8125 0.40625q0.78125 0.390625 1.21875 1.21875q0.4375 0.8125 0.4375 2.0625l0 4.875l-1.53125 0l0 -4.703125q0 -1.234375 -0.578125 -1.859375q-0.578125 -0.625 -1.609375 -0.625q-0.765625 0 -1.34375 0.328125q-0.578125 0.3125 -0.890625 0.9375q-0.3125 0.625 -0.3125 1.546875l0 4.375l-1.53125 0l0 -4.703125q0 -1.234375 -0.578125 -1.859375q-0.5625 -0.625 -1.625 -0.625q-0.75 0 -1.328125 0.328125q-0.578125 0.3125 -0.90625 0.9375q-0.3125 0.625 -0.3125 1.546875l0 4.375l-1.53125 0l0 -8.484375l1.46875 0l0 2.265625l-0.234375 -0.578125q0.40625 -0.828125 1.234375 -1.296875q0.828125 -0.46875 1.9375 -0.46875q1.21875 0 2.09375 0.609375q0.875 0.59375 1.15625 1.8125l-0.625 -0.265625q0.375 -0.96875 1.328125 -1.5625q0.96875 -0.59375 2.25 -0.59375zm10.083923 8.65625q-1.359375 0 -2.390625 -0.5625q-1.03125 -0.5625 -1.609375 -1.53125q-0.5625 -0.96875 -0.5625 -2.234375q0 -1.265625 0.546875 -2.234375q0.5625 -0.984375 1.53125 -1.53125q0.96875 -0.5625 2.171875 -0.5625q1.234375 0 2.171875 0.546875q0.953125 0.546875 1.484375 1.53125q0.546875 0.984375 0.546875 2.296875q0 0.09375 -0.015625 0.21875q0 0.125 -0.015625 0.234375l-7.21875 0l0 -1.09375l6.40625 0l-0.625 0.375q0.03125 -0.8125 -0.328125 -1.453125q-0.359375 -0.640625 -0.96875 -1.0q-0.609375 -0.359375 -1.4375 -0.359375q-0.796875 0 -1.421875 0.359375q-0.625 0.359375 -0.984375 1.015625q-0.34375 0.640625 -0.34375 1.46875l0 0.265625q0 0.84375 0.390625 1.515625q0.390625 0.65625 1.09375 1.03125q0.71875 0.359375 1.625 0.359375q0.75 0 1.359375 -0.25q0.625 -0.265625 1.09375 -0.765625l0.84375 0.984375q-0.578125 0.671875 -1.4375 1.03125q-0.859375 0.34375 -1.90625 0.34375zm10.542023 -8.65625q1.046875 0 1.828125 0.40625q0.796875 0.390625 1.234375 1.21875q0.453125 0.8125 0.453125 2.0625l0 4.875l-1.53125 0l0 -4.703125q0 -1.234375 -0.609375 -1.859375q-0.59375 -0.625 -1.671875 -0.625q-0.828125 0 -1.4375 0.328125q-0.609375 0.3125 -0.9375 0.9375q-0.328125 0.625 -0.328125 1.546875l0 4.375l-1.53125 0l0 -8.484375l1.46875 0l0 2.296875l-0.234375 -0.609375q0.421875 -0.828125 1.28125 -1.296875q0.859375 -0.46875 2.015625 -0.46875zm9.286652 8.65625q-1.28125 0 -1.984375 -0.6875q-0.703125 -0.6875 -0.703125 -1.96875l0 -7.78125l1.53125 0l0 7.71875q0 0.6875 0.34375 1.0625q0.34375 0.359375 0.984375 0.359375q0.71875 0 1.203125 -0.390625l0.46875 1.09375q-0.34375 0.3125 -0.84375 0.453125q-0.484375 0.140625 -1.0 0.140625zm-4.140625 -7.3125l0 -1.265625l5.40625 0l0 1.265625l-5.40625 0z" fill-rule="nonzero"/><path fill="#000000" d="m273.38815 303.0769l5.765625 0l0 1.375l-5.765625 0l0 -1.375zm0.15625 5.90625l-1.59375 0l0 -11.203125l7.890625 0l0 1.390625l-6.296875 0l0 9.8125zm11.638031 0.09375q-1.09375 0 -1.921875 -0.390625q-0.828125 -0.40625 -1.28125 -1.234375q-0.453125 -0.828125 -0.453125 -2.0625l0 -4.890625l1.53125 0l0 4.703125q0 1.25 0.59375 1.875q0.609375 0.625 1.703125 0.625q0.796875 0 1.390625 -0.328125q0.59375 -0.328125 0.90625 -0.953125q0.328125 -0.640625 0.328125 -1.53125l0 -4.390625l1.53125 0l0 8.484375l-1.453125 0l0 -2.28125l0.234375 0.59375q-0.40625 0.859375 -1.25 1.328125q-0.828125 0.453125 -1.859375 0.453125zm11.785126 -8.65625q1.046875 0 1.828125 0.40625q0.796875 0.390625 1.234375 1.21875q0.453125 0.8125 0.453125 2.0625l0 4.875l-1.53125 0l0 -4.703125q0 -1.234375 -0.609375 -1.859375q-0.59375 -0.625 -1.671875 -0.625q-0.828125 0 -1.4375 0.328125q-0.609375 0.3125 -0.9375 0.9375q-0.328125 0.625 -0.328125 1.546875l0 4.375l-1.53125 0l0 -8.484375l1.46875 0l0 2.296875l-0.234375 -0.609375q0.421875 -0.828125 1.28125 -1.296875q0.859375 -0.46875 2.015625 -0.46875zm9.864777 8.65625q-1.21875 0 -2.1875 -0.53125q-0.96875 -0.546875 -1.53125 -1.515625q-0.5625 -0.984375 -0.5625 -2.28125q0 -1.296875 0.5625 -2.265625q0.5625 -0.96875 1.53125 -1.515625q0.96875 -0.546875 2.1875 -0.546875q1.078125 0 1.9375 0.484375q0.875 0.484375 1.390625 1.4375q0.515625 0.953125 0.515625 2.40625q0 1.4375 -0.5 2.40625q-0.5 0.953125 -1.375 1.4375q-0.859375 0.484375 -1.96875 0.484375zm0.140625 -1.34375q0.796875 0 1.4375 -0.359375q0.65625 -0.375 1.03125 -1.046875q0.375 -0.6875 0.375 -1.578125q0 -0.921875 -0.375 -1.578125q-0.375 -0.671875 -1.03125 -1.03125q-0.640625 -0.375 -1.4375 -0.375q-0.828125 0 -1.46875 0.375q-0.640625 0.359375 -1.03125 1.03125q-0.375 0.65625 -0.375 1.578125q0 0.890625 0.375 1.578125q0.390625 0.671875 1.03125 1.046875q0.640625 0.359375 1.46875 0.359375zm2.890625 1.25l0 -2.28125l0.09375 -1.96875l-0.15625 -1.96875l0 -5.65625l1.53125 0l0 11.875l-1.46875 0zm9.646423 0l0 -1.796875l-0.078125 -0.328125l0 -3.0625q0 -0.96875 -0.578125 -1.5q-0.5625 -0.546875 -1.6875 -0.546875q-0.765625 0 -1.484375 0.25q-0.71875 0.25 -1.203125 0.671875l-0.640625 -1.15625q0.65625 -0.53125 1.5625 -0.8125q0.921875 -0.28125 1.9375 -0.28125q1.734375 0 2.671875 0.859375q0.953125 0.84375 0.953125 2.578125l0 5.125l-1.453125 0zm-2.78125 0.09375q-0.953125 0 -1.671875 -0.3125q-0.703125 -0.328125 -1.09375 -0.890625q-0.375 -0.578125 -0.375 -1.296875q0 -0.6875 0.328125 -1.234375q0.328125 -0.5625 1.0625 -0.890625q0.75 -0.34375 2.015625 -0.34375l2.6875 0l0 1.09375l-2.625 0q-1.140625 0 -1.546875 0.390625q-0.40625 0.375 -0.40625 0.921875q0 0.625 0.5 1.0q0.5 0.375 1.375 0.375q0.875 0 1.515625 -0.375q0.65625 -0.390625 0.9375 -1.125l0.296875 1.0625q-0.296875 0.75 -1.0625 1.1875q-0.765625 0.4375 -1.9375 0.4375zm17.693024 -8.65625q1.03125 0 1.8125 0.40625q0.78125 0.390625 1.21875 1.21875q0.4375 0.8125 0.4375 2.0625l0 4.875l-1.53125 0l0 -4.703125q0 -1.234375 -0.578125 -1.859375q-0.578125 -0.625 -1.609375 -0.625q-0.765625 0 -1.34375 0.328125q-0.578125 0.3125 -0.890625 0.9375q-0.3125 0.625 -0.3125 1.546875l0 4.375l-1.53125 0l0 -4.703125q0 -1.234375 -0.578125 -1.859375q-0.5625 -0.625 -1.625 -0.625q-0.75 0 -1.328125 0.328125q-0.578125 0.3125 -0.90625 0.9375q-0.3125 0.625 -0.3125 1.546875l0 4.375l-1.53125 0l0 -8.484375l1.46875 0l0 2.265625l-0.234375 -0.578125q0.40625 -0.828125 1.234375 -1.296875q0.828125 -0.46875 1.9375 -0.46875q1.21875 0 2.09375 0.609375q0.875 0.59375 1.15625 1.8125l-0.625 -0.265625q0.375 -0.96875 1.328125 -1.5625q0.96875 -0.59375 2.25 -0.59375zm10.083893 8.65625q-1.359375 0 -2.390625 -0.5625q-1.03125 -0.5625 -1.609375 -1.53125q-0.5625 -0.96875 -0.5625 -2.234375q0 -1.265625 0.546875 -2.234375q0.5625 -0.984375 1.53125 -1.53125q0.96875 -0.5625 2.171875 -0.5625q1.234375 0 2.171875 0.546875q0.953125 0.546875 1.484375 1.53125q0.546875 0.984375 0.546875 2.296875q0 0.09375 -0.015625 0.21875q0 0.125 -0.015625 0.234375l-7.21875 0l0 -1.09375l6.40625 0l-0.625 0.375q0.03125 -0.8125 -0.328125 -1.453125q-0.359375 -0.640625 -0.96875 -1.0q-0.609375 -0.359375 -1.4375 -0.359375q-0.796875 0 -1.421875 0.359375q-0.625 0.359375 -0.984375 1.015625q-0.34375 0.640625 -0.34375 1.46875l0 0.265625q0 0.84375 0.390625 1.515625q0.390625 0.65625 1.09375 1.03125q0.71875 0.359375 1.625 0.359375q0.75 0 1.359375 -0.25q0.625 -0.265625 1.09375 -0.765625l0.84375 0.984375q-0.578125 0.671875 -1.4375 1.03125q-0.859375 0.34375 -1.90625 0.34375zm10.542023 -8.65625q1.046875 0 1.828125 0.40625q0.796875 0.390625 1.234375 1.21875q0.453125 0.8125 0.453125 2.0625l0 4.875l-1.53125 0l0 -4.703125q0 -1.234375 -0.609375 -1.859375q-0.59375 -0.625 -1.671875 -0.625q-0.828125 0 -1.4375 0.328125q-0.609375 0.3125 -0.9375 0.9375q-0.328125 0.625 -0.328125 1.546875l0 4.375l-1.53125 0l0 -8.484375l1.46875 0l0 2.296875l-0.234375 -0.609375q0.421875 -0.828125 1.28125 -1.296875q0.859375 -0.46875 2.015625 -0.46875zm9.286652 8.65625q-1.28125 0 -1.984375 -0.6875q-0.703125 -0.6875 -0.703125 -1.96875l0 -7.78125l1.53125 0l0 7.71875q0 0.6875 0.34375 1.0625q0.34375 0.359375 0.984375 0.359375q0.71875 0 1.203125 -0.390625l0.46875 1.09375q-0.34375 0.3125 -0.84375 0.453125q-0.484375 0.140625 -1.0 0.140625zm-4.140625 -7.3125l0 -1.265625l5.40625 0l0 1.265625l-5.40625 0zm13.108398 7.21875l0 -1.796875l-0.078125 -0.328125l0 -3.0625q0 -0.96875 -0.578125 -1.5q-0.5625 -0.546875 -1.6875 -0.546875q-0.765625 0 -1.484375 0.25q-0.71875 0.25 -1.203125 0.671875l-0.640625 -1.15625q0.65625 -0.53125 1.5625 -0.8125q0.921875 -0.28125 1.9375 -0.28125q1.734375 0 2.671875 0.859375q0.953125 0.84375 0.953125 2.578125l0 5.125l-1.453125 0zm-2.78125 0.09375q-0.953125 0 -1.671875 -0.3125q-0.703125 -0.328125 -1.09375 -0.890625q-0.375 -0.578125 -0.375 -1.296875q0 -0.6875 0.328125 -1.234375q0.328125 -0.5625 1.0625 -0.890625q0.75 -0.34375 2.015625 -0.34375l2.6875 0l0 1.09375l-2.625 0q-1.140625 0 -1.546875 0.390625q-0.40625 0.375 -0.40625 0.921875q0 0.625 0.5 1.0q0.5 0.375 1.375 0.375q0.875 0 1.515625 -0.375q0.65625 -0.390625 0.9375 -1.125l0.296875 1.0625q-0.296875 0.75 -1.0625 1.1875q-0.765625 0.4375 -1.9375 0.4375zm7.0836487 -0.09375l0 -11.875l1.53125 0l0 11.875l-1.53125 0zm6.9014893 0.09375q-1.0625 0 -2.015625 -0.28125q-0.953125 -0.296875 -1.484375 -0.703125l0.640625 -1.21875q0.53125 0.359375 1.328125 0.625q0.8125 0.25 1.640625 0.25q1.078125 0 1.546875 -0.296875q0.46875 -0.3125 0.46875 -0.859375q0 -0.390625 -0.296875 -0.609375q-0.28125 -0.234375 -0.75 -0.34375q-0.46875 -0.109375 -1.046875 -0.1875q-0.578125 -0.09375 -1.15625 -0.234375q-0.578125 -0.140625 -1.0625 -0.390625q-0.46875 -0.25 -0.765625 -0.6875q-0.28125 -0.4375 -0.28125 -1.171875q0 -0.765625 0.421875 -1.34375q0.4375 -0.578125 1.234375 -0.890625q0.796875 -0.3125 1.875 -0.3125q0.84375 0 1.6875 0.203125q0.859375 0.203125 1.40625 0.5625l-0.65625 1.21875q-0.578125 -0.375 -1.203125 -0.515625q-0.625 -0.15625 -1.25 -0.15625q-1.0 0 -1.5 0.328125q-0.5 0.328125 -0.5 0.84375q0 0.4375 0.296875 0.671875q0.296875 0.21875 0.765625 0.359375q0.484375 0.125 1.046875 0.21875q0.578125 0.078125 1.15625 0.21875q0.578125 0.125 1.046875 0.375q0.46875 0.234375 0.765625 0.671875q0.296875 0.421875 0.296875 1.140625q0 0.78125 -0.453125 1.34375q-0.4375 0.546875 -1.25 0.859375q-0.8125 0.3125 -1.953125 0.3125z" fill-rule="nonzero"/><path fill="#efefef" d="m434.68723 184.14064l160.6614 0l0 218.96062l-160.6614 0z" fill-rule="evenodd"/><path stroke="#000000" stroke-width="2.0" stroke-linejoin="round" stroke-linecap="butt" d="m434.68723 184.14064l160.6614 0l0 218.96062l-160.6614 0z" fill-rule="evenodd"/><path fill="#000000" d="m499.7214 289.98096l0 -11.203125l4.359375 0q1.46875 0 2.5 0.46875q1.046875 0.46875 1.609375 1.34375q0.5625 0.875 0.5625 2.09375q0 1.21875 -0.5625 2.09375q-0.5625 0.859375 -1.609375 1.328125q-1.03125 0.46875 -2.5 0.46875l-3.484375 0l0.71875 -0.734375l0 4.140625l-1.59375 0zm7.484375 0l-2.859375 -4.0625l1.71875 0l2.875 4.0625l-1.734375 0zm-5.890625 -3.984375l-0.71875 -0.78125l3.4375 0q1.53125 0 2.328125 -0.65625q0.796875 -0.671875 0.796875 -1.875q0 -1.203125 -0.796875 -1.859375q-0.796875 -0.65625 -2.328125 -0.65625l-3.4375 0l0.71875 -0.796875l0 6.625zm9.803894 3.984375l0 -8.484375l1.5312805 0l0 8.484375l-1.5312805 0zm0.765625 -10.109375q-0.4375 0 -0.734375 -0.28125q-0.296875 -0.296875 -0.296875 -0.71875q0 -0.421875 0.296875 -0.703125q0.296875 -0.296875 0.734375 -0.296875q0.45315552 0 0.7500305 0.28125q0.296875 0.28125 0.296875 0.6875q0 0.4375 -0.296875 0.734375q-0.28125 0.296875 -0.7500305 0.296875zm6.135895 10.203125q-1.0625 0 -2.015625 -0.28125q-0.953125 -0.296875 -1.484375 -0.703125l0.640625 -1.21875q0.53125 0.359375 1.328125 0.625q0.8125 0.25 1.640625 0.25q1.078125 0 1.546875 -0.296875q0.46875 -0.3125 0.46875 -0.859375q0 -0.390625 -0.296875 -0.609375q-0.28125 -0.234375 -0.75 -0.34375q-0.46875 -0.109375 -1.046875 -0.1875q-0.578125 -0.09375 -1.15625 -0.234375q-0.578125 -0.140625 -1.0625 -0.390625q-0.46875 -0.25 -0.765625 -0.6875q-0.28125 -0.4375 -0.28125 -1.171875q0 -0.765625 0.421875 -1.34375q0.4375 -0.578125 1.234375 -0.890625q0.796875 -0.3125 1.875 -0.3125q0.84375 0 1.6875 0.203125q0.859375 0.203125 1.40625 0.5625l-0.65625 1.21875q-0.578125 -0.375 -1.203125 -0.515625q-0.625 -0.15625 -1.25 -0.15625q-1.0 0 -1.5 0.328125q-0.5 0.328125 -0.5 0.84375q0 0.4375 0.296875 0.671875q0.296875 0.21875 0.765625 0.359375q0.484375 0.125 1.046875 0.21875q0.578125 0.078125 1.15625 0.21875q0.578125 0.125 1.046875 0.375q0.46875 0.234375 0.765625 0.671875q0.296875 0.421875 0.296875 1.140625q0 0.78125 -0.453125 1.34375q-0.4375 0.546875 -1.25 0.859375q-0.8125 0.3125 -1.953125 0.3125zm6.828491 -2.140625l0.03125 -1.96875l4.875 -4.46875l1.859375 0l-3.734375 3.6875l-0.84375 0.703125l-2.1875 2.046875zm-1.25 2.046875l0 -11.875l1.53125 0l0 11.875l-1.53125 0zm6.484375 0l-3.328125 -4.125l0.984375 -1.234375l4.234375 5.359375l-1.890625 0z" fill-rule="nonzero"/><path fill="#000000" d="m461.5213 308.98096l0 -11.203125l1.296875 0l5.03125 8.46875l-0.703125 0l4.953125 -8.46875l1.3125 0l0.015625 11.203125l-1.53125 0l-0.015625 -8.78125l0.375 0l-4.421875 7.421875l-0.734375 0l-4.453125 -7.421875l0.40625 0l0 8.78125l-1.53125 0zm20.31128 0l0 -1.796875l-0.078125 -0.328125l0 -3.0625q0 -0.96875 -0.578125 -1.5q-0.5625 -0.546875 -1.6875 -0.546875q-0.765625 0 -1.484375 0.25q-0.71875 0.25 -1.203125 0.671875l-0.640625 -1.15625q0.65625 -0.53125 1.5625 -0.8125q0.921875 -0.28125 1.9375 -0.28125q1.734375 0 2.671875 0.859375q0.953125 0.84375 0.953125 2.578125l0 5.125l-1.453125 0zm-2.78125 0.09375q-0.953125 0 -1.671875 -0.3125q-0.703125 -0.328125 -1.09375 -0.890625q-0.375 -0.578125 -0.375 -1.296875q0 -0.6875 0.328125 -1.234375q0.328125 -0.5625 1.0625 -0.890625q0.75 -0.34375 2.015625 -0.34375l2.6875 0l0 1.09375l-2.625 0q-1.140625 0 -1.546875 0.390625q-0.40625 0.375 -0.40625 0.921875q0 0.625 0.5 1.0q0.5 0.375 1.375 0.375q0.875 0 1.515625 -0.375q0.65625 -0.390625 0.9375 -1.125l0.296875 1.0625q-0.296875 0.75 -1.0625 1.1875q-0.765625 0.4375 -1.9375 0.4375zm11.614899 -8.65625q1.046875 0 1.828125 0.40625q0.796875 0.390625 1.234375 1.21875q0.453125 0.8125 0.453125 2.0625l0 4.875l-1.53125 0l0 -4.703125q0 -1.234375 -0.609375 -1.859375q-0.59375 -0.625 -1.671875 -0.625q-0.828125 0 -1.4375 0.328125q-0.609375 0.3125 -0.9375 0.9375q-0.328125 0.625 -0.328125 1.546875l0 4.375l-1.53125 0l0 -8.484375l1.46875 0l0 2.296875l-0.234375 -0.609375q0.421875 -0.828125 1.28125 -1.296875q0.859375 -0.46875 2.015625 -0.46875zm11.630432 8.5625l0 -1.796875l-0.078125 -0.328125l0 -3.0625q0 -0.96875 -0.578125 -1.5q-0.5625 -0.546875 -1.6875 -0.546875q-0.765625 0 -1.4844055 0.25q-0.71875 0.25 -1.203125 0.671875l-0.640625 -1.15625q0.65625 -0.53125 1.5625 -0.8125q0.9219055 -0.28125 1.9375305 -0.28125q1.734375 0 2.671875 0.859375q0.953125 0.84375 0.953125 2.578125l0 5.125l-1.453125 0zm-2.78125 0.09375q-0.9531555 0 -1.6719055 -0.3125q-0.703125 -0.328125 -1.09375 -0.890625q-0.375 -0.578125 -0.375 -1.296875q0 -0.6875 0.328125 -1.234375q0.328125 -0.5625 1.0625 -0.890625q0.75 -0.34375 2.0156555 -0.34375l2.6875 0l0 1.09375l-2.625 0q-1.140625 0 -1.5469055 0.390625q-0.40625 0.375 -0.40625 0.921875q0 0.625 0.5 1.0q0.5000305 0.375 1.3750305 0.375q0.875 0 1.515625 -0.375q0.65625 -0.390625 0.9375 -1.125l0.296875 1.0625q-0.296875 0.75 -1.0625 1.1875q-0.765625 0.4375 -1.9375 0.4375zm10.802399 3.109375q-1.171875 0 -2.265625 -0.328125q-1.09375 -0.328125 -1.78125 -0.9375l0.734375 -1.1875q0.59375 0.515625 1.453125 0.8125q0.859375 0.296875 1.8125 0.296875q1.5 0 2.203125 -0.703125q0.703125 -0.703125 0.703125 -2.140625l0 -1.796875l0.15625 -1.6875l-0.078125 -1.6875l0 -2.328125l1.453125 0l0 7.328125q0 2.25 -1.125 3.296875q-1.109375 1.0625 -3.265625 1.0625zm-0.203125 -3.5625q-1.21875 0 -2.1875 -0.515625q-0.96875 -0.515625 -1.546875 -1.4375q-0.5625 -0.9375 -0.5625 -2.15625q0 -1.234375 0.5625 -2.140625q0.578125 -0.921875 1.546875 -1.4375q0.96875 -0.515625 2.1875 -0.515625q1.09375 0 1.984375 0.4375q0.90625 0.4375 1.4375 1.359375q0.53125 0.90625 0.53125 2.296875q0 1.375 -0.53125 2.296875q-0.53125 0.90625 -1.4375 1.359375q-0.890625 0.453125 -1.984375 0.453125zm0.1875 -1.34375q0.84375 0 1.5 -0.34375q0.65625 -0.359375 1.03125 -0.96875q0.375 -0.625 0.375 -1.453125q0 -0.8125 -0.375 -1.4375q-0.375 -0.625 -1.03125 -0.96875q-0.65625 -0.34375 -1.5 -0.34375q-0.859375 0 -1.53125 0.34375q-0.65625 0.34375 -1.03125 0.96875q-0.375 0.625 -0.375 1.4375q0 0.828125 0.375 1.453125q0.375 0.609375 1.03125 0.96875q0.671875 0.34375 1.53125 0.34375zm11.118164 1.796875q-1.359375 0 -2.390625 -0.5625q-1.03125 -0.5625 -1.609375 -1.53125q-0.5625 -0.96875 -0.5625 -2.234375q0 -1.265625 0.546875 -2.234375q0.5625 -0.984375 1.53125 -1.53125q0.96875 -0.5625 2.171875 -0.5625q1.234375 0 2.171875 0.546875q0.953125 0.546875 1.484375 1.53125q0.546875 0.984375 0.546875 2.296875q0 0.09375 -0.015625 0.21875q0 0.125 -0.015625 0.234375l-7.21875 0l0 -1.09375l6.40625 0l-0.625 0.375q0.03125 -0.8125 -0.328125 -1.453125q-0.359375 -0.640625 -0.96875 -1.0q-0.609375 -0.359375 -1.4375 -0.359375q-0.796875 0 -1.421875 0.359375q-0.625 0.359375 -0.984375 1.015625q-0.34375 0.640625 -0.34375 1.46875l0 0.265625q0 0.84375 0.390625 1.515625q0.390625 0.65625 1.09375 1.03125q0.71875 0.359375 1.625 0.359375q0.75 0 1.359375 -0.25q0.625 -0.265625 1.09375 -0.765625l0.84375 0.984375q-0.578125 0.671875 -1.4375 1.03125q-0.859375 0.34375 -1.90625 0.34375zm16.620117 -8.65625q1.03125 0 1.8125 0.40625q0.78125 0.390625 1.21875 1.21875q0.4375 0.8125 0.4375 2.0625l0 4.875l-1.53125 0l0 -4.703125q0 -1.234375 -0.578125 -1.859375q-0.578125 -0.625 -1.609375 -0.625q-0.765625 0 -1.34375 0.328125q-0.578125 0.3125 -0.890625 0.9375q-0.3125 0.625 -0.3125 1.546875l0 4.375l-1.53125 0l0 -4.703125q0 -1.234375 -0.578125 -1.859375q-0.5625 -0.625 -1.625 -0.625q-0.75 0 -1.328125 0.328125q-0.578125 0.3125 -0.90625 0.9375q-0.3125 0.625 -0.3125 1.546875l0 4.375l-1.53125 0l0 -8.484375l1.46875 0l0 2.265625l-0.234375 -0.578125q0.40625 -0.828125 1.234375 -1.296875q0.828125 -0.46875 1.9375 -0.46875q1.21875 0 2.09375 0.609375q0.875 0.59375 1.15625 1.8125l-0.625 -0.265625q0.375 -0.96875 1.328125 -1.5625q0.96875 -0.59375 2.25 -0.59375zm10.083923 8.65625q-1.359375 0 -2.390625 -0.5625q-1.03125 -0.5625 -1.609375 -1.53125q-0.5625 -0.96875 -0.5625 -2.234375q0 -1.265625 0.546875 -2.234375q0.5625 -0.984375 1.53125 -1.53125q0.96875 -0.5625 2.171875 -0.5625q1.234375 0 2.171875 0.546875q0.953125 0.546875 1.484375 1.53125q0.546875 0.984375 0.546875 2.296875q0 0.09375 -0.015625 0.21875q0 0.125 -0.015625 0.234375l-7.21875 0l0 -1.09375l6.40625 0l-0.625 0.375q0.03125 -0.8125 -0.328125 -1.453125q-0.359375 -0.640625 -0.96875 -1.0q-0.609375 -0.359375 -1.4375 -0.359375q-0.796875 0 -1.421875 0.359375q-0.625 0.359375 -0.984375 1.015625q-0.34375 0.640625 -0.34375 1.46875l0 0.265625q0 0.84375 0.390625 1.515625q0.390625 0.65625 1.09375 1.03125q0.71875 0.359375 1.625 0.359375q0.75 0 1.359375 -0.25q0.625 -0.265625 1.09375 -0.765625l0.84375 0.984375q-0.578125 0.671875 -1.4375 1.03125q-0.859375 0.34375 -1.90625 0.34375zm10.541992 -8.65625q1.046875 0 1.828125 0.40625q0.796875 0.390625 1.234375 1.21875q0.453125 0.8125 0.453125 2.0625l0 4.875l-1.53125 0l0 -4.703125q0 -1.234375 -0.609375 -1.859375q-0.59375 -0.625 -1.671875 -0.625q-0.828125 0 -1.4375 0.328125q-0.609375 0.3125 -0.9375 0.9375q-0.328125 0.625 -0.328125 1.546875l0 4.375l-1.53125 0l0 -8.484375l1.46875 0l0 2.296875l-0.234375 -0.609375q0.421875 -0.828125 1.28125 -1.296875q0.859375 -0.46875 2.015625 -0.46875zm9.286682 8.65625q-1.28125 0 -1.984375 -0.6875q-0.703125 -0.6875 -0.703125 -1.96875l0 -7.78125l1.53125 0l0 7.71875q0 0.6875 0.34375 1.0625q0.34375 0.359375 0.984375 0.359375q0.71875 0 1.203125 -0.390625l0.46875 1.09375q-0.34375 0.3125 -0.84375 0.453125q-0.484375 0.140625 -1.0 0.140625zm-4.140625 -7.3125l0 -1.265625l5.40625 0l0 1.265625l-5.40625 0z" fill-rule="nonzero"/><path fill="#efefef" d="m620.2579 184.14117l160.66144 0l0 218.96063l-160.66144 0z" fill-rule="evenodd"/><path stroke="#000000" stroke-width="2.0" stroke-linejoin="round" stroke-linecap="butt" d="m620.2579 184.14117l160.66144 0l0 218.96063l-160.66144 0z" fill-rule="evenodd"/><path fill="#000000" d="m667.702 280.6065q-1.28125 0 -2.453125 -0.390625q-1.15625 -0.390625 -1.828125 -1.015625l0.59375 -1.25q0.640625 0.5625 1.625 0.9375q1.0 0.359375 2.0625 0.359375q0.984375 0 1.59375 -0.21875q0.609375 -0.234375 0.890625 -0.625q0.296875 -0.390625 0.296875 -0.875q0 -0.578125 -0.390625 -0.921875q-0.375 -0.359375 -0.96875 -0.578125q-0.59375 -0.21875 -1.328125 -0.375q-0.71875 -0.15625 -1.453125 -0.375q-0.71875 -0.21875 -1.328125 -0.546875q-0.59375 -0.34375 -0.96875 -0.90625q-0.359375 -0.578125 -0.359375 -1.46875q0 -0.859375 0.453125 -1.59375q0.46875 -0.734375 1.421875 -1.171875q0.953125 -0.4375 2.421875 -0.4375q0.96875 0 1.921875 0.265625q0.96875 0.25 1.671875 0.71875l-0.53125 1.28125q-0.71875 -0.46875 -1.515625 -0.6875q-0.796875 -0.21875 -1.546875 -0.21875q-0.953125 0 -1.5625 0.25q-0.59375 0.234375 -0.875 0.640625q-0.28125 0.390625 -0.28125 0.890625q0 0.59375 0.375 0.953125q0.375 0.34375 0.96875 0.546875q0.609375 0.203125 1.328125 0.375q0.71875 0.171875 1.4375 0.375q0.734375 0.203125 1.328125 0.546875q0.609375 0.328125 0.96875 0.890625q0.375 0.5625 0.375 1.4375q0 0.859375 -0.46875 1.59375q-0.453125 0.71875 -1.421875 1.15625q-0.96875 0.4375 -2.453125 0.4375zm10.154724 -0.03125q-1.296875 0 -2.3125 -0.5625q-1.015625 -0.5625 -1.59375 -1.53125q-0.578125 -0.96875 -0.578125 -2.234375q0 -1.265625 0.578125 -2.234375q0.578125 -0.984375 1.59375 -1.53125q1.015625 -0.5625 2.3125 -0.5625q1.140625 0 2.046875 0.46875q0.90625 0.453125 1.40625 1.34375l-1.171875 0.75q-0.40625 -0.625 -1.015625 -0.921875q-0.59375 -0.296875 -1.28125 -0.296875q-0.84375 0 -1.5 0.375q-0.65625 0.359375 -1.046875 1.03125q-0.375 0.65625 -0.375 1.578125q0 0.90625 0.375 1.578125q0.390625 0.671875 1.046875 1.046875q0.65625 0.359375 1.5 0.359375q0.6875 0 1.28125 -0.296875q0.609375 -0.296875 1.015625 -0.921875l1.171875 0.734375q-0.5 0.890625 -1.40625 1.359375q-0.90625 0.46875 -2.046875 0.46875zm9.852173 -8.65625q1.046875 0 1.828125 0.40625q0.796875 0.390625 1.234375 1.21875q0.453125 0.8125 0.453125 2.0625l0 4.875l-1.53125 0l0 -4.703125q0 -1.234375 -0.609375 -1.859375q-0.59375 -0.625 -1.671875 -0.625q-0.828125 0 -1.4375 0.328125q-0.609375 0.3125 -0.9375 0.9375q-0.328125 0.625 -0.328125 1.546875l0 4.375l-1.53125 0l0 -11.875l1.53125 0l0 5.6875l-0.296875 -0.609375q0.421875 -0.828125 1.28125 -1.296875q0.859375 -0.46875 2.015625 -0.46875zm10.146057 8.65625q-1.359375 0 -2.390625 -0.5625q-1.03125 -0.5625 -1.609375 -1.53125q-0.5625 -0.96875 -0.5625 -2.234375q0 -1.265625 0.546875 -2.234375q0.5625 -0.984375 1.53125 -1.53125q0.96875 -0.5625 2.171875 -0.5625q1.234375 0 2.171875 0.546875q0.953125 0.546875 1.484375 1.53125q0.546875 0.984375 0.546875 2.296875q0 0.09375 -0.015625 0.21875q0 0.125 -0.015625 0.234375l-7.21875 0l0 -1.09375l6.40625 0l-0.625 0.375q0.03125 -0.8125 -0.328125 -1.453125q-0.359375 -0.640625 -0.96875 -1.0q-0.609375 -0.359375 -1.4375 -0.359375q-0.796875 0 -1.421875 0.359375q-0.625 0.359375 -0.984375 1.015625q-0.34375 0.640625 -0.34375 1.46875l0 0.265625q0 0.84375 0.390625 1.515625q0.390625 0.65625 1.09375 1.03125q0.71875 0.359375 1.625 0.359375q0.75 0 1.359375 -0.25q0.625 -0.265625 1.09375 -0.765625l0.84375 0.984375q-0.578125 0.671875 -1.4375 1.03125q-0.859375 0.34375 -1.90625 0.34375zm9.510742 0q-1.21875 0 -2.1875 -0.53125q-0.96875 -0.546875 -1.53125 -1.515625q-0.5625 -0.984375 -0.5625 -2.28125q0 -1.296875 0.5625 -2.265625q0.5625 -0.96875 1.53125 -1.515625q0.96875 -0.546875 2.1875 -0.546875q1.078125 0 1.9375 0.484375q0.875 0.484375 1.390625 1.4375q0.515625 0.953125 0.515625 2.40625q0 1.4375 -0.5 2.40625q-0.5 0.953125 -1.375 1.4375q-0.859375 0.484375 -1.96875 0.484375zm0.140625 -1.34375q0.796875 0 1.4375 -0.359375q0.65625 -0.375 1.03125 -1.046875q0.375 -0.6875 0.375 -1.578125q0 -0.921875 -0.375 -1.578125q-0.375 -0.671875 -1.03125 -1.03125q-0.640625 -0.375 -1.4375 -0.375q-0.828125 0 -1.46875 0.375q-0.640625 0.359375 -1.03125 1.03125q-0.375 0.65625 -0.375 1.578125q0 0.890625 0.375 1.578125q0.390625 0.671875 1.03125 1.046875q0.640625 0.359375 1.46875 0.359375zm2.890625 1.25l0 -2.28125l0.09375 -1.96875l-0.15625 -1.96875l0 -5.65625l1.53125 0l0 11.875l-1.46875 0zm7.9589233 0.09375q-1.09375 0 -1.921875 -0.390625q-0.828125 -0.40625 -1.28125 -1.234375q-0.453125 -0.828125 -0.453125 -2.0625l0 -4.890625l1.53125 0l0 4.703125q0 1.25 0.59375 1.875q0.609375 0.625 1.703125 0.625q0.796875 0 1.390625 -0.328125q0.59375 -0.328125 0.90625 -0.953125q0.328125 -0.640625 0.328125 -1.53125l0 -4.390625l1.53125 0l0 8.484375l-1.453125 0l0 -2.28125l0.234375 0.59375q-0.40625 0.859375 -1.25 1.328125q-0.828125 0.453125 -1.859375 0.453125zm7.253845 -0.09375l0 -11.875l1.53125 0l0 11.875l-1.53125 0zm8.2453 0.09375q-1.359375 0 -2.390625 -0.5625q-1.03125 -0.5625 -1.609375 -1.53125q-0.5625 -0.96875 -0.5625 -2.234375q0 -1.265625 0.546875 -2.234375q0.5625 -0.984375 1.53125 -1.53125q0.96875 -0.5625 2.171875 -0.5625q1.234375 0 2.171875 0.546875q0.953125 0.546875 1.484375 1.53125q0.546875 0.984375 0.546875 2.296875q0 0.09375 -0.015625 0.21875q0 0.125 -0.015625 0.234375l-7.21875 0l0 -1.09375l6.40625 0l-0.625 0.375q0.03125 -0.8125 -0.328125 -1.453125q-0.359375 -0.640625 -0.96875 -1.0q-0.609375 -0.359375 -1.4375 -0.359375q-0.796875 0 -1.421875 0.359375q-0.625 0.359375 -0.984375 1.015625q-0.34375 0.640625 -0.34375 1.46875l0 0.265625q0 0.84375 0.390625 1.515625q0.390625 0.65625 1.09375 1.03125q0.71875 0.359375 1.625 0.359375q0.75 0 1.359375 -0.25q0.625 -0.265625 1.09375 -0.765625l0.84375 0.984375q-0.578125 0.671875 -1.4375 1.03125q-0.859375 0.34375 -1.90625 0.34375z" fill-rule="nonzero"/><path fill="#000000" d="m671.2829 299.6065q-1.28125 0 -2.375 -0.421875q-1.09375 -0.4375 -1.90625 -1.203125q-0.796875 -0.78125 -1.25 -1.828125q-0.4375 -1.046875 -0.4375 -2.265625q0 -1.234375 0.4375 -2.265625q0.453125 -1.046875 1.25 -1.828125q0.8125 -0.78125 1.890625 -1.203125q1.09375 -0.4375 2.390625 -0.4375q1.28125 0 2.359375 0.421875q1.078125 0.421875 1.890625 1.203125q0.8125 0.78125 1.25 1.828125q0.4375 1.03125 0.4375 2.28125q0 1.234375 -0.4375 2.28125q-0.4375 1.046875 -1.25 1.828125q-0.8125 0.765625 -1.890625 1.1875q-1.078125 0.421875 -2.359375 0.421875zm0 -1.421875q0.921875 0 1.71875 -0.3125q0.796875 -0.328125 1.375 -0.90625q0.59375 -0.59375 0.921875 -1.375q0.328125 -0.78125 0.328125 -1.703125q0 -0.9375 -0.328125 -1.71875q-0.328125 -0.78125 -0.921875 -1.359375q-0.578125 -0.59375 -1.375 -0.90625q-0.796875 -0.328125 -1.71875 -0.328125q-0.9375 0 -1.734375 0.328125q-0.796875 0.3125 -1.390625 0.90625q-0.578125 0.578125 -0.90625 1.359375q-0.328125 0.78125 -0.328125 1.71875q0 0.921875 0.328125 1.703125q0.328125 0.78125 0.90625 1.375q0.59375 0.578125 1.390625 0.90625q0.796875 0.3125 1.734375 0.3125zm8.158752 1.296875l0 -8.484375l1.46875 0l0 2.3125l-0.140625 -0.578125q0.359375 -0.875 1.1875 -1.34375q0.828125 -0.46875 2.046875 -0.46875l0 1.484375q-0.09375 -0.015625 -0.1875 -0.015625q-0.078125 0 -0.171875 0q-1.21875 0 -1.953125 0.75q-0.71875 0.734375 -0.71875 2.125l0 4.21875l-1.53125 0zm6.448059 0l0 -8.484375l1.53125 0l0 8.484375l-1.53125 0zm0.765625 -10.109375q-0.4375 0 -0.734375 -0.28125q-0.296875 -0.296875 -0.296875 -0.71875q0 -0.421875 0.296875 -0.703125q0.296875 -0.296875 0.734375 -0.296875q0.453125 0 0.75 0.28125q0.296875 0.28125 0.296875 0.6875q0 0.4375 -0.296875 0.734375q-0.28125 0.296875 -0.75 0.296875zm7.4796143 10.203125q-1.359375 0 -2.390625 -0.5625q-1.03125 -0.5625 -1.609375 -1.53125q-0.5625 -0.96875 -0.5625 -2.234375q0 -1.265625 0.546875 -2.234375q0.5625 -0.984375 1.53125 -1.53125q0.96875 -0.5625 2.171875 -0.5625q1.234375 0 2.171875 0.546875q0.953125 0.546875 1.484375 1.53125q0.546875 0.984375 0.546875 2.296875q0 0.09375 -0.015625 0.21875q0 0.125 -0.015625 0.234375l-7.21875 0l0 -1.09375l6.40625 0l-0.625 0.375q0.03125 -0.8125 -0.328125 -1.453125q-0.359375 -0.640625 -0.96875 -1.0q-0.609375 -0.359375 -1.4375 -0.359375q-0.796875 0 -1.421875 0.359375q-0.625 0.359375 -0.984375 1.015625q-0.34375 0.640625 -0.34375 1.46875l0 0.265625q0 0.84375 0.390625 1.515625q0.390625 0.65625 1.09375 1.03125q0.71875 0.359375 1.625 0.359375q0.75 0 1.359375 -0.25q0.625 -0.265625 1.09375 -0.765625l0.84375 0.984375q-0.578125 0.671875 -1.4375 1.03125q-0.859375 0.34375 -1.90625 0.34375zm10.541992 -8.65625q1.046875 0 1.828125 0.40625q0.796875 0.390625 1.234375 1.21875q0.453125 0.8125 0.453125 2.0625l0 4.875l-1.53125 0l0 -4.703125q0 -1.234375 -0.609375 -1.859375q-0.59375 -0.625 -1.671875 -0.625q-0.828125 0 -1.4375 0.328125q-0.609375 0.3125 -0.9375 0.9375q-0.328125 0.625 -0.328125 1.546875l0 4.375l-1.53125 0l0 -8.484375l1.46875 0l0 2.296875l-0.234375 -0.609375q0.421875 -0.828125 1.28125 -1.296875q0.859375 -0.46875 2.015625 -0.46875zm9.286682 8.65625q-1.28125 0 -1.984375 -0.6875q-0.703125 -0.6875 -0.703125 -1.96875l0 -7.78125l1.53125 0l0 7.71875q0 0.6875 0.34375 1.0625q0.34375 0.359375 0.984375 0.359375q0.71875 0 1.203125 -0.390625l0.46875 1.09375q-0.34375 0.3125 -0.84375 0.453125q-0.484375 0.140625 -1.0 0.140625zm-4.140625 -7.3125l0 -1.265625l5.40625 0l0 1.265625l-5.40625 0zm11.335999 7.3125q-1.359375 0 -2.390625 -0.5625q-1.03125 -0.5625 -1.609375 -1.53125q-0.5625 -0.96875 -0.5625 -2.234375q0 -1.265625 0.546875 -2.234375q0.5625 -0.984375 1.53125 -1.53125q0.96875 -0.5625 2.171875 -0.5625q1.234375 0 2.171875 0.546875q0.953125 0.546875 1.484375 1.53125q0.546875 0.984375 0.546875 2.296875q0 0.09375 -0.015625 0.21875q0 0.125 -0.015625 0.234375l-7.21875 0l0 -1.09375l6.40625 0l-0.625 0.375q0.03125 -0.8125 -0.328125 -1.453125q-0.359375 -0.640625 -0.96875 -1.0q-0.609375 -0.359375 -1.4375 -0.359375q-0.796875 0 -1.421875 0.359375q-0.625 0.359375 -0.984375 1.015625q-0.34375 0.640625 -0.34375 1.46875l0 0.265625q0 0.84375 0.390625 1.515625q0.390625 0.65625 1.09375 1.03125q0.71875 0.359375 1.625 0.359375q0.75 0 1.359375 -0.25q0.625 -0.265625 1.09375 -0.765625l0.84375 0.984375q-0.578125 0.671875 -1.4375 1.03125q-0.859375 0.34375 -1.90625 0.34375zm9.510803 0q-1.21875 0 -2.1875 -0.53125q-0.96875 -0.546875 -1.53125 -1.515625q-0.5625 -0.984375 -0.5625 -2.28125q0 -1.296875 0.5625 -2.265625q0.5625 -0.96875 1.53125 -1.515625q0.96875 -0.546875 2.1875 -0.546875q1.078125 0 1.9375 0.484375q0.875 0.484375 1.390625 1.4375q0.515625 0.953125 0.515625 2.40625q0 1.4375 -0.5 2.40625q-0.5 0.953125 -1.375 1.4375q-0.859375 0.484375 -1.96875 0.484375zm0.140625 -1.34375q0.796875 0 1.4375 -0.359375q0.65625 -0.375 1.03125 -1.046875q0.375 -0.6875 0.375 -1.578125q0 -0.921875 -0.375 -1.578125q-0.375 -0.671875 -1.03125 -1.03125q-0.640625 -0.375 -1.4375 -0.375q-0.828125 0 -1.46875 0.375q-0.640625 0.359375 -1.03125 1.03125q-0.375 0.65625 -0.375 1.578125q0 0.890625 0.375 1.578125q0.390625 0.671875 1.03125 1.046875q0.640625 0.359375 1.46875 0.359375zm2.890625 1.25l0 -2.28125l0.09375 -1.96875l-0.15625 -1.96875l0 -5.65625l1.53125 0l0 11.875l-1.46875 0z" fill-rule="nonzero"/><path fill="#000000" d="m665.38 318.4815l0 -11.203125l4.359375 0q1.46875 0 2.5 0.46875q1.046875 0.46875 1.609375 1.34375q0.5625 0.875 0.5625 2.09375q0 1.21875 -0.5625 2.09375q-0.5625 0.859375 -1.609375 1.34375q-1.03125 0.46875 -2.5 0.46875l-3.484375 0l0.71875 -0.75l0 4.140625l-1.59375 0zm1.59375 -3.984375l-0.71875 -0.796875l3.4375 0q1.53125 0 2.328125 -0.65625q0.796875 -0.65625 0.796875 -1.859375q0 -1.203125 -0.796875 -1.859375q-0.796875 -0.65625 -2.328125 -0.65625l-3.4375 0l0.71875 -0.796875l0 6.625zm9.419922 3.984375l0 -8.484375l1.46875 0l0 2.3125l-0.140625 -0.578125q0.359375 -0.875 1.1875 -1.34375q0.828125 -0.46875 2.046875 -0.46875l0 1.484375q-0.09375 -0.015625 -0.1875 -0.015625q-0.078125 0 -0.171875 0q-1.21875 0 -1.953125 0.75q-0.71875 0.734375 -0.71875 2.125l0 4.21875l-1.53125 0zm11.0896 0l0 -1.796875l-0.078125 -0.328125l0 -3.0625q0 -0.96875 -0.578125 -1.5q-0.5625 -0.546875 -1.6875 -0.546875q-0.765625 0 -1.484375 0.25q-0.71875 0.25 -1.203125 0.671875l-0.640625 -1.15625q0.65625 -0.53125 1.5625 -0.8125q0.921875 -0.28125 1.9375 -0.28125q1.734375 0 2.671875 0.859375q0.953125 0.84375 0.953125 2.578125l0 5.125l-1.453125 0zm-2.78125 0.09375q-0.953125 0 -1.671875 -0.3125q-0.703125 -0.328125 -1.09375 -0.890625q-0.375 -0.578125 -0.375 -1.296875q0 -0.6875 0.328125 -1.234375q0.328125 -0.5625 1.0625 -0.890625q0.75 -0.34375 2.015625 -0.34375l2.6875 0l0 1.09375l-2.625 0q-1.140625 0 -1.546875 0.390625q-0.40625 0.375 -0.40625 0.921875q0 0.625 0.5 1.0q0.5 0.375 1.375 0.375q0.875 0 1.515625 -0.375q0.65625 -0.390625 0.9375 -1.125l0.296875 1.0625q-0.296875 0.75 -1.0625 1.1875q-0.765625 0.4375 -1.9375 0.4375zm10.786804 0q-1.296875 0 -2.3125 -0.5625q-1.015625 -0.5625 -1.59375 -1.53125q-0.578125 -0.96875 -0.578125 -2.234375q0 -1.265625 0.578125 -2.234375q0.578125 -0.984375 1.59375 -1.53125q1.015625 -0.5625 2.3125 -0.5625q1.140625 0 2.046875 0.46875q0.90625 0.453125 1.40625 1.34375l-1.171875 0.75q-0.40625 -0.625 -1.015625 -0.921875q-0.59375 -0.296875 -1.28125 -0.296875q-0.84375 0 -1.5 0.375q-0.65625 0.359375 -1.046875 1.03125q-0.375 0.65625 -0.375 1.578125q0 0.90625 0.375 1.578125q0.390625 0.671875 1.046875 1.046875q0.65625 0.359375 1.5 0.359375q0.6875 0 1.28125 -0.296875q0.609375 -0.296875 1.015625 -0.921875l1.171875 0.734375q-0.5 0.890625 -1.40625 1.359375q-0.90625 0.46875 -2.046875 0.46875zm8.466736 0q-1.28125 0 -1.984375 -0.6875q-0.703125 -0.6875 -0.703125 -1.96875l0 -7.78125l1.53125 0l0 7.71875q0 0.6875 0.34375 1.0625q0.34375 0.359375 0.984375 0.359375q0.71875 0 1.203125 -0.390625l0.46875 1.09375q-0.34375 0.3125 -0.84375 0.453125q-0.484375 0.140625 -1.0 0.140625zm-4.140625 -7.3125l0 -1.265625l5.40625 0l0 1.265625l-5.40625 0zm7.8427734 7.21875l0 -8.484375l1.53125 0l0 8.484375l-1.53125 0zm0.765625 -10.109375q-0.4375 0 -0.734375 -0.28125q-0.296875 -0.296875 -0.296875 -0.71875q0 -0.421875 0.296875 -0.703125q0.296875 -0.296875 0.734375 -0.296875q0.453125 0 0.75 0.28125q0.296875 0.28125 0.296875 0.6875q0 0.4375 -0.296875 0.734375q-0.28125 0.296875 -0.75 0.296875zm7.4014893 10.203125q-1.296875 0 -2.3125 -0.5625q-1.015625 -0.5625 -1.59375 -1.53125q-0.578125 -0.96875 -0.578125 -2.234375q0 -1.265625 0.578125 -2.234375q0.578125 -0.984375 1.59375 -1.53125q1.015625 -0.5625 2.3125 -0.5625q1.140625 0 2.046875 0.46875q0.90625 0.453125 1.40625 1.34375l-1.171875 0.75q-0.40625 -0.625 -1.015625 -0.921875q-0.59375 -0.296875 -1.28125 -0.296875q-0.84375 0 -1.5 0.375q-0.65625 0.359375 -1.046875 1.03125q-0.375 0.65625 -0.375 1.578125q0 0.90625 0.375 1.578125q0.390625 0.671875 1.046875 1.046875q0.65625 0.359375 1.5 0.359375q0.6875 0 1.28125 -0.296875q0.609375 -0.296875 1.015625 -0.921875l1.171875 0.734375q-0.5 0.890625 -1.40625 1.359375q-0.90625 0.46875 -2.046875 0.46875zm9.086182 0q-1.359375 0 -2.390625 -0.5625q-1.03125 -0.5625 -1.609375 -1.53125q-0.5625 -0.96875 -0.5625 -2.234375q0 -1.265625 0.546875 -2.234375q0.5625 -0.984375 1.53125 -1.53125q0.96875 -0.5625 2.171875 -0.5625q1.234375 0 2.171875 0.546875q0.953125 0.546875 1.484375 1.53125q0.546875 0.984375 0.546875 2.296875q0 0.09375 -0.015625 0.21875q0 0.125 -0.015625 0.234375l-7.21875 0l0 -1.09375l6.40625 0l-0.625 0.375q0.03125 -0.8125 -0.328125 -1.453125q-0.359375 -0.640625 -0.96875 -1.0q-0.609375 -0.359375 -1.4375 -0.359375q-0.796875 0 -1.421875 0.359375q-0.625 0.359375 -0.984375 1.015625q-0.34375 0.640625 -0.34375 1.46875l0 0.265625q0 0.84375 0.390625 1.515625q0.390625 0.65625 1.09375 1.03125q0.71875 0.359375 1.625 0.359375q0.75 0 1.359375 -0.25q0.625 -0.265625 1.09375 -0.765625l0.84375 0.984375q-0.578125 0.671875 -1.4375 1.03125q-0.859375 0.34375 -1.90625 0.34375zm8.448242 0q-1.0625 0 -2.015625 -0.28125q-0.953125 -0.296875 -1.484375 -0.703125l0.640625 -1.21875q0.53125 0.359375 1.328125 0.625q0.8125 0.25 1.640625 0.25q1.078125 0 1.546875 -0.296875q0.46875 -0.3125 0.46875 -0.859375q0 -0.390625 -0.296875 -0.609375q-0.28125 -0.234375 -0.75 -0.34375q-0.46875 -0.109375 -1.046875 -0.1875q-0.578125 -0.09375 -1.15625 -0.234375q-0.578125 -0.140625 -1.0625 -0.390625q-0.46875 -0.25 -0.765625 -0.6875q-0.28125 -0.4375 -0.28125 -1.171875q0 -0.765625 0.421875 -1.34375q0.4375 -0.578125 1.234375 -0.890625q0.796875 -0.3125 1.875 -0.3125q0.84375 0 1.6875 0.203125q0.859375 0.203125 1.40625 0.5625l-0.65625 1.21875q-0.578125 -0.375 -1.203125 -0.515625q-0.625 -0.15625 -1.25 -0.15625q-1.0 0 -1.5 0.328125q-0.5 0.328125 -0.5 0.84375q0 0.4375 0.296875 0.671875q0.296875 0.21875 0.765625 0.359375q0.484375 0.125 1.046875 0.21875q0.578125 0.078125 1.15625 0.21875q0.578125 0.125 1.046875 0.375q0.46875 0.234375 0.765625 0.671875q0.296875 0.421875 0.296875 1.140625q0 0.78125 -0.453125 1.34375q-0.4375 0.546875 -1.25 0.859375q-0.8125 0.3125 -1.953125 0.3125z" fill-rule="nonzero"/></g></svg>