<svg version="1.1" viewBox="0.0 0.0 460.2755905511811 303.90551181102364" fill="none" stroke="none" stroke-linecap="square" stroke-miterlimit="10" xmlns:xlink="http://www.w3.org/1999/xlink" xmlns="http://www.w3.org/2000/svg"><clipPath id="p.0"><path d="m0 0l460.2756 0l0 303.90552l-460.2756 0l0 -303.90552z" clip-rule="nonzero"/></clipPath><g clip-path="url(#p.0)"><path fill="#000000" fill-opacity="0.0" d="m0 0l460.2756 0l0 303.90552l-460.2756 0z" fill-rule="evenodd"/><path fill="#efefef" d="m89.12861 234.7664l140.3937 -196.85039l140.3937 196.85039z" fill-rule="evenodd"/><path stroke="#000000" stroke-width="2.0" stroke-linejoin="round" stroke-linecap="butt" d="m89.12861 234.7664l140.3937 -196.85039l140.3937 196.85039z" fill-rule="evenodd"/><path fill="#000000" fill-opacity="0.0" d="m154.62466 -1.3018373l149.79529 0l0 58.83465l-149.79529 0z" fill-rule="evenodd"/><path fill="#000000" d="m211.97185 25.77441q-1.515625 0 -2.78125 -0.5q-1.265625 -0.5 -2.203125 -1.40625q-0.9375 -0.90625 -1.46875 -2.109375q-0.515625 -1.21875 -0.515625 -2.671875q0 -1.453125 0.515625 -2.65625q0.53125 -1.218749 1.46875 -2.124999q0.953125 -0.90625 2.21875 -1.390625q1.265625 -0.5 2.796875 -0.5q1.546875 0 2.828125 0.5q1.296875 0.5 2.1875 1.515625l-1.15625 1.15625q-0.796875 -0.796875 -1.75 -1.15625q-0.9375 -0.359375 -2.03125 -0.359375q-1.125 0 -2.09375 0.375q-0.953125 0.375 -1.65625 1.046875q-0.6875 0.67187405 -1.078125 1.593749q-0.375 0.921875 -0.375 2.0q0 1.0625 0.375 1.984375q0.390625 0.921875 1.078125 1.609375q0.703125 0.6875 1.65625 1.0625q0.953125 0.359375 2.078125 0.359375q1.046875 0 2.0 -0.328125q0.953125 -0.328125 1.78125 -1.078125l1.0625 1.40625q-0.96875 0.828125 -2.265625 1.25q-1.296875 0.421875 -2.671875 0.421875zm3.140625 -1.90625l0 -4.859375l1.796875 0l0 5.09375l-1.796875 -0.234375zm9.340134 1.859375q-1.5 0 -2.65625 -0.640625q-1.15625 -0.65625 -1.828125 -1.796875q-0.671875 -1.15625 -0.671875 -2.609375q0 -1.484375 0.671875 -2.609375q0.671875 -1.140625 1.828125 -1.78125q1.15625 -0.65624905 2.65625 -0.65624905q1.46875 0 2.625 0.65624905q1.171875 0.640625 1.828125 1.765625q0.671875 1.125 0.671875 2.625q0 1.46875 -0.671875 2.609375q-0.65625 1.140625 -1.828125 1.796875q-1.15625 0.640625 -2.625 0.640625zm0 -1.5625q0.953125 0 1.703125 -0.421875q0.75 -0.4375 1.171875 -1.234375q0.4375 -0.796875 0.4375 -1.828125q0 -1.0625 -0.4375 -1.84375q-0.421875 -0.78125 -1.171875 -1.203125q-0.75 -0.421875 -1.703125 -0.421875q-0.953125 0 -1.703125 0.421875q-0.75 0.421875 -1.203125 1.203125q-0.4375 0.78125 -0.4375 1.84375q0 1.03125 0.4375 1.828125q0.453125 0.796875 1.203125 1.234375q0.75 0.421875 1.703125 0.421875zm11.846725 1.5625q-1.5 0 -2.65625 -0.640625q-1.15625 -0.65625 -1.828125 -1.796875q-0.671875 -1.15625 -0.671875 -2.609375q0 -1.484375 0.671875 -2.609375q0.671875 -1.140625 1.828125 -1.78125q1.15625 -0.65624905 2.65625 -0.65624905q1.46875 0 2.625 0.65624905q1.171875 0.640625 1.828125 1.765625q0.671875 1.125 0.671875 2.625q0 1.46875 -0.671875 2.609375q-0.65625 1.140625 -1.828125 1.796875q-1.15625 0.640625 -2.625 0.640625zm0 -1.5625q0.953125 0 1.703125 -0.421875q0.75 -0.4375 1.171875 -1.234375q0.4375 -0.796875 0.4375 -1.828125q0 -1.0625 -0.4375 -1.84375q-0.421875 -0.78125 -1.171875 -1.203125q-0.75 -0.421875 -1.703125 -0.421875q-0.953125 0 -1.703125 0.421875q-0.75 0.421875 -1.203125 1.203125q-0.4375 0.78125 -0.4375 1.84375q0 1.03125 0.4375 1.828125q0.453125 0.796875 1.203125 1.234375q0.75 0.421875 1.703125 0.421875zm11.690475 1.5625q-1.4375 0 -2.5625 -0.625q-1.125 -0.640625 -1.78125 -1.78125q-0.65625 -1.140625 -0.65625 -2.640625q0 -1.515625 0.65625 -2.640625q0.65625 -1.140625 1.78125 -1.765625q1.125 -0.64062405 2.5625 -0.64062405q1.25 0 2.25 0.56249905q1.015625 0.5625 1.625 1.6875q0.609375 1.109375 0.609375 2.796875q0 1.671875 -0.59375 2.796875q-0.59375 1.109375 -1.59375 1.6875q-1.0 0.5625 -2.296875 0.5625zm0.15625 -1.5625q0.921875 0 1.671875 -0.421875q0.765625 -0.4375 1.203125 -1.234375q0.4375 -0.796875 0.4375 -1.828125q0 -1.0625 -0.4375 -1.84375q-0.4375 -0.78125 -1.203125 -1.203125q-0.75 -0.421875 -1.671875 -0.421875q-0.953125 0 -1.703125 0.421875q-0.75 0.421875 -1.203125 1.203125q-0.4375 0.78125 -0.4375 1.84375q0 1.03125 0.4375 1.828125q0.453125 0.796875 1.203125 1.234375q0.75 0.421875 1.703125 0.421875zm3.375 1.453125l0 -2.671875l0.109375 -2.296875l-0.1875 -2.28125l0 -6.593749l1.796875 0l0 13.843749l-1.71875 0z" fill-rule="nonzero"/><path fill="#000000" fill-opacity="0.0" d="m296.90027 240.58005l149.79526 0l0 58.834656l-149.79526 0z" fill-rule="evenodd"/><path fill="#000000" d="m348.98926 267.6563q-1.484375 0 -2.75 -0.5q-1.265625 -0.5 -2.1875 -1.40625q-0.921875 -0.90625 -1.453125 -2.109375q-0.515625 -1.21875 -0.515625 -2.671875q0 -1.453125 0.515625 -2.65625q0.53125 -1.21875 1.46875 -2.125q0.9375 -0.90626526 2.1875 -1.3906403q1.265625 -0.5 2.75 -0.5q1.515625 0 2.796875 0.515625q1.28125 0.5 2.171875 1.5156403l-1.21875 1.171875q-0.734375 -0.78125 -1.671875 -1.15625q-0.9375 -0.39064026 -2.0 -0.39064026q-1.09375 0 -2.046875 0.37501526q-0.9375 0.375 -1.625 1.046875q-0.6875 0.671875 -1.078125 1.59375q-0.375 0.921875 -0.375 2.0q0 1.078125 0.375 2.015625q0.390625 0.921875 1.078125 1.59375q0.6875 0.671875 1.625 1.046875q0.953125 0.359375 2.046875 0.359375q1.0625 0 2.0 -0.375q0.9375 -0.390625 1.671875 -1.1875l1.21875 1.171875q-0.890625 1.015625 -2.171875 1.546875q-1.28125 0.515625 -2.8125 0.515625zm12.675964 -10.140625q1.203125 0 2.125 0.46875q0.921875 0.46875 1.4375 1.421875q0.53125 0.953125 0.53125 2.40625l0 5.6875l-1.78125 0l0 -5.484375q0 -1.4375 -0.703125 -2.15625q-0.703125 -0.734375 -1.96875 -0.734375q-0.953125 0 -1.671875 0.375q-0.703125 0.375 -1.09375 1.109375q-0.375 0.71875 -0.375 1.796875l0 5.09375l-1.78125 0l0 -13.843765l1.78125 0l0 6.6250153l-0.34375 -0.703125q0.484375 -0.984375 1.484375 -1.515625q1.015625 -0.546875 2.359375 -0.546875zm11.814301 10.09375q-1.578125 0 -2.78125 -0.640625q-1.203125 -0.65625 -1.875 -1.796875q-0.65625 -1.140625 -0.65625 -2.609375q0 -1.484375 0.640625 -2.609375q0.65625 -1.140625 1.78125 -1.78125q1.125 -0.65625 2.546875 -0.65625q1.4375 0 2.53125 0.640625q1.109375 0.625 1.734375 1.78125q0.625 1.140625 0.625 2.671875q0 0.109375 -0.015625 0.265625q-0.015625 0.140625 -0.03125 0.28125l-8.40625 0l0 -1.296875l7.46875 0l-0.71875 0.453125q0.015625 -0.953125 -0.390625 -1.6875q-0.40625 -0.75 -1.125 -1.171875q-0.71875 -0.421875 -1.671875 -0.421875q-0.9375 0 -1.671875 0.421875q-0.71875 0.421875 -1.140625 1.171875q-0.40625 0.75 -0.40625 1.71875l0 0.3125q0 0.984375 0.453125 1.765625q0.46875 0.765625 1.28125 1.203125q0.828125 0.421875 1.890625 0.421875q0.875 0 1.59375 -0.296875q0.71875 -0.296875 1.265625 -0.90625l0.984375 1.15625q-0.671875 0.796875 -1.671875 1.203125q-1.0 0.40625 -2.234375 0.40625zm12.872009 -0.109375l0 -2.09375l-0.078125 -0.390625l0 -3.5625q0 -1.140625 -0.671875 -1.765625q-0.65625 -0.625 -1.984375 -0.625q-0.875 0 -1.71875 0.296875q-0.84375 0.28125 -1.421875 0.765625l-0.734375 -1.34375q0.765625 -0.609375 1.828125 -0.9375q1.078125 -0.328125 2.25 -0.328125q2.03125 0 3.125 1.0q1.109375 0.984375 1.109375 3.015625l0 5.96875l-1.703125 0zm-3.234375 0.109375q-1.109375 0 -1.9375 -0.375q-0.828125 -0.375 -1.28125 -1.03125q-0.4375 -0.65625 -0.4375 -1.5q0 -0.796875 0.375 -1.453125q0.390625 -0.65625 1.25 -1.046875q0.875 -0.390625 2.34375 -0.390625l3.140625 0l0 1.28125l-3.0625 0q-1.34375 0 -1.8125 0.453125q-0.46875 0.453125 -0.46875 1.078125q0 0.734375 0.578125 1.171875q0.578125 0.4375 1.609375 0.4375q1.0 0 1.75 -0.453125q0.765625 -0.453125 1.109375 -1.296875l0.34375 1.21875q-0.34375 0.875 -1.25 1.390625q-0.890625 0.515625 -2.25 0.515625zm13.500183 0q-1.234375 0 -2.25 -0.5625q-1.015625 -0.578125 -1.625 -1.6875q-0.59375 -1.125 -0.59375 -2.796875q0 -1.6875 0.578125 -2.796875q0.59375 -1.125 1.609375 -1.6875q1.015625 -0.5625 2.28125 -0.5625q1.453125 0 2.578125 0.640625q1.125 0.625 1.765625 1.765625q0.65625 1.125 0.65625 2.640625q0 1.5 -0.65625 2.640625q-0.640625 1.140625 -1.765625 1.78125q-1.125 0.625 -2.578125 0.625zm-5.234375 3.515625l0 -13.515625l1.71875 0l0 2.671875l-0.125 2.296875l0.1875 2.296875l0 6.25l-1.78125 0zm5.09375 -5.078125q0.953125 0 1.703125 -0.421875q0.75 -0.4375 1.1875 -1.234375q0.4375 -0.796875 0.4375 -1.828125q0 -1.0625 -0.4375 -1.84375q-0.4375 -0.78125 -1.1875 -1.203125q-0.75 -0.421875 -1.703125 -0.421875q-0.9375 0 -1.703125 0.421875q-0.75 0.421875 -1.1875 1.203125q-0.4375 0.78125 -0.4375 1.84375q0 1.03125 0.4375 1.828125q0.4375 0.796875 1.1875 1.234375q0.765625 0.421875 1.703125 0.421875z" fill-rule="nonzero"/><path fill="#000000" fill-opacity="0.0" d="m0.7454068 240.58005l149.79527 0l0 58.834656l-149.79527 0z" fill-rule="evenodd"/><path fill="#000000" d="m59.42418 260.60944l6.734375 0l0 1.609375l-6.734375 0l0 -1.609375zm0.1875 6.890625l-1.875 0l0 -13.062515l9.21875 0l0 1.6250153l-7.34375 0l0 11.4375zm15.492065 0l0 -2.09375l-0.078125 -0.390625l0 -3.5625q0 -1.140625 -0.671875 -1.765625q-0.65625 -0.625 -1.984375 -0.625q-0.875 0 -1.71875 0.296875q-0.84375 0.28125 -1.421875 0.765625l-0.734375 -1.34375q0.765625 -0.609375 1.828125 -0.9375q1.078125 -0.328125 2.25 -0.328125q2.03125 0 3.125 1.0q1.109375 0.984375 1.109375 3.015625l0 5.96875l-1.703125 0zm-3.234375 0.109375q-1.109375 0 -1.9375 -0.375q-0.828125 -0.375 -1.28125 -1.03125q-0.4375 -0.65625 -0.4375 -1.5q0 -0.796875 0.375 -1.453125q0.390625 -0.65625 1.25 -1.046875q0.875 -0.390625 2.34375 -0.390625l3.140625 0l0 1.28125l-3.0625 0q-1.34375 0 -1.8125 0.453125q-0.46875 0.453125 -0.46875 1.078125q0 0.734375 0.578125 1.171875q0.578125 0.4375 1.609375 0.4375q1.0 0 1.75 -0.453125q0.765625 -0.453125 1.109375 -1.296875l0.34375 1.21875q-0.34375 0.875 -1.25 1.390625q-0.890625 0.515625 -2.25 0.515625zm11.093933 0q-1.234375 0 -2.34375 -0.328125q-1.109375 -0.34375 -1.734375 -0.828125l0.734375 -1.421875q0.640625 0.4375 1.5625 0.734375q0.9375 0.296875 1.921875 0.296875q1.234375 0 1.78125 -0.34375q0.5625 -0.359375 0.5625 -1.0q0 -0.46875 -0.34375 -0.71875q-0.328125 -0.265625 -0.875 -0.390625q-0.546875 -0.140625 -1.21875 -0.234375q-0.671875 -0.109375 -1.34375 -0.265625q-0.671875 -0.15625 -1.234375 -0.4375q-0.5625 -0.296875 -0.90625 -0.8125q-0.328125 -0.515625 -0.328125 -1.375q0 -0.890625 0.5 -1.5625q0.5 -0.671875 1.421875 -1.03125q0.9375 -0.375 2.203125 -0.375q0.96875 0 1.96875 0.234375q1.0 0.234375 1.625 0.671875l-0.765625 1.40625q-0.671875 -0.4375 -1.40625 -0.609375q-0.71875 -0.171875 -1.4375 -0.171875q-1.1875 0 -1.765625 0.390625q-0.578125 0.375 -0.578125 0.96875q0 0.515625 0.34375 0.78125q0.359375 0.265625 0.90625 0.421875q0.546875 0.140625 1.21875 0.25q0.671875 0.09375 1.34375 0.265625q0.671875 0.15625 1.21875 0.4375q0.546875 0.265625 0.890625 0.78125q0.359375 0.5 0.359375 1.34375q0 0.890625 -0.53125 1.546875q-0.515625 0.65625 -1.46875 1.015625q-0.953125 0.359375 -2.28125 0.359375zm9.9092865 0q-1.5 0 -2.328125 -0.796875q-0.8125 -0.8125 -0.8125 -2.296875l0 -9.062515l1.796875 0l0 8.98439q0 0.8125 0.390625 1.234375q0.40625 0.421875 1.15625 0.421875q0.84375 0 1.40625 -0.453125l0.546875 1.28125q-0.40625 0.359375 -0.984375 0.53125q-0.5625 0.15625 -1.171875 0.15625zm-4.8125 -8.515625l0 -1.484375l6.296875 0l0 1.484375l-6.296875 0z" fill-rule="nonzero"/><path fill="#000000" d="m285.44818 179.84279l2.7957458 -3.4362488l4.616974 3.7563782l4.616974 -3.7563782l2.7957458 3.4362488l-3.9031067 3.175583l3.9031067 3.175583l-2.7957458 3.436264l-4.616974 -3.7563934l-4.616974 3.7563934l-2.7957458 -3.436264l3.9030762 -3.175583z" fill-rule="evenodd"/><path stroke="#000000" stroke-width="1.0" stroke-linejoin="round" stroke-linecap="butt" d="m285.44818 179.84279l2.7957458 -3.4362488l4.616974 3.7563782l4.616974 -3.7563782l2.7957458 3.4362488l-3.9031067 3.175583l3.9031067 3.175583l-2.7957458 3.436264l-4.616974 -3.7563934l-4.616974 3.7563934l-2.7957458 -3.436264l3.9030762 -3.175583z" fill-rule="evenodd"/><path fill="#000000" fill-opacity="0.0" d="m217.96326 181.8768l149.79529 0l0 58.83464l-149.79529 0z" fill-rule="evenodd"/><path fill="#000000" d="m261.68427 202.39679l0 -8.40625l0.984375 0l3.765625 6.359375l-0.53125 0l3.71875 -6.359375l0.984375 0l0.015625 8.40625l-1.15625 0l-0.015625 -6.59375l0.28125 0l-3.3125 5.578125l-0.546875 0l-3.34375 -5.578125l0.296875 0l0 6.59375l-1.140625 0zm11.569458 2.40625q-0.46875 0 -0.90625 -0.15625q-0.421875 -0.15625 -0.734375 -0.4375l0.5 -0.859375q0.234375 0.21875 0.515625 0.34375q0.296875 0.125 0.625 0.125q0.40625 0 0.6875 -0.21875q0.28125 -0.21875 0.515625 -0.765625l0.390625 -0.875l0.125 -0.15625l2.5 -5.765625l1.125 0l-3.078125 7.0q-0.28125 0.671875 -0.625 1.046875q-0.34375 0.390625 -0.75 0.546875q-0.40625 0.171875 -0.890625 0.171875zm1.5 -2.203125l-2.90625 -6.5625l1.203125 0l2.46875 5.65625l-0.765625 0.90625zm8.326721 -0.203125l0 -8.40625l3.265625 0q1.109375 0 1.890625 0.359375q0.78125 0.34375 1.203125 1.0q0.421875 0.65625 0.421875 1.578125q0 0.90625 -0.421875 1.5625q-0.421875 0.65625 -1.203125 1.015625q-0.78125 0.34375 -1.890625 0.34375l-2.609375 0l0.53125 -0.5625l0 3.109375l-1.1875 0zm1.1875 -2.984375l-0.53125 -0.609375l2.578125 0q1.15625 0 1.75 -0.484375q0.59375 -0.5 0.59375 -1.390625q0 -0.90625 -0.59375 -1.390625q-0.59375 -0.5 -1.75 -0.5l-2.578125 0l0.53125 -0.59375l0 4.96875zm7.0766907 2.984375l0 -6.359375l1.109375 0l0 1.734375l-0.109375 -0.4375q0.265625 -0.65625 0.875 -1.0q0.625 -0.359375 1.546875 -0.359375l0 1.125q-0.078125 -0.015625 -0.140625 -0.015625q-0.0625 0 -0.125 0q-0.921875 0 -1.46875 0.546875q-0.53125 0.546875 -0.53125 1.59375l0 3.171875l-1.15625 0zm7.4947815 0.078125q-0.953125 0 -1.703125 -0.421875q-0.734375 -0.421875 -1.171875 -1.15625q-0.4375 -0.75 -0.4375 -1.6875q0 -0.9375 0.4375 -1.671875q0.4375 -0.734375 1.171875 -1.140625q0.75 -0.421875 1.703125 -0.421875q0.953125 0 1.703125 0.421875q0.75 0.40625 1.171875 1.140625q0.421875 0.71875 0.421875 1.671875q0 0.953125 -0.421875 1.6875q-0.421875 0.734375 -1.171875 1.15625q-0.75 0.421875 -1.703125 0.421875zm0 -1.015625q0.609375 0 1.09375 -0.265625q0.5 -0.28125 0.765625 -0.796875q0.28125 -0.515625 0.28125 -1.1875q0 -0.671875 -0.28125 -1.171875q-0.265625 -0.5 -0.765625 -0.765625q-0.484375 -0.28125 -1.09375 -0.28125q-0.609375 0 -1.09375 0.28125q-0.46875 0.265625 -0.765625 0.765625q-0.28125 0.5 -0.28125 1.171875q0 0.671875 0.28125 1.1875q0.296875 0.515625 0.765625 0.796875q0.484375 0.265625 1.09375 0.265625zm4.088806 3.34375q-0.40625 0 -0.765625 -0.109375q-0.375 -0.09375 -0.625 -0.28125l0.375 -0.890625q0.359375 0.296875 0.9375 0.296875q0.453125 0 0.703125 -0.28125q0.25 -0.28125 0.25 -0.828125l0 -6.671875l1.140625 0l0 6.640625q0 0.984375 -0.515625 1.546875q-0.515625 0.578125 -1.5 0.578125zm1.4375 -9.984375q-0.328125 0 -0.5625 -0.21875q-0.21875 -0.21875 -0.21875 -0.53125q0 -0.328125 0.21875 -0.53125q0.234375 -0.21875 0.5625 -0.21875q0.34375 0 0.5625 0.21875q0.21875 0.203125 0.21875 0.5q0 0.328125 -0.21875 0.5625q-0.203125 0.21875 -0.5625 0.21875zm5.611145 7.65625q-1.015625 0 -1.796875 -0.421875q-0.765625 -0.421875 -1.203125 -1.15625q-0.421875 -0.734375 -0.421875 -1.6875q0 -0.9375 0.40625 -1.671875q0.421875 -0.734375 1.140625 -1.140625q0.734375 -0.421875 1.65625 -0.421875q0.921875 0 1.625 0.40625q0.703125 0.40625 1.109375 1.15625q0.40625 0.734375 0.40625 1.71875q0 0.0625 -0.015625 0.171875q0 0.09375 -0.015625 0.171875l-5.40625 0l0 -0.828125l4.8125 0l-0.46875 0.28125q0.015625 -0.609375 -0.25 -1.078125q-0.265625 -0.484375 -0.734375 -0.75q-0.453125 -0.28125 -1.0625 -0.28125q-0.609375 0 -1.078125 0.28125q-0.46875 0.265625 -0.734375 0.75q-0.265625 0.484375 -0.265625 1.109375l0 0.1875q0 0.640625 0.296875 1.140625q0.296875 0.5 0.828125 0.78125q0.53125 0.265625 1.203125 0.265625q0.578125 0 1.03125 -0.1875q0.46875 -0.1875 0.8125 -0.578125l0.640625 0.75q-0.4375 0.5 -1.078125 0.765625q-0.640625 0.265625 -1.4375 0.265625zm7.281555 0q-0.96875 0 -1.734375 -0.421875q-0.75 -0.421875 -1.1875 -1.15625q-0.4375 -0.734375 -0.4375 -1.6875q0 -0.9375 0.4375 -1.671875q0.4375 -0.734375 1.1875 -1.140625q0.765625 -0.421875 1.734375 -0.421875q0.875 0 1.546875 0.34375q0.671875 0.34375 1.046875 1.015625l-0.875 0.5625q-0.3125 -0.46875 -0.765625 -0.6875q-0.4375 -0.21875 -0.953125 -0.21875q-0.625 0 -1.125 0.28125q-0.484375 0.265625 -0.78125 0.765625q-0.28125 0.5 -0.28125 1.171875q0 0.6875 0.28125 1.203125q0.296875 0.5 0.78125 0.78125q0.5 0.265625 1.125 0.265625q0.515625 0 0.953125 -0.21875q0.453125 -0.21875 0.765625 -0.6875l0.875 0.546875q-0.375 0.65625 -1.046875 1.015625q-0.671875 0.359375 -1.546875 0.359375zm6.35791 0q-0.96875 0 -1.5 -0.515625q-0.515625 -0.515625 -0.515625 -1.484375l0 -5.828125l1.140625 0l0 5.78125q0 0.515625 0.25 0.796875q0.265625 0.265625 0.75 0.265625q0.546875 0 0.90625 -0.296875l0.359375 0.828125q-0.265625 0.234375 -0.640625 0.34375q-0.359375 0.109375 -0.75 0.109375zm-3.09375 -5.484375l0 -0.953125l4.046875 0l0 0.953125l-4.046875 0z" fill-rule="nonzero"/></g></svg>